<svg xmlns="http://www.w3.org/2000/svg" xmlns:xlink="http://www.w3.org/1999/xlink" viewBox="0 0 239.33 334.75"><defs><style>.cls-1{fill:#50144d;}.cls-2{fill:url(#linear-gradient);}.cls-3{fill:url(#linear-gradient-2);}.cls-4{fill:url(#linear-gradient-3);}</style><linearGradient id="linear-gradient" x1="252.6" y1="179.12" x2="301.47" y2="179.12" gradientUnits="userSpaceOnUse"><stop offset="0.04" stop-color="#f15d4d"/><stop offset="0.87" stop-color="#63225c"/></linearGradient><linearGradient id="linear-gradient-2" x1="152.01" y1="230.22" x2="301.47" y2="230.22" xlink:href="#linear-gradient"/><linearGradient id="linear-gradient-3" x1="137.18" y1="348.73" x2="247.45" y2="348.73" xlink:href="#linear-gradient"/></defs><g id="Layer_1" data-name="Layer 1"><path class="cls-1" d="M311.07,77.68S284.09,116,293,154.79s35.55,43.56,12,85.48c0,0,3.65-19.86-15.31-38.82S258.94,118.68,311.07,77.68Z" transform="translate(-137.18 -50.25)"/></g><g id="Layer_11" data-name="Layer 11"><path class="cls-2" d="M271.33,125.08s-13.85,42.65,5.65,68.53,25.16,32.08,24.43,39.56a115.33,115.33,0,0,0-44.84-33.91s-8.93-20.78,0-39.37c0,0-.55,15.13,3.46,19.23C260,179.12,257.48,135.1,271.33,125.08Z" transform="translate(-137.18 -50.25)"/></g><g id="Layer_10" data-name="Layer 10"><path class="cls-1" d="M181.38,50.25c-4.19,38.38,5.36,65.91,11.11,79.18,13.89,32,36.54,52.21,45.67,60.17,30.39,26.54,49.2,25.66,62,48.49,10.24,18.29,9.12,38.45,6.74,52.22a100.15,100.15,0,0,0-16.37-29.16c-18.73-23-39-25.9-61.46-38.74-4.07-2.33-54.07-31.82-66-81.74C153.5,101,172.12,65.32,181.38,50.25Z" transform="translate(-137.18 -50.25)"/></g><g id="Layer_9" data-name="Layer 9"><path class="cls-3" d="M153.76,151.14A128,128,0,0,0,170,185.73c20.49,30.59,50.79,46.34,64,52.27,22.56,10.09,32,8,46.34,20.69,11.67,10.36,17.78,22.73,21.13,31.62,0,0-15.37-27.34-34.79,5.19a30.18,30.18,0,0,1-8.81,9c-15,9.79-33.48,1.76-35.54.83A18.88,18.88,0,0,0,235,300a19.24,19.24,0,0,0,5.3-15,43.13,43.13,0,0,1-14.56,5c-30.69,4.59-55.24-27.29-57.49-30.29,0,0,40.61,7.79,48.67-2.05-2,.49-28.08,6.42-47.53-11.82-14.22-13.34-15.45-30.74-15.63-34.66,7.89,7.12,16.69,14.63,17.91,13.51s-7-10.4-12.38-21.13C153.86,192.63,149.43,176.06,153.76,151.14Z" transform="translate(-137.18 -50.25)"/></g><g id="Layer_8" data-name="Layer 8"><path class="cls-1" d="M294.07,297.15s-11.92,4.94-22.19,25.67-15.95,20.53-15.95,20.53,6.2-2.54,11.48-20.43S294.07,297.15,294.07,297.15Z" transform="translate(-137.18 -50.25)"/></g><g id="Layer_7" data-name="Layer 7"><path class="cls-1" d="M289.56,288s-16,6.65-29.85,34.54-21.46,27.62-21.46,27.62,8.34-3.42,15.45-27.48S289.56,288,289.56,288Z" transform="translate(-137.18 -50.25)"/></g><g id="WING"><path class="cls-4" d="M247.45,312.45s-6.74,64.35-62,72.55c0,0,14.22-4,20.23-12.21,0,0-16,15.13-42.65-2.92,0,0,12.39,3.65,28.25-5.83,0,0-27.16,7.29-48.12-18.41,0,0,18.59,8.75,31,4.56,0,0-28.25-5.11-37-32.63C137.18,317.56,190,364.77,247.45,312.45Z" transform="translate(-137.18 -50.25)"/></g><g id="BIRD_FACE" data-name="BIRD FACE"><path class="cls-1" d="M308.48,250.48s4.59-.18,8.42-13.49,29.53-11.3,37.18-3.82,17.87,14.58,22.42,14c0,0-30.07,8-38.09,33.54s-21.87,83.48-100.16,74.73c15.25-5.29,48.55-19.33,73.27-53.41a144.61,144.61,0,0,0,20.33-39.91l-17.33,9L327.11,252l-12.59,6,7.12-11.76Z" transform="translate(-137.18 -50.25)"/></g></svg>