<svg xmlns="http://www.w3.org/2000/svg" viewBox="0 0 32 32"><path fill="#b0c4da" d="M6.5 13h-1c-.8 0-1.5.7-1.5 1.5v.6c-.6.2-1 .8-1 1.4 0 .4.2.7.4 1-.2.3-.4.6-.4 1s.2.7.4 1c-.2.3-.4.6-.4 1s.2.7.4 1c-.2.3-.4.6-.4 1 0 .8.7 1.5 1.5 1.5.3 0 .5-.2.5-.5s-.2-.5-.5-.5-.5-.2-.5-.5.2-.5.5-.5.5-.2.5-.5-.2-.5-.5-.5-.5-.2-.5-.5.2-.5.5-.5.5-.2.5-.5-.2-.5-.5-.5-.5-.2-.5-.5.2-.5.5-.5.5-.2.5-.5-.2-.5-.5-.5-.5-.2-.5-.5.2-.5.5-.5.5-.2.5-.5v-1c0-.3.2-.5.5-.5h1c.3 0 .5-.2.5-.5s-.2-.5-.5-.5z"/><path fill="#607d95" d="M24 14.1v-3.6c0-.6-.4-1-1-1H12c-.6 0-1 .4-1 1v3.6c0 .9-.6 1.6-1.4 1.9l-.5.2c-.7.2-1.2.8-1.3 1.5l-1.3 6.5c-.2 1.2.7 2.4 2 2.4h18.1c1.3 0 2.2-1.2 2-2.4l-1.3-6.5c-.1-.7-.6-1.3-1.3-1.5l-.6-.2c-.8-.3-1.4-1.1-1.4-1.9z"/><path fill="#4b6c85" d="M24 15.1c0 .9.6 1.6 1.4 1.9l.5.2c.7.2 1.2.8 1.3 1.5l1.3 6.4c.1-.3.1-.6 0-.9l-1.3-6.5c-.1-.7-.6-1.3-1.3-1.5l-.5-.2c-.8-.3-1.4-1-1.4-1.9v1zm-12-4.6h11c.6 0 1 .4 1 1v-1c0-.6-.4-1-1-1H12c-.6 0-1 .4-1 1v1c0-.6.4-1 1-1zm-4.2 8.1c.1-.7.6-1.3 1.3-1.5l.5-.1c.8-.3 1.4-1 1.4-1.9v-1c0 .9-.6 1.6-1.4 1.9l-.5.2c-.7.2-1.2.8-1.3 1.5l-1.3 6.5c-.1.3 0 .6 0 .9l1.3-6.5z"/><path fill="#607d95" d="M27.1 7.3c-2-1.2-4.3-1.8-6.6-1.8h-5.9c-2.3 0-4.6.6-6.6 1.8-1.3.8-2 2.1-2 3.5v2.7c0 .6.4 1 1 1h3.2c.3 0 .6-.2.8-.4v-3.6c0-.6.4-1 1-1h11c.6 0 1 .4 1 1v3.6c.2.3.5.4.8.4H28c.6 0 1-.4 1-1v-2.7c0-1.4-.7-2.7-1.9-3.5z"/><path fill="#4b6c85" d="M8 13.5v-2.7c0-1.4.7-2.7 1.9-3.4 2-1.2 4.3-1.8 6.6-1.8h-2c-2.3 0-4.6.6-6.6 1.8-1.2.7-1.9 2-1.9 3.4v2.7c0 .6.4 1 1 1h2c-.6 0-1-.4-1-1zm18 .6v-3.6c0-.6-.4-1-1-1h-2c.6 0 1 .4 1 1v3.6c.2.3.5.4.8.4h2c-.3 0-.6-.2-.8-.4z"/><path fill="#4b6c85" d="M24 11.5v2.6c.2.3.5.4.8.4H28c.6 0 1-.4 1-1v-2h-5z"/><path fill="#40657c" d="M26 12.3v-.8h-2v2.6c.2.3.5.4.8.4H28c.6 0 1-.4 1-1v-.2h-2c-.6 0-1-.5-1-1z"/><path fill="#4b6c85" d="m28.5 24.1-.3-1.6H10c-.6 0-1.1-.6-1-1.2l.7-3.7c.1-.7.6-1.3 1.3-1.5l.5-.2c.8-.3 1.4-1 1.4-1.9v-3.6c0-.6.4-1 1-1h-2c-.6 0-1 .4-1 1V14c0 .9-.6 1.6-1.4 1.9l-.5.2c-.7.2-1.2.8-1.3 1.5l-1 4.9-.3 1.6v.4h22.1c.1.1.1-.1 0-.4z"/><path fill="#eef2fa" d="M17.5 12.5c-2.5 0-4.5 2-4.5 4.5s2 4.5 4.5 4.5 4.5-2 4.5-4.5-2-4.5-4.5-4.5zm0 7c-1.4 0-2.5-1.1-2.5-2.5s1.1-2.5 2.5-2.5S20 15.6 20 17s-1.1 2.5-2.5 2.5z"/><path fill="#b0c4da" d="M19.5 20.5c-1.2 0-2.3-.5-3.2-1.3-.8-.4-1.3-1.2-1.3-2.2 0-.2 0-.3.1-.5 0-.2-.1-.3-.1-.5 0-1.4.6-2.6 1.6-3.4-2.1.4-3.6 2.2-3.6 4.4 0 2.5 2 4.5 4.5 4.5 1.1 0 2.1-.4 2.9-1.1-.3.1-.6.1-.9.1z"/><path fill="#40657c" d="M6.4 24.5c0 1.1.9 2 2 2h18.1c1.1 0 2-.9 2-2H6.4z"/><path fill="#4b6c85" d="M6 11.5v2c0 .6.4 1 1 1h3.2c.3 0 .6-.2.8-.4v-2.6H6z"/><path fill="#40657c" d="M9 13.3c-.6 0-1-.4-1-1v-.8H6v2c0 .6.4 1 1 1h3.2c.3 0 .6-.2.8-.4v-.8H9z"/><path fill="#99b5ce" d="M22 17.5h-2.1c-.3 0-.5-.2-.5-.5s.2-.5.5-.5H22c.3 0 .5.2.5.5s-.2.5-.5.5z"/><circle cx="17.5" cy="17" r="2.5" fill="#b0c4da"/><path fill="#99b5ce" d="M16.5 16.5c0-.8.4-1.5 1-2-1.4 0-2.5 1.1-2.5 2.5s1.1 2.5 2.5 2.5c.6 0 1.1-.2 1.5-.5-1.4 0-2.5-1.1-2.5-2.5z"/></svg>