<svg xmlns="http://www.w3.org/2000/svg" width="2046.495" height="950" viewBox="0 0 2046.495 950"><g opacity="0.52"><path d="M24.778,167.72a70.854,70.854,0,0,1,8.638-5.074c2.329-1.256,4.36-2.326,5.416-3.023a178.2,178.2,0,0,0,15.435-12.2A162.278,162.278,0,0,0,79.558,119.49c.677-.931,1.516-2,2.41-3.166,4.685-6.029,11.075-14.246,8.8-21.7a11.8,11.8,0,0,0-3.432-6,14.865,14.865,0,0,0-6.56-3.591c-7.663-1.932-16.978,1.886-22.8,6.541C45.9,101.216,32.224,112.134,25.1,126.5c-.541,1.117-1.056,2.328-1.516,3.375a108.172,108.172,0,0,0-5.416,20.811c-.948,4.842-1.841,9.312-3.168,13.968a4.115,4.115,0,0,0,.681,3.107,5.31,5.31,0,0,0,2.833,2.014,6.235,6.235,0,0,0,3.678,0,5.278,5.278,0,0,0,2.827-2.023Z" transform="translate(54.521 308.611)" fill="#cacaca"/><path d="M58.565,114.642c-9.45.977-16.058,13.5-21.5,25.186l-.812,1.7c-1.192,2.465-2.3,4.981-3.331,7.493-3.168,7.753-5.66,15.553-7.934,22.6-3.466,10.823,2.41,14.618,5.091,15.735a14.768,14.768,0,0,0,10.317,0c7.176-2.326,13.35-7.26,18.955-15.223,2.708-4.074,20.119-40.9,10.832-53.121a11.217,11.217,0,0,0-5.044-3.688,13.242,13.242,0,0,0-6.573-.688Z" transform="translate(87.346 418.047)" fill="#cacaca"/><path d="M29.685,353.937a139.98,139.98,0,0,0,25.779,6.751A110.331,110.331,0,0,0,22.78,373.118,49.31,49.31,0,0,0,3.2,391.322,22.86,22.86,0,0,0,.067,404.665a23.642,23.642,0,0,0,5.166,12.868,20.2,20.2,0,0,0,2,1.885,1.06,1.06,0,0,0,.4.738,1.416,1.416,0,0,0,.874.31,35.082,35.082,0,0,0,14.75,5.9,37.573,37.573,0,0,0,16.228-.987c11.075-2.933,19.848-9.5,27.674-16.155a104.123,104.123,0,0,0,20.174-21.486,47,47,0,0,0,7.555-19.251,6.248,6.248,0,0,0,1.164.116,215.492,215.492,0,0,0,82.617-23.441c-7.013,11.779-13.539,23.278-19.524,35.755-1.814,3.818-3.683,8.008-5.416,12.524-9.071,22.021-17.655,51.747-15.976,82.171a3.843,3.843,0,0,0-.813.442c-3.845,3.028-8.124,6.033-12.267,9.079s-7.853,5.633-11.671,8.591a32.255,32.255,0,0,0-15.029-5.493,47.786,47.786,0,0,0-22.825,2.953,40.593,40.593,0,0,0-17.495,12.944,9.23,9.23,0,0,0-1.3,2.191,5.826,5.826,0,0,0-.514,2.535,7.017,7.017,0,0,0,.823,3.009,8.019,8.019,0,0,0,2.1,2.507c3.412,3,10.073,6.2,22.5,4.237a84.041,84.041,0,0,0,9.884-2.139c-.542.93-1.056,1.86-1.544,2.814-5.253,10.219-7.067,21.651-8.53,30.823-.46,2.7-1.462,9.009,3.9,12.846a14.376,14.376,0,0,0,5.908,2.149,15.171,15.171,0,0,0,6.386-.516c11.481-2.912,16.843-12.944,19.849-20.256v-.163c3.547-8.633,10.426-29.214,2.383-43.13,3.872-3.028,7.934-5.939,11.969-8.823,2.464-1.8,4.9-3.563,7.284-5.33a110.246,110.246,0,0,0,17.818,46.669,4.892,4.892,0,0,0,1.029,1,62.716,62.716,0,0,0,9.559,10.6,97.9,97.9,0,0,0,22.259,16.293,81.435,81.435,0,0,0,46.846,9.474c8.421-.953,10.832-4.842,11.7-6.981a9.48,9.48,0,0,0-.379-6.358c-6.039-17.223-26.537-30.632-49.825-32.59q-7.175-.488-14.379-.326a104.237,104.237,0,0,1-17.249-.767,15.876,15.876,0,0,0-3.547-.163c-24.236-40.921-13.539-89.666-.568-122.907-.515,9.311,15.3,25.792,15.462,25.955,11.969,11.965,31.3,15.573,45.411,18.18a6.241,6.241,0,0,0,3.239-.263,5.28,5.28,0,0,0,2.479-1.811,4.166,4.166,0,0,0,.825-2.705,4.281,4.281,0,0,0-1.127-2.623c-3.683-3.841-6.905-7.915-10.344-12.244A145.336,145.336,0,0,0,203.8,409.153c-.271-.233-25.725-23.162-38.533-13.967a10.086,10.086,0,0,0-1.3,1.187c1.76-4.283,3.547-8.287,5.253-11.895,6.824-14.456,14.758-27.724,23.152-41.761,12.565-20.95,26.266-44,38.316-74.816-1.679,25.932-1.165,51.98,4.441,77.632,6.661,30.494,20.5,59.569,36.475,86.92-3.168-2.491-7.826-2.98-13.945-1.373-17.385,4.656-27.35,18.785-32.657,29.912-2.112,4.422-3.9,9.008-5.687,13.571a103.309,103.309,0,0,1-10.236,21.553,3.719,3.719,0,0,0-.406.772,4.027,4.027,0,0,0-.205,2.233,4.343,4.343,0,0,0,1.032,2.056,5.3,5.3,0,0,0,2.03,1.4,6.188,6.188,0,0,0,2.559.428c10.994-.535,21.907-5.377,32.495-14.409a87.1,87.1,0,0,0,22.909-30.262l.514-1.211c3.222-6.983,5.9-13.85,4.982-19.041,8.963,14.945,18.441,29.332,27.62,43.155-2.573,1.377-6.255,4.423-11.184,11.456a38.206,38.206,0,0,0-3.926,7.4c-.7,1.7-1.3,3.4-1.868,5.051-6.634,20-6.336,35.921.867,48.627a9.222,9.222,0,0,0,3.439,3.679c4.549,2.7,10.4,1.023,14.514-4.167,9.8-12.381,15.462-23.135,17.791-33.846a45.593,45.593,0,0,0-2.491-27.581,98.364,98.364,0,0,0,12.754,8.191c20.5,10.851,46.034,10.4,66.37,10.032a5.994,5.994,0,0,0,2.751-.763,4.913,4.913,0,0,0,1.9-1.87,4.094,4.094,0,0,0,.513-2.446,4.284,4.284,0,0,0-1.024-2.321c-2.058-2.33-3.953-4.656-5.849-6.986a117.173,117.173,0,0,0-9.4-10.73,93.144,93.144,0,0,0-42.649-21.857l-2.329-.629c-13.7-3.631-28.947-6.983-36.5-1.909A9.583,9.583,0,0,0,303.316,464c-19.984-30.471-40.1-63.572-51.748-98.489a327.165,327.165,0,0,1,46.3,18.2l.325.3a67.575,67.575,0,0,0,6.174,4.469,12.19,12.19,0,0,0-5.669.594,10.5,10.5,0,0,0-4.486,3.038,9.251,9.251,0,0,0-1.246,2.141c-4.576,11.15,11.211,33.66,12.971,35.569,7.366,8.077,15.841,12.407,24.533,12.524a12.882,12.882,0,0,0,6.12-1.211c4.468-2.328,5.984-6.983,4.116-12.779,0-.256-6.58-20.136-19.09-31.728a101.639,101.639,0,0,0,20.363,4.446,166.93,166.93,0,0,0,46.955-2.211c9.315-1.536,12.023-5.54,12.645-8.613a10.5,10.5,0,0,0-2.708-8.357A56.381,56.381,0,0,0,369.984,363.9a112.909,112.909,0,0,0-34.255-3.585,59.758,59.758,0,0,0-22.015,3.887,25.368,25.368,0,0,0-12.375,10.615A337.9,337.9,0,0,0,249.619,355.1a4.729,4.729,0,0,0-1.273-.14c-1.029-3.725-2-7.449-2.708-11.2a226.624,226.624,0,0,1-4.955-41.272c6.553,7.263,19.9,12.617,20.092,12.686a37.325,37.325,0,0,0,15.272,2.747,47.446,47.446,0,0,0,13.214-3.049l11.265-3.794a5.71,5.71,0,0,0,1.926-1.143,4.757,4.757,0,0,0,1.215-1.72,4.039,4.039,0,0,0,.207-2.012,4.263,4.263,0,0,0-.8-1.9,46.6,46.6,0,0,0-13.539-13.385h0c-7.366-4.283-16.247-5.074-24.371-5.284a23.055,23.055,0,0,1-3.764-.233c-8.124-.605-14.866-.884-19.145,1.7a10.661,10.661,0,0,0-1.571,1.117,633.681,633.681,0,0,1,6.39-74.187,368.152,368.152,0,0,0,58.03,22.836c-4.495,8.427-2.112,18.623.65,27.189s5.713,16.574,11.4,23.72c6.851,8.566,17.032,13.967,27.079,14.479a24.117,24.117,0,0,0,15.652-4.214,17.7,17.7,0,0,0,6.336-9.311c2.708-8.893-.812-19.042-9.992-29.4a95.106,95.106,0,0,0-11.562-10.941c14.974,2.328,30.328,2.328,44.9-2.072a37.051,37.051,0,0,0,17.357-9.963,17.361,17.361,0,0,0,4.6-9.433,16.323,16.323,0,0,0-1.89-10.1c-3.764-6.145-11.644-9.684-23.4-10.522a109.741,109.741,0,0,0-39.623,4.743,98.639,98.639,0,0,0-33.869,18.3,360.535,360.535,0,0,1-63.418-24.628,5.083,5.083,0,0,0-.975-.28c1.381-10.475,2.708-20.95,3.872-31.379.731-6.588,1.381-13.408,1.869-20.415a70.624,70.624,0,0,0,9.233,8.194,102.44,102.44,0,0,0,33.334,15.945c36.583,10.056,75.523,0,101.626-8.334a5.525,5.525,0,0,0,2.113-1.235,4.5,4.5,0,0,0,1.218-1.93,4.021,4.021,0,0,0,.009-2.206,4.468,4.468,0,0,0-1.173-1.961C385.2,146.18,369.415,130.7,348.564,120.412a140.992,140.992,0,0,0-63.608-13.618c-12.7.116-22.909,2.328-30.03,6.029-1.408-37.408-9.938-76.538-35.2-110.082a4.784,4.784,0,0,0-1.383-1.6,5.729,5.729,0,0,0-2.034-.955A6.269,6.269,0,0,0,213.995.05a5.979,5.979,0,0,0-2.167.707A5.083,5.083,0,0,0,210.2,2.177a4.258,4.258,0,0,0-.786,1.875,4.036,4.036,0,0,0,.2,1.985,4.539,4.539,0,0,0,1.146,1.732C237.3,42.686,244.5,84.7,244.582,123.95a12.092,12.092,0,0,0-.487,1.466,21.149,21.149,0,0,0,.271,10.871c-.38,10.894-1.192,21.485-2.221,31.588-9.992-4.493-26.4-1.21-31.519,0a56.265,56.265,0,0,0-15.841,6.984,108.25,108.25,0,0,0-23.315,18.762,117.616,117.616,0,0,0-21.961,36.268c-3.114,7.519-5.741,15.2-8.34,22.766A288.133,288.133,0,0,1,128.5,285.1a4.047,4.047,0,0,0-.235,2.916,4.643,4.643,0,0,0,1.833,2.461,5.988,5.988,0,0,0,3.2.984,6.064,6.064,0,0,0,3.249-.844,268.628,268.628,0,0,1,30.138-15.108c16.247-7.286,32.982-14.828,46.034-26.653a103.05,103.05,0,0,0,18.576-23.138c1.3-2.095,2.707-4.306,3.9-6.565a392.623,392.623,0,0,1-46.467,109.407,6.585,6.585,0,0,0-.731.3c-26.616,17.123-58.173,27.66-91.255,30.471,1.435-5.471-2.166-11.36-4.712-15.41l-.514-.838c-10.452-16.9-28.6-27.165-41.945-32.8-7.04-2.956-17.655-6.727-28.812-5.54a25.531,25.531,0,0,0-11.563,3.841,16.376,16.376,0,0,0-6.174,7.472,21.368,21.368,0,0,0-1.19,9.69A22.172,22.172,0,0,0,5.1,335.082C11.055,344.975,21.751,350.794,29.685,353.937ZM79.239,509.666c-3.9.6-9.017.884-12.185-1.116a30.229,30.229,0,0,1,12.8-9.07,35.31,35.31,0,0,1,16.417-2.033,22.029,22.029,0,0,1,8.8,2.837l-.3.256a71.122,71.122,0,0,1-25.535,9.126Zm27.674,31.73c-3.547,8.591-7.609,13.2-12.781,14.5a4.184,4.184,0,0,1-2.437,0s-.758-.651-.135-4.47c1.462-9.079,3.141-19.344,7.745-28.423a54.5,54.5,0,0,1,11.914-14.944C115.254,519.419,109.324,535.949,106.914,541.4ZM318.507,372.513a49.306,49.306,0,0,1,17.547-2.91,100.513,100.513,0,0,1,30.518,3.142,45.633,45.633,0,0,1,23.261,14.223,156.257,156.257,0,0,0-63.12-11.942,44.212,44.212,0,0,0-14.65,2.328,16.425,16.425,0,0,1,6.445-4.842Zm8.124,4.819a153.046,153.046,0,0,1,62.633,12.012,18.37,18.37,0,0,1-2.518.605,155.561,155.561,0,0,1-43.488,2.095,76.964,76.964,0,0,1-33.171-11.2,34.111,34.111,0,0,1,16.68-3.515Zm3.6,53.54c.542,1.723.379,2.677.271,2.328-6.742,0-12.565-4.958-16.247-9.009-4.387-4.655-13.729-23.627-11.725-26.537a7.781,7.781,0,0,1,3.249.419c10.588,2.84,20.9,21.253,24.587,32.822ZM400.447,227.84a10.962,10.962,0,0,1-1.95,3.073,26.793,26.793,0,0,1-12.429,6.983c-15.651,4.656-32.9,3.329-49.419-.209,22.151-.3,44.111-5.75,64.15-10.941A5.862,5.862,0,0,1,400.447,227.84Zm-15-12.2c5.416.373,12.375,1.676,14.812,5.657a6.207,6.207,0,0,1,.84,2.886c-23.369,6.075-49.419,12.617-75.171,10.824l-3.249-.838a88.317,88.317,0,0,1,29.19-14.793,97.337,97.337,0,0,1,33.605-3.736Zm-37.666,49.442c4.928,5.54,10.29,13.711,8.124,21.277a297.891,297.891,0,0,0-33.334-40.737,88.567,88.567,0,0,1,25.237,19.46Zm-33.388-23.278,1.679.745a300.172,300.172,0,0,1,38.668,46.556,7.386,7.386,0,0,1-1.868,2.072,12.414,12.414,0,0,1-8.124,1.932c-6.878-.326-13.972-4.259-18.955-10.5a65.294,65.294,0,0,1-9.911-20.95c-1.923-6.448-3.818-14.153-1.462-19.857ZM12.9,395.279a40.136,40.136,0,0,1,15.868-14.456,101.447,101.447,0,0,1,44.761-13.152,40.283,40.283,0,0,1,4.034,0h1.083l-3.358,1.257c-16.031,6.029-32.495,12.245-47.063,21.323a54.879,54.879,0,0,0-17.168,15.9,17.013,17.013,0,0,1,1.868-10.871ZM77.885,383.36a95.019,95.019,0,0,1-18.359,19.461c-6.851,5.843-14.406,11.639-23.315,13.967-7.447,1.979-17.574,1-22.5-4.656A11.618,11.618,0,0,1,12.03,409.5c3.629-7.216,11.075-13.152,17.683-17.318,14.216-8.916,30.653-15.084,46.548-20.951l7.772-2.91a39.7,39.7,0,0,1-6.039,15.038ZM15.6,315.854a13.909,13.909,0,0,1,6.282-1.932c6.336-.7,13.539.791,22.773,4.655,11.942,5.005,28.081,13.967,37.206,28.842l.541.861a30.964,30.964,0,0,1,3.737,7.542c-4.549-1.815-9.153-3.585-13.756-5.331-17.141-6.518-34.85-13.268-48.742-24.069a21.833,21.833,0,0,1-8.124-10.359Zm-2.22,2.467a26.262,26.262,0,0,0,8.421,9.823c14.27,11.057,32.17,17.878,49.5,24.465,4.2,1.583,8.367,3.212,12.51,4.842a96.66,96.66,0,0,1-14.785-3.213c-2.9-.768-5.416-1.466-7.257-1.792A149.954,149.954,0,0,1,34.1,345.464a40.042,40.042,0,0,1-19.605-14.782,13.354,13.354,0,0,1-2.081-6.046,12.949,12.949,0,0,1,1.025-6.244Z" transform="translate(0 0)" fill="#cacaca"/><path d="M27,386.671a9.945,9.945,0,0,1-4.143-1.558,6.361,6.361,0,0,1-2.541-4.27,5.954,5.954,0,0,1,1.485-4.623,11.163,11.163,0,0,1,3.141-2.493,24.274,24.274,0,0,1,2.924-1.326l2.22-.93c6.905-2.8,17.3-7.172,24.8-4.656a10.228,10.228,0,0,1,4.549,2.7.646.646,0,0,1,.19,0c3.385-1.023,6.851-2.256,10.344-3.6a41.228,41.228,0,0,1-13.187-7.544,46.29,46.29,0,0,1-7.419-8.777,23.666,23.666,0,0,1-4.414-8.707,4.163,4.163,0,0,1,.206-2.772,4.968,4.968,0,0,1,1.96-2.209,5.207,5.207,0,0,1,1.706-.558,5.969,5.969,0,0,1,3.3.419c10.886,4.4,18.63,11.991,24.75,18.972a16.668,16.668,0,0,1,4.279,6.66c5.767-2.377,11.644-4.7,17.52-6.591a98.19,98.19,0,0,0,2.112-41.9,432.577,432.577,0,0,1-25.806-34.921,224.8,224.8,0,0,1-28.758-61.451c-.325-.628-.623-1.26-.893-1.912a2.65,2.65,0,0,1,0-1.581c-7.311-27.888-6.959-54.586,1.381-78.4a3.48,3.48,0,0,1,1.6-1.819,4.122,4.122,0,0,1,1.535-.493,4.29,4.29,0,0,1,1.633.121,4.18,4.18,0,0,1,1.365.572,3.538,3.538,0,0,1,1,.986,2.982,2.982,0,0,1,.473,1.237,2.847,2.847,0,0,1-.127,1.3c-8.259,23.535-8.232,50.139-.433,77.958,5.795,11.874,18.739,22.046,36.259,28.609a79.583,79.583,0,0,0,26.158-9.311A36.2,36.2,0,0,1,103.2,220.793a30.181,30.181,0,0,1-4-16.786,7,7,0,0,1,1.246-3.7,6.658,6.658,0,0,1,2.193-1.884,10.752,10.752,0,0,1,6.255-1.093c6.228.558,11.562,4.377,16.247,11.637a40.127,40.127,0,0,1,5.714,12.8,15.771,15.771,0,0,1,.352,2.326c2.031-1.465,4.007-2.954,5.957-4.447-8.286-5.353-8.827-18.06-7.69-28.214.758-6.726,3.466-16.014,11.59-22a21.758,21.758,0,0,1,2.356-1.512c7.392-4.144,18.657-4.912,26.348,1a20.853,20.853,0,0,1,6.038,8.126,18.187,18.187,0,0,1,1.165,9.586,33.242,33.242,0,0,1-7.555,16.042l-.352.465c-4.224,5.656-13.35,17.432-23.179,18.623-12.267,9.846-26.754,20.018-43.326,25.163a336.21,336.21,0,0,0,35.419,6.446c4.982.791,9.938,1.516,14.893,2.33a15.828,15.828,0,0,1,2.925-5.981A41.977,41.977,0,0,1,169.9,238.086l1.787-.953a103.257,103.257,0,0,1,35.825-10.684c10.94-1.214,19.713-.256,26.835,2.93,9.5,4.237,15.11,12.9,13.539,20.953a19.765,19.765,0,0,1-4.851,8.9,24.264,24.264,0,0,1-9.04,6.023A61.542,61.542,0,0,1,213.44,269a196.922,196.922,0,0,1-37.748-1.935c3.006,1.953,5.47,3.842,7.04,5.074,8.444,6.3,13.675,15.19,14.568,24.767a6.965,6.965,0,0,1-1.056,4.656c-2.193,3.191-7.013,4-12.429,2.191a75.708,75.708,0,0,1-24.154-13.037,33.511,33.511,0,0,1-11.075-13.967,17.666,17.666,0,0,1-.786-10.2,12.674,12.674,0,0,1,1.814-4.772c-4.251-.674-8.5-1.3-12.754-1.93l-3.764-.535a20.189,20.189,0,0,1,1.706,6.377v.651a53.643,53.643,0,0,1-3.168,25.139c-1.164,3.54-3.276,5.47-6.282,5.865a7.842,7.842,0,0,1-4.82-.93c-4.982-2.581-4.982-7.958-4.982-10.288a74.66,74.66,0,0,1,1.056-16.456c1.138-5.544,2.437-9.847,4.685-12.177A204.469,204.469,0,0,1,92.8,251.076a93.658,93.658,0,0,1-32.278-17,236.766,236.766,0,0,0,21.392,40.553c17.041,26.2,38.744,50.627,59.732,74.255l.87.977.593.67c10.4,11.753,21.016,23.749,31.008,36.018a16.287,16.287,0,0,1,4.793-5.1,18.564,18.564,0,0,1,2.247-1.419,39.493,39.493,0,0,1,15.977-4,104.457,104.457,0,0,1,38.208,4.121,44.348,44.348,0,0,1,18.359,9.684,16.113,16.113,0,0,1,4.564,6.288,14.132,14.132,0,0,1,.852,7.372,14.709,14.709,0,0,1-4,6.646,18.2,18.2,0,0,1-7.185,4.228,40.908,40.908,0,0,1-15.218,1.558,124.321,124.321,0,0,1-36.476-7.963,75.29,75.29,0,0,1-7.8-3.6c-1-.516-2.031-1.051-3.114-1.563a48.415,48.415,0,0,1,8.3,28.8,49.273,49.273,0,0,1-10.543,28.251,17.732,17.732,0,0,1-7.691,6.284,11.429,11.429,0,0,1-6.845.526,10.1,10.1,0,0,1-5.612-3.409,10.317,10.317,0,0,1-.947-1.749c-.054-.139-.163-.7-.244-.512s-.434.186-.7.186l-1.381.116a15.225,15.225,0,0,1-7-1.66,12.575,12.575,0,0,1-5-4.53,21.668,21.668,0,0,1-3.141-9.963c-1.9-15.712.758-46.907,24.371-52.516a7.415,7.415,0,0,1,.785-.14c-10.75-13.13-22.2-26.07-33.361-38.618-8.855-9.963-17.818-20.088-26.537-30.4a105.318,105.318,0,0,1-3.791,33.916,111.119,111.119,0,0,1-16.41,34.288c7.338,5.888,10.913,17.06,11.887,22.86a28.839,28.839,0,0,1-1.32,15.353A32.8,32.8,0,0,1,90.936,443.1,13.663,13.663,0,0,1,83,446.47a14.479,14.479,0,0,1-8.8-3,37.163,37.163,0,0,1-12.639-15.1,31.641,31.641,0,0,1-2.308-18.493,26.568,26.568,0,0,1,7.826-14.688,25.961,25.961,0,0,1,5.416-3.912A18.247,18.247,0,0,1,82.7,388.787a105.871,105.871,0,0,0,13.783-26.139c-4.386,1.581-8.828,3.377-13.16,5.167q-10.222,4.4-20.959,7.8a4.5,4.5,0,0,1-2.139,0c-1.814,3.233-6.5,6.051-10.669,8.377l-2.383-2.6,2.085,2.767a30.267,30.267,0,0,1-7.284,3.1A35.05,35.05,0,0,1,27,386.671Z" transform="translate(74.039 483.039)" fill="#cacaca"/><path d="M171.618,54.327c-.837,13.967,4.8,32.287,13.949,45.788,4.847,7.123,10.614,11.476,17.112,12.942a8.386,8.386,0,0,0,4.447.1,7.406,7.406,0,0,0,3.679-2.148,5.874,5.874,0,0,0,1.163-3.236,50.1,50.1,0,0,0-4.981-26.029A58.482,58.482,0,0,0,188.949,60.4l-2.707-2.025a72.169,72.169,0,0,1-7.879-6.122,4.068,4.068,0,0,0-1.916-.973,4.515,4.515,0,0,0-2.228.088l-.4.163a3.688,3.688,0,0,0-1.549,1.134,2.988,2.988,0,0,0-.646,1.66Zm7.856,7.868,1.814,1.28L184,65.431a51.745,51.745,0,0,1,15.777,18.545,44.316,44.316,0,0,1,4.586,22.633c-4.386-1.047-8.474-4.33-12.214-9.823A79.924,79.924,0,0,1,179.474,62.2Z" transform="translate(626.3 186.878)" fill="#cacaca"/><path d="M190.06,79.036c9.2,10.824,21.958,17.6,34.93,18.622a8.347,8.347,0,0,0,4.791-.908,5.815,5.815,0,0,0,2.3-2.831,4.959,4.959,0,0,0,0-3.454c-2.809-11.05-10.107-20.878-20.577-27.724-10.456-7.239-21.665-13.827-28.87-10.732l-.6.28a7.317,7.317,0,0,0-2.358,1.889,6.05,6.05,0,0,0-1.242,2.557C177.33,61.368,181.014,68.468,190.06,79.036ZM186,57.876c.381-.14,4.088-1.536,20.2,9.614,9.832,6.82,16.251,14.968,18.172,23.394-10.586-1.28-20.609-6.984-28.135-15.736C184.4,61.111,186,57.9,186,57.876Z" transform="translate(650.811 187.031)" fill="#cacaca"/><path d="M542.064,163.234c-3.9-4.074-10.07-6.541-18.953-7.566-2.87-.326-27.674-1.047-40.158,4.26a15.753,15.753,0,0,0-5.414,3.422,8.38,8.38,0,0,0-1.33,1.979,5.38,5.38,0,0,0-.865,0q-14.6,2.964-29.488,4.656c5.144-8.287-5.414-26.956-5.414-27.166-2.3-4.05-4.823-8.1-7.53-12.058-3.819-5.61-8.125-5.167-9.939-4.655a7.443,7.443,0,0,0-1.028.349,8.03,8.03,0,0,0-2.856,2.208,6.6,6.6,0,0,0-1.4,3.076,19.147,19.147,0,0,0,.73,9.311l.46,1.839c2.926,12.152,6.5,23.6,12.428,28.516a352.857,352.857,0,0,1-74.357-2.327,208.713,208.713,0,0,1-40.888-9.312c-41.646-14.6-73.734-40.992-90.413-74.49-3.818-25.909-11-48-21.828-66.948a7.278,7.278,0,0,0-2.563-1.725,8.335,8.335,0,0,0-3.177-.6,3.483,3.483,0,0,0-.842.256,3.6,3.6,0,0,0-1.758,1.548,2.864,2.864,0,0,0-.27,2.153c5.088,18.622-.651,40.294-17.033,64.364-5.419,7.914-11.512,15.666-17.414,23.278a299.142,299.142,0,0,0-23.856,33.73c-.921.489-1.921.954-2.953,1.4h-.242a71.648,71.648,0,0,0-8.721,4.12,108.875,108.875,0,0,0-20.118,15.131,22.666,22.666,0,0,0-6.77,10.778,10.481,10.481,0,0,0,.806,7.189,12.739,12.739,0,0,0,5.449,5.5c6.958,3.306,14.893-.326,20.037-4.819a43.735,43.735,0,0,0,14.381-24.465c0,7.985,2.167,19.972,13.079,26.537a13.188,13.188,0,0,0,4.828,2.031,14.277,14.277,0,0,0,5.381.064c2.707-.652,7.553-3,8.474-11.5,1.651-15.27-1.679-30.82-8.935-41.6a17,17,0,0,0-5.66-5.656c1.679-2.328,3.409-4.656,5.144-6.8a56.323,56.323,0,0,0,6.744,15.48c1.056,1.956,2.112,3.841,3,5.633,3.572,7.356,8.558,7.891,11.209,7.542,5.419-.7,7.828-5.75,7.693-10.126a26.863,26.863,0,0,0-3.888-11.346,31.3,31.3,0,0,0-8.707-9.162,16.58,16.58,0,0,0-5.893-2.478,17.931,17.931,0,0,0-6.563-.153l2.712-3.329c5.981-7.589,12.158-15.433,17.656-23.511,12.428-18.25,18.953-35.336,19.791-51,8.856,20.624,14.135,44.694,15.949,73.139.326,5.214.544,10.429.763,15.666.484,11.941,1,24.116,2.87,36.15-9.586,38.339-38.344,65.039-68.809,93.3-5.6,5.191-11.265,10.452-16.87,15.852a15.063,15.063,0,0,0-3.223,2.979c-8.121,9.8-1.814,30.564,1.326,37.734a11.889,11.889,0,0,0,2.884,4.707,14.361,14.361,0,0,0,4.916,3.23c6.553,2.026,12.865-2.328,15.735-7.728a31.377,31.377,0,0,0,1.056-25.094c-1.14-3.282-4.981-13.012-11.591-16.551l8.126-7.542a25.85,25.85,0,0,0,2.274,8.124h0a42.7,42.7,0,0,0,9.586,14.549,29.617,29.617,0,0,0,18.139,8.217,9.615,9.615,0,0,0,3.874-.4c3.763-1.28,5.223-5.144,3.684-9.544-3.967-10.617-11.935-19.8-22.642-26.095a20.659,20.659,0,0,0-6.712-2.467c25.7-23.907,49.581-47.231,61.493-78.168.707,2.584,1.465,5.145,2.386,7.682,9.721,27.561,31.167,50.723,49.255,68.042-16.869,11.639-25.511,32.589-27.758,46.975-.3,1.816-1.084,6.7,2.707,9.87a4.143,4.143,0,0,0,2.326.944,4.351,4.351,0,0,0,2.5-.525c12.665-7.227,21.874-18.136,25.939-30.727a54.81,54.81,0,0,0,3.3-18.157q13.242,12.1,27.381,23.464c-6.5,3.585-11.916,13.711-17.767,25.606-1.326,2.677-2.488,5.028-3.437,6.658a18.13,18.13,0,0,0-2.707,6.8,7.853,7.853,0,0,0,.749,4.673,9.356,9.356,0,0,0,3.391,3.707c3.684,2.165,8.8,1.7,13.73-1.141,8.256-5.21,13.953-12.879,15.977-21.509h0a61.878,61.878,0,0,0,2.3-15.247q6.258,4.655,12.674,9.311c-4.307,2-6.609,6.844-7.5,8.729-5.2,11.057-4.767,25.932-3.981,36.151a18.9,18.9,0,0,0,3.442,10.708,11.982,11.982,0,0,0,6.228,4.259,14,14,0,0,0,7.958.024l.6-.233c5.419-2.328,6.665-7.682,7.2-11.639a188.692,188.692,0,0,0,1.516-27.724c1.275,2.561,2.707,5.54,4.172,9.032l1.028,2.328c5.8,13.478,13.916,22.254,24.288,27.142a9.745,9.745,0,0,0,3.967,1.2,10.088,10.088,0,0,0,4.158-.524c1.623-.7,5.2-2.98,3.409-9.312a104.256,104.256,0,0,0-12.67-29.8,28.3,28.3,0,0,0-3.981-4.656,133.746,133.746,0,0,0,46.195-3.7,14.707,14.707,0,0,0,5.028-1.966,12.532,12.532,0,0,0,3.693-3.527c2.949-5.307-1.6-10.778-7.1-13.618-7.688-4-16.623-5.354-24.53-6.541a121.479,121.479,0,0,0-24.181-2.025,35.936,35.936,0,0,0-12.242,3.236A131.716,131.716,0,0,0,349,300.993c-2.707-1.979-5.581-3.981-8.339-6.006,9.149.7,22.228-4.842,36.014-11.127,2.084-.954,3.953-1.792,5.414-2.327a18.2,18.2,0,0,0,6.879-4.4c4.307-5,1.786-12.081-3.279-15.573a25.787,25.787,0,0,0-16.409-3.492,49.653,49.653,0,0,0-16.246,3.818,42.262,42.262,0,0,0-11.939,7.542c-.135,0-11.237,10.429-10.265,18.437A546.007,546.007,0,0,1,286.2,249.851c-17.874-16.946-39.618-39.922-49.176-67.041-6.474-18.32-7.312-38.106-8.126-57.24-.214-5.284-.433-10.545-.786-15.783,0-2.165-.349-4.237-.512-6.355,19.679,28.4,49.739,50.4,85.488,62.571,1.409.489,2.707.954,4.251,1.4-9.832,6.262-11.7,19.926-10.507,27.7,1.893,12.36,9.939,23.045,17.033,32.589l17.818,23.7a3.782,3.782,0,0,0,1.772,1.252,4.475,4.475,0,0,0,2.288.168,3.994,3.994,0,0,0,1.991-.958,3.082,3.082,0,0,0,.986-1.766,115.464,115.464,0,0,0-7.986-65.179c-.4-.954-.837-2.072-1.3-3.259a54.75,54.75,0,0,0-4.256-9.312c6.339,1.35,13.084,2.561,20.474,3.585a360.118,360.118,0,0,0,120.8-3.7c6.5,11.942,54.455,6.565,55.1,6.495,8.126-.978,13.242-4.656,13.028-9.591A8.571,8.571,0,0,0,542.064,163.234ZM359.554,314.89c1.353.442,2.707.838,4.088,1.187a37.587,37.587,0,0,1,14.056,10.8,97.179,97.179,0,0,1,11.86,28.1,5.794,5.794,0,0,1,.27,1.536l-.567-.256c-8.637-4-15.707-11.942-21.042-23.6l-.972-2.328a139.738,139.738,0,0,0-7.693-15.433Zm-4.06-9.824c7.5-4.655,17.656-10.568,24.535-10.894a115.1,115.1,0,0,1,22.391,1.932c7.609,1.14,15.465,2.328,21.935,5.68,2.707,1.327,4.9,3.771,4.144,5.121-.54.978-2.707,1.653-4.172,2.072a121.985,121.985,0,0,1-57.674.978q-5.428-2.7-11.158-4.888Zm-16.763-17.621c-.972-2.491,3.656-9.567,8.126-13.594a38.789,38.789,0,0,1,23.125-9.312,18.406,18.406,0,0,1,11.046,2.1,5.212,5.212,0,0,1,2.326,2.937,4.512,4.512,0,0,1-.428,3.534c-1.516,1.793-5.2,2.863-9.8,4.958-2.707,1.187-5.74,2.607-9.019,4-8.474,3.608-18.116,6.983-23.4,6.308-1.758-.28-1.921-.768-1.977-1.048Zm5.767,21.648a3.175,3.175,0,0,1,1.465.466c3.274,6.984,2.516,27.934.758,41.133-.488,3.7-1.465,5.8-3.009,6.448a5.376,5.376,0,0,1-2.767-.3,4.538,4.538,0,0,1-2.079-1.605,13.7,13.7,0,0,1-2.163-7.426c-1.139-15.014,0-25.909,3.465-33.264,1.921-4.33,3.684-5.447,4.33-5.447Zm-24.856-19.065c.921,2.747.186,10.871-1.679,17.761a28.684,28.684,0,0,1-12.809,17.575c-.488.256-.949.489-1.381.675-1.6.675-3.032.885-3.712.466a2.717,2.717,0,0,1-.73-1.08,2.378,2.378,0,0,1-.107-1.247,13.231,13.231,0,0,1,1.921-4.493c1-1.723,2.223-4.19,3.628-6.984,3.712-7.542,9.884-20.019,14.87-22.673Zm-166.32,19.135c-1.353,2.514-4.2,4.888-6.172,4.283-1.14-.349-2.2-1.676-3.223-4.05-3.953-9.079-7.419-25.4-2.274-31.611l.539-.559a3.181,3.181,0,0,0,.679-.442l.949-.908a2.223,2.223,0,0,1,1.084-.326c2.707.373,6.739,6.4,9.07,13.152a25.64,25.64,0,0,1-.651,20.462Zm12.107-47.441a16.547,16.547,0,0,1,3.219,1.42,44.963,44.963,0,0,1,19.363,22.417,4.528,4.528,0,0,1,.27,1.42,21.9,21.9,0,0,1-12.916-6.029,36.4,36.4,0,0,1-8.121-12.407A18.552,18.552,0,0,1,165.43,261.723Zm3.977-140.436a10.654,10.654,0,0,1,3.088,1.4,22.171,22.171,0,0,1,9.451,15.363,4.191,4.191,0,0,1-1.084,3.4c-.325,0-1.623-.721-3-3.585-.921-1.886-2.033-3.864-3.167-5.912A75.047,75.047,0,0,1,169.407,121.287Zm-37.772,29.8c-.642,9.392-5.191,18.272-12.809,25.024a20.017,20.017,0,0,1-5.037,3.213,6.943,6.943,0,0,1-2.833.835,7.182,7.182,0,0,1-2.962-.393,5.822,5.822,0,0,1-2.2-2.579,4.925,4.925,0,0,1-.233-3.194,17.071,17.071,0,0,1,5.092-7.705,103.191,103.191,0,0,1,18.79-13.967q1.1-.667,2.274-1.234Zm7.851-2.165a1.88,1.88,0,0,0,0,.4Zm23.316,23.86c-.354,3.189-1.437,5.377-2.842,5.726a5.989,5.989,0,0,1-3.819-1.117c-9.181-5.517-10.046-17.063-9.749-23.464,0-1.117,1.135-6.355,1.865-9.823l1.2-5.843.73-1.56a31.947,31.947,0,0,1,2.381-4.423,17.389,17.389,0,0,1,2.274,2.817c6.446,9.637,9.558,23.72,8.042,37.687Zm160.547-.885c-6.6,10.056-6.525,24.046.409,38.782a171.253,171.253,0,0,0,9.637,16.946,10.1,10.1,0,0,0,.544.885l-3.493-4.656c-6.637-8.869-14.19-18.9-15.87-29.773-1.163-7.682,1.382-17.9,7.688-21.7a10.667,10.667,0,0,1,1.167-.489Zm17.577,64.69c-1.87-3.305-3.874-6.541-5.851-9.73a171.085,171.085,0,0,1-9.53-16.784c-6.609-13.966-6.907-27.351-.893-36.942,5.009,20.9,9.935,42.413,16.353,63.456Zm1.73-1.14c-6.172-20.787-11.265-41.9-16.246-62.618v-.442c2.465,2.119,4.633,7.8,5.879,11.1.484,1.28.944,2.467,1.377,3.492a110.6,110.6,0,0,1,9.046,48.465Zm96.567-68.367a.8.8,0,0,1-.274.233,2.619,2.619,0,0,1-.921,0c-.893,0-5.632-1.3-11.563-25.816L426,139.56a14.427,14.427,0,0,1-.73-6.565.321.321,0,0,0,0-.163,7.894,7.894,0,0,1,1.056,1.257,136.534,136.534,0,0,1,7.26,11.639c3.381,5.843,7.986,18.227,5.712,21.346Zm97.832,1.979c0,.582-.758,1.187-1.977,1.722a17.326,17.326,0,0,1-4.442,1.094h0c-16.814,2.025-45.218,1.583-47.144-2.747a1.28,1.28,0,0,1-.209-.864,1.361,1.361,0,0,1,.4-.813c4.684-5.051,31.279-6.052,38.4-5.238s11.372,2.491,13.972,5.214a3,3,0,0,1,1.084,1.63Z" transform="translate(357.104 58.418)" fill="#cacaca"/><path d="M228.238,48.878c-.321-4.655-1.4-10.242-6.688-13.548a18.181,18.181,0,0,0-8.219-2.163,18.421,18.421,0,0,0-8.353,1.744,6.944,6.944,0,0,0-.73.326A35.836,35.836,0,0,0,190.219,48.3a97.113,97.113,0,0,0-13.158,27.4c-2.033,6.844-6.093,20.461,1.87,25.606s16.9-1.536,23.042-5.82c1.112-.768,2.084-1.466,2.926-1.979A61.779,61.779,0,0,0,218,83.492C225.912,75.206,229.349,63.52,228.238,48.878Zm-13.1-8.939A71.28,71.28,0,0,0,205.3,55.047c-1.028,1.955-2.084,3.911-3.2,5.819-1.7,2.933-3.6,5.843-5.414,8.659s-4.037,6.145-5.851,9.311a163.331,163.331,0,0,0-7.879,16.691c-1.354-1.839-1.893-6.495,1.488-17.854a92.052,92.052,0,0,1,12.432-26.025A29.447,29.447,0,0,1,207.959,41.01a12.929,12.929,0,0,1,7.177-1.071Zm5.414,9.311c.679,8.892-.242,21.369-8.53,30.262a56.782,56.782,0,0,1-11.614,8.8,35.567,35.567,0,0,0-3.307,2.328,53.416,53.416,0,0,1-8.637,5.238,7.668,7.668,0,0,1-3.953.791,161.669,161.669,0,0,1,7.986-16.97c1.791-3.119,3.818-6.239,5.8-9.311s3.791-5.773,5.419-8.729c1.135-1.932,2.191-3.911,3.247-5.889a68.429,68.429,0,0,1,9.884-15.108h0c2.3,1.3,3.386,3.98,3.739,8.636Z" transform="translate(636.043 121.074)" fill="#cacaca"/><path d="M124.909,66.464a101.069,101.069,0,0,0-20.986-.792,22.226,22.226,0,0,0-6.661,1.513,10.568,10.568,0,0,0-4.333,3.166c-3.439,4.353-1.327,10.009,2.3,13.664,7.528,7.659,19.714,9.66,29.489,10.545,13.161,1.187,29.352,1.793,37.91-4.237a12.465,12.465,0,0,0,3.633-3.8,10.615,10.615,0,0,0,1.539-4.74C168.914,69.793,144.9,68,130.515,66.93,128.186,66.766,126.291,66.6,124.909,66.464Zm-1,6.541c1.435.163,3.466.3,5.849.489,7.608.582,30.79,2.328,30.273,7.775a4.8,4.8,0,0,1-.7,2.216,5.642,5.642,0,0,1-1.707,1.765c-7.07,5.051-25.915,3.306-32.089,2.746-8.367-.745-18.684-2.327-24.37-8.24-1.706-1.722-2.9-4.306-1.814-5.7a8.419,8.419,0,0,1,5.416-1.816A92.725,92.725,0,0,1,123.908,73Z" transform="translate(332.928 238.966)" fill="#cacaca"/><path d="M124.231,77.316A204.576,204.576,0,0,0,99.184,90.7c-8.124,5.052-8.692,9.614-7.717,12.57a9.624,9.624,0,0,0,3.6,4.352,12.054,12.054,0,0,0,5.769,1.98,24.1,24.1,0,0,0,9.694-1.3c5.145-1.56,32.5-13.222,38.129-23.72a7.809,7.809,0,0,0,1.126-3.443,7.565,7.565,0,0,0-.586-3.541,6.965,6.965,0,0,0-2.1-2.726,8.53,8.53,0,0,0-3.312-1.6Q137.442,71.729,124.231,77.316Zm-20.824,18.9c22.5-13.758,34.553-17.482,38.125-16.551a1.778,1.778,0,0,1,.456,1.05,1.745,1.745,0,0,1-.293,1.092c-3.87,7.216-26.644,18.087-33.738,20.275a16.436,16.436,0,0,1-6.174.978,3.933,3.933,0,0,1-1.708-.472,3.256,3.256,0,0,1-1.216-1.134c-.434-1.257,1.326-3.375,4.549-5.238Z" transform="translate(332.658 266.29)" fill="#cacaca"/><path d="M115.234,83.706a57.511,57.511,0,0,0,15.73,4.423c3.493.373,12.73,1.35,14.758-4.05,3.172-8.5-20.47-20.764-20.711-20.95a27.162,27.162,0,0,0-10-2.886,15.46,15.46,0,0,0-6.958,1.164,10.782,10.782,0,0,0-4.33,3.166,9.8,9.8,0,0,0-1.758,6.518,10.255,10.255,0,0,0,2.949,6.192,28.058,28.058,0,0,0,10.316,6.425Zm-4.2-10.406a4.4,4.4,0,0,1-1.288-2.367,4.088,4.088,0,0,1,.4-2.592,5.163,5.163,0,0,1,2.023-1.2,5.854,5.854,0,0,1,2.447-.241,18.927,18.927,0,0,1,6.8,2.072c6.339,2.98,15.167,9.777,16.763,12.71a24.567,24.567,0,0,1-6.2,0A50.1,50.1,0,0,1,118.62,77.84a21.657,21.657,0,0,1-7.586-4.54Z" transform="translate(372.148 219.838)" fill="#cacaca"/><path d="M104.3,37.6a26.588,26.588,0,0,0-7.23,1.7,10.19,10.19,0,0,0-5.253,4.539,9.306,9.306,0,0,0,.189,8.031c3.629,8.217,14.027,13.8,28.541,15.27,5.66.582,40.807,0,47.658-10.685,1.516-2.327,2.409-6.122-1.949-10.847C155.32,33.755,122.743,35.5,104.3,37.6Zm57.189,15.643a8.165,8.165,0,0,1-3.819,2.653c-9.014,3.841-29.785,5.354-36.23,4.656-5.416-.559-18.6-2.77-22.231-11.057a3.943,3.943,0,0,1-.352-3.073c.569-1.118,2.708-1.886,6.445-2.328,28.215-3.213,48.741-1.141,54.94,5.563C162.334,51.959,161.762,52.89,161.492,53.239Z" transform="translate(332.252 131.75)" fill="#cacaca"/><path d="M145.99,49.2a2.942,2.942,0,0,0,0-3.561c-4.846-6.076-14.488-10.149-21.311-12.664a32.916,32.916,0,0,0-18.358-2.188,10.941,10.941,0,0,0-2,.628,6.68,6.68,0,0,0-2.707,2.072c-.921,1.257-2.033,3.911.972,7.728A44.085,44.085,0,0,0,125.274,55.9a19.007,19.007,0,0,0,11.986.159A15.905,15.905,0,0,0,146.2,49.2Zm-8.126-1.606a11.237,11.237,0,0,1-3.223,2.118,7.777,7.777,0,0,1-1.921.559,13.008,13.008,0,0,1-5.414-.652,36.3,36.3,0,0,1-18.712-12.1l-.274-.349A24.531,24.531,0,0,1,121.4,39.027a56.329,56.329,0,0,1,16.437,8.566Z" transform="translate(367.386 110.766)" fill="#cacaca"/><path d="M224.685,34.278A2.846,2.846,0,0,0,224.5,32.8a3.283,3.283,0,0,0-.921-1.262,3.992,3.992,0,0,0-1.474-.785,4.445,4.445,0,0,0-1.726-.149,79.344,79.344,0,0,0-21.66,5.843c-15.084,6.425-29.493,17.622-42.46,33.148l-1.191,1.4c-7.177,8.4-14.623,18.064-12.377,26.118a11.13,11.13,0,0,0,2.716,4.563,13.493,13.493,0,0,0,4.73,3.119c15.488,6.751,40.186-14.106,47.386-20.648,15-13.714,24.511-31.181,27.163-49.861Zm-18.958,6.634A260.817,260.817,0,0,0,153.248,89.54a42.46,42.46,0,0,0-3.409,4.656c-.163-5.936,7.744-15.224,11.293-19.367l1.219-1.443c9.856-11.709,24.776-25.629,43.488-32.473Zm5.744-1.839c-.516,1.047-1.033,2.118-1.516,3.166a74.1,74.1,0,0,1-10.293,17.412,131.966,131.966,0,0,1-18.684,16.76c-4.74,3.725-10.833,7.821-16.544,11.779-4.521,3.073-9.126,6.239-13.186,9.312a3.815,3.815,0,0,1-.572-.652,29.146,29.146,0,0,1,4.172-6.308A259.936,259.936,0,0,1,211.443,39.12Zm4.712-1.118c-3.26,15.618-11.73,30.085-24.372,41.645h0a101.674,101.674,0,0,1-25.8,17.691c-5.065,2.142-9.507,2.956-12.539,1.606a4.222,4.222,0,0,1-.758-.4c3.981-2.933,8.5-6.029,12.888-9.032,5.851-3.98,11.86-8.078,16.656-11.848a133.053,133.053,0,0,0,18.953-16.993,75.768,75.768,0,0,0,10.535-17.761c.674-1.443,1.409-2.91,2.112-4.376.893-.187,1.679-.4,2.437-.536Z" transform="translate(519.49 111.628)" fill="#cacaca"/><path d="M121.022,67.1A9.423,9.423,0,0,1,123,63.524a11.219,11.219,0,0,1,3.437-2.637,8.556,8.556,0,0,1,3.874-.605c10.209.768,20.256,20.694,21.042,25.35a88.083,88.083,0,0,1-.544,25.21,3.046,3.046,0,0,1-.814,1.734,3.9,3.9,0,0,1-1.786,1.069,4.422,4.422,0,0,1-2.177.057,3.965,3.965,0,0,1-1.856-.974C137.756,106.838,115.2,81.86,121.022,67.1Z" transform="translate(438.392 220.008)" fill="#cacaca"/><path d="M116.4,91.531a16.833,16.833,0,0,1,8.121-7.682,12.785,12.785,0,0,1,1.9-.652,19.252,19.252,0,0,1,7.921-.214,17.883,17.883,0,0,1,7.135,2.961,11.867,11.867,0,0,1,3.758,3.545,9.958,9.958,0,0,1,1.656,4.579,10.448,10.448,0,0,1-.865,4.213c-2.3,5.679-7.5,11.639-15.218,11.1a19.679,19.679,0,0,1-7.014-1.886,14.936,14.936,0,0,1-5.949-4,12.034,12.034,0,0,1-2.93-5.985,10.791,10.791,0,0,1,1.488-5.982Z" transform="translate(419.507 301.843)" fill="#cacaca"/><path d="M123.86,92.518a10.905,10.905,0,0,0,.237,6.256,12.364,12.364,0,0,0,3.716,5.383h0A12.513,12.513,0,0,0,133.59,107a13.808,13.808,0,0,0,6.651-.259,12.354,12.354,0,0,0,5.461-3.514,9.789,9.789,0,0,0,2.446-5.472,15.122,15.122,0,0,0,0-3.492,8.245,8.245,0,0,0-.977-3.515,9.548,9.548,0,0,0-3.465-3.213c-2.87-1.816-7.256-4.073-12.1-2.886a12.623,12.623,0,0,0-1.6.535,11.713,11.713,0,0,0-4.051,3.059,9.626,9.626,0,0,0-2.093,4.273Zm7.5,1.374a3.312,3.312,0,0,1,.74-1.667,4.09,4.09,0,0,1,1.591-1.149c1.191-.3,3.032.326,5.414,1.839a4.84,4.84,0,0,1,1.112.838,4.554,4.554,0,0,1,.191,1.14,9.7,9.7,0,0,1,0,2.142,3.758,3.758,0,0,1-.847,2.131,4.722,4.722,0,0,1-2.023,1.43,5.02,5.02,0,0,1-2.456.015,4.481,4.481,0,0,1-2.07-1.132,6.025,6.025,0,0,1-1.623-2.619,5.365,5.365,0,0,1-.028-2.968Z" transform="translate(450.958 307.863)" fill="#cacaca"/><path d="M119.769,98.645a7.375,7.375,0,0,0,1.033,4.469,11.058,11.058,0,0,0,6.307,5.308,10.8,10.8,0,0,0,5,.447,10.08,10.08,0,0,0,4.553-1.844,11.417,11.417,0,0,0,3.684-4.683,9.833,9.833,0,0,0,.6-5.63,7.463,7.463,0,0,0-2.321-4.259,9.609,9.609,0,0,0-4.721-2.375,11,11,0,0,0-6.065.954l-1.354.606C124.537,92.57,120.286,94.665,119.769,98.645Zm7.637.722c0-.14.27-.722,2.842-1.979a5.955,5.955,0,0,1,2.3-.815,1.942,1.942,0,0,1,.842,1.327,4.053,4.053,0,0,1-.247,2.211,4.61,4.61,0,0,1-1.4,1.862,2.508,2.508,0,0,1-.46.28,2.067,2.067,0,0,1-1.493,0,4.118,4.118,0,0,1-2.056-1.932,2.143,2.143,0,0,1-.326-.931Z" transform="translate(437.179 328.575)" fill="#cacaca"/><path d="M165.96,46.124a15.384,15.384,0,0,1-4.116,5.261,15.216,15.216,0,0,1-6.177,3.767,17.314,17.314,0,0,1-7.526.7,14.989,14.989,0,0,1-6.228-2.933,15.687,15.687,0,0,1-4.507-4.777,13.4,13.4,0,0,1-1.884-5.931,12.779,12.779,0,0,1,2.014-6.6,15.339,15.339,0,0,1,5.354-5.04,20.007,20.007,0,0,1,2.219-1.14,13.719,13.719,0,0,1,8.367-.931,14.827,14.827,0,0,1,4.442,1.909C163.6,33.972,168.695,39.955,165.96,46.124Z" transform="translate(494.811 103.064)" fill="#cacaca"/><path d="M190.833,74.546c2.707-6.192-2.354-12.174-8.121-15.689a14.8,14.8,0,0,0-4.442-1.932,13.712,13.712,0,0,0-8.367.954,15.491,15.491,0,0,0-2.223,1.14,15.311,15.311,0,0,0-5.367,5.033,12.72,12.72,0,0,0-2.023,6.606,13.412,13.412,0,0,0,1.9,5.944,15.691,15.691,0,0,0,4.516,4.787,15.174,15.174,0,0,0,6.228,2.91,17.264,17.264,0,0,0,7.442-.732,15.147,15.147,0,0,0,6.1-3.738,15.471,15.471,0,0,0,4.144-5.238Zm-7.177-2.328a8.96,8.96,0,0,1-2.437,2.98,12.98,12.98,0,0,1-3.3,2.141,5.715,5.715,0,0,1-3.223.512,7.408,7.408,0,0,1-2.87-1.443,9.123,9.123,0,0,1-2.6-2.624,7.764,7.764,0,0,1-1.2-3.289,7.007,7.007,0,0,1,1.219-3.459,8.432,8.432,0,0,1,2.9-2.617,6.125,6.125,0,0,1,2-.914,6.621,6.621,0,0,1,2.251-.18,6.357,6.357,0,0,1,1.87.885c3.251,1.979,6.581,5.284,5.386,7.984Z" transform="translate(585.234 206.861)" fill="#cacaca"/><path d="M166.681,33.2a9.79,9.79,0,0,0-2.363-5.51,12.336,12.336,0,0,0-5.409-3.592,21.605,21.605,0,0,0-3.87-.954,12.56,12.56,0,0,0-4.2-.233,9.093,9.093,0,0,0-2.3.675,12.828,12.828,0,0,0-2.3,1.28c-2.712,1.839-6.609,4.8-6.665,9.125a9.087,9.087,0,0,0,1.86,5.071,11.288,11.288,0,0,0,4.614,3.542,16.9,16.9,0,0,0,14.191,0,11.367,11.367,0,0,0,4.8-3.9,9.161,9.161,0,0,0,1.642-5.5Zm-7.66.326a3.369,3.369,0,0,1-.693,2.022,4.2,4.2,0,0,1-1.856,1.377l-.242.116a8.4,8.4,0,0,1-3.284.536,8.248,8.248,0,0,1-3.214-.769,4.216,4.216,0,0,1-1.642-1.1,3.415,3.415,0,0,1-.823-1.643c0-1.071,1.219-2.328,3.6-3.957a5.137,5.137,0,0,1,1.275-.675,6.251,6.251,0,0,1,1.326.163,14.684,14.684,0,0,1,2.437.559,4.814,4.814,0,0,1,2.121,1.3,3.817,3.817,0,0,1,1,2.071Z" transform="translate(509.601 83.354)" fill="#cacaca"/><path d="M165.513,34.544a11.925,11.925,0,0,0-4.167-4.365,14.5,14.5,0,0,0-6.093-2.106,11.925,11.925,0,0,0-5.74.838,7.724,7.724,0,0,0-3.684,3.05,8.107,8.107,0,0,0-.381,6.564c.488,1.793,1.572,5.959,5.907,7.542a11.076,11.076,0,0,0,5.414.442,12.277,12.277,0,0,0,7.688-3.678,7.479,7.479,0,0,0,1.865-4.018,7.088,7.088,0,0,0-.809-4.269Zm-7.284,4.283a2.883,2.883,0,0,1-1.084.722,6.766,6.766,0,0,1-1.679.442,3.117,3.117,0,0,1-1.107,0c-.191,0-.758-.442-1.409-2.91a4.033,4.033,0,0,1-.27-2.141,2.515,2.515,0,0,1,.833-.3,2.644,2.644,0,0,1,.9,0,6.117,6.117,0,0,1,2.381.844,5.136,5.136,0,0,1,1.684,1.67,1.342,1.342,0,0,1,.181.871,1.431,1.431,0,0,1-.428.806Z" transform="translate(529.155 102.283)" fill="#cacaca"/><path d="M177.409,87.229a12.317,12.317,0,0,0,7.721-3.7,7.531,7.531,0,0,0,1.935-3.989,7.04,7.04,0,0,0-.744-4.274,12,12,0,0,0-4.181-4.368,14.586,14.586,0,0,0-6.112-2.1,11.94,11.94,0,0,0-5.739.838A7.723,7.723,0,0,0,166.6,72.68a8.276,8.276,0,0,0-.349,6.565c.461,1.793,1.567,5.959,5.874,7.542A11.148,11.148,0,0,0,177.409,87.229Zm-1.135-6.518a3.347,3.347,0,0,1-1.14,0c-.163,0-.758-.442-1.4-2.91a4.5,4.5,0,0,1-.274-2.141,2.711,2.711,0,0,1,1.735-.3,5.956,5.956,0,0,1,2.391.829,4.911,4.911,0,0,1,1.67,1.685,1.288,1.288,0,0,1,.181.871,1.4,1.4,0,0,1-.423.806h0a3.089,3.089,0,0,1-1.056.721,6.82,6.82,0,0,1-1.679.442Z" transform="translate(605.128 250.954)" fill="#cacaca"/><path d="M453.361,32.973a12.058,12.058,0,0,0-3.442,3.911,27.837,27.837,0,0,0-3,19.181c.326,1.886.707,3.934,1.163,6.029A81.114,81.114,0,0,0,436.3,54.6a24.338,24.338,0,0,0-8.125-2.956,13.311,13.311,0,0,0-5.372.12,12.16,12.16,0,0,0-4.726,2.207,9.553,9.553,0,0,0-2.809,4.821,8.655,8.655,0,0,0,.507,5.375,22.04,22.04,0,0,0,5.414,7.332c1.9,1.862,3.819,3.678,5.8,5.447a50.916,50.916,0,0,0-20.688.605,54.276,54.276,0,0,0-18.33,9.474,9.247,9.247,0,0,0-2.791,2.641,7.765,7.765,0,0,0-1.3,3.387,6.328,6.328,0,0,0,1.433,3.805,8.048,8.048,0,0,0,3.628,2.5,19.311,19.311,0,0,0,6.525.931l26.3.419h1.46a54.921,54.921,0,0,0-18.358,15.6,21.869,21.869,0,0,0-4.875,11.313,11.6,11.6,0,0,0,1.284,6.741,13.9,13.9,0,0,0,5.023,5.293c5.93,3.4,13.54,1.839,18.66-1.56l1.028-.745a35.946,35.946,0,0,0,9.474-13.245q4.144-8.311,8.665-16.527c2.386.907,6.093,1.164,11.079-1.7.437-.245.865-.509,1.27-.792a36.974,36.974,0,0,0,6.014-5.354l.73-.745a160.527,160.527,0,0,0,50.176,35.2c1.707.768,3.437,1.513,5.172,2.327Q462.884,153.419,405.24,164.82L388.45,148.525l-1.163-1.071v-.14A173.192,173.192,0,0,0,371.934,118.8c-4.358-6.122-9.721-8.962-15.112-8.008a14.3,14.3,0,0,0-5.451,2.579,11.73,11.73,0,0,0-3.535,4.4,21.137,21.137,0,0,0-2.488,13.16,22.489,22.489,0,0,0,6.019,12.289,28.451,28.451,0,0,0,12.688,7.667,32.463,32.463,0,0,0,15.488.707,7.811,7.811,0,0,1,2.112-.233,6.071,6.071,0,0,1,1.572,1.234l14.135,13.664q-32.5,6.169-65.479,10.545A44.761,44.761,0,0,1,316.641,162.1a122.9,122.9,0,0,1-10-19.926c-.3-.675-.646-1.373-1-2.048l.4-.21a3,3,0,0,0,.73-.652,110.658,110.658,0,0,0,17.577-30.634h.353a18.473,18.473,0,0,0,7.284-2.793,13.5,13.5,0,0,0,3.735-3.515,14.252,14.252,0,0,0,2.437-6.984,13.869,13.869,0,0,0-2.1-8.407,17.056,17.056,0,0,0-6.944-6.188,16.633,16.633,0,0,0-8.144-1.679,16.24,16.24,0,0,0-7.888,2.424,17.262,17.262,0,0,0-5.633,5.69,14.491,14.491,0,0,0-2.084,7.252,12.488,12.488,0,0,0,1.516,6.46,14.741,14.741,0,0,0,4.74,5.179,16.36,16.36,0,0,0,5.414,2.328A104.417,104.417,0,0,1,302.1,134.442a84.088,84.088,0,0,0-15.4-15.6,20,20,0,0,0,3.521-12.12,20.364,20.364,0,0,0-4.581-11.857,16.05,16.05,0,0,0-6.316-3.841,18.286,18.286,0,0,0-7.679-.815c-12.512.838-22.367,11.639-23.4,20.951a10.839,10.839,0,0,0,.647,6.26A12.61,12.61,0,0,0,253,122.617a19.884,19.884,0,0,0,8.907,2.514,53.215,53.215,0,0,0,11.916.372,22.608,22.608,0,0,0,7.8-2.327c9.4,7.542,15.6,14.712,18.414,21.253a125.277,125.277,0,0,0,10.479,20.95,54.1,54.1,0,0,0,11.725,12.9c-23.507,2.887-47.093,5.121-70.7,6.565a69.268,69.268,0,0,0-37.181,11.872c-7.34,4.819-16.247,12.57-18.442,23.278a13.743,13.743,0,0,0,2.061,11.639,17.042,17.042,0,0,0,10.642,5.819c8.991,1.653,19.279-1.606,26.86-8.473,6.525-5.913,10.479-13.525,13.949-20.229l9.446-18.436c11.591-.768,23.181-1.793,34.772-2.933a41.581,41.581,0,0,0-10.832,9.079,48.441,48.441,0,0,0-9.261,17.807c-1.112,3.748-1.814,8.078.893,11.174a10.6,10.6,0,0,0,5.019,2.783,11.912,11.912,0,0,0,5.977-.083,18.148,18.148,0,0,0,9.423-6.262,32.036,32.036,0,0,0,6.958-17.854,57.637,57.637,0,0,0-.949-17.365Q335,183.093,368.845,177.6l-4.167,12.2a6.243,6.243,0,0,1-1.516,2.91,8.71,8.71,0,0,1-3.386,1.024,49.776,49.776,0,0,0-25.684,15.288,38.362,38.362,0,0,0-9.735,25.518c.214,5.587,3,9.521,7.446,10.545a12.234,12.234,0,0,0,4.944-.109,11.189,11.189,0,0,0,4.344-2.032,26.15,26.15,0,0,0,2.707-2.188,108.779,108.779,0,0,0,19.144-19.74,33.369,33.369,0,0,0,6.391-25.071,13.716,13.716,0,0,0,2.2-4.353l5.223-15.247q24.781-4.237,49.367-9.474l5.633,41.575c.73,5.354-2.493,10.242-5.9,15.433-.353.512-.679,1.071-1.032,1.606a24.75,24.75,0,0,0-11.474,1.012,21.5,21.5,0,0,0-9.214,5.972,15.271,15.271,0,0,0-.047,22.187,20.837,20.837,0,0,0,12.014,5.766,22.529,22.529,0,0,0,13.488-2.347c.7-.373,1.409-.792,2.084-1.233a22.082,22.082,0,0,0,5.284-5.052c7.391-9.753,3.465-18.623-3.684-23.278a19.587,19.587,0,0,0-1.735-.978l.488-.745c3.791-5.8,7.744-11.8,6.772-19.111l-.544-3.841,12.567,4.655a12.59,12.59,0,0,0-2.033,4.819,15.2,15.2,0,0,0,1.149,8.506,17.739,17.739,0,0,0,5.7,7.02,13.118,13.118,0,0,0,6.121,2.817,15.357,15.357,0,0,0,7.093-.745,26.233,26.233,0,0,0,6.767-3.213,16.328,16.328,0,0,0,7.07-9.311,12.256,12.256,0,0,0-.456-7.052,14.049,14.049,0,0,0-4.363-5.984,18.973,18.973,0,0,0-8.479-3.734,20.53,20.53,0,0,0-9.5.568,19.872,19.872,0,0,0-3.819,1.606l-18.739-6.867-4.279-31.542q35.2-7.752,69.623-17.6c-4.823,5.7-9.046,17.854-9.939,20.95a21.129,21.129,0,0,0-.893,9.079,10.46,10.46,0,0,0,1.549,4.357,12.273,12.273,0,0,0,3.377,3.511,16.259,16.259,0,0,0,8.367,2.188,15.558,15.558,0,0,0,5.609-.815,12.916,12.916,0,0,0,4.307-2.857,10.749,10.749,0,0,0,2.567-4.126,21.065,21.065,0,0,0,.949-9.311c-.326-3.911-3.414-20.95-8.721-25.28a1113.232,1113.232,0,0,0,141.3-51.7,3.911,3.911,0,0,0,.544-.3,2.992,2.992,0,0,0,1.27-1.887,2.7,2.7,0,0,0-.521-2.134,3.548,3.548,0,0,0-2.042-1.29,4.078,4.078,0,0,0-2.526.214q-32.818,14.642-67.046,27.189a2.9,2.9,0,0,0-.842-1.024l-16.247-13.292a9.079,9.079,0,0,0,0-4.655,14.45,14.45,0,0,0-.214-1.513,13.935,13.935,0,0,0-4.577-8.357c-3.009-3.142-6.284-6.052-9.372-8.753-7.391-6.448-15.623-12.384-25.725-12.221a16.59,16.59,0,0,0-7.093,1.536,14.566,14.566,0,0,0-4.632,3.771,20.461,20.461,0,0,0-4.5,9.139,19.008,19.008,0,0,0,.637,9.909,21.383,21.383,0,0,0,5.651,8.655,26,26,0,0,0,9.507,5.631,41.93,41.93,0,0,0,13.214,1.886,100.6,100.6,0,0,0,21.014-1.653l16.381,13.525q-22.716,8.171-45.841,15.433c-3.819-1.536-7.637-3.073-11.372-4.655a153.6,153.6,0,0,1-48.525-34.242,55.639,55.639,0,0,1,14-8.124,7.81,7.81,0,0,0,2.8-1.557,6.424,6.424,0,0,0,1.744-2.446,5.279,5.279,0,0,0-.488-3.841A103.367,103.367,0,0,0,515.5,58.9c2.572-2.514,5.419-5.913,4.823-9.986a9.331,9.331,0,0,0-2.767-4.872A11.771,11.771,0,0,0,512.2,41.19a21.325,21.325,0,0,0-10.7.3,43.987,43.987,0,0,0-19.683,11.22c-1.926,1.839-3.6,3.561-5.149,5.261a39.967,39.967,0,0,0-2.516-16.295,16.9,16.9,0,0,0-6.879-8.706,13.256,13.256,0,0,0-13.916,0ZM377.538,145.8a24.215,24.215,0,0,1-11.451-.693,21.151,21.151,0,0,1-9.307-5.774,16.749,16.749,0,0,1-4.372-9.123,15.809,15.809,0,0,1,1.87-9.736,8.508,8.508,0,0,1,2.544-3,3.99,3.99,0,0,1,1.465-.628c3.14-.559,6.363,3.468,7.609,5.214a146.61,146.61,0,0,1,12.944,23.511Zm-61.655-44.461a8.6,8.6,0,0,1-2.7-3.041,7.3,7.3,0,0,1-.823-3.756,9.111,9.111,0,0,1,1.293-4.513,10.835,10.835,0,0,1,3.47-3.564,8.345,8.345,0,0,1,4.153-1.322,8.552,8.552,0,0,1,4.3.9,10.356,10.356,0,0,1,4.158,3.767,8.469,8.469,0,0,1,1.256,5.079,8.736,8.736,0,0,1-1.46,4.306,8.37,8.37,0,0,1-2.637,2.307,9.785,9.785,0,0,1-3.512,1.161,11.052,11.052,0,0,1-3.912.013,10.384,10.384,0,0,1-3.586-1.339Zm-42.976,17.994a46.22,46.22,0,0,1-10.1-.373,13.548,13.548,0,0,1-5.419-1.3,6.553,6.553,0,0,1-1.879-2.811,5.824,5.824,0,0,1-.126-3.241A18.884,18.884,0,0,1,263.809,99.2a17.324,17.324,0,0,1,8.446-3.049,10.349,10.349,0,0,1,4.456.4,9.1,9.1,0,0,1,3.67,2.2,13.769,13.769,0,0,1,2.86,6.087,12.775,12.775,0,0,1-.479,6.552,12.133,12.133,0,0,1-2.381,4.865,12.307,12.307,0,0,1-7.474,3.073ZM203.884,228.066a8.893,8.893,0,0,1-.977-7.193c1.814-8.543,9.209-15.107,15.274-19.181l.488-.326a65,65,0,0,1,12.186-6.379,128.785,128.785,0,0,0-15.735,14.479,45.414,45.414,0,0,0-10.832,19.158c-.028-.186-.242-.349-.4-.559Zm6.2,3.212a13.163,13.163,0,0,1-4.116-1.467,43.044,43.044,0,0,1,10.563-19.437,148.089,148.089,0,0,1,18.223-16.481.944.944,0,0,0,.191-.3,59.324,59.324,0,0,1,7.177-1.722c-5.256,12.919-11.214,25.862-21.474,36.523a33.888,33.888,0,0,1-2.981,2.723,19.736,19.736,0,0,1-7.581.163Zm32.874-25.233c-3.414,6.588-6.93,13.385-12.619,18.623a28.531,28.531,0,0,1-9.125,5.54l.786-.768c10.642-11.011,16.9-24.861,22.1-37.78,2.163-.326,4.358-.582,6.739-.745Zm119.85-6.68a29.508,29.508,0,0,1-5.823,18.459,104.729,104.729,0,0,1-18.116,18.622c-.865.768-3.516,3.1-5.144,2.724-1.191-.279-2.112-2.328-2.191-4.865a31.551,31.551,0,0,1,4.214-15.913,37.359,37.359,0,0,1,12.033-12.625,41.77,41.77,0,0,1,14.4-6.192Zm61.9,32.216a.878.878,0,0,0,.247.186,3.6,3.6,0,0,0,1.4.3,15.54,15.54,0,0,1,2.707,1.35c4.116,2.607,7.126,8.1,1.925,14.968a14.943,14.943,0,0,1-5.065,4.353,14.539,14.539,0,0,1-8.456,1.238,13.336,13.336,0,0,1-7.446-3.654,10.1,10.1,0,0,1-3.06-6.886,9.976,9.976,0,0,1,2.716-6.992,14.307,14.307,0,0,1,6.614-4.382,16.613,16.613,0,0,1,8.335-.483Zm48.418-21.835a8.011,8.011,0,0,1,2.433,3.384,7.02,7.02,0,0,1,.274,3.972,11.816,11.816,0,0,1-3.507,5.009,14.58,14.58,0,0,1-5.837,3,7.468,7.468,0,0,1-3.358.489,5.93,5.93,0,0,1-2.707-1.374,11.754,11.754,0,0,1-3.753-4.524,10,10,0,0,1-.847-5.509,7.484,7.484,0,0,1,2.163-3.931,9.493,9.493,0,0,1,4.251-2.354,12.531,12.531,0,0,1,5.7-.349,11.578,11.578,0,0,1,5.107,2.188ZM519.867,73.221l.6-.373a9.222,9.222,0,0,1,3.656-.721c7.823,0,14.73,5.331,20.549,10.429,2.981,2.584,6.149,5.377,8.94,8.31a9.393,9.393,0,0,1,3,4.888,13.326,13.326,0,0,0,.27,1.979,1.1,1.1,0,0,0,0,.3A144.968,144.968,0,0,0,518.97,73.8a8.185,8.185,0,0,1,.9-.582Zm16.977,27.259a34.45,34.45,0,0,1-10.67-1.443,19.218,19.218,0,0,1-6.837-4.1,15.915,15.915,0,0,1-4.13-6.231,13.193,13.193,0,0,1-.651-3.352A236.857,236.857,0,0,0,550.193,99.92a121.745,121.745,0,0,1-13.456.559Zm15.27-.815a.661.661,0,0,0-.047-.56.846.846,0,0,0-.493-.371A231.767,231.767,0,0,1,514.532,83.58a14.849,14.849,0,0,1,3.437-8.59,142.3,142.3,0,0,1,37.665,24.116c-1.191.209-2.382.419-3.628.559ZM435.677,75.758q-4.577-3.98-8.884-8.17a16.967,16.967,0,0,1-4.06-5.238,3.577,3.577,0,0,1-.321-2.054,3.81,3.81,0,0,1,.888-1.926,4.825,4.825,0,0,1,1.842-.75,5.173,5.173,0,0,1,2.033.028,17.348,17.348,0,0,1,5.577,2.141,76.278,76.278,0,0,1,16.386,11.639l1.433,1.35.163.163a32.01,32.01,0,0,0-4.009,3.98,45.458,45.458,0,0,0-3.06,3.934l-2.544-.675a22.359,22.359,0,0,1-4.06-3.143Zm-9.693,19.111c-1.3,0-2.707-.14-3.819-.163l-26.293-.419a12.5,12.5,0,0,1-3.819-.419,1.824,1.824,0,0,1-.814-.559c0-.14.219-.535,1.623-1.56a47.06,47.06,0,0,1,15.763-8.287c9.1-2.327,18.953-.559,29.786,2.328a14.035,14.035,0,0,0,1.949.675c-.461.861-.893,1.746-1.27,2.63a17.2,17.2,0,0,0-1.167,4.656c-3.033,1.56-7.637,1.35-12.1,1.117Zm3.14,27.142A31,31,0,0,1,421.487,133c-2.9,2.328-7.823,3.561-10.991,1.746a7.521,7.521,0,0,1-2.586-2.951,6.411,6.411,0,0,1-.586-3.66,16.741,16.741,0,0,1,3.767-8.427,48.983,48.983,0,0,1,18.735-14.968c1.084-.512,2.167-.978,3.279-1.443,1.758-.745,3.549-1.537,5.414-2.328a13.407,13.407,0,0,0,.814,2c-3.763,6.169-7.093,12.5-10.372,19.041Zm50.5-41.109-.4.163a62.808,62.808,0,0,0-20.391,13.222l-1.679,1.7a28.807,28.807,0,0,1-5.767,4.959c-1.246.721-3.521,1.815-4.684,1.024-2.116-1.443-2.712-7.193-1.2-10.8a40.751,40.751,0,0,1,6.744-10.685,24.764,24.764,0,0,1,4.846-4.446l.516-.3h.326l.7-.442a16.2,16.2,0,0,1,5.86-1.741,16.847,16.847,0,0,1,6.177.513,15.259,15.259,0,0,1,5.363,2.674,12.749,12.749,0,0,1,3.586,4.35Zm23.749-33.567a13.889,13.889,0,0,1,6.66-.326,4.705,4.705,0,0,1,2.042.986,3.778,3.778,0,0,1,1.181,1.738c.242,1.629-1.544,3.608-3.116,5.121a96.807,96.807,0,0,1-27.618,18.623,22.428,22.428,0,0,0-6.363-4.26,75.392,75.392,0,0,1,10.832-12.5,36.782,36.782,0,0,1,16.381-9.381Zm-40.293-9.312a11.119,11.119,0,0,1,4.279,5.7c2.977,7.426,2.219,15.9,1.3,23.581a25.415,25.415,0,0,0-11.209,1.49A65.481,65.481,0,0,1,453.9,55.111a22.4,22.4,0,0,1,2.358-15.5,5.633,5.633,0,0,1,1.567-1.909h0a5.343,5.343,0,0,1,2.651-.5,5.141,5.141,0,0,1,2.521.846Z" transform="translate(713.499 113.185)" fill="#cacaca"/><path d="M231.084,65.5c-4.549-4.26-9.316-8.613-15.516-10.848s-14.246-1.746-18.549,2.7a12.158,12.158,0,0,0-2.823,5.722,11.339,11.339,0,0,0,.572,6.2A26.35,26.35,0,0,0,202.512,79.8c7.558,6.821,28.544,20.369,40.618,16.5C259.679,91.04,237.014,71.044,231.084,65.5Z" transform="translate(708.317 194.81)" fill="#cacaca"/><path d="M374.86,64.411h-.428a3.644,3.644,0,0,0-2.251.412,4.063,4.063,0,0,0-1.651,1.7,78.234,78.234,0,0,1-6.223,9.331L362,79.011a75.261,75.261,0,0,0-12.5,30.432,78.072,78.072,0,0,0,1.437,33.278,8.475,8.475,0,0,0,1.953,3.745,6.92,6.92,0,0,0,4.13,1.832,6.782,6.782,0,0,0,4.335-1.154c6.028-3.259,10.609-9.945,13.656-19.847,5.716-18.747,6.749-42.741,2.572-59.732a4.339,4.339,0,0,0-.963-1.984A3.888,3.888,0,0,0,374.86,64.411Zm-7.121,60.071c-2.321,7.618-5.54,12.7-9.577,14.917a69,69,0,0,1-1-29A66.459,66.459,0,0,1,368.13,83.92l2.246-3.047,1.442-1.989a120.9,120.9,0,0,1-4.079,45.6Z" transform="translate(1271.898 235.042)" fill="#cacaca"/><path d="M382.983,71.263a8.284,8.284,0,0,0-1.833-2.883,7.471,7.471,0,0,0-2.772-1.793l-.623-.212c-7.9-2.116-17.2,8.464-25.674,19.763-8.972,11.955-13.749,25.772-13.418,38.891.1,4.613,2.107,6.5,3.763,7.258a6.8,6.8,0,0,0,4.9,0c12.484-4.232,23.409-15.383,29.73-30.829C383.355,86.392,385.206,76.807,382.983,71.263Zm-12.935,26.83c-5.228,12.568-13.656,21.815-23.721,25.772,0-10.855,4.116-22.365,12.1-32.966,13.089-17.456,17.065-16.546,17.456-16.462C375.9,74.479,378.36,78.055,370.048,98.093Z" transform="translate(1236.44 241.351)" fill="#cacaca"/><path d="M332.129,275.8c1,6.136,6.809,9.564,15.079,8.908.642,0,48.907-4.232,52.4-20.461a289.8,289.8,0,0,0,119.208-22.7c7-2.941,13.326-5.946,19.177-9.056a81.518,81.518,0,0,0-1.949,12.7c-.158,1.566-.293,3.047-.47,4.232a181.367,181.367,0,0,0,7.958,82.31,4.2,4.2,0,0,0,1.438,1.889,3.652,3.652,0,0,0,4.325,0,4.169,4.169,0,0,0,1.437-1.889l11.7-33.3c4.665-13.246,9.953-28.29,8.819-43.969-.721-9.881-5.851-26.322-16.991-31.739,1.288-.889,2.558-1.778,3.8-2.708a187.891,187.891,0,0,0,68.571-96.571c.349,2.645.623,5.247,1.014,7.956.954,6.538,1.949,13.1,3.06,19.657,3.9,23.825,7.8,48.454,5.949,72.555-2.809,35.675-18.53,68.937-31.911,93.926a640.113,640.113,0,0,1-34.493,57.13c-1-10.114-14.358-20.377-14.511-20.482a41.04,41.04,0,0,0-13.521-6.6,40.588,40.588,0,0,0-16.734-1.079c-6.828.994-11.94,3.7-15.237,8.04-4.116,5.438-4.879,14.811.567,19.974a17.141,17.141,0,0,0,7.8,3.851h0c1.66.466,3.688,1.1,5.972,1.8,15,4.655,29.26,8.464,37.962,5.607q-3.335,4.676-6.73,9.31a121.355,121.355,0,0,0-20.4-8.464,30.1,30.1,0,0,0-12.781-1.227,98.93,98.93,0,0,0-23.153,7.829c-7.451,3.259-15.9,6.961-22.474,13.626-4.684,4.74-7.8,12.547-3.628,18.43,2.535,3.555,6.614,4.444,9.87,4.825a107.213,107.213,0,0,0,46.232-5.861,34.565,34.565,0,0,0-2.767,6.58c-3.9,13.308-4.856,27.508-5.191,39.694-.232,8.233,3.9,10.265,5.581,10.749a8.068,8.068,0,0,0,4.149-.3,8.676,8.676,0,0,0,3.558-2.344c8.991-8.316,14.707-21.032,17.456-38.869l.451-3.093c.642-4.674,1.288-8.674,1.949-12.1a292.9,292.9,0,0,0,8.214,33.855c1.442,4.74,4.037,11.107,9.754,12.7l.642.144c5.856,1.228,10.986-3.47,12.856-8.46a28.767,28.767,0,0,0,.8-13.967c-1.716-12.823-4.893-31.294-12.679-43.778-1.307-2.116-4.74-7.575-9.46-9.1q5.19-7.152,10.163-14.431a95.07,95.07,0,0,0,5.851,18.324h0c4.763,10.96,12.153,19.043,20.837,22.958,5.539,2.391,10.651,1.8,13.656-1.693a11.742,11.742,0,0,0,2.381-5.352,12.243,12.243,0,0,0-.433-5.926,25.5,25.5,0,0,0-4.27-7.807c-1.33-1.8-3.023-4.444-4.977-7.448-8.623-13.351-16.367-24.651-23.586-27.507q11.1-17.2,21.13-35.167a83.835,83.835,0,0,0,7.6,21.688,65.555,65.555,0,0,0,32.851,32.1,3.623,3.623,0,0,0,2.563.063,3.955,3.955,0,0,0,2.042-1.671c2.907-4.761.958-10.579.237-12.823-5.716-17.35-19.219-41.155-38.548-51.755,13.516-25.391,28.888-58.907,31.739-95.216.274-3.343.409-6.665.488-10.008,19.153,35.526,48.181,58.95,79.12,82.669a19.554,19.554,0,0,0-5.986,4.549,66.134,66.134,0,0,0-15.842,37.367c-.447,5.8,1.949,10.241,5.851,10.939a7.728,7.728,0,0,0,3.9-.36,28.6,28.6,0,0,0,15.762-14.261,58.142,58.142,0,0,0,5.851-20.122h0a40.928,40.928,0,0,0,.256-10.58l9.753,7.491c-5.619,5.861-7.023,18.747-7.335,23.084-.879,11.871,1.637,22.789,7.079,30.744,4.116,5.988,11.377,9.987,17.284,6.009,4.079-2.729,5.228-7.913,5.74-11.574,1.326-9.585,2.493-36.669-7.8-46.931a16.957,16.957,0,0,0-3.9-2.941c-6.809-5.4-13.656-10.58-20.349-15.764-36.674-28.036-71.316-54.506-89.967-99.723-1.093-15.3-3.53-30.469-5.949-45.323-1.056-6.5-2.107-13.013-3.046-19.509-5.13-35.548-5.851-66.482-2.107-93.968,4.567,19.191,15.139,38.785,31.721,58.526,7.353,8.739,15.316,17.054,23,25.074l3.377,3.534a14.433,14.433,0,0,0-6.386,1.659,15.655,15.655,0,0,0-5.163,4.393,38.924,38.924,0,0,0-6.307,13.275,40.827,40.827,0,0,0-1.051,14.888c.9,5.459,4.47,11.13,9.972,10.791,2.67-.169,7.414-1.946,9.149-11.849.428-2.433,1-4.994,1.581-7.639a85.271,85.271,0,0,0,2.847-20.651c2.242,2.391,4.488,4.8,6.688,7.258a20.294,20.294,0,0,0-3.977,8.21c-4.488,14.938-4,34.891,1.307,53.406,2.963,10.283,8.251,12.1,11.1,12.272a11.463,11.463,0,0,0,5.246-1.288,12.469,12.469,0,0,0,4.237-3.6c9.088-10.579,8.251-25.835,6.4-35.716a57.1,57.1,0,0,0,19.977,26.957c6.126,4.4,14.767,7.088,20.777,1.439a15.586,15.586,0,0,0,4.009-8.026,16.4,16.4,0,0,0-.944-9.071,29.156,29.156,0,0,0-9.228-11.786,111.758,111.758,0,0,0-23.409-14.155,63.364,63.364,0,0,0-9.54-3.089h-.274c-1.112-.318-2.2-.677-3.237-1.037a367.623,367.623,0,0,0-31.684-36.14c-7.6-7.934-15.469-16.123-22.646-24.671C648.5,63,637.638,37.522,638.089,13.359a4.522,4.522,0,0,0-.763-2.662,3.917,3.917,0,0,0-2.125-1.57A2.914,2.914,0,0,0,634.34,9a7.04,7.04,0,0,0-2.968,1.406,7.723,7.723,0,0,0-2.121,2.657c-6.009,25.856-7.688,54.76-5.153,87.642A176.528,176.528,0,0,1,515.811,233.753a284.817,284.817,0,0,1-72.176,19.72c4.623-7.406,5.344-22.365,5.265-38.087v-2.37a29.909,29.909,0,0,0-1.521-11.68,9.3,9.3,0,0,0-2.126-3.468,8.38,8.38,0,0,0-3.316-2.1,4.793,4.793,0,0,0-1.093-.19c-1.8-.169-6.223.275-8.6,8.062-1.675,5.48-3.177,11.066-4.447,16.589,0,.254-5.851,25.709,1.228,34.765a273.957,273.957,0,0,1-30.018.825,2.723,2.723,0,0,0-.842.148,10.735,10.735,0,0,0-1.814-2.116,14.726,14.726,0,0,0-5.991-3.026c-13.5-3.746-37.609,2.751-40.339,3.808-8.367,3.259-13.814,7.7-16.642,13.605a12.684,12.684,0,0,0-1.246,7.554ZM545.113,435.359l-.409,2.963c-2.419,15.6-7.414,27-14.884,33.856l-.507.465a9.3,9.3,0,0,1-.1-1.967c.33-12.167,1.149-25.1,4.8-37.39,1.521-5.036,5.246-10.579,11.158-16.5,1.265-.762,2.493-1.566,3.707-2.391a209.72,209.72,0,0,0-3.767,20.97Zm-4.391-25.392c-16.619,9.712-39.325,13.753-56.669,11.807-1.619-.19-3.9-.55-4.581-1.629-1.093-1.5.6-5.036,2.809-7.258,5.5-5.586,12.912-8.845,20.07-11.976a94.352,94.352,0,0,1,21.46-7.448c6.791-1.143,18.182,3.851,26.647,7.934a126.335,126.335,0,0,0-9.735,8.548ZM560.936,377.4c-4.977,2.116-15.256,0-24.428-2.518-3.568-.973-6.944-2.116-9.753-2.92-4.991-1.545-8.856-2.116-10.786-3.893s-1.5-6.094.275-8.464c2.516-3.322,7-4.592,10.316-5.078a33.849,33.849,0,0,1,24.893,6.348c5.344,4,11.591,11.68,11.237,14.981-.06.169-.135.8-1.753,1.523Zm7,32.289c5.172,8.315,8.917,21.5,11.433,40.309a20.969,20.969,0,0,1-.312,9.67c-.8,2.116-2.809,3.744-4.293,3.428h-.154c-1.66-.465-3.121-2.856-4.488-7.3-4.935-16-10.749-41.6-9.209-50.992a2.683,2.683,0,0,1,1.288-.91c.646-.106,2.656.8,5.735,5.776ZM602,399.346c2.051,3.195,3.9,5.967,5.228,7.85a17.591,17.591,0,0,1,2.967,5.142,3.563,3.563,0,0,1,.209,1.547,3.493,3.493,0,0,1-.465,1.479c-.563.677-1.948.741-3.725.275a13.176,13.176,0,0,1-1.521-.55c-6.884-3.047-12.856-9.733-16.814-18.811-3.493-8.083-6.167-17.943-5.856-21.54,5.446,2.095,14.516,16.145,19.976,24.587Zm141.822-63.668c.647-8.865,3.237-17.244,5.7-18.282a1.572,1.572,0,0,1,1.149.148c.372.317.763.593,1.154.91a3.694,3.694,0,0,0,.758.381c.214.19.433.36.665.593,6.535,6.5,7.1,27.507,5.442,39.525-.447,3.174-1.172,5.057-2.186,5.734-1.8,1.206-5.167-1.079-7.079-3.893-4.312-6.348-6.26-15.277-5.6-25.137ZM725.93,313.8a50.422,50.422,0,0,1-4.916,17.139,21.305,21.305,0,0,1-11.2,10.389,7.613,7.613,0,0,1,0-1.841,57.676,57.676,0,0,1,13.535-32.056,17.249,17.249,0,0,1,2.809-2.455,28.651,28.651,0,0,1-.232,8.8ZM685.549,146.641c-.6,2.772-1.191,5.48-1.656,8.02-.665,3.83-1.758,5.078-2.07,5.1a5.767,5.767,0,0,1-1.34-1.767,6.133,6.133,0,0,1-.609-2.19,30.976,30.976,0,0,1,5.539-21.159,9.678,9.678,0,0,1,2.693-2.391,112.391,112.391,0,0,1-2.558,14.473ZM734.8,161.452a104.479,104.479,0,0,1,21.814,13.14,21.833,21.833,0,0,1,6.749,8.294c.9,2.434.874,5.925-.977,7.66a6.044,6.044,0,0,1-2.837,1.177,5.857,5.857,0,0,1-3.014-.394,18.853,18.853,0,0,1-5.7-2.857,49.563,49.563,0,0,1-18.609-27.993A17.559,17.559,0,0,1,734.8,161.6Zm-10.628-1.9a.842.842,0,0,0,.1.487l-.177-.465Zm-18.5-13.584a21.517,21.517,0,0,1,1.563-4,41.949,41.949,0,0,1,3.414,4.93c.349.593.721,1.185,1.093,1.756.623,1.756,1.581,4.232,2.577,6.94,1.558,4.232,3.9,10.347,4.209,11.722,1.837,7.829,3.767,22.28-3.9,31.167a5.262,5.262,0,0,1-3.437,2.264c-1.479-.127-3.079-2.56-4.191-6.348-4.819-16.864-5.349-34.934-1.33-48.285ZM550.811,229.881c7.1,3.259,12.074,15.3,12.776,25.073,1,13.817-3.9,27.909-8.33,40.351l-2.284,6.5c.1-.4.214-.8.311-1.206q3.209-11.4,5.326-23.106c3.219-19.784,0-37.092-8.99-48.031a7.4,7.4,0,0,1,1.191.571Zm-2.149,1.418c8.2,10.579,11.121,27,8.06,45.831q-2.093,11.6-5.27,22.915c-1.167,4.359-2.339,8.8-3.372,13.309,1.051-27.274.819-54.972.581-81.907Zm-5.5,19.043c.2-1.354.349-2.941.507-4.634.428-4.232,1.191-11.87,3.06-15.023v.55c.233,26.6.391,53.956-.6,81.019a173.532,173.532,0,0,1-2.963-61.679ZM435.342,222.094c1.233-5.332,2.674-10.706,4.293-16a8.4,8.4,0,0,1,.721-1.8,1.285,1.285,0,0,0,0,.19,22.672,22.672,0,0,1,.879,8.273v2.708c.158,31.612-4.177,34.278-5.051,34.49a2.085,2.085,0,0,1-.916,0,.73.73,0,0,1-.335-.233c-2.907-3.216-1.4-19.593.409-27.4ZM340.282,271.9c1.949-3.957,5.967-7.109,12.428-9.627s33.046-7.363,38.837-2.116a1.833,1.833,0,0,1,.637.947,1.966,1.966,0,0,1-.032,1.169c-.819,5.777-28.521,12.7-45.493,14.029a13.284,13.284,0,0,1-4.623-.36c-1.326-.36-2.223-.952-2.34-1.672a4.113,4.113,0,0,1,.586-2.137Z" transform="translate(1212.174 32.86)" fill="#cacaca"/><path d="M355.766,108.219a62.686,62.686,0,0,0,15.255,9.416c.958.466,2.088,1.1,3.358,1.8,7.06,3.914,17.73,9.839,23.953,1.968,6.516-8.294-.721-24.185-4.391-32.183a133.429,133.429,0,0,0-19.507-30.893c-4.33-5.12-9.753-10.579-16.893-12.992l-.8-.233a15,15,0,0,0-8.614-.3,15.91,15.91,0,0,0-7.539,4.532c-4.349,5.247-4.037,12.505-3.256,18.239C339.789,85.96,345.994,99.628,355.766,108.219ZM355.338,53.2c5.386,1.756,9.754,6.348,13.423,10.579a125.375,125.375,0,0,1,18.47,29.327c6.069,13.288,6.674,19.171,5.856,21.731A214.368,214.368,0,0,0,381.38,96.01c-2.535-3.513-5.307-6.919-7.976-10.2s-5.051-6.221-7.433-9.437c-1.563-2.116-3.042-4.232-4.567-6.5a92.263,92.263,0,0,0-13.242-16.441,10.366,10.366,0,0,1,7.177-.127Zm-9.032,1.629h.1a87.94,87.94,0,0,1,13.344,16.441c1.5,2.116,3.023,4.4,4.586,6.538,2.4,3.28,4.991,6.348,7.488,9.522s5.4,6.644,7.921,10.114A223.9,223.9,0,0,1,391.682,116.6a6.166,6.166,0,0,1-4.079-.106,50.569,50.569,0,0,1-9.753-4.507c-1.4-.783-2.693-1.481-3.744-1.989a56.165,56.165,0,0,1-13.521-8.252c-10.242-9.035-14.181-24.206-15.6-35.357-.837-5.819-.409-9.458,1.326-11.447Z" transform="translate(1229.932 161.78)" fill="#cacaca"/><path d="M454.624,71.993c-13.809,4.57-36.907,12.23-32.888,26.787a15.564,15.564,0,0,0,2.651,5.5,14.215,14.215,0,0,0,4.47,3.876c9.754,5.544,25.358,1.143,38.037-3.3,9.363-3.3,20.8-8.464,26.335-19.678,2.637-5.332,3.34-12.7-1.07-17.414a10.713,10.713,0,0,0-5-2.92,18.419,18.419,0,0,0-6.907-.36,82.156,82.156,0,0,0-20.362,5.713C458.606,70.66,456.769,71.295,454.624,71.993Zm26.433.783c2.888-.318,4.837,0,5.856.994,1.423,1.481.874,4.951-.372,7.469-4.233,8.464-13.949,12.865-21.949,15.7-5.851,2.116-23.953,8.464-32.088,3.851a6.574,6.574,0,0,1-2.1-1.813,7.136,7.136,0,0,1-1.232-2.588c-1.837-6.623,20.46-13.986,27.776-16.419,2.284-.761,4.232-1.4,5.6-1.946a76.594,76.594,0,0,1,18.511-5.247Z" transform="translate(1538.121 234.802)" fill="#cacaca"/><path d="M430.881,76.815a8.36,8.36,0,0,0-2.87,2.73,9.274,9.274,0,0,0-1.4,3.851,11.91,11.91,0,0,0,.279,4.48,11.313,11.313,0,0,0,1.907,3.984c8.056,11.68,37.67,19.911,43.074,20.693a19.575,19.575,0,0,0,9.754-.571,10.969,10.969,0,0,0,5.149-3.747,12.449,12.449,0,0,0,2.46-6.176c.251-3.893-1.33-9.437-10.6-13.8a184.487,184.487,0,0,0-27.679-10.876C441.453,74.7,434.741,74.508,430.881,76.815ZM481.6,101.4a3.928,3.928,0,0,1-.917,1.679,3.464,3.464,0,0,1-1.563.966,13.361,13.361,0,0,1-6.3.169c-7.451-1.079-32.381-9.352-37.92-17.414a2.6,2.6,0,0,1-.558-1.284,2.676,2.676,0,0,1,.186-1.4c3.26-1.946,15.977,0,41.339,11.849,3.683,1.714,5.888,3.809,5.791,5.438Z" transform="translate(1557.242 274.627)" fill="#cacaca"/><path d="M455.889,79.5a14.992,14.992,0,0,0,1.367-8.324,14.477,14.477,0,0,0-3.321-7.651,11.072,11.072,0,0,0-5.009-2.941,12.635,12.635,0,0,0-7.1.148,23.823,23.823,0,0,0-9.093,5.819c-.214.191-20.363,20.694-15.214,30.448,3.274,6.221,12.111,2.941,15.428,1.714a50.791,50.791,0,0,0,14.321-9.035A29.349,29.349,0,0,0,455.889,79.5Zm-13.265,3.555a43.434,43.434,0,0,1-12.135,7.765,19.492,19.492,0,0,1-6.047,1.524c.856-4,7.8-14.388,13.344-19.488a17.036,17.036,0,0,1,6.144-4.1,4.723,4.723,0,0,1,2.451-.247,4.891,4.891,0,0,1,2.269,1.029,6.234,6.234,0,0,1,1.014,3.124,6.309,6.309,0,0,1-.7,3.224,21.719,21.719,0,0,1-6.34,7.215Z" transform="translate(1521.332 219.611)" fill="#cacaca"/><path d="M415.685,52.426c-3.14,6.834-1.349,11.3.721,13.859,9.265,11.489,43.832,4.422,49.255,2.433,13.833-5.12,22.67-14.346,24.209-25.391a14.332,14.332,0,0,0-1.753-9.945,10.6,10.6,0,0,0-6.223-4.422A21.291,21.291,0,0,0,474.4,28.5C455.834,30.125,423.508,35.33,415.685,52.426Zm6.883,3.7c4.409-9.648,24.014-16.927,52.418-19.276,3.749-.3,6.047.169,6.888,1.439a6.114,6.114,0,0,1,.409,3.851c-1.563,11.088-13.87,16.758-19.1,18.684-6.242,2.285-26.865,5.1-36.6,2.391a8.482,8.482,0,0,1-4.4-2.412c-.293-.381-1.135-1.4.386-4.676Z" transform="translate(1511.513 103.525)" fill="#cacaca"/><path d="M424.7,61.228a18.1,18.1,0,0,0,8.544-3.111A46.653,46.653,0,0,0,451.89,34.843c1.954-5.4.293-8.464-.935-9.754a6.6,6.6,0,0,0-3.219-1.947,9.442,9.442,0,0,0-2.107-.317c-7.158-.36-13.381,3.724-17.437,6.834-6.088,4.676-14.553,11.87-17.814,20.461a4.542,4.542,0,0,0-.219,2.338,4.374,4.374,0,0,0,.963,2.106,18.858,18.858,0,0,0,6.149,4.864A17.47,17.47,0,0,0,424.7,61.228Zm7.958-24.735c4.623-3.555,8.41-5.269,12.349-5.269a1.058,1.058,0,0,1-.177.508,38.685,38.685,0,0,1-15.39,19.17,10.869,10.869,0,0,1-5.014,1.989,6.137,6.137,0,0,1-1.949-.254,11.323,11.323,0,0,1-3.67-1.883C422.379,44.364,429.928,38.567,432.658,36.493Z" transform="translate(1497.312 83.254)" fill="#cacaca"/><path d="M399.847,97.03c8.642,6.453,37.842,26.639,51.4,14.811a14.372,14.372,0,0,0,3.87-4.923,15.588,15.588,0,0,0,1.535-6.25c.256-10.579-9.363-20.715-18.414-29.475l-1.5-1.481c-16.484-16.229-33.3-26.809-49.609-31.337a65.21,65.21,0,0,0-22.609-2.327,3.692,3.692,0,0,0-1.661.568,4.029,4.029,0,0,0-1.265,1.294,4.339,4.339,0,0,0-.609,1.765,4.4,4.4,0,0,0,.181,1.875,111.316,111.316,0,0,0,38.683,55.48Zm31.721-21.159,1.539,1.5c4.465,4.232,14.456,14.029,15.721,21.371a50.177,50.177,0,0,0-4.465-5.036,282.179,282.179,0,0,0-63.13-48.222c19.977,4.147,37.846,18.112,50.334,30.427ZM375.187,44.491a279.988,279.988,0,0,1,67.888,50.782,36.882,36.882,0,0,1,5.6,6.834,4.146,4.146,0,0,1-.391.931c-4.721-2.814-10.009-5.671-15.177-8.464C426.475,91,419.6,87.3,414.065,83.763A142.421,142.421,0,0,1,391.652,67.3a97.358,97.358,0,0,1-14.3-19.191l-2.242-3.576Zm-2.5-.169c1.056,1.629,2.107,3.28,3.144,4.93A97.619,97.619,0,0,0,390.442,68.8a142.647,142.647,0,0,0,22.67,16.8c5.6,3.554,12.483,7.279,19.158,10.876,5.033,2.729,10.2,5.522,14.8,8.252-.214.212-.353.423-.623.656-2.656,2.327-7.2,2.349-12.684.825-8.8-2.433-20-8.866-29.535-16.018A102.587,102.587,0,0,1,370.2,44.216c.9.021,1.693.085,2.493.148Z" transform="translate(1317.878 130.99)" fill="#cacaca"/><path d="M426.967,70.951a12.379,12.379,0,0,0-2.763-3.986,11.268,11.268,0,0,0-3.986-2.488,6.75,6.75,0,0,0-3.9,0c-9.754,3.259-14.8,30.13-14.456,35.97.665,10.834,3.707,21.159,6.656,31.02a4.109,4.109,0,0,0,1.2,1.967,3.511,3.511,0,0,0,4.163.444,4.076,4.076,0,0,0,1.576-1.649C420.2,123.807,436.079,87.879,426.967,70.951Z" transform="translate(1467.18 234.362)" fill="#cacaca"/><path d="M440.736,99.042a18.407,18.407,0,0,0-9.912-7.618,13.617,13.617,0,0,0-1.949-.4,15.5,15.5,0,0,0-7.818,1.54,16.882,16.882,0,0,0-6.265,5.295,14.152,14.152,0,0,0-2.781,5.214,15.012,15.012,0,0,0-.479,6,15.485,15.485,0,0,0,1.954,5.015c3.628,6.5,10.121,12.7,17.553,10.3a17.225,17.225,0,0,0,6.4-3.936c4.642-4.232,6.944-9.416,6.3-14.367a16.177,16.177,0,0,0-3-7.046Z" transform="translate(1502.145 332.211)" fill="#cacaca"/><path d="M420.57,95.115a8.883,8.883,0,0,0-1.7-.317c-5.033-.381-8.776,3.407-11.158,6.347a11.633,11.633,0,0,0-2.614,4.761,13.707,13.707,0,0,0-.1,4.571,23.288,23.288,0,0,0,.823,4.232,13.466,13.466,0,0,0,3.721,6.221,11.9,11.9,0,0,0,6.2,3.112,11.116,11.116,0,0,0,6.572-1.186,12.32,12.32,0,0,0,4.958-4.825h0a17.012,17.012,0,0,0,2.335-7.535,17.325,17.325,0,0,0-1.279-7.826,13.085,13.085,0,0,0-3.084-4.742,11.8,11.8,0,0,0-4.684-2.812ZM420.9,113.4a4.61,4.61,0,0,1-1.749,1.844,4.121,4.121,0,0,1-2.391.547,4.706,4.706,0,0,1-2.335-1.315,5.333,5.333,0,0,1-1.349-2.451,15.593,15.593,0,0,1-.451-2.666,10.615,10.615,0,0,1-.1-1.439,6.3,6.3,0,0,1,.9-1.291c1.953-2.433,3.67-3.618,4.9-3.512a4.049,4.049,0,0,1,1.846,1.06,4.577,4.577,0,0,1,1.14,1.9,8.434,8.434,0,0,1,.614,3.718,8.349,8.349,0,0,1-1.046,3.6Z" transform="translate(1478.181 346.02)" fill="#cacaca"/><path d="M423.443,101.918l-1.484-.465a9.029,9.029,0,0,0-6.163.209,9.539,9.539,0,0,0-4.051,4.009,10.708,10.708,0,0,0-1.237,5.786,15.1,15.1,0,0,0,1.944,6.823,13.726,13.726,0,0,0,4.749,4.944,8.824,8.824,0,0,0,4.93,1.27,8.915,8.915,0,0,0,4.823-1.693,12.9,12.9,0,0,0,4.893-7.977,11.192,11.192,0,0,0-.093-5.758C430.289,104.243,425.531,102.616,423.443,101.918Zm.879,11a4.866,4.866,0,0,1-1.563,2.856,1.59,1.59,0,0,1-1.442.321,2.874,2.874,0,0,1-.53-.214,5.918,5.918,0,0,1-1.809-2,6.462,6.462,0,0,1-.781-2.67,2.78,2.78,0,0,1,.484-1.842,5.5,5.5,0,0,1,2.46.507c2.809.954,3.219,1.628,3.274,1.8a2.885,2.885,0,0,1-.037,1.246Z" transform="translate(1498.727 368.799)" fill="#cacaca"/><path d="M380.181,54.314a18.551,18.551,0,0,0,5.3,5.544c5.056,3.618,10.3,4.507,14.5,2.433a14.848,14.848,0,0,0,5.4-5.014,19.691,19.691,0,0,0,3.265-6.988,20.605,20.605,0,0,0,.4-7.824,18.547,18.547,0,0,0-3.581-7.692,16.668,16.668,0,0,0-6.465-5,15.014,15.014,0,0,0-2.437-.91,11.139,11.139,0,0,0-8.428.72,13.886,13.886,0,0,0-3.9,3.386C379.553,38.741,376,47.289,380.181,54.314Z" transform="translate(1381.32 103.5)" fill="#cacaca"/><path d="M362.814,95.009a19.051,19.051,0,0,0,5.3,5.544c5.033,3.618,10.3,4.507,14.5,2.433A14.673,14.673,0,0,0,388,97.971a19.6,19.6,0,0,0,3.279-6.985,20.526,20.526,0,0,0,.409-7.826,18.658,18.658,0,0,0-3.586-7.687,16.752,16.752,0,0,0-6.461-5.009,14.877,14.877,0,0,0-2.437-.888,11.141,11.141,0,0,0-8.428.719,14.263,14.263,0,0,0-3.9,3.365c-4.721,5.649-8.251,14.177-4.079,21.159Zm9.753-15.637a6.308,6.308,0,0,1,1.638-1.5,5.143,5.143,0,0,1,2.242-.3,5.253,5.253,0,0,1,2.167.7,8.993,8.993,0,0,1,3.479,2.561,10.032,10.032,0,0,1,2.023,4,11.615,11.615,0,0,1-.367,4.329,10.965,10.965,0,0,1-1.916,3.817,7.309,7.309,0,0,1-2.437,2.433,4.685,4.685,0,0,1-3.3.106,12.081,12.081,0,0,1-3.726-1.9,10.664,10.664,0,0,1-3.121-3.132c-1.814-3.068.661-7.892,3.335-11.108Z" transform="translate(1317.827 252.159)" fill="#cacaca"/><path d="M382.461,49.05a13.675,13.675,0,0,0,7.326.274,14.381,14.381,0,0,0,6.544-3.574,12.56,12.56,0,0,0,3.656-5.406,13.554,13.554,0,0,0,.577-6.677c-1.093-5.353-5.5-8.167-8.721-9.8a13.546,13.546,0,0,0-2.553-1.058,7.417,7.417,0,0,0-2.419-.3,9.835,9.835,0,0,0-4.06,1.227,19.107,19.107,0,0,0-3.568,2.116,13.177,13.177,0,0,0-4.414,5.657,14.439,14.439,0,0,0-.972,7.335,13.349,13.349,0,0,0,2.935,6.457A11.758,11.758,0,0,0,382.461,49.05Zm1.209-16.44a13.227,13.227,0,0,1,2.242-1.27,8.455,8.455,0,0,1,1.251-.508,4.794,4.794,0,0,1,1.4.572c2.73,1.4,4.251,2.751,4.5,4.084a4.952,4.952,0,0,1-.414,2.2,4.6,4.6,0,0,1-1.321,1.733,7.176,7.176,0,0,1-2.982,1.683,6.807,6.807,0,0,1-3.358.073h-.251a4.271,4.271,0,0,1-2.139-1.286,4.86,4.86,0,0,1-1.158-2.333,5.417,5.417,0,0,1,.432-2.834,4.89,4.89,0,0,1,1.791-2.117Z" transform="translate(1364.571 82.186)" fill="#cacaca"/><path d="M374.307,50.77a11.182,11.182,0,0,0,8.446,2.814,8.949,8.949,0,0,0,5.051-1.735c3.9-2.92,3.9-8.337,3.9-10.579a12.768,12.768,0,0,0-1.949-8.019,8.036,8.036,0,0,0-4.349-2.962,9.563,9.563,0,0,0-5.856.275,13.184,13.184,0,0,0-5.47,3.976,14.753,14.753,0,0,0-3.014,6.349,11.054,11.054,0,0,0,.368,5.423A10.3,10.3,0,0,0,374.307,50.77Zm4.372-8.315A6.218,6.218,0,0,1,379.926,40a5.641,5.641,0,0,1,2.125-1.59,2.287,2.287,0,0,1,1.777,0,6.833,6.833,0,0,1,.251,2.708c0,3.2-.526,3.788-.679,3.915a2.309,2.309,0,0,1-1.093.253,5.263,5.263,0,0,1-1.758-.169,2.856,2.856,0,0,1-1.209-.635,1.862,1.862,0,0,1-.623-.9,1.983,1.983,0,0,1-.037-1.128Z" transform="translate(1354.166 109.371)" fill="#cacaca"/><path d="M377.33,106.848c3.9-2.9,3.9-8.316,3.9-10.579a12.866,12.866,0,0,0-1.954-8.04,8,8,0,0,0-4.349-2.941,9.478,9.478,0,0,0-5.851.275,13.235,13.235,0,0,0-5.474,3.967,14.787,14.787,0,0,0-3.033,6.338,11.136,11.136,0,0,0,.312,5.446,10.324,10.324,0,0,0,2.851,4.5,11.091,11.091,0,0,0,8.446,2.835A9.1,9.1,0,0,0,377.33,106.848Zm-7.256-6.729a3.049,3.049,0,0,1-1.21-.634h0a1.879,1.879,0,0,1-.642-.944,2.055,2.055,0,0,1,0-1.173,6.156,6.156,0,0,1,1.232-2.458,5.522,5.522,0,0,1,2.126-1.584,2.24,2.24,0,0,1,1.772,0,6.478,6.478,0,0,1,.256,2.687c0,3.216-.526,3.809-.665,3.936a2.45,2.45,0,0,1-1.111.233,5.175,5.175,0,0,1-1.753-.064Z" transform="translate(1315.758 310.166)" fill="#cacaca"/><path d="M401,77.261a7.582,7.582,0,0,1-.423,3.194,19.956,19.956,0,0,1-7.66,9.948c-1,.722-2.107,1.5-3.265,2.257a46.621,46.621,0,0,1,8.237,1.456,13.159,13.159,0,0,1,4.656,2.009,6.856,6.856,0,0,1,2.116,2.273,6.73,6.73,0,0,1,.888,2.951,6.415,6.415,0,0,1-1.093,3.348,6.287,6.287,0,0,1-2.693,2.231,14.309,14.309,0,0,1-5.586,1.095c-1.628.064-3.246.095-4.865.082a26.325,26.325,0,0,1,8.088,8.809,30.374,30.374,0,0,1,3.028,11.864,5.627,5.627,0,0,1-.093,2.349,5.472,5.472,0,0,1-1.042,2.074,4.43,4.43,0,0,1-2.344,1.135,4.668,4.668,0,0,1-2.628-.36,10.065,10.065,0,0,1-3.07-2.269L382.417,121.05l-.591-.6a33.041,33.041,0,0,1,.209,14.654,15.161,15.161,0,0,1-3.265,7.146,8.344,8.344,0,0,1-3.642,2.53,8.662,8.662,0,0,1-4.484.331c-3.972-.9-6.33-4.75-6.828-8.4l-.07-.762a23.545,23.545,0,0,1,2.3-9.923q2.17-5.482,4.149-11.078c-1.386-.571-3-1.985-3.693-5.34a8.156,8.156,0,0,1-.149-.884,22.214,22.214,0,0,1,.047-4.911l.047-.64a93.546,93.546,0,0,1-36.591-4.719c-1.046-.355-2.093-.732-3.172-1.077a618.347,618.347,0,0,0,32.739,59.6l14.335-.472.967-.006.065-.063a117.5,117.5,0,0,1,19.414-6.613c4.6-.981,8.079-.059,9.818,2.6a7.9,7.9,0,0,1,1.009,3.42,7.5,7.5,0,0,1-.6,3.458,15.2,15.2,0,0,1-5.089,7,15.374,15.374,0,0,1-8.125,3.1,16.217,16.217,0,0,1-8.679-1.754,16.806,16.806,0,0,1-6.6-6.068,3.989,3.989,0,0,0-.744-.977,3.623,3.623,0,0,0-1.209-.088l-12.042.373q10.29,16.2,21.6,31.8a27.516,27.516,0,0,0,12.977-.391,83.845,83.845,0,0,0,13.265-4.925c.437-.183.9-.355,1.354-.516l-.065-.263a1.835,1.835,0,0,1,0-.6,74.524,74.524,0,0,1,7.074-21.157l-.144-.145a10.038,10.038,0,0,1-1.651-4.273,8.267,8.267,0,0,1,.116-3.137,10.024,10.024,0,0,1,2.246-4.176,9.861,9.861,0,0,1,4.74-2.951,10.332,10.332,0,0,1,5.674.055,8.725,8.725,0,0,1,6.139,6.951,10.664,10.664,0,0,1-.354,4.906,10.234,10.234,0,0,1-2.516,4.153,8.936,8.936,0,0,1-3.6,2.308,9.292,9.292,0,0,1-4.316.4,8.982,8.982,0,0,1-3.27-1.177,70.338,70.338,0,0,0-6.014,17.992A52.123,52.123,0,0,1,428.663,185a14.094,14.094,0,0,1,11.525-10.45,9.167,9.167,0,0,1,4.335.863,9.469,9.469,0,0,1,3.484,2.8c4.674,5.541,3.66,14.511-.233,19.162a7.842,7.842,0,0,1-3.163,2.576,8.066,8.066,0,0,1-4.07.657,10.554,10.554,0,0,1-4.767-2.533,27.34,27.34,0,0,1-4.991-4.746,12.076,12.076,0,0,1-2.079-4.274c-7.293-.452-13.121.245-17.288,2.053a85.7,85.7,0,0,1-13.935,5.189,34.033,34.033,0,0,1-10.716,1.018q12.258,16.509,25.563,32.145a37.113,37.113,0,0,1,9.544,20.726c.74,5.215.754,12.409-3.316,18.175a9.807,9.807,0,0,1-6.223,4.435,9.624,9.624,0,0,1-7-1.748c-4.4-2.958-7.051-8.682-6.939-14.927.1-5.376,2.018-10.463,3.721-14.936l4.712-12.268c-4.33-5.13-8.544-10.376-12.707-15.674a24.923,24.923,0,0,1,.181,8.59,32.967,32.967,0,0,1-4.5,11.905c-1.288,2.159-3.009,4.415-5.535,4.7a5.972,5.972,0,0,1-3.321-.807,6.142,6.142,0,0,1-2.377-2.5,10.472,10.472,0,0,1-.911-6.73,22.291,22.291,0,0,1,5.446-10.976,41.939,41.939,0,0,1,8.423-7.493q-12.153-15.691-23.3-32.148l-3.958,7.258a4.173,4.173,0,0,0-.735,1.946,4.628,4.628,0,0,0,.9,1.861,28.378,28.378,0,0,1,3.312,17.536,26.688,26.688,0,0,1-7.879,15.6c-2.674,2.447-5.623,3.082-7.893,1.715a6.3,6.3,0,0,1-1.949-2.089,6.2,6.2,0,0,1-.819-2.715,15.275,15.275,0,0,1-.079-2.11,67.534,67.534,0,0,1,1.4-16.859,23.659,23.659,0,0,1,9.018-14.018,9.249,9.249,0,0,1,1.13-2.881l4.944-9.078q-8.065-12.144-15.586-24.664L328.5,165.837c-2.772,2.129-3.73,5.678-4.753,9.442-.1.378-.223.765-.33,1.153a12.827,12.827,0,0,1,4.177,5.194,12.367,12.367,0,0,1,.958,6.511A10.755,10.755,0,0,1,318.3,198.23a11.566,11.566,0,0,1-7.53-2.339,11.8,11.8,0,0,1-4.367-6.629c-.112-.46-.2-.94-.274-1.421a13.6,13.6,0,0,1,.2-4.471c1.526-7.478,7.219-9.885,12.265-9.049a10.786,10.786,0,0,1,1.154.271l.149-.539c1.149-4.2,2.33-8.553,6.112-11.469l2-1.52-7.237-3.069a8.785,8.785,0,0,1-1.409,3.026,11,11,0,0,1-4.4,3.388,11.349,11.349,0,0,1-5.558.834A7.245,7.245,0,0,1,305.623,164a7.978,7.978,0,0,1-2.526-3.265,14.581,14.581,0,0,1-1.251-4.251,10.533,10.533,0,0,1,1.451-7.142,8.841,8.841,0,0,1,3.451-3.013,9.133,9.133,0,0,1,4.535-.917,10.407,10.407,0,0,1,5.158,1.8,10.638,10.638,0,0,1,3.581,4.178,11.011,11.011,0,0,1,.8,2.3l10.758,4.612,16.335-12.555q-10.653-18.04-20.018-36.708c-.689,4.578-4.6,11.837-5.679,13.611a15.284,15.284,0,0,1-3.837,4.49,7.387,7.387,0,0,1-2.646,1.339,7.61,7.61,0,0,1-2.991.2,8.6,8.6,0,0,1-4.4-2.458,8.106,8.106,0,0,1-1.888-2.682,7.474,7.474,0,0,1-.423-3.075,7.163,7.163,0,0,1,.875-2.933,15.187,15.187,0,0,1,3.925-4.618c1.944-1.641,11.079-8.1,15.232-7.88a599.426,599.426,0,0,1-33.223-81.757,1.931,1.931,0,0,1,1.479-2.5,2.042,2.042,0,0,1,1.423.258,2.105,2.105,0,0,1,.921,1.138q6.5,20.186,14.535,40a1.854,1.854,0,0,1,.814-.119l12.725.667a6.6,6.6,0,0,1,2.158-2.113c.237-.233.54-.4.786-.6a9.391,9.391,0,0,1,5.721-1.906c2.67-.187,5.344-.156,7.842-.109,5.977.122,12.056.823,16.065,5.063a7.888,7.888,0,0,1,2.284,7.246,13.923,13.923,0,0,1-2.409,6.007,13.726,13.726,0,0,1-4.842,4.235,14.126,14.126,0,0,1-6.293,1.6,14.8,14.8,0,0,1-6.456-1.365,21.786,21.786,0,0,1-6.219-4.595,52.1,52.1,0,0,1-7.735-9.419l-12.888-.618q5.407,13.081,11.4,25.917c2.256.878,4.512,1.755,6.758,2.578a89.6,89.6,0,0,0,35.483,4.471,31.712,31.712,0,0,0-1.9-9.463,4.334,4.334,0,0,1-.414-1.864,4.193,4.193,0,0,1,.423-1.83,3.786,3.786,0,0,1,1.977-1.543A60.06,60.06,0,0,1,363.85,63.4c.125-2.2.549-4.918,2.674-6.522a6.254,6.254,0,0,1,3.377-1.071,6.6,6.6,0,0,1,3.488.913,11.027,11.027,0,0,1,4.186,4.55,24.892,24.892,0,0,1,2.767,13.214c-.07,1.628-.191,3.1-.353,4.511a28.919,28.919,0,0,1,8.563-6.359,10.85,10.85,0,0,1,6.814-1.115A6.958,6.958,0,0,1,401,77.261Zm-21.568,82.5a12.572,12.572,0,0,0,4.954,4.408,12.107,12.107,0,0,0,6.442,1.219,11.464,11.464,0,0,0,5.991-2.338,11.327,11.327,0,0,0,3.749-5.193,5.385,5.385,0,0,0,.363-2.413,2.183,2.183,0,0,0-.3-.889c-1.009-1.549-4.181-1.05-5.493-.772a99.181,99.181,0,0,0-16.121,5.335Zm45.526,5.249a5.4,5.4,0,0,0,2.5-.269,5.2,5.2,0,0,0,2.074-1.365,6.517,6.517,0,0,0,1.567-2.583,6.828,6.828,0,0,0,.247-3.05,4.508,4.508,0,0,0-3.223-3.675,6.311,6.311,0,0,0-3.428-.006,6.019,6.019,0,0,0-2.861,1.787,6.11,6.11,0,0,0-1.4,2.558,5.082,5.082,0,0,0,0,2.135,5.293,5.293,0,0,0,.884,1.975,5.728,5.728,0,0,0,1.577,1.62,5.622,5.622,0,0,0,2.07.872Zm9.056,25.9a23.833,23.833,0,0,0,4.256,4,7.191,7.191,0,0,0,2.8,1.642,4.326,4.326,0,0,0,2.065-.5,4.229,4.229,0,0,0,1.549-1.42,12.4,12.4,0,0,0,2.335-9.107,9.339,9.339,0,0,0-2-4.869,5.332,5.332,0,0,0-1.986-1.654,5.194,5.194,0,0,0-2.507-.513,9.446,9.446,0,0,0-3.977,1.584,9.294,9.294,0,0,0-2.837,3.172,8.292,8.292,0,0,0-1.288,3.192,6.721,6.721,0,0,0,1.6,4.478Zm-22.418,77.836a6.369,6.369,0,0,0,3.726-2.863c3.223-4.627,3.27-10.657,2.7-15.008l-.047-.349A36.329,36.329,0,0,0,416,242.6a77.949,77.949,0,0,1-.339,13.063,30.561,30.561,0,0,1-4.488,13.166c.1-.074.26-.058.423-.086Zm-4-1.1a7.1,7.1,0,0,0,2.344,1.032,29.029,29.029,0,0,0,4.726-13.181,89.7,89.7,0,0,0,.26-15,.586.586,0,0,1,.065-.216,32.1,32.1,0,0,0-2.107-3.742c-3.856,8.032-7.437,16.365-8.223,25.439a19.734,19.734,0,0,0-.056,2.466,10.238,10.238,0,0,0,2.99,3.2Zm-1.614-25.016c-1.67,4.4-3.4,8.936-3.516,13.659a16.207,16.207,0,0,0,1.126,6.28l.037-.673c.791-9.388,4.674-18.257,8.554-26.267-.726-1.041-1.493-2.063-2.382-3.119Zm-45.39-52.472a20.789,20.789,0,0,0-6.191,10.782,65.206,65.206,0,0,0-1.293,15.927c0,.706-.009,2.858.819,3.359.614.365,1.935-.186,3.139-1.3a22.433,22.433,0,0,0,5.665-8.964,23.361,23.361,0,0,0,.977-10.695,22.845,22.845,0,0,0-2.963-8.753Zm-39.953-10.909a.515.515,0,0,1-.186-.016,1.936,1.936,0,0,1-.712-.443,8.626,8.626,0,0,0-1.721-.5c-2.87-.514-6.628.74-7.707,6a9.021,9.021,0,0,0,.033,4.065A7.577,7.577,0,0,0,313.2,192.4a7.412,7.412,0,0,0,4.7,1.413,6.895,6.895,0,0,0,6.563-6.159,8.227,8.227,0,0,0-.647-4.718,8.582,8.582,0,0,0-3.144-3.657Zm-9.479-29.885a5.255,5.255,0,0,0-2.554.532,5.146,5.146,0,0,0-1.949,1.691,7.732,7.732,0,0,0-.9,3.72,8.1,8.1,0,0,0,.972,3.769,3.917,3.917,0,0,0,1.13,1.607,3.3,3.3,0,0,0,1.73.494,7.468,7.468,0,0,0,3.614-.505,7.182,7.182,0,0,0,2.893-2.151,5.05,5.05,0,0,0,.944-2.677,5.362,5.362,0,0,0-.628-2.823,6.457,6.457,0,0,0-2.144-2.507,6.337,6.337,0,0,0-3.079-1.115Zm44.3-81.261-.065-.415a4.858,4.858,0,0,0-1.149-1.836c-3.163-3.228-8.423-3.656-13.14-3.743-2.4-.056-4.977-.094-7.46.087a6.256,6.256,0,0,0-3.479.98,9.645,9.645,0,0,1-1.028.787.892.892,0,0,1-.14.137,83.311,83.311,0,0,1,26.553,4.637,4.178,4.178,0,0,0-.093-.633Zm-19.488,5.372a17.88,17.88,0,0,0,4.986,3.746,10.96,10.96,0,0,0,4.665.958,10.5,10.5,0,0,0,4.558-1.127,9.408,9.408,0,0,0,1.814-1.253,128.708,128.708,0,0,1-21.163-8.084,62.632,62.632,0,0,0,5.186,5.805Zm-5.8-6.67a.476.476,0,0,1,.279-.234.5.5,0,0,1,.372.034,126.243,126.243,0,0,0,22,8.4,10.311,10.311,0,0,0,2.586-5.318,81.779,81.779,0,0,0-26.4-4.589c.381.587.767,1.173,1.209,1.751Zm58.172,37.177q3.691.081,7.377-.046a10.9,10.9,0,0,0,4.065-.7,2.531,2.531,0,0,0,1.079-.8,2.586,2.586,0,0,0,.535-1.241,2.615,2.615,0,0,0-.4-1.1,2.7,2.7,0,0,0-.837-.826,9.406,9.406,0,0,0-3.246-1.329A44.526,44.526,0,0,0,384.9,96.462l-1.2.021-.14.007a19.562,19.562,0,0,1-.223,3.46,29.279,29.279,0,0,1-.581,3.048l1.339.743a13.232,13.232,0,0,0,3.1.249Zm-4.926,12.676c.525.536,1.158,1.053,1.619,1.5l10.828,10.656A6.534,6.534,0,0,0,397.6,130.2a1.06,1.06,0,0,0,.586.082c.065-.064.163-.333.065-1.379a26.307,26.307,0,0,0-2.535-10.263c-2.6-4.81-7.409-8.072-13.13-11.23a7.58,7.58,0,0,1-1.1-.5c-.214.581-.451,1.161-.707,1.719a12.173,12.173,0,0,1-1.684,2.594c.507,1.959,2.465,3.763,4.381,5.5ZM369.58,127.681a20.336,20.336,0,0,0-2,8.138c.1,2.252,1.516,4.845,3.642,5.328a4.771,4.771,0,0,0,2.409-.273,4.567,4.567,0,0,0,1.93-1.421,11.522,11.522,0,0,0,2.381-5.379,29.171,29.171,0,0,0-.651-14.525c-.2-.679-.423-1.337-.656-2.007-.367-1.064-.726-2.161-1.116-3.291a9.045,9.045,0,0,1-1.256.574c-1.33,4.353-2.916,8.6-4.618,12.923Zm-1.4-39.5.088.242a36.224,36.224,0,0,1,2.13,14.413l-.107,1.464a17.342,17.342,0,0,0,.037,4.63c.167.841.581,2.276,1.419,2.4,1.526.216,4.428-2.149,5.484-4.413a27.079,27.079,0,0,0,2.219-7.632,14.9,14.9,0,0,0,.1-4.018l-.07-.35s-.051-.056-.074-.078l-.056-.056-.079-.491a8.572,8.572,0,0,0-1.568-3.208,8.671,8.671,0,0,0-2.735-2.313,8.45,8.45,0,0,0-3.4-1,8.137,8.137,0,0,0-3.465.5Zm5.935-25.035a7.181,7.181,0,0,0-2.544-2.9,2.6,2.6,0,0,0-1.284-.394,2.468,2.468,0,0,0-1.279.3c-.856.64-1.046,2.275-1.111,3.61A55.968,55.968,0,0,0,370.45,83.62a12.958,12.958,0,0,1,4.544.691,47.939,47.939,0,0,0,1.4-10.143,20.854,20.854,0,0,0-2.284-11.017Zm20.609,12.394a7.2,7.2,0,0,0-4.372.824c-4.642,2.143-8.256,6.3-11.442,10.169a13.207,13.207,0,0,1,3.846,5.3,46.7,46.7,0,0,0,7.772-4.751,16.048,16.048,0,0,0,6.223-8.01A3.641,3.641,0,0,0,397,77.564h0a2.81,2.81,0,0,0-.842-1.318,2.764,2.764,0,0,0-1.414-.658Z" transform="translate(1068.863 75.754)" fill="#cacaca"/><path d="M339.961,64.228c3.809-.057,7.754-.068,11.3,1.476s6.568,5.083,6.251,8.877A8.267,8.267,0,0,1,356,78.343a8.157,8.157,0,0,1-3.1,2.576,17.09,17.09,0,0,1-8,1.582c-6.214-.02-20.977-2.526-24.074-9.262C316.571,64.026,334.994,64.3,339.961,64.228Z" transform="translate(1169.067 234.439)" fill="#cacaca"/></g></svg>