<svg xmlns="http://www.w3.org/2000/svg" width="249.459" height="250" viewBox="0 0 249.459 250">
  <g id="Group_1615" data-name="Group 1615" transform="translate(-503 -2144)">
    <g id="background2" transform="translate(503 2144)">
      <circle id="Ellipse_534" data-name="Ellipse 534" cx="124.73" cy="124.73" r="124.73" fill="rgba(79,19,76,0.05)"/>
      <circle id="Ellipse_535" data-name="Ellipse 535" cx="99.73" cy="99.73" r="99.73" transform="translate(25 25)" fill="rgba(79,19,76,0.05)"/>
    </g>
    <g id="undraw_wedding_t1yl_5_" data-name="undraw_wedding_t1yl (5)" transform="translate(563.187 2144.541)">
      <path id="Path_1230" data-name="Path 1230" d="M278.4,746.621a3.7,3.7,0,0,0,.606,2.123c1.31,2.146,3.941,3.151,6.444,3.339s5.012-.3,7.515-.418c.752-.033,1.5-.038,2.25-.08,3.889-.235,7.6-1.611,11.273-2.973.6-.221,1.3-.578,1.334-1.212a1.489,1.489,0,0,0-.62-1.109,6.371,6.371,0,0,0-1.6-1.024c-2.038-.9-4.481-.662-6.416-1.766-.427-.244-.817-.545-1.263-.747a5.393,5.393,0,0,0-1.635-.376,25.006,25.006,0,0,0-7.271.24,50.808,50.808,0,0,1-5.481,1.005,7,7,0,0,1-2.1-.136c-.47-.108-1.066-.531-1.512-.249s-.7,1.179-.907,1.578A4.588,4.588,0,0,0,278.4,746.621Z" transform="translate(-270.723 -520.661)" fill="#3f3d56"/>
      <path id="Path_1231" data-name="Path 1231" d="M278.4,746.621a3.7,3.7,0,0,0,.606,2.123c1.31,2.146,3.941,3.151,6.444,3.339s5.012-.3,7.515-.418c.752-.033,1.5-.038,2.25-.08,3.889-.235,7.6-1.611,11.273-2.973.6-.221,1.3-.578,1.334-1.212a1.489,1.489,0,0,0-.62-1.109,6.371,6.371,0,0,0-1.6-1.024c-2.038-.9-4.481-.662-6.416-1.766-.427-.244-.817-.545-1.263-.747a5.393,5.393,0,0,0-1.635-.376,25.006,25.006,0,0,0-7.271.24,50.808,50.808,0,0,1-5.481,1.005,7,7,0,0,1-2.1-.136c-.47-.108-1.066-.531-1.512-.249s-.7,1.179-.907,1.578A4.588,4.588,0,0,0,278.4,746.621Z" transform="translate(-270.723 -520.661)" opacity="0.05"/>
      <path id="Path_1232" data-name="Path 1232" d="M309.718,754.118a3.663,3.663,0,0,0,.606,2.123c1.31,2.146,3.936,3.152,6.444,3.34s5.012-.3,7.515-.418c.751-.033,1.5-.037,2.25-.08,3.889-.235,7.6-1.611,11.273-2.973.6-.225,1.3-.578,1.334-1.217a1.48,1.48,0,0,0-.62-1.1,6.254,6.254,0,0,0-1.6-1.024c-2.038-.9-4.481-.667-6.416-1.771-.427-.24-.817-.545-1.264-.742a5.534,5.534,0,0,0-1.634-.38,24.991,24.991,0,0,0-7.271.244,49.673,49.673,0,0,1-5.481,1,6.839,6.839,0,0,1-2.1-.131c-.47-.108-1.066-.531-1.512-.249s-.7,1.179-.907,1.578A4.517,4.517,0,0,0,309.718,754.118Z" transform="translate(-287.331 -524.635)" fill="#3f3d56"/>
      <path id="Path_1233" data-name="Path 1233" d="M284.8,383.252a2.468,2.468,0,0,0-.892-1.174c-.982-.545-2.142.47-2.569,1.489s-.568,2.269-1.409,3.006c-.512.47-1.216.639-1.743,1.08-1.174.991-1.057,2.818-.78,4.321,1.038,5.636,2.856,11.113,3.579,16.792a59.523,59.523,0,0,0,.939,6.67,6.292,6.292,0,0,0,1.879,3.429,2.861,2.861,0,0,0,3.64.127,41.742,41.742,0,0,1-2.579-14.819c.028-3.288.47-6.576.559-9.9.1-2.9-.047-5.81-.193-8.713a5.416,5.416,0,0,0-.414-2.175,1.879,1.879,0,0,0-1.771-1.113" transform="translate(-270.102 -329.598)" fill="#fbbebe"/>
      <circle id="Ellipse_102" data-name="Ellipse 102" cx="11.822" cy="11.822" r="11.822" transform="translate(23.97 7.901)" fill="#cb8c8e"/>
      <circle id="Ellipse_103" data-name="Ellipse 103" cx="11.86" cy="11.86" r="11.86" transform="translate(39.864 31.546)" fill="#fbbebe"/>
      <path id="Path_1234" data-name="Path 1234" d="M365.481,383.247c.1.939.47,2.034,1.367,2.273a10.038,10.038,0,0,0,1.254.071,2.138,2.138,0,0,1,1.545,1.193,3.827,3.827,0,0,1,.324,1.987,6.257,6.257,0,0,1-.968,2.9,8.336,8.336,0,0,1-4.349,3.185,23.438,23.438,0,0,1-5.383.991,6.432,6.432,0,0,1-2.438-.075,5.172,5.172,0,0,1-1.409-.714,13.9,13.9,0,0,1-3.462-3.316,8.313,8.313,0,0,1-1.489-3.048,4.585,4.585,0,0,1,.437-3.288,1.619,1.619,0,0,1,.789-.747c1.005-.362,1.916.883,2.983.911a2.3,2.3,0,0,0,1.879-1.484,10.02,10.02,0,0,1,1.1-2.264,4.874,4.874,0,0,1,2.583-1.343,16.17,16.17,0,0,1,5.261-.864c.9.089.31.625.1,1.273A5.711,5.711,0,0,0,365.481,383.247Z" transform="translate(-308.876 -328.357)" fill="#fbbebe"/>
      <path id="Path_1235" data-name="Path 1235" d="M357.588,403.183c1.442-.648,2.241-2.212,3.527-3.138a16.532,16.532,0,0,1,3.664-1.545,10.69,10.69,0,0,0,3.382-2.161,9.2,9.2,0,0,1,2.818-2.292,4.386,4.386,0,0,1,2.659,0,9,9,0,0,1,5.4,4.983,26.8,26.8,0,0,1,1.917,7.309l.611,3.758a34.522,34.522,0,0,1,.653,6.97,11.6,11.6,0,0,1-2.132,6.576,12.826,12.826,0,0,0-1.357,2.607,3.975,3.975,0,0,0-.4,1.334,7.315,7.315,0,0,0,.108,1.188c.2,2.02-.939,3.9-1.381,5.885a16.958,16.958,0,0,0-.207,4.025.988.988,0,0,0,.1.507.941.941,0,0,0,.4.319c.31.164.629.319.94.47a35.2,35.2,0,0,1-7.9.836c-4.655-.108-9.2-1.409-13.823-1.949-.174-2.123.409-4.171.54-6.294a25.52,25.52,0,0,0-.258-4.143,50.268,50.268,0,0,1,.108-11.273c.16-1.315.376-2.626.437-3.95.07-1.569-.07-3.142.042-4.7.108-1.489.47-2.964.507-4.458A.77.77,0,0,0,357.588,403.183Z" transform="translate(-312.163 -335.916)" fill="#f4f6fb"/>
      <path id="Path_1236" data-name="Path 1236" d="M312.726,482.589c4.866.028,9.155.169,14.007.5.855,1.409-1.193,5.209-.033,6.374,6.651,6.665,8.131,15.622,15.852,21.019,1.6,1.118,6.106,2.024,7.515,3.405,1.1,1.095-.582.315.235,1.644,4.7,7.665,15.289,15.232,21.428,21.822,5.2,5.585,7.985,13.034,11.057,20.028,1.841,4.185,2.818,8.7,4.227,13.053s3.349,8.69,6.693,11.808c2.546,2.377,5.914,4.077,7.421,7.21a30.022,30.022,0,0,1,1.1,3.1,15.5,15.5,0,0,0,11.076,9.765c1.367.3.742,2.579.883,3.974.193,1.907,1.916,3.26,3.6,4.176A25.205,25.205,0,0,0,426,613.237c1.766.268,3.852.531,4.7,2.1a3.51,3.51,0,0,1,.38,1.776c-.061,3.147-3.006,5.636-6.106,6.256s-6.266-.216-9.281-1.113a3.489,3.489,0,0,0-1.658-.221,4.129,4.129,0,0,0-2.006,1.55,13.691,13.691,0,0,1-14.781,3.518c-1.635-.639-3.185-1.611-4.932-1.776-2.7-.253-5.134,1.438-7.454,2.818s-5.251,2.565-7.642,1.3a7.609,7.609,0,0,0-2.349-1.193c-1.3-.15-2.461.977-3.758.939-1.456-.028-2.456-1.409-3.429-2.489a12.711,12.711,0,0,0-7.562-4.035,3.554,3.554,0,0,0-1.649.047,4.637,4.637,0,0,0-1.658,1.212c-1.282,1.226-2.875,2.349-4.646,2.273-3.866-.136-6.162-5.6-10.009-5.223-5.016-2.349-11.226-1.137-16.726-.47s-11.592.859-16-2.5c-2.32-1.776-3.894-4.354-6.059-6.322-3.419-3.109-8.032-4.467-12.48-5.735-7.046-2.011-14.363-4.039-21.606-2.945a16.093,16.093,0,0,1-3.927.343,3.637,3.637,0,0,1-3.114-2.1,4.1,4.1,0,0,1-.131-1.954c.681-5.317,5.721-9.31,6.364-14.631a16.376,16.376,0,0,1,3.255-7.135,61.566,61.566,0,0,0,3.518-6.064,126.638,126.638,0,0,0,6.9-14.354,124.435,124.435,0,0,0,4.528-16.116c1.221-5.247,1.8-10.62,2.682-15.937.639-3.866,1.639-7.661,2.64-11.451,2.959-11.2,5.937-22.461,10.8-32.964C305.981,481.532,309.471,482.57,312.726,482.589Z" transform="translate(-262.058 -381.946)" fill="#e3e8f4"/>
      <path id="Path_1237" data-name="Path 1237" d="M312.726,485.589c4.866.028,9.155-.3,14.007.033a27.366,27.366,0,0,0,3.823,4.194c6.651,6.674,11.592,15.129,19.31,20.521a33.826,33.826,0,0,1,4.7,3.485,19.551,19.551,0,0,1,2.785,3.758c4.7,7.67,8.224,16.2,14.364,22.795,5.2,5.585,7.985,13.034,11.057,20.028,1.841,4.185,2.818,8.7,4.227,13.053s3.349,8.69,6.693,11.808c2.546,2.377,5.914,4.077,7.421,7.21a30.019,30.019,0,0,1,1.1,3.1,15.5,15.5,0,0,0,11.076,9.765c1.367.3.742,2.579.883,3.974.193,1.907,1.917,3.26,3.6,4.175a25.205,25.205,0,0,0,8.215,2.767c1.766.268,3.852.531,4.7,2.095a3.508,3.508,0,0,1,.38,1.775c-.061,3.147-3.006,5.637-6.106,6.257s-6.266-.216-9.281-1.113a3.494,3.494,0,0,0-1.658-.221,4.128,4.128,0,0,0-2.006,1.55,13.693,13.693,0,0,1-14.781,3.518c-1.635-.639-3.185-1.611-4.932-1.776-2.7-.253-5.134,1.437-7.454,2.818s-5.251,2.565-7.642,1.3a7.6,7.6,0,0,0-2.349-1.193c-1.3-.15-2.461.977-3.757.939-1.456-.028-2.457-1.409-3.429-2.49a12.71,12.71,0,0,0-7.543-4.053,3.55,3.55,0,0,0-1.649.047,4.638,4.638,0,0,0-1.658,1.212c-1.282,1.226-2.875,2.349-4.646,2.273-3.866-.136-6.162-5.6-10.009-5.223-5.016-2.349-11.226-1.137-16.726-.47s-11.592.859-16-2.5c-2.32-1.776-3.894-4.354-6.059-6.322-3.419-3.109-8.032-4.467-12.48-5.735-7.046-2.01-14.363-4.039-21.606-2.945a16.09,16.09,0,0,1-3.927.343,3.638,3.638,0,0,1-3.114-2.1,4.1,4.1,0,0,1-.131-1.954c.681-5.317,5.721-9.31,6.364-14.631a16.376,16.376,0,0,1,3.255-7.135,61.558,61.558,0,0,0,3.518-6.064,126.648,126.648,0,0,0,6.9-14.354,124.422,124.422,0,0,0,4.528-16.115c1.221-5.247,1.8-10.62,2.682-15.937.639-3.866,1.639-7.661,2.64-11.451,2.959-11.2,5.937-22.461,10.8-32.964C305.981,484.532,309.471,485.57,312.726,485.589Z" transform="translate(-262.058 -383.537)" fill="#e3e8f4"/>
      <path id="Path_1238" data-name="Path 1238" d="M312.726,483.589c4.866.028,9.155-.3,14.007.033a27.366,27.366,0,0,0,3.823,4.194c6.651,6.674,11.592,15.129,19.31,20.521a33.782,33.782,0,0,1,4.7,3.485,19.551,19.551,0,0,1,2.785,3.758c4.7,7.67,8.224,16.205,14.364,22.795,5.2,5.585,7.985,13.034,11.057,20.028,1.841,4.185,2.818,8.7,4.227,13.053s3.349,8.689,6.693,11.808c2.546,2.377,5.914,4.077,7.421,7.21a30.026,30.026,0,0,1,1.1,3.1,15.5,15.5,0,0,0,11.076,9.765c1.367.3.742,2.579.883,3.974.193,1.907,1.917,3.26,3.6,4.175a25.211,25.211,0,0,0,8.215,2.767c1.766.268,3.852.531,4.7,2.1a3.507,3.507,0,0,1,.38,1.775c-.061,3.147-3.006,5.636-6.106,6.256s-6.266-.216-9.281-1.113a3.49,3.49,0,0,0-1.658-.221,4.128,4.128,0,0,0-2.006,1.55,13.692,13.692,0,0,1-14.781,3.518c-1.635-.639-3.185-1.611-4.932-1.775-2.7-.254-5.134,1.437-7.454,2.818s-5.251,2.565-7.642,1.3a7.6,7.6,0,0,0-2.349-1.193c-1.3-.15-2.461.977-3.757.939-1.456-.028-2.457-1.409-3.429-2.489a12.711,12.711,0,0,0-7.543-4.054,3.544,3.544,0,0,0-1.649.047,4.636,4.636,0,0,0-1.658,1.212c-1.282,1.226-2.875,2.349-4.646,2.273-3.866-.136-6.162-5.6-10.009-5.223-5.016-2.349-11.226-1.137-16.726-.47s-11.592.86-16-2.5c-2.32-1.776-3.894-4.354-6.059-6.322-3.419-3.109-8.032-4.467-12.48-5.735-7.046-2.01-14.363-4.039-21.606-2.945a16.08,16.08,0,0,1-3.927.343,3.636,3.636,0,0,1-3.114-2.095,4.1,4.1,0,0,1-.131-1.954c.681-5.317,5.721-9.31,6.364-14.631a16.377,16.377,0,0,1,3.255-7.135,61.529,61.529,0,0,0,3.518-6.064,126.647,126.647,0,0,0,6.9-14.354,124.416,124.416,0,0,0,4.528-16.116c1.221-5.246,1.8-10.62,2.682-15.937.639-3.866,1.639-7.661,2.64-11.451,2.959-11.2,5.937-22.461,10.8-32.964C305.981,482.532,309.471,483.57,312.726,483.589Z" transform="translate(-262.058 -382.476)" fill="#f4f6fb"/>
      <path id="Path_1239" data-name="Path 1239" d="M278.138,531.68c-1.55,1.7-1.2,4.392-.291,6.5s2.283,4.087,2.536,6.369c.085.761.038,1.531.169,2.287.1.545.282,1.066.423,1.6a18.075,18.075,0,0,1,.395,2.057c.5,3.344.836,6.717,1.015,10.1.258,4.782.193,9.577.127,14.368-.094,6.7-3.288,12.978-4.843,19.5a16.867,16.867,0,0,0-.536,3.081,20.059,20.059,0,0,0,.409,4.129,67.765,67.765,0,0,1-.822,25.73,5.1,5.1,0,0,1,2.053,4.725c3.03.531,6.2,1.052,9.117.089,1.761-.578,3.344-1.677,5.167-2.02,1.409-.258,3.039-.127,4.035-1.151a4.288,4.288,0,0,0,.864-1.644c3.438-10,2.475-20.9,2.283-31.47-.1-5.683,0-11.371-.216-17.05a132.022,132.022,0,0,0-4.735-29.93c-1.315-4.7-2.583-9.394-5.167-13.56a7.084,7.084,0,0,0-2.151-2.424,8,8,0,0,0-3.316-.878C282.258,531.83,280.534,531.953,278.138,531.68Z" transform="translate(-269.833 -409.012)" fill="#3f3d56"/>
      <path id="Path_1240" data-name="Path 1240" d="M297.955,627.4a4.3,4.3,0,0,1-.864,1.639c-1,1.029-2.63.892-4.035,1.155-.178.033-.357.075-.531.122-1.6.427-3.048,1.371-4.631,1.879-2.922.94-6.106.442-9.122-.089a5.109,5.109,0,0,0-2.053-4.73,67.744,67.744,0,0,0,.827-25.726,19.732,19.732,0,0,1-.414-4.129,17.2,17.2,0,0,1,.536-3.081c1.545-6.524,4.749-12.8,4.843-19.5.066-4.791.131-9.586-.122-14.368q-.277-5.073-1.019-10.1a19.132,19.132,0,0,0-.39-2.057c-.146-.531-.329-1.057-.423-1.6-.136-.752-.089-1.527-.174-2.287-.254-2.283-1.625-4.256-2.536-6.364a9.426,9.426,0,0,1-.733-2.734,4.7,4.7,0,0,1,1.024-3.758c1.611.178,2.912.174,4.321.235.69.028,1.409.075,2.194.164a7.842,7.842,0,0,1,3.321.878,7.043,7.043,0,0,1,2.147,2.424c.254.409.493.822.723,1.24,2.109,3.838,3.26,8.065,4.443,12.315a132.072,132.072,0,0,1,4.735,29.93c.239,5.679.113,11.367.216,17.055C300.435,606.508,301.393,617.391,297.955,627.4Z" transform="translate(-269.833 -409.007)" opacity="0.05"/>
      <path id="Path_1241" data-name="Path 1241" d="M321.319,534.656v2.471q-.033,11.9-.061,23.8a94.438,94.438,0,0,1-.338,9.784c-.831,8.455-3.922,16.641-3.593,25.105.235,6.149.47,12.367-.766,18.4-.47,2.311-1.155,4.584-1.494,6.919a13.063,13.063,0,0,0,.625,6.97c.667,1.555,1.79,3.025,1.729,4.7a4.608,4.608,0,0,1-2.222,3.513,10.56,10.56,0,0,1-4.068,1.357,31.217,31.217,0,0,1-5.416.418c-2.6-.028-5.557-.6-6.9-2.818a6.7,6.7,0,0,1-.4-5.087c.052-.2.1-.39.16-.583.441-1.479,1.071-2.9,1.409-4.406a12.264,12.264,0,0,0-.5-7.126c-.16-.423-.662-1.221-1.113-1.169a19.158,19.158,0,0,1-.939-5.876l-.662-13.48a34.755,34.755,0,0,1,.319-8.783c.47-2.349,1.47-4.584,1.752-6.966a23.041,23.041,0,0,0-.024-4.3,190.8,190.8,0,0,0-2.856-21.949,2.63,2.63,0,0,0-.362-1.043c-.31-.432-.85-.634-1.23-1.01-.8-.78-.723-2.053-.911-3.156-.338-1.992-1.658-3.645-2.677-5.383a19.726,19.726,0,0,1-2.644-9.192,19.281,19.281,0,0,1,.371-4.561c.038-.2.085-.4.131-.606a122.84,122.84,0,0,1,30.6,1.878,2.5,2.5,0,0,1,1.907,1.015,2.542,2.542,0,0,1,.179,1.165Z" transform="translate(-275.879 -408.306)" fill="#3f3d56"/>
      <path id="Path_1242" data-name="Path 1242" d="M473.731,604.32c5.054,8.9,10.127,17.811,14.147,27.219,3.264,7.633,5.942,15.763,11.418,22,5.129,5.838,12.212,9.483,19.168,12.992l-6.228-5.486c-6.252-5.519-12.635-11.193-16.6-18.525-2.161-3.992-3.532-8.356-5.167-12.607a115.609,115.609,0,0,0-17.205-30.362A85.7,85.7,0,0,0,466.78,592C468.372,596.227,471.486,600.375,473.731,604.32Z" transform="translate(-370.622 -441)" fill="#e3e8f4"/>
      <path id="Path_1243" data-name="Path 1243" d="M422.915,735.67a37.738,37.738,0,0,0,5.392,8.9c.2-1.55-.864-2.94-1.705-4.255a36.416,36.416,0,0,1-3.372-7.745c-.855-2.466-1.649-5.866-3.466-7.816C418.833,728.094,421.506,732.8,422.915,735.67Z" transform="translate(-345.587 -511.396)" fill="#e3e8f4"/>
      <path id="Path_1244" data-name="Path 1244" d="M376.239,595.11c.442,2.349.7,4.7,1.292,6.994a49.888,49.888,0,0,0,2.137,6.059l9.9,24.678c-.085-3.354-1.879-6.388-3.02-9.535-1.409-3.866-1.916-7.985-3.067-11.959-.939-3.222-2.3-6.3-3.288-9.507-1.371-4.523-1.949-9.249-3.025-13.852a101.263,101.263,0,0,0-3.631-11.742,11.448,11.448,0,0,0-2.86-4.951c-1.452-1.254-3.885-1.611-5.256-.254-1.93,1.912,1,3.109,1.959,4.354a46.7,46.7,0,0,1,8.849,19.727Z" transform="translate(-316.53 -429.427)" fill="#e3e8f4"/>
      <path id="Path_1245" data-name="Path 1245" d="M409.331,507.943a9.01,9.01,0,0,1,1.362,1.766,24.219,24.219,0,0,0,1.409,3.025,29.559,29.559,0,0,0-4-4.547c-.9-.775-1.879-1.442-2.785-2.217-.69-.592-3.715-3.156-3.114-4.03C404.85,503.288,407.316,505.768,409.331,507.943Z" transform="translate(-336.334 -393.241)" fill="#e3e8f4"/>
      <path id="Path_1246" data-name="Path 1246" d="M328.389,319.73a6.759,6.759,0,0,1-1.217,2.649,16.951,16.951,0,0,0-2.419,8.2,16.445,16.445,0,0,0,.113,2.541c.038.315.047.709-.225.874a.789.789,0,0,1-.47.061c-.319-.028-.629-.066-.939-.117-5.021-.8-9.417-4.227-14.471-5.092a2.414,2.414,0,0,0,1.292-1.527,6.874,6.874,0,0,0,.305-1.165c.075-.418.131-.836.174-1.245.319-3.025-.141-5.806-.31-8.877-.193-3.579,4.227-2.4,6.82-2.447a21.5,21.5,0,0,1,6.21.493,7.283,7.283,0,0,1,4.786,3.706A3.757,3.757,0,0,1,328.389,319.73Z" transform="translate(-286.824 -293.276)" fill="#cb8c8e"/>
      <path id="Path_1247" data-name="Path 1247" d="M326.1,346.7a.79.79,0,0,1-.47.061c-.319-.028-.629-.066-.94-.117-.432-.4-.85-.827-1.249-1.268a27.438,27.438,0,0,0-2.875-3.076,9.976,9.976,0,0,0-5.871-2.095,19.3,19.3,0,0,1-3.185-.178,6.874,6.874,0,0,0,.305-1.165c.075-.418.132-.836.174-1.245a15.718,15.718,0,0,1,1.775-.127,8.533,8.533,0,0,1,2.1-.042,10.747,10.747,0,0,1,3.227,1.362,38.4,38.4,0,0,1,4.326,2.236c.413.291.808.61,1.2.939.536.437,1.066.878,1.6,1.31a16.435,16.435,0,0,0,.113,2.541C326.362,346.138,326.371,346.537,326.1,346.7Z" transform="translate(-288.282 -305.987)" fill="#e3e8f4"/>
      <path id="Path_1248" data-name="Path 1248" d="M315.655,534.651v2.471c-1.954.056-3.95.343-5.895.47-1.827.132-3.659.136-5.491.113a15.947,15.947,0,0,1-4.255-.47c-1-.291-1.94-.77-2.936-1.071a14.137,14.137,0,0,0-5.848-.272c-1.616.188-3.246.47-4.857.615a6.515,6.515,0,0,1-3.1-.319,5.732,5.732,0,0,1-.8-.441,10.9,10.9,0,0,0-1.24-.719,7.341,7.341,0,0,0-3.734-.31,4.7,4.7,0,0,1,1.024-3.757c1.611.178,2.912.174,4.321.235.038-.2.085-.4.131-.606a122.848,122.848,0,0,1,30.6,1.878,2.5,2.5,0,0,1,1.907,1.015A2.538,2.538,0,0,1,315.655,534.651Z" transform="translate(-270.215 -408.301)" opacity="0.1"/>
      <path id="Path_1249" data-name="Path 1249" d="M289.673,341.271a4.14,4.14,0,0,0-2.767,1.165,1.411,1.411,0,0,0-.352.756,6.344,6.344,0,0,0,.254,1.3,3.029,3.029,0,0,1-.432,1.616,12.568,12.568,0,0,1-2.555,3.9c-.47.437-1.005.8-1.479,1.226a13.1,13.1,0,0,0-1.48,1.663,10.8,10.8,0,0,0-2.372,4.086c-.634,2.682-1.954,5.214-2.818,7.835a16.949,16.949,0,0,0-.939,8.126c.221,1.287.667,2.522.977,3.79.5,2.034.639,4.138,1.165,6.162.334,1.264.813,2.485,1.174,3.758a20.472,20.472,0,0,1,.625,8.4c-.352,2.569.24,5.3-.8,7.675a28.9,28.9,0,0,1-1.409,2.555,35.7,35.7,0,0,0-1.771,3.758l-2.9,6.839a39.736,39.736,0,0,0-1.517,3.946c-1.207,3.927-1.212,8.112-1.043,12.212a.516.516,0,0,1-.08.366c-.089.094-.291.066-.3-.061-.037.235-.188.644-.221.878,2.466,1.071,5.5-.55,7.957.545.714.319,1.32.85,2.039,1.16a6.465,6.465,0,0,0,3.1.324c3.584-.3,7.262-1.409,10.7-.348,1,.305,1.935.784,2.936,1.076a15.993,15.993,0,0,0,4.26.47c1.832.028,3.664.023,5.491-.113,3.931-.286,8.06-1.146,11.681.413,1.17-.859,1.259-2.193,1.306-3.64q.132-4.086.263-8.168l.972-30.038a30.062,30.062,0,0,0-.23-6.2c-.662-3.72-2.7-7.046-4.7-10.235l-9.342-15.03c-.62-1,0-2.109.427-3.2a20.741,20.741,0,0,0,1.2-4.876,4.374,4.374,0,0,0-.691-3.518,15.036,15.036,0,0,0-1.667-1.24,7.761,7.761,0,0,1-1.719-2.4,15.5,15.5,0,0,0-5.491-5.721A11.613,11.613,0,0,0,289.673,341.271Z" transform="translate(-265.549 -307.968)" fill="#3f3d56"/>
      <path id="Path_1250" data-name="Path 1250" d="M325.9,369.274c-3.321.916-5.378,4.288-6.289,7.609a28.76,28.76,0,0,0,.16,14.288,80.129,80.129,0,0,0,5,13.527,32.495,32.495,0,0,0,1.54,3.147,15.072,15.072,0,0,0,6.9,6.261,12.739,12.739,0,0,0,9.239.409,5.429,5.429,0,0,0,1.55-.789c1.663-1.278,1.921-3.645,2.043-5.74l.418-7.341a3.694,3.694,0,0,0-.056-1.16,4.225,4.225,0,0,0-.85-1.409,17.557,17.557,0,0,1-3.006-5.975,30.36,30.36,0,0,0-1.311-4.533c-.395-.864-.939-1.654-1.367-2.5a23.951,23.951,0,0,1-1.714-5.885q-.578-2.621-1.381-5.19a8.742,8.742,0,0,0-1.2-2.663c-1.292-1.747-3.584-2.377-5.707-2.818a6.577,6.577,0,0,0-3.091-.15,6.831,6.831,0,0,0-2.889,2.062" transform="translate(-292.139 -322.341)" opacity="0.1"/>
      <path id="Path_1251" data-name="Path 1251" d="M326.9,368.274c-3.321.916-5.378,4.288-6.289,7.609a28.758,28.758,0,0,0,.16,14.288,80.121,80.121,0,0,0,5,13.528,32.524,32.524,0,0,0,1.541,3.147,15.073,15.073,0,0,0,6.9,6.261,12.737,12.737,0,0,0,9.239.409,5.439,5.439,0,0,0,1.55-.789c1.663-1.278,1.921-3.645,2.043-5.74l.418-7.341a3.7,3.7,0,0,0-.056-1.16,4.227,4.227,0,0,0-.85-1.409,17.556,17.556,0,0,1-3.006-5.975,30.4,30.4,0,0,0-1.311-4.533c-.394-.864-.939-1.653-1.367-2.5a23.944,23.944,0,0,1-1.714-5.885q-.578-2.621-1.381-5.19a8.75,8.75,0,0,0-1.2-2.663c-1.292-1.747-3.584-2.377-5.707-2.818a6.576,6.576,0,0,0-3.091-.15,6.834,6.834,0,0,0-2.889,2.062" transform="translate(-292.669 -321.81)" fill="#3f3d56"/>
      <path id="Path_1252" data-name="Path 1252" d="M402.7,402.213a11.063,11.063,0,0,1-.62-7.943c1.841.47,2.348,3.185,4.227,3.668.277.07.573.084.855.146a4.824,4.824,0,0,1,2.926,2.583,13.9,13.9,0,0,1,1.954,5.937,9.944,9.944,0,0,1-1.409,6.036c.047-.07-3.288-3.49-3.57-3.842q-.879-1.029-1.719-2.1a15.073,15.073,0,0,1-1.583-2.128c-.16-.3-.192-.648-.333-.968C403.2,403.129,402.927,402.678,402.7,402.213Z" transform="translate(-336.064 -336.144)" fill="#cb8c8e"/>
      <path id="Path_1253" data-name="Path 1253" d="M341.509,436.334a20.522,20.522,0,0,1-5.838,11.916,3.522,3.522,0,0,1-2.621,1.311c-1.085-.113-1.832-1.1-2.607-1.879-1.409-1.409-3.288-2.25-4.852-3.48a24.7,24.7,0,0,1-2.292-2.147,53.354,53.354,0,0,1-6.454-7.435,42.389,42.389,0,0,0-3.156-4.584c-.972-1.1-2.142-2.015-3.166-3.067a7.357,7.357,0,0,1-2.17-3.758c-.258-1.531-1.879-2.527-2.9-3.7a13.039,13.039,0,0,1-2.842-10.888,2.5,2.5,0,0,1,1.3-2.015,2.1,2.1,0,0,1,.968-.061c1.982.277,3.452,1.921,4.735,3.462a28.965,28.965,0,0,1,2.419,3.194,28.358,28.358,0,0,1,2.978,8.4c.409,1.7,2.1,2.95,3.316,4.2l3.053,3.133c.728.747,1.456,1.5,2.254,2.17a29.3,29.3,0,0,0,7.421,4.227,9.419,9.419,0,0,1,1.033-2.4,3.123,3.123,0,0,1,2.1-1.409c1.212-.155,2.32.648,3.288,1.409l3.593,2.818C341.274,435.912,341.537,436.09,341.509,436.334Z" transform="translate(-283.439 -342.638)" fill="#fbbebe"/>
      <path id="Path_1254" data-name="Path 1254" d="M381.34,409.041a5.193,5.193,0,0,1,1.029,1.625,10.672,10.672,0,0,1,1.047,5.3,15.848,15.848,0,0,1-.648,2.9l-1.118,3.847a179.3,179.3,0,0,1-5.829,17.7c-1.93-2.5-5.308-3.26-8.051-4.824a2.27,2.27,0,0,1-.709-.549,2.019,2.019,0,0,1-.352-1.2,8.987,8.987,0,0,1,.742-3.354c1.71-4.589,4.082-9.07,4.359-13.955a26.211,26.211,0,0,1,.174-2.719,7.713,7.713,0,0,1,3.617-5.214A5.05,5.05,0,0,1,381.34,409.041Z" transform="translate(-317.554 -343.376)" opacity="0.1"/>
      <path id="Path_1255" data-name="Path 1255" d="M380.34,406.74a5.256,5.256,0,0,1,1.029,1.625,10.674,10.674,0,0,1,1.047,5.3,15.754,15.754,0,0,1-.648,2.936l-1.118,3.847a179.216,179.216,0,0,1-5.829,17.7c-1.93-2.5-5.307-3.26-8.051-4.824a2.256,2.256,0,0,1-.709-.545,2.044,2.044,0,0,1-.352-1.2,9,9,0,0,1,.742-3.359c1.71-4.589,4.082-9.065,4.359-13.955a26.079,26.079,0,0,1,.174-2.715,7.706,7.706,0,0,1,3.617-5.218A5.029,5.029,0,0,1,380.34,406.74Z" transform="translate(-317.024 -342.165)" fill="#f4f6fb"/>
      <path id="Path_1256" data-name="Path 1256" d="M359.494,334.436a6.5,6.5,0,0,1,1.357,3.814,25,25,0,0,1-.686,10.559,12.711,12.711,0,0,1-6.693,7.882c4.547.737,9.948,1.2,13.029-2.231a9.908,9.908,0,0,1,1.855-1.954c3.264-2.057,7.407,3.368,10.949,1.827,2.348-1.015,2.518-4.19,2.348-6.726l-.643-9.394c-.329-4.8-.747-9.864-3.495-13.79-2.48-3.556-6.543-5.693-10.672-7.046-2.968-.939-6.275-1.555-9.164-.366-3.687,1.512-10.8,7.553-10.761,12.02C347,335.667,356.394,331.158,359.494,334.436Z" transform="translate(-307.06 -294.826)" fill="#3f3d56"/>
      <path id="Path_1257" data-name="Path 1257" d="M368.767,420.543a4.7,4.7,0,0,0,1.559-.2c.8-.3,1.409-1.038,2.269-1.16.432-.061.986,0,1.174-.409a1.626,1.626,0,0,0,.061-.587c.066-1.141,1.5-1.536,2.466-2.146a7.223,7.223,0,0,0,1.6-1.541l3.335-3.941a2.5,2.5,0,0,1,1.268-.963,2.263,2.263,0,0,1,1.649.47,12.884,12.884,0,0,1,5.693,11.949,2.028,2.028,0,0,1-.244.916c-.521.817-1.747.62-2.673.911-1.771.554-2.311,2.851-3.828,3.918-.681.47-1.522.672-2.184,1.16a14.856,14.856,0,0,0-1.771,2.006,11.183,11.183,0,0,1-3.565,2.348l-3.931,1.916a15.446,15.446,0,0,1-2.41,1.005,15.179,15.179,0,0,1-4.378.371l-2.879-.038a1.7,1.7,0,0,1-.939-.188,1.569,1.569,0,0,1-.418-.47,10.333,10.333,0,0,1-1.254-7.708c.437-2.17,1.465-5.167,3.011-6.815C363.722,419.928,366.907,420.581,368.767,420.543Z" transform="translate(-313.534 -344.263)" fill="#3f3d56"/>
      <path id="Path_1258" data-name="Path 1258" d="M324.174,285.94a2.137,2.137,0,0,1,1.085-2.283l3.57-2.682-.733-1.066,1.376-1.179a1,1,0,0,0-1.015-.395c.216-1.451-1.024-2.677-2.2-3.542a15.972,15.972,0,0,0-8.107-3.415c-1.442-.094-2.889.113-4.331,0-1.945-.122-3.833-.78-5.782-.855s-4.138.69-4.955,2.442a23.152,23.152,0,0,0-.658,2.414c-.587,1.757-2.137,2.973-3.457,4.274s-2.546,3.044-2.179,4.857a6.4,6.4,0,0,0,.672,1.667l7.28,14.058a3.236,3.236,0,0,1,2.447-1.686c1.2-.141,2.348.394,3.56.545a5.637,5.637,0,0,0,4.843-1.879c1.606-1.851,2-6.576,4.786-7.046.986-.169,2.565,1.076,3.424.582C324.808,290.2,324.193,286.983,324.174,285.94Z" transform="translate(-280.439 -270.519)" fill="#3f3d56"/>
      <g id="Group_13" data-name="Group 13" transform="translate(39.836 21.719)" opacity="0.1">
        <path id="Path_1259" data-name="Path 1259" d="M356.264,355.468a12.757,12.757,0,0,0,6.693-7.886,24.946,24.946,0,0,0,.686-10.559,6.468,6.468,0,0,0-1.357-3.814c-3.1-3.288-12.494,1.23-12.579-5.373-.052-3.809,5.129-8.76,8.924-11.076a8.627,8.627,0,0,0-1,.333c-3.687,1.512-10.8,7.558-10.761,12.02.085,6.6,9.479,2.1,12.579,5.378a6.487,6.487,0,0,1,1.357,3.814,24.981,24.981,0,0,1-.686,10.554,12.731,12.731,0,0,1-6.693,7.886c4.011.648,8.685,1.08,11.846-1.179C362.5,356.295,359.2,355.942,356.264,355.468Z" transform="translate(-346.87 -316.76)"/>
        <path id="Path_1260" data-name="Path 1260" d="M397.537,389.716a4.171,4.171,0,0,0-.907.817c2.879.188,6.153,3.542,9.037,2.287a3.243,3.243,0,0,0,1.278-1.005C403.788,391.694,400.341,387.95,397.537,389.716Z" transform="translate(-373.257 -355.198)"/>
      </g>
      <g id="Group_14" data-name="Group 14" transform="translate(16.45 5.693)" opacity="0.1">
        <path id="Path_1261" data-name="Path 1261" d="M363.294,282.945c-.071-.1-.146-.207-.221-.305a2.691,2.691,0,0,1-.023.324A1.045,1.045,0,0,1,363.294,282.945Z" transform="translate(-332.064 -282.64)"/>
        <path id="Path_1262" data-name="Path 1262" d="M329.785,286.361a1,1,0,0,0-1.015-.395,2.275,2.275,0,0,0-.094-1.057l-.972.831.733,1.061-3.57,2.687a2.137,2.137,0,0,0-1.085,2.283c0,1.043.634,4.26-.38,4.838-.855.493-2.438-.751-3.419-.582-2.79.47-3.18,5.167-4.786,7.046a5.636,5.636,0,0,1-4.843,1.879c-1.2-.146-2.348-.681-3.56-.54a3.255,3.255,0,0,0-2.452,1.686q-3.631-7.017-7.262-14.03v.1a6.577,6.577,0,0,0,.676,1.667l7.271,14.03a3.255,3.255,0,0,1,2.452-1.686c1.2-.141,2.348.395,3.56.545a5.637,5.637,0,0,0,4.843-1.879c1.606-1.851,2-6.576,4.786-7.045.982-.169,2.565,1.076,3.419.582,1.015-.578.4-3.8.38-4.838a2.86,2.86,0,0,1,.207-1.409,2.817,2.817,0,0,1,.878-.888l3.57-2.682-.733-1.066Z" transform="translate(-297.08 -283.844)"/>
      </g>
      <path id="Path_1263" data-name="Path 1263" d="M274.871,491.989c-.47,2.006-.766,4.053-1.409,6.012-.282.883-.629,1.743-.907,2.626-.249.8-.437,1.616-.629,2.433l-.766,3.288a1.5,1.5,0,0,0,1.165-.658,4.449,4.449,0,0,0,.578-1.259l1.282-3.814.939-2.818c1.334-3.969,2.673-7.947,3.687-12.015.254-1.005.47-2.01.69-3.025.084-.39.7-2.564.07-2.381-.446.127-1.2,2.109-1.409,2.541-.47.864-.855,1.747-1.235,2.644A39.109,39.109,0,0,0,274.871,491.989Z" transform="translate(-266.885 -381.801)" opacity="0.1"/>
      <path id="Path_1264" data-name="Path 1264" d="M328.234,392.4s-2.123-.766-2.644.146c0,0,3.861,1.409,4.641,3.438,0,0,1-1.024-.367-2.325l-.254-1.907Z" transform="translate(-295.749 -334.808)" fill="#00a66c"/>
      <path id="Path_1265" data-name="Path 1265" d="M334.551,385.769s.117-.968-.371-1.071a2.994,2.994,0,0,0-3.264,3.758c.531,3.668,4.354,2.292,4.354,2.292l1.677-1.954s.357-2.588-1.992-3.213Z" transform="translate(-298.542 -331.058)" fill="#e53935"/>
      <path id="Path_1266" data-name="Path 1266" d="M330.941,382.76s-2.884,1.456-1.484,5.115l1.085-.63S331.9,384.07,330.941,382.76Z" transform="translate(-297.597 -330.04)" opacity="0.1"/>
      <path id="Path_1267" data-name="Path 1267" d="M330.726,382.6s-2.879,1.456-1.48,5.115l.841.493S331.689,383.91,330.726,382.6Z" transform="translate(-297.485 -329.955)" fill="#e53935"/>
      <path id="Path_1268" data-name="Path 1268" d="M338.482,390.538a2.5,2.5,0,0,0,.883,1.278c.676.47-.672,1.555-.672,1.555s-1.823,2.072-3.546,1.062c-1.029-1.733-.254-1.973-.254-1.973S337.045,390.1,338.482,390.538Z" transform="translate(-300.534 -334.136)" opacity="0.1"/>
      <path id="Path_1269" data-name="Path 1269" d="M338.281,390.748a2.5,2.5,0,0,0,.883,1.278c.672.47-.676,1.555-.676,1.555s-1.818,2.071-3.546,1.062-.254-1.968-.254-1.968S336.82,390.306,338.281,390.748Z" transform="translate(-300.263 -334.247)" fill="#e53935"/>
      <path id="Path_1270" data-name="Path 1270" d="M326.853,381.151s-2.133.742-1.963,1.78c0,0,3.889-1.334,5.773-.249,0,0,.127-1.409-1.747-1.578l-1.409-1.325Z" transform="translate(-295.372 -328.46)" fill="#5f3839"/>
      <path id="Path_1271" data-name="Path 1271" d="M328.323,372.461s-.517-.827-.939-.6a3,3,0,0,0-.178,4.965c2.71,2.508,4.828-.939,4.828-.939l.047-2.574s-1.353-2.236-3.57-1.24Z" transform="translate(-295.941 -324.237)" fill="#e53935"/>
      <path id="Path_1272" data-name="Path 1272" d="M323.713,373.49s-1.325,2.945,2.071,4.908l.446-1.17S325.272,373.908,323.713,373.49Z" transform="translate(-294.619 -325.124)" opacity="0.1"/>
      <path id="Path_1273" data-name="Path 1273" d="M323.415,373.5s-1.32,2.945,2.071,4.908l.963-.146S324.988,373.913,323.415,373.5Z" transform="translate(-294.461 -325.13)" fill="#e53935"/>
      <path id="Path_1274" data-name="Path 1274" d="M334.7,373.41a2.517,2.517,0,0,0,1.494.441c.827-.052.47,1.63.47,1.63s-.113,2.757-2.09,3.058c-1.879-.7-1.437-1.372-1.437-1.372S333.308,373.973,334.7,373.41Z" transform="translate(-299.728 -325.082)" opacity="0.1"/>
      <path id="Path_1275" data-name="Path 1275" d="M334.9,373.51a2.5,2.5,0,0,0,1.494.441c.827-.052.47,1.63.47,1.63s-.108,2.757-2.086,3.058-1.437-1.371-1.437-1.371S333.508,374.074,334.9,373.51Z" transform="translate(-299.825 -325.135)" fill="#e53935"/>
      <path id="Path_1276" data-name="Path 1276" d="M310.887,384.327s.676-.592,1.047.188l-.315,1.747-1.94,17.3-1.24,2.269Z" transform="translate(-286.654 -330.757)" fill="#00a66c"/>
      <path id="Path_1277" data-name="Path 1277" d="M288.716,277.62l-8.126,26.4.737.409,8.06-26.632Z" transform="translate(-258.734 -228.075)" fill="#00a66c"/>
      <path id="Path_1278" data-name="Path 1278" d="M314.96,401.48s-1.823,6.89-3.833,9.638a7.2,7.2,0,0,0-1.63,5.026l.658.2,5.4-14.387Z" transform="translate(-287.2 -339.967)" fill="#00a66c"/>
      <path id="Path_1279" data-name="Path 1279" d="M294.212,290.19,282.62,310.378l.554.3,11.954-20.343Z" transform="translate(-259.81 -234.741)" fill="#00a66c"/>
      <path id="Path_1280" data-name="Path 1280" d="M296.449,301.54,282.01,316.589l.432.559,14.622-15.27Z" transform="translate(-259.487 -240.76)" fill="#00a66c"/>
      <path id="Path_1281" data-name="Path 1281" d="M326.631,401.5s-.193-.845-.841-.686-13.41,14.331-13.41,14.331l.54.423Z" transform="translate(-288.744 -339.605)" fill="#00a66c"/>
      <path id="Path_1282" data-name="Path 1282" d="M309.972,381.145s-2.179.592-2.076,1.639c0,0,3.969-1.061,5.773.15,0,0,.225-1.409-1.635-1.7l-1.306-1.409Z" transform="translate(-286.364 -328.486)" fill="#00a66c"/>
      <path id="Path_1283" data-name="Path 1283" d="M312.064,372.489s-.47-.86-.916-.662a3,3,0,0,0-.526,4.937c2.527,2.687,4.885-.62,4.885-.62l.249-2.564s-1.193-2.32-3.476-1.484Z" transform="translate(-287.234 -324.227)" fill="#e53935"/>
      <path id="Path_1284" data-name="Path 1284" d="M307.466,373.09s-1.527,2.846,1.724,5.04l.526-1.137S309,373.611,307.466,373.09Z" transform="translate(-285.948 -324.912)" opacity="0.1"/>
      <path id="Path_1285" data-name="Path 1285" d="M307.2,373.08s-1.527,2.846,1.724,5.04l.972-.075S308.736,373.6,307.2,373.08Z" transform="translate(-285.805 -324.907)" fill="#e53935"/>
      <path id="Path_1286" data-name="Path 1286" d="M318.252,373.88a2.515,2.515,0,0,0,1.461.526c.827,0,.338,1.658.338,1.658s-.3,2.743-2.292,2.907c-1.837-.827-1.339-1.47-1.339-1.47S316.824,374.345,318.252,373.88Z" transform="translate(-290.854 -325.331)" opacity="0.1"/>
      <path id="Path_1287" data-name="Path 1287" d="M318.416,374a2.538,2.538,0,0,0,1.461.545c.827,0,.338,1.658.338,1.658s-.3,2.739-2.292,2.9-1.339-1.466-1.339-1.466S316.988,374.469,318.416,374Z" transform="translate(-290.919 -325.395)" fill="#e53935"/>
      <path id="Path_1288" data-name="Path 1288" d="M321.8,372.515s-2.18.592-2.081,1.639c0,0,3.969-1.062,5.773.145,0,0,.23-1.409-1.635-1.691l-1.306-1.409Z" transform="translate(-292.632 -323.91)" fill="#00a66c"/>
      <path id="Path_1289" data-name="Path 1289" d="M323.884,363.879s-.47-.86-.916-.662a3,3,0,0,0-.526,4.936c2.527,2.687,4.885-.62,4.885-.62l.249-2.565s-1.193-2.32-3.476-1.484Z" transform="translate(-293.503 -319.661)" fill="#e53935"/>
      <path id="Path_1290" data-name="Path 1290" d="M319.286,364.48s-1.526,2.846,1.724,5.04l.526-1.137S320.84,365,319.286,364.48Z" transform="translate(-292.216 -320.346)" opacity="0.1"/>
      <path id="Path_1291" data-name="Path 1291" d="M319.018,364.47s-1.522,2.846,1.724,5.04l.972-.08S320.558,364.991,319.018,364.47Z" transform="translate(-292.075 -320.341)" fill="#e53935"/>
      <path id="Path_1292" data-name="Path 1292" d="M330.078,365.27a2.5,2.5,0,0,0,1.456.54c.827,0,.338,1.658.338,1.658s-.3,2.743-2.292,2.908c-1.832-.832-1.338-1.47-1.338-1.47S328.646,365.735,330.078,365.27Z" transform="translate(-297.123 -320.765)" opacity="0.1"/>
      <path id="Path_1293" data-name="Path 1293" d="M330.241,365.38a2.5,2.5,0,0,0,1.456.54c.827,0,.338,1.658.338,1.658s-.3,2.743-2.292,2.908-1.339-1.47-1.339-1.47S328.808,365.845,330.241,365.38Z" transform="translate(-297.187 -320.824)" fill="#e53935"/>
      <path id="Path_1294" data-name="Path 1294" d="M331.154,385.268s-2.123-.766-2.644.146c0,0,3.861,1.409,4.645,3.438,0,0,1-1.024-.366-2.325l-.254-1.907Z" transform="translate(-297.298 -331.027)" fill="#00a66c"/>
      <path id="Path_1295" data-name="Path 1295" d="M337.45,378.609s.118-.968-.371-1.071a3.015,3.015,0,0,0-3.288,3.758c.5,3.668,4.359,2.292,4.359,2.292l1.677-1.954s.352-2.588-2-3.213Z" transform="translate(-300.071 -327.261)" fill="#e53935"/>
      <path id="Path_1296" data-name="Path 1296" d="M333.894,375.64s-2.884,1.456-1.48,5.115l1.08-.629S334.834,376.95,333.894,375.64Z" transform="translate(-299.164 -326.264)" opacity="0.1"/>
      <path id="Path_1297" data-name="Path 1297" d="M333.652,375.48s-2.884,1.456-1.484,5.115l.841.493S334.61,376.79,333.652,375.48Z" transform="translate(-299.034 -326.18)" fill="#e53935"/>
      <path id="Path_1298" data-name="Path 1298" d="M341.4,383.418a2.537,2.537,0,0,0,.883,1.278c.676.47-.672,1.555-.672,1.555s-1.822,2.071-3.546,1.062c-1.024-1.728-.254-1.973-.254-1.973S339.967,382.976,341.4,383.418Z" transform="translate(-302.085 -330.36)" opacity="0.1"/>
      <path id="Path_1299" data-name="Path 1299" d="M341.169,383.628a2.522,2.522,0,0,0,.883,1.282c.676.47-.672,1.55-.672,1.55s-1.822,2.071-3.546,1.066-.254-1.973-.254-1.973S339.732,383.187,341.169,383.628Z" transform="translate(-301.798 -330.471)" fill="#e53935"/>
      <path id="Path_1300" data-name="Path 1300" d="M338.41,397.518s-2.123-.766-2.64.15c0,0,3.856,1.409,4.641,3.438,0,0,1-1.029-.366-2.325l-.254-1.912Z" transform="translate(-301.147 -337.523)" fill="#00a66c"/>
      <path id="Path_1301" data-name="Path 1301" d="M344.726,390.856s.117-.968-.371-1.066a2.991,2.991,0,0,0-3.26,3.758c.531,3.673,4.354,2.3,4.354,2.3l1.677-1.959s.352-2.583-2-3.208Z" transform="translate(-303.941 -333.759)" fill="#e53935"/>
      <path id="Path_1302" data-name="Path 1302" d="M341.114,387.88s-2.884,1.456-1.48,5.12l1.08-.629S342.077,389.19,341.114,387.88Z" transform="translate(-302.992 -332.755)" opacity="0.1"/>
      <path id="Path_1303" data-name="Path 1303" d="M340.891,387.72s-2.884,1.456-1.484,5.115l.841.493S341.854,389.031,340.891,387.72Z" transform="translate(-302.873 -332.671)" fill="#e53935"/>
      <path id="Path_1304" data-name="Path 1304" d="M348.629,395.658a2.532,2.532,0,0,0,.878,1.282c.676.47-.672,1.55-.672,1.55s-1.822,2.071-3.546,1.066c-1.024-1.733-.254-1.973-.254-1.973S347.22,395.216,348.629,395.658Z" transform="translate(-305.914 -336.851)" opacity="0.1"/>
      <path id="Path_1305" data-name="Path 1305" d="M348.419,395.878a2.5,2.5,0,0,0,.883,1.278c.676.469-.672,1.555-.672,1.555s-1.822,2.071-3.546,1.062-.254-1.973-.254-1.973S346.981,395.436,348.419,395.878Z" transform="translate(-305.642 -336.967)" fill="#e53935"/>
      <path id="Path_1306" data-name="Path 1306" d="M339.324,401.628s-2.123-.766-2.644.15c0,0,3.861,1.409,4.641,3.438,0,0,1-1.029-.362-2.325l-.258-1.912Z" transform="translate(-301.63 -339.702)" fill="#00a66c"/>
      <path id="Path_1307" data-name="Path 1307" d="M345.642,394.964s.117-.963-.371-1.066a2.993,2.993,0,0,0-3.264,3.758c.526,3.673,4.354,2.3,4.354,2.3L348.037,398s.357-2.588-1.992-3.213Z" transform="translate(-304.424 -335.936)" fill="#e53935"/>
      <path id="Path_1308" data-name="Path 1308" d="M342.037,392s-2.884,1.451-1.475,5.115l1.085-.629S343,393.306,342.037,392Z" transform="translate(-303.483 -334.94)" opacity="0.1"/>
      <path id="Path_1309" data-name="Path 1309" d="M341.816,391.83s-2.879,1.456-1.48,5.115l.841.5S342.793,393.14,341.816,391.83Z" transform="translate(-303.366 -334.85)" fill="#e53935"/>
      <path id="Path_1310" data-name="Path 1310" d="M349.572,399.768a2.52,2.52,0,0,0,.883,1.282c.676.47-.672,1.55-.672,1.55s-1.823,2.076-3.546,1.066c-1.029-1.733-.254-1.973-.254-1.973S348.135,399.326,349.572,399.768Z" transform="translate(-306.415 -339.03)" opacity="0.1"/>
      <path id="Path_1311" data-name="Path 1311" d="M349.337,399.988a2.5,2.5,0,0,0,.883,1.278c.677.47-.676,1.555-.676,1.555s-1.818,2.071-3.542,1.062-.258-1.973-.258-1.973S347.9,399.546,349.337,399.988Z" transform="translate(-306.128 -339.147)" fill="#e53935"/>
      <path id="Path_1312" data-name="Path 1312" d="M317.3,398.943s-2.123-.77-2.644.146c0,0,3.861,1.409,4.641,3.438,0,0,1-1.024-.366-2.325l-.254-1.912Z" transform="translate(-289.953 -338.276)" fill="#00a66c"/>
      <path id="Path_1313" data-name="Path 1313" d="M323.621,392.275s.117-.963-.371-1.066a2.994,2.994,0,0,0-3.264,3.758c.531,3.668,4.354,2.3,4.354,2.3l1.677-1.954s.357-2.588-1.991-3.213Z" transform="translate(-292.746 -334.51)" fill="#e53935"/>
      <path id="Path_1314" data-name="Path 1314" d="M320.027,389.31s-2.875,1.456-1.465,5.115l1.085-.629S320.985,390.62,320.027,389.31Z" transform="translate(-291.815 -333.514)" opacity="0.1"/>
      <path id="Path_1315" data-name="Path 1315" d="M319.8,389.15s-2.879,1.451-1.48,5.115l.841.47S320.783,390.461,319.8,389.15Z" transform="translate(-291.688 -333.429)" fill="#e53935"/>
      <path id="Path_1316" data-name="Path 1316" d="M327.552,397.078a2.5,2.5,0,0,0,.883,1.282c.676.47-.672,1.555-.672,1.555s-1.822,2.071-3.546,1.061c-1.029-1.733-.254-1.973-.254-1.973S326.115,396.636,327.552,397.078Z" transform="translate(-294.738 -337.604)" opacity="0.1"/>
      <path id="Path_1317" data-name="Path 1317" d="M327.281,397.3a2.5,2.5,0,0,0,.883,1.278c.672.47-.676,1.555-.676,1.555s-1.818,2.072-3.546,1.062-.254-1.973-.254-1.973S325.872,396.856,327.281,397.3Z" transform="translate(-294.429 -337.721)" fill="#e53935"/>
      <path id="Path_1318" data-name="Path 1318" d="M319.774,385.473s-2.128-.77-2.645.146c0,0,3.861,1.409,4.641,3.438,0,0,1-1.024-.366-2.325l-.254-1.912Z" transform="translate(-291.263 -331.133)" fill="#00a66c"/>
      <path id="Path_1319" data-name="Path 1319" d="M326.07,378.767s.117-.939-.371-1.066-3.8.089-3.288,3.758,4.354,2.3,4.354,2.3l1.677-1.954s.352-2.588-2-3.213Z" transform="translate(-294.035 -327.344)" fill="#e53935"/>
      <path id="Path_1320" data-name="Path 1320" d="M322.476,375.84s-2.879,1.451-1.479,5.115l1.085-.629S323.439,377.15,322.476,375.84Z" transform="translate(-293.11 -326.371)" opacity="0.1"/>
      <path id="Path_1321" data-name="Path 1321" d="M322.264,375.68s-2.884,1.451-1.48,5.115l.836.493S323.227,376.99,322.264,375.68Z" transform="translate(-292.996 -326.286)" fill="#e53935"/>
      <path id="Path_1322" data-name="Path 1322" d="M330.022,383.608a2.524,2.524,0,0,0,.883,1.282c.677.47-.672,1.555-.672,1.555s-1.823,2.071-3.546,1.062c-1.029-1.733-.254-1.973-.254-1.973S328.581,383.166,330.022,383.608Z" transform="translate(-296.048 -330.461)" opacity="0.1"/>
      <path id="Path_1323" data-name="Path 1323" d="M329.779,383.833a2.5,2.5,0,0,0,.883,1.278c.676.47-.672,1.555-.672,1.555s-1.822,2.071-3.546,1.061-.254-1.973-.254-1.973S328.342,383.416,329.779,383.833Z" transform="translate(-295.758 -330.583)" fill="#e53935"/>
      <path id="Path_1324" data-name="Path 1324" d="M306.668,406.58s5.82.644,8.981,10.766-6.783,2.55-6.783,2.55-2.621.526-3.03-4.758A21.546,21.546,0,0,1,306.668,406.58Z" transform="translate(-285.23 -342.672)" fill="#fbbebe"/>
      <rect id="Rectangle_125" data-name="Rectangle 125" width="2.17" height="0.643" rx="0.322" transform="translate(20.396 72.086) rotate(-23.92)" fill="#e3e8f4"/>
    </g>
  </g>
</svg>
