<svg xmlns="http://www.w3.org/2000/svg" width="287.825" height="250" viewBox="0 0 287.825 250">
  <g id="Group_1613" data-name="Group 1613" transform="translate(-489 -1854)">
    <g id="background2" transform="translate(504 1854)">
      <circle id="Ellipse_534" data-name="Ellipse 534" cx="124.799" cy="124.799" r="124.799" fill="rgba(79,19,76,0.05)"/>
      <circle id="Ellipse_535" data-name="Ellipse 535" cx="99.799" cy="99.799" r="99.799" transform="translate(25 25)" fill="rgba(79,19,76,0.05)"/>
    </g>
    <g id="anniversaywife" transform="translate(489 1854.558)">
      <g id="undraw_super_woman_dv0y_2_" data-name="undraw_super_woman_dv0y (2)" transform="translate(0)">
        <path id="Path_3017" data-name="Path 3017" d="M756.867,115.147a19.545,19.545,0,0,1,19.519-18.524c.593,0,1.18.032,1.761.082a25.968,25.968,0,0,1,44.891-.021c.49-.037.982-.062,1.482-.062a19.545,19.545,0,0,1,19.519,18.524" transform="translate(-560.781 -82.283)" fill="#f2f2f2"/>
        <path id="Path_3018" data-name="Path 3018" d="M769.048,110.646a19.545,19.545,0,0,1,19.519-18.524c.595,0,1.181.032,1.761.082a25.968,25.968,0,0,1,44.889-.021c.489-.037.982-.062,1.482-.062a19.545,19.545,0,0,1,19.519,18.524" transform="translate(-568.892 -79.287)" fill="none" stroke="#3f3d56" stroke-miterlimit="10" stroke-width="1"/>
        <path id="Path_3019" data-name="Path 3019" d="M331.867,393.146a19.545,19.545,0,0,1,19.519-18.524c.593,0,1.18.032,1.761.082a25.968,25.968,0,0,1,44.889-.022c.49-.037.982-.062,1.482-.062a19.545,19.545,0,0,1,19.519,18.524" transform="translate(-277.809 -267.381)" fill="#f2f2f2"/>
        <path id="Path_3020" data-name="Path 3020" d="M344.048,388.646a19.545,19.545,0,0,1,19.519-18.524c.593,0,1.18.031,1.761.082a25.968,25.968,0,0,1,44.889-.021c.49-.037.982-.062,1.482-.062a19.544,19.544,0,0,1,19.517,18.522" transform="translate(-285.919 -264.385)" fill="none" stroke="#3f3d56" stroke-miterlimit="10" stroke-width="1"/>
        <path id="Path_3023" data-name="Path 3023" d="M465.161,253.747s35.13,17.445,41.429,15.02,8.479-23.984,8.479-23.984l-25.922-4.846Z" transform="translate(-366.559 -186.251)" fill="#e53935"/>
        <path id="Path_3024" data-name="Path 3024" d="M465.161,253.747s35.13,17.445,41.429,15.02,8.479-23.984,8.479-23.984l-25.922-4.846Z" transform="translate(-366.559 -186.251)" opacity="0.1"/>
        <rect id="Rectangle_252" data-name="Rectangle 252" width="23.016" height="20.108" transform="translate(148.389 41.453)" fill="#ff6584"/>
        <rect id="Rectangle_253" data-name="Rectangle 253" width="23.016" height="20.108" transform="translate(148.389 41.453)" opacity="0.1"/>
        <path id="Path_3025" data-name="Path 3025" d="M551.331,459.6s-.968,21.078,5.573,20.593,0-19.866,0-19.866Z" transform="translate(-423.898 -332.508)" fill="#fbbebe"/>
        <path id="Path_3026" data-name="Path 3026" d="M620.8,212.389s1.453,9.2-1.211,10.417-4.361,2.18-4.361,2.18l6.057,4.121,11.144.727,2.906-2.18L638,225.231s-4.361-.97-4.361-3.15-.242-8.722-.242-8.722Z" transform="translate(-466.476 -167.909)" fill="#fbbebe"/>
        <path id="Path_3027" data-name="Path 3027" d="M620.8,212.389s1.453,9.2-1.211,10.417-4.361,2.18-4.361,2.18l6.057,4.121,11.144.727,2.906-2.18L638,225.231s-4.361-.97-4.361-3.15-.242-8.722-.242-8.722Z" transform="translate(-466.476 -167.909)" opacity="0.1"/>
        <path id="Path_3028" data-name="Path 3028" d="M544.232,470.477s-7.026,22.527-7.026,39.01c0,0-11.629,26.166-11.144,39.01l-2.906,17.686,4.121,1.453,3.15-2.665s.969-9.449,4.121-14.052,10.417-26.407,10.417-26.407,19.382-40.7,18.655-46.515S544.232,470.477,544.232,470.477Z" transform="translate(-405.174 -339.747)" fill="#ffe8e8"/>
        <path id="Path_3029" data-name="Path 3029" d="M675.931,455.253s4.6,2.18-1.938,40.944c0,0,3.635,25.686.485,39.733l-.485,14.052H668.91l-.968-1.453s-.242-12.6-1.938-15.99-3.15-23.016-3.15-23.016-7.752-39.972-6.056-43.367S675.931,455.253,675.931,455.253Z" transform="translate(-493.987 -329.611)" fill="#ffe8e8"/>
        <path id="Path_3030" data-name="Path 3030" d="M513.743,744.514s1.7,3.877,4.844,2.907a18.751,18.751,0,0,1,3.876-.968s-2.18,11.144-1.453,16.475-.485,8.722-5.33,8.722-5.573-5.814-5.573-5.814l2.181-13.809Z" transform="translate(-396.486 -522.207)" fill="#2f2e41"/>
        <path id="Path_3031" data-name="Path 3031" d="M687.725,726.39s1.7,3.391,4.361,2.664a7.19,7.19,0,0,0,3.635-1.938s-.242,7.511.726,10.9,3.15,13.082-1.938,13.567a6.541,6.541,0,0,1-6.783-3.877Z" transform="translate(-514.746 -510.139)" fill="#2f2e41"/>
        <circle id="Ellipse_246" data-name="Ellipse 246" cx="10.66" cy="10.66" r="10.66" transform="translate(150.206 29.46)" fill="#fbbebe"/>
        <path id="Path_3032" data-name="Path 3032" d="M622.745,249.6s-8.443-3.316-11.49-2.869a12.452,12.452,0,0,1-9.588,2.869c-5.814-.727-8.087-3.518-8.087-3.518s-15.659,3.518-14.685,4.971,5.33,25.2,5.33,25.2,2.908,20.593-.485,27.619-5.082,18.655-3.634,19.624,17.685,5.33,19.624,6.541,2.665-2.908,3.876-2.18,3.876,1.938,5.573.97,18.17-9.691,17.685-11.387-6.784-22.289-8.964-26.407-.485-12.84.727-14.537,3.634-3.635,4.121-8.479S622.745,249.6,622.745,249.6Z" transform="translate(-442.255 -190.345)" fill="#2f2e41"/>
        <path id="Path_3033" data-name="Path 3033" d="M557.246,258.721a8.328,8.328,0,0,0-2.714,4.625c-.727,3.15-1.7,28.345-1.7,28.345s-8.964,34.645-7.026,35.371,7.511,2.18,8.242,1.453,8.964-30.042,8.241-33.192.97-12.362.97-12.362Z" transform="translate(-420.074 -198.758)" fill="#2f2e41"/>
        <path id="Path_3034" data-name="Path 3034" d="M685.393,386.3s-13.082-6.541-14.537-2.18,13.809,8.964,13.809,8.964,5.33-1.938,5.33-3.15S685.393,386.3,685.393,386.3Z" transform="translate(-503.45 -281.252)" fill="#fbbebe"/>
        <path id="Path_3035" data-name="Path 3035" d="M701.805,257.348l2.665-.97s1.453-.97,3.15,2.665S727.728,284,724.337,290.78,709.8,311.372,709.316,310.4s-6.057-8.242-5.082-8.964,12.114-10.66,10.66-12.114-7.511-13.809-10.9-14.294S701.805,257.348,701.805,257.348Z" transform="translate(-523.98 -197.119)" fill="#2f2e41"/>
        <path id="Path_3036" data-name="Path 3036" d="M319.223,138s-36.95-14.854-68.923-29.148c0,0-16.717-4.121-25.439,3.635,0,0,7.268-.97,7.268,3.15,0,0,6.3,8.242-13.324,9.691-13.667,1.012-19.108,9.192-21.153,14.066a19.8,19.8,0,0,1-8.007,9.415,20.174,20.174,0,0,1-19.538,1.236s.453.7,1.312,1.857c15.384,20.777,72.678,38.859,92.91,22.763,12.5-9.946,32.325-22.519,46.533-16.186,22.289,9.932,26.407,5.573,26.407,5.573l.968-2.665s-21.565-5.814-22.046-13.324S319.223,138,319.223,138Z" transform="translate(-170.107 -98.244)" fill="#e53935"/>
        <path id="Path_3037" data-name="Path 3037" d="M676.734,204.052a11.1,11.1,0,0,1,6.181,8.843s5.573,10.9-.727,13.567-7.511,1.938-7.511,1.938v-1.206s6.784-4.121,5.33-7.268S676.734,204.052,676.734,204.052Z" transform="translate(-506.056 -162.357)" fill="#e53935"/>
        <path id="Path_3038" data-name="Path 3038" d="M652.927,283.973s1.7-4.361,1.211-4.361,1.971-2.683,2.924-1.7,2.648,3.884.71,4.611S652.927,283.973,652.927,283.973Z" transform="translate(-491.577 -211.389)" fill="#e53935"/>
        <path id="Path_3039" data-name="Path 3039" d="M675.848,277.554s-4.428-1.511-4.408-1.026-2.764-1.856-1.827-2.849,3.769-2.81,4.578-.905S675.848,277.554,675.848,277.554Z" transform="translate(-502.561 -207.558)" fill="#e53935"/>
        <path id="Path_3040" data-name="Path 3040" d="M663.564,268.158a2.677,2.677,0,0,1,3.529.712c1.318,1.953-1.591,5.344-3.529,5.344s-1.938-4.121-1.938-4.121Z" transform="translate(-497.369 -204.781)" fill="#e53935"/>
        <path id="Path_3041" data-name="Path 3041" d="M663.564,268.158a2.677,2.677,0,0,1,3.529.712c1.318,1.953-1.591,5.344-3.529,5.344s-1.938-4.121-1.938-4.121Z" transform="translate(-497.369 -204.781)" opacity="0.1"/>
        <path id="Path_3042" data-name="Path 3042" d="M605.72,140.915a13.082,13.082,0,0,0-3.283,3.685,16.548,16.548,0,0,0-1.041,2.534c-.979,2.82-3.415,5.676-2.385,8.476a3.9,3.9,0,0,1,.489,2.452c-.235.72-.961,1.139-1.479,1.685a6.846,6.846,0,0,0-1.374,4.556A13.551,13.551,0,0,0,600.13,173a12.133,12.133,0,0,1,1.188,1.345,3.148,3.148,0,0,1,.372,2.593l2.875-.6a23.913,23.913,0,0,1,.1,3.195,2.982,2.982,0,0,0,3.159-2.044,8.539,8.539,0,0,0,.79,2.183,11.258,11.258,0,0,0,1.909-3.537,10.108,10.108,0,0,0,.343-5.106,21.648,21.648,0,0,0-1.236-3.629c-1.017-2.567-1.846-5.2-2.675-7.838a10.913,10.913,0,0,1-.736-4.209l1.022-.111a4.871,4.871,0,0,1,.323-1.648,6.05,6.05,0,0,1,1.709.643l1.177-2.989a6.785,6.785,0,0,0,2.962,1.511l4.06,1.279.025-.8a20.844,20.844,0,0,0,5.777,3.624,1.314,1.314,0,0,1-.286-1.045,7.677,7.677,0,0,1-.016,5.982,14.519,14.519,0,0,0-1.188,5.987c.186,1.523.962,2.981.824,4.509-.071.753-.365,1.468-.457,2.22a8.426,8.426,0,0,0,1.631,5.052l1.766-2.426a9.29,9.29,0,0,1,2.228-2.4,19.762,19.762,0,0,0,2.923-1.677c1.461-1.383,1.276-3.74.8-5.695a9.9,9.9,0,0,1-.466-3.159c.158-1.806,1.413-3.3,2.119-4.971a8.63,8.63,0,0,0-.484-7.588c-.878-1.511-2.2-2.717-3.03-4.25s-1.137-3.342-2.265-4.659a7.853,7.853,0,0,0-1.9-1.511,24.747,24.747,0,0,0-10.529-3.434A12.088,12.088,0,0,0,605.72,140.915Z" transform="translate(-454.096 -118.19)" fill="#ff6584"/>
      </g>
    </g>
  </g>
</svg>
