<svg xmlns="http://www.w3.org/2000/svg" width="505.725" height="600" viewBox="0 0 505.725 600">
  <g id="Wedding-amico_1_" data-name="Wedding-amico (1)" transform="translate(-59.34 -30.757)">
    <g id="freepik--Grass--inject-500" transform="translate(59.34 370.281)">
      <ellipse id="freepik--Floor--inject-500" cx="246.174" cy="130.238" rx="246.174" ry="130.238" fill="#e53935"/>
    </g>
    <g id="freepik--Shadows--inject-500" transform="translate(114.983 422.707)">
      <path id="freepik--Shadow--inject-500" d="M440.036,379.61c-24.216-13.972-60.314-16.893-89.5-8.764A92.329,92.329,0,0,0,324.47,349.38c-51.022-29.463-133.741-29.463-184.763,0s-51.035,77.22,0,106.683,133.741,29.45,184.763,0a111.514,111.514,0,0,0,12.623-8.46c30.732,13.549,74.841,12.227,102.929-3.965C470.649,425.939,470.649,397.282,440.036,379.61Z" transform="translate(-101.436 -327.282)" opacity="0.1"/>
    </g>
    <g id="freepik--Plants--inject-500" transform="translate(80.647 233.185)">
      <g id="freepik--plants--inject-500-2" data-name="freepik--plants--inject-500" transform="translate(350.398 121.614)">
        <g id="freepik--Plant--inject-500" transform="translate(0)">
          <path id="Path_12864" data-name="Path 12864" d="M341.5,358.921a54.043,54.043,0,0,0,2.1,6.345c2.379,6.041,5.393,11.9,6.226,18.386.383,2.987.33,6.186,1.851,8.79,3.516,6,7.574,1.586,9.953-2.075,5.8-8.922,11.526-17.514,21.453-22.087,4.93-2.274,10.152-4.045,14.54-7.23s7.931-8.248,7.455-13.654c-.264-3.252-1.917-6.371-1.573-9.61.449-4.058,3.965-7.125,7.587-8.949s7.706-2.855,11.1-5.115,6.133-6.318,5.1-10.27c-1.467-5.6-9.477-8.037-9.874-13.813-.423-6.265,8.658-10.257,7.931-16.5-1.322-11.394-18.069-6.754-24.07-3.344-5.287,3-10.218,6.86-15.994,8.816-7.3,2.472-16.192,2.088-21.36,7.8-5.908,6.5-3.371,16.919-6.358,25.18-3.384,9.345-13.575,15.148-16.3,24.7a24.229,24.229,0,0,0,.225,12.623Z" transform="translate(-340.549 -275.907)" fill="#e53935"/>
          <path id="Path_12865" data-name="Path 12865" d="M341.5,358.921a54.043,54.043,0,0,0,2.1,6.345c2.379,6.041,5.393,11.9,6.226,18.386.383,2.987.33,6.186,1.851,8.79,3.516,6,7.574,1.586,9.953-2.075,5.8-8.922,11.526-17.514,21.453-22.087,4.93-2.274,10.152-4.045,14.54-7.23s7.931-8.248,7.455-13.654c-.264-3.252-1.917-6.371-1.573-9.61.449-4.058,3.965-7.125,7.587-8.949s7.706-2.855,11.1-5.115,6.133-6.318,5.1-10.27c-1.467-5.6-9.477-8.037-9.874-13.813-.423-6.265,8.658-10.257,7.931-16.5-1.322-11.394-18.069-6.754-24.07-3.344-5.287,3-10.218,6.86-15.994,8.816-7.3,2.472-16.192,2.088-21.36,7.8-5.908,6.5-3.371,16.919-6.358,25.18-3.384,9.345-13.575,15.148-16.3,24.7a24.229,24.229,0,0,0,.225,12.623Z" transform="translate(-340.549 -275.907)" opacity="0.3"/>
          <path id="Path_12866" data-name="Path 12866" d="M350.714,382.1h0a.833.833,0,0,1-.793-.9c3.014-47.1,38.187-87.966,56.349-99.387a.846.846,0,0,1,.9,1.428c-17.911,11.262-52.582,51.551-55.516,98.065a.859.859,0,0,1-.939.793Z" transform="translate(-337.534 -274.038)" fill="#fff"/>
        </g>
        <g id="freepik--plant--inject-500-2" data-name="freepik--plant--inject-500" transform="translate(16.682 49.491)">
          <path id="Path_12867" data-name="Path 12867" d="M356.911,407.2c10.112-35.53,46.435-52.436,79.705-62.641,20.065-6.146,18.783-21.982,11.9-27.19-10.574-7.931-41.756-4.534-64.2,13.839s-30.944,45.748-31.142,65.615Z" transform="translate(-353.17 -313.349)" fill="#e53935"/>
          <path id="Path_12868" data-name="Path 12868" d="M356.911,407.2c10.112-35.53,46.435-52.436,79.705-62.641,20.065-6.146,18.783-21.982,11.9-27.19-10.574-7.931-41.756-4.534-64.2,13.839s-30.944,45.748-31.142,65.615Z" transform="translate(-353.17 -313.349)" opacity="0.2"/>
          <path id="Path_12869" data-name="Path 12869" d="M355.537,391.131H355.3a.846.846,0,0,1-.582-1.044C367.883,342.793,414.12,319,436.3,319a.846.846,0,1,1,0,1.692c-21.717,0-67.016,23.3-79.956,69.765A.846.846,0,0,1,355.537,391.131Z" transform="translate(-352.682 -311.53)" fill="#fff"/>
        </g>
      </g>
      <g id="freepik--plant--inject-500-3" data-name="freepik--plant--inject-500" transform="translate(13.334)">
        <path id="Path_12870" data-name="Path 12870" d="M133.13,372.924h.093a1.057,1.057,0,0,0,1.322-.595c18.505-46.951,23.118-129.458-24.493-165.953a1.068,1.068,0,1,0-1.322,1.679c46.739,35.821,42.073,117.165,23.793,163.495A1.071,1.071,0,0,0,133.13,372.924Z" transform="translate(-78.218 -176.743)" fill="#e53935"/>
        <path id="Path_12871" data-name="Path 12871" d="M119.973,263.678a8.552,8.552,0,0,1-4.084-9.636c1.1-3.582,4.732-5.446,9.729-5,11.645,1.057,18.056,15.743,18.756,23l.278,2.921-2.088-2.075c-4.534-4.507-9.517-5.578-14.342-6.609a31.814,31.814,0,0,1-7.812-2.366Zm21.757,5.684c-1.705-6.609-7.151-17.382-16.3-18.2-3.965-.37-6.728.912-7.521,3.5a6.464,6.464,0,0,0,3.08,7.151,27.666,27.666,0,0,0,7.68,2.393,38.572,38.572,0,0,1,9.649,3.027,22.642,22.642,0,0,1,3.41,2.128Z" transform="translate(-75.873 -162.959)" fill="#e53935"/>
        <path id="Path_12872" data-name="Path 12872" d="M141.133,271.251a.661.661,0,0,0,.5,0,.714.714,0,0,0,.5-.859c-1.877-6.992-11.9-15.359-19.827-16.575a.714.714,0,1,0-.211,1.4c8.156,1.243,17.091,9.583,18.69,15.544A.661.661,0,0,0,141.133,271.251Z" transform="translate(-74.007 -161.411)" fill="#e53935"/>
        <path id="Path_12873" data-name="Path 12873" d="M105.54,228.772c.079-3.741,3.08-6.53,8.01-7.442,11.5-2.141,21.678,10.218,24.321,17.065l1.057,2.736-2.564-1.428c-5.565-3.093-10.667-2.8-15.6-2.485a29.808,29.808,0,0,1-8.645-.278,7.177,7.177,0,0,1-1.824-.674A8.459,8.459,0,0,1,105.54,228.772Zm8.393-5.367c-3.965.74-6.226,2.644-6.279,5.419a6.45,6.45,0,0,0,4.9,6.054,28.789,28.789,0,0,0,8.037.225c4.217-.264,8.909-.568,13.958,1.414C131.117,230.556,122.975,221.726,113.933,223.405Z" transform="translate(-79.113 -171.936)" fill="#e53935"/>
        <path id="Path_12874" data-name="Path 12874" d="M111.755,227.553a.833.833,0,0,0,.41.066c8.182-1,19.047,4.6,22.193,9.9a.727.727,0,0,0,.965.251.714.714,0,0,0,.251-.978c-3.688-6.226-15.6-11.553-23.581-10.574a.714.714,0,0,0-.621.793A.753.753,0,0,0,111.755,227.553Z" transform="translate(-77.238 -170.321)" fill="#e53935"/>
        <path id="Path_12875" data-name="Path 12875" d="M147.033,236.28a6.728,6.728,0,0,1,7.574.476,7.931,7.931,0,0,1,3.291,7.006,12.848,12.848,0,0,1-6.53,9.438c-6.609,3.86-13.879,9.808-14.143,13.218H135.11C134.5,250.9,140.648,239.519,147.033,236.28Zm.965,1.89c-5.036,2.551-10.1,11.447-10.746,23.581,4.084-5.155,12.6-10.125,13.059-10.389a10.786,10.786,0,0,0,5.472-7.746,5.856,5.856,0,0,0-2.5-5.195,3.964,3.964,0,0,0-.78-.5A4.9,4.9,0,0,0,148,238.17Z" transform="translate(-69.61 -167.35)" fill="#e53935"/>
        <path id="Path_12876" data-name="Path 12876" d="M135.754,265.5l.238.066a.7.7,0,0,0,.78-.621c1.229-10.759,10.165-21.466,13.35-23.713a.706.706,0,1,0-.82-1.15c-3.331,2.353-12.65,13.509-13.932,24.7A.727.727,0,0,0,135.754,265.5Z" transform="translate(-69.514 -165.864)" fill="#e53935"/>
        <path id="Path_12877" data-name="Path 12877" d="M132.411,206.789a6.768,6.768,0,0,1,7.521-.952,7.931,7.931,0,0,1,4.547,6.265,12.861,12.861,0,0,1-4.64,10.5c-5.829,5.036-11.8,12.24-11.407,15.65l-2.088.357C122.841,223.471,126.74,211.178,132.411,206.789Zm1.322,1.679c-4.468,3.45-7.785,13.139-6.12,25.114,3.04-5.829,10.456-12.306,10.865-12.65a10.839,10.839,0,0,0,3.965-8.645,5.9,5.9,0,0,0-3.423-4.64h-.066a4.719,4.719,0,0,0-5.248.819Z" transform="translate(-72.846 -177.077)" fill="#e53935"/>
        <path id="Path_12878" data-name="Path 12878" d="M126.664,237.49a.687.687,0,0,0,.37.066.714.714,0,0,0,.648-.753c-.806-10.8,5.961-22.986,8.671-25.8a.7.7,0,1,0-.991-.991c-2.829,2.934-9.9,15.65-9.054,26.886A.7.7,0,0,0,126.664,237.49Z" transform="translate(-72.452 -175.566)" fill="#e53935"/>
        <path id="Path_12879" data-name="Path 12879" d="M164.116,246.483a6.728,6.728,0,0,0-7.574-.476c-4.9,2.485-9.649,9.795-11.328,20.065a119.121,119.121,0,0,0-10.191-29.846c1.322-3.767,6.252-9.438,11.09-13.628a12.861,12.861,0,0,0,4.64-10.5,7.931,7.931,0,0,0-4.547-6.265,6.768,6.768,0,0,0-7.521.952c-4.507,3.476-7.931,11.989-7.323,22.907a82.772,82.772,0,0,0-20.356-22.947,1.068,1.068,0,0,0-1.322,1.679A82.151,82.151,0,0,1,131.375,233.9c-4.587-4.8-10.971-8.711-17.844-7.429-4.93.912-7.931,3.7-8.01,7.442a8.459,8.459,0,0,0,4.719,7.495,7.177,7.177,0,0,0,1.824.674,29.8,29.8,0,0,0,8.645.278c4.93-.317,10.033-.608,15.6,2.485l.4.211a129.127,129.127,0,0,1,7.931,29.08v1.917h.251a7.438,7.438,0,0,0,.145,1.071c-2.974-6.609-8.394-13.324-16.153-14.024-5-.449-8.631,1.414-9.729,5a8.552,8.552,0,0,0,4.084,9.636l.449.238a31.818,31.818,0,0,0,7.812,2.366c4.825,1.031,9.808,2.1,14.342,6.609l.238.238c2.181,30.3-3.5,61.768-12.531,84.675a1.071,1.071,0,0,0,.5,1.322h.093a1.057,1.057,0,0,0,1.322-.595c10.284-26.093,16.258-63.183,11.381-97.246,1.044-3.49,7.772-8.922,14-12.531a12.848,12.848,0,0,0,6.53-9.438,7.931,7.931,0,0,0-3.252-6.887ZM139.98,208.468a4.719,4.719,0,0,1,5.181-.78h.066a5.9,5.9,0,0,1,3.423,4.64,10.878,10.878,0,0,1-3.965,8.645A59.867,59.867,0,0,0,134.56,232.34c1.322-8.962,6.2-17.554,8.407-19.827a.7.7,0,1,0-1-.978c-2.168,2.247-6.768,10.165-8.473,18.783-.634-10.482,2.445-18.743,6.49-21.85ZM120.6,240.192a28.789,28.789,0,0,1-8.037-.225,6.45,6.45,0,0,1-4.9-6.054c0-2.71,2.353-4.679,6.279-5.419,7.534-1.4,14.434,4.507,18.505,9.953-5.287-3.727-12.914-6.226-18.585-5.525a.714.714,0,0,0-.621.793.753.753,0,0,0,.383.542.833.833,0,0,0,.41.066c6.715-.82,15.2,2.789,19.827,7.032-4.8-1.626-9.2-1.361-13.258-1.11Zm11.315,38.081a27.667,27.667,0,0,1-7.68-2.392,6.464,6.464,0,0,1-3.08-7.151c.793-2.644,3.529-3.873,7.521-3.5,7.627.687,12.663,8.235,15.122,14.54-4.071-5.023-10.733-9.491-16.39-10.363a.714.714,0,1,0-.211,1.4c6.609,1.018,13.879,6.807,17.184,12.134a21.957,21.957,0,0,0-2.776-1.692,38.569,38.569,0,0,0-9.689-2.921Zm33.376-24.982a10.786,10.786,0,0,1-5.472,7.746,59.85,59.85,0,0,0-12.081,9.253c2.934-8.565,9.385-16.073,11.989-17.91a.706.706,0,1,0-.82-1.15c-2.538,1.784-8.552,8.711-11.83,16.853,1.322-10.416,5.869-17.937,10.429-20.25a4.9,4.9,0,0,1,4.507-.251,3.968,3.968,0,0,1,.78.5,5.856,5.856,0,0,1,2.5,5.261Z" transform="translate(-79.119 -177.077)" opacity="0.4"/>
        <path id="Path_12880" data-name="Path 12880" d="M101.611,219.721a26.992,26.992,0,0,0,12.121-7.455c5.287-6.12,7.072-15.716,5.472-23.568a7.138,7.138,0,0,0-1.811-3.873,3.014,3.014,0,0,0-3.965-.33,4.64,4.64,0,0,0-1.084,3.08c-.33,3.318-.648,6.609-.965,9.966a21.638,21.638,0,0,0-3.82-10.363c-.78-1.124-2.022-2.274-3.331-1.864-1.547.476-1.652,2.644-1.322,4.217a38.332,38.332,0,0,0,4.283,11.777,42.3,42.3,0,0,0-12.147-5.8,2.9,2.9,0,0,0-2.644.106c-1.229.978-.291,2.934.78,4.071a27.256,27.256,0,0,0,8.83,6.16,32.028,32.028,0,0,0-14.381.383,2.815,2.815,0,0,0-1.89,1.11c-.727,1.322.78,2.736,2.141,3.344a26.437,26.437,0,0,0,11.672,2.1c-2.485.753-8.023,3.106-7.746,5.287S97.553,220.659,101.611,219.721Z" transform="translate(-85.547 -183.902)" fill="#e53935"/>
      </g>
      <g id="freepik--plants--inject-500-3" data-name="freepik--plants--inject-500" transform="translate(0 112.112)">
        <path id="Path_12881" data-name="Path 12881" d="M136.922,381.722c.251-1.732,10.337-42.76,1.652-72.329-10.733-36.575-26.436-45.774-39.734-38.24-11.9,6.781-3.49,23.105,7.415,40.513,12.927,20.647,20.567,41.849,18.294,65.562Z" transform="translate(-69.8 -268.718)" fill="#37474f"/>
        <path id="Path_12882" data-name="Path 12882" d="M127.142,374.245a.912.912,0,0,1-.674-1.071c9.464-48.907-16.417-88.4-23.872-96.294a.912.912,0,1,1,1.322-1.256c7.587,8.037,33.944,48.246,24.335,97.907a.938.938,0,0,1-1.071.727Z" transform="translate(-66.814 -266.594)" fill="#fff"/>
        <path id="Path_12883" data-name="Path 12883" d="M99.332,395.586c-1.176-.516-2.34-1.057-3.476-1.6-3.794-1.837-7.667-3.965-9.98-7.508s-2.485-8.79.687-11.553c1.586-1.322,3.794-2.009,5.142-3.622,1.969-2.353,1.322-6.054-.476-8.539s-4.534-4.1-7.019-5.908A21.93,21.93,0,0,1,76.28,347.5c-1.494-3.886-1.018-8.737,2.009-11.592,2.181-2.049,5.578-3.119,6.477-5.975s-1-5.419-2.049-7.733c-1.322-2.974-3.04-5.8-3.609-9.081a10.191,10.191,0,0,1,2.538-9.16,11.659,11.659,0,0,1,7.481-2.578,30.574,30.574,0,0,1,15.862,4.111,56.561,56.561,0,0,1,12.967,10.35,76.665,76.665,0,0,1,17.461,26.925,55.079,55.079,0,0,1,3.278,22.88,83.181,83.181,0,0,1-5.036,24.044c-2.062,5.155-4.507,9.742-10.574,10.482C114.89,401.191,106.774,398.838,99.332,395.586Z" transform="translate(-75.459 -258.209)" fill="#455a64"/>
        <path id="Path_12884" data-name="Path 12884" d="M124.246,392.932a.541.541,0,0,0,.251,0,.78.78,0,0,0,.78-.793c-.093-57.631-36.76-83.922-37.13-84.173a.767.767,0,0,0-1.084.185.78.78,0,0,0,.2,1.084c10.112,7.072,36.376,35.689,36.456,82.917A.78.78,0,0,0,124.246,392.932Z" transform="translate(-71.769 -256.136)" fill="#fafafa"/>
        <path id="Path_12885" data-name="Path 12885" d="M119.617,347.923a.806.806,0,0,0,.714-.106.78.78,0,0,0,.185-1.1c-8.089-11.235-26.436-15.782-36.852-15.426a.78.78,0,0,0-.753.806.806.806,0,0,0,.806.753c10.085-.357,27.758,3.965,35.53,14.778a.713.713,0,0,0,.37.291Z" transform="translate(-73.062 -248.587)" fill="#fafafa"/>
      </g>
      <g id="freepik--plant--inject-500-4" data-name="freepik--plant--inject-500" transform="translate(356.411 18.612)">
        <path id="Path_12886" data-name="Path 12886" d="M347.03,369.8h-.106a1.057,1.057,0,0,1-1.15-.952c-4.626-50.229,14.011-130.767,69.924-152.484a1.057,1.057,0,1,1,.767,1.97c-54.895,21.321-73.149,100.735-68.576,150.316a1.057,1.057,0,0,1-.859,1.15Z" transform="translate(-345.098 -192.096)" fill="#455a64"/>
        <path id="Path_12887" data-name="Path 12887" d="M400.819,208.488a16.113,16.113,0,0,1,4.3-9.015,4.19,4.19,0,0,1,3.648-1.467,3.41,3.41,0,0,1,2.287,3.423,10.059,10.059,0,0,1-1.322,4.19,15.4,15.4,0,0,1,6.609-4.825,3.767,3.767,0,0,1,3.172-.093,3.093,3.093,0,0,1,1.256,2.789c0,2.644-3.873,8.222-5.723,10.046-4.64,1.19-6.979,2.868-10.958,5.671-1.85,1.322-3.159-.106-3.529-2.578a27.569,27.569,0,0,1,.264-8.142Z" transform="translate(-327.311 -197.982)" fill="#e53935"/>
        <path id="Path_12888" data-name="Path 12888" d="M410.519,212.623a16.073,16.073,0,0,1,9.821-1.8,4.177,4.177,0,0,1,3.331,2.088,3.41,3.41,0,0,1-1.428,3.86,10.2,10.2,0,0,1-4.177,1.322,15.373,15.373,0,0,1,7.759,2.5,3.7,3.7,0,0,1,1.93,2.511,3.119,3.119,0,0,1-1.52,2.644c-2.128,1.494-4.97,1.4-7.534.965a35.98,35.98,0,0,1-14.117-5.684c-1.877-1.322-2.644-2.207-.846-3.965a27.682,27.682,0,0,1,6.781-4.441Z" transform="translate(-326.555 -193.896)" fill="#e53935"/>
        <path id="Path_12889" data-name="Path 12889" d="M401.024,215.944s-7.785-6.781-5.816-13.218,7.376-1.507,7.376-1.507a27.111,27.111,0,0,0-1.56,14.725Z" transform="translate(-329.075 -197.521)" fill="#e53935"/>
        <path id="Path_12890" data-name="Path 12890" d="M403,219c1.11,1.692,8.3,6.424,13.972,6.781a4.745,4.745,0,0,1-.132,5.988C414.235,234.611,403.9,229.852,403,219Z" transform="translate(-326.464 -191.218)" fill="#e53935"/>
        <path id="Path_12891" data-name="Path 12891" d="M380.647,269.345a32.27,32.27,0,0,1-8.156.093c-4.917-.357-10.006-.727-15.624,2.34l-2.578,1.4,1.084-2.723c2.71-6.781,12.967-19.087,24.44-16.84,4.93.965,7.931,3.78,7.931,7.521a8.525,8.525,0,0,1-6.609,8.1Zm-18.122-1.811a37.934,37.934,0,0,1,10.112-.212,28.022,28.022,0,0,0,8.05-.145,6.464,6.464,0,0,0,4.957-6.014c0-2.71-2.3-4.692-6.239-5.472-9.015-1.758-17.184,6.992-20.739,12.927a22.676,22.676,0,0,1,3.86-1.084Z" transform="translate(-342.14 -180.166)" fill="#455a64"/>
        <path id="Path_12892" data-name="Path 12892" d="M356.205,269.924a.753.753,0,0,1-.5-.092.7.7,0,0,1-.238-.965c3.754-6.186,15.7-11.42,23.687-10.363a.707.707,0,0,1-.185,1.4c-8.182-1.084-19.1,4.415-22.286,9.689A.74.74,0,0,1,356.205,269.924Z" transform="translate(-341.795 -178.55)" fill="#455a64"/>
        <path id="Path_12893" data-name="Path 12893" d="M398.745,245.8a7.929,7.929,0,0,1-1.943.119,29.356,29.356,0,0,1-8.38-2.155c-4.64-1.665-9.451-3.384-15.663-1.969l-2.868.661,1.784-2.34c4.428-5.79,17.633-14.857,28.075-9.6,4.494,2.274,6.609,5.776,5.618,9.4a8.486,8.486,0,0,1-6.622,5.882Zm-23.409-6.609c5.406-.5,9.834,1.1,13.8,2.538a28.5,28.5,0,0,0,7.785,2.022,6.437,6.437,0,0,0,6.4-4.428c.7-2.644-.952-5.155-4.521-6.953-8.2-4.1-18.479,2.1-23.475,6.873Z" transform="translate(-337.12 -188.022)" fill="#455a64"/>
        <path id="Path_12894" data-name="Path 12894" d="M397.022,236.511a.634.634,0,0,1-.41,0c-7.587-3.252-19.576-.912-24.083,3.3a.706.706,0,0,1-.965-1.031c5.287-4.944,18.215-6.741,25.6-3.569a.714.714,0,0,1-.145,1.322Z" transform="translate(-336.653 -186.51)" fill="#455a64"/>
        <path id="Path_12895" data-name="Path 12895" d="M363.238,268l-2.049-.555c.714-3.357-4.56-11.09-9.874-16.668a12.848,12.848,0,0,1-3.635-10.879,7.931,7.931,0,0,1,5.129-5.8,6.688,6.688,0,0,1,7.4,1.652C365.433,240.654,368.142,253.3,363.238,268ZM354.5,235.79a4.922,4.922,0,0,0-.9.264,5.882,5.882,0,0,0-3.846,4.3,10.786,10.786,0,0,0,3.093,8.975c.37.383,7.138,7.534,9.623,13.615,2.789-11.9.4-21.783-3.714-25.643a4.957,4.957,0,0,0-4.256-1.507Z" transform="translate(-344.307 -186.516)" fill="#455a64"/>
        <path id="Path_12896" data-name="Path 12896" d="M360.505,266.814a.794.794,0,0,1-.251,0,.714.714,0,0,1-.582-.82c1.837-10.667-3.754-23.449-6.186-26.436a.706.706,0,0,1,1.11-.872c2.538,3.186,8.367,16.523,6.464,27.613a.7.7,0,0,1-.555.515Z" transform="translate(-342.447 -184.97)" fill="#455a64"/>
        <path id="Path_12897" data-name="Path 12897" d="M378.681,243.532l-1.9-.925c1.322-3.172-2.392-11.751-6.609-18.228a12.848,12.848,0,0,1-1.52-11.368,7.931,7.931,0,0,1,6.12-4.732,6.728,6.728,0,0,1,6.953,3.014C385.977,217.083,386.268,230.01,378.681,243.532Zm-3.4-33.191h-.066a5.882,5.882,0,0,0-4.587,3.49,10.839,10.839,0,0,0,1.322,9.4c.291.449,5.6,8.737,6.9,15.188,4.957-11.1,4.494-21.334,1.163-25.894A4.706,4.706,0,0,0,375.284,210.341Z" transform="translate(-337.742 -194.707)" fill="#455a64"/>
        <path id="Path_12898" data-name="Path 12898" d="M375.95,242.15a.7.7,0,0,1-.793-.938c3.807-10.138.714-23.793-1.1-27.19a.7.7,0,0,1,.291-.952.714.714,0,0,1,.965.291c1.89,3.608,5.129,17.8,1.163,28.34A.661.661,0,0,1,375.95,242.15Z" transform="translate(-335.804 -193.154)" fill="#455a64"/>
      </g>
    </g>
    <g id="freepik--Characters--inject-500" transform="translate(127.493 30.757)">
      <g id="freepik--Groom--inject-500" transform="translate(164.42 0)">
        <path id="Path_12899" data-name="Path 12899" d="M296.419,383l-8.129-2.591,2.34-5.538,5.142,4.322Z" transform="translate(-215.59 85.269)"/>
        <path id="Path_12900" data-name="Path 12900" d="M314.748,369.82s.568,5.182.727,6.821-6.609,7.058-8.261,7.931l-.648-3.82c-1.428,1.573-2.221,3.529-3.7,6.4-1.216,2.406-2.644,6.913-6.252,10.1-5.287,4.745-13.694,7.429-22.391,8.182s-13.8-1.137-16.377-2.908-3.463-3.965-2.961-6.186S314.748,369.82,314.748,369.82Z" transform="translate(-226.385 83.644)" fill="#263238"/>
        <path id="Path_12901" data-name="Path 12901" d="M302.577,371.19l-19.893-1-2.274-30.6,22.444-5.525Z" transform="translate(-218.126 72.136)" fill="#ffa8a7"/>
        <path id="Path_12902" data-name="Path 12902" d="M290.754,358.01l-.251-3c-1.613,0-1.586,4.4-3.741,8.354a78.513,78.513,0,0,1-11.487,16.3c-8.433,8.486-16.073,13.945-19.827,17.765-5.036,5.115,4.626,12.359,18.809,10.852,7.045-.74,19.4-4.917,22.722-9.253s5.155-10.958,7.838-14.13,8.579-6.53,10.151-10.3c.859-2.062.119-6.754-.661-10.746-.714-3.648-1.1-9.253-3.146-8.724v1.9c-.78,1.652-2.644,4.4-8.248,5.644C300.02,363.285,291.561,363.959,290.754,358.01Z" transform="translate(-226.594 78.878)" fill="#455a64"/>
        <path id="Path_12903" data-name="Path 12903" d="M293.831,361.9c-2.723-.106-5.7-.859-6.953-3.252v-.079a6.926,6.926,0,0,1-1.547,5.9c-2.392,3.093-17.421,24.89-17.421,24.89S282,371.3,284.71,367.889c3.965-5.023,5.287-5.657,9.253-5.988Z" transform="translate(-222.149 80.024)" opacity="0.15"/>
        <path id="Path_12904" data-name="Path 12904" d="M255.439,390.724c3.186-3.225,9.121-7.627,15.981-14.038-1.4,2.485-3.5,4.468-3.688,5.287-.463,2,5.525,4.454,9.134,5.221s7.389-4.547,12.412-9.424,9.927.291,12.029,6.609a42.735,42.735,0,0,1-4.336,7.931c-3.318,4.349-15.677,8.526-22.722,9.253C260.065,403.083,250.4,395.879,255.439,390.724Z" transform="translate(-226.597 85.581)" fill="#37474f"/>
        <path id="Path_12905" data-name="Path 12905" d="M285.053,365.677a.872.872,0,1,0,1.718-.278.886.886,0,0,0-1-.727A.872.872,0,0,0,285.053,365.677Z" transform="translate(-216.636 81.984)" opacity="0.15"/>
        <path id="Path_12906" data-name="Path 12906" d="M282.053,369.347a.846.846,0,0,0,.991.714.872.872,0,0,0,.727-.991.886.886,0,0,0-1-.727.872.872,0,0,0-.714,1Z" transform="translate(-217.601 83.165)" opacity="0.15"/>
        <path id="Path_12907" data-name="Path 12907" d="M279,373.017a.872.872,0,0,0,1,.714.846.846,0,0,0,.714-.991.859.859,0,0,0-.991-.727.886.886,0,0,0-.727,1Z" transform="translate(-218.582 84.346)" opacity="0.15"/>
        <path id="Path_12908" data-name="Path 12908" d="M276,376.685a.845.845,0,1,0,.727-1A.886.886,0,0,0,276,376.685Z" transform="translate(-219.548 85.529)" opacity="0.15"/>
        <path id="Path_12909" data-name="Path 12909" d="M273,380.357a.872.872,0,0,0,1,.714.859.859,0,0,0,.714-.991.872.872,0,0,0-.991-.727A.886.886,0,0,0,273,380.357Z" transform="translate(-220.513 86.709)" opacity="0.15"/>
        <path id="Path_12910" data-name="Path 12910" d="M288.189,366.582a.423.423,0,0,0,.225-.119.357.357,0,0,0,0-.489c-.185-.172-4.56-3.965-10.019-3.41h0a.353.353,0,0,0,.079.7c5.155-.555,9.451,3.2,9.491,3.225a.331.331,0,0,0,.225.092Z" transform="translate(-218.873 81.291)" fill="#263238"/>
        <path id="Path_12911" data-name="Path 12911" d="M285.2,370.242a.344.344,0,0,0,.211-.119.357.357,0,0,0,0-.5c-.185-.159-4.573-3.965-10.033-3.4h0a.353.353,0,0,0,.079.7c5.142-.555,9.451,3.186,9.491,3.225a.437.437,0,0,0,.251.092Z" transform="translate(-219.845 82.468)" fill="#263238"/>
        <path id="Path_12912" data-name="Path 12912" d="M282.2,373.922a.344.344,0,0,0,.211-.119.357.357,0,0,0,0-.5c-.185-.159-4.573-3.965-10.033-3.4h0a.352.352,0,0,0,.079.7c5.142-.555,9.451,3.186,9.491,3.225A.37.37,0,0,0,282.2,373.922Z" transform="translate(-220.811 83.653)" fill="#263238"/>
        <path id="Path_12913" data-name="Path 12913" d="M279.2,377.592a.343.343,0,0,0,.212-.119.357.357,0,0,0,0-.5c-.185-.159-4.573-3.965-10.033-3.4h0a.352.352,0,0,0,.079.7c5.142-.555,9.451,3.186,9.491,3.225a.41.41,0,0,0,.251.093Z" transform="translate(-221.776 84.834)" fill="#263238"/>
        <path id="Path_12914" data-name="Path 12914" d="M276.182,381.249a.278.278,0,0,0,.225-.106.357.357,0,0,0,0-.5c-.185-.159-4.573-3.965-10.033-3.4h0a.357.357,0,0,0-.3.383.37.37,0,0,0,.4.317c5.142-.555,9.438,3.186,9.477,3.225A.357.357,0,0,0,276.182,381.249Z" transform="translate(-222.741 86.015)" fill="#263238"/>
        <path id="Path_12915" data-name="Path 12915" d="M269.1,174.917l36.773-19.827c6.517,22.246,9.583,33.045,10.191,44.624,1.745,32.675-5.869,100.008-5.869,100.008,1.322,4.309,1.243,18.809.423,36.033-1.322,27.19-.251,92.527-.251,92.527s-25.114,9.253-32.5-1.057c0,0-4.507-104.82-6.5-128.11C269.193,273.934,269.1,174.917,269.1,174.917Z" transform="translate(-221.766 14.542)" fill="#37474f"/>
        <path id="Path_12916" data-name="Path 12916" d="M276.31,217.17s-.212,55.291.317,64.9,5.525,102.15,5.525,102.15-1.044-88.271-2.287-102.81S276.31,217.17,276.31,217.17Z" transform="translate(-219.459 34.52)" fill="#263238"/>
        <path id="Path_12917" data-name="Path 12917" d="M356.819,390.172l-8.5-.806,1.1-5.9,5.948,3.106Z" transform="translate(-196.272 88.037)"/>
        <path id="Path_12918" data-name="Path 12918" d="M370.753,376.37s1.679,4.93,2.181,6.49-4.9,8.327-6.358,9.583l-1.454-3.582a30.23,30.23,0,0,0-2.221,7.045c-.687,2.644-1.176,7.336-3.965,11.209-4.111,5.763-11.764,10.2-20.1,12.808s-13.72,1.851-16.615.687S317.987,417.5,318,415.2,370.753,376.37,370.753,376.37Z" transform="translate(-206.029 85.752)" fill="#263238"/>
        <path id="Path_12919" data-name="Path 12919" d="M360.3,378.353l-19.642,3.3-8.816-29.4,20.739-10.231Z" transform="translate(-201.576 74.701)" fill="#ffa8a7"/>
        <path id="Path_12920" data-name="Path 12920" d="M343.847,369.833l-.886-2.882c-1.573.383-.608,4.64-1.864,8.962a77.733,77.733,0,0,1-7.706,18.386c-6.411,10.112-12.7,17.078-15.545,21.625-3.82,6.067,7.164,11.077,20.7,6.609,6.715-2.247,17.884-8.988,20.2-13.945s2.644-11.817,4.6-15.478,6.979-8.222,7.706-12.24c.4-2.207-1.322-6.609-2.948-10.35-1.494-3.423-3.08-8.843-4.957-7.852l.357,1.864c-.4,1.784-1.6,4.864-6.847,7.3C353.985,372.992,345.922,375.477,343.847,369.833Z" transform="translate(-206.326 81.305)" fill="#455a64"/>
        <path id="Path_12921" data-name="Path 12921" d="M348.447,370.972c-2.644.489-5.75.4-7.495-1.665l-.066-.066a6.913,6.913,0,0,1-.238,6.08c-1.679,3.542-11.658,28.062-11.658,28.062s9.874-20.673,11.791-24.586c2.815-5.763,3.965-6.609,7.68-7.825Z" transform="translate(-202.493 83.457)" opacity="0.15"/>
        <path id="Path_12922" data-name="Path 12922" d="M317.847,408.5c2.406-3.846,7.257-9.411,12.57-17.184-.82,2.723-2.459,5.115-2.459,5.935,0,2.049,6.358,3.159,10.046,3.133s6.239-6.027,10.1-11.9,9.742-1.851,13.218,3.965a44.651,44.651,0,0,1-2.538,8.631c-2.313,4.957-13.482,11.7-20.2,13.945C325.011,419.579,314.027,414.569,317.847,408.5Z" transform="translate(-206.326 88.727)" fill="#37474f"/>
        <path id="Path_12923" data-name="Path 12923" d="M342.253,375.639a.872.872,0,1,0,.075-.914.873.873,0,0,0-.075.914Z" transform="translate(-198.255 85.108)" opacity="0.15"/>
        <path id="Path_12924" data-name="Path 12924" d="M340.105,379.841a.859.859,0,0,0,1.124.489.872.872,0,1,0-1.124-.489Z" transform="translate(-198.936 86.484)" opacity="0.15"/>
        <path id="Path_12925" data-name="Path 12925" d="M337.954,384.069a.872.872,0,1,0,.489-1.124.872.872,0,0,0-.489,1.124Z" transform="translate(-199.627 87.848)" opacity="0.15"/>
        <path id="Path_12926" data-name="Path 12926" d="M335.814,388.289a.872.872,0,1,0,.489-1.124A.872.872,0,0,0,335.814,388.289Z" transform="translate(-200.315 89.206)" opacity="0.15"/>
        <path id="Path_12927" data-name="Path 12927" d="M333.675,392.531a.872.872,0,1,0,.2-.951.872.872,0,0,0-.2.951Z" transform="translate(-201.005 90.568)" opacity="0.15"/>
        <path id="Path_12928" data-name="Path 12928" d="M345.535,375.907a.317.317,0,0,0,.185-.159.344.344,0,0,0-.132-.476c-.212-.119-5.287-2.908-10.575-1.163h0a.357.357,0,0,0,.238.661c4.9-1.652,9.9,1.084,9.953,1.11a.33.33,0,0,0,.33.026Z" transform="translate(-200.612 84.84)" fill="#263238"/>
        <path id="Path_12929" data-name="Path 12929" d="M343.4,380.128a.317.317,0,0,0,.185-.159.331.331,0,0,0-.132-.476c-.211-.119-5.287-2.921-10.575-1.163h0a.351.351,0,0,0,.238.661c4.9-1.652,9.914,1.084,9.953,1.11a.37.37,0,0,0,.33.026Z" transform="translate(-201.315 86.197)" fill="#263238"/>
        <path id="Path_12930" data-name="Path 12930" d="M341.272,384.368a.347.347,0,0,0,.04-.634c-.212-.119-5.287-2.921-10.574-1.163h0a.349.349,0,1,0,.225.661c4.9-1.652,9.914,1.084,9.966,1.11a.37.37,0,0,0,.344.026Z" transform="translate(-202.007 87.561)" fill="#263238"/>
        <path id="Path_12931" data-name="Path 12931" d="M339.117,388.578a.383.383,0,0,0,.2-.159.357.357,0,0,0-.145-.476c-.211-.119-5.287-2.921-10.574-1.163h0a.357.357,0,0,0-.211.436.37.37,0,0,0,.449.225c4.9-1.652,9.914,1.084,9.966,1.11A.344.344,0,0,0,339.117,388.578Z" transform="translate(-202.693 88.916)" fill="#263238"/>
        <path id="Path_12932" data-name="Path 12932" d="M336.978,392.83a.37.37,0,0,0,.185-.159.344.344,0,0,0-.132-.476c-.212-.119-5.287-2.921-10.575-1.176h0a.344.344,0,0,0-.211.436.37.37,0,0,0,.449.225c4.9-1.652,9.914,1.084,9.953,1.11a.37.37,0,0,0,.331.04Z" transform="translate(-203.382 90.283)" fill="#263238"/>
        <path id="Path_12933" data-name="Path 12933" d="M307.628,225.9s-7.111-3.846-17.62-13.482C274.7,198.4,271.82,184.364,271.82,184.364l6.609-1.956L348.551,168c5,21.506,6.279,33.045,6.9,44.611,1.732,32.675,0,100.458,0,100.458,1.322,4.322,5.287,8.1,9.966,31.34C370.7,371.1,381.7,430.67,381.7,430.67s-4.481,13.615-30.521,10.218c0,0-36.152-109.089-38.147-132.379C310.84,283.275,307.628,225.9,307.628,225.9Z" transform="translate(-220.891 18.696)" fill="#37474f"/>
        <path id="Path_12934" data-name="Path 12934" d="M307.61,226.33s.938,56.269,1.454,65.879,30.574,99.717,30.574,99.717S313.558,306.088,312.3,291.548,307.61,226.33,307.61,226.33Z" transform="translate(-209.373 37.468)" fill="#263238"/>
        <path id="Path_12935" data-name="Path 12935" d="M306.939,267.957s-3.6-46.99-3.318-54.67c0,0-14.289-2.313-19.312-6.107,0,0,4.23,5.882,14.9,9.676Z" transform="translate(-216.871 31.305)" fill="#263238"/>
        <path id="Path_12936" data-name="Path 12936" d="M290.445,95.09c-11.077,1.322-19.219,2.789-24.837,17.99-3.873,10.482-32.318,88.971-32.318,88.971s21.347,2.736,27.137,3,8.01-.806,11.354-9.887,14.143-54.194,14.143-54.194Z" transform="translate(-233.29 -4.767)" fill="#263238"/>
        <path id="Path_12937" data-name="Path 12937" d="M271.1,129.652c1.837-14.725,11.777-34.288,18.505-34.816l30.243-2.445c6.517,1.573,18.333,3.463,25.114,5.723,8.988,2.062,12.108,23.171,8.473,59.323l-3.965,43.131c-11.989,13.046-54.723,14.54-80.908-4.626C268.089,192.94,268.763,148.263,271.1,129.652Z" transform="translate(-221.984 -5.636)" fill="#fafafa"/>
        <path id="Path_12938" data-name="Path 12938" d="M297.053,107.1s-9.61,37.923-7.31,79.824c0,0-3.886-18.955-.78-44.7S297.053,107.1,297.053,107.1Z" transform="translate(-215.761 -0.902)" fill="#e0e0e0"/>
        <path id="Path_12939" data-name="Path 12939" d="M292.874,173.93c-4.838-19.351-.714-56.653,2.71-79.89a117.138,117.138,0,0,0-16.126,1.639c-5.115,1.084-13.588,12.425-11.777,42.88,2.181,36.482,1.216,89.13,1.216,89.13s13.152-1.6,23.978-20.845c0,0,11.791,17.712,32.728,26.211,20.3,8.248,33.944,6.133,33.944,6.133s.145-16.919-2.855-30.084c-7.442-32.636-3-36.442-1.4-53.322,2.168-23.145,8.552-38,1.6-55.78-1.56-3.965-26.621-6.741-26.621-6.741C313.125,118.3,300,144.123,292.874,173.93Z" transform="translate(-222.303 -5.356)" fill="#455a64"/>
        <path id="Path_12940" data-name="Path 12940" d="M288.086,154.29c-2.141,6.609-4.031,19.523-4.031,19.523s.5,8.3,4.031,13.39c0,0-3.727-2.115-5.776-13.086a94.805,94.805,0,0,1,5.776-19.827Z" transform="translate(-217.515 14.284)" fill="#37474f"/>
        <circle id="Ellipse_509" data-name="Ellipse 509" cx="22.92" cy="22.92" r="22.92" transform="translate(47.613 12.125) rotate(-5.65)" fill="#263238"/>
        <path id="Path_12941" data-name="Path 12941" d="M326.6,46.333a9.094,9.094,0,0,0-6.7-4.243l-9.253,1.322L305.79,63.979V93.852h6.345c3.542,0,5.591-3.569,6.754-8.156C318.836,85.7,331.288,54.462,326.6,46.333Z" transform="translate(-209.959 -21.823)" fill="#263238"/>
        <path id="Path_12942" data-name="Path 12942" d="M320.651,72.724c1.414.846,2.644-2.036,4.137-4.084,2.022-2.789,9.966-5,12.822,1.018s-1.6,12.874-6.094,14.844a5.6,5.6,0,0,1-7.032-1.4l-.753,30.4s1.322,4.521-13.945,3.965a59.8,59.8,0,0,0-3.965,7.4l-1.679-7.944s-5.816-3.119-7.177-3.965V102.8s-3.846.264-6.794.278c-5.1,0-11.09-.634-13.879-8.79-3.067-8.922-4.336-24.691-1.507-41.267,3.609-21.241,28.829-21.043,42.3-12.6S320.651,72.724,320.651,72.724Z" transform="translate(-220.444 -24.078)" fill="#ffa8a7"/>
        <path id="Path_12943" data-name="Path 12943" d="M332.558,47a12.874,12.874,0,0,0-2.644-7.323c-3.133-3.807-8.367-4.983-13.02-5.552-6.675-.833-13.4-.423-20.039-1.771-1.652-.33-3.278-.753-4.891-1.19-1.322-.37-2.644-.449-3.965-.714a86.343,86.343,0,0,1-10.323-3.371,3.661,3.661,0,0,0-2.141-.264,3.225,3.225,0,0,0-1.864,2.776,12.213,12.213,0,0,0,1.507,8.248,7.6,7.6,0,0,0-2.353-1.137,2.432,2.432,0,0,0-2.379.714,3.239,3.239,0,0,0-.4,2.419,3.705,3.705,0,0,0,.159,1.071c2.234,11.592,11.077,15.307,21.6,15.465A30.877,30.877,0,0,0,307.365,51.8a14.95,14.95,0,0,0,10.694,10.456c-.251,2.644-2.882,18.968,3.384,16.787,3.159-1.1,2.855-6.609,5.129-8.724S332.558,47,332.558,47Z" transform="translate(-221.487 -26.757)" fill="#263238"/>
        <path id="Path_12944" data-name="Path 12944" d="M316.191,46.352l8.592-4.613a4.745,4.745,0,0,0-6.5-2.155,5.142,5.142,0,0,0-2.088,6.768Z" transform="translate(-206.784 -22.806)" fill="#263238"/>
        <path id="Path_12945" data-name="Path 12945" d="M291.2,90.385s9.094-.476,14.54-3.965,7.746-11.262,8.473-13.02c0,0-.978,10.416-5.908,15.042-4.468,4.177-17.078,5.287-17.078,5.287Z" transform="translate(-214.654 -11.747)" fill="#f28f8f"/>
        <path id="Path_12946" data-name="Path 12946" d="M315.952,90.226l-.066,2.644a10.218,10.218,0,0,1-6.12,4.785c-7.706,2.644-9.253,2.274-9.477,3.106s-2.419,7.931-2.419,7.931l3.582-5.472a46.1,46.1,0,0,1,3.04,6.768c.317,1.652,7.667.41,11.817-3.556,5.723-5.472,5.842-10.574,5.842-10.574a90.231,90.231,0,0,0-3.965-9.253,3.212,3.212,0,0,0-2.115-1.414Z" transform="translate(-212.507 -7.953)" fill="#f0f0f0"/>
        <path id="Path_12947" data-name="Path 12947" d="M301.163,108.2s-.132-8.116-.9-9.12-3.86-1.732-5.578-3.278a5.591,5.591,0,0,1-2.353-4.428v-4.2s-.78-.093-2,2.525c-1.031,2.221-2.062,4.415-2.445,5.525s-.793,6.609,2.485,10.138c3.846,4.1,4.428,2.5,5.129,1.52s3.622-5.393,3.622-5.393Z" transform="translate(-215.8 -7.316)" fill="#f0f0f0"/>
        <path id="Path_12948" data-name="Path 12948" d="M291.611,63.329a2.644,2.644,0,1,0,1.527-2.544A2.644,2.644,0,0,0,291.611,63.329Z" transform="translate(-214.523 -15.885)" fill="#263238"/>
        <path id="Path_12949" data-name="Path 12949" d="M293.26,54.991l5.618,2.723a3.291,3.291,0,0,0-1.507-4.283,3.053,3.053,0,0,0-4.111,1.56Z" transform="translate(-213.991 -18.267)" fill="#263238"/>
        <path id="Path_12950" data-name="Path 12950" d="M295.815,73.44l-8.645,2.326a4.415,4.415,0,0,0,5.406,3.318,4.706,4.706,0,0,0,3.238-5.644Z" transform="translate(-215.951 -11.734)" fill="#b16668"/>
        <path id="Path_12951" data-name="Path 12951" d="M294.72,75.941a2.921,2.921,0,0,0-5,2.075,2.8,2.8,0,0,0,0,.582,4.375,4.375,0,0,0,1.983,0A4.547,4.547,0,0,0,294.72,75.941Z" transform="translate(-215.134 -11.208)" fill="#f28f8f"/>
        <path id="Path_12952" data-name="Path 12952" d="M275.624,58.082l4.759-4.1a3.014,3.014,0,0,0-4.349-.436,3.3,3.3,0,0,0-.41,4.534Z" transform="translate(-219.896 -18.371)" fill="#263238"/>
        <path id="Path_12953" data-name="Path 12953" d="M277,62.623a2.551,2.551,0,1,0,2.392-2.8A2.644,2.644,0,0,0,277,62.623Z" transform="translate(-219.225 -16.118)" fill="#263238"/>
        <path id="Path_12954" data-name="Path 12954" d="M287.573,60.21l.489,15.373-8.222-2.036Z" transform="translate(-218.31 -15.992)" fill="#f28f8f"/>
        <path id="Path_12955" data-name="Path 12955" d="M299.081,101.446a13.971,13.971,0,0,0-8.063-6.609c-2.075-.595-3.556.476-3.186,4.573.264,2.961-1.758,6.411-1.89,7.733s1.19,2.882,3.965,3.053a11.9,11.9,0,0,0,8.01-2.8A19.576,19.576,0,0,0,299.081,101.446Z" transform="translate(-216.349 -4.897)" fill="#e53935"/>
        <path id="Path_12956" data-name="Path 12956" d="M299.081,101.446a13.971,13.971,0,0,0-8.063-6.609c-2.075-.595-3.556.476-3.186,4.573.264,2.961-1.758,6.411-1.89,7.733s1.19,2.882,3.965,3.053a11.9,11.9,0,0,0,8.01-2.8A19.576,19.576,0,0,0,299.081,101.446Z" transform="translate(-216.349 -4.897)" opacity="0.1"/>
        <path id="Path_12957" data-name="Path 12957" d="M296.551,102.138s-4.706-5.565-5.829-4.1C289,100.313,296.551,102.138,296.551,102.138Z" transform="translate(-214.89 -3.897)" opacity="0.1"/>
        <path id="Path_12958" data-name="Path 12958" d="M296.752,102s-6.609.185-6.146,1.8C291.227,106.3,296.752,102,296.752,102Z" transform="translate(-214.853 -2.543)" opacity="0.1"/>
        <path id="Path_12959" data-name="Path 12959" d="M298.885,99.274c-1.586-.145-3.265-.185-4.045,2.115s-.635,4.309.436,4.917a9.847,9.847,0,0,0,4.8.912,2.393,2.393,0,0,0,2.419-2.022c.357-1.229,1.124-3.86-.661-4.983a6.041,6.041,0,0,0-2.948-.939Z" transform="translate(-213.641 -3.439)" fill="#e53935"/>
        <path id="Path_12960" data-name="Path 12960" d="M300.613,101.6c1.771-1.705,5.8-5.115,10.693-4.93,2.366.093,3.556,1.718,1.771,5.882-1.322,3-.317,7.283-.634,8.711s-2.234,2.644-5.155,1.864a13.853,13.853,0,0,1-7.666-5.856A11,11,0,0,1,300.613,101.6Z" transform="translate(-211.959 -4.26)" fill="#e53935"/>
        <path id="Path_12961" data-name="Path 12961" d="M300.613,101.6c1.771-1.705,5.8-5.115,10.693-4.93,2.366.093,3.556,1.718,1.771,5.882-1.322,3-.317,7.283-.634,8.711s-2.234,2.644-5.155,1.864a13.853,13.853,0,0,1-7.666-5.856A11,11,0,0,1,300.613,101.6Z" transform="translate(-211.959 -4.26)" opacity="0.1"/>
        <path id="Path_12962" data-name="Path 12962" d="M299.73,102.917v-.211c1.243-.846,5.723-3.807,6.345-2.326C307.106,102.653,301.091,102.891,299.73,102.917Z" transform="translate(-211.909 -3.196)" opacity="0.1"/>
        <path id="Path_12963" data-name="Path 12963" d="M304.8,106.266c-1.031,1.89-4.177-1.639-5.195-2.855v-.291C300.905,103.5,305.413,105.023,304.8,106.266Z" transform="translate(-211.947 -2.183)" opacity="0.1"/>
        <path id="Path_12964" data-name="Path 12964" d="M320.56,186.14c-1.93.952-8.407,3.807-11.9,3.622-5.776-.3-9.477.582-14.817.7-4.19.079-6.45-1.137-6.873-.185-.529,1.216-.489,4.1,2.776,5.842a34.049,34.049,0,0,0,7.574,2.274,44.371,44.371,0,0,1-13.694,3.582c-10.826,1.057-14.7,4.494-5.01,14.421,6.08,6.212,14.765,7.349,32.966-1.52A149.678,149.678,0,0,0,327.79,204.54Z" transform="translate(-220.486 24.534)" fill="#ffa8a7"/>
        <path id="Path_12965" data-name="Path 12965" d="M315.7,182.88l-8.552,4.2L315.7,207.77l12.134-6.265Z" transform="translate(-209.521 23.485)" fill="#fafafa"/>
        <path id="Path_12966" data-name="Path 12966" d="M337.085,96.08c13.363,1.507,15.941,8.393,24.4,32.9s16.047,48.444,18.386,56.613,2.326,11.976-7.3,18.968-51.286,29.08-51.286,29.08l-9.98-22.246,38.954-27.15L329.115,137.03S321.726,102.689,337.085,96.08Z" transform="translate(-208.182 -4.448)" fill="#37474f"/>
      </g>
      <g id="freepik--Bride--inject-500" transform="translate(0 18.84)">
        <path id="Path_12967" data-name="Path 12967" d="M232.122,55.907c.687-7.495-5.922-16.232-16.919-14.725-13.826,1.811-23.687,17.607-22.6,25.894s7.415,13.416,15.73,11.9S232.122,55.907,232.122,55.907Z" transform="translate(-81.991 -41.011)" fill="#37474f"/>
        <path id="Path_12968" data-name="Path 12968" d="M242.142,46.215a3.5,3.5,0,0,0-2.644,2.736,2.392,2.392,0,1,0-4.653.78,2.274,2.274,0,0,0-3.741-1.322,2.644,2.644,0,0,0-1.837-3.384,3.675,3.675,0,0,0-3.767,1.322,5.909,5.909,0,0,0-1.2,3.965,2.313,2.313,0,0,0-4.455.516,2.715,2.715,0,1,0-5.155,1.705,2.934,2.934,0,0,0-3.04.661,3.252,3.252,0,0,0-.674,3.04c.079.767.172,2.578,1.229,2.8a7.059,7.059,0,0,0-4.97.251,3.067,3.067,0,0,0-1.441,1.692,1.718,1.718,0,0,0,.753,1.956,7.786,7.786,0,0,0-3.423,1.176,3.278,3.278,0,0,0-1.467,3.119A2.128,2.128,0,0,0,204.3,68.9a4.613,4.613,0,1,0,7.931,4.256,3.714,3.714,0,0,0,4.269,2.392,8.367,8.367,0,0,0,4.468-2.842L249.7,60.147a2.831,2.831,0,1,0,.211-5.657,3.4,3.4,0,0,0-3.609-3.833,6.239,6.239,0,0,0-1.2-3.106,3.423,3.423,0,0,0-2.961-1.335Z" transform="translate(-79.057 -39.752)" fill="#e53935"/>
        <path id="Path_12969" data-name="Path 12969" d="M210.592,60.534a2.895,2.895,0,1,1,4.732-3.067,2.273,2.273,0,0,1,3.4-.542,8.566,8.566,0,0,1-1.044-2.895,2.815,2.815,0,0,1,1.15-2.644,1.732,1.732,0,0,1,2.525.833c.621-2.776,5-3.846,6.939-1.851a3.648,3.648,0,0,1,5.988-.145,2.26,2.26,0,0,1,3.965-.079,3.119,3.119,0,0,1,5.552,1.124,1.93,1.93,0,0,1,2.234.648,2.366,2.366,0,0,1,.225,2.379,3.067,3.067,0,0,1-1.864,1.573c.661-.211.952,2.644.912,2.948a2.366,2.366,0,0,1-2.221,2.141,7.838,7.838,0,0,1-13.443,3.992,12.7,12.7,0,0,1-5.909,6.609,7.032,7.032,0,0,1-8.235-1.533c.991,1.243-4.164,2.26-4.9,2-1.705-.621-3-2.908-4.058-4.322C204.141,64.473,205.807,58.709,210.592,60.534Z" transform="translate(-77.829 -38.526)" fill="#e53935"/>
        <path id="Path_12970" data-name="Path 12970" d="M210.592,60.534a2.895,2.895,0,1,1,4.732-3.067,2.273,2.273,0,0,1,3.4-.542,8.566,8.566,0,0,1-1.044-2.895,2.815,2.815,0,0,1,1.15-2.644,1.732,1.732,0,0,1,2.525.833c.621-2.776,5-3.846,6.939-1.851a3.648,3.648,0,0,1,5.988-.145,2.26,2.26,0,0,1,3.965-.079,3.119,3.119,0,0,1,5.552,1.124,1.93,1.93,0,0,1,2.234.648,2.366,2.366,0,0,1,.225,2.379,3.067,3.067,0,0,1-1.864,1.573c.661-.211.952,2.644.912,2.948a2.366,2.366,0,0,1-2.221,2.141,7.838,7.838,0,0,1-13.443,3.992,12.7,12.7,0,0,1-5.909,6.609,7.032,7.032,0,0,1-8.235-1.533c.991,1.243-4.164,2.26-4.9,2-1.705-.621-3-2.908-4.058-4.322C204.141,64.473,205.807,58.709,210.592,60.534Z" transform="translate(-77.829 -38.526)" fill="#fff" opacity="0.7"/>
        <path id="Path_12971" data-name="Path 12971" d="M263.8,66.2c-2.908-12.941-20.581-12.861-26.661-6.609L256.7,93.177S267.819,84.056,263.8,66.2Z" transform="translate(-67.631 -36.353)" fill="#263238"/>
        <path id="Path_12972" data-name="Path 12972" d="M244.631,50.356a29.08,29.08,0,0,0-7.323,2.538,64.387,64.387,0,0,1-7.759,3.582c-2.366.82-4.864,1.19-7.244,2.009a36.046,36.046,0,0,0-13.152,7.68c-11.632,11.024-9.411,29.318-.648,41.426a49.463,49.463,0,0,0,3.437,4.19c5.631,6.212,10.2,10.389,11.288,12.808l-.383-21.731a15.4,15.4,0,0,0,3.688-.82c6.53-2.445,27.956-12.187,32.794-21.149,4.071-7.508,3.49-11.592,3.49-11.619C264.538,54.612,254.822,48.545,244.631,50.356Z" transform="translate(-79.206 -38.103)" fill="#37474f"/>
        <path id="Path_12973" data-name="Path 12973" d="M249.087,71.238c-3.6-.119-5.829-2.644-10.68-6.45s-13.694-1.758-14.923,5.486,0,13.086-2.274,17.184C228.652,87.179,249.087,71.238,249.087,71.238Z" transform="translate(-72.757 -33.964)" fill="#263238"/>
        <path id="Path_12974" data-name="Path 12974" d="M244.92,115.2c9.715.582,13.6,2.168,21.07,14.183,6.847,11.011,9.61,16.457,9.61,16.457l.846,43.963-30.653-43.9Z" transform="translate(-65.127 -17.136)" fill="#ffa8a7"/>
        <path id="Path_12975" data-name="Path 12975" d="M239.984,178s-23.092,17.4-36.918,44.558-86.7,195.76-94.166,220.029c0,0,1.956,26.436,34.988,34.6A34.368,34.368,0,0,0,161.31,492.34c21.149,7.931,35.689.449,35.689.449s2.644,11.3,28.273,16.562c17.369,3.556,27.533-3.3,27.533-3.3s15.029,6.384,28.34,1.216c15.6-6.054,20.065-15.862,20.065-15.862s26.436,4.6,33.68-11.619c1.692-19.246-26.264-258.691-39.02-299.139Z" transform="translate(-108.9 3.074)" fill="#f0f0f0"/>
        <path id="Path_12976" data-name="Path 12976" d="M169.35,483.456a81.58,81.58,0,0,0,8.261-2.5S219.909,260.216,228.2,214.6C228.2,214.653,177.862,438.145,169.35,483.456Z" transform="translate(-89.447 14.852)" fill="#e6e6e6"/>
        <path id="Path_12977" data-name="Path 12977" d="M224.25,495.662c4.573-52.753,11.9-279.232,11.9-279.232C233.82,256.362,217.8,493.666,217.8,493.68h0A43.441,43.441,0,0,0,224.25,495.662Z" transform="translate(-73.855 15.441)" fill="#e6e6e6"/>
        <path id="Path_12978" data-name="Path 12978" d="M265.056,484.564c-1.11-37.883-7.931-182.978-9.5-204.325A746.741,746.741,0,0,0,244.7,201.3c7.931,42.866,11.976,242.01,12.742,282.934l.132-.264A51.77,51.77,0,0,0,265.056,484.564Z" transform="translate(-65.198 10.572)" fill="#e6e6e6"/>
        <path id="Path_12979" data-name="Path 12979" d="M137.239,471.126c8.935-30.4,61.253-198.073,93.611-274.276-32.926,65.443-71.219,177.863-101.33,271.989C131.912,469.672,134.477,470.451,137.239,471.126Z" transform="translate(-102.264 9.14)" fill="#e6e6e6"/>
        <path id="Path_12980" data-name="Path 12980" d="M207.81,172.88v6.966s5.115,8.935,30.164,8.935c26.714,0,26.225-7.2,26.225-7.2l.172-7.495Z" transform="translate(-77.07 1.426)" fill="#e53935"/>
        <path id="Path_12981" data-name="Path 12981" d="M271.58,169.065c-.529,5.935-2.974,16.88-4.732,23.793s-44.783,10.389-56.56-1.2l-9-26.859s-1.2-2.882-1.176-2.908c.674-1.163,17.831-19.655,4.428-44.942l20.581-1.718,23.3-.687c5.816.33,10.971.859,10.971.859,3.727,3.49,8.777,11.169,13.8,21.149C276.167,142.615,281.983,151.075,271.58,169.065Z" transform="translate(-79.548 -17.348)" fill="#ffa8a7"/>
        <path id="Path_12982" data-name="Path 12982" d="M254.555,143.633s-3.172-6.609-13.443-10.218c-13.43-4.719-27.758,3.2-33.653,16.338-3.965,5.5-6.887,6.688-7.389,7.561l1.176,2.908,9.054,26.859c11.777,11.592,54.815,8.076,56.56,1.2s4.613-17.911,5.142-23.793c11.619-16.827,6.107-25.273,2.644-31.063a50.225,50.225,0,0,0-3-4.256C263.557,126.529,255.11,135.7,254.555,143.633Z" transform="translate(-79.561 -12.788)" fill="#f0f0f0"/>
        <path id="Path_12983" data-name="Path 12983" d="M260.6,64.54c2.842,2.789,6.212,8.764,6.768,30.15.476,18.135-5.181,22.907-8.063,24.335s-7.931,1.057-13.5.41v11.209s2.287,5.01-7.587,6.067c-14.976,1.613-16.708-4.547-16.708-4.547l-1.163-26.238s-2.815,3.45-8.7-.938c-2.882-2.155-5.287-9.16-1.943-12.941s8.579-3.41,11.341,1.6c0,0,.264-22.167,13.086-26.079C246.716,63.72,253.021,78.591,260.6,64.54Z" transform="translate(-76.983 -33.438)" fill="#ffa8a7"/>
        <path id="Path_12984" data-name="Path 12984" d="M218.087,92.358l.3,6.08h0A4.534,4.534,0,0,0,222.7,93.68l-.238-8.037C224.895,83,224.5,72.9,224.736,68.46c0,0-6.715,8.8-7.27,11.989S218.087,92.358,218.087,92.358Z" transform="translate(-74.01 -32.177)" fill="#37474f"/>
        <path id="Path_12985" data-name="Path 12985" d="M227.545,78.281c1.48-6.371,8.975-10.072,17.355-8.222l-12.518-6.2-8.433,4.428a9.5,9.5,0,0,0-.476,1.679c-1.216,7.257,0,13.086-2.274,17.184h0a13.958,13.958,0,0,0,6.345-8.869Z" transform="translate(-72.761 -33.657)" fill="#263238"/>
        <path id="Path_12986" data-name="Path 12986" d="M237.335,83.5a2.274,2.274,0,1,1-2.644-2.022,2.34,2.34,0,0,1,2.644,2.022Z" transform="translate(-69.028 -27.996)" fill="#263238"/>
        <path id="Path_12987" data-name="Path 12987" d="M233.664,82.19a2.34,2.34,0,0,1-2.234.4s.41,1.229,2.062.806C234.827,83.023,233.664,82.19,233.664,82.19Z" transform="translate(-69.469 -27.759)" fill="#263238"/>
        <path id="Path_12988" data-name="Path 12988" d="M249.152,80.466a2.392,2.392,0,0,0,2.326-.476s-.066,1.652-1.6,1.613S249.152,80.466,249.152,80.466Z" transform="translate(-63.834 -28.467)" fill="#263238"/>
        <g id="Group_1576" data-name="Group 1576" transform="translate(170.17 71.549)" opacity="0.5">
          <path id="Path_12989" data-name="Path 12989" d="M237.706,95.14l6.7,1.428a3.371,3.371,0,0,1-3.965,2.749A3.582,3.582,0,0,1,237.706,95.14Z" transform="translate(-237.64 -95.14)" fill="#f84947"/>
        </g>
        <path id="Path_12990" data-name="Path 12990" d="M252.287,78.5,247,76.452a2.644,2.644,0,0,1,3.542-1.652,2.948,2.948,0,0,1,1.745,3.7Z" transform="translate(-64.458 -30.203)" fill="#263238"/>
        <path id="Path_12991" data-name="Path 12991" d="M235.2,77.583l-4.653,3.133a2.644,2.644,0,0,1,.648-3.846A2.948,2.948,0,0,1,235.2,77.583Z" transform="translate(-69.933 -29.629)" fill="#263238"/>
        <path id="Path_12992" data-name="Path 12992" d="M251.283,82.061a2.3,2.3,0,0,1-1.9,2.644,2.326,2.326,0,0,1-2.644-2.009,2.278,2.278,0,1,1,4.507-.661Z" transform="translate(-64.551 -28.435)" fill="#263238"/>
        <g id="Group_1577" data-name="Group 1577" transform="translate(176.329 54.075)" opacity="0.5">
          <path id="Path_12993" data-name="Path 12993" d="M242.3,81.92l1.705,13.628,6.966-2.934Z" transform="translate(-242.3 -81.92)" fill="#ffa8a7"/>
        </g>
        <g id="Group_1578" data-name="Group 1578" transform="translate(148.016 77.894)" opacity="0.5">
          <path id="Path_12994" data-name="Path 12994" d="M241.685,108.043c-5.869-.489-18.7-3.463-20.805-8.1a12.372,12.372,0,0,0,4.507,5.842c3.727,2.882,16.3,5.578,16.3,5.578Z" transform="translate(-220.88 -99.94)" fill="#ffa8a7"/>
        </g>
        <path id="Path_12995" data-name="Path 12995" d="M218.252,116.208c1.322,2.525,7.045,4.283,13.588,4.521,5.485.212,10.138-1.322,10.746-5.287V111.78s-.912,4.3-8.83,4.3c-12.689,0-15.677-3.965-15.677-3.965Z" transform="translate(-73.765 -18.236)" fill="#e53935"/>
        <path id="Path_12996" data-name="Path 12996" d="M236.637,121.239a2.221,2.221,0,0,1-4.388.648c-.185-1.2.4-3.965,1.613-4.2S236.452,120.023,236.637,121.239Z" transform="translate(-69.216 -16.341)" fill="#455a64"/>
        <path id="Path_12997" data-name="Path 12997" d="M180.061,177.163c10.072-40.976,14.051-58.94,32.834-60.8,13.284,7.006,9.253,26.793,2.855,37.354L200.5,199.026c5.512,4.679,41.307,25.035,43.871,25.7,1.93.489,4.071,1.071,5.869.225,4.825-2.26,8.658-1.322,13.5-2.234,3.78-.727,5.591-2.26,6.146-1.494.714,1,1.243,3.6-1.322,5.8a30.971,30.971,0,0,1-6.384,3.516,40.856,40.856,0,0,0,13.033.568c9.953-1.124,14.117,1.229,7.3,12.042-4.269,6.781-11.9,9.477-30.005,5.01-5.208-1.322-13.628-4.957-19.92-7.574-13.007-5.419-46.607-20.343-53.665-26.608-5.7-5.063-5.063-6.992-3.6-15.941S178.568,183.3,180.061,177.163Z" transform="translate(-87.852 -16.762)" fill="#ffa8a7"/>
      </g>
      <g id="freepik--Flowers--inject-500" transform="translate(165.438 205.838)">
        <path id="Path_12998" data-name="Path 12998" d="M250.321,202.43c1.441-7.045-2.815-10.1-12.5-11.42,0,0-1.057,5.287,1.322,8.539C241.967,203.62,247.929,204.413,250.321,202.43Z" transform="translate(-232.926 -179.736)" fill="#e53935"/>
        <path id="Path_12999" data-name="Path 12999" d="M250.321,202.43c1.441-7.045-2.815-10.1-12.5-11.42,0,0-1.057,5.287,1.322,8.539C241.967,203.62,247.929,204.413,250.321,202.43Z" transform="translate(-232.926 -179.736)" opacity="0.3"/>
        <path id="Path_13000" data-name="Path 13000" d="M239.06,192.1c2.644,1.771,9.081,5.882,10.786,9.98l.264-1.573S249.04,196.845,239.06,192.1Z" transform="translate(-232.451 -179.386)" opacity="0.2"/>
        <path id="Path_13001" data-name="Path 13001" d="M249.763,200.892c-5.737-4.349-10.323-1.824-15.7,6.371,0,0,4.309,3.212,8.261,2.525C247.2,208.929,250.53,203.906,249.763,200.892Z" transform="translate(-234.06 -177.233)" fill="#e53935"/>
        <path id="Path_13002" data-name="Path 13002" d="M249.763,200.892c-5.737-4.349-10.323-1.824-15.7,6.371,0,0,4.309,3.212,8.261,2.525C247.2,208.929,250.53,203.906,249.763,200.892Z" transform="translate(-234.06 -177.233)" opacity="0.2"/>
        <path id="Path_13003" data-name="Path 13003" d="M235.61,206.041c2.644-1.573,9.253-5.671,13.654-5.433l-1.322-.925S244.189,199.075,235.61,206.041Z" transform="translate(-233.561 -176.95)" opacity="0.2"/>
        <path id="Path_13004" data-name="Path 13004" d="M285.307,196.964c-1.441-7.045,2.8-10.1,12.5-11.434,0,0,1.057,5.287-1.256,8.539C293.661,198.153,287.7,198.946,285.307,196.964Z" transform="translate(-217.657 -181.5)" fill="#e53935"/>
        <path id="Path_13005" data-name="Path 13005" d="M285.307,196.964c-1.441-7.045,2.8-10.1,12.5-11.434,0,0,1.057,5.287-1.256,8.539C293.661,198.153,287.7,198.946,285.307,196.964Z" transform="translate(-217.657 -181.5)" opacity="0.3"/>
        <path id="Path_13006" data-name="Path 13006" d="M296.1,186.62c-2.644,1.771-9.094,5.9-10.786,9.993l-.317-1.56S286.123,191.379,296.1,186.62Z" transform="translate(-217.667 -181.149)" opacity="0.2"/>
        <path id="Path_13007" data-name="Path 13007" d="M286.547,195.41c5.737-4.336,10.323-1.811,15.7,6.371,0,0-4.309,3.212-8.261,2.525C289.072,203.473,285.78,198.424,286.547,195.41Z" transform="translate(-217.205 -178.995)" fill="#e53935"/>
        <path id="Path_13008" data-name="Path 13008" d="M286.547,195.41c5.737-4.336,10.323-1.811,15.7,6.371,0,0-4.309,3.212-8.261,2.525C289.072,203.473,285.78,198.424,286.547,195.41Z" transform="translate(-217.205 -178.995)" opacity="0.2"/>
        <path id="Path_13009" data-name="Path 13009" d="M300.174,200.551c-2.71-1.573-9.253-5.671-13.654-5.433l1.322-.925S291.583,193.6,300.174,200.551Z" transform="translate(-217.178 -178.716)" opacity="0.2"/>
        <path id="Path_13010" data-name="Path 13010" d="M266.347,182.823a7.3,7.3,0,0,0-3.622,2.882c-.33.515-1.93,4.23-1.388,4.653-2.155-1.705-6.305-3.82-8.843-2.036-1.824,1.322-3.146,6.358-.608,7.68-1.322-.687-2.961-1.322-4.177-.529s-1.11,2.974-.066,4.124a8.341,8.341,0,0,0,4.151,1.983c-1.15-.595-2.538.674-2.644,1.969a6.979,6.979,0,0,0,1.322,3.6,4.481,4.481,0,0,1,.727,3.675,15.452,15.452,0,0,0-5.287-1.322,5.287,5.287,0,0,0-4.706,2.274,3.265,3.265,0,0,0,1.322,4.613,3.119,3.119,0,1,0,2.485,5.287,4.864,4.864,0,1,0,4.811,8.446,4.362,4.362,0,0,0,8.142,3.067c.555,1.784-1.256,3.4-2.961,4.15s-3.741,1.454-4.4,3.2a3.794,3.794,0,0,0,2.5,4.547,7.27,7.27,0,0,0,5.578-.687,3.688,3.688,0,0,0,6.16,3.965c-.582.833-1.6,1.811-1.6,2.895a3.741,3.741,0,0,0,2.525,2.974,9.928,9.928,0,0,0,4.9.066,8.182,8.182,0,0,0-1.163,5.776,4.362,4.362,0,0,0,4.309,3.49,2.644,2.644,0,0,0,1.48,3.965,3.965,3.965,0,0,0,4.23-1.851,7.23,7.23,0,0,0,.753-4.8c1.124.74,2.644-.4,2.987-1.705a13.3,13.3,0,0,0-.159-3.965c0-.872.119-2.472,1-2.974s2.789.714,4.071.648c2.287-.093,4.534-2.445,3.688-4.587.4,2.511,3.965,3.49,6.027,2.009a6.384,6.384,0,0,0,1.877-6.887,18.8,18.8,0,0,0-3.966-6.45,6.186,6.186,0,1,0,3.648-11.724,11.658,11.658,0,0,0,4.732.661,3.965,3.965,0,0,0,3.476-2.855c.3-1.586-1.256-3.357-2.789-2.855a10.324,10.324,0,0,0,2.948-6.609c0-2.472-1.969-5.023-4.428-4.957a5.552,5.552,0,0,0-3.357-10.482,15.122,15.122,0,0,0-1.322-8.856A9.663,9.663,0,0,0,291.686,184a7.177,7.177,0,0,0-7.455,3.965,6.45,6.45,0,0,0-4.137-5.287c-2.274-.634-5.129,1.322-4.759,3.622A7.8,7.8,0,0,0,266.347,182.823Z" transform="translate(-232.258 -182.481)" fill="#e53935"/>
        <path id="Path_13011" data-name="Path 13011" d="M266.347,182.823a7.3,7.3,0,0,0-3.622,2.882c-.33.515-1.93,4.23-1.388,4.653-2.155-1.705-6.305-3.82-8.843-2.036-1.824,1.322-3.146,6.358-.608,7.68-1.322-.687-2.961-1.322-4.177-.529s-1.11,2.974-.066,4.124a8.341,8.341,0,0,0,4.151,1.983c-1.15-.595-2.538.674-2.644,1.969a6.979,6.979,0,0,0,1.322,3.6,4.481,4.481,0,0,1,.727,3.675,15.452,15.452,0,0,0-5.287-1.322,5.287,5.287,0,0,0-4.706,2.274,3.265,3.265,0,0,0,1.322,4.613,3.119,3.119,0,1,0,2.485,5.287,4.864,4.864,0,1,0,4.811,8.446,4.362,4.362,0,0,0,8.142,3.067c.555,1.784-1.256,3.4-2.961,4.15s-3.741,1.454-4.4,3.2a3.794,3.794,0,0,0,2.5,4.547,7.27,7.27,0,0,0,5.578-.687,3.688,3.688,0,0,0,6.16,3.965c-.582.833-1.6,1.811-1.6,2.895a3.741,3.741,0,0,0,2.525,2.974,9.928,9.928,0,0,0,4.9.066,8.182,8.182,0,0,0-1.163,5.776,4.362,4.362,0,0,0,4.309,3.49,2.644,2.644,0,0,0,1.48,3.965,3.965,3.965,0,0,0,4.23-1.851,7.23,7.23,0,0,0,.753-4.8c1.124.74,2.644-.4,2.987-1.705a13.3,13.3,0,0,0-.159-3.965c0-.872.119-2.472,1-2.974s2.789.714,4.071.648c2.287-.093,4.534-2.445,3.688-4.587.4,2.511,3.965,3.49,6.027,2.009a6.384,6.384,0,0,0,1.877-6.887,18.8,18.8,0,0,0-3.966-6.45,6.186,6.186,0,1,0,3.648-11.724,11.658,11.658,0,0,0,4.732.661,3.965,3.965,0,0,0,3.476-2.855c.3-1.586-1.256-3.357-2.789-2.855a10.324,10.324,0,0,0,2.948-6.609c0-2.472-1.969-5.023-4.428-4.957a5.552,5.552,0,0,0-3.357-10.482,15.122,15.122,0,0,0-1.322-8.856A9.663,9.663,0,0,0,291.686,184a7.177,7.177,0,0,0-7.455,3.965,6.45,6.45,0,0,0-4.137-5.287c-2.274-.634-5.129,1.322-4.759,3.622A7.8,7.8,0,0,0,266.347,182.823Z" transform="translate(-232.258 -182.481)" fill="#fff" opacity="0.5"/>
        <path id="Path_13012" data-name="Path 13012" d="M284.2,189.565c-1.322-.568-8.063,0-7.666,2.749-.621-4.2-6.318-5.168-9.187-3a6.3,6.3,0,0,0-7.455-4.507,6.146,6.146,0,0,0-3.873,7.838,6.609,6.609,0,0,0-6.279,11.394,5.988,5.988,0,0,0-.278,11.9,6.847,6.847,0,0,0,3.78,12.927,5.79,5.79,0,0,0-1.176,7.746c1.811,2.26,6.054,2.049,7.243-.595a5.1,5.1,0,0,0,9.253,4.084c-2.366,3.172-.079,8.552,3.86,9.041s7.481-4.137,5.975-7.8a12.279,12.279,0,0,0,5.155,4.706,6.675,6.675,0,0,0,6.7-.582,4.653,4.653,0,0,0,1.031-6.279,4.785,4.785,0,1,0,4.534-7.931,7.177,7.177,0,0,0,2.432-12.782,5.342,5.342,0,0,0-3.371-10.138,7.283,7.283,0,0,0,.9-9.623,6.371,6.371,0,0,0-9.345-.3,6.041,6.041,0,0,0-2.234-8.843Z" transform="translate(-230.77 -181.781)" fill="#e53935"/>
        <path id="Path_13013" data-name="Path 13013" d="M284.2,189.565c-1.322-.568-8.063,0-7.666,2.749-.621-4.2-6.318-5.168-9.187-3a6.3,6.3,0,0,0-7.455-4.507,6.146,6.146,0,0,0-3.873,7.838,6.609,6.609,0,0,0-6.279,11.394,5.988,5.988,0,0,0-.278,11.9,6.847,6.847,0,0,0,3.78,12.927,5.79,5.79,0,0,0-1.176,7.746c1.811,2.26,6.054,2.049,7.243-.595a5.1,5.1,0,0,0,9.253,4.084c-2.366,3.172-.079,8.552,3.86,9.041s7.481-4.137,5.975-7.8a12.279,12.279,0,0,0,5.155,4.706,6.675,6.675,0,0,0,6.7-.582,4.653,4.653,0,0,0,1.031-6.279,4.785,4.785,0,1,0,4.534-7.931,7.177,7.177,0,0,0,2.432-12.782,5.342,5.342,0,0,0-3.371-10.138,7.283,7.283,0,0,0,.9-9.623,6.371,6.371,0,0,0-9.345-.3,6.041,6.041,0,0,0-2.234-8.843Z" transform="translate(-230.77 -181.781)" fill="#fff" opacity="0.65"/>
        <path id="Path_13014" data-name="Path 13014" d="M253.625,211.377a13.866,13.866,0,0,0,2.472.264,12.212,12.212,0,0,0-3.49,2.644,3.661,3.661,0,0,0,2.485,6.292,12.279,12.279,0,0,0,4.15-.436,3.807,3.807,0,0,0,4.93,5.8c-.793,1.824-1.573,4.045-.476,5.71,1.243,1.877,3.965,1.784,6.213,1.48a4.666,4.666,0,0,0,.093,5.208c1.322,1.718,3,1.626,4.957,1.811a2.8,2.8,0,1,0,1.322,5.367,26.005,26.005,0,0,1-2.644,2.34,3.265,3.265,0,0,0-1.176,3.119,2.644,2.644,0,0,0,3.661,1.322,5.2,5.2,0,0,0,2.525-3.463,3.384,3.384,0,0,0,3.794-2c.9-2.326-.912-3.965-2.882-4.626a5.01,5.01,0,0,0-2.366-9.729c-.251-.793-.5-1.586-.767-2.379a15.1,15.1,0,0,0,5.961,0,5.062,5.062,0,0,0,3.965-4.045c.2-2-1.85-4.058-3.741-3.371a4.058,4.058,0,0,0,4.6-2.8,3.437,3.437,0,0,0,4.838-2.075,4.666,4.666,0,0,0-2.432-5.115,7.468,7.468,0,0,0-5.935-.211c0-1.388-1.784-2.128-3.133-1.811s-2.525,1.216-3.886,1.533-3.172-.383-3.172-1.784a11.658,11.658,0,0,0,4.19-4.3,4.573,4.573,0,0,0-.925-5.525c-1.6-1.243-4.534-.238-4.573,1.784a3.635,3.635,0,0,0-6.292-2.908,11.209,11.209,0,0,0,.674-5.168,4.217,4.217,0,0,0-3.331-3.6c-3-.357-2.882,2.736-2.736,4.719a3.965,3.965,0,0,0-3.093-1.322,2.644,2.644,0,0,0-2.419,2.115,1.93,1.93,0,0,0,2.128,2.115c-1.388.952-3.661.357-4.6,1.745a2.393,2.393,0,0,0,.674,2.987,6.966,6.966,0,0,0,3.067,1.229,10.073,10.073,0,0,0-3.846,1.137,3.04,3.04,0,0,0,.436,5.71,3.964,3.964,0,0,0,.78.225Z" transform="translate(-228.735 -179.84)" fill="#e53935"/>
        <path id="Path_13015" data-name="Path 13015" d="M253.625,211.377a13.866,13.866,0,0,0,2.472.264,12.212,12.212,0,0,0-3.49,2.644,3.661,3.661,0,0,0,2.485,6.292,12.279,12.279,0,0,0,4.15-.436,3.807,3.807,0,0,0,4.93,5.8c-.793,1.824-1.573,4.045-.476,5.71,1.243,1.877,3.965,1.784,6.213,1.48a4.666,4.666,0,0,0,.093,5.208c1.322,1.718,3,1.626,4.957,1.811a2.8,2.8,0,1,0,1.322,5.367,26.005,26.005,0,0,1-2.644,2.34,3.265,3.265,0,0,0-1.176,3.119,2.644,2.644,0,0,0,3.661,1.322,5.2,5.2,0,0,0,2.525-3.463,3.384,3.384,0,0,0,3.794-2c.9-2.326-.912-3.965-2.882-4.626a5.01,5.01,0,0,0-2.366-9.729c-.251-.793-.5-1.586-.767-2.379a15.1,15.1,0,0,0,5.961,0,5.062,5.062,0,0,0,3.965-4.045c.2-2-1.85-4.058-3.741-3.371a4.058,4.058,0,0,0,4.6-2.8,3.437,3.437,0,0,0,4.838-2.075,4.666,4.666,0,0,0-2.432-5.115,7.468,7.468,0,0,0-5.935-.211c0-1.388-1.784-2.128-3.133-1.811s-2.525,1.216-3.886,1.533-3.172-.383-3.172-1.784a11.658,11.658,0,0,0,4.19-4.3,4.573,4.573,0,0,0-.925-5.525c-1.6-1.243-4.534-.238-4.573,1.784a3.635,3.635,0,0,0-6.292-2.908,11.209,11.209,0,0,0,.674-5.168,4.217,4.217,0,0,0-3.331-3.6c-3-.357-2.882,2.736-2.736,4.719a3.965,3.965,0,0,0-3.093-1.322,2.644,2.644,0,0,0-2.419,2.115,1.93,1.93,0,0,0,2.128,2.115c-1.388.952-3.661.357-4.6,1.745a2.393,2.393,0,0,0,.674,2.987,6.966,6.966,0,0,0,3.067,1.229,10.073,10.073,0,0,0-3.846,1.137,3.04,3.04,0,0,0,.436,5.71,3.964,3.964,0,0,0,.78.225Z" transform="translate(-228.735 -179.84)" fill="#fff" opacity="0.75"/>
        <g id="freepik--flowers--inject-500-2" data-name="freepik--flowers--inject-500" transform="translate(16.355 8.299)">
          <path id="Path_13016" data-name="Path 13016" d="M266.465,198.758s-.251-3.529-3.027-3.965c0,0-2.273-.37-3.529,3.159a7.3,7.3,0,0,0-6.609.753,4.1,4.1,0,0,0,3.027,4.547s-2.141,1.639-1.124,5.552c0,0,5.671,1.89,7.058-1.639,0,0,.5,3.159,6.054,3.159a5.287,5.287,0,0,0,0-6.318s3.965-.119,4.547-3.027C272.9,201.032,270.259,196.617,266.465,198.758Z" transform="translate(-244.237 -186.821)" fill="#fafafa"/>
          <path id="Path_13017" data-name="Path 13017" d="M261.424,198.222a3.186,3.186,0,0,0-3.344,2.644s0,2.062,2.829,2.366,3.252-1.771,3.252-1.771A3.265,3.265,0,0,0,261.424,198.222Z" transform="translate(-242.685 -185.716)" fill="#f0997a"/>
          <path id="Path_13018" data-name="Path 13018" d="M281.3,194.892s-1.242-2.511-3.278-2.8A5.592,5.592,0,0,0,276,195.7a5.208,5.208,0,0,0-4.468,1.1,4.772,4.772,0,0,0,2.842,3.278,6.291,6.291,0,0,0,.145,4.653s3.965.291,5.287-2.974c0,0,1.454,2.168,5.459,1.4a4.084,4.084,0,0,0-1.454-4.759s2.472-1.414,2.181-3.794A6.16,6.16,0,0,0,281.3,194.892Z" transform="translate(-238.357 -187.688)" fill="#fafafa"/>
          <path id="Path_13019" data-name="Path 13019" d="M277.724,195.34a2.379,2.379,0,0,0-2.194,2.287s.225,1.507,2.353,1.4,2.221-1.665,2.221-1.665A2.432,2.432,0,0,0,277.724,195.34Z" transform="translate(-237.069 -186.642)" fill="#f0997a"/>
          <path id="Path_13020" data-name="Path 13020" d="M276.477,224.6s-.872-1.771-2.3-1.97a3.966,3.966,0,0,0-1.414,2.538,3.608,3.608,0,0,0-3.133.767,3.331,3.331,0,0,0,1.983,2.3,4.441,4.441,0,0,0,.106,3.265,3.873,3.873,0,0,0,3.727-2.089s1.018,1.52,3.833.991a2.868,2.868,0,0,0-1.031-3.344,3.014,3.014,0,0,0,1.533-2.644A4.309,4.309,0,0,0,276.477,224.6Z" transform="translate(-238.968 -177.859)" fill="#fafafa"/>
          <path id="Path_13021" data-name="Path 13021" d="M273.973,224.91a1.652,1.652,0,0,0-1.533,1.6s.159,1.057,1.652.991,1.547-1.163,1.547-1.163a1.718,1.718,0,0,0-1.666-1.428Z" transform="translate(-238.064 -177.126)" fill="#f0997a"/>
          <path id="Path_13022" data-name="Path 13022" d="M262.948,218.682s-1.243-2.511-3.278-2.8a5.6,5.6,0,0,0-2.022,3.622,5.168,5.168,0,0,0-4.468,1.1,4.745,4.745,0,0,0,2.842,3.265,6.292,6.292,0,0,0,.145,4.653s3.965.291,5.287-2.974c0,0,1.454,2.168,5.446,1.414a4.084,4.084,0,0,0-1.454-4.759s2.472-1.428,2.181-3.807a6.159,6.159,0,0,0-4.679.291Z" transform="translate(-244.262 -180.032)" fill="#fafafa"/>
          <path id="Path_13023" data-name="Path 13023" d="M259.432,219.161a2.551,2.551,0,0,0-2.392,2.313s.238,1.507,2.538,1.388,2.406-1.692,2.406-1.692a2.472,2.472,0,0,0-2.551-2.009Z" transform="translate(-243.02 -178.977)" fill="#f0997a"/>
          <path id="Path_13024" data-name="Path 13024" d="M266.905,190.4s-.767-2.247-2.247-1.48-.965,2.181.33,2.511c0,0-2.763.9-2,2.366s3.146,0,3.661-.833c0,0,.516,2.26,2.432,1.454s0-2.736,0-2.736,2.961-1.15,1.322-2.5S266.905,190.4,266.905,190.4Z" transform="translate(-241.147 -188.759)" fill="#fafafa"/>
          <path id="Path_13025" data-name="Path 13025" d="M278.325,215.4s-.767-2.247-2.247-1.48-.965,2.181.33,2.5c0,0-2.763.9-2,2.379s3.146-.066,3.661-.833c0,0,.515,2.26,2.432,1.454s0-2.749,0-2.749,2.961-1.15,1.322-2.5S278.325,215.4,278.325,215.4Z" transform="translate(-237.472 -180.714)" fill="#fafafa"/>
          <path id="Path_13026" data-name="Path 13026" d="M280.721,206.744s.225-2.366-1.441-2.274-1.771,1.586-.74,2.419c0,0-2.882-.33-2.789,1.322s2.895,1.243,3.675.753c0,0-.463,2.274,1.626,2.326s1.137-2.5,1.137-2.5,3.159.185,2.247-1.718S280.721,206.744,280.721,206.744Z" transform="translate(-236.999 -183.704)" fill="#fafafa"/>
          <path id="Path_13027" data-name="Path 13027" d="M265.771,211.354s.238-2.366-1.428-2.274-1.784,1.586-.74,2.406c0,0-2.895-.317-2.8,1.322s2.895,1.229,3.675.74c0,0-.463,2.273,1.626,2.34s1.137-2.5,1.137-2.5,3.159.172,2.26-1.718S265.771,211.354,265.771,211.354Z" transform="translate(-241.81 -182.221)" fill="#fafafa"/>
          <path id="Path_13028" data-name="Path 13028" d="M248.042,208.789s-1.9-2.525-.463-3.133,2.062,1.56,2.062,1.56,1.454-1.718,2.141-.489-1.071,2.511-1.071,2.511,1.983,1.071.846,2.141-2.525-.608-2.525-.608-.78,1.9-2,1.322S246.588,209.357,248.042,208.789Z" transform="translate(-246.433 -183.356)" fill="#fafafa"/>
        </g>
      </g>
    </g>
    <g id="freepik--Hearts--inject-500" transform="translate(62.931 340.729)">
      <path id="freepik--Heart--inject-500" d="M423.425,278.922a7.257,7.257,0,0,1,4.362-2.842h0a7.323,7.323,0,0,1,5.869,1.242c2.578,1.877,3.014,5.869,2.009,8.975-.093.317.185.767.383.621,2.644-2.022,6.754-2.921,9.385-.991a7.35,7.35,0,0,1,2.987,5.208h0a7.349,7.349,0,0,1-1.322,5.023c-3.423,4.692-9.662,4.111-15.544,4.521h-5.988l-1.692-5.565C422.447,289.365,419.988,283.6,423.425,278.922Z" transform="translate(53.674 -261.835)" fill="#e53935"/>
      <path id="freepik--heart--inject-500-2" data-name="freepik--heart--inject-500" d="M64.136,286.857a6.86,6.86,0,0,1-2.062-4.415h0a6.9,6.9,0,0,1,1.917-5.287c2.075-2.141,5.829-2.022,8.579-.687.278.132.74-.066.621-.278-1.52-2.736-1.824-6.609.317-8.83a6.834,6.834,0,0,1,5.287-2.089h0a6.887,6.887,0,0,1,4.481,1.93c3.965,3.78,2.538,9.491,2.168,15l-.833,5.538-5.446.833C73.706,289.118,68.036,290.651,64.136,286.857Z" transform="translate(-62.056 -265.263)" fill="#e53935"/>
    </g>
  </g>
</svg>
