<svg xmlns="http://www.w3.org/2000/svg" xmlns:xlink="http://www.w3.org/1999/xlink" width="249.757" height="250" viewBox="0 0 249.757 250">
  <defs>
    <linearGradient id="linear-gradient" x1="0.5" y1="1" x2="0.5" gradientUnits="objectBoundingBox">
      <stop offset="0" stop-color="gray" stop-opacity="0.251"/>
      <stop offset="0.54" stop-color="gray" stop-opacity="0.122"/>
      <stop offset="1" stop-color="gray" stop-opacity="0.102"/>
    </linearGradient>
  </defs>
  <g id="Group_1612" data-name="Group 1612" transform="translate(-203 -1854)">
    <g id="background2" transform="translate(203 1854)">
      <circle id="Ellipse_534" data-name="Ellipse 534" cx="124.879" cy="124.879" r="124.879" fill="rgba(79,19,76,0.05)"/>
      <circle id="Ellipse_535" data-name="Ellipse 535" cx="99.879" cy="99.879" r="99.879" transform="translate(25 25)" fill="rgba(79,19,76,0.05)"/>
    </g>
    <g id="anniversaryhusband" transform="translate(273.853 1854.243)">
      <g id="undraw_businessman_97x4_3_" data-name="undraw_businessman_97x4 (3)" transform="translate(0 0)">
        <path id="Path_2581" data-name="Path 2581" d="M439.961,117.716s-3.071-6.062-2.657-7.864-2.161-5.651-2.161-5.651l.166-6.385s-.356.652-2.21,1.224a7.759,7.759,0,0,0-.5-.6,13.158,13.158,0,0,0-2.227-1.857l-3.264-7.044-3.159-4.834s-4.978-10.119-10.119-12.352l-.809-1.584a.124.124,0,0,0,.049-.159L412.244,69a.128.128,0,0,0-.159-.059L411.3,67.4a12.375,12.375,0,0,0-2.284-5.514c-.081-.114-.17-.218-.254-.327l1.28-.045a4.282,4.282,0,0,0,3.13-.979,2.861,2.861,0,0,0,.584-1.077,4.56,4.56,0,0,0,.19-.962v-.94a2.644,2.644,0,0,0-.055-.327.225.225,0,0,0-.026-.128,3.8,3.8,0,0,0-.1-.379.481.481,0,0,1-.023-.076c-.045-.137-.095-.261-.15-.389a.371.371,0,0,1-.023-.052c-.059-.128-.124-.251-.192-.372l-.019-.04h0a1.29,1.29,0,0,0-.081-.147,9.231,9.231,0,0,0-3.917-2.938,45.26,45.26,0,0,0-4.243-1.959,22.85,22.85,0,0,0-16.648.235,6.594,6.594,0,0,0-1.482.79,7.658,7.658,0,0,0-1.615,1.9l-2.53,3.738a5.282,5.282,0,0,0-.824,1.511c-.474,1.776,1.012,3.555.846,5.386-.085.911-.574,1.746-.669,2.657a6.319,6.319,0,0,0,.962,3.368l3.62,7.181c-.192.944-.405,1.909-.636,2.843h0a9.632,9.632,0,0,0-2.383,3.173l-.049.026h0a2.937,2.937,0,0,0-.835.816l-3.434,3.342s-5.981,1.554-7.224,3.522c0,0-9.385-.412-9.3,12.695,0,0-.412,4.916-.652,5.571s0,7.288,0,7.288l-.111,13.435a83.437,83.437,0,0,0,0,9.665c.358,2.54.773,12.2.773,12.2s2.243,9.42,1.413,12.775c-.8,3.216,0,10.246,1.306,10.276.249.512.532.764.842.621a3.589,3.589,0,0,1,.412-.15v8.027s-1.615,11.246.2,13.383a43.752,43.752,0,0,0-2.971,5.4l-12.7-.687-1.615.453h0l-1.482.412-.9,20.652.358.026-.026.63.849.062-1.181,20.8L365,246.22a15.737,15.737,0,0,1-2.021,3.771c-.652.327-2.075-.652-2.409-.249a2.7,2.7,0,0,1-2.49.652c-1.162-.249-1.909,1.065-1.909,1.065s.17.15.424.427a11.179,11.179,0,0,0-5.569,1.437c-.581.294-.944.512-.944.512H346.65l1.883,12.015,1.328.908.327,9.467s5.315,16.383,7.75,16.276a1.1,1.1,0,0,0,.824-.412c1.306-1.511.4-6.688.4-6.688v-8.624s1.992-.875,1.769-1.532,3.212-7.83,3.519-8.488a.055.055,0,0,0,.026-.052c0-.738,1.494-1.558,1.411-1.883s3.655-2.376,3.917-4.179,2.739-.824,2.739-.824L375.7,256.2a43.894,43.894,0,0,0,.584,8.291,44.307,44.307,0,0,1,2.076,9.669s-.913,4.5,0,5.981a15.82,15.82,0,0,0,2.775,2.666c-.944,2.86-.809,8.938-.809,8.938v3.493l6.975,1.959s.218-1.746.549-1.746,4.762,3.385,4.762,3.385,17.052.218,21.368,0c1.632-.081,2.075-.783,1.824-1.632A6.129,6.129,0,0,0,411,293.816c-3.323-.218-7.53-3.709-7.53-3.709s.327-.766-1.44-1.857c-1.221-.751-4.6-3.79-6.688-5.569.1-.137.2-.268.294-.412,0,0-2.824-3.918-2.239-5.654a8.146,8.146,0,0,0-.251-4.243,33.748,33.748,0,0,1-1.577-7.293c0-1.558-.235-10.413-.405-16.694l1.456.121.029-.626.652.059,6.173.567-.19-6.593a41.286,41.286,0,0,0,6.473-3.3,13.205,13.205,0,0,1,6.477-2.784s7.058-3.766,8.137-5.324.979-12.861.979-12.861l-.581-24.228V193.4s-.5-11.711-1.495-14.251c-.365-.94-1.269-4.074-2.258-7.651a5.9,5.9,0,0,1,1.7.071c.036.875.059,1.475.059,1.681,0,1.39,1.992,2.573,1.992,2.573l-1.411-31.336V123.169c4.348,1.385,14.862,1.815,14.862,1.815C441.786,124.61,439.961,117.716,439.961,117.716ZM398.949,90.793h-.023a21.69,21.69,0,0,1,.6-2.431ZM370.413,198.274c2.576.425,5.549.3,5.769-.2.023-.049.052-.137.092-.251.081.137.159.291.242.441l-.251,4.727v.107l-8.488-.457A6.771,6.771,0,0,1,370.413,198.274Zm28.3,23.849-.218-7.655c.379-1.411.718-2.69,1.008-3.787.137.911.242,1.75.327,2.523.8,7.264-.388,8.68-1.122,8.919Zm24.155-114.764c-.486.185-2.335-.979-4.093-2.187,0-.223.016-.441.026-.652.249-5-7.89-8.1-10.38-8.683a8.948,8.948,0,0,1-1.75-.652A40.807,40.807,0,0,1,402.8,93l.033-.095s-3.211-2.033-3.28-4.57a43.419,43.419,0,0,1,2.761-6.7c.062-.128.138-.261.2-.389a12.815,12.815,0,0,0,4.179-2.213c.5,6.529,9.946,12.147,9.946,12.147l1.008,1.632.238.385c-.51.3-.754.541-.581.687a29.547,29.547,0,0,1,3.173,5.2c.2.372.327.6.327.6s1.544,4.2,2.429,7.717a.652.652,0,0,0-.372-.04Z" transform="translate(-332.946 -49.296)" fill="url(#linear-gradient)"/>
        <path id="Path_2582" data-name="Path 2582" d="M549.862,139.034l-.111.147-.379.506-7.262,5.132-1.541-2.533-.979-1.632s-14.477-8.683-8.251-17.052S546.76,134.21,546.76,134.21Z" transform="translate(-456.305 -97.902)" fill="#ffc5d3"/>
        <rect id="Rectangle_209" data-name="Rectangle 209" width="0.249" height="2.044" rx="0.09" transform="translate(78.681 20.686) rotate(-26.744)" fill="#3a3768"/>
        <rect id="Rectangle_210" data-name="Rectangle 210" width="0.14" height="0.673" rx="0.051" transform="translate(70.605 22.959) rotate(-26.744)" fill="#3a3768"/>
        <rect id="Rectangle_211" data-name="Rectangle 211" width="0.157" height="1.172" rx="0.057" transform="translate(71.153 24.059) rotate(-26.744)" fill="#3a3768"/>
        <rect id="Rectangle_212" data-name="Rectangle 212" width="0.15" height="1.181" rx="0.055" transform="translate(71.865 25.471) rotate(-26.744)" fill="#3a3768"/>
        <rect id="Rectangle_213" data-name="Rectangle 213" width="8.291" height="16.85" rx="2.24" transform="translate(69.672 20.937) rotate(-26.744)" fill="#3a3768"/>
        <path id="Path_2583" data-name="Path 2583" d="M525.827,104.84a.294.294,0,0,0-.137.4l.026.055a.3.3,0,0,1-.137.4l-3.14,1.58a.294.294,0,0,1-.4-.137l-.029-.055a.3.3,0,0,0-.4-.137l-.61.31a.562.562,0,0,0-.251.761l6.672,13.243a.571.571,0,0,0,.764.251l5.478-2.758a.571.571,0,0,0,.251-.764l-6.676-13.25a.567.567,0,0,0-.764-.251Z" transform="translate(-450.185 -86.43)" fill="#e53935"/>
        <rect id="Rectangle_214" data-name="Rectangle 214" width="1.159" height="0.235" rx="0.086" transform="translate(72.889 19.881) rotate(-26.744)" fill="#e6e8ec"/>
        <circle id="Ellipse_202" data-name="Ellipse 202" cx="0.133" cy="0.133" r="0.133" transform="translate(74.112 19.183)" fill="#e6e8ec"/>
        <path id="Path_2584" data-name="Path 2584" d="M546.59,261.28l-2.04,54.748s6.854-2.284,7.916-.571-1.143-27.42-1.143-27.42Z" transform="translate(-466.246 -192.076)" fill="#5f5570"/>
        <path id="Path_2585" data-name="Path 2585" d="M546.59,261.28l-2.04,54.748s6.854-2.284,7.916-.571-1.143-27.42-1.143-27.42Z" transform="translate(-466.246 -192.076)" opacity="0.15"/>
        <path id="Path_2586" data-name="Path 2586" d="M483.532,777.793c-4.243.218-21,0-21,0s-4.354-3.372-4.681-3.372-.541,1.74-.541,1.74l-6.854-1.959v-3.479s-.218-9.906,1.848-10.338,11.21,0,11.21,0c.327-.107,6.529,5.769,8.268,6.854s1.413,1.852,1.413,1.852,4.136,3.479,7.4,3.7a6.015,6.015,0,0,1,4.729,3.372C485.572,777.013,485.134,777.712,483.532,777.793Z" transform="translate(-402.862 -528.133)" fill="#bc8487"/>
        <path id="Path_2587" data-name="Path 2587" d="M483.546,799.661c-4.243.218-21,0-21,0s-4.354-3.372-4.681-3.372-.543,1.74-.543,1.74l-6.854-1.959V792.66l6.417,2.324L462,798.029h23.336C485.586,798.881,485.145,799.583,483.546,799.661Z" transform="translate(-402.876 -550.001)" opacity="0.1"/>
        <path id="Path_2588" data-name="Path 2588" d="M493.43,790.521s5.22-5,8.716-3.59" transform="translate(-431.812 -545.973)" stroke="#000" stroke-miterlimit="10" stroke-width="1" opacity="0.1"/>
        <path id="Path_2589" data-name="Path 2589" d="M363.167,694c.218.652-1.74,1.525-1.74,1.525v8.595s.887,5.16-.4,6.666a1.074,1.074,0,0,1-.8.412c-2.393.107-7.615-16.208-7.615-16.208l-.327-9.43-1.306-.9-1.85-11.97H352.5s.356-.219.927-.512c1.632-.832,5.049-2.284,6.908-.9l6.31,14.215S362.952,693.35,363.167,694Z" transform="translate(-334.617 -467.845)" fill="#bc8487"/>
        <path id="Path_2590" data-name="Path 2590" d="M361.031,713.829a1.075,1.075,0,0,1-.8.412c-2.393.107-7.615-16.209-7.615-16.209l-.327-9.43-1.306-.9-1.85-11.97H352.5s.356-.219.927-.512l.813,12.264.434,10.554S358.78,709.515,361.031,713.829Z" transform="translate(-334.617 -470.886)" opacity="0.1"/>
        <path id="Path_2591" data-name="Path 2591" d="M440.881,513.9c-1.06,1.551-8,5.3-8,5.3a12.776,12.776,0,0,0-6.365,2.775c-1.772,1.352-7.932,4.032-13.461,6.306-5.167,2.125-9.792,3.894-9.792,3.894l-5.327,6.2-4.058,4.724s-2.448-.979-2.694.816-3.918,3.835-3.835,4.162-1.387,1.143-1.387,1.876-5.467-5.3-5.386-8.977a8.846,8.846,0,0,0-2.775-6.2s.735-1.306,1.876-1.06a2.626,2.626,0,0,0,2.448-.652c.327-.412,1.714.571,2.367.245s3.264-6.773,3.264-6.773l10.174-6.826,20.237-13.566.934-.626s2.692,1.236,1.6-8.875c-.211-1.959-.569-4.338-1.11-7.236-3.346-17.872,8.654-19.917,8.654-19.917l10.527,3.51,2.53,3.917v.019l.571,24.136S441.947,512.357,440.881,513.9Z" transform="translate(-353.927 -332.328)" fill="#433a59"/>
        <path id="Path_2592" data-name="Path 2592" d="M454.4,600.964s.033,1.159.081,2.96c-5.168,2.125-9.793,3.894-9.793,3.894l-5.327,6.2c-.088-5.142-.069-11.813,0-18.665L459.6,581.79C457.093,591.07,454.4,600.964,454.4,600.964Z" transform="translate(-395.352 -407.964)" opacity="0.1"/>
        <path id="Path_2593" data-name="Path 2593" d="M526.292,476.958v.019l-15.832.306s-2.775,10.852-3.183,13.139c-.1.562-.714,2.96-1.583,6.257-.213-1.959-.569-4.338-1.11-7.236-3.346-17.872,8.654-19.918,8.654-19.918l10.527,3.51Z" transform="translate(-438.93 -332.35)" opacity="0.1"/>
        <path id="Path_2594" data-name="Path 2594" d="M438.992,389.89l-2.04,39.171s-1.468,57.532,0,61.287a44.653,44.653,0,0,1,2.04,9.629s-.9,4.489,0,5.957,3.754,3.1,3.672,3.918,8.732,5.22,13.3-1.8c0,0-2.775-3.917-2.2-5.632a8.363,8.363,0,0,0-.245-4.243,33.961,33.961,0,0,1-1.551-7.273c0-2.457-.571-23.014-.571-23.014s8.9-32.643,9.3-34.927,3.183-13.139,3.183-13.139l16.81-.327s-.49-11.676-1.468-14.2-5.794-21.055-5.794-21.055Z" transform="translate(-393.332 -274.906)" fill="#433a59"/>
        <path id="Path_2595" data-name="Path 2595" d="M192.228,469.89l-1.459.412-.059,1.442,43.747.565v-.567Z" transform="translate(-174.622 -316.505)" fill="#7b728f"/>
        <path id="Path_2596" data-name="Path 2596" d="M478.388,128.45c-6.365,12.912-2.412,15.61-1.786,15.942-1.349-.626-18.871-8.858-16.566-10.948,1.5-1.361,2.782-7.28,3.536-11.526.448-2.533.709-4.468.709-4.468l18.387,3.372a86.653,86.653,0,0,0-4.28,7.628Z" transform="translate(-409.183 -95.196)" fill="#ffc5d3"/>
        <path id="Path_2597" data-name="Path 2597" d="M572.026,174.726l-.379.505-7.28,5.132-1.541-2.533a78.969,78.969,0,0,1,8.967-3.591Z" transform="translate(-478.56 -133.447)" opacity="0.1"/>
        <path id="Path_2598" data-name="Path 2598" d="M577.933,187.221c-.652,2.284-11.676,0-11.676,0l-1.143-1.8s-.114-.228-.306-.6a29.669,29.669,0,0,0-3.118-5.18c-.9-.735,9.629-4.325,9.629-4.325l3.225,7.018a13,13,0,0,1,2.187,1.85,3.434,3.434,0,0,1,1.2,3.033Z" transform="translate(-477.763 -134.174)" fill="#e5e8ef"/>
        <path id="Path_2599" data-name="Path 2599" d="M555.55,215s6.529,5.151,7.508,4.779,16.81,10.319,16.81,10.319,1.8,6.854-5.632,7.262c0,0-15.75-.652-16.4-2.938S555.55,215,555.55,215Z" transform="translate(-473.655 -160.903)" fill="#5f5570"/>
        <path id="Path_2600" data-name="Path 2600" d="M486.4,183.262l-7.1,7.339,9.956,63.324,3.917-2.284s10.119,4.489,10.935.327.591-20.564.591-20.564l-1.325-29.633s-4.651-10.364-4.651-10.691-6.709-5.386-6.709-5.386l-3.166-2.448Z" transform="translate(-422.295 -139.518)" opacity="0.1"/>
        <path id="Path_2601" data-name="Path 2601" d="M486.4,180.262l-7.1,7.339,9.956,63.324,3.917-2.286s10.119,4.489,10.935.327.591-20.564.591-20.564l-1.325-29.633s-4.651-10.364-4.651-10.691-6.709-5.386-6.709-5.386l-3.166-2.448Z" transform="translate(-422.295 -137.498)" fill="#e5e8ef"/>
        <path id="Path_2602" data-name="Path 2602" d="M498.259,180.65l-1.959,4,1.959,2.06s7.018,14.173,5.632,22.578l1.468,27.665,4.734,4.651,3.754-4.335-1.8-25.137s-4.815-20.728-9.875-27.174l-1.468-5.713Z" transform="translate(-433.746 -136.825)" opacity="0.1"/>
        <path id="Path_2603" data-name="Path 2603" d="M498.259,178.65l-1.959,4,1.959,2.06s7.018,14.173,5.632,22.578l1.468,27.665,4.734,4.651,3.754-4.335-1.8-25.137s-4.815-20.728-9.875-27.174l-1.468-5.713Z" transform="translate(-433.746 -135.478)" fill="#bc8487"/>
        <path id="Path_2604" data-name="Path 2604" d="M490.394,120.789c-1.786,2.872-3.185,5.4-4.283,7.629a12.551,12.551,0,0,1-3.557.512c-4.034,0-6.359-2.791-8.644-5.755-.522-.673-2.239-.515-2.61-1.306.448-2.533.709-4.468.709-4.468Z" transform="translate(-416.907 -95.161)" opacity="0.1"/>
        <path id="Path_2605" data-name="Path 2605" d="M492.47,87.558a12.512,12.512,0,1,1-2.379-7.341,12.512,12.512,0,0,1,2.379,7.341Z" transform="translate(-414.31 -66.632)" fill="#ffc5d3"/>
        <path id="Path_2606" data-name="Path 2606" d="M472.062,165.465l-10.283-12.4s-.951-.382,2.26-3.74c0,0,11.784,9.185,12.515,10.746S472.062,165.465,472.062,165.465Z" transform="translate(-410.406 -116.662)" opacity="0.1"/>
        <path id="Path_2607" data-name="Path 2607" d="M471.062,163.465l-10.283-12.4s-.951-.382,2.259-3.74c0,0,11.784,9.185,12.515,10.746S471.062,163.465,471.062,163.465Z" transform="translate(-409.731 -115.314)" fill="#e5e8ef"/>
        <path id="Path_2608" data-name="Path 2608" d="M530.2,264.634s-1.959-1.176-1.959-2.562-.979-20.972-.979-20.972-1.437-11.689-2.938-20.979h0c-.882-5.474-1.786-10.119-2.426-11.04l-.026-.04c-1.714-2.2-1.387-12.975-12.078-28.725a59.032,59.032,0,0,0,6.529,3.984,8.942,8.942,0,0,0,1.72.652c2.448.571,10.439,3.672,10.2,8.654s.572,16.4.572,16.4v23.415Z" transform="translate(-442.834 -137.544)" fill="#5f5570"/>
        <path id="Path_2609" data-name="Path 2609" d="M584.447,205.525c-.652,2.284-11.676,0-11.676,0l-1.143-1.8s-.114-.228-.306-.6a.226.226,0,0,1-.017-.04c6.4.448,9.97-.019,11.941-.6A3.435,3.435,0,0,1,584.447,205.525Z" transform="translate(-484.273 -152.476)" opacity="0.1"/>
        <path id="Path_2610" data-name="Path 2610" d="M572.3,202.418s3.434,9.466,2.938,11.832,7.916,11.676,7.916,11.676l8-5.549s-3.022-6.044-2.61-7.83-2.122-5.632-2.122-5.632l.163-6.359S585.112,203.306,572.3,202.418Z" transform="translate(-484.938 -151.167)" fill="#5f5570"/>
        <path id="Path_2611" data-name="Path 2611" d="M490.346,80.53l-6.2.235a6.9,6.9,0,0,0-1.8.225,5.357,5.357,0,0,0-3.32,5.158c-.081,2.118-1.306,4.492-3.678,4.677a.917.917,0,0,1-.676-.15,1.114,1.114,0,0,1-.287-.578,12.642,12.642,0,0,0-1.56-3.486,2.733,2.733,0,0,0-1.959,2.074,11.7,11.7,0,0,0-.183,3.007,19.462,19.462,0,0,1-.369,3.816,12.511,12.511,0,1,1,20.04-14.983Z" transform="translate(-414.565 -66.944)" opacity="0.1"/>
        <path id="Path_2612" data-name="Path 2612" d="M473.6,65.138a6.908,6.908,0,0,1,1.8-.225l7.53-.275a4.228,4.228,0,0,0,3.076-.962,2.885,2.885,0,0,0,.574-1.074,4.637,4.637,0,0,0-.486-3.8,9.2,9.2,0,0,0-3.856-2.938,44.794,44.794,0,0,0-4.169-1.959,22.2,22.2,0,0,0-16.354.235,6.6,6.6,0,0,0-1.456.78,7.523,7.523,0,0,0-1.586,1.893L456.2,60.551a5.143,5.143,0,0,0-.78,1.511c-.467,1.772.979,3.545.824,5.369-.085.908-.565,1.74-.652,2.647a6.366,6.366,0,0,0,.944,3.353l4.354,8.784a19.467,19.467,0,0,0,1.055-6.365,11.28,11.28,0,0,1,.183-3.007,2.754,2.754,0,0,1,1.959-2.08,12.585,12.585,0,0,1,1.563,3.486,1.1,1.1,0,0,0,.287.578.914.914,0,0,0,.676.15c2.386-.185,3.59-2.536,3.678-4.677A5.34,5.34,0,0,1,473.6,65.138Z" transform="translate(-406.145 -51.419)" fill="#8f7080"/>
        <path id="Path_2613" data-name="Path 2613" d="M190.89,469.371l3.049-.872L239.91,471l-5.059.652Z" transform="translate(-174.743 -315.569)" fill="#7b728f"/>
        <path id="Path_2614" data-name="Path 2614" d="M190.89,469.371l3.049-.872L239.91,471l-5.059.652Z" transform="translate(-174.743 -315.569)" opacity="0.1"/>
        <path id="Path_2615" data-name="Path 2615" d="M327.983,520.236l-6.065-.564-2.128-.2V485.744l.562-7.83.124-1.743h6.258Z" transform="translate(-261.568 -320.734)" fill="#7b728f"/>
        <path id="Path_2616" data-name="Path 2616" d="M326.325,521.279l-4.838-.536-1.7-.185V488.575l.448-7.417.1-1.648h4.99Z" transform="translate(-261.568 -322.974)" opacity="0.1"/>
        <path id="Path_2617" data-name="Path 2617" d="M401.42,506.168s3.022-6.624,4.286-6.828a19.476,19.476,0,0,1,3.591,0l-.206,1.923s-3.1.245-4.08,5.424Z" transform="translate(-369.838 -352.364)" fill="#7b728f"/>
        <path id="Path_2618" data-name="Path 2618" d="M401.42,506.168s3.022-6.624,4.286-6.828a19.476,19.476,0,0,1,3.591,0l-.206,1.923s-3.1.245-4.08,5.424Z" transform="translate(-369.838 -352.364)" opacity="0.1"/>
        <path id="Path_2619" data-name="Path 2619" d="M433.848,497.41s8.118,4.038,7.058,8.771l-4.407-.245s-2.122-7.058-3.793-7.426S433.848,497.41,433.848,497.41Z" transform="translate(-390.553 -351.128)" fill="#7b728f"/>
        <path id="Path_2620" data-name="Path 2620" d="M441.056,203.962v.238l-.163,27.181s-4.162,22.85-5.3,23.747-26.2-1.551-26.2-1.551l-11.343-76.465c-.081-13.058,9.14-12.648,9.14-12.648,1.224-1.959,7.1-3.51,7.1-3.51l3.264-3.183.1-.147a2.9,2.9,0,0,1,.824-.813h0c.673-.389,1.1.124,1.345.63a3.8,3.8,0,0,1,.254.74C433.3,167.876,441.056,203.962,441.056,203.962Z" transform="translate(-367.566 -121.613)" fill="#5f5570"/>
        <path id="Path_2621" data-name="Path 2621" d="M473.566,205.239v.238c-4.1-7.508-19.917-35.952-24.237-37.362l1.665-1.143s1.11-.652-.93-1.306c0,0-3.183.412-3.264-3.434l3.368-3.33.824-.813h0l1.345.631a3.783,3.783,0,0,1,.254.74C465.814,169.159,473.566,205.239,473.566,205.239Z" transform="translate(-400.403 -122.57)" opacity="0.1"/>
        <path id="Path_2622" data-name="Path 2622" d="M474.566,204.239v.238c-4.1-7.508-19.917-35.952-24.237-37.362l1.665-1.143s1.11-.652-.93-1.306c0,0-3.183.412-3.264-3.434l3.368-3.33.824-.813h0l1.345.631a3.777,3.777,0,0,1,.254.74C466.814,168.159,474.566,204.239,474.566,204.239Z" transform="translate(-401.078 -121.897)" fill="#433a59"/>
        <path id="Path_2623" data-name="Path 2623" d="M522.9,210.045l-.026-.04c-1.714-2.2-1.387-12.975-12.078-28.725a59.069,59.069,0,0,0,6.529,3.983l-.76,2.486,1.632.871Z" transform="translate(-443.514 -138.189)" opacity="0.1"/>
        <path id="Path_2624" data-name="Path 2624" d="M521.9,209.045l-.026-.04c-1.714-2.2-1.387-12.975-12.078-28.725a59.02,59.02,0,0,0,6.529,3.983l-.76,2.486,1.632.871Z" transform="translate(-442.839 -137.516)" fill="#433a59"/>
        <path id="Path_2625" data-name="Path 2625" d="M506.982,172.58l-.669,2.827a3.826,3.826,0,0,0,3.424,3.076l.474-1.348S507.04,175.1,506.982,172.58Z" transform="translate(-440.488 -132.33)" opacity="0.1"/>
        <path id="Path_2626" data-name="Path 2626" d="M506.982,171.58l-.669,2.827a3.826,3.826,0,0,0,3.424,3.076l.474-1.348S507.04,174.1,506.982,171.58Z" transform="translate(-440.488 -131.655)" fill="#e5e8ef"/>
        <path id="Path_2627" data-name="Path 2627" d="M323.839,477.57l-1.923,43.045-2.128-.2V486.687l.562-7.83Z" transform="translate(-261.569 -321.677)" opacity="0.1"/>
        <path id="Path_2628" data-name="Path 2628" d="M189.536,494.194l-1.306,23.284,44.394,3.7,1.945-43.609Z" transform="translate(-172.953 -321.676)" fill="#7b728f"/>
        <path id="Path_2629" data-name="Path 2629" d="M189.23,493.734l.868-20.564,45.467,2.089L233.4,497Z" transform="translate(-173.626 -318.714)" opacity="0.1"/>
        <path id="Path_2630" data-name="Path 2630" d="M188.23,491.734l.868-20.564,45.467,2.089L232.4,495Z" transform="translate(-172.953 -317.366)" fill="#7b728f"/>
        <rect id="Rectangle_215" data-name="Rectangle 215" width="5.467" height="6.365" transform="translate(34.399 174.394)" fill="#c3bbc8"/>
        <path id="Path_2631" data-name="Path 2631" d="M409.517,455.78l-.816,2.2s-1.714,12.078.412,13.547,8.405,1.551,8.732.816,2.61-9.058,2.61-9.058,2.04,6.121,3.1,5.632-2.448-12.123-2.448-12.123Z" transform="translate(-374.301 -323.086)" fill="#ffc5d3"/>
        <path id="Path_2632" data-name="Path 2632" d="M410.05,418.707v11.676s8.654,1.632,12.4-1.188c0,0-3.51-11.3-2.2-14.148S410.05,418.707,410.05,418.707Z" transform="translate(-375.651 -295.153)" opacity="0.1"/>
        <path id="Path_2633" data-name="Path 2633" d="M410.05,417.707v11.676s8.654,1.632,12.4-1.188c0,0-3.51-11.3-2.2-14.148S410.05,417.707,410.05,417.707Z" transform="translate(-375.651 -294.48)" fill="#e5e8ef"/>
        <path id="Path_2634" data-name="Path 2634" d="M400.431,207.437l-2.286,1.227s-.412,4.9-.653,5.549a71.626,71.626,0,0,0,0,7.262l-.111,13.383a84.406,84.406,0,0,0,0,9.629c.353,2.53.747,12.159.747,12.159s2.206,9.385,1.39,12.731.081,10.852,1.468,10.2,14.2-3.183,14.853-3.672.327-5.059,0-5.632-2.284-8.324-2.122-10.119-.571-17.545-.571-17.545,1.224-16.81,1.714-20.728-.979-15.423-2.286-15.586S407.449,197.237,400.431,207.437Z" transform="translate(-367.009 -152.514)" opacity="0.1"/>
        <path id="Path_2635" data-name="Path 2635" d="M398.431,205.437l-2.286,1.227s-.412,4.9-.652,5.549a71.484,71.484,0,0,0,0,7.262l-.111,13.383a84.308,84.308,0,0,0,0,9.629c.353,2.53.747,12.159.747,12.159s2.206,9.385,1.39,12.731.081,10.852,1.468,10.2,14.2-3.183,14.853-3.672.327-5.059,0-5.632-2.284-8.324-2.122-10.119-.571-17.545-.571-17.545,1.224-16.81,1.714-20.728-.979-15.423-2.284-15.586S405.449,195.237,398.431,205.437Z" transform="translate(-365.663 -151.167)" fill="#5f5570"/>
        <g id="Group_72" data-name="Group 72" transform="translate(49.644 7.524)" opacity="0.1">
          <path id="Path_2636" data-name="Path 2636" d="M464.547,104.77a2.733,2.733,0,0,0-1.956,2.08,11.693,11.693,0,0,0-.183,3.007,19.457,19.457,0,0,1-1.051,6.365L457,107.438c-.085-.173-.173-.353-.258-.532a11.857,11.857,0,0,0,.747,1.755l4.356,8.787a19.454,19.454,0,0,0,1.051-6.365,11.419,11.419,0,0,1,.183-3.007,2.747,2.747,0,0,1,1.959-2.08,13.108,13.108,0,0,1,.845,1.544,12.737,12.737,0,0,0-1.335-2.771Z" transform="translate(-456.742 -94.178)"/>
          <path id="Path_2637" data-name="Path 2637" d="M507.051,72.32a4.624,4.624,0,0,1-.078,2.431,2.883,2.883,0,0,1-.578,1.074,4.209,4.209,0,0,1-3.076.962l-7.527.275a6.928,6.928,0,0,0-1.8.225,5.357,5.357,0,0,0-3.32,5.158c-.081,2.118-1.306,4.492-3.679,4.677a.917.917,0,0,1-.676-.15h0c.076.212.147.427.209.652a1.077,1.077,0,0,0,.284.578.918.918,0,0,0,.676.15c2.39-.185,3.591-2.536,3.679-4.677a5.357,5.357,0,0,1,3.32-5.158,6.928,6.928,0,0,1,1.8-.225l7.527-.275a4.228,4.228,0,0,0,3.076-.962,2.886,2.886,0,0,0,.578-1.074,4.637,4.637,0,0,0-.412-3.662Z" transform="translate(-476.668 -72.32)"/>
        </g>
        <path id="Path_2638" data-name="Path 2638" d="M512.28,479.6a12.722,12.722,0,0,1,3.917-1.387c1.091.081,10.881,12.531,10.881,12.531Z" transform="translate(-444.51 -338.194)" opacity="0.1"/>
        <path id="Path_2639" data-name="Path 2639" d="M413.069,224.35s-5.168,2.206-5.03,3.731S413.069,224.35,413.069,224.35Z" transform="translate(-374.289 -167.2)" opacity="0.1"/>
        <path id="Path_2640" data-name="Path 2640" d="M406.667,246.45s-5.422,6.933-4.224,7.165S406.667,246.45,406.667,246.45Z" transform="translate(-370.41 -182.086)" opacity="0.1"/>
        <path id="Path_2641" data-name="Path 2641" d="M464.119,278.28s.5,15.505-3.479,17.464Z" transform="translate(-409.727 -203.526)" opacity="0.1"/>
        <path id="Path_2642" data-name="Path 2642" d="M408,401.4s3.826-2.174,4.7-1.74S408,401.4,408,401.4Z" transform="translate(-374.27 -285.247)" opacity="0.1"/>
        <path id="Path_2643" data-name="Path 2643" d="M410.05,413.315a10.262,10.262,0,0,0,3.562-.327C414.757,412.49,410.05,413.315,410.05,413.315Z" transform="translate(-375.651 -294.155)" opacity="0.1"/>
        <path id="Path_2644" data-name="Path 2644" d="M586.7,239.41s3,8.607,4.724,8.607" transform="translate(-494.638 -177.344)" opacity="0.1"/>
        <path id="Path_2645" data-name="Path 2645" d="M456.16,743.052s5.621-1.525,6.456,0S456.16,743.052,456.16,743.052Z" transform="translate(-406.709 -516.13)" opacity="0.1"/>
        <path id="Path_2646" data-name="Path 2646" d="M400.372,675.21s-1.4,2.144.451,2.8S400.372,675.21,400.372,675.21Z" transform="translate(-368.79 -470.889)" opacity="0.1"/>
        <path id="Path_2647" data-name="Path 2647" d="M515.8,583.53s4.243,3.78,6.247,3.892S515.8,583.53,515.8,583.53Z" transform="translate(-446.88 -409.136)" opacity="0.1"/>
        <path id="Path_2653" data-name="Path 2653" d="M305.081,625.076c0,.824-.091,1.495-.206,1.495s-.206-.653-.206-1.495.114-.437.228-.437S305.081,624.251,305.081,625.076Z" transform="translate(-304.669 -436.76)" fill="#ffd037"/>
        <path id="Path_2654" data-name="Path 2654" d="M306.523,628.035c-.725.394-1.359.633-1.411.536s.486-.5,1.211-.9.441-.107.493,0S307.248,627.648,306.523,628.035Z" transform="translate(-304.965 -438.733)" fill="#ffd037"/>
      </g>
    </g>
  </g>
</svg>
