<svg xmlns="http://www.w3.org/2000/svg" width="249.824" height="250" viewBox="0 0 249.824 250">
  <g id="Group_1614" data-name="Group 1614" transform="translate(-208 -2144)">
    <g id="anniversaryfamily" transform="translate(216.192 2144.176)">
      <g id="undraw_play_time_7k7b_3_" data-name="undraw_play_time_7k7b (3)" transform="translate(0 0)">
        <path id="Path_2977" data-name="Path 2977" d="M600.795,182.11s.881,1.01-.628,2.963-.291,6.191,2.576,6.3,4.258,1.309,3.567,2.891-1.522,5.342,1.6,4.769,4.109.672,3.552,1.627,1.392-1.9,1.392-1.9,1.74,2.6,3.876.777,2.985-18.266-1.366-18.545S600.795,182.11,600.795,182.11Z" transform="translate(-485.061 -173.379)" fill="#2f2e41"/>
        <path id="Path_2978" data-name="Path 2978" d="M390.505,275.679l.992,6.945h4.466l-1.489-7.938Z" transform="translate(-252.698 -188.71)" fill="#9f616a"/>
        <path id="Path_2979" data-name="Path 2979" d="M652.225,377.83s5.953,5.458,4.466,5.953-6.945,6.449-7.938,6.945c-.888.444-10.419,3.473-8.93,0a13.048,13.048,0,0,1,4.962-5.458l.992-5.953Z" transform="translate(-508.464 -288.132)" fill="#f2f2f2"/>
        <path id="Path_2980" data-name="Path 2980" d="M652.225,377.83s5.953,5.458,4.466,5.953-6.945,6.449-7.938,6.945c-.888.444-10.419,3.473-8.93,0a13.048,13.048,0,0,1,4.962-5.458l.992-5.953Z" transform="translate(-508.464 -288.132)" opacity="0.1"/>
        <path id="Path_2981" data-name="Path 2981" d="M404.779,263.189l.992,6.945h4.464l-1.488-7.938Z" transform="translate(-261.017 -181.429)" fill="#9f616a"/>
        <path id="Path_2982" data-name="Path 2982" d="M625.047,265.969l6.5-21.5s-10.915-9.922-3.473-12.9,9.426,11.907,9.426,11.907l-2.481,25.8H625.1Z" transform="translate(-499.943 -202.648)" fill="#ffb8b8"/>
        <path id="Path_2983" data-name="Path 2983" d="M645.969,276.725s-12.822,16.447-10.877,18.891,5.419,17.328,5.419,17.328-.5,5.953,1.489,5.953,6.945-.992,6.945-2.481-4.466-20.341-4.466-20.341l12.9-16.869Z" transform="translate(-505.685 -229.197)" fill="#e53935"/>
        <path id="Path_2984" data-name="Path 2984" d="M654.377,269.4l12.9-6.945s8.93,4.466,6.449,8.434-13.892,14.388-13.892,14.388,3.473,16.869,2.977,17.365-5.953,2.481-7.443,1.985-9.426-19.845-7.443-20.837,8.434-11.411,8.434-11.411Z" transform="translate(-513.095 -220.877)" fill="#e53935"/>
        <path id="Path_2985" data-name="Path 2985" d="M565.5,713.56s8.93,5.458,9.922,5.458,14.388,3.472,8.434,5.953-28.776-.992-28.279-2.481,0-10.418.992-10.418S565.5,713.56,565.5,713.56Z" transform="translate(-459.445 -482.96)" fill="#2f2e41"/>
        <path id="Path_2986" data-name="Path 2986" d="M589.291,730.212s8.93,5.458,9.922,5.458,14.388,3.473,8.434,5.954-28.776-.992-28.278-2.481,0-10.419.992-10.419S589.291,730.212,589.291,730.212Z" transform="translate(-473.313 -492.667)" fill="#2f2e41"/>
        <path id="Path_2987" data-name="Path 2987" d="M566.2,471.8a70.8,70.8,0,0,0,3.968,12.9c2.481,5.458-.5,31.256-1.985,35.225s-15.875,51.1-11.411,51.6a113.14,113.14,0,0,0,13.4,0l14.388-45.148-2.481-60.528Z" transform="translate(-459.648 -339.439)" fill="#575a88"/>
        <path id="Path_2988" data-name="Path 2988" d="M566.2,471.8a70.8,70.8,0,0,0,3.968,12.9c2.481,5.458-.5,31.256-1.985,35.225s-15.875,51.1-11.411,51.6a113.14,113.14,0,0,0,13.4,0l14.388-45.148-2.481-60.528Z" transform="translate(-459.648 -339.439)" opacity="0.1"/>
        <path id="Path_2989" data-name="Path 2989" d="M577.8,470.079s1.985,13.4,6.449,16.373,2.977,5.953,2.977,5.953L585.242,518.7s-19.35,47.628-13.4,53.583,11.411,3.473,13.892,2.977,6.945-10.915,4.466-13.892,4.962-20.837,6.945-23.814,0-6.945,2.481-7.938,7.938-7.443,7.938-11.907,6.945-52.094,2.481-55.07-33.087,6.147-33.087,6.147Z" transform="translate(-468.266 -337.217)" fill="#575a88"/>
        <circle id="Ellipse_243" data-name="Ellipse 243" cx="10.915" cy="10.915" r="10.915" transform="translate(89.188 41.575)" fill="#ffb8b8"/>
        <circle id="Ellipse_244" data-name="Ellipse 244" cx="8.93" cy="8.93" r="8.93" transform="translate(115.978 3.867)" fill="#9f616a"/>
        <path id="Path_2990" data-name="Path 2990" d="M570.37,288.62s5.954,10.915,8.93,10.915-11.907,11.411-11.907,11.411-4.962-14.388-5.953-14.891S570.37,288.62,570.37,288.62Z" transform="translate(-462.826 -236.132)" fill="#ffb8b8"/>
        <path id="Path_2991" data-name="Path 2991" d="M565.432,308.251s-12.9,4.466-12.4,5.953-3.473,4.962-3.473,6.449-.993,14.891,4.962,25.8,15.38,18.852,10.915,23.814-11.411,13.4-3.969,13.4,19.349-10.915,30.263-6.945,8.434-10.915,8.434-10.915,1.488-11.411-1.489-14.89-13.4-28.279-13.4-31.257-9.923-14.388-12.4-14.388S565.432,308.251,565.432,308.251Z" transform="translate(-455.903 -245.839)" fill="#8985a8"/>
        <path id="Path_2992" data-name="Path 2992" d="M624.579,206.546" transform="translate(-499.67 -188.291)" fill="none" stroke="#2f2e41" stroke-miterlimit="10" stroke-width="1"/>
        <path id="Path_2993" data-name="Path 2993" d="M630.526,198.92s4.04,7.682,4.253,9.05,7.158-9.05,7.158-9.05L634,193.462Z" transform="translate(-503.137 -180.663)" fill="#9f616a"/>
        <path id="Path_2994" data-name="Path 2994" d="M632.555,208.34l8.434-8.93,9.922,4.466s9.254,20.341,9.836,21.829-14.8,8.434-16.287,8.434-11.907-15.38-11.907-15.38S630.074,211.317,632.555,208.34Z" transform="translate(-503.676 -184.13)" fill="#f2f2f2"/>
        <path id="Path_2995" data-name="Path 2995" d="M359.579,155.145v8.93h5.953l-1.958-8.93Z" transform="translate(-234.67 -119.028)" fill="#9f616a"/>
        <path id="Path_2996" data-name="Path 2996" d="M627.591,265.424a3.7,3.7,0,0,0-3.495,2.35c-.388,1.049-.257,2.152,1.586,2.612,3.968.992,4.465,0,4.465,0s6.89-.992,5.429-2.977-5.429-1.985-5.429-1.985Z" transform="translate(-499.285 -222.61)" fill="#9f616a"/>
        <path id="Path_2997" data-name="Path 2997" d="M666.5,368.314s5.953,5.458,4.466,5.953-6.945,6.449-7.938,6.945c-.888.444-10.419,3.473-8.93,0a13.05,13.05,0,0,1,4.962-5.458l.993-5.953Z" transform="translate(-516.785 -282.584)" fill="#f2f2f2"/>
        <path id="Path_2998" data-name="Path 2998" d="M537.451,263.943c.683-.4,1.489-.9,1.5-1.69a1.5,1.5,0,0,0-.981-1.314,4.391,4.391,0,0,0-1.714-.231,2.237,2.237,0,0,0-.663.065c-.565.175-.891.749-1.336,1.138a5.581,5.581,0,0,1-2.368.947,15.5,15.5,0,0,0-3.968,1.639,1.859,1.859,0,0,0-.629.516,2.539,2.539,0,0,0-.253,1.284,12.856,12.856,0,0,1-1.874,4.658,5.1,5.1,0,0,0-.365,4.826,16.418,16.418,0,0,1,.981,1.393c.627,1.306-.156,2.914.3,4.29a3.75,3.75,0,0,0,.956,1.425,7.546,7.546,0,0,0,3.126,1.892c1.127.347,2.526.578,2.967,1.672a8.911,8.911,0,0,0,.418,1.452,2.3,2.3,0,0,0,1.63.82,6.969,6.969,0,0,0,2.112.153,2.621,2.621,0,0,0,1.821-.975,5.319,5.319,0,0,1,.738-1.093c.718-.6,1.81-.126,2.732-.285a2,2,0,0,0,1.566-1.47,2.783,2.783,0,0,1,.318-1.123c.572-.734,2.081-.216,2.459-1.066.246-.546-.273-1.136-.765-1.479a21.794,21.794,0,0,1-2.444-1.659,2.845,2.845,0,0,1-1.037-2.621c.342-1.439,2.22-2.231,2.281-3.708a2.655,2.655,0,0,0-1.253-2.093,19.316,19.316,0,0,1-2.08-1.445c-.445-.43-.78-.971-1.264-1.358a5.929,5.929,0,0,0-3.184-.9c-.6-.062-2.981-.338-2.887-1.247C534.372,265.6,536.845,264.3,537.451,263.943Z" transform="translate(-441.237 -219.856)" fill="#2f2e41"/>
        <path id="Path_2999" data-name="Path 2999" d="M624.927,219.63s-5.458,1.985-5.458,4.464-2.481,10.419,0,10.419a30.35,30.35,0,0,0,7.443-1.9Z" transform="translate(-496.05 -195.917)" fill="#f2f2f2"/>
        <path id="Path_3000" data-name="Path 3000" d="M625.284,250.5s14.388-4.962,14.891-4.962,7.443-3.969,6.945-5.458l-1.985-12.4s-7.944-16.378-2.486-16.378,8.434,12.9,8.434,12.9,11.907,22.326,5.458,27.287-33.241,13.892-34.729,12.4S625.284,250.5,625.284,250.5Z" transform="translate(-497.895 -191.065)" fill="#ffb8b8"/>
        <path id="Path_3001" data-name="Path 3001" d="M654.777,220.289l3.348,3.227-4.341,4.214s-5.953-2.481-5.458-.992,3.472,5.954,5.458,5.954,12.313-6.449,12.358-8.434-6.4-8.93-7.893-9.426S654.777,220.289,654.777,220.289Z" transform="translate(-513.496 -193.103)" fill="#9f616a"/>
        <path id="Path_3002" data-name="Path 3002" d="M648.735,211s7.289,6.436,8.281,6.436,2.8-9.668,2.8-9.668-5.881-3.832-8.06-2.787S648.735,211,648.735,211Z" transform="translate(-513.751 -187.271)" fill="#f2f2f2"/>
        <path id="Path_3003" data-name="Path 3003" d="M587.706,309.839s0-6.945,14.891-6.945h6.449l-2.977,16.373-9.922,2.977Z" transform="translate(-478.177 -244.451)" fill="#8985a8"/>
        <path id="Path_3004" data-name="Path 3004" d="M628.1,171.961a38.493,38.493,0,0,1-4.365-.273c-1.138-2.749-2.586-5.055-4.154-5.915a15.72,15.72,0,0,0-4.174-2.291c-3.306-1.4-8.809-.529-9.131,1.068-6.5,3.108-4.861,8.567-4.861,8.567,1.011,2.137,3.279,1.19,5.2.223a3.8,3.8,0,0,0,3.313,2.926c3.176.12,4.717,1.449,3.951,3.2s-1.686,5.917,1.776,5.284,4.553.745,3.94,1.8,1.542-2.105,1.542-2.105,1.927,2.869,4.294.862a1.794,1.794,0,0,0,.493-.844,3.552,3.552,0,0,0,2.467.432c2.835-1.268,1.074-4.246,1.074-4.246s3.784-.581,2.564-.484-1.99-1.484.073-4.332S630.013,172.021,628.1,171.961Z" transform="translate(-486.065 -162.778)" fill="#2f2e41"/>
        <rect id="Rectangle_251" data-name="Rectangle 251" width="1.489" height="4.466" transform="matrix(0.949, 0.316, -0.316, 0.949, 121.436, 6.475)" fill="#e53935"/>
        <path id="Path_3005" data-name="Path 3005" d="M360.124,345.457c-19.3.089-35.013.374-35.013.374s18.675-24.738,34.944-15.574a222.123,222.123,0,0,0,34.956,15.25S379.426,345.368,360.124,345.457Z" transform="translate(-325.111 -259.215)" fill="#f2f2f2"/>
        <path id="Path_3007" data-name="Path 3007" d="M770.192,362.457c19.3.089,35.013.374,35.013.374s-18.678-24.743-34.944-15.572a222.146,222.146,0,0,1-34.956,15.25S750.89,362.368,770.192,362.457Z" transform="translate(-564.213 -269.125)" fill="#f2f2f2"/>
      </g>
    </g>
    <g id="background2" transform="translate(208 2144)">
      <circle id="Ellipse_534" data-name="Ellipse 534" cx="124.912" cy="124.912" r="124.912" fill="rgba(79,19,76,0.05)"/>
      <circle id="Ellipse_535" data-name="Ellipse 535" cx="99.912" cy="99.912" r="99.912" transform="translate(25 25)" fill="rgba(79,19,76,0.05)"/>
    </g>
  </g>
</svg>
