<svg xmlns="http://www.w3.org/2000/svg" width="162.702" height="150" viewBox="0 0 162.702 150">
  <g id="Group_1608" data-name="Group 1608" transform="translate(-940 -1143)">
    <g id="background" transform="translate(940 1143)">
      <circle id="Ellipse_532" data-name="Ellipse 532" cx="55.757" cy="55.757" r="55.757" transform="translate(18.889 18.586)" fill="rgba(79,19,76,0.05)"/>
      <circle id="Ellipse_533" data-name="Ellipse 533" cx="74.343" cy="74.343" r="74.343" fill="rgba(79,19,76,0.05)"/>
    </g>
    <g id="undraw_toy_car_7umw" transform="translate(941.236 1144.624)">
      <path id="Path_3118" data-name="Path 3118" d="M778.919,745.441a4.979,4.979,0,0,1,7.709-2.883l.2.15c4.384,3.286,1.782,9.312,0,9.445s-5.208.283-5.208.283S777.586,750.777,778.919,745.441Z" transform="translate(-659.454 -605.698)" fill="#192534"/>
      <path id="Path_3119" data-name="Path 3119" d="M826.843,700.639v1.1s-17.817,1.231-19.718,1.231h-3.561s-.053.055-.139.154c-.146.165-.4.454-.671.818a7.033,7.033,0,0,0-1.383,2.588,2.933,2.933,0,0,1-1.232,2.054l-3.561-.956-3.435-4.109-.5-.482-1.426-1.362L790,700.508l.061-.655v-.1a37.184,37.184,0,0,1,1.116-4.16.383.383,0,0,1,.037-.113c.988-2.966,2.634-6.568,5.01-7.64.182-.081.37-.16.571-.231l.241-.084c4.554-1.525,13.158-.92,13.158-.92s6.572,1.918,7.122,2.741,6.777,7.6,6.777,7.6a10.222,10.222,0,0,1,1.5,1.391A4.663,4.663,0,0,1,826.843,700.639Z" transform="translate(-667.831 -564.991)" fill="#e53935"/>
      <ellipse id="Ellipse_259" data-name="Ellipse 259" cx="1.918" cy="3.013" rx="1.918" ry="3.013" transform="translate(119.709 138.661)" fill="#fff" opacity="0.1"/>
      <path id="Path_3120" data-name="Path 3120" d="M800.789,692s-1.572,2.41-3.233,5.5a.117.117,0,0,0,0,.024c-.442.823-.894,1.69-1.323,2.578l-.018.042s-.908-.72-1.625-1.423a.379.379,0,0,1,.036-.113c.988-2.966,2.634-6.569,5.009-7.641.182-.081.369-.16.571-.231Z" transform="translate(-671.218 -568.129)" opacity="0.1"/>
      <path id="Path_3121" data-name="Path 3121" d="M800.48,703.661s9.723,2.882,11.638,1.643c0,0,.687-8.764-3.833-9.312,0,0-2.6-.687-3.144-.262S800.48,703.661,800.48,703.661Z" transform="translate(-675.565 -571.71)" fill="#fff" opacity="0.1"/>
      <path id="Path_3122" data-name="Path 3122" d="M848.56,699.51s1.918,7.257,3.289,7.4,15.2-.139,14.652-1.1-6.573-7.118-6.573-7.118Z" transform="translate(-711.048 -573.997)" fill="#fff" opacity="0.1"/>
      <path id="Path_3123" data-name="Path 3123" d="M835.895,747.854s2.489-3.269,6.872.016,1.779,9.312,0,9.445-5.19.272-5.19.272S832.171,755.373,835.895,747.854Z" transform="translate(-700.735 -609.211)" fill="#192534"/>
      <path id="Path_3124" data-name="Path 3124" d="M913.224,747.663a3.966,3.966,0,0,0-5.363-2.3,7.667,7.667,0,0,0-1.383.841c-3.905,2.924-1.572,8.287,0,8.411.568.042,1.326.091,2.063.126a4.879,4.879,0,0,0,5.015-5.958,10.247,10.247,0,0,0-.332-1.119Z" transform="translate(-752.212 -608.184)" fill="#192534"/>
      <ellipse id="Ellipse_260" data-name="Ellipse 260" cx="1.918" cy="3.013" rx="1.918" ry="3.013" transform="translate(134.363 140.304)" fill="#fff" opacity="0.1"/>
      <path id="Path_3125" data-name="Path 3125" d="M864.231,740.137s-.262-3.972,3.972-2.329,1.507,3.425,1.507,3.425Z" transform="translate(-722.611 -602.571)" fill="#fff" opacity="0.1"/>
      <path id="Path_3126" data-name="Path 3126" d="M924.661,733.925v.545l-.684.262-1.4-.262s-.3-2.242.846-2.882a4.986,4.986,0,0,1,1.234,2.337Z" transform="translate(-765.649 -598.276)" fill="#fff" opacity="0.1"/>
      <path id="Path_3127" data-name="Path 3127" d="M826.843,738.312v1.069s-17.817,1.232-19.718,1.232h-.016a3.312,3.312,0,0,0-2.8-.409,3.069,3.069,0,0,0-.7.409c-.063.05-.123.1-.182.154a3.743,3.743,0,0,0-.671.817,9.723,9.723,0,0,0-.964,5.054c-3.561,1.1-7.257-1.779-7.257-1.779a18.083,18.083,0,0,0-1.871-4.192,3.51,3.51,0,0,0-1.425-1.362L790,738.155l.061-.655L800,744.726s.959-6.163,3.144-5.751a49.487,49.487,0,0,0,6.573.411Z" transform="translate(-667.831 -602.638)" opacity="0.1"/>
      <path id="Path_3128" data-name="Path 3128" d="M786.9,737.36s-.823,2.054,0,2.193,2.67-1.572,5.068,5.615c0,0,3.7,2.883,7.258,1.779,0,0-.425-5.2,2.528-6.437s7.878,4.931,7.878,4.931v1.37l11.641-1.234s3.561-2.738,3.425-6.982l-17.528,1.1a49.534,49.534,0,0,1-6.573-.412c-2.19-.411-3.144,5.764-3.144,5.764Z" transform="translate(-665.274 -602.534)" fill="#e53935"/>
      <rect id="Rectangle_302" data-name="Rectangle 302" width="14.654" height="14.654" rx="7.327" transform="translate(65.001 97.372)" fill="#192534"/>
      <path id="Path_3129" data-name="Path 3129" d="M561.486,634.415a14.143,14.143,0,0,0,2.688-2.838,13.378,13.378,0,0,0,1.391-3.3q1.537-4.9,2.649-9.917c-4.032-.616-7.043-4.178-10.989-5.222-.091-.026-3.11,18.095-3.33,19.75-.182,1.368-1.743,7.9.036,7.937.951.021,2.937-2.361,3.639-2.984Z" transform="translate(-492.995 -510.861)" fill="#3f3d56"/>
      <path id="Path_3130" data-name="Path 3130" d="M561.486,634.415a14.143,14.143,0,0,0,2.688-2.838,13.378,13.378,0,0,0,1.391-3.3q1.537-4.9,2.649-9.917c-4.032-.616-7.043-4.178-10.989-5.222-.091-.026-3.11,18.095-3.33,19.75-.182,1.368-1.743,7.9.036,7.937.951.021,2.937-2.361,3.639-2.984Z" transform="translate(-492.995 -510.861)" opacity="0.1"/>
      <path id="Path_3131" data-name="Path 3131" d="M342.333,512.321a2.924,2.924,0,0,0-1.284.363c-.524.363-.658,1.048-.908,1.64a4.015,4.015,0,0,1-1.585,1.834c-.6.363-1.331.613-1.69,1.216a2.682,2.682,0,0,0-.281,1.311,25.129,25.129,0,0,0,.182,4.019,6.087,6.087,0,0,1,.055,2.007,5.637,5.637,0,0,1-1.1,2.057,9.845,9.845,0,0,0-2.271,5.07,13.7,13.7,0,0,1-.074,2.824c-.422,1.622-2.141,2.68-2.476,4.32a7.79,7.79,0,0,1-.262,1.453c-.33.786-1.24,1.216-1.472,2.025a6.189,6.189,0,0,0,.1,1.881,5.017,5.017,0,0,1-.925,2.576l-2.725,4.637a11.8,11.8,0,0,0-1.942,4.813,10.787,10.787,0,0,0,.873,4.527c1.172,3.236,2.911,6.662,6.12,7.907a13.5,13.5,0,0,0,6.013.409,42.938,42.938,0,0,0,8.222-1.218c1.323-.375,2.62-.876,3.956-1.142a21.613,21.613,0,0,0,2.665-.545,5.5,5.5,0,0,0,3.574-4.323c1.143.454,2.2-1.048,2.039-2.264s-.98-2.245-1.31-3.425a6.72,6.72,0,0,1,.786-4.892c.786-1.5,1.871-2.824,2.725-4.284a16.324,16.324,0,0,0,1.96-5.282,32.545,32.545,0,0,0,.182-7.643l-.539-9.744a13.565,13.565,0,0,0-1-5.24,12.464,12.464,0,0,0-4-4.219,66.8,66.8,0,0,0-7.271-4.814c-1.629-.908-1.514-.558-2.815.524A7.225,7.225,0,0,1,342.333,512.321Z" transform="translate(-323.673 -434.488)" fill="#3f3d56"/>
      <path id="Path_3132" data-name="Path 3132" d="M456.6,605.8a27.9,27.9,0,0,0-5.154,4.826,13.962,13.962,0,0,0-2.8,7.91,24.384,24.384,0,0,0,.281,4c.281,2.161.786,4.569,2.607,5.764,1.148.752,2.724.941,3.508,2.067a9.682,9.682,0,0,0,.678,1.1,2.983,2.983,0,0,0,2.1.727,19.414,19.414,0,0,0,3.38-.1,12.645,12.645,0,0,1,3.852-.194c2.468.464,4.31,2.793,6.811,3.105,2.078.262,4.024-.945,5.764-2.1,1.794-1.187,3.668-2.458,4.64-4.378.945-1.865.894-4.061.817-6.155a29.734,29.734,0,0,0-.786-6.919,12.151,12.151,0,0,1-.443-1.8c-.182-1.572.524-3.118,1.048-4.622.817-2.287,1.172-5.107-.448-6.914a6.094,6.094,0,0,0-2.6-1.572c-4.258-1.53-8.958-.948-13.326-.262C462.361,600.917,459.865,603.223,456.6,605.8Z" transform="translate(-415.912 -500.854)" fill="#3f3d56"/>
      <path id="Path_3133" data-name="Path 3133" d="M576.03,553.328a52.569,52.569,0,0,0-4.6,7.86,50.6,50.6,0,0,0-2.1,6.183c-1.682,5.812-3.351,11.754-6.71,16.787a4.953,4.953,0,0,0-1.066,2.342,4.568,4.568,0,0,0,.716,2.295,22.453,22.453,0,0,0,2.73,4.391,22.744,22.744,0,0,0,3.814,3.328c2.806,2.1,5.924,4.318,9.432,4.16a2.779,2.779,0,0,0,1.986-.744,2.463,2.463,0,0,0,.467-1.989c-.263-2.156-1.886-3.852-3.36-5.449s-2.953-3.466-2.835-5.646c.091-1.8,1.271-3.335,2.4-4.74,1.291-1.609,2.587-3.215,3.8-4.879A93.311,93.311,0,0,0,592.8,553.466c1.272-3.542,2.427-7.266,2.031-11-2.883-.707-8.646-3.071-11.08-.636-1.475,1.478-2.518,3.668-3.668,5.41Z" transform="translate(-499.241 -457.441)" fill="#fbbebe"/>
      <path id="Path_3134" data-name="Path 3134" d="M661.544,451.189a44.951,44.951,0,0,0-4.255,10.113,5.481,5.481,0,0,0-.272,2.62,9.109,9.109,0,0,0,1.31,2.508,2.9,2.9,0,0,1,.38,2.7,17.594,17.594,0,0,1-6.044-.951l-6.194-1.726a3.2,3.2,0,0,1-1.4-.649,3.164,3.164,0,0,1-.524-2.793c1.213-7.981,5.109-15.338,6.569-23.274a4.989,4.989,0,0,1,1.347-3.144c2.62-2.07,8.552-.317,9.909,2.68C663.881,442.592,663.26,448.2,661.544,451.189Z" transform="translate(-560.42 -379.9)" fill="#e53935"/>
      <path id="Path_3135" data-name="Path 3135" d="M581.518,371.7c-.233.121-.495.262-.566.509a.923.923,0,0,0,.246.741l2.644,3.724a116.894,116.894,0,0,0,8.235,10.706,58.149,58.149,0,0,0,7.447,6.933,5.632,5.632,0,0,1,1.928,2.081,20.051,20.051,0,0,1,.817-14.874c.864-1.835,2.007-3.535,2.906-5.358a.762.762,0,0,0-.417-1.237c-2.29-1.181-4.8-1.892-7.074-3.088a37.858,37.858,0,0,1-5.012-3.377c-1.433-1.077-3.34-2.979-5.109-3.432-1.907-.492-1.834,1.25-2.452,2.7A8.022,8.022,0,0,1,581.518,371.7Z" transform="translate(-513.551 -327.688)" fill="#fbbebe"/>
      <path id="Path_3136" data-name="Path 3136" d="M581.518,371.7c-.233.121-.495.262-.566.509a.923.923,0,0,0,.246.741l2.644,3.724a116.894,116.894,0,0,0,8.235,10.706,58.149,58.149,0,0,0,7.447,6.933,5.632,5.632,0,0,1,1.928,2.081,20.051,20.051,0,0,1,.817-14.874c.864-1.835,2.007-3.535,2.906-5.358a.762.762,0,0,0-.417-1.237c-2.29-1.181-4.8-1.892-7.074-3.088a37.858,37.858,0,0,1-5.012-3.377c-1.433-1.077-3.34-2.979-5.109-3.432-1.907-.492-1.834,1.25-2.452,2.7A8.022,8.022,0,0,1,581.518,371.7Z" transform="translate(-513.551 -327.688)" opacity="0.1"/>
      <path id="Path_3137" data-name="Path 3137" d="M465.089,384.661a30.753,30.753,0,0,0-4.231-3.367,30.127,30.127,0,0,1-5.207-5.777c-2.856-3.833-5.735-8.529-4.313-13.1-1.512-.146-2.815,1.1-3.529,2.434a33.622,33.622,0,0,1-1.968,4.092c-1.35,1.868-3.645,2.738-5.782,3.592a94.261,94.261,0,0,0-13.577,6.747,19.407,19.407,0,0,0-4.808,3.707c-1.426,1.635-2.318,3.668-3.529,5.463a20.683,20.683,0,0,1-9.919,7.677,18.462,18.462,0,0,0-3.886,1.676,7.933,7.933,0,0,0-2.961,8.047,12.459,12.459,0,0,0,5.054,7.3,31.786,31.786,0,0,0,8.015,3.905q3.532,1.3,7.108,2.473a40.851,40.851,0,0,0,5.368,1.453c3.351.616,6.8.463,10.184.838,3.1.341,6.138,1.124,9.249,1.341s6.4-.2,8.937-2.007a17.358,17.358,0,0,0,4.6-5.764,156.864,156.864,0,0,0,8.6-17.2c.741-1.747,7.621-11.647,5.909-12.925-8.628-6.437-5.764,3.791-6.587,3.005C466.715,387.221,466.084,385.785,465.089,384.661Z" transform="translate(-380.911 -325.821)" fill="#e53935"/>
      <path id="Path_3138" data-name="Path 3138" d="M459.42,371.792a79.326,79.326,0,0,1-4.349-11.68,5.553,5.553,0,0,1-.32-3.38c.445-1.311,1.871-2.429,1.453-3.742-3.333,1.048-7.2,2.691-7.86,6.126a8.043,8.043,0,0,1-.467,2.224c-.678,1.326-2.408,1.608-3.878,1.834-4.276.684-8.526,2.408-11.455,5.6a8.85,8.85,0,0,1-1.572,1.512,6.832,6.832,0,0,1-1.412.629c-2.866,1.03-5.812,2.313-7.659,4.737-.951,1.247-1.559,2.744-2.62,3.905-1.436,1.572-3.55,2.361-5.1,3.823a13.54,13.54,0,0,0-2.487,3.461c-2.662,4.813-4.614,10.451-3.2,15.768.737,2.78,2.361,5.256,3.23,7.992,1.2,3.733,1.084,7.992,3.34,11.2a13.9,13.9,0,0,0,5.877,4.359,31.606,31.606,0,0,0,15.984,2.573,59.539,59.539,0,0,0,6.026-1.016c4.75-.98,9.55-2.046,13.865-4.263,7.356-3.781,12.656-10.535,17.71-17.088a22.9,22.9,0,0,0,2.62-3.931,29.194,29.194,0,0,0,1.533-4.278c1.533-4.876,3.689-9.731,3.487-14.835a4.358,4.358,0,0,0-.354-1.779c-.2-.42-.524-.786-.7-1.208a20.252,20.252,0,0,1-.4-2.416c-.627-2.2-3.519-2.62-5.812-2.6l-.734,12.914c-.112,1.939-.32,4.087-1.763,5.389a3.833,3.833,0,0,1-4.517.353c-1.544-1-1.758-2.741-1.747-4.409a18.015,18.015,0,0,0-.823-6.026C463.926,379.366,461.364,375.709,459.42,371.792Z" transform="translate(-385.929 -318.872)" fill="#192534"/>
      <path id="Path_3139" data-name="Path 3139" d="M591.763,528.076c9.124,4.624,18.3,9.283,26.463,15.439,1.886,1.42,3.723,2.924,5.714,4.192,5.714,3.633,12.805,5.4,17.214,10.535a30.057,30.057,0,0,0,2.783,3.219,11.987,11.987,0,0,0,3.076,1.835,27.127,27.127,0,0,0,11.251,2.309,7.073,7.073,0,0,0,2.969-.524c2.452-1.19,3.013-4.376,3.262-7.093.083-.92.1-2-.621-2.576a2.926,2.926,0,0,0-1.393-.462c-7.967-1.258-15.32-5.094-21.978-9.65s-12.76-9.876-19.326-14.563c-2.309-1.648-4.672-3.218-7.035-4.787l-7.648-5.078c-4.045-2.685-8.305-5.449-13.137-5.958a1.736,1.736,0,0,0-.823.055,1.9,1.9,0,0,0-.867,1.008,74.781,74.781,0,0,1-4.882,7.826c-.93,1.368-1.035,1.726.569,2.452C588.795,526.92,590.324,527.347,591.763,528.076Z" transform="translate(-517.361 -438.355)" fill="#fbbebe"/>
      <circle id="Ellipse_261" data-name="Ellipse 261" cx="25.061" cy="25.061" r="25.061" transform="translate(70.134 11.577)" fill="#fbbebe"/>
      <path id="Path_3141" data-name="Path 3141" d="M585.789,269.185c.445-2.25,3.029-3.388,5.316-3.542a13.192,13.192,0,0,1,11.769,5.984,18.525,18.525,0,0,0,1.064-4.359l4.192.311a2.907,2.907,0,0,0,1.394-.125,2.73,2.73,0,0,0,1.153-1.31c1.835-3.425,3.06-7.629,6.5-9.432v4.716a6.267,6.267,0,0,0,4.409-3.351,18.52,18.52,0,0,0,1.122,3.807c.084.2.2.43.414.482a.734.734,0,0,0,.566-.207,25.052,25.052,0,0,0,4.326-4.192L633,266.595a32.422,32.422,0,0,0-14.1-40.111,25.476,25.476,0,0,0-3.593-1.711,35.663,35.663,0,0,0-10.192-1.843c-4.912-.335-10.1-.322-14.41,2.033a27.39,27.39,0,0,0-6.1,5.007c-2.515,2.531-5.03,5.206-6.369,8.515a27.365,27.365,0,0,0-1.522,7.208,11.177,11.177,0,0,0,.091,4.438c.293.988.846,1.876,1.218,2.837a22.461,22.461,0,0,1,.954,5.041,30.424,30.424,0,0,0,3.614,10.674,2.93,2.93,0,0,0,1.679,1.622c.784.182,1.725-.687,1.31-1.368" transform="translate(-510.292 -222.774)" fill="#192534"/>
      <path id="Path_3142" data-name="Path 3142" d="M585.789,269.185c.445-2.25,3.029-3.388,5.316-3.542a13.192,13.192,0,0,1,11.769,5.984,18.525,18.525,0,0,0,1.064-4.359l4.192.311a2.907,2.907,0,0,0,1.394-.125,2.73,2.73,0,0,0,1.153-1.31c1.835-3.425,3.06-7.629,6.5-9.432v4.716a6.267,6.267,0,0,0,4.409-3.351,18.52,18.52,0,0,0,1.122,3.807c.084.2.2.43.414.482a.734.734,0,0,0,.566-.207,25.052,25.052,0,0,0,4.326-4.192L633,266.595a32.422,32.422,0,0,0-14.1-40.111,25.476,25.476,0,0,0-3.593-1.711,35.663,35.663,0,0,0-10.192-1.843c-4.912-.335-10.1-.322-14.41,2.033a27.39,27.39,0,0,0-6.1,5.007c-2.515,2.531-5.03,5.206-6.369,8.515a27.365,27.365,0,0,0-1.522,7.208,11.177,11.177,0,0,0,.091,4.438c.293.988.846,1.876,1.218,2.837a22.461,22.461,0,0,1,.954,5.041,30.424,30.424,0,0,0,3.614,10.674,2.93,2.93,0,0,0,1.679,1.622c.784.182,1.725-.687,1.31-1.368" transform="translate(-510.292 -222.774)" fill="none" stroke="#000" stroke-miterlimit="10" stroke-width="1"/>
      <path id="Path_3143" data-name="Path 3143" d="M500.772,448.741c1.012,2.78,3.553,4.666,5.963,6.385l6.288,4.486a15.754,15.754,0,0,1,4.476,4.169,3.487,3.487,0,0,0-1.795,4.268,5.48,5.48,0,0,0,3.647,3.3,13.866,13.866,0,0,0,5.06.409,10.809,10.809,0,0,0,5.607-1.453l-3.542-2.18c-.933-.579-2-1.5-1.664-2.543l3.734-.036a1.807,1.807,0,0,0,1.132-.262,2,2,0,0,0,.55-.975,8.265,8.265,0,0,1,6.975-5.261c.923-.068,1.984-.029,2.62-.716a3.022,3.022,0,0,0,.577-1.726,11.127,11.127,0,0,0,.044-3.5,3.774,3.774,0,0,0-1.965-2.751,9,9,0,0,0-2.555-.438c-3.953-.524-6.694-4.109-8.817-7.485s-4.4-7.114-8.183-8.372a13.311,13.311,0,0,0-3.639-.559,17.564,17.564,0,0,0-8.02,1.242C502.637,436.864,498.969,443.795,500.772,448.741Z" transform="translate(-454.038 -378.277)" fill="#e53935"/>
      <path id="Path_3144" data-name="Path 3144" d="M633.108,325.57l-4.978-8.628a24.962,24.962,0,0,1-4.326,4.192.727.727,0,0,1-.566.21c-.212-.053-.331-.278-.414-.482a18.542,18.542,0,0,1-1.122-3.81,6.266,6.266,0,0,1-4.409,3.354V315.69c-3.443,1.811-4.659,6.013-6.5,9.432a2.766,2.766,0,0,1-1.152,1.31,2.905,2.905,0,0,1-1.394.125l-4.193-.311a18.533,18.533,0,0,1-1.063,4.359,13.192,13.192,0,0,0-11.769-5.984c-2.288.152-4.871,1.289-5.317,3.542l-.222-.246c.421.684-.524,1.548-1.311,1.37a2.922,2.922,0,0,1-1.679-1.622,30.425,30.425,0,0,1-3.6-10.682,22.453,22.453,0,0,0-.954-5.041c-.372-.962-.924-1.85-1.219-2.837a.478.478,0,0,0-.026-.1c-.024.2-.047.393-.068.589a11.27,11.27,0,0,0,.091,4.45c.293.988.846,1.876,1.219,2.834a22.49,22.49,0,0,1,.953,5.044,30.387,30.387,0,0,0,3.6,10.679,2.936,2.936,0,0,0,1.679,1.625c.784.182,1.726-.687,1.311-1.37l.222.243c.445-2.248,3.029-3.388,5.317-3.537a13.185,13.185,0,0,1,11.769,5.981,18.48,18.48,0,0,0,1.063-4.359l4.192.31a2.886,2.886,0,0,0,1.394-.125,2.73,2.73,0,0,0,1.152-1.31c1.833-3.428,3.061-7.629,6.5-9.432v4.722a6.266,6.266,0,0,0,4.409-3.354,18.605,18.605,0,0,0,1.121,3.81c.083.2.2.43.414.48a.716.716,0,0,0,.566-.207,24.96,24.96,0,0,0,4.326-4.192l4.978,8.628a32.692,32.692,0,0,0,2.162-14.41A32.4,32.4,0,0,1,633.108,325.57Z" transform="translate(-510.38 -286.409)" opacity="0.1"/>
    </g>
  </g>
</svg>
