<svg xmlns="http://www.w3.org/2000/svg" width="151.342" height="150" viewBox="0 0 151.342 150">
  <g id="Group_1609" data-name="Group 1609" transform="translate(-1162 -1143)">
    <g id="background" transform="translate(1165 1143)">
      <circle id="Ellipse_532" data-name="Ellipse 532" cx="55.534" cy="55.534" r="55.534" transform="translate(18.543 18.511)" fill="rgba(79,19,76,0.05)"/>
      <circle id="Ellipse_533" data-name="Ellipse 533" cx="74.045" cy="74.045" r="74.045" fill="rgba(79,19,76,0.05)"/>
    </g>
    <g id="birthdayfriends" transform="translate(1162 1145.349)">
      <g id="undraw_outdoor_party_oqh3" transform="translate(0)">
        <path id="Path_807" data-name="Path 807" d="M166.9,489.77H22.16v4.669H44.733v44.355l4.814-.24L49.4,494.439h87.92v44.355l4.551,1.2.118-45.554H166.9Z" transform="translate(-16.509 -405.962)" fill="#e6e6e6"/>
        <rect id="Rectangle_66" data-name="Rectangle 66" width="144.739" height="4.669" transform="translate(5.936 69.839)" fill="#e6e6e6"/>
        <rect id="Rectangle_67" data-name="Rectangle 67" width="144.739" height="4.669" transform="translate(5.936 58.167)" fill="#e6e6e6"/>
        <rect id="Rectangle_68" data-name="Rectangle 68" width="144.739" height="4.669" transform="translate(5.936 46.494)" fill="#e6e6e6"/>
        <path id="Path_808" data-name="Path 808" d="M166.9,489.77H22.16v4.669H44.733v44.355l4.814-.24L49.4,494.439h87.92v44.355l4.551,1.2.118-45.554H166.9Z" transform="translate(-16.509 -405.962)" fill="#e6e6e6"/>
        <rect id="Rectangle_69" data-name="Rectangle 69" width="144.739" height="4.669" transform="translate(5.936 69.839)" fill="#e6e6e6"/>
        <rect id="Rectangle_70" data-name="Rectangle 70" width="144.739" height="4.669" transform="translate(5.936 58.167)" fill="#e6e6e6"/>
        <rect id="Rectangle_71" data-name="Rectangle 71" width="144.739" height="4.669" transform="translate(5.936 46.494)" fill="#e6e6e6"/>
        <path id="Path_809" data-name="Path 809" d="M89.687,246.87,70.777,251.2l-7.989-15.068,16.169-6.313Z" transform="translate(-46.771 -212.332)" fill="#2f2e41"/>
        <rect id="Rectangle_72" data-name="Rectangle 72" width="54.188" height="2.071" transform="translate(55.271 45.099)" fill="#3f3d56"/>
        <path id="Path_810" data-name="Path 810" d="M589.056,353.714h-.969a2.06,2.06,0,0,0,.279-1.035v-3.451a2.071,2.071,0,0,0-2.071-2.071h-.811a2.063,2.063,0,0,0,.12-.69v-3.451a2.071,2.071,0,0,0-2.071-2.071h-23.47a2.071,2.071,0,0,0-2.071,2.071v3.451a2.057,2.057,0,0,0,.12.69H557.3a2.071,2.071,0,0,0-2.071,2.071v3.451a2.061,2.061,0,0,0,.279,1.036h-.969a2.071,2.071,0,0,0-2.071,2.071v3.451a2.071,2.071,0,0,0,2.071,2.071h34.514a2.071,2.071,0,0,0,2.071-2.071v-3.451A2.071,2.071,0,0,0,589.056,353.714Z" transform="translate(-489.261 -315.518)" fill="#e53935"/>
        <path id="Path_811" data-name="Path 811" d="M603.052,338.439c0-.858-5.872-1.553-13.116-1.553s-13.115.7-13.115,1.553c0,.426,1.45.812,3.8,1.093v1.41a.433.433,0,0,0,.431.431h.173a.433.433,0,0,0,.432-.431v-1.3c.541.052,1.118.1,1.726.141v1.157a.433.433,0,0,0,.431.431h.173a.433.433,0,0,0,.431-.431v-1.094c1.583.087,3.337.138,5.186.143a.425.425,0,0,0-.009.087v1.553a.433.433,0,0,0,.431.431h.173a.432.432,0,0,0,.431-.431v-1.553a.434.434,0,0,0-.009-.088c1.59-.01,3.1-.053,4.5-.124v1.42a.433.433,0,0,0,.431.431h.172a.433.433,0,0,0,.432-.431v-1.479c1.452-.093,2.738-.217,3.8-.365V340.6a.433.433,0,0,0,.431.431h.172a.433.433,0,0,0,.432-.431v-1.32C602.29,339.034,603.052,338.747,603.052,338.439Z" transform="translate(-507.399 -312.495)" fill="#e6e6e6"/>
        <rect id="Rectangle_73" data-name="Rectangle 73" width="27.611" height="0.69" transform="translate(68.732 31.293)" fill="#3f3d56"/>
        <rect id="Rectangle_74" data-name="Rectangle 74" width="32.444" height="0.69" transform="translate(66.316 37.851)" fill="#3f3d56"/>
        <rect id="Rectangle_75" data-name="Rectangle 75" width="37.621" height="0.69" transform="translate(63.9 44.063)" fill="#3f3d56"/>
        <rect id="Rectangle_76" data-name="Rectangle 76" width="1.035" height="5.867" transform="translate(81.848 19.903)" fill="#e6e6e6"/>
        <path id="Path_812" data-name="Path 812" d="M624.231,307.481c0,1.176-.656,1.2-1.465,1.2s-2.137-.233-1.464-1.2c.709-1.018,1.925-2.959,1.464-3.062C622.767,304.418,624.231,306.3,624.231,307.481Z" transform="translate(-540.394 -288.312)" fill="#f9a825"/>
        <path id="Path_813" data-name="Path 813" d="M626,315.719c0,.466-.259.474-.58.474s-.846-.092-.58-.474c.281-.4.762-1.171.58-1.212A2.874,2.874,0,0,1,626,315.719Z" transform="translate(-543.115 -295.826)" fill="#ff6584" opacity="0.5"/>
        <rect id="Rectangle_77" data-name="Rectangle 77" width="1.035" height="5.867" transform="translate(87.715 20.249)" fill="#e6e6e6"/>
        <path id="Path_814" data-name="Path 814" d="M647.229,308.833c0,1.176-.656,1.2-1.465,1.2s-2.136-.233-1.464-1.2c.709-1.018,1.925-2.959,1.464-3.062C645.764,305.771,647.229,307.657,647.229,308.833Z" transform="translate(-557.524 -289.319)" fill="#f9a825"/>
        <path id="Path_815" data-name="Path 815" d="M649,317.072c0,.466-.259.474-.579.474s-.846-.092-.58-.474c.281-.4.762-1.171.58-1.212A2.872,2.872,0,0,1,649,317.072Z" transform="translate(-560.245 -296.834)" fill="#ff6584" opacity="0.5"/>
        <rect id="Rectangle_78" data-name="Rectangle 78" width="1.035" height="5.867" transform="translate(76.325 20.249)" fill="#e6e6e6"/>
        <path id="Path_816" data-name="Path 816" d="M602.586,308.833c0,1.176-.656,1.2-1.464,1.2s-2.137-.233-1.464-1.2c.709-1.018,1.925-2.959,1.464-3.062C601.122,305.771,602.586,307.657,602.586,308.833Z" transform="translate(-524.272 -289.319)" fill="#f9a825"/>
        <path id="Path_817" data-name="Path 817" d="M604.359,317.072c0,.466-.259.474-.58.474s-.846-.092-.58-.474c.281-.4.762-1.171.58-1.212A2.872,2.872,0,0,1,604.359,317.072Z" transform="translate(-526.993 -296.834)" fill="#ff6584" opacity="0.5"/>
        <path id="Path_818" data-name="Path 818" d="M797.288,324.016l-18.157-3.28c-1.269-5.039-3.018-10.362-.213-14.92.82-3.442,4.5-4.426,8.241-5.277a9.694,9.694,0,0,1,9.993,3.6,8.057,8.057,0,0,1,1.39,7.167C800.344,313.98,799.483,320.529,797.288,324.016Z" transform="translate(-656.814 -285.235)" fill="#2f2e41"/>
        <path id="Path_819" data-name="Path 819" d="M693.84,557.4l-7.905-5.4,10.4-36.249L707.3,497.629l-20.312,12.356,1.059,24.13-10.233,5.19-2.738-29.932a9.781,9.781,0,0,1,4.881-9.379l16.741-9.585,1.324-13.766,18.473-2.836c7.142,9.21,10.936,17.661,7.656,24.511L707.5,519.778Z" transform="translate(-580.552 -414.483)" fill="#2f2e41"/>
        <path id="Path_820" data-name="Path 820" d="M697.9,779.922s-1.412-2.843-2.881-1.94a51.414,51.414,0,0,0-5.367,4.989s-7.174,2.051-2.222,4.067,6.721,1.6,6.816,1.206,1.167-1.393,1.167-1.393l1.883.866,2.956-.131s2.922-7,1.668-7S698.008,781.2,697.9,779.922Z" transform="translate(-588.486 -640.919)" fill="#2f2e41"/>
        <path id="Path_821" data-name="Path 821" d="M696.163,707.817s-3.153-.368-3.2,1.355a51.425,51.425,0,0,0,1.252,7.219s-2.2,7.131,2.2,4.081,5.009-4.759,4.729-5.053a5.967,5.967,0,0,1-.53-1.739l1.753-1.1,1.5-2.549s-4.274-6.269-4.958-5.219S697.3,708.421,696.163,707.817Z" transform="translate(-593.909 -586.458)" fill="#2f2e41"/>
        <circle id="Ellipse_63" data-name="Ellipse 63" cx="6.849" cy="6.849" r="6.849" transform="translate(121.964 17.528)" fill="#a0616a"/>
        <path id="Path_822" data-name="Path 822" d="M775.817,368.523l-16.8-.09c1.84-4.791,3.812-9.2,7.281-9.218,2.736-2.542,2.437-5.976,1.138-9.7l8.549,1.059c-.4,2.464.172,4.5,2.326,5.835C776.141,360.579,774.927,364.657,775.817,368.523Z" transform="translate(-643.111 -321.899)" fill="#a0616a"/>
        <path id="Path_823" data-name="Path 823" d="M776.091,407.223l-23.3,1.726-1.765-10.929c-4.865-4.646-4.28-9.327.213-14.031l1.64-6.064,3.587-1.1h0a3.771,3.771,0,0,0,3.945,5.742l1.314-.278a3.771,3.771,0,0,0,2.388-1.645l4.728-7.326,2.463.305a1.351,1.351,0,0,1,1.156,1.061l2.285,10.8C771.879,389.707,776.11,401.476,776.091,407.223Z" transform="translate(-634.62 -339.632)" fill="#575a89"/>
        <path id="Path_824" data-name="Path 824" d="M752.516,471.687l2.343,4.24a3.345,3.345,0,0,1-1.675,4.719h0a3.345,3.345,0,0,1-4.6-3.184l.112-4.532-4.854-17.39.513-12,5.085.82-.107,11.123Z" transform="translate(-631.809 -391.935)" fill="#a0616a"/>
        <path id="Path_825" data-name="Path 825" d="M823.426,456.946l-2.191,4.321a3.345,3.345,0,0,0,1.841,4.656h0a3.345,3.345,0,0,0,4.481-3.346l-.273-4.526,4.234-17.551-.938-11.978-5.053,1,.5,11.112Z" transform="translate(-689.184 -380.752)" fill="#a0616a"/>
        <path id="Path_826" data-name="Path 826" d="M748.205,404.643l-7.773-1.852,2.859-9.576a5.885,5.885,0,0,1,4.478-4.085l1.875-.377Z" transform="translate(-629.266 -351.129)" fill="#575a89"/>
        <path id="Path_827" data-name="Path 827" d="M831.228,391.258l.156-6.022,1.462-9.816a1.351,1.351,0,0,1,1.321-1.152h0a1.351,1.351,0,0,1,.764.227l6.463,15.045C840.209,392.284,832.753,387.991,831.228,391.258Z" transform="translate(-696.897 -340.341)" fill="#575a89"/>
        <path id="Path_828" data-name="Path 828" d="M417.125,563.488l7.087-6.44-15.283-34.474-13.354-16.438,21.819,9.444,2.27,24.047,10.85,3.733-1.406-30.024a9.781,9.781,0,0,0-6.124-8.618l-17.9-7.19-3.2-13.454-18.688-.267c-5.807,10.1-8.4,19-4.211,25.331L398.423,528.1Z" transform="translate(-358.497 -421.93)" fill="#2f2e41"/>
        <path id="Path_829" data-name="Path 829" d="M535.381,771.758s1.007-3.01,2.586-2.317a51.381,51.381,0,0,1,6,4.2s7.388,1.045,2.761,3.722-6.437,2.51-6.585,2.132-1.348-1.219-1.348-1.219l-1.745,1.117-2.946.276s-3.857-6.534-2.616-6.707S535.446,773.041,535.381,771.758Z" transform="translate(-473.45 -634.612)" fill="#2f2e41"/>
        <path id="Path_830" data-name="Path 830" d="M544.334,698.608s3.072-.8,3.353.9a51.407,51.407,0,0,1-.247,7.323s3.156,6.761-1.613,4.344-5.616-4.024-5.38-4.355a5.959,5.959,0,0,0,.286-1.795l-1.889-.853-1.839-2.318s3.371-6.8,4.193-5.852S543.293,699.363,544.334,698.608Z" transform="translate(-477.742 -579.923)" fill="#2f2e41"/>
        <circle id="Ellipse_64" data-name="Ellipse 64" cx="6.849" cy="6.849" r="6.849" transform="translate(20.094 19.431)" fill="#ffb9b9"/>
        <path id="Path_831" data-name="Path 831" d="M395.122,374.413l16.626-2.4c-2.482-4.492-5.041-8.587-8.48-8.129-3.06-2.141-3.236-5.584-2.462-9.455l-8.322,2.225c.732,2.386.449,4.482-1.5,6.1C393.708,366.59,395.472,370.462,395.122,374.413Z" transform="translate(-368.975 -325.563)" fill="#ffb9b9"/>
        <path id="Path_832" data-name="Path 832" d="M384.179,410.533c5.908,7.692,11.967,10.731,18.481-.264l.537-4.906c4.18-5.272,2.956-9.827-2.141-13.869l-2.459-5.78-3.7-.6h0a3.771,3.771,0,0,1-3.117,6.23l-1.339-.095a3.772,3.772,0,0,1-2.591-1.3l-5.691-6.606-2.4.641a1.351,1.351,0,0,0-1,1.21l-.777,11.009C381.4,400,383.37,404.844,384.179,410.533Z" transform="translate(-359.289 -347.101)" fill="#e53935"/>
        <path id="Path_833" data-name="Path 833" d="M326.969,422.708l-13.085-2.657,8.691-8.087-3.308-5.982L305.22,420.923a2,2,0,0,0,1.281,3.3l19.024,2.107.781,3.443a2.925,2.925,0,0,0,4.43,1.817h0a2.925,2.925,0,0,0,.515-4.509Z" transform="translate(-304.723 -363.963)" fill="#ffb9b9"/>
        <path id="Path_834" data-name="Path 834" d="M465.933,470.216l-1.737,4.522a3.345,3.345,0,0,0,2.308,4.443h0a3.345,3.345,0,0,0,4.115-3.786l-.735-4.474,2.416-17.892L470.14,441.21l-4.924,1.512,1.636,11Z" transform="translate(-423.343 -390.202)" fill="#ffb9b9"/>
        <path id="Path_835" data-name="Path 835" d="M453.828,406.709l7.445-2.9-4.149-9.092a5.885,5.885,0,0,0-5-3.43l-1.909-.116Z" transform="translate(-413.096 -352.927)" fill="#e53935"/>
        <path id="Path_836" data-name="Path 836" d="M353.18,399.067l7.937-2.687-2.8-9.521a1.351,1.351,0,0,0-1.467-.959h0a1.351,1.351,0,0,0-.726.33l-8.108,7.194C349.568,395.976,351.22,396.04,353.18,399.067Z" transform="translate(-336.971 -348.995)" fill="#e53935"/>
        <path id="Path_837" data-name="Path 837" d="M372.408,297.4s4.189.788,5.158,6.012a9.591,9.591,0,0,1,.082,2.668c-.1,1.006.044,3.13,2.227,5.631a54.762,54.762,0,0,1,3.976,5.106h0l-4.377,1.165-1.956-7.252a37.094,37.094,0,0,0-4.335-9.963l-.04-.065s-1.454,3.884-5.35,4.417l1.2-1.582a49.592,49.592,0,0,1-7.136,3.437,1.7,1.7,0,0,0-.547,2.948l.056.043c1.9,1.442,5.77,4.882,4.241,8.209s.254,3.935.254,3.935l-3.29-1.252-1.506-.645.152,1.113-7.35.154s-1.986-.012,1.542-5.314a5.006,5.006,0,0,0,.152-3.507,8.067,8.067,0,0,1-.815-3.7C354.97,303.623,357.222,292.748,372.408,297.4Z" transform="translate(-340.915 -282.245)" fill="#2f2e41"/>
        <path id="Path_838" data-name="Path 838" d="M785.938,308.18l6.328,4.027.575-1.15c3.82,2.76,3,9.819,1.151,17.832,0,0,6.685,2.453,7.478,0,1.412-4.365.288-14.669.288-14.669l-2.3-6.04-3.739-2.013-3.164-.288S789.677,304.441,785.938,308.18Z" transform="translate(-663.162 -289.197)" fill="#2f2e41"/>
        <ellipse id="Ellipse_65" data-name="Ellipse 65" cx="0.863" cy="1.15" rx="0.863" ry="1.15" transform="translate(131.692 25.598)" fill="#a0616a"/>
        <ellipse id="Ellipse_67" data-name="Ellipse 67" cx="0.885" cy="0.885" rx="0.885" ry="0.885" transform="translate(78.032 3.116)" fill="#e6e6e6"/>
        <path id="Path_851" data-name="Path 851" d="M808.556,276.715l-1.191-2.636-.944-2.094-1.371-3.036-.947-2.095L802.817,264a.29.29,0,0,0-.5-.05l-1.326,1.848-1.027,1.427L798.48,269.3l-1.024,1.43-1.487,2.069-1.024,1.427-.762,1.06a.269.269,0,0,0-.054.139.3.3,0,0,0,.023.147.287.287,0,0,0,.235.168l13.88,1.385a.271.271,0,0,0,.234-.087.219.219,0,0,0,.029-.032.3.3,0,0,0,.052-.139A.268.268,0,0,0,808.556,276.715Z" transform="translate(-669.262 -258.081)" fill="#e53935"/>
        <path id="Path_852" data-name="Path 852" d="M517.385,194.692,512.3,192.97l1.027-1.426,3.109,1.053Z" transform="translate(-381.597 -183.825)" fill="#e6e6e6"/>
        <path id="Path_853" data-name="Path 853" d="M512.369,210.026l-9.909-3.353,1.024-1.43,7.941,2.688Z" transform="translate(-374.266 -194.029)" fill="#e6e6e6"/>
        <path id="Path_854" data-name="Path 854" d="M810.887,303.194a.272.272,0,0,1-.234.086l-6.749-.673-6.573-2.225,1.024-1.427Z" transform="translate(-671.648 -284.242)" fill="#e6e6e6"/>
        <circle id="Ellipse_74" data-name="Ellipse 74" cx="2.301" cy="2.301" r="2.301" transform="translate(131.134 2.307)" fill="#e53935"/>
        <path id="Path_855" data-name="Path 855" d="M390.925,267.04l-1.447-2.505-1.148-1.99-1.665-2.885-1.15-1.99-1.562-2.709a.289.289,0,0,0-.5,0l-1.136,1.97-.88,1.522-1.274,2.206-.877,1.524-1.274,2.206-.877,1.521-.653,1.13a.268.268,0,0,0-.04.144.3.3,0,0,0,.037.144.287.287,0,0,0,.25.144h13.95a.272.272,0,0,0,.224-.109.224.224,0,0,0,.026-.034.3.3,0,0,0,.037-.144A.267.267,0,0,0,390.925,267.04Z" transform="translate(-358.143 -251.365)" fill="#e53935"/>
        <path id="Path_856" data-name="Path 856" d="M96.539,185.831l-5.229-1.208.88-1.522,3.2.739Z" transform="translate(-68.016 -177.537)" fill="#e6e6e6"/>
        <path id="Path_857" data-name="Path 857" d="M93.07,201.589l-10.193-2.353.877-1.524,8.168,1.887Z" transform="translate(-61.735 -188.419)" fill="#e6e6e6"/>
        <path id="Path_858" data-name="Path 858" d="M392.926,295.307a.271.271,0,0,1-.224.109H385.92l-6.762-1.562.877-1.521Z" transform="translate(-360.167 -279.31)" fill="#e6e6e6"/>
        <circle id="Ellipse_75" data-name="Ellipse 75" cx="2.301" cy="2.301" r="2.301" transform="translate(23.259 0)" fill="#e53935"/>
      </g>
    </g>
  </g>
</svg>
