<svg xmlns="http://www.w3.org/2000/svg" width="150" height="150" viewBox="0 0 150 150">
  <g id="Group_1605" data-name="Group 1605" transform="translate(-940 -918)">
    <g id="background" transform="translate(940 918)">
      <circle id="Ellipse_532" data-name="Ellipse 532" cx="56.25" cy="56.25" r="56.25" transform="translate(18.75 18.75)" fill="rgba(79,19,76,0.05)"/>
      <circle id="Ellipse_533" data-name="Ellipse 533" cx="75" cy="75" r="75" fill="rgba(79,19,76,0.05)"/>
    </g>
    <g id="undraw_chasing_love_3v98_2_" data-name="undraw_chasing_love_3v98 (2)" transform="translate(957.531 918)">
      <path id="Path_13029" data-name="Path 13029" d="M870.295,134.949c-1.494,4.423-3.784,8.453-8.453,8.453a8.631,8.631,0,0,1-8.453-8.453c-.336-5.956,3.677-8.477,8.453-8.453C867.484,126.526,872.068,129.7,870.295,134.949Z" transform="translate(-794.074 -119.824)" fill="#2f2e41"/>
      <rect id="Rectangle_204" data-name="Rectangle 204" width="16.683" height="21.131" transform="translate(59.316 14.458)" fill="#2f2e41"/>
      <path id="Path_13032" data-name="Path 13032" d="M582.016,391.12l-1.063-.348c-3.793-1.279-6.286-2.1-7.173-4.1a3.114,3.114,0,0,1,1.594-4.173,3.349,3.349,0,0,0,4.711-2.09,3.114,3.114,0,0,1,4.164,1.619c.888,2-.179,4.4-1.777,8.067Z" transform="translate(-573.49 -319.722)" fill="#ff6584"/>
      <path id="Path_13034" data-name="Path 13034" d="M605.758,257.2l-.437-.33c-1.555-1.2-2.58-1.97-2.674-3.039a1.526,1.526,0,0,1,1.4-1.681,1.641,1.641,0,0,0,2.516-.22,1.526,1.526,0,0,1,1.673,1.412c.093,1.069-.782,2.009-2.106,3.457Z" transform="translate(-596.463 -218.674)" fill="#ff6584"/>
      <path id="Path_13035" data-name="Path 13035" d="M637.519,174.128l-.437-.33c-1.555-1.2-2.58-1.97-2.674-3.039a1.526,1.526,0,0,1,1.4-1.681,1.641,1.641,0,0,0,2.516-.22A1.526,1.526,0,0,1,640,170.27c.093,1.069-.782,2.009-2.106,3.457Z" transform="translate(-621.495 -153.205)" fill="#ff6584"/>
      <path id="Path_13036" data-name="Path 13036" d="M653.951,312.71l-.162-.921c-.553-3.3-.933-5.462.193-6.906a2.6,2.6,0,0,1,3.707-.47,2.8,2.8,0,0,0,3.4,2.65,2.6,2.6,0,0,1,.448,3.709c-1.126,1.444-3.314,1.6-6.651,1.871Z" transform="translate(-636.355 -259.597)" fill="#ff6584"/>
      <path id="Path_13038" data-name="Path 13038" d="M929.826,237.552h1.419a12.632,12.632,0,0,1,1.892,10.406c-1.577,5.991-.315,7.095-.315,7.095s2.052,6.488-.155,16.263,2.047,12.432,2.047,12.432l-3.942-7.883-2.207-20.811Z" transform="translate(-853.338 -207.351)" fill="#e53935"/>
      <path id="Path_13039" data-name="Path 13039" d="M929.826,237.59h1.419A12.632,12.632,0,0,1,933.137,248c-1.577,5.991-.315,7.095-.315,7.095s2.052,6.488-.155,16.263,2.047,12.432,2.047,12.432l-3.942-7.883-2.207-20.811Z" transform="translate(-853.338 -207.381)" opacity="0.1"/>
      <path id="Path_13040" data-name="Path 13040" d="M878.818,201.363s-1.261,5.045-.631,5.045,2.838,2.68,2.838,2.68l1.419,5.2-1.1,3.784-3.784-.788-4.73-5.2-1.419-1.419-1.261-4.572s1.577-1.892.473-3.469S878.818,201.363,878.818,201.363Z" transform="translate(-807.297 -178.809)" fill="#fbbebe"/>
      <path id="Path_13041" data-name="Path 13041" d="M878.818,201.363s-1.261,5.045-.631,5.045,2.838,2.68,2.838,2.68l1.419,5.2-1.1,3.784-3.784-.788-4.73-5.2-1.419-1.419-1.261-4.572s1.577-1.892.473-3.469S878.818,201.363,878.818,201.363Z" transform="translate(-807.297 -178.809)" opacity="0.1"/>
      <path id="Path_13042" data-name="Path 13042" d="M691.84,224.474l-3.469-5.676s-3.744-8.284-6.425-5.289,4.06,9.073,4.06,9.073l3.469,4.572Z" transform="translate(-658.472 -187.887)" fill="#fbbebe"/>
      <path id="Path_13043" data-name="Path 13043" d="M875.558,485.956,873.036,504.4s.315,1.419-2.838,6.622-11.667,16.555-11.667,16.555l-2.523-4.73s3-14.978,8.2-18.131l-.631-22.7Z" transform="translate(-796.153 -400.021)" fill="#fbbebe"/>
      <path id="Path_13044" data-name="Path 13044" d="M875.558,485.956,873.036,504.4s.315,1.419-2.838,6.622-11.667,16.555-11.667,16.555l-2.523-4.73s3-14.978,8.2-18.131l-.631-22.7Z" transform="translate(-796.153 -400.021)" opacity="0.1"/>
      <path id="Path_13045" data-name="Path 13045" d="M826.1,665.827l3.469,6.622s-2.838,8.041-1.734,8.829,2.523,7.883-.473,7.095-5.36-3.942-5.36-4.414,1.734-7.095.788-8.672a7.654,7.654,0,0,0-1.577-2.05l-2.365,3.942-.788-.473L822,670.084a4.156,4.156,0,0,1,2.365-2.05Z" transform="translate(-766.241 -544.891)" fill="#2f2e41"/>
      <path id="Path_13046" data-name="Path 13046" d="M826.1,665.827l3.469,6.622s-2.838,8.041-1.734,8.829,2.523,7.883-.473,7.095-5.36-3.942-5.36-4.414,1.734-7.095.788-8.672a7.654,7.654,0,0,0-1.577-2.05l-2.365,3.942-.788-.473L822,670.084a4.156,4.156,0,0,1,2.365-2.05Z" transform="translate(-766.241 -544.891)" opacity="0.1"/>
      <path id="Path_13047" data-name="Path 13047" d="M845.43,483.339s1.224,17.438-1.456,22.01v22.7l-3.626.473s-6.149-12.3-3.469-24.122-3.942-22.388-3.942-22.388Z" transform="translate(-777.971 -400.021)" fill="#e2abab"/>
      <circle id="Ellipse_518" data-name="Ellipse 518" cx="6.622" cy="6.622" r="6.622" transform="translate(59.934 13.174)" fill="#fbbebe"/>
      <path id="Path_13048" data-name="Path 13048" d="M756.159,230.2l-6.622-8.356-3.784-2.523-1.577,2.05-4.414,1.261s-2.838.631-5.834,4.1-8.356,5.518-8.356,5.518l-4.414-.788s-5.2-2.365-5.2-3-4.572,4.257-3.469,6.149a33.271,33.271,0,0,0,4.73,5.518c1.261,1.261,1.734,4.888,9.46,3.784s10.563-4.888,10.563-4.888,1.419,7.253,5.518,8.671,17.5,2.365,17.5,2.365l2.838-9.46s3.153-4.1-1.1-10.09a39.531,39.531,0,0,0-.539-5.58,3.687,3.687,0,0,0-.722-1.83c-1.1-.946-6.937-2.523-6.937-2.523s.946,3.153,1.419,3.311S756.789,229.41,756.159,230.2Z" transform="translate(-682.902 -192.981)" fill="#e53935"/>
      <path id="Path_13049" data-name="Path 13049" d="M809.184,379.453c7.94-.552,12.563.749,14.625,1.741a5.226,5.226,0,0,1,1.075.653c.151.128.224.227.224.287,0,.473,10.879,1.419,14.82.473s-2.68-21.285-4.415-23.019-.8-8.082-.8-8.082-3.458-.747-4.4-.432-5.833-.473-7.568-1.419-3.942-.315-5.361-.631a.891.891,0,0,0-1.113.4,2.727,2.727,0,0,1-1.078,1.089c-3.347,1.928-6.034,15.26-8.057,22.631C804.927,381.188,809.184,379.453,809.184,379.453Z" transform="translate(-757.134 -295.174)" fill="#2f2e41"/>
      <path id="Path_13050" data-name="Path 13050" d="M867.9,692.617l.631,3.469s3.311,4.73,2.365,8.671c0,0,.788,5.2,3.626,6.622s.473,4.73-2.207,4.572-5.2.158-5.518-.631-2.207-8.514-2.207-8.514l-.518,9.04-1.577.158.518-10.459s-1.261-2.365.473-6.306l-.438-6.05S867.427,694.194,867.9,692.617Z" transform="translate(-801.265 -566.005)" fill="#2f2e41"/>
      <path id="Path_13051" data-name="Path 13051" d="M888.2,464.92a5.227,5.227,0,0,1,1.075.653c.083-1.49.566-10.5-.013-10.355Z" transform="translate(-821.526 -378.9)" opacity="0.1"/>
      <path id="Path_13052" data-name="Path 13052" d="M843.63,143.025s-.073-.408-2.941.667-4.587,9.013-3.153,13.673a4.27,4.27,0,0,1-.659,4.18,6.905,6.905,0,0,0,2.448,10.725q.178.077.362.153l1.793,1.076a8.2,8.2,0,0,1-1.141-6.853,19.721,19.721,0,0,0,.356-10.1c-.131-.563-.28-1.144-.449-1.736-1.434-5.019-.737-4.44,4.282-9.459a31.913,31.913,0,0,0,5.378,3.227c2.51,1.076,4.661,2.151,2.868,5.736s-6.095,6.812-3.227,11.472,3.227,2.868,2.868,4.661h0l-.358,1.793,2.151-2.151-1.434,2.868s4.661,0,6.095-3.585l.717.717s2.868-5.019-2.51-9.68c0,0-1.792-1.076.717-4.661s.582-11.293-2.645-12.727S843.63,143.025,843.63,143.025Z" transform="translate(-779.816 -132.348)" fill="#2f2e41"/>
      <circle id="Ellipse_519" data-name="Ellipse 519" cx="3.337" cy="3.337" r="3.337" transform="translate(64.432 1.779)" fill="#2f2e41"/>
      <path id="Path_13053" data-name="Path 13053" d="M871.979,98.337a3.337,3.337,0,0,1,3-3.32c-.11-.011-.221-.017-.333-.017a3.337,3.337,0,1,0,0,6.673c.113,0,.224-.006.333-.017A3.337,3.337,0,0,1,871.979,98.337Z" transform="translate(-808.214 -95)" fill="#2f2e41"/>
      <path id="Path_13054" data-name="Path 13054" d="M677.832,208.333l-.437-.33c-1.555-1.2-2.58-1.97-2.674-3.039a1.526,1.526,0,0,1,1.4-1.681,1.641,1.641,0,0,0,2.516-.22,1.526,1.526,0,0,1,1.673,1.412c.093,1.069-.782,2.009-2.106,3.457Z" transform="translate(-653.267 -180.163)" fill="#ff6584"/>
    </g>
  </g>
</svg>
