<svg xmlns="http://www.w3.org/2000/svg" width="142.972" height="150" viewBox="0 0 142.972 150">
  <g id="Group_1610" data-name="Group 1610" transform="translate(-822.243 -1361.486)">
    <g id="background" transform="translate(824 1372)">
      <circle id="Ellipse_532" data-name="Ellipse 532" cx="51.965" cy="51.965" r="51.965" transform="translate(17.322 17.436)" fill="rgba(79,19,76,0.05)"/>
      <circle id="Ellipse_533" data-name="Ellipse 533" cx="69.287" cy="69.287" r="69.287" fill="rgba(79,19,76,0.05)"/>
    </g>
    <g id="birthdayfunnycards" transform="translate(822.243 1361.486)">
      <g id="undraw_feeling_happy_jymo" transform="translate(0 0)">
        <ellipse id="Ellipse_87" data-name="Ellipse 87" cx="45.289" cy="3.108" rx="45.289" ry="3.108" transform="translate(0 143.194)" fill="#e6e6e6"/>
        <path id="Path_1068" data-name="Path 1068" d="M561.057,389.729c.444-2.5,2.745-3.963,5.04-4.55a22.539,22.539,0,0,1,8.075-.285c5.366.609,10.636,2.254,16.081,2a27.09,27.09,0,0,0,13.31-4.283,26.216,26.216,0,0,0,9.344-10.474,27.118,27.118,0,0,0,2.724-13.877c-.044-.595-.112-1.187-.2-1.778-.06-.423-.7-.243-.642.177a26.236,26.236,0,0,1-1.936,14.005,25.6,25.6,0,0,1-8.822,10.831,26.491,26.491,0,0,1-13.12,4.693c-5.376.393-10.6-1.153-15.883-1.853a26.618,26.618,0,0,0-8.054-.022c-2.36.411-4.781,1.466-5.993,3.652a5.149,5.149,0,0,0-.57,1.588C560.341,389.971,560.982,390.151,561.057,389.729Z" transform="translate(-497.713 -302.349)" fill="#3f3d56"/>
        <circle id="Ellipse_88" data-name="Ellipse 88" cx="27.751" cy="27.751" r="27.751" transform="translate(87.47)" fill="#e53935"/>
        <circle id="Ellipse_89" data-name="Ellipse 89" cx="7.104" cy="7.104" r="7.104" transform="translate(97.682 15.096)" fill="#fff"/>
        <path id="Path_1069" data-name="Path 1069" d="M760.026,277.5a4.224,4.224,0,0,0,4.213,4h11.544a4.223,4.223,0,0,0,4.212-4Z" transform="translate(-653.013 -241.091)" fill="#fff"/>
        <circle id="Ellipse_90" data-name="Ellipse 90" cx="3.774" cy="3.774" r="3.774" transform="translate(98.349 20.758)" fill="#3f3d56"/>
        <circle id="Ellipse_91" data-name="Ellipse 91" cx="0.888" cy="0.888" r="0.888" transform="translate(102.567 22.09)" fill="#fff"/>
        <circle id="Ellipse_92" data-name="Ellipse 92" cx="7.104" cy="7.104" r="7.104" transform="translate(120.771 15.207)" fill="#fff"/>
        <circle id="Ellipse_93" data-name="Ellipse 93" cx="3.774" cy="3.774" r="3.774" transform="translate(121.437 20.758)" fill="#3f3d56"/>
        <circle id="Ellipse_94" data-name="Ellipse 94" cx="0.888" cy="0.888" r="0.888" transform="translate(125.655 22.09)" fill="#fff"/>
        <circle id="Ellipse_95" data-name="Ellipse 95" cx="2.664" cy="2.664" r="2.664" transform="translate(113.001 27.529)" fill="#3f3d56"/>
        <rect id="Rectangle_96" data-name="Rectangle 96" width="4.884" height="3.774" transform="translate(114.777 53.947)" fill="#e53935"/>
        <path id="Path_1070" data-name="Path 1070" d="M501.262,687.481s3.134,9.178,1.791,12.536l4.029,3.581,2.462-3.134s-2.686-2.686-2.462-4.7.448-9.178.448-9.178Z" transform="translate(-451.697 -559.358)" fill="#ffb9b9"/>
        <path id="Path_1071" data-name="Path 1071" d="M517.014,746.119l-.518.3H502.6a.733.733,0,0,1-.36-.749c.065-.332.231-1.008.436-1.785.487-1.838,1.2-4.246,1.357-3.989h0v0c.217.4.664,2.19,1.785,1.968s2.911-.673,2.911-.673-.639-1.436-.028-2.016a.856.856,0,0,1,.476-.223c1.343-.222,1.343,1.791,1.343,1.791l4.924,2.686a8.183,8.183,0,0,1,1.239.453C517.687,744.354,518.675,745.153,517.014,746.119Z" transform="translate(-452.452 -600.089)" fill="#2f2e41"/>
        <path id="Path_1072" data-name="Path 1072" d="M435.042,675.494l-5.82,6.939-1.567,3.582,2.015,1.567,1.791-.672s1.567-4.029,3.134-4.7,5.373-5.149,5.373-5.149Z" transform="translate(-394.431 -550.728)" fill="#ffb9b9"/>
        <path id="Path_1073" data-name="Path 1073" d="M465.567,640.752l-2.968,5.5-2.127,3.94a3.428,3.428,0,0,1-2.563.159,9.831,9.831,0,0,1-1.334-.445,25.941,25.941,0,0,1-5.366-3.255l5.113-6.389,1.67-2.084.4-.5,1.909.817,3.369,1.439Z" transform="translate(-412.756 -521.311)" fill="#2f2e41"/>
        <path id="Path_1074" data-name="Path 1074" d="M447.9,432.092l-2.371,9.726,2.441,12.478s.06,5.1,2.3,4.714-.107-5.531-.107-5.531l-1.094-10.231,3.5-10.108a1.857,1.857,0,0,0-.9-2.2h0A2.583,2.583,0,0,0,447.9,432.092Z" transform="translate(-408.338 -360.164)" fill="#ffb9b9"/>
        <path id="Path_1075" data-name="Path 1075" d="M473.3,396l-2.015,6.268-3.805-2.015a49.011,49.011,0,0,0,1.567-5.149C469.05,394.43,473.3,396,473.3,396Z" transform="translate(-425.417 -332.454)" fill="#ffb9b9"/>
        <circle id="Ellipse_96" data-name="Ellipse 96" cx="4.701" cy="4.701" r="4.701" transform="translate(41.619 56.603)" fill="#ffb9b9"/>
        <path id="Path_1076" data-name="Path 1076" d="M460.647,417.813l-.9-.9-.224-1.119s-2.91-3.805-5.372-2.462a4.649,4.649,0,0,0-1.766,2.516,12.223,12.223,0,0,0,.281,9.092l3.947,9.21,8.954-.9L464,427.438s1.567-3.582-1.343-6.044Z" transform="translate(-413.096 -346.547)" fill="#e53935"/>
        <path id="Path_1077" data-name="Path 1077" d="M488.977,640.752l-2.968,5.5-2.127,3.94a3.429,3.429,0,0,1-2.563.159c-.17-1.133.846-7.118.047-12l.036-.175.4-.5,1.909.817,3.369,1.439Z" transform="translate(-436.166 -521.311)" opacity="0.3"/>
        <path id="Path_1078" data-name="Path 1078" d="M475.188,496.808s-5.82-3.582-9.849.9l.224,1.343s-3.358,3.805-1.343,11.864,5.149,29.1,5.149,29.1,7.387.448,10.745-2.015c0,0-1.119-27.758-4.925-30.443Z" transform="translate(-422.376 -410.656)" fill="#2f2e41"/>
        <path id="Path_1079" data-name="Path 1079" d="M459.912,431.889l6.316,7.767,11.417,5.6s4.1,3.035,5.143,1.019-4.472-3.257-4.472-3.257L469.5,437.7l-5.939-8.9a1.857,1.857,0,0,0-2.293-.616h0A2.583,2.583,0,0,0,459.912,431.889Z" transform="translate(-419.237 -358.205)" fill="#f18e8e"/>
        <path id="Path_1080" data-name="Path 1080" d="M416.12,707.747s1.372-1.726,2.192-.638-.967,2.019-.967,2.019l-.1,5.609s.975,4.289-1.657,2.632-2.735-1.855-3.253-2.848-1.587-4.979-2.51-6.265-1.769-3.874-.673-4.194,6.2-1.456,5.95-1.077-1.635,1.6-.919,2.493S416.12,707.747,416.12,707.747Z" transform="translate(-379.63 -572.057)" fill="#2f2e41"/>
        <path id="Path_1081" data-name="Path 1081" d="M452.234,348.756c0-.006,0-.011,0-.017a6.492,6.492,0,1,0-6.492,6.492c.151,0,.747,1.129.9,1.119C446.647,352.923,448.863,348.986,452.234,348.756Z" transform="translate(-403.452 -291.464)" fill="#2f2e41"/>
        <circle id="Ellipse_97" data-name="Ellipse 97" cx="4.253" cy="4.253" r="4.253" transform="translate(31.098 48.097)" fill="#2f2e41"/>
        <path id="Path_1082" data-name="Path 1082" d="M436.355,319.672A4.247,4.247,0,0,1,437.568,328a4.25,4.25,0,1,0-1.214-8.325Z" transform="translate(-401.199 -273.764)" fill="#2f2e41"/>
        <path id="Path_1083" data-name="Path 1083" d="M203.6,251.939h3.407a2.86,2.86,0,0,1,2.86,2.86v1.169H203.6Z" transform="translate(-158.4 -196.007)" fill="#2f2e41"/>
      </g>
    </g>
  </g>
</svg>
