<svg xmlns="http://www.w3.org/2000/svg" xmlns:xlink="http://www.w3.org/1999/xlink" width="164.654" height="150" viewBox="0 0 164.654 150">
  <defs>
    <linearGradient id="linear-gradient" x1="0.5" y1="1" x2="0.5" gradientUnits="objectBoundingBox">
      <stop offset="0" stop-color="gray" stop-opacity="0.251"/>
      <stop offset="0.54" stop-color="gray" stop-opacity="0.122"/>
      <stop offset="1" stop-color="gray" stop-opacity="0.102"/>
    </linearGradient>
  </defs>
  <g id="Group_1604" data-name="Group 1604" transform="translate(-716 -917.916)">
    <g id="birthdayboy" transform="translate(717.249 917.916)">
      <g id="undraw_young_and_happy_hfpe_2_" data-name="undraw_young_and_happy_hfpe (2)" transform="translate(0)">
        <path id="Path_3239" data-name="Path 3239" d="M161.488,232.606l-10.242,1.6-5.248.5h0l-1.4.134s-2.5.4-2.743,0-5.059,0-5.059,0-2.926-3.487-9.877-1.645a5.136,5.136,0,0,1-2.307.708.309.309,0,0,1,0-.042,5.748,5.748,0,0,0-2.514-5.079,5.365,5.365,0,0,0-1.982.607l-.056.031-.162.1-.021.024a6.694,6.694,0,0,0,.146-.961,3.278,3.278,0,0,1,.014-.364,1.273,1.273,0,0,0,.694-.486.856.856,0,0,0,.087-.452v-.169a.234.234,0,0,1,0-.036v.011a11.259,11.259,0,0,0-.25-1.691l.754.5a.776.776,0,0,0,.623.179.47.47,0,0,0,.292-.305c.134-.365.036-.8.324-1.1.067-.071.152-.129.21-.2a.523.523,0,0,0,.106-.359,1.29,1.29,0,0,0-.017-.223v.015a1.327,1.327,0,0,1-.023-.576.5.5,0,0,0,.576-.162.936.936,0,0,0,.146-.544c.017-.324.031-.657.023-.988a.066.066,0,0,0,0-.019h0a3.319,3.319,0,0,0-.705-2.178c.14-.9-.834-1.872-1.922-1.995-.267-.029-.6-.045-.715-.243a.681.681,0,0,1-.052-.3,1.862,1.862,0,0,0-.486-.929,1.507,1.507,0,0,0-.324-.324,1.876,1.876,0,0,0-1.307-.091q-1.214.214-2.414.477a2.307,2.307,0,0,1,.017-1.176,2.081,2.081,0,0,0,.134-.6.586.586,0,0,0-.021-.192v.025a.951.951,0,0,0-.038-.094.486.486,0,0,0-.385-.25.54.54,0,0,0-.5.3,5.958,5.958,0,0,0-.932,2.21,2.234,2.234,0,0,0-2.116-.238,1.833,1.833,0,0,1-.555.192.929.929,0,0,1-.8-.456c-.221-.329-.319-.721-.746-.938a.675.675,0,0,0-.615,0,.419.419,0,0,0-.207.253.149.149,0,0,0,0-.029.406.406,0,0,0,0,.081v.077c-.015.371.243.852-.05,1.144a1.1,1.1,0,0,1-.4.214l-1.046.375a5.931,5.931,0,0,1-1.751.431c-.548.019-1.1-.1-1.642-.088a.57.57,0,0,1-.073-.045,2.828,2.828,0,0,0-.359.042.4.4,0,0,0,.038.042h-.038a2,2,0,0,0,1.04.611c.248.062.509.081.75.158a.7.7,0,0,1,.512.442,1,1,0,0,1-.123.508l-.01-.015a.594.594,0,0,0-.036.213.386.386,0,0,0,0,.1.529.529,0,0,0,.606.344l-1.236.779a1.6,1.6,0,0,0-.257.192l-.035-.01a.36.36,0,0,0-.108.266.252.252,0,0,0,.014.112l.4.113-1.086,1.5a1.767,1.767,0,0,0-.173.279l-.011-.019a.529.529,0,0,0-.039.192.419.419,0,0,0,0,.1.384.384,0,0,0,.494.3,2.726,2.726,0,0,0-.567.828l-.017-.011-.017.04a.461.461,0,0,0-.04.192.215.215,0,0,0,.029.146.442.442,0,0,0,.385.133,1.22,1.22,0,0,0,1.2-.865c.177.192-.014.421-.181.619a9.247,9.247,0,0,0-1.73,2.533,3.376,3.376,0,0,0-.227,1v.052a2.466,2.466,0,0,0,.561,1.761,3.182,3.182,0,0,1,.4.5c.215.4.092.913.427,1.252a14.537,14.537,0,0,1,.976-2.084,2.32,2.32,0,0,1-.081.534v-.015c0,.046-.015.091-.019.134a.825.825,0,0,0,0,.1.548.548,0,0,0,.34.55.935.935,0,0,0,.923-.371c.032.081.066.168.1.25a6.888,6.888,0,0,0,3.617,3.527l.031.063h0c-1.3.769-4.314,2.639-4.51,3.356-.252.915-.162,3.319,1.645,3.81a3.77,3.77,0,0,0,1.2.127q-.115.182-.225.364a11.628,11.628,0,0,0-1.046,1.967c-.365,1.178-3.779,2.6-3.779,2.6a11.962,11.962,0,0,0-3.779,7.3s-3.293,4.279-5.121,5.171-5,6.359-5,6.359-3.139,2.2-3.805,4.35a3.994,3.994,0,0,1-2.307,2.672s.15.073.385.219c-.075.04-.154.087-.243.14-1.491.891-4.784,3.319-4.056,7.113.708,3.652,4.837.1,6.843-1.89l.181-.181a5.448,5.448,0,0,1-.127.607,7.634,7.634,0,0,1,1.6-1.792,6.223,6.223,0,0,0,1.619-1.982,2.5,2.5,0,0,1,1.538-1.346c1.645-.415,10-6.833,11.827-10.162a11.207,11.207,0,0,1,5.667-4.615l1.761,5.505a5.142,5.142,0,0,1,.137,2.6c-.385,1.876-.867,5.5.3,8.321,0,0,.053-.05.152-.133.162.715.363,1.655.548,2.579.045.227.087.453.127.677.117.628.215,1.218.271,1.69.243,2.024.915,6.658,1.463,7.134s3.652,10.1,3.652,10.1,2.743,6.3,2.318,9.094a3.981,3.981,0,0,0,.017,1.028,16.033,16.033,0,0,0,.419,2.059c.053.2.108.411.169.623.05.182.1.369.158.555,1.329,4.508,3.869,10.534,3.869,10.534s.211.548.486,1.28c.091.243.192.513.291.788a19.278,19.278,0,0,1,.929,2.924c0,.071.1.15.263.231a18.519,18.519,0,0,0-1.154,2.252,8.3,8.3,0,0,1-2.072,2.51s-1.83.519-1.83,2.115v1.218a30.049,30.049,0,0,1,5.167.283,5.928,5.928,0,0,0,2.987-.253l.365-.473s4.434.192,4.71-.909a7.214,7.214,0,0,0,.011-1.832,23.577,23.577,0,0,0-.442-2.978c.292-.011.492-.031.492-.031s2.024,1.308,2.239,2.6a2.663,2.663,0,0,0,1.265,1.841,12.656,12.656,0,0,0,6.142.521c2.115-.225,2.51-1.3,2.318-2.259-.176-.877-.853-1.653-1.175-1.59-.669.134-3.368-3.745-3.368-3.745l-1.371-2.883c.123-1.538-.238-2.267-.746-2.575.348-3.242.394-7.589.394-7.589a93.992,93.992,0,0,0,0-9.926c-.305-4.7-.305-13.907-1.346-17a86.264,86.264,0,0,1-1.781-9.359c-.046-.292-.092-.576-.134-.871-.146-.947-.283-1.874-.41-2.743.06-.029.121-.058.175-.088l-.324-2.852-.046-.394c.011.011.027.019.038.029,1.1,1.009-.365-4.577-.365-4.577s-.659-6.424-.615-10.12a34.964,34.964,0,0,0-.21-3.935,3.494,3.494,0,0,1,1.809-3.533,8.193,8.193,0,0,0,1.223-.944c.463-.421,1.474-.961,3.652-1.024a19.708,19.708,0,0,0,7.3-2.024s4.21.238,6.153-2.259,6.828-3.089,6.828-3.089ZM86.176,274.777l-.54-.757a5.622,5.622,0,0,1,.54.757ZM132.152,305.7c-.031.385-.053.836-.057,1.346a17.072,17.072,0,0,0,.859,5.742l-.305,7.987h-.025c-.257-.027-.5.788-.684,1.862a8.486,8.486,0,0,0-.567-1.286c-.365-.534-.06-3.5-.06-3.5a24.476,24.476,0,0,1-1.645-2.974c-.119-.536-1.953-9.214-1.953-9.214s-.121-6.774-.792-8.5-.853-9.214-.853-9.214,3.353,5.407,3.6,8.142l2.62,8.381S132.206,304.927,132.152,305.7Z" transform="translate(-79.637 -186.065)" fill="url(#linear-gradient)"/>
        <path id="Path_3240" data-name="Path 3240" d="M272.451,538.013s-.1,9.509-1.1,10.8-6.24.06-6.24.06l.385-10.451a17.2,17.2,0,0,1-.831-5.686c0-.5.025-.961.053-1.332.056-.769.133-1.223.133-1.223l-2.532-8.3c-.236-2.711-3.473-8.074-3.473-8.074s.176,7.418.824,9.124.769,8.42.769,8.42,1.767,8.6,1.884,9.127a24.744,24.744,0,0,0,1.59,2.943s-.294,2.943.06,3.473,1.824,4.652,1.47,5.417-6.71-.3-6.71-.884a19.53,19.53,0,0,0-.9-2.9l-.281-.78c-.266-.729-.471-1.267-.471-1.267s-2.452-5.97-3.735-10.436c-.053-.192-.1-.369-.154-.548-.057-.211-.112-.417-.162-.619a16.528,16.528,0,0,1-.4-2.038,4.085,4.085,0,0,1-.017-1.018c.411-2.768-2.238-9.008-2.238-9.008s-3-9.538-3.533-10.009-1.178-5.061-1.413-7.064c-.053-.469-.148-1.052-.262-1.674-.039-.221-.081-.446-.123-.673-.359-1.855-.8-3.775-.8-3.775l6.6-4.357,17.367-1.884s.486,3.724,1.094,7.823c.042.284.087.576.13.863a85.976,85.976,0,0,0,1.719,9.269c1,3.062,1,12.186,1.3,16.84A95.724,95.724,0,0,1,272.451,538.013Z" transform="translate(-212.604 -411.961)" fill="#63667e"/>
        <path id="Path_3241" data-name="Path 3241" d="M222.54,469.649l2.186,11.158h1.038l-2.076-11.547Z" transform="translate(-179.777 -382.791)" opacity="0.1"/>
        <path id="Path_3242" data-name="Path 3242" d="M248.571,527.457c-.038-.221-.081-.446-.123-.673,1.017-.208,3.319-1.053,2.96-4.453h.705S252.781,526.807,248.571,527.457Z" transform="translate(-216.005 -435.346)" opacity="0.1"/>
        <path id="Path_3243" data-name="Path 3243" d="M340.268,524.927c-1.319.243-5.44.951-6.3.486-1.028-.559-2.045-3.591-2.045-3.591l.942-.148s-.831,4.447,7.275,2.393Z" transform="translate(-283.43 -434.814)" opacity="0.1"/>
        <path id="Path_3244" data-name="Path 3244" d="M276.577,504.158c-1.188.69-3.977,1.023-7.223,1.153-.3.011-.594.023-.9.031-5.263.162-11.408-.133-13.857-.273-.69-.038-1.086-.065-1.086-.065l2.149-1.486,3.533-1.3,7.431-1.457,9.523-.266.1.817Z" transform="translate(-220.092 -417.712)" fill="#33363d"/>
        <path id="Path_3245" data-name="Path 3245" d="M325.637,507.888c-.3.011-.594.023-.9.031a28.452,28.452,0,0,0-1.55-4.106l1-.133Z" transform="translate(-276.378 -420.281)" fill="#63667e"/>
        <path id="Path_3246" data-name="Path 3246" d="M94.717,524.042s-.415.481-1.053,1.133c-1.937,1.971-5.926,5.49-6.607,1.873-.705-3.75,2.476-6.153,3.915-7.039.4-.252.674-.384.674-.384Z" transform="translate(-85.554 -433.158)" fill="#ffa2a2"/>
        <path id="Path_3247" data-name="Path 3247" d="M236.379,300.143s-2.251-1.413-2.672-1.28,0,2.024,0,2.024a5.506,5.506,0,0,1-2.451,2.388,34.461,34.461,0,0,0-3.489,2.1,6.253,6.253,0,0,0-4.805,1.589,3.845,3.845,0,0,1-3.112.53c-1.746-.486-1.832-2.868-1.59-3.774.192-.711,3.1-2.557,4.356-3.325h0c.346-.211.567-.34.567-.34s5.655-.192,6.931-2.6a4.711,4.711,0,0,1,1.7-1.814h0l.032-.017.162-.1.052-.029a5.083,5.083,0,0,1,1.922-.6C236.74,296.654,236.379,300.143,236.379,300.143Z" transform="translate(-191.54 -251.624)" fill="#ced7e7"/>
        <path id="Path_3248" data-name="Path 3248" d="M236.379,300.143s-2.251-1.413-2.672-1.28,0,2.024,0,2.024a5.506,5.506,0,0,1-2.451,2.388,34.461,34.461,0,0,0-3.489,2.1,6.253,6.253,0,0,0-4.805,1.589,3.845,3.845,0,0,1-3.112.53c-1.746-.486-1.832-2.868-1.59-3.774.192-.711,3.1-2.557,4.356-3.325h0c.346-.211.567-.34.567-.34s5.655-.192,6.931-2.6a4.711,4.711,0,0,1,1.7-1.814h0l.032-.017.162-.1.052-.029a5.083,5.083,0,0,1,1.922-.6C236.74,296.654,236.379,300.143,236.379,300.143Z" transform="translate(-191.54 -251.624)" opacity="0.1"/>
        <path id="Path_3249" data-name="Path 3249" d="M276.274,501.411h0c-1.059-1-7.653.823-7.653.823a45.693,45.693,0,0,1-8,1.515,13.063,13.063,0,0,1-1.417.017,8.268,8.268,0,0,0-4.244,1.219l-.324.192c-.69-.038-1.086-.066-1.086-.066l2.149-1.486,3.533-1.3,7.432-1.457,9.523-.266Z" transform="translate(-220.124 -417.8)" opacity="0.1"/>
        <path id="Path_3250" data-name="Path 3250" d="M110.541,525.172A5.265,5.265,0,0,0,107.85,520c.4-.252.674-.384.674-.384l3.077,4.421S111.179,524.521,110.541,525.172Z" transform="translate(-102.431 -433.157)" opacity="0.1"/>
        <path id="Path_3251" data-name="Path 3251" d="M182.9,319.572s-4.711.576-6.594,3.06-5.947,2.238-5.947,2.238a18.757,18.757,0,0,1-7.064,2c-2.1.069-3.077.6-3.522,1.013a7.886,7.886,0,0,1-1.18.936,3.481,3.481,0,0,0-1.746,3.5,36.189,36.189,0,0,1,.2,3.9c-.042,3.652.594,10.022.594,10.022s1.413,5.534.351,4.534-7.651.82-7.651.82a45.811,45.811,0,0,1-8,1.516,13.047,13.047,0,0,1-1.417.015,8.252,8.252,0,0,0-4.244,1.221,17.255,17.255,0,0,0-3.055,2.193c-1.126-2.793-.657-6.386-.288-8.243a5.238,5.238,0,0,0-.13-2.579l-1.7-5.455a10.807,10.807,0,0,0-5.475,4.561c-1.767,3.3-9.832,9.656-11.424,10.068a2.443,2.443,0,0,0-1.491,1.325,6.108,6.108,0,0,1-1.559,1.964,7.513,7.513,0,0,0-1.538,1.774c1.061-4-2.883-5.948-2.883-5.948a3.941,3.941,0,0,0,2.235-2.645c.648-2.115,3.652-4.3,3.652-4.3s3.062-5.416,4.829-6.3,4.946-5.121,4.946-5.121a11.9,11.9,0,0,1,3.652-7.241s3.3-1.413,3.652-2.579a11.656,11.656,0,0,1,1.009-1.947c.45-.757.961-1.563,1.376-2.192s.738-1.113.738-1.113l5.286-.05.961-.01,2.816-5.3s1-1,2.737.177a2.787,2.787,0,0,0,1.691.466,4.9,4.9,0,0,0,2.224-.7c6.713-1.826,9.538,1.63,9.538,1.63s4.65-.394,4.884,0,2.649,0,2.649,0l6.418-.631,9.892-1.588Z" transform="translate(-101.85 -267.521)" fill="#f44336"/>
        <path id="Path_3252" data-name="Path 3252" d="M246.652,296.932l-3,4.944s-8.183,5.948-7,1.3a7.77,7.77,0,0,0,.2-2.393c-.017-.313-.053-.627-.1-.936a15.184,15.184,0,0,0-1.123-3.719c-.06-.143-.121-.279-.192-.413-.092-.192-.183-.385-.273-.567a18.781,18.781,0,0,0-1.29-2.216s8.89-7.241,9.184-2.708a9.275,9.275,0,0,0,.692,2.978l.069.162a9.24,9.24,0,0,0,2.094,2.966A6.246,6.246,0,0,0,246.652,296.932Z" transform="translate(-204.227 -246.648)" fill="#ffa2a2"/>
        <path id="Path_3253" data-name="Path 3253" d="M238.51,330.17l1.384,4.119,5.63.913,3.23-3.553s1.855-2.649,1.972-2.708a21.54,21.54,0,0,0,.411-2.591l.346-1.43-2.178-.729-3.062,3.325-1.252.769-1.39.338-4.615,1.346Z" transform="translate(-207.976 -275.293)" fill="#f44336"/>
        <path id="Path_3254" data-name="Path 3254" d="M247.4,301.991a11.494,11.494,0,0,0-1.947.117,1.678,1.678,0,0,0-.723.628,5.506,5.506,0,0,1-2.451,2.389,34.453,34.453,0,0,0-3.489,2.1,6.245,6.245,0,0,0-4.806,1.589,3.92,3.92,0,0,1-2.178.665c.45-.757.961-1.562,1.376-2.192,1.9-.207,5.918-.944,5.918-.944l.106-.219c.373-.769,1.635-3.366,2.1-4.15.543-.915,2.241-3.774,2.3-3.864l-1.669,1.526.891-2.149h0l.032-.017.162-.1.052-.029a5.084,5.084,0,0,1,1.922-.6,5.652,5.652,0,0,1,2.429,4.719,4.692,4.692,0,0,1-.027.533Z" transform="translate(-202.563 -253.119)" opacity="0.1"/>
        <path id="Path_3255" data-name="Path 3255" d="M240.713,321.666l.436.961s-.036.031-.113.088c-.06-.142-.121-.278-.192-.413-.092-.192-.183-.385-.273-.567.046-.027.088-.056.13-.081Z" transform="translate(-209.64 -273.248)" opacity="0.1"/>
        <path id="Path_3256" data-name="Path 3256" d="M258.009,315.775a5.873,5.873,0,0,1-1.971,1.624,34.276,34.276,0,0,0-3.489,2.1,6.247,6.247,0,0,0-3.61.734c-.017-.313-.053-.627-.1-.936,1.891-.292,4.019-.682,4.019-.682s1.657-3.443,2.207-4.372c.192-.312.508-.855.849-1.434A9.24,9.24,0,0,0,258.009,315.775Z" transform="translate(-216.32 -266.1)" opacity="0.1"/>
        <path id="Path_3257" data-name="Path 3257" d="M236.38,300.184a11.532,11.532,0,0,0-1.949.117,1.653,1.653,0,0,0-.721.631,5.506,5.506,0,0,1-2.451,2.388,34.421,34.421,0,0,0-3.489,2.1A6.251,6.251,0,0,0,222.966,307a3.845,3.845,0,0,1-3.112.53c-1.746-.486-1.832-2.868-1.59-3.774.192-.711,3.1-2.557,4.356-3.325h0l.436.972a27.222,27.222,0,0,1-2.851,1.912c-1.878,1.125-.929,2.339-.929,2.339a9.7,9.7,0,0,1,2.048-.134c.972.066,6.756-.993,6.756-.993s1.657-3.445,2.207-4.372,2.241-3.774,2.3-3.863l-1.669,1.538.891-2.149h0l.032-.017.162-.1.052-.029a5.084,5.084,0,0,1,1.922-.6C236.741,296.7,236.38,300.184,236.38,300.184Z" transform="translate(-191.54 -251.665)" fill="#f44336"/>
        <path id="Path_3258" data-name="Path 3258" d="M243.754,293.2a6.72,6.72,0,0,1-8.321,2.51,19.509,19.509,0,0,0-1.563-2.781s8.89-7.241,9.184-2.708A9.277,9.277,0,0,0,243.754,293.2Z" transform="translate(-204.227 -246.648)" opacity="0.1"/>
        <path id="Path_3259" data-name="Path 3259" d="M233.455,262.976q0,.252-.017.5a6.728,6.728,0,1,1,.017-.5Z" transform="translate(-193.023 -220.422)" fill="#ffa2a2"/>
        <path id="Path_3260" data-name="Path 3260" d="M199.31,403.69a17.142,17.142,0,0,0,3.3,4.291,12.438,12.438,0,0,1,2.883,3.886S204.961,407.281,199.31,403.69Z" transform="translate(-176.31 -339.511)" opacity="0.1"/>
        <path id="Path_3261" data-name="Path 3261" d="M187.36,437.411s5.19-1.3,7.8,0Z" transform="translate(-166.658 -366.284)" opacity="0.1"/>
        <path id="Path_3262" data-name="Path 3262" d="M177.56,471.922,183.146,470S179.567,472.56,177.56,471.922Z" transform="translate(-158.741 -393.075)" opacity="0.1"/>
        <path id="Path_3263" data-name="Path 3263" d="M127.33,519.123s2.414-.118,3.179.648C130.509,519.77,128.155,519.948,127.33,519.123Z" transform="translate(-118.167 -432.75)" opacity="0.1"/>
        <path id="Path_3264" data-name="Path 3264" d="M396.654,325.41s-5.411,3.214-5.654,8.394Z" transform="translate(-331.153 -276.278)" opacity="0.1"/>
        <path id="Path_3265" data-name="Path 3265" d="M406.682,350.7s-6.713,1.355-7.831,2.06a12,12,0,0,1-3.531,1.059S405.033,352.526,406.682,350.7Z" transform="translate(-334.644 -296.707)" opacity="0.1"/>
        <path id="Path_3266" data-name="Path 3266" d="M263.462,454.478c-.486.508-6.514,1.937-11.9,3.133a13.55,13.55,0,0,1-1.469.017,8.641,8.641,0,0,0-4.4,1.255c-1.626.346-2.677.567-2.677.567s-1.771-1.4.671-4.546,2.87-8.121,2.87-8.121L257.422,444s2.932,4.037,4.335,4.685S264.365,453.544,263.462,454.478Z" transform="translate(-211.112 -372.073)" opacity="0.1"/>
        <path id="Path_3267" data-name="Path 3267" d="M264.61,456.42c-.473.5-6.283,1.884-11.477,3.047a13.063,13.063,0,0,1-1.417.015,8.252,8.252,0,0,0-4.244,1.221c-1.568.334-2.584.546-2.584.546s-1.707-1.355.648-4.421,2.767-7.891,2.767-7.891l10.48-2.707s2.826,3.922,4.178,4.552S265.475,455.516,264.61,456.42Z" transform="translate(-212.644 -373.874)" fill="#f44336"/>
        <path id="Path_3268" data-name="Path 3268" d="M291.321,698.966l-3.026,1.792a16.532,16.532,0,0,1-.4-2.038C288.331,699.088,291.321,698.966,291.321,698.966Z" transform="translate(-247.864 -577.83)" opacity="0.1"/>
        <path id="Path_3269" data-name="Path 3269" d="M290.86,707.548a46.043,46.043,0,0,0,5-1.188,17.366,17.366,0,0,1-4.838,1.73C290.96,707.911,290.91,707.727,290.86,707.548Z" transform="translate(-250.263 -584.002)" opacity="0.1"/>
        <path id="Path_3270" data-name="Path 3270" d="M317.76,704a2.336,2.336,0,0,1-.891.446C317.41,704.192,317.76,704,317.76,704Z" transform="translate(-271.273 -582.095)" opacity="0.1"/>
        <path id="Path_3271" data-name="Path 3271" d="M316.9,777.081a20.138,20.138,0,0,1-3.077-.129l-.281-.78a12.245,12.245,0,0,0,3.356.027C317.879,775.907,318.178,776.98,316.9,777.081Z" transform="translate(-268.583 -640.376)" opacity="0.1"/>
        <path id="Path_3272" data-name="Path 3272" d="M354.452,692.82c-.142-.02-2.429-.277-3.9-.284,0-.5.025-.961.053-1.332C351.619,691.629,354.3,692.766,354.452,692.82Z" transform="translate(-298.479 -571.756)" opacity="0.1"/>
        <path id="Path_3273" data-name="Path 3273" d="M308.372,794.133c-.266,1.094-4.548.9-4.548.9l-.354.469a5.6,5.6,0,0,1-2.883.25,28.376,28.376,0,0,0-5-.278v-1.209c0-1.574,1.767-2.09,1.767-2.09a8.133,8.133,0,0,0,2-2.487,18.661,18.661,0,0,1,1.116-2.251s-1.382-1.678,2.326-2.115c3.652-.422,2.22,2.893,2.18,2.985.06-.054,1.43-1.286,2.192-.9.55.283,1.048,2.958,1.2,4.9A7.2,7.2,0,0,1,308.372,794.133Z" transform="translate(-254.084 -647.757)" fill="#ced7e7"/>
        <path id="Path_3274" data-name="Path 3274" d="M308.372,823.672c-.266,1.094-4.548.9-4.548.9l-.354.469a5.6,5.6,0,0,1-2.883.25,28.4,28.4,0,0,0-5-.279V823.86c2.267.112,6.8.262,7.816-.263a7.936,7.936,0,0,0,1.5-.515c.236-.175,2.724-.988,3.46-1.228A6.883,6.883,0,0,1,308.372,823.672Z" transform="translate(-254.084 -677.292)" opacity="0.1"/>
        <path id="Path_3275" data-name="Path 3275" d="M359.964,776.782a12.068,12.068,0,0,1-5.932-.517,2.626,2.626,0,0,1-1.221-1.824c-.206-1.28-2.164-2.574-2.164-2.574s-2.413.235-2.708-.473a3.188,3.188,0,0,1-.081-.917c0-1.9.474-5.882,1.023-5.824.648.071,2.643,2.716,2.843,2.981-.175-.284-1.912-3.247,1.943-3.6,0,0,3.149-1.781,2.826,2.37l1.325,2.855s2.606,3.844,3.252,3.71c.309-.063.961.705,1.133,1.574C362.388,775.492,362,776.558,359.964,776.782Z" transform="translate(-296.3 -630.284)" fill="#ced7e7"/>
        <path id="Path_3276" data-name="Path 3276" d="M233.595,263.059q0,.252-.017.5l-.162.062-.632.231a.958.958,0,0,1-.337.081.6.6,0,0,1-.459-.248,1.377,1.377,0,0,1-.192-.456l-.479-1.84a1.172,1.172,0,0,0-.653-.923,2.574,2.574,0,0,1-.352-.1c-.256-.121-.309-.4-.4-.648a2.848,2.848,0,0,0-1.261-1.346,2.275,2.275,0,0,0-1.28-.411,1.109,1.109,0,0,0-.674.243c-.4.34-.346.8-.3,1.284a3.907,3.907,0,0,1,.035,1.486,5.518,5.518,0,0,0-.338.936c-.031.263.056.53.04.794a.631.631,0,0,1-.5.6c-.025-.162-.258-.211-.413-.3a.952.952,0,0,1-.355-.961c.027-.523.052-1.048.077-1.571a24.107,24.107,0,0,1-.721,3.46,1.138,1.138,0,0,1-.266.53.557.557,0,0,1-.613.117.587.587,0,0,1-.248-.324,3.828,3.828,0,0,1-.243-1.922,11.486,11.486,0,0,1-.838,2.51,1.2,1.2,0,0,1-.81.729,1.4,1.4,0,0,0-.361.06.427.427,0,0,0-.125.091,6.71,6.71,0,1,1,12.879-2.66Z" transform="translate(-193.163 -220.505)" opacity="0.1"/>
        <path id="Path_3277" data-name="Path 3277" d="M214.146,226.319a1.1,1.1,0,0,1,.674-.243,2.285,2.285,0,0,1,1.28.411,2.809,2.809,0,0,1,1.261,1.346c.087.238.138.525.385.648a3.1,3.1,0,0,0,.351.1,1.163,1.163,0,0,1,.653.923l.486,1.839a1.3,1.3,0,0,0,.183.456.6.6,0,0,0,.459.25.943.943,0,0,0,.338-.081l.632-.231a1.5,1.5,0,0,0,.846-.546,1.046,1.046,0,0,0,.077-.576,11.43,11.43,0,0,0-.243-1.746l.729.494a.745.745,0,0,0,.6.177.463.463,0,0,0,.283-.3c.13-.361.036-.794.309-1.092.066-.069.146-.129.2-.2.248-.319-.046-.751.056-1.125a.481.481,0,0,0,.561-.162.941.941,0,0,0,.14-.538,4.326,4.326,0,0,0-.659-3.147c.137-.891-.806-1.855-1.848-1.976-.259-.031-.577-.046-.69-.243a.674.674,0,0,1-.052-.3,1.862,1.862,0,0,0-.469-.919,1.406,1.406,0,0,0-.315-.324,1.781,1.781,0,0,0-1.261-.088q-1.175.21-2.333.471a2.337,2.337,0,0,1,.017-1.154,1.151,1.151,0,0,0,.067-.861.463.463,0,0,0-.385-.248.521.521,0,0,0-.486.3,5.974,5.974,0,0,0-.9,2.186,2.115,2.115,0,0,0-2.024-.231,1.707,1.707,0,0,1-.534.192.9.9,0,0,1-.769-.452c-.211-.324-.308-.715-.719-.929a.636.636,0,0,0-.594,0c-.544.317.134,1.1-.269,1.516a1.062,1.062,0,0,1-.385.211l-1.009.371a5.553,5.553,0,0,1-1.691.425,12.045,12.045,0,0,0-2-.04,1.936,1.936,0,0,0,1.006.606c.238.06.49.081.723.155a.681.681,0,0,1,.494.438c.052.271-.21.533-.158.8a.513.513,0,0,0,.577.34l-1.193.769c-.215.138-.456.34-.375.559l.385.112-1.036,1.486a.856.856,0,0,0-.217.546.385.385,0,0,0,.477.3,2.776,2.776,0,0,0-.576.9.316.316,0,0,0-.01.287.422.422,0,0,0,.363.133,1.157,1.157,0,0,0,1.154-.859c.171.192-.011.419-.175.613a9.3,9.3,0,0,0-1.673,2.51,2.782,2.782,0,0,0,.319,2.781,3.2,3.2,0,0,1,.385.5c.207.4.088.9.411,1.24a14.536,14.536,0,0,1,.942-2.065,6.179,6.179,0,0,1-.1.694.576.576,0,0,0,.329.6c.338.123.69-.14.911-.385a.625.625,0,0,1,.206-.175,1.447,1.447,0,0,1,.359-.06,1.2,1.2,0,0,0,.81-.729,11.306,11.306,0,0,0,.838-2.514,3.8,3.8,0,0,0,.248,1.922.576.576,0,0,0,.243.324.561.561,0,0,0,.613-.119,1.127,1.127,0,0,0,.266-.53,24.331,24.331,0,0,0,.721-3.46l-.077,1.571c-.017.354,0,.769.354.961.162.087.385.138.415.3a.621.621,0,0,0,.5-.6c.017-.266-.069-.53-.038-.8a5.835,5.835,0,0,1,.338-.936,3.825,3.825,0,0,0-.035-1.484A1.309,1.309,0,0,1,214.146,226.319Z" transform="translate(-180.612 -188.973)" fill="#896363"/>
        <path id="Path_3278" data-name="Path 3278" d="M359.964,805.444a12.069,12.069,0,0,1-5.932-.517,2.626,2.626,0,0,1-1.221-1.824c-.206-1.28-2.164-2.574-2.164-2.574s-2.413.235-2.708-.473a3.191,3.191,0,0,1-.081-.917c.891.214,2.947.7,3.583.886.827.235,3.238,4.15,3.238,4.15,2.324,1.223,6.17-.346,7.52-.961C362.388,804.155,362,805.222,359.964,805.444Z" transform="translate(-296.3 -658.947)" opacity="0.1"/>
        <path id="Path_3279" data-name="Path 3279" d="M320.567,796.48s-1.188,1.822,4.506.88" transform="translate(-274.176 -656.799)" opacity="0.1"/>
        <path id="Path_3280" data-name="Path 3280" d="M368,779.188s6.005,1.305,4.767-1.228" transform="translate(-312.575 -641.839)" opacity="0.1"/>
        <g id="Group_86" data-name="Group 86" transform="translate(24.045 28.662)" opacity="0.1">
          <path id="Path_3281" data-name="Path 3281" d="M217.849,244.54a.532.532,0,0,0-.031.267.4.4,0,0,0,.181.25l.4-.262A.536.536,0,0,1,217.849,244.54Z" transform="translate(-215.302 -239.615)"/>
          <path id="Path_3282" data-name="Path 3282" d="M208.064,235.948c.243.06.492.081.729.155a.769.769,0,0,1,.463.35.523.523,0,0,0,.031-.266.68.68,0,0,0-.494-.438c-.232-.077-.486-.1-.729-.155a2.044,2.044,0,0,1-.656-.294,2.121,2.121,0,0,0-.348.042A1.938,1.938,0,0,0,208.064,235.948Z" transform="translate(-206.616 -232.151)"/>
          <path id="Path_3283" data-name="Path 3283" d="M207.043,292.29a14.536,14.536,0,0,0-.944,2.065c-.324-.336-.2-.844-.411-1.24a3.066,3.066,0,0,0-.385-.5,2.415,2.415,0,0,1-.54-1.417,2.5,2.5,0,0,0,.54,1.771,3.063,3.063,0,0,1,.385.5c.207.4.091.9.411,1.24a14.635,14.635,0,0,1,.874-1.936A2.06,2.06,0,0,0,207.043,292.29Z" transform="translate(-204.754 -277.306)"/>
          <path id="Path_3284" data-name="Path 3284" d="M208.212,264.51a.486.486,0,0,0-.04.243.384.384,0,0,0,.21.274,2.728,2.728,0,0,1,.267-.33A.369.369,0,0,1,208.212,264.51Z" transform="translate(-207.513 -255.747)"/>
          <path id="Path_3285" data-name="Path 3285" d="M267.541,220.112a2.2,2.2,0,0,1,.071-.446,1.424,1.424,0,0,0,.109-.746c-.027.13-.073.263-.109.385A2.293,2.293,0,0,0,267.541,220.112Z" transform="translate(-255.464 -218.92)"/>
          <path id="Path_3286" data-name="Path 3286" d="M233.863,224a1.935,1.935,0,0,0,.052.667A1.905,1.905,0,0,0,233.863,224Z" transform="translate(-228.26 -223.024)"/>
          <path id="Path_3287" data-name="Path 3287" d="M209.03,267.85a1.192,1.192,0,0,1-1.154.859.477.477,0,0,1-.336-.1l-.017.038a.324.324,0,0,0-.011.287.427.427,0,0,0,.365.13,1.306,1.306,0,0,0,.648-.183c.113-.14.229-.279.342-.415a1.978,1.978,0,0,0,.162-.219.309.309,0,0,0,.01-.04v.01a.288.288,0,0,0-.009-.362Z" transform="translate(-206.958 -258.445)"/>
          <path id="Path_3288" data-name="Path 3288" d="M212.728,252.92a.319.319,0,0,0-.092.324l.181.052.2-.294Z" transform="translate(-211.11 -246.385)"/>
          <path id="Path_3289" data-name="Path 3289" d="M294.674,269.686a1.748,1.748,0,0,1-.2.192c-.274.3-.179.729-.309,1.092a.467.467,0,0,1-.283.3.745.745,0,0,1-.6-.177l-.729-.494c.029.134.056.271.081.4l.648.438a.74.74,0,0,0,.6.179.471.471,0,0,0,.283-.3c.13-.361.035-.794.309-1.092.066-.071.146-.129.2-.2a.655.655,0,0,0,.081-.53A.448.448,0,0,1,294.674,269.686Z" transform="translate(-275.673 -259.777)"/>
          <path id="Path_3290" data-name="Path 3290" d="M260.361,265.556a.692.692,0,0,1-.073.252,1.5,1.5,0,0,1-.848.546l-.631.231a.987.987,0,0,1-.338.081.6.6,0,0,1-.459-.25,1.347,1.347,0,0,1-.192-.456l-.481-1.839a1.167,1.167,0,0,0-.653-.923,3.061,3.061,0,0,1-.352-.1c-.256-.123-.309-.4-.385-.648a2.84,2.84,0,0,0-1.261-1.346,2.291,2.291,0,0,0-1.28-.411,1.1,1.1,0,0,0-.674.243,1.078,1.078,0,0,0-.324,1,.909.909,0,0,1,.324-.648,1.123,1.123,0,0,1,.674-.243,2.321,2.321,0,0,1,1.28.411,2.826,2.826,0,0,1,1.261,1.346c.081.238.138.523.385.648a3.061,3.061,0,0,0,.352.1,1.167,1.167,0,0,1,.653.923l.481,1.838a1.322,1.322,0,0,0,.192.456.592.592,0,0,0,.459.252,1.034,1.034,0,0,0,.338-.081l.627-.227a1.5,1.5,0,0,0,.848-.546,1.046,1.046,0,0,0,.081-.576.075.075,0,0,0,0-.028Z" transform="translate(-243.242 -252.661)"/>
          <path id="Path_3291" data-name="Path 3291" d="M304.505,258.5a.942.942,0,0,1-.14.538.48.48,0,0,1-.561.162.9.9,0,0,0,0,.385v-.027a.48.48,0,0,0,.561-.162.946.946,0,0,0,.14-.538c.017-.313.031-.634.023-.951C304.526,258.1,304.515,258.312,304.505,258.5Z" transform="translate(-284.747 -250.416)"/>
          <path id="Path_3292" data-name="Path 3292" d="M219.562,283.48a11.337,11.337,0,0,1-.838,2.514,1.2,1.2,0,0,1-.815.729,1.481,1.481,0,0,0-.36.06.637.637,0,0,0-.2.175c-.221.25-.576.513-.911.385a.5.5,0,0,1-.309-.375c0,.046-.015.091-.019.134a.567.567,0,0,0,.329.594c.338.125.69-.14.911-.385a.653.653,0,0,1,.2-.173,1.315,1.315,0,0,1,.359-.06,1.2,1.2,0,0,0,.815-.729,10.867,10.867,0,0,0,.806-2.385A3.7,3.7,0,0,1,219.562,283.48Z" transform="translate(-213.919 -271.07)"/>
          <path id="Path_3293" data-name="Path 3293" d="M236.1,273.82a24.317,24.317,0,0,1-.721,3.46,1.115,1.115,0,0,1-.267.53.559.559,0,0,1-.613.119.586.586,0,0,1-.243-.324,3.846,3.846,0,0,1-.269-1.252,3.815,3.815,0,0,0,.275,1.6.59.59,0,0,0,.243.324.567.567,0,0,0,.613-.119,1.123,1.123,0,0,0,.267-.53,24.223,24.223,0,0,0,.7-3.289Z" transform="translate(-228.363 -263.267)"/>
          <path id="Path_3294" data-name="Path 3294" d="M251.287,275.022a5.753,5.753,0,0,0-.337.936,1.35,1.35,0,0,0,0,.317,7.053,7.053,0,0,1,.33-.9,1.922,1.922,0,0,0,.06-.686A1.659,1.659,0,0,1,251.287,275.022Z" transform="translate(-242.063 -263.97)"/>
          <path id="Path_3295" data-name="Path 3295" d="M245.359,284.554c-.027-.158-.257-.21-.415-.3a.769.769,0,0,1-.351-.657v.044c-.017.354,0,.769.354.961.158.087.385.137.415.3a.626.626,0,0,0,.5-.6,1.62,1.62,0,0,0-.01-.273.606.606,0,0,1-.491.529Z" transform="translate(-236.93 -271.167)"/>
        </g>
        <path id="Path_3296" data-name="Path 3296" d="M458.328,635.1H435.936a1.87,1.87,0,0,1-1.862-2.09l5.451-46.325.113-.978a1.872,1.872,0,0,1,1.862-1.653h11.756a1.872,1.872,0,0,1,1.862,1.673l.1.929,4.978,46.374a1.873,1.873,0,0,1-1.862,2.072Z" transform="translate(-365.939 -485.203)" fill="#4e5a86"/>
        <path id="Path_3297" data-name="Path 3297" d="M460.634,611.807s.823,21.015-2.354,29.025c0,0,.33,1.707,1.224,0s3.956-19.488,2.484-28.729C461.988,612.1,461.686,611.1,460.634,611.807Z" transform="translate(-385.501 -507.42)" opacity="0.1"/>
        <path id="Path_3298" data-name="Path 3298" d="M481.154,611.807s.822,21.015-2.354,29.025c0,0,.33,1.707,1.224,0s3.956-19.488,2.484-28.729C482.508,612.1,482.214,611.1,481.154,611.807Z" transform="translate(-402.077 -507.42)" opacity="0.1"/>
        <path id="Path_3299" data-name="Path 3299" d="M533.63,611.807s-.825,21.015,2.354,29.025c0,0-.333,1.707-1.227,0s-3.96-19.489-2.489-28.731C532.268,612.1,532.565,611.1,533.63,611.807Z" transform="translate(-444.95 -507.42)" opacity="0.1"/>
        <path id="Path_3300" data-name="Path 3300" d="M513.1,611.807s-.825,21.015,2.354,29.025c0,0-.333,1.707-1.227,0s-3.954-19.489-2.483-28.731C511.746,612.1,512.039,611.1,513.1,611.807Z" transform="translate(-428.372 -507.42)" opacity="0.1"/>
        <rect id="Rectangle_307" data-name="Rectangle 307" width="10.642" height="92.848" transform="translate(76.037)" fill="#4e5a86"/>
        <path id="Path_3301" data-name="Path 3301" d="M356.94,385.76Z" transform="translate(-288.342 -315.341)" fill="none" stroke="#c1272d" stroke-miterlimit="10" stroke-width="1"/>
        <path id="Path_3302" data-name="Path 3302" d="M478.177,586.68a1.427,1.427,0,0,1-.367.048h-15.1a1.355,1.355,0,0,1-.221-.017l.113-.978a1.872,1.872,0,0,1,1.862-1.653h11.756a1.872,1.872,0,0,1,1.862,1.673Z" transform="translate(-388.902 -485.227)" opacity="0.1"/>
        <rect id="Rectangle_308" data-name="Rectangle 308" width="10.751" height="1.855" transform="translate(76.037 90.994)" opacity="0.1"/>
        <rect id="Rectangle_309" data-name="Rectangle 309" width="17.927" height="9.801" rx="4.901" transform="translate(72.394 91.347)" fill="#4e5a86"/>
        <rect id="Rectangle_310" data-name="Rectangle 310" width="1.53" height="88.434" transform="translate(76.752)" opacity="0.1"/>
        <rect id="Rectangle_311" data-name="Rectangle 311" width="1.53" height="88.434" transform="translate(79.312)" opacity="0.1"/>
        <rect id="Rectangle_312" data-name="Rectangle 312" width="1.53" height="88.434" transform="translate(81.873)" opacity="0.1"/>
        <rect id="Rectangle_313" data-name="Rectangle 313" width="1.53" height="88.434" transform="translate(84.435)" opacity="0.1"/>
        <path id="Path_3303" data-name="Path 3303" d="M521.331,299.843s-3.5-1.09-2.972,2.766,1.884,4.093,1.884,4.093a1.9,1.9,0,0,0,1.325-1.795A37.106,37.106,0,0,0,521.331,299.843Z" transform="translate(-433.988 -255.511)" fill="#ffa2a2"/>
        <g id="Group_88" data-name="Group 88" transform="translate(82.461 17.421)" opacity="0.1">
          <path id="Path_3309" data-name="Path 3309" d="M526.05,333.859s11.837-30.179,34.467-41.594a49.106,49.106,0,0,0,22.038-21.913,82.659,82.659,0,0,0,5.425-14.1" transform="translate(-522.705 -237.834)" fill="none" stroke="#535461" stroke-miterlimit="10" stroke-width="2"/>
          <path id="Path_3310" data-name="Path 3310" d="M860.987,171.582c-2.337,3.012-14.567,7.51-14.567,7.51s1.326-12.964,3.663-15.974a6.9,6.9,0,1,1,10.9,8.464Z" transform="translate(-781.494 -160.448)" fill="#e53935"/>
          <path id="Path_3311" data-name="Path 3311" d="M833.18,285.151c-3.6,1.257-16.31-1.614-16.31-1.614s8.16-10.159,11.758-11.416a6.9,6.9,0,1,1,4.552,13.031Z" transform="translate(-757.623 -250.34)" fill="#e53935"/>
          <path id="Path_3312" data-name="Path 3312" d="M728.833,430.957c-3.743-.729-13.263-9.626-13.263-9.626s12.174-4.652,15.914-3.919a6.9,6.9,0,0,1-2.649,13.546Z" transform="translate(-675.795 -367.954)" fill="#e53935"/>
          <path id="Path_3313" data-name="Path 3313" d="M609.159,521.236c-3.81-.088-14.7-7.247-14.7-7.247s11.21-6.639,15.022-6.553a6.9,6.9,0,1,1-.324,13.8Z" transform="translate(-577.965 -440.737)" fill="#e53935"/>
          <path id="Path_3314" data-name="Path 3314" d="M754.71,256.951c.53,3.774,8.906,13.757,8.906,13.757s5.3-11.906,4.766-15.682a6.9,6.9,0,0,0-13.67,1.924Z" transform="translate(-707.357 -232.043)" fill="#e53935"/>
          <path id="Path_3315" data-name="Path 3315" d="M620.583,356.615c1.636,3.447,12.6,10.464,12.6,10.464s1.491-12.946-.147-16.388a6.9,6.9,0,0,0-12.468,5.924Z" transform="translate(-598.52 -310.939)" fill="#e53935"/>
          <path id="Path_3316" data-name="Path 3316" d="M508.91,483.856c1.031,3.669,10.664,12.446,10.664,12.446s3.652-12.508,2.626-16.177a6.9,6.9,0,1,0-13.291,3.732Z" transform="translate(-508.65 -414.606)" fill="#e53935"/>
        </g>
        <g id="Group_89" data-name="Group 89" transform="translate(82.591 24.263)" opacity="0.1">
          <path id="Path_3317" data-name="Path 3317" d="M515.86,259.408s4.277-10.9,12.452-15.026a17.753,17.753,0,0,0,7.962-7.916,29.85,29.85,0,0,0,1.961-5.094" transform="translate(-514.604 -224.578)" fill="none" stroke="#535461" stroke-miterlimit="10" stroke-width="2"/>
          <path id="Path_3318" data-name="Path 3318" d="M636.883,200.172c-.846,1.088-5.263,2.712-5.263,2.712s.479-4.683,1.324-5.767a2.5,2.5,0,1,1,3.939,3.055Z" transform="translate(-608.112 -196.006)" fill="#e53935"/>
          <path id="Path_3319" data-name="Path 3319" d="M626.822,241.592c-1.3.453-5.892-.577-5.892-.577s2.947-3.672,4.247-4.129a2.5,2.5,0,1,1,1.645,4.707Z" transform="translate(-599.477 -228.874)" fill="#e53935"/>
          <path id="Path_3320" data-name="Path 3320" d="M589.12,294.494c-1.345-.266-4.79-3.481-4.79-3.481s4.4-1.68,5.748-1.414a2.5,2.5,0,1,1-.961,4.894Z" transform="translate(-569.912 -271.592)" fill="#e53935"/>
          <path id="Path_3321" data-name="Path 3321" d="M545.89,327.1c-1.376-.032-5.309-2.618-5.309-2.618s4.048-2.4,5.424-2.368a2.5,2.5,0,0,1-.117,4.987Z" transform="translate(-534.572 -297.882)" fill="#e53935"/>
          <path id="Path_3322" data-name="Path 3322" d="M598.378,230.9c.192,1.363,3.217,4.971,3.217,4.971s1.922-4.3,1.73-5.667a2.5,2.5,0,1,0-4.939.694Z" transform="translate(-581.225 -221.767)" fill="#e53935"/>
          <path id="Path_3323" data-name="Path 3323" d="M550.268,268.261c.592,1.244,4.557,3.781,4.557,3.781s.538-4.676-.053-5.921a2.5,2.5,0,0,0-4.5,2.14Z" transform="translate(-542.257 -251.619)" fill="#e53935"/>
          <path id="Path_3324" data-name="Path 3324" d="M509.454,313.025c.373,1.325,3.844,4.5,3.844,4.5s1.334-4.519.95-5.845a2.5,2.5,0,1,0-4.806,1.346Z" transform="translate(-509.312 -287.868)" fill="#e53935"/>
        </g>
        <g id="Group_90" data-name="Group 90" transform="translate(115.052 108.098)" opacity="0.1">
          <path id="Path_3325" data-name="Path 3325" d="M703.25,704.46s.181-11.71,6.391-18.438a17.736,17.736,0,0,0,4.683-10.2,29.873,29.873,0,0,0,.048-5.459" transform="translate(-698.435 -663.021)" fill="none" stroke="#535461" stroke-miterlimit="10" stroke-width="2"/>
          <path id="Path_3326" data-name="Path 3326" d="M760.98,635.265c-.41,1.309-3.977,4.384-3.977,4.384s-1.192-4.556-.782-5.871a2.5,2.5,0,0,1,4.759,1.484Z" transform="translate(-741.154 -632.187)" fill="#e53935"/>
          <path id="Path_3327" data-name="Path 3327" d="M765.954,674.331c-1.059.881-5.722,1.52-5.722,1.52s1.473-4.471,2.532-5.353a2.5,2.5,0,0,1,3.191,3.833Z" transform="translate(-744.463 -662.745)" fill="#e53935"/>
          <path id="Path_3328" data-name="Path 3328" d="M745.017,736.186c-1.359.227-5.707-1.576-5.707-1.576s3.529-3.116,4.886-3.343a2.5,2.5,0,0,1,.821,4.919Z" transform="translate(-727.564 -712.21)" fill="#e53935"/>
          <path id="Path_3329" data-name="Path 3329" d="M717.242,781.451c-1.3.452-5.892-.59-5.892-.59s2.96-3.658,4.259-4.119a2.5,2.5,0,1,1,1.632,4.709Z" transform="translate(-704.978 -748.787)" fill="#e53935"/>
          <path id="Path_3330" data-name="Path 3330" d="M732.83,678.7c.657,1.214,4.756,3.527,4.756,3.527s.282-4.7-.385-5.91a2.5,2.5,0,0,0-4.381,2.382Z" transform="translate(-722.137 -666.894)" fill="#e53935"/>
          <path id="Path_3331" data-name="Path 3331" d="M700.394,729.369c.99.961,5.594,1.943,5.594,1.943s-1.134-4.567-2.126-5.526a2.5,2.5,0,0,0-3.46,3.585Z" transform="translate(-695.628 -707.33)" fill="#e53935"/>
          <path id="Path_3332" data-name="Path 3332" d="M678.6,786.553c.81,1.111,5.19,2.86,5.19,2.86s-.348-4.7-1.154-5.807a2.5,2.5,0,0,0-4.023,2.947Z" transform="translate(-678.215 -753.777)" fill="#e53935"/>
        </g>
        <g id="Group_91" data-name="Group 91" transform="translate(86.042 105.93)" opacity="0.1">
          <path id="Path_3333" data-name="Path 3333" d="M553.3,694.882s.181-11.712,6.391-18.44a17.73,17.73,0,0,0,4.683-10.2,29.85,29.85,0,0,0,.048-5.457" transform="translate(-548.298 -653.113)" fill="none" stroke="#535461" stroke-miterlimit="10" stroke-width="2"/>
          <path id="Path_3334" data-name="Path 3334" d="M611.03,624.265c-.41,1.315-3.977,4.387-3.977,4.387s-1.192-4.554-.782-5.868a2.5,2.5,0,1,1,4.76,1.482Z" transform="translate(-591.018 -620.861)" fill="#e53935"/>
          <path id="Path_3335" data-name="Path 3335" d="M616.022,664.773c-1.059.883-5.723,1.521-5.723,1.521s1.473-4.471,2.532-5.352a2.5,2.5,0,0,1,3.191,3.831Z" transform="translate(-594.341 -652.862)" fill="#e53935"/>
          <path id="Path_3336" data-name="Path 3336" d="M595.017,726.38c-1.359.225-5.707-1.578-5.707-1.578s3.529-3.116,4.886-3.341a2.5,2.5,0,1,1,.821,4.919Z" transform="translate(-577.387 -702.075)" fill="#e53935"/>
          <path id="Path_3337" data-name="Path 3337" d="M567.332,771.876c-1.3.453-5.892-.59-5.892-.59s2.953-3.665,4.252-4.121a2.5,2.5,0,1,1,1.64,4.709Z" transform="translate(-554.874 -738.887)" fill="#e53935"/>
          <path id="Path_3338" data-name="Path 3338" d="M582.116,667.674c.658,1.214,4.756,3.528,4.756,3.528s.283-4.7-.385-5.91a2.5,2.5,0,1,0-4.372,2.382Z" transform="translate(-571.237 -655.543)" fill="#e53935"/>
          <path id="Path_3339" data-name="Path 3339" d="M549.252,718.612c.99.961,5.594,1.943,5.594,1.943s-1.134-4.569-2.126-5.526a2.5,2.5,0,1,0-3.46,3.583Z" transform="translate(-544.295 -696.248)" fill="#e53935"/>
          <path id="Path_3340" data-name="Path 3340" d="M527.832,775.851c.81,1.111,5.19,2.86,5.19,2.86s-.348-4.7-1.153-5.807a2.5,2.5,0,1,0-4.023,2.947Z" transform="translate(-527.265 -742.749)" fill="#e53935"/>
        </g>
        <path id="Path_3341" data-name="Path 3341" d="M466.413,120.882c.385,1.184-.657,5.305-.657,5.305s-3.245-2.743-3.626-3.933a2.251,2.251,0,1,1,4.283-1.376Z" transform="translate(-388.499 -109.723)" fill="#e53935"/>
        <path id="Path_3342" data-name="Path 3342" d="M383.526,258.42c.385,1.184-.657,5.305-.657,5.305s-3.248-2.743-3.629-3.927a2.252,2.252,0,1,1,4.286-1.376Z" transform="translate(-321.565 -220.901)" fill="#e53935"/>
        <path id="Path_3343" data-name="Path 3343" d="M558.389,197.986c.385,1.184-.659,5.305-.659,5.305s-3.246-2.741-3.627-3.925a2.251,2.251,0,1,1,4.287-1.376Z" transform="translate(-462.817 -172.086)" fill="#e53935"/>
        <path id="Path_3344" data-name="Path 3344" d="M648.833,301.615c.385,1.182-.657,5.3-.657,5.3s-3.248-2.741-3.633-3.925a2.251,2.251,0,1,1,4.286-1.376Z" transform="translate(-535.872 -255.795)" fill="#e53935"/>
        <path id="Path_3345" data-name="Path 3345" d="M587.746,123.727c-.632,1.07-4.4,3.03-4.4,3.03s-.106-4.248.527-5.318a2.252,2.252,0,0,1,3.877,2.29Z" transform="translate(-486.519 -110.62)" fill="#e53935"/>
        <path id="Path_3346" data-name="Path 3346" d="M809,107.04c-.632,1.07-4.4,3.03-4.4,3.03s-.1-4.25.529-5.318A2.251,2.251,0,0,1,809,107.04Z" transform="translate(-665.24 -97.14)" fill="#e53935"/>
        <path id="Path_3347" data-name="Path 3347" d="M359.9,145.6c-1.2.313-5.263-.961-5.263-.961s2.924-3.085,4.129-3.4a2.252,2.252,0,1,1,1.133,4.36Z" transform="translate(-301.782 -127.453)" fill="#e53935"/>
        <path id="Path_3348" data-name="Path 3348" d="M566.186,403.027c-.632,1.07-4.4,3.03-4.4,3.03s-.106-4.248.526-5.318a2.252,2.252,0,1,1,3.877,2.29Z" transform="translate(-469.102 -336.233)" fill="#e53935"/>
      </g>
    </g>
    <g id="background" transform="translate(716 918)">
      <circle id="Ellipse_532" data-name="Ellipse 532" cx="56.219" cy="56.219" r="56.219" transform="translate(19.105 18.74)" fill="rgba(79,19,76,0.05)"/>
      <circle id="Ellipse_533" data-name="Ellipse 533" cx="74.958" cy="74.958" r="74.958" fill="rgba(79,19,76,0.05)"/>
    </g>
  </g>
</svg>
