<svg xmlns="http://www.w3.org/2000/svg" width="149.886" height="150" viewBox="0 0 149.886 150">
  <g id="Group_1606" data-name="Group 1606" transform="translate(-1165 -917.909)">
    <g id="background" transform="translate(1165 918)">
      <circle id="Ellipse_532" data-name="Ellipse 532" cx="56.207" cy="56.207" r="56.207" transform="translate(18.736 18.739)" fill="rgba(79,19,76,0.05)"/>
      <circle id="Ellipse_533" data-name="Ellipse 533" cx="74.943" cy="74.943" r="74.943" fill="rgba(79,19,76,0.05)"/>
    </g>
    <g id="undraw_fatherhood_7i19_3_" data-name="undraw_fatherhood_7i19 (3)" transform="translate(1195.011 917.909)">
      <path id="Path_693" data-name="Path 693" d="M490.293,389.861s-.71,5.82,4.923,6.415l.848-4.028-1.774-2.387L491.747,389Z" transform="translate(-461.649 -334.898)" fill="#e53935"/>
      <path id="Path_694" data-name="Path 694" d="M491.747,389l-1.454.859s-.71,5.82,4.923,6.415" transform="translate(-461.649 -334.898)" opacity="0.1"/>
      <path id="Path_695" data-name="Path 695" d="M478.92,181.063s-3.8.233-7.613.865q-.585.1-1.164.212c-.225.042-.445.087-.666.136A15.784,15.784,0,0,0,464.6,183.9c-1.272.816-1.7-1.382-1.736-4.437-.017-1.075.019-2.254.076-3.445.074-1.378.182-2.773.3-4.028.252-2.782.543-4.944.543-4.944s1.331,0,3.11-.062l.572-.021c.557-.021,1.149-.051,1.745-.087.282-.015.566-.032.848-.053,1.128-.081,2.241-.2,3.18-.343a6.946,6.946,0,0,0,2.254-.636C477.5,164.647,478.92,181.063,478.92,181.063Z" transform="translate(-440.055 -159.005)" fill="#f8bdc5"/>
      <path id="Path_696" data-name="Path 696" d="M610.447,334.214l-.742,4.925s-1.617,2.014-1.406,3.133,2.078,50.589,2.078,50.589,3.657,20.891,2.387,23.577-.074,8.955-.074,8.955L620.3,424.2l2.544-91.33Z" transform="translate(-554.645 -290.668)" fill="#474463"/>
      <path id="Path_697" data-name="Path 697" d="M610.447,334.214l-.742,4.925s-1.617,2.014-1.406,3.133,2.078,50.589,2.078,50.589,3.657,20.891,2.387,23.577-.074,8.955-.074,8.955L620.3,424.2l2.544-91.33Z" transform="translate(-554.645 -290.668)" opacity="0.1"/>
      <path id="Path_698" data-name="Path 698" d="M642.336,753.915a6.352,6.352,0,0,0-.155,2.582c.059.863.155,1.6.155,1.6v5.073s-8.133-2.835-12.61-5.819c-1.847-1.232-2.372-2.377-2.271-3.293a2.682,2.682,0,0,1,2.271-2.154c.67,0,2.786-1.168,4.52-2.2,1.363-.808,2.5-1.531,2.5-1.531S642.783,753.169,642.336,753.915Z" transform="translate(-569.745 -617.922)" fill="#575988"/>
      <path id="Path_699" data-name="Path 699" d="M667.62,753.915a6.346,6.346,0,0,0-.155,2.582c-1.808-.848-7.408-6.28-7.935-6.8,1.363-.808,2.5-1.531,2.5-1.531S668.067,753.169,667.62,753.915Z" transform="translate(-595.03 -617.922)" opacity="0.1"/>
      <path id="Path_700" data-name="Path 700" d="M643.512,319.373l-1.94,7.164a15.546,15.546,0,0,0-1.272,3.208,8.709,8.709,0,0,1-1.194,2.612,8.269,8.269,0,0,0-.746,3.282c-.074,2.016-1.484,11.342-3.059,12.909l-.373,6.044a1.8,1.8,0,0,0-.447,2.544c1.037,1.5.672,5.372.672,5.372s-1.418,1.119-.522,2.239.3,4.4.3,4.4-.821,1.043-.447,1.641-.369,15.968-.369,15.968l-1.793,7.535s-.823,6.269-1.272,8.135a21.02,21.02,0,0,0-.447,4.177s-1.94,4.1-3.358,3.882-8.281-6.941-8.281-6.941l.969-22.685s.821-9.625.3-11.491-.895-11.192-.895-11.192l-1.045-14.7-10.435-16.416s-.757-4.776,1.406-6.193l.392-2.58.354-2.345,12.388-1.344,18.951-4.923a6.109,6.109,0,0,1,2.226,3.15A11,11,0,0,1,643.512,319.373Z" transform="translate(-554.207 -272.394)" fill="#474463"/>
      <path id="Path_701" data-name="Path 701" d="M578.811,361.409s-8.8,10.812-8.432,7.791c.233-1.9-.971-4.215-1.908-5.68a17.569,17.569,0,0,0-1.011-1.442s5.372-9.848,5.671-8.506a10.949,10.949,0,0,0,1.516,2.508C576.332,358.409,578.811,361.409,578.811,361.409Z" transform="translate(-522.479 -306.882)" fill="#ffc1c8"/>
      <path id="Path_702" data-name="Path 702" d="M642.336,784v1.06s-8.133-2.834-12.61-5.82c-1.847-1.232-2.372-2.376-2.271-3.292a83.8,83.8,0,0,1,8.463,4.711A44.023,44.023,0,0,0,642.336,784Z" transform="translate(-569.745 -639.812)" fill="#fff" opacity="0.3"/>
      <circle id="Ellipse_45" data-name="Ellipse 45" cx="2.487" cy="2.487" r="2.487" transform="translate(68.189 143.242)" fill="#474463"/>
      <circle id="Ellipse_46" data-name="Ellipse 46" cx="2.487" cy="2.487" r="2.487" transform="translate(42.787 139.75)" fill="#474463"/>
      <path id="Path_703" data-name="Path 703" d="M521.19,766.744a1.313,1.313,0,0,1-.146.507l-1.484,1.618-20.743-.333-5.578-.091s-11.741-2.137-14.028-3.134-11.281-2.82-11.281-2.82-5.432-.912-6.229-3.547a2.28,2.28,0,0,1,.161-1.984,2.86,2.86,0,0,1,1.779-1.075,11.724,11.724,0,0,1,7.463.276l34.769,8.945.539.138s12.394-.231,12.644-.187C520.957,765.4,521.234,766.212,521.19,766.744Z" transform="translate(-439.027 -623.623)" fill="#e53935"/>
      <path id="Path_704" data-name="Path 704" d="M521.19,772.524c-2.086-.272-5.724-.672-6.661-.286,0,0-6.617-.818-15.72,2.078l-5.57-.091s-11.741-2.137-14.028-3.134-11.281-2.82-11.281-2.82-5.432-.912-6.229-3.547a2.279,2.279,0,0,1,.161-1.984c.371,1.081,1.086,2.648,2.226,3.087,1.791.689,9.154,2.093,9.154,2.093l14.573,3.568s8.414,1.825,11.69.636a37.606,37.606,0,0,1,6.36-1.251l.539.138s12.394-.231,12.644-.187C520.957,771.184,521.234,771.992,521.19,772.524Z" transform="translate(-439.027 -629.403)" fill="#fff" opacity="0.3"/>
      <path id="Path_705" data-name="Path 705" d="M591.732,765.827a6.872,6.872,0,0,1-.117.931,94.393,94.393,0,0,1-12.534-.341,3.167,3.167,0,0,1-2.188-1.009,1.55,1.55,0,0,1-.155-1.484,2.351,2.351,0,0,1,.18-.4c.32-.56.812-.956,1.081-.9.746.151,2.027-1.38,2.027-1.38-.1-.935,1.367-1.272,1.6-1.119a.3.3,0,0,0,.477-.186c.015-.07.019-.407.019-.8,0-.657-.019-1.484-.019-1.484l8.285,1.007.329,1.583c.3,1.412.721,3.352.9,4.015A4.785,4.785,0,0,1,591.732,765.827Z" transform="translate(-529.695 -625.392)" fill="#474463"/>
      <path id="Path_706" data-name="Path 706" d="M592.758,794.471a6.866,6.866,0,0,1-.117.931,94.4,94.4,0,0,1-12.534-.341,3.168,3.168,0,0,1-2.188-1.009,13.51,13.51,0,0,1,3.417.114C582.6,794.48,590.159,794.48,592.758,794.471Z" transform="translate(-530.721 -654.036)" opacity="0.1"/>
      <path id="Path_707" data-name="Path 707" d="M509.49,754.088a.424.424,0,0,1-.18.4c-1.043.806-6.049-.07-6.049-.07s-10.227-.636-11.756-1.679a1.076,1.076,0,0,1-.337-.354c-.636-1.149,1.666-3.078,1.866-3.078s2.949-.375,3.133-.411c1.272-.257,2.544-1.045,2.756-.82s1.272-.3,1.789-.373c.189-.028.276-.295.308-.636a7.064,7.064,0,0,0-.047-1.384l8.169,2.2.072,1.3.235,4.334.03.532A.194.194,0,0,1,509.49,754.088Z" transform="translate(-462.274 -615.96)" fill="#474463"/>
      <path id="Path_708" data-name="Path 708" d="M503.713,779.333s-10.227-.636-11.756-1.679a1.079,1.079,0,0,1-.337-.354c2.071.17,5.525.456,6.148.615.9.212,5.936.522,5.936.522h6.2l.03.532C510.2,780.469,503.713,779.333,503.713,779.333Z" transform="translate(-462.717 -640.876)" opacity="0.1"/>
      <circle id="Ellipse_47" data-name="Ellipse 47" cx="2.487" cy="2.487" r="2.487" transform="translate(30.334 139.75)" fill="#474463"/>
      <circle id="Ellipse_48" data-name="Ellipse 48" cx="2.487" cy="2.487" r="2.487" transform="translate(57.343 144.913)" fill="#474463"/>
      <path id="Path_709" data-name="Path 709" d="M476.341,391.869s-.471.848-1.179,2.107c-1.7,2.994-4.747,8.3-6.059,9.979-1.866,2.387-1.715.15-3.731-4.849-1.5-3.719,3.11-7.973,5.574-9.907.848-.672,1.442-1.06,1.442-1.06Z" transform="translate(-441.803 -334.22)" fill="#f8bdc5"/>
      <path id="Path_710" data-name="Path 710" d="M484.782,432.83s-6.193.521-7.386.894a29.3,29.3,0,0,1-6.784,0c-.443-.148-9.254,1.866-5.224,3.88s6.572,0,6.572,0,5.224-.3,6.572.524,6.267.373,6.267.373Z" transform="translate(-441.217 -369.436)" fill="#ffc1c8"/>
      <path id="Path_711" data-name="Path 711" d="M470.735,181.074a6.187,6.187,0,0,1-.613,5.4,17.466,17.466,0,0,0-5.548,1.764c-3.358,2.165-.82-16.863-.82-16.863s1.624,0,3.682-.083C466.813,174.135,469.175,177.088,470.735,181.074Z" transform="translate(-440.035 -163.344)" opacity="0.1"/>
      <path id="Path_712" data-name="Path 712" d="M406.434,168.092a12.72,12.72,0,1,1-1.272-5.561A12.72,12.72,0,0,1,406.434,168.092Z" transform="translate(-375.543 -150.786)" fill="#f8bdc5"/>
      <path id="Path_713" data-name="Path 713" d="M650.773,312.8a2.913,2.913,0,0,1-1.7,1.177c-2.911.82-23.431,5.745-24.773,5.446-1.185-.263-6.271-.994-7.444-1.162l.354-2.345,12.388-1.344,18.951-4.923A6.121,6.121,0,0,1,650.773,312.8Z" transform="translate(-561.406 -272.371)" opacity="0.1"/>
      <path id="Path_714" data-name="Path 714" d="M511.653,181.013a71.521,71.521,0,0,0-7.24.806.5.5,0,0,0-.013-.333l4.961-.613s-.725-11.66-3.392-14.455a6.944,6.944,0,0,0,2.254-.636C510.237,164.6,511.653,181.013,511.653,181.013Z" transform="translate(-472.788 -158.956)" opacity="0.1"/>
      <path id="Path_715" data-name="Path 715" d="M498.911,140.98s4.4-.4,5-1.143,4.851-.969,4.851-.969a6.953,6.953,0,0,0,2.544-.9c.456-.524,11.788-1.194,12.907-.6a8.962,8.962,0,0,0,2.837,1.045c.672.076,5.894,3.8,6.415,3.8s14.84,13.507,14.84,13.507,1.484,3.432,2.091,3.581,5.97,13.729,5.97,13.729.746,3.282-2.163,4.1-23.431,5.745-24.773,5.446-7.685-1.194-7.685-1.194.074,0-.074-.82-.373-.6-.076-1.344.6-.672.225-1.119,0-.672-1.193-1.418a15.029,15.029,0,0,1-2.612-1.789c-.068-.223-1.12-1.717-1.641-1.791s-15.148-4.179-15.148-4.179l-3.432-1.119s-1.641-1.119-1.272-1.789,1.639-6.731,1.639-6.731l5.247-.647s-.782-12.636-3.721-14.756S498.911,140.98,498.911,140.98Z" transform="translate(-466.535 -136.435)" fill="#e53935"/>
      <path id="Path_716" data-name="Path 716" d="M498.146,391.869s-.471.848-1.179,2.107c-.11-3.892-2.832-4.647-4.217-4.776.848-.672,1.442-1.06,1.442-1.06Z" transform="translate(-463.608 -334.22)" opacity="0.1"/>
      <path id="Path_717" data-name="Path 717" d="M492.639,272.34l.36,2.014s1.418,1.717,1.418,2.239,1.641,2.014,2.09,2.835,2.014.971,1.416,2.389-4.028,12.237-4.028,12.237l-3.507,3.88s5.82-.524,4.923,6.415l7.537-6.572,5.9-10.738s-5.745-10.893-5.968-11.788S492.639,272.34,492.639,272.34Z" transform="translate(-461.748 -242.97)" fill="#e53935"/>
      <path id="Path_718" data-name="Path 718" d="M583.31,275.982s4.774-3.358,4.774-3.731S583.31,275.982,583.31,275.982Z" transform="translate(-534.969 -242.881)" opacity="0.1"/>
      <path id="Path_719" data-name="Path 719" d="M621,301.242s2.544-.6,2.756-1.94S621,301.242,621,301.242Z" transform="translate(-564.668 -263.962)" opacity="0.1"/>
      <path id="Path_720" data-name="Path 720" d="M630.82,318s3.583-1.774,3.432-2.082S630.82,318,630.82,318Z" transform="translate(-572.406 -277.288)" opacity="0.1"/>
      <path id="Path_721" data-name="Path 721" d="M717.089,272.23s-1.484.969-1.043,1.876S717.089,272.23,717.089,272.23Z" transform="translate(-639.499 -242.884)" opacity="0.1"/>
      <path id="Path_722" data-name="Path 722" d="M729.318,274.1s-4.227,4.028-3.271,4.1S729.318,274.1,729.318,274.1Z" transform="translate(-647.333 -244.357)" opacity="0.1"/>
      <path id="Path_723" data-name="Path 723" d="M696.64,568.68s5.446,1.045,5.595,1.418S696.64,568.68,696.64,568.68Z" transform="translate(-624.272 -476.484)" opacity="0.1"/>
      <path id="Path_724" data-name="Path 724" d="M705.79,585.57s2.909,1.791,2.983,2.313S705.79,585.57,705.79,585.57Z" transform="translate(-631.482 -489.794)" opacity="0.1"/>
      <path id="Path_725" data-name="Path 725" d="M702.62,604.58s.447,2.014,1.193,2.313S702.62,604.58,702.62,604.58Z" transform="translate(-628.984 -504.774)" opacity="0.1"/>
      <path id="Path_726" data-name="Path 726" d="M404.946,162.41a.144.144,0,0,1-.011.066,1.878,1.878,0,0,1-1,1.6,1.586,1.586,0,0,1-1.13-.1c-1.06-.464-2-1.579-3.136-1.31a1.878,1.878,0,0,0-1.183,1.039,5.213,5.213,0,0,0-.424,1.138,4.072,4.072,0,0,0-.057,2.525,2.572,2.572,0,0,0,.191.373c.3.481.725.89,1.022,1.376a1.485,1.485,0,0,1-.11,1.931,1.164,1.164,0,0,1-.988.138,5.878,5.878,0,0,1-1.206-.534,2.469,2.469,0,0,0-2.408-.182c-.246.153-.443.373-.678.534a2.447,2.447,0,0,1-1.639.341c-1.348-.138-1.853-.992-2.883-1.654-.755-.488-2.332-.7-2.782.3-.288.636.14,1.437-.142,2.086s-1.179.848-1.594,1.45c-.547.793-.038,1.94-.439,2.82a1.436,1.436,0,0,1-.244.373A12.759,12.759,0,0,1,402.149,158.7l.573-.021c.558-.021,1.149-.051,1.745-.087a4.865,4.865,0,0,1,.329.931A7.762,7.762,0,0,1,404.946,162.41Z" transform="translate(-375.314 -150.73)" opacity="0.1"/>
      <path id="Path_727" data-name="Path 727" d="M366.2,152.772c-.29.636.138,1.437-.142,2.084s-1.183.848-1.594,1.45c-.549.8-.04,1.942-.439,2.82-.458,1-1.84,1.16-2.9.867a5.936,5.936,0,0,1-3.956-3.7c-.719-2.046-.254-4.3-.441-6.458a10.714,10.714,0,0,0-.594-2.712,11.511,11.511,0,0,1-.827-2.584,3.841,3.841,0,0,1,2.073-3.776c.874-.424,1.948-.545,2.584-1.272a5.586,5.586,0,0,0,.818-2.061,4.886,4.886,0,0,1,4.452-3.445c1.607.013,3.18.96,4.751.587.888-.212,1.7-.848,2.612-.757a3.313,3.313,0,0,1,1.236.46,48.168,48.168,0,0,1,6.935,4.558,7.8,7.8,0,0,0,1.469,1,9.117,9.117,0,0,1,.99.456,3.192,3.192,0,0,1,1.238,2.016,7.7,7.7,0,0,1,.157,2.888,1.921,1.921,0,0,1-1.007,1.671,1.584,1.584,0,0,1-1.132-.108c-1.06-.46-2-1.575-3.133-1.308-.924.212-1.37,1.259-1.611,2.177a4.046,4.046,0,0,0-.057,2.527,14.673,14.673,0,0,0,1.211,1.747c.363.608.466,1.518-.11,1.931-.636.46-1.5-.03-2.2-.394a2.47,2.47,0,0,0-2.406-.184c-.244.153-.441.373-.678.536a2.467,2.467,0,0,1-1.637.339c-1.35-.138-1.855-.992-2.883-1.654C368.225,151.982,366.652,151.774,366.2,152.772Z" transform="translate(-355.291 -133.808)" fill="#474463"/>
      <path id="Path_728" data-name="Path 728" d="M574.657,356.062c-.057.318-.494.354-.583.664a9.824,9.824,0,0,1-5.593,6.784c-.553-.871-1.011-1.441-1.011-1.441s5.372-9.848,5.671-8.506A11.09,11.09,0,0,0,574.657,356.062Z" transform="translate(-522.487 -306.875)" opacity="0.1"/>
      <path id="Path_729" data-name="Path 729" d="M528.9,319.5a9.814,9.814,0,1,1-2.875-6.974A9.85,9.85,0,0,1,528.9,319.5Z" transform="translate(-476.57 -272.37)" fill="#ffc1c8"/>
      <path id="Path_730" data-name="Path 730" d="M546.079,747.908l.072,1.3c-.863.191-2.5.441-3.46-.144-1.236-.757-3.061-.941-4.734-1.972a7.081,7.081,0,0,0-.047-1.385Z" transform="translate(-499.194 -615.983)" opacity="0.1"/>
      <path id="Path_731" data-name="Path 731" d="M611.11,760.229c-.057.29-.11.469-.11.469s-6.583-.674-8.48-1.584c0-.657-.019-1.484-.019-1.484l8.285,1.007Z" transform="translate(-550.09 -625.376)" opacity="0.1"/>
      <path id="Path_732" data-name="Path 732" d="M555.168,587.665c-.447,1.194-.672,1.418-.223,2.014s.223,3.731-.49,4.028-3.392,2.088-3.392,2.088,1.484,1.94,1.528,2.756a2.5,2.5,0,0,0,.577,1.418s2.3,4.925,2.756,6.492.878,4.028.878,4.028-.8,2.239-.248,3.509a5.473,5.473,0,0,1,0,3.133s-8.016-.82-8.9-1.874-.3-3.424-.3-3.424a8.577,8.577,0,0,0-1.12-2.985c-.9-1.418.212-2.909,0-2.985a6.3,6.3,0,0,1-1.571-2.237c-.674-1.342-1.094-.822-1.094-.822s.873,7.537,0,8.209-.992.373-.767,1.272a23.085,23.085,0,0,1,.373,2.612s-2.686.821-4.028,0-3.362-.971-5.137-2.239.8-3.432,1.251-3.731-.148-4.626-.148-4.626l-.6-4.253s2.014.447,1.353-1.194-1.427-7.312-1.8-8.207,1.272-2.09,1.045-2.686.969-4.028.969-4.028.076-2.834.82-3.366a2.631,2.631,0,0,0,.591-1.5,18.658,18.658,0,0,0,.231-2.442s17.086-1.194,19.846.447c1.242.738,1.155,2.1.636,3.473a27.186,27.186,0,0,1-2.271,4.013C555.319,585.7,555.616,586.472,555.168,587.665Z" transform="translate(-495.635 -482.412)" fill="#575988"/>
      <path id="Path_733" data-name="Path 733" d="M573.367,580.542c-2.12.6-4.944,1.471-5.4,1.974-.746.823-3.284-4.626-3.284-4.626s.151,4.1-3.208,2.383c-2.907-1.484-7.6-1.289-8.811-1.209a18.656,18.656,0,0,0,.231-2.442s17.086-1.194,19.846.447C573.979,577.807,573.892,579.166,573.367,580.542Z" transform="translate(-510.817 -482.412)" opacity="0.1"/>
      <path id="Path_734" data-name="Path 734" d="M561.408,379.189s1.484-1.791,1.791-1.119a10.133,10.133,0,0,0,2.059,2.014s.5,1.567,1.386,1.792,7.524,9.178,7.524,9.178L571.78,395.9l-1.94,11.79a5.324,5.324,0,0,1-.443,2.544c-.528.678-2.544.521-1.609,1.342s2.277,1.567,3.023,5.3a34.677,34.677,0,0,0,1.641,5.894s-7.013,1.791-7.76,2.612-3.284-4.626-3.284-4.626.151,4.094-3.208,2.383-9.1-1.189-9.1-1.189v-4.41s1.12-1.717.524-2.911.407-3.432.407-3.432a17.567,17.567,0,0,0-.931-3.655c-.6-1.342-.373-7.685-.373-7.685a28.134,28.134,0,0,1-.04-6.195,18.526,18.526,0,0,1,1.838-5.19c.82-1.6,1.34-3.091,1.117-3.689s1.97-1.891,1.97-1.891l1.215,1.965.309,1.174S561.559,381.428,561.408,379.189Z" transform="translate(-507.546 -326.166)" fill="#dce6f2"/>
      <path id="Path_735" data-name="Path 735" d="M596.232,432.83s4.179,4.1,4.626,4.774,1.946,4.166.006,5.226-9.54,2.695-10.295,2.131-5.3.636-5.3.636-7.6,1.866-5.961-1.194,5.523-2.544,5.523-2.544,6.271-.011,6.941-.636,5.724-1.967,4.579-4.732S596.232,432.83,596.232,432.83Z" transform="translate(-531.632 -369.436)" fill="#ffc1c8"/>
      <path id="Path_736" data-name="Path 736" d="M569.292,519.41s-9.733,8.432-8.764,8.432S569.292,519.41,569.292,519.41Z" transform="translate(-516.963 -437.66)" opacity="0.1"/>
      <path id="Path_737" data-name="Path 737" d="M623.18,535.6s-3.093.744-2.5,1.193S623.18,535.6,623.18,535.6Z" transform="translate(-564.359 -450.418)" opacity="0.1"/>
      <path id="Path_738" data-name="Path 738" d="M581.29,439.16s3.86.346,3.18,1.554S581.29,439.16,581.29,439.16Z" transform="translate(-533.377 -374.424)" opacity="0.1"/>
      <path id="Path_739" data-name="Path 739" d="M569.075,610.09a3.336,3.336,0,0,0,0,2.332c.524.814,0,2.756,0,2.756v6.784s-.072,4.925,1.715,6.64Z" transform="translate(-523.568 -509.116)" opacity="0.1"/>
      <path id="Path_740" data-name="Path 740" d="M545.83,709.81a12.752,12.752,0,0,1,1.194,2.088C547.174,712.458,545.83,709.81,545.83,709.81Z" transform="translate(-505.435 -587.694)" opacity="0.1"/>
      <path id="Path_741" data-name="Path 741" d="M547.06,694.383s2.425-.447,2.8-.187S547.06,694.383,547.06,694.383Z" transform="translate(-506.404 -575.327)" opacity="0.1"/>
      <path id="Path_742" data-name="Path 742" d="M543.059,738.49s-.711.074.708.848,4.179,1.753,4.215,1.418S543.059,738.49,543.059,738.49Z" transform="translate(-503.111 -610.294)" opacity="0.1"/>
      <path id="Path_743" data-name="Path 743" d="M592.69,703.339c.25,0,3.373-.186,3.193.3S592.69,703.339,592.69,703.339Z" transform="translate(-542.36 -582.567)" opacity="0.1"/>
      <path id="Path_744" data-name="Path 744" d="M612.7,679.769s.708-1.23.969-.708S612.7,679.769,612.7,679.769Z" transform="translate(-558.128 -563.362)" opacity="0.1"/>
      <path id="Path_745" data-name="Path 745" d="M528.908,319.44a9.822,9.822,0,0,1-.377,2.707,1.475,1.475,0,0,1-1.628.1,4.387,4.387,0,0,1-1.367-1.484,3.377,3.377,0,0,0-1.456-1.37,2.649,2.649,0,0,0-2.406.5c-.7.5-1.251,1.162-1.908,1.7a3.1,3.1,0,0,1-2.332.835,4,4,0,0,1-1.484-.683,13.318,13.318,0,0,0-2.016-1.293c-.7-.269-1.272.212-1.936.212-.528.191-1.1.625-1,1.175a1.818,1.818,0,0,0,.271.568,2.385,2.385,0,0,1-.312,2.627,9.85,9.85,0,1,1,17.951-5.6Z" transform="translate(-476.578 -272.313)" opacity="0.1"/>
      <path id="Path_746" data-name="Path 746" d="M504.815,305.938c-.528.191-1.1.625-1,1.177a1.89,1.89,0,0,0,.273.566,2.38,2.38,0,0,1-1.06,3.2.939.939,0,0,1-.589.093,1.044,1.044,0,0,1-.424-.254,3.924,3.924,0,0,1-1.223-2.109A25.393,25.393,0,0,1,500.63,306c-.093-.871-.392-1.73-.5-2.608a2.421,2.421,0,0,1,.134-1.289,3,3,0,0,1,.534-.733,6.883,6.883,0,0,0,1.516-2.184c.473-1.34.129-3.047,1.164-4.028a6.473,6.473,0,0,1,1.743-.9,12.272,12.272,0,0,0,1.6-1.015c1.919-1.319,4.251-2.332,6.532-1.866a9.291,9.291,0,0,1,2.589,1.06,29.128,29.128,0,0,1,4.24,2.849,6.6,6.6,0,0,1,1.484,1.524,5.286,5.286,0,0,1,.649,1.622,9.294,9.294,0,0,1,.123,3.816,24.7,24.7,0,0,0-.712,3.71,2.4,2.4,0,0,1-.184,1.246,1.382,1.382,0,0,1-1.811.314,4.321,4.321,0,0,1-1.365-1.484,3.35,3.35,0,0,0-1.456-1.367,2.649,2.649,0,0,0-2.406.5c-.7.5-1.249,1.162-1.908,1.7a3.093,3.093,0,0,1-2.332.835,4,4,0,0,1-1.484-.681,13.087,13.087,0,0,0-2.014-1.293C506.072,305.451,505.476,305.938,504.815,305.938Z" transform="translate(-469.399 -257.876)" fill="#794f6a"/>
      <path id="Path_747" data-name="Path 747" d="M595.492,432.83s-10.967,10.146-8.73,15.22,12.084-3.88,12.084-3.88l3.511-8.124Z" transform="translate(-537.452 -369.436)" fill="#f8bdc5"/>
      <g id="Group_9" data-name="Group 9" transform="translate(30.707 42.433)" opacity="0.1">
        <path id="Path_748" data-name="Path 748" d="M503.049,352.64a.933.933,0,0,1-.587.093,1.013,1.013,0,0,1-.424-.256,3.931,3.931,0,0,1-1.225-2.107,26.247,26.247,0,0,1-.161-2.62c-.093-.871-.394-1.728-.5-2.608a.556.556,0,0,0-.011-.131,3.361,3.361,0,0,0,.011.729c.1.878.4,1.726.5,2.608a25.968,25.968,0,0,0,.161,2.618,3.928,3.928,0,0,0,1.225,2.109,1.032,1.032,0,0,0,.424.254.933.933,0,0,0,.587-.093,2.4,2.4,0,0,0,1.306-2.447A2.352,2.352,0,0,1,503.049,352.64Z" transform="translate(-500.13 -342.667)"/>
        <path id="Path_749" data-name="Path 749" d="M536.2,335.294a24.377,24.377,0,0,0-.71,3.71,2.377,2.377,0,0,1-.187,1.247,1.379,1.379,0,0,1-1.808.314,4.325,4.325,0,0,1-1.367-1.484,3.338,3.338,0,0,0-1.457-1.368,2.646,2.646,0,0,0-2.4.5c-.7.5-1.251,1.16-1.908,1.7a3.105,3.105,0,0,1-2.332.837,4.038,4.038,0,0,1-1.484-.683,13.245,13.245,0,0,0-2.014-1.293c-.7-.269-1.272.212-1.936.212-.528.193-1.1.625-1,1.179a.9.9,0,0,0,.057.174,1.649,1.649,0,0,1,.944-.755c.661,0,1.247-.475,1.936-.212a12.764,12.764,0,0,1,2.014,1.293,3.938,3.938,0,0,0,1.484.68,3.058,3.058,0,0,0,2.332-.835c.653-.541,1.214-1.208,1.908-1.7a2.675,2.675,0,0,1,2.4-.5,3.365,3.365,0,0,1,1.457,1.367,4.5,4.5,0,0,0,1.367,1.484,1.365,1.365,0,0,0,1.808-.314,2.532,2.532,0,0,0,.187-1.247,23.655,23.655,0,0,1,.71-3.71,9.387,9.387,0,0,0,.136-1.933A9.4,9.4,0,0,1,536.2,335.294Z" transform="translate(-513.884 -333.96)"/>
      </g>
      <path id="Path_750" data-name="Path 750" d="M561.842,173.533s-4.028,7.312,1.484,11.043,6.044,3.358,6.044,3.358a5.37,5.37,0,0,0,0,1.119c.076.225,1.484.744,1.484.744a12.065,12.065,0,0,0,4.177,3.956,5.839,5.839,0,0,1,2.911,4.028,2.543,2.543,0,0,0,1.272,1.866c1.272.895,2.252,3.507,2.252,3.507v2.389c0,.373.447,1.484-.521,1.6s-.15,2.351-.15,2.351-1.043,1.272-.821,1.866-.447,1.789-.447,1.789-.82,1.194-.746,1.418-.895,1.045-.672,1.567-1.117,1.194-.895,1.791-.954.895-.954.895l-3.225,7.463s6.784,1.484,8.535,5.222l8.552-15.669s4.774-11.713,4.925-12.46S594,199.947,594,199.947l-5.819-10.6-8.73-12.311S572.512,162.267,561.842,173.533Z" transform="translate(-516.933 -161.773)" opacity="0.1"/>
      <path id="Path_751" data-name="Path 751" d="M583.341,188.757s-10.482,3.678-4.961,7.41,6.044,3.356,6.044,3.356a5.53,5.53,0,0,0,0,1.119c.074.223,1.484.746,1.484.746a12.082,12.082,0,0,0,4.179,3.956A5.839,5.839,0,0,1,593,209.373a2.543,2.543,0,0,0,1.272,1.866c1.272.895,2.239,3.507,2.239,3.507v2.387c0,.373.447,1.484-.524,1.6s-.148,2.351-.148,2.351-1.045,1.272-.82,1.864-.447,1.791-.447,1.791-.821,1.194-.746,1.418-.9,1.045-.672,1.567-1.12,1.194-.895,1.791-.956.895-.956.895l-3.222,7.46s5.589.288,7.352,4.028l9.733-14.465s4.776-11.713,4.925-12.46-1.041-3.441-1.041-3.441l-5.82-10.6-13.276-7.658S594.011,177.489,583.341,188.757Z" transform="translate(-529.818 -173.912)" opacity="0.1"/>
      <path id="Path_752" data-name="Path 752" d="M564.662,173.536s-4.028,7.312,1.484,11.043,6.044,3.358,6.044,3.358a5.514,5.514,0,0,0,0,1.119c.074.225,1.484.744,1.484.744a12.082,12.082,0,0,0,4.179,3.956,5.839,5.839,0,0,1,2.911,4.028,2.543,2.543,0,0,0,1.272,1.866c1.272.895,2.249,3.507,2.249,3.507v2.389c0,.373.448,1.484-.524,1.6s-.148,2.351-.148,2.351-1.045,1.272-.821,1.866-.447,1.789-.447,1.789-.82,1.194-.746,1.418-.9,1.045-.672,1.567-1.12,1.194-.895,1.791-.956.895-.956.895l-3.223,7.463s6.772,1.484,8.533,5.222l8.552-15.669s4.776-11.713,4.925-12.46-1.045-3.432-1.045-3.432L591,189.35l-8.728-12.307S575.33,162.27,564.662,173.536Z" transform="translate(-519.155 -161.776)" fill="#e53935"/>
      <g id="Group_10" data-name="Group 10" transform="translate(0 10.054)" opacity="0.1">
        <path id="Path_753" data-name="Path 753" d="M356.728,186.609a10.64,10.64,0,0,0-.594-2.714,11.508,11.508,0,0,1-.827-2.584v-.081a3.466,3.466,0,0,0,0,.678,11.613,11.613,0,0,0,.827,2.584,10.62,10.62,0,0,1,.594,2.712c.03.348.042.7.047,1.06C356.781,187.7,356.775,187.153,356.728,186.609Z" transform="translate(-355.291 -181.23)"/>
        <path id="Path_754" data-name="Path 754" d="M369.424,229.4c-.456,1-1.84,1.16-2.9.865a5.949,5.949,0,0,1-3.956-3.7,8.754,8.754,0,0,1-.424-2.822,9.7,9.7,0,0,0,.424,3.418,5.951,5.951,0,0,0,3.956,3.7c1.06.293,2.444.136,2.9-.867a3.236,3.236,0,0,0,.165-1.4A2.188,2.188,0,0,1,369.424,229.4Z" transform="translate(-360.689 -214.735)"/>
        <path id="Path_755" data-name="Path 755" d="M467.2,182.032a1.916,1.916,0,0,1-1.007,1.668,1.586,1.586,0,0,1-1.13-.106c-1.06-.462-2-1.577-3.135-1.308-.924.212-1.367,1.257-1.611,2.177a5.362,5.362,0,0,0-.227,1.8,6.99,6.99,0,0,1,.227-1.2c.244-.918.687-1.957,1.611-2.177,1.132-.267,2.067.848,3.135,1.308a1.577,1.577,0,0,0,1.13.108,1.917,1.917,0,0,0,1.007-1.671,7.689,7.689,0,0,0,.064-1.308C467.254,181.557,467.233,181.8,467.2,182.032Z" transform="translate(-437.869 -181.301)"/>
        <path id="Path_756" data-name="Path 756" d="M418.92,218.865c-.636.46-1.5-.03-2.2-.4a2.471,2.471,0,0,0-2.406-.184c-.244.153-.441.373-.678.536a2.441,2.441,0,0,1-1.637.339c-1.351-.138-1.855-.992-2.883-1.654-.755-.486-2.332-.693-2.781.3a1.809,1.809,0,0,0-.087.918,1.2,1.2,0,0,1,.087-.32c.452-1,2.027-.791,2.781-.3,1.028.661,1.533,1.516,2.883,1.654a2.453,2.453,0,0,0,1.637-.341c.237-.161.435-.382.678-.534a2.475,2.475,0,0,1,2.406.184c.7.365,1.556.848,2.2.394a1.175,1.175,0,0,0,.379-1.211A.979.979,0,0,1,418.92,218.865Z" transform="translate(-395.428 -209.496)"/>
        <path id="Path_757" data-name="Path 757" d="M399.125,229.137c-.29.666-1.183.848-1.594,1.448a2.567,2.567,0,0,0-.271,1.558,1.762,1.762,0,0,1,.271-.96c.411-.6,1.3-.784,1.594-1.45a1.843,1.843,0,0,0,.081-.9A1.2,1.2,0,0,1,399.125,229.137Z" transform="translate(-388.358 -218.739)"/>
      </g>
    </g>
  </g>
</svg>
