<svg xmlns="http://www.w3.org/2000/svg" width="147.569" height="150" viewBox="0 0 147.569 150">
  <g id="Group_1611" data-name="Group 1611" transform="translate(-1050.691 -1361.673)">
    <g id="background" transform="translate(1055 1362)">
      <circle id="Ellipse_532" data-name="Ellipse 532" cx="52.378" cy="52.378" r="52.378" transform="translate(17.459 17.5)" fill="rgba(79,19,76,0.05)"/>
      <circle id="Ellipse_533" data-name="Ellipse 533" cx="69.838" cy="69.838" r="69.838" fill="rgba(79,19,76,0.05)"/>
    </g>
    <g id="undraw_Birthday_cake_2wxy_2_" data-name="undraw_Birthday_cake_2wxy (2)" transform="translate(1050.691 1361.673)">
      <path id="Path_151" data-name="Path 151" d="M360.52,666.51l-.655.028c-.045-1.058-3.339-3.587-5.385-4.614a12.021,12.021,0,0,1-3.352-2.358,5.645,5.645,0,0,1-1.714-4.678c.4-3.553-2.463-8.024-2.492-8.068l.55-.357c.124.19,3.023,4.71,2.593,8.5-.286,2.518,1.3,4.664,4.709,6.377C356.382,662.145,360.451,664.869,360.52,666.51Z" transform="translate(-335.243 -531.181)" fill="#d4d5e0"/>
      <path id="Path_152" data-name="Path 152" d="M304.976,583.455c-2.73-4.569-8.051-6.416-11.885-4.125s-4.729,7.852-2,12.421c2.651,4.436,7.744,6.306,11.547,4.314a2.824,2.824,0,0,1,.221,1.583c-.192.907,1.752-1.047,1.752-1.047a4.775,4.775,0,0,1-1.053-1.116C306.9,593,307.562,587.783,304.976,583.455Z" transform="translate(-289.511 -476.922)" fill="#e53935"/>
      <path id="Path_153" data-name="Path 153" d="M309.727,636.352c-1.644-1.354-2.221-3.4-1.357-4.669-.047.048-.092.1-.136.15-1.033,1.256-.48,3.419,1.236,4.831,1.666,1.371,3.816,1.531,4.885.39A5.726,5.726,0,0,1,309.727,636.352Z" transform="translate(-304.01 -519.408)" fill="#fff" opacity="0.2"/>
      <path id="Path_154" data-name="Path 154" d="M466.52,328.51l-.654.028c-.045-1.058-3.339-3.587-5.385-4.614a12.02,12.02,0,0,1-3.352-2.358,5.644,5.644,0,0,1-1.714-4.678c.4-3.553-2.463-8.024-2.492-8.068l.55-.357c.124.191,3.023,4.71,2.593,8.5-.286,2.518,1.3,4.664,4.709,6.377C462.382,324.146,466.451,326.869,466.52,328.51Z" transform="translate(-419.679 -261.942)" fill="#d4d5e0"/>
      <path id="Path_155" data-name="Path 155" d="M410.976,245.455c-2.73-4.569-8.051-6.416-11.885-4.125s-4.729,7.852-2,12.421c2.651,4.436,7.744,6.306,11.547,4.314a2.825,2.825,0,0,1,.221,1.583c-.192.907,1.752-1.047,1.752-1.047a4.776,4.776,0,0,1-1.053-1.115C412.9,255,413.562,249.783,410.976,245.455Z" transform="translate(-373.947 -207.683)" fill="#e53935"/>
      <path id="Path_156" data-name="Path 156" d="M415.727,298.352c-1.645-1.353-2.221-3.4-1.357-4.669-.047.048-.093.1-.136.15-1.034,1.256-.48,3.419,1.236,4.831,1.666,1.371,3.816,1.531,4.885.39A5.725,5.725,0,0,1,415.727,298.352Z" transform="translate(-388.446 -250.169)" fill="#fff" opacity="0.2"/>
      <path id="Path_157" data-name="Path 157" d="M429.52,471.51l-.655.028c-.045-1.058-3.339-3.587-5.385-4.614a12.018,12.018,0,0,1-3.352-2.358,5.644,5.644,0,0,1-1.714-4.678c.4-3.553-2.463-8.024-2.492-8.068l.55-.357c.124.19,3.023,4.71,2.593,8.5-.286,2.518,1.3,4.664,4.709,6.377C425.382,467.146,429.451,469.869,429.52,471.51Z" transform="translate(-390.206 -375.851)" fill="#d4d5e0"/>
      <path id="Path_158" data-name="Path 158" d="M373.976,388.455c-2.73-4.569-8.051-6.416-11.885-4.125s-4.729,7.852-2,12.421c2.651,4.436,7.744,6.306,11.547,4.314a2.826,2.826,0,0,1,.221,1.583c-.192.907,1.752-1.047,1.752-1.047a4.776,4.776,0,0,1-1.053-1.115C375.9,398,376.562,392.783,373.976,388.455Z" transform="translate(-344.474 -321.592)" fill="#e53935"/>
      <path id="Path_159" data-name="Path 159" d="M378.727,441.352c-1.645-1.354-2.221-3.4-1.357-4.669q-.071.071-.136.15c-1.033,1.256-.48,3.419,1.236,4.831,1.666,1.371,3.816,1.531,4.885.39A5.725,5.725,0,0,1,378.727,441.352Z" transform="translate(-358.974 -364.078)" fill="#fff" opacity="0.2"/>
      <path id="Path_160" data-name="Path 160" d="M925.067,650.347l-.416-.506c.818-.672.857-4.825.448-7.077a12.015,12.015,0,0,1-.132-4.1,5.644,5.644,0,0,1,2.707-4.183c3.081-1.815,4.929-6.794,4.947-6.844l.615.224c-.078.213-1.945,5.249-5.23,7.184-2.184,1.286-2.945,3.842-2.262,7.6C926.065,644.416,926.336,649.3,925.067,650.347Z" transform="translate(-795.442 -516.189)" fill="#d4d5e0"/>
      <path id="Path_161" data-name="Path 161" d="M948.848,566.7c2.008-4.929.283-10.291-3.853-11.977s-9.118.944-11.126,5.873c-1.95,4.786-.38,9.979,3.5,11.82a2.824,2.824,0,0,1-1.132,1.129c-.84.392,1.89.77,1.89.77a4.775,4.775,0,0,1,.258-1.512C942.375,573.974,946.946,571.369,948.848,566.7Z" transform="translate(-802.117 -457.699)" fill="#e53935"/>
      <path id="Path_162" data-name="Path 162" d="M939.469,592.762c.092-2.128,1.377-3.817,2.914-3.892-.067-.009-.134-.015-.2-.018-1.625-.07-3.02,1.673-3.116,3.893-.093,2.156,1.072,3.969,2.627,4.138A5.727,5.727,0,0,1,939.469,592.762Z" transform="translate(-806.919 -485.289)" fill="#fff" opacity="0.2"/>
      <ellipse id="Ellipse_6" data-name="Ellipse 6" cx="61.527" cy="4.572" rx="61.527" ry="4.572" transform="translate(15.175 131.292)" fill="#e53935" opacity="0.1"/>
      <path id="Path_163" data-name="Path 163" d="M580.006,119.806v7.187h.754v-7.535Z" transform="translate(-508.487 -103.061)" fill="#53425a"/>
      <path id="Path_164" data-name="Path 164" d="M655.792,127.619v6.666h1.044l-.232-7.419Z" transform="translate(-568.855 -108.961)" fill="#53425a"/>
      <path id="Path_165" data-name="Path 165" d="M507.2,136.837l-.7.754v6.492h.7Z" transform="translate(-449.934 -116.905)" fill="#53425a"/>
      <path id="Path_166" data-name="Path 166" d="M567.527,220.953h-4.521V207.971h3.478a1.735,1.735,0,0,0-.08.308,18.019,18.019,0,0,0,.033,3.765C566.739,215.907,567.527,220.953,567.527,220.953Z" transform="translate(-507.368 -181.894)" fill="#e53935"/>
      <path id="Path_167" data-name="Path 167" d="M640.484,208.241l-5.681.7V192.013H638.4c-.024.191-.04.409-.049.65a28.576,28.576,0,0,0,.224,3.82c.122,1.1.281,2.287.457,3.464.135.913.282,1.821.426,2.685C639.978,205.732,640.484,208.241,640.484,208.241Z" transform="translate(-564.559 -169.182)" fill="#e53935"/>
      <path id="Path_168" data-name="Path 168" d="M716.156,211.95l-5.564.464V198.851h3.825a3.638,3.638,0,0,0-.2,1.395,24.938,24.938,0,0,0,.3,3.34C715.062,207.385,716.156,211.95,716.156,211.95Z" transform="translate(-624.929 -174.63)" fill="#e53935"/>
      <path id="Path_169" data-name="Path 169" d="M554.367,113.093s.348,1.391-3.3,5.216-2.2,11.534,1.681,11.3c0,0,3.63.6,4.936-1.873a3.31,3.31,0,0,0-.232-3.391c-1.2-1.767-3.515-5.481-3.082-7.256Z" transform="translate(-496.178 -106.317)" fill="#ffc13d"/>
      <path id="Path_170" data-name="Path 170" d="M558.707,138.935s.217.869-2.064,3.258-1.376,7.2,1.05,7.059c0,0,2.318.382,3.11-1.222a2.071,2.071,0,0,0-.174-2.07c-.708-1.044-2.033-3.166-1.952-4.332.013-.182.03-.364.03-.547Z" transform="translate(-501.253 -126.902)" fill="#fff" opacity="0.5"/>
      <path id="Path_171" data-name="Path 171" d="M702.5,104.517s.348,1.391-3.3,5.216-2.2,11.534,1.681,11.3c0,0,3.63.6,4.936-1.873a3.31,3.31,0,0,0-.232-3.391c-1.2-1.767-3.515-5.481-3.082-7.256Z" transform="translate(-614.179 -99.486)" fill="#ffc13d"/>
      <path id="Path_172" data-name="Path 172" d="M711.5,145.274s.163.651-1.546,2.441-1.031,5.4.787,5.29c0,0,1.7.28,2.31-.876a1.549,1.549,0,0,0-.108-1.587c-.562-.827-1.645-2.565-1.442-3.4Z" transform="translate(-623.64 -131.952)" fill="#fff" opacity="0.5"/>
      <path id="Path_173" data-name="Path 173" d="M622.351,79.787s.423,1.692-4.017,6.343-2.678,14.026,2.044,13.744c0,0,4.414.728,6-2.277a4.024,4.024,0,0,0-.281-4.124c-1.459-2.149-4.274-6.665-3.747-8.823Z" transform="translate(-549.401 -79.787)" fill="#ffc13d"/>
      <path id="Path_174" data-name="Path 174" d="M631.446,121.059s.236.944-2.241,3.539-1.494,7.825,1.14,7.668c0,0,2.463.406,3.349-1.271a2.245,2.245,0,0,0-.157-2.3c-.814-1.2-2.384-3.719-2.091-4.922Z" transform="translate(-558.962 -112.663)" fill="#fff" opacity="0.5"/>
      <path id="Path_175" data-name="Path 175" d="M566.437,213.249a47.107,47.107,0,0,0-3.431,4.387v-4.587a49.2,49.2,0,0,1,3.4-3.565A18.026,18.026,0,0,0,566.437,213.249Z" transform="translate(-507.368 -183.099)" fill="#fff" opacity="0.5"/>
      <path id="Path_176" data-name="Path 176" d="M638.573,199.03a40.534,40.534,0,0,0-3.77,3.429v-4.385a20.292,20.292,0,0,1,3.546-2.864A28.566,28.566,0,0,0,638.573,199.03Z" transform="translate(-564.559 -171.729)" fill="#fff" opacity="0.5"/>
      <path id="Path_177" data-name="Path 177" d="M639.457,233.7c-1.4,1.224-3.318,2.965-4.653,4.178v-3.138c1.395-1.283,3.1-2.761,4.227-3.725C639.166,231.928,639.312,232.835,639.457,233.7Z" transform="translate(-564.559 -200.25)" fill="#e53935"/>
      <path id="Path_178" data-name="Path 178" d="M714.52,209.046c-1.341,1.123-2.9,2.667-3.928,3.73V208.4a19.473,19.473,0,0,1,3.629-2.7A24.936,24.936,0,0,0,714.52,209.046Z" transform="translate(-624.929 -180.09)" fill="#fff" opacity="0.5"/>
      <rect id="Rectangle_4" data-name="Rectangle 4" width="56.743" height="25.967" transform="translate(45.843 42.189)" fill="#c99398"/>
      <path id="Path_179" data-name="Path 179" d="M571.6,287.17v3.909a8,8,0,0,1-3.7-.513,4.917,4.917,0,0,0-4.253.536c-3.269,2.137-5.821,1.685-7.6.623a6.549,6.549,0,0,0-5.926-.457,6.435,6.435,0,0,1-2.627.482,5.547,5.547,0,0,0-2.982.822,6.7,6.7,0,0,1-7.042-.3,4.965,4.965,0,0,0-3.641-.525,5.248,5.248,0,0,1-1.617.132,6.067,6.067,0,0,0-3.572.77c-4.432,2.589-5.9-.555-6.769-1.017-.986-.522-1.1,1.275-1.391,1.275s-1.275-2.375-1.508-1.565c-.108.381-1.02.838-1.96,1.217a3.909,3.909,0,0,1-2.154.223V287.17Z" transform="translate(-469.016 -244.981)" opacity="0.1"/>
      <path id="Path_180" data-name="Path 180" d="M503.283,256.979s-9.3,4.15-4.337,9.336a3.865,3.865,0,0,0,4.231.883c.938-.378,1.851-.836,1.96-1.216.232-.811,1.217,1.565,1.507,1.565s.406-1.8,1.391-1.275c.873.462,2.337,3.607,6.768,1.017a6.079,6.079,0,0,1,3.573-.77,5.2,5.2,0,0,0,1.616-.132,4.969,4.969,0,0,1,3.642.525,6.7,6.7,0,0,0,7.042.3,5.545,5.545,0,0,1,2.983-.824,6.4,6.4,0,0,0,2.626-.482,6.558,6.558,0,0,1,5.927.457c1.781,1.064,4.334,1.515,7.6-.621a4.911,4.911,0,0,1,4.252-.537c2.377.8,5.68,1.3,5.38-2.177-.464-5.39-6.839-6.955-9.506-7.013a81.984,81.984,0,0,0-12.056,0c-4.985.522-15.128.464-15.128.464S505.725,255.8,503.283,256.979Z" transform="translate(-455.178 -219.967)" fill="#f8f8fa"/>
      <rect id="Rectangle_5" data-name="Rectangle 5" width="80.942" height="31.791" transform="translate(34.251 68.156)" fill="#c99398"/>
      <path id="Path_181" data-name="Path 181" d="M571.6,388.156v5.423H540.047c-.054-.007-.108-.012-.162-.016a4.247,4.247,0,0,0-.8.016H514.859v-4.836a64.132,64.132,0,0,0,7.926.72c3.483-.016,6.924-.739,10.414-.544,12.2.678,24.625.88,36.778-.565C570.517,388.29,571.059,388.222,571.6,388.156Z" transform="translate(-469.015 -325.423)" opacity="0.1"/>
      <path id="Path_182" data-name="Path 182" d="M538.816,414.815v2.867a14.236,14.236,0,0,1-2.577-.741,4.249,4.249,0,0,0-2.375-.238c-.41.109-.784.325-1.189.45-1.694.529-3.46-.572-5.236-.579-1.76-.007-3.333,1.054-5.051,1.44-2.655.6-5.369-.45-7.913-1.421a3.862,3.862,0,0,0-3.184-.23c-.423.235-.741.621-1.153.875-1.205.744-2.782.163-3.984-.588-.76-.475-1.68-1.033-2.481-.633a5.116,5.116,0,0,0-1.015.929c-1.085.972-2.793.711-4.123.12s-2.591-1.464-4.041-1.572c-2.045-.155-3.836,1.224-5.62,2.234s-4.258,1.608-5.714.162c-.482-.478-.838-1.17-1.5-1.335-1.09-.271-1.909,1.078-3.008,1.315-1.355.292-2.457-1.149-3.815-1.433-1.405-.294-2.713.683-3.952,1.4s-3.041,1.128-3.94.01c-.287-.357-.443-.836-.836-1.073a1.676,1.676,0,0,0-.967-.155,9.824,9.824,0,0,0-3.41.815c-1.238.546-2.436,1.365-3.787,1.339-.024,0-.049,0-.073,0v-3.961Z" transform="translate(-423.623 -346.659)" opacity="0.1"/>
      <path id="Path_183" data-name="Path 183" d="M465.535,389.617c-6.209.026-12.622-2.3-18.475-.231-2.124.751-4.278,2.529-4.054,4.77A3.272,3.272,0,0,0,446.09,397c1.352.026,2.55-.794,3.787-1.339a9.808,9.808,0,0,1,3.411-.817,1.687,1.687,0,0,1,.967.156c.392.235.549.716.836,1.073.9,1.118,2.7.711,3.94-.011s2.548-1.7,3.953-1.406c1.357.284,2.46,1.726,3.815,1.433,1.1-.237,1.917-1.585,3.008-1.314.66.164,1.016.856,1.5,1.335,1.454,1.446,3.929.848,5.713-.163s3.575-2.389,5.62-2.235c1.451.109,2.712.982,4.042,1.573s3.038.851,4.122-.12a5.191,5.191,0,0,1,1.016-.93c.8-.4,1.722.16,2.481.634,1.2.751,2.779,1.332,3.985.587.411-.254.73-.64,1.152-.874a3.859,3.859,0,0,1,3.184.23c2.543.97,5.259,2.017,7.914,1.42,1.717-.386,3.292-1.446,5.051-1.439,1.774.007,3.542,1.107,5.236.579.4-.126.779-.341,1.188-.45a4.237,4.237,0,0,1,2.376.238,10.3,10.3,0,0,0,3.1.775,2.49,2.49,0,0,0,2.5-1.622,2.9,2.9,0,0,0-.663-2.289,10.808,10.808,0,0,0-7.7-4,38.956,38.956,0,0,0-8.9.482c-12.153,1.444-24.577,1.243-36.777.565C472.461,388.879,469.019,389.6,465.535,389.617Z" transform="translate(-411.767 -325.229)" fill="#f8f8fa"/>
      <rect id="Rectangle_6" data-name="Rectangle 6" width="89.498" height="36.863" transform="translate(28.774 97.078)" fill="#c99398"/>
      <path id="Path_184" data-name="Path 184" d="M528.443,534.675a105.649,105.649,0,0,1-13.575,2.017,9.329,9.329,0,0,0-4.58.349c-.028.009-.056.017-.083.028-2.82,1-5.248,3.365-8.239,3.326-2.387-.031-4.451-1.608-6.745-2.269a8.593,8.593,0,0,0-2.013-.328,8.809,8.809,0,0,0-1.389.038c-2.773.073-5.547.1-8.32.045-4.069-.082-8.129-.351-12.189-.619l-13.02-.861-12.25-.809-3.008-.2c-1.08-.071-1.882.162-2.318-.8a3.454,3.454,0,0,1,.574-3.309c.546.01,1.094.049,1.638.087q12.4.874,24.8,1.808l-1.271.224a138.751,138.751,0,0,1,26.113-1.615,76.322,76.322,0,0,0,12.226-.073c2.845-.365,5.632-1.137,8.491-1.379a46.14,46.14,0,0,1,11.746,1.022,23.542,23.542,0,0,1,2.427.515A7.883,7.883,0,0,0,528.443,534.675Z" transform="translate(-409.774 -438.607)" opacity="0.1"/>
      <path id="Path_185" data-name="Path 185" d="M520.449,556.983v3.466c-1.116-.165-2.21-.329-2.888.464-.318.374-.442.882-.751,1.264a2.335,2.335,0,0,1-2.8.339,13.283,13.283,0,0,1-2.387-1.873,9.492,9.492,0,0,0-9.019-1.581c-2.82,1-5.248,3.365-8.239,3.326-2.387-.031-4.451-1.608-6.745-2.269a9.112,9.112,0,0,0-7.685,1.306c-1.624,1.153-3.158,2.942-5.135,2.714a6.967,6.967,0,0,1-2.787-1.356,14.828,14.828,0,0,0-5.837-2.163,4.912,4.912,0,0,0-2.7.209c-1.052.475-1.732,1.523-2.709,2.139-2.269,1.428-5.211.139-7.55-1.17s-5.236-2.65-7.553-1.3a17.146,17.146,0,0,1-1.591,1.023c-3.26,1.431-6.461-4.083-9.807-2.864-.755.275-1.356.868-2.1,1.174a2.515,2.515,0,0,1-1.217.17v-3.013Z" transform="translate(-402.177 -459.905)" opacity="0.1"/>
      <path id="Path_186" data-name="Path 186" d="M448.667,534.882q-12.4-.933-24.8-1.807a12.067,12.067,0,0,0-4.289.212,4.1,4.1,0,0,0-2.964,2.849,3.177,3.177,0,0,0,4.094,3.4c.743-.306,1.344-.9,2.1-1.174,3.345-1.217,6.547,4.3,9.806,2.864a16.915,16.915,0,0,0,1.591-1.021c2.319-1.346,5.214,0,7.553,1.3s5.281,2.6,7.551,1.169c.977-.615,1.656-1.663,2.709-2.137a4.893,4.893,0,0,1,2.7-.209,14.8,14.8,0,0,1,5.838,2.163,6.976,6.976,0,0,0,2.787,1.355c1.977.229,3.511-1.562,5.134-2.714a9.118,9.118,0,0,1,7.686-1.306c2.293.661,4.358,2.239,6.744,2.27,2.991.039,5.419-2.328,8.238-3.327a9.5,9.5,0,0,1,9.02,1.581,13.22,13.22,0,0,0,2.387,1.872,2.334,2.334,0,0,0,2.8-.339c.309-.382.432-.891.751-1.264,1.305-1.526,4.148.491,5.731-.746a2.167,2.167,0,0,0,.725-1.193,4.077,4.077,0,0,0-1.957-4.147,11.959,11.959,0,0,0-4.625-1.478,46.11,46.11,0,0,0-11.745-1.024c-2.858.242-5.646,1.015-8.491,1.38a76.411,76.411,0,0,1-12.225.073,138.76,138.76,0,0,0-26.114,1.614" transform="translate(-390.712 -439.966)" fill="#f8f8fa"/>
      <path id="Path_187" data-name="Path 187" d="M520.449,687.34V696q-5.138.263-10.278.523c-5.533.282-11.071.563-16.609.455-4.681-.092-9.351-.461-14.03-.607-9.838-.306-19.7.381-29.515-.407-3.14-.252-6.27-.654-9.416-.833a69.308,69.308,0,0,0-9.65.139v-8.16a7.611,7.611,0,0,1,.888-.021,11.365,11.365,0,0,1,4.481,1.083,13.493,13.493,0,0,0,3.333,1.433c3.112.537,5.816-2.4,8.967-2.638,2.537-.188,4.817,1.386,6.993,2.7a2.157,2.157,0,0,0,1.367.435,2.529,2.529,0,0,0,1.064-.577,8.6,8.6,0,0,1,10.65.628,2.564,2.564,0,0,0,1.014.713c.8.212,1.515-.48,2.147-1.012,3.429-2.891,8.713-2.022,12.648.134a3.355,3.355,0,0,0,2.34.643,3.883,3.883,0,0,0,1.386-.906c3.351-2.749,8.39-2.238,12.311-.39a2.285,2.285,0,0,0,1.195.325A2.62,2.62,0,0,0,503,688.9a6.456,6.456,0,0,1,6.79-.842,13.754,13.754,0,0,0,1.85.9c1.873.572,3.775-.591,5.644-1.181A9.694,9.694,0,0,1,520.449,687.34Z" transform="translate(-402.177 -563.436)" opacity="0.1"/>
      <path id="Path_188" data-name="Path 188" d="M513.747,697.231q-9.854.5-19.709,1c-5.533.282-11.071.563-16.609.456-4.681-.092-9.351-.461-14.03-.607-9.838-.306-19.7.381-29.515-.407-3.14-.252-6.27-.654-9.416-.833a70.051,70.051,0,0,0-10.617.224,11.039,11.039,0,0,1-2.647.3c-.788-.16-.487-.251-.229-1a6.561,6.561,0,0,0,.195-.676,20.146,20.146,0,0,0,.344-2.782,4.66,4.66,0,0,1,1.294-3.365,4.293,4.293,0,0,1,2.9-.748,11.36,11.36,0,0,1,4.481,1.083,13.49,13.49,0,0,0,3.333,1.433c3.113.537,5.816-2.4,8.967-2.638,2.537-.188,4.816,1.386,6.993,2.7a2.156,2.156,0,0,0,1.367.435,2.524,2.524,0,0,0,1.064-.577,8.6,8.6,0,0,1,10.65.628,2.566,2.566,0,0,0,1.014.713c.8.212,1.515-.48,2.147-1.012,3.429-2.892,8.713-2.022,12.648.134a3.355,3.355,0,0,0,2.34.643,3.882,3.882,0,0,0,1.386-.906c3.351-2.749,8.39-2.238,12.311-.389a2.287,2.287,0,0,0,1.195.325,2.622,2.622,0,0,0,1.266-.765,6.456,6.456,0,0,1,6.79-.841,13.762,13.762,0,0,0,1.85.9c1.873.572,3.775-.591,5.644-1.181a9.772,9.772,0,0,1,12.206,6.207A9.318,9.318,0,0,1,513.747,697.231Z" transform="translate(-386.043 -564.798)" fill="#f8f8fa"/>
      <path id="Path_189" data-name="Path 189" d="M513.747,724.763q-9.854.5-19.709,1c-5.533.282-11.071.563-16.609.456-4.681-.092-9.351-.461-14.03-.607-9.838-.306-19.7.381-29.515-.407-3.14-.252-6.27-.654-9.416-.833a70.059,70.059,0,0,0-10.617.224,11.033,11.033,0,0,1-2.647.3c-.788-.16-.487-.25-.229-1a6.574,6.574,0,0,0,.195-.676h102.19a9.32,9.32,0,0,1,.388,1.535Z" transform="translate(-386.043 -592.33)" opacity="0.1"/>
      <path id="Path_190" data-name="Path 190" d="M325.913,683.152H432.179a3.465,3.465,0,0,1,3.465,3.465v.447h-113.2v-.447A3.465,3.465,0,0,1,325.913,683.152Z" transform="translate(-303.325 -552.08)" fill="#d4d5e0"/>
      <rect id="Rectangle_7" data-name="Rectangle 7" width="0.638" height="1.761" rx="0.319" transform="translate(48.399 39.842) rotate(16.713)" fill="#e53935"/>
      <rect id="Rectangle_8" data-name="Rectangle 8" width="0.638" height="1.761" rx="0.319" transform="translate(39.13 65.366) rotate(16.713)" fill="#e53935"/>
      <rect id="Rectangle_9" data-name="Rectangle 9" width="0.638" height="1.761" rx="0.319" transform="translate(29.203 94.922) rotate(16.713)" fill="#e53935"/>
      <rect id="Rectangle_10" data-name="Rectangle 10" width="0.638" height="1.761" rx="0.319" transform="translate(54.025 96.885) rotate(16.713)" fill="#e53935"/>
      <rect id="Rectangle_11" data-name="Rectangle 11" width="0.638" height="1.761" rx="0.319" transform="translate(68.764 95.779) rotate(16.713)" fill="#e53935"/>
      <rect id="Rectangle_12" data-name="Rectangle 12" width="0.638" height="1.761" rx="0.319" transform="translate(89.539 98.021) rotate(16.713)" fill="#e53935"/>
      <rect id="Rectangle_13" data-name="Rectangle 13" width="0.638" height="1.761" rx="0.319" transform="translate(103.749 94.744) rotate(16.713)" fill="#e53935"/>
      <rect id="Rectangle_14" data-name="Rectangle 14" width="0.638" height="1.761" rx="0.319" transform="translate(41.343 96.143) rotate(16.713)" fill="#e53935"/>
      <rect id="Rectangle_15" data-name="Rectangle 15" width="0.638" height="1.761" rx="0.319" transform="translate(71.468 99.12) rotate(16.713)" fill="#e53935"/>
      <rect id="Rectangle_16" data-name="Rectangle 16" width="0.638" height="1.761" rx="0.319" transform="translate(83.899 95.779) rotate(16.713)" fill="#e53935"/>
      <rect id="Rectangle_17" data-name="Rectangle 17" width="0.638" height="1.761" rx="0.319" transform="translate(110.153 94.744) rotate(16.713)" fill="#e53935"/>
      <rect id="Rectangle_18" data-name="Rectangle 18" width="0.638" height="1.761" rx="0.319" transform="matrix(0.592, -0.806, 0.806, 0.592, 80.141, 40.161)" fill="#e53935"/>
      <rect id="Rectangle_19" data-name="Rectangle 19" width="0.638" height="1.761" rx="0.319" transform="matrix(0.592, -0.806, 0.806, 0.592, 72.4, 39.583)" fill="#e53935"/>
      <rect id="Rectangle_20" data-name="Rectangle 20" width="0.638" height="1.761" rx="0.319" transform="matrix(0.592, -0.806, 0.806, 0.592, 59.831, 39.583)" fill="#e53935"/>
      <rect id="Rectangle_21" data-name="Rectangle 21" width="0.638" height="1.761" rx="0.319" transform="matrix(0.592, -0.806, 0.806, 0.592, 43.087, 65.18)" fill="#e53935"/>
      <rect id="Rectangle_22" data-name="Rectangle 22" width="0.638" height="1.761" rx="0.319" transform="matrix(0.592, -0.806, 0.806, 0.592, 44.042, 67.766)" fill="#e53935"/>
      <rect id="Rectangle_23" data-name="Rectangle 23" width="0.638" height="1.761" rx="0.319" transform="matrix(0.592, -0.806, 0.806, 0.592, 64.704, 65.385)" fill="#e53935"/>
      <rect id="Rectangle_24" data-name="Rectangle 24" width="0.638" height="1.761" rx="0.319" transform="matrix(0.592, -0.806, 0.806, 0.592, 56.508, 99.04)" fill="#e53935"/>
      <rect id="Rectangle_25" data-name="Rectangle 25" width="0.638" height="1.761" rx="0.319" transform="matrix(0.592, -0.806, 0.806, 0.592, 87.082, 66.718)" fill="#e53935"/>
      <rect id="Rectangle_26" data-name="Rectangle 26" width="0.638" height="1.761" rx="0.319" transform="matrix(0.592, -0.806, 0.806, 0.592, 96.286, 67.94)" fill="#e53935"/>
      <rect id="Rectangle_27" data-name="Rectangle 27" width="0.638" height="1.761" rx="0.319" transform="matrix(0.592, -0.806, 0.806, 0.592, 93.501, 95.415)" fill="#e53935"/>
      <rect id="Rectangle_28" data-name="Rectangle 28" width="0.638" height="1.761" rx="0.319" transform="matrix(0.592, -0.806, 0.806, 0.592, 112.469, 98.685)" fill="#e53935"/>
      <rect id="Rectangle_29" data-name="Rectangle 29" width="0.638" height="1.761" rx="0.319" transform="matrix(0.592, -0.806, 0.806, 0.592, 48.136, 96.813)" fill="#e53935"/>
      <rect id="Rectangle_30" data-name="Rectangle 30" width="0.638" height="1.761" rx="0.319" transform="matrix(0.592, -0.806, 0.806, 0.592, 34.325, 95.592)" fill="#e53935"/>
      <rect id="Rectangle_31" data-name="Rectangle 31" width="0.638" height="1.761" rx="0.319" transform="matrix(0.592, -0.806, 0.806, 0.592, 61.733, 97.729)" fill="#e53935"/>
      <rect id="Rectangle_32" data-name="Rectangle 32" width="0.638" height="1.761" rx="0.319" transform="matrix(0.592, -0.806, 0.806, 0.592, 76.521, 96.813)" fill="#e53935"/>
      <rect id="Rectangle_33" data-name="Rectangle 33" width="0.638" height="1.761" rx="0.319" transform="matrix(0.578, 0.816, -0.816, 0.578, 96.599, 40.441)" fill="#e53935"/>
      <rect id="Rectangle_34" data-name="Rectangle 34" width="0.638" height="1.761" rx="0.319" transform="matrix(0.578, 0.816, -0.816, 0.578, 80.289, 42.84)" fill="#e53935"/>
      <rect id="Rectangle_35" data-name="Rectangle 35" width="0.638" height="1.761" rx="0.319" transform="matrix(0.578, 0.816, -0.816, 0.578, 53.314, 66.459)" fill="#e53935"/>
      <rect id="Rectangle_36" data-name="Rectangle 36" width="0.638" height="1.761" rx="0.319" transform="matrix(0.578, 0.816, -0.816, 0.578, 61.47, 67.261)" fill="#e53935"/>
      <rect id="Rectangle_37" data-name="Rectangle 37" width="0.638" height="1.761" rx="0.319" transform="matrix(0.578, 0.816, -0.816, 0.578, 77.236, 67.261)" fill="#e53935"/>
      <rect id="Rectangle_38" data-name="Rectangle 38" width="0.638" height="1.761" rx="0.319" transform="matrix(0.578, 0.816, -0.816, 0.578, 82.165, 65.589)" fill="#e53935"/>
      <rect id="Rectangle_39" data-name="Rectangle 39" width="0.638" height="1.761" rx="0.319" transform="matrix(0.578, 0.816, -0.816, 0.578, 93.831, 66.214)" fill="#e53935"/>
      <rect id="Rectangle_40" data-name="Rectangle 40" width="0.638" height="1.761" rx="0.319" transform="matrix(0.578, 0.816, -0.816, 0.578, 102.343, 64.881)" fill="#e53935"/>
      <rect id="Rectangle_41" data-name="Rectangle 41" width="0.638" height="1.761" rx="0.319" transform="matrix(0.578, 0.816, -0.816, 0.578, 113.9, 65.589)" fill="#e53935"/>
      <rect id="Rectangle_42" data-name="Rectangle 42" width="0.638" height="1.761" rx="0.319" transform="translate(77.848 38.548) rotate(16.713)" fill="#e53935"/>
      <rect id="Rectangle_43" data-name="Rectangle 43" width="0.638" height="1.761" rx="0.319" transform="translate(87.407 38.123) rotate(16.713)" fill="#e53935"/>
      <rect id="Rectangle_44" data-name="Rectangle 44" width="0.638" height="1.761" rx="0.319" transform="translate(74.284 41.988) rotate(16.713)" fill="#e53935"/>
      <rect id="Rectangle_45" data-name="Rectangle 45" width="0.638" height="1.761" rx="0.319" transform="translate(55.587 42.674) rotate(16.713)" fill="#e53935"/>
      <rect id="Rectangle_46" data-name="Rectangle 46" width="0.638" height="1.761" rx="0.319" transform="translate(88.874 41.131) rotate(16.713)" fill="#e53935"/>
      <rect id="Rectangle_47" data-name="Rectangle 47" width="0.638" height="1.761" rx="0.319" transform="translate(54.025 38.548) rotate(16.713)" fill="#e53935"/>
      <rect id="Rectangle_48" data-name="Rectangle 48" width="0.638" height="1.761" rx="0.319" transform="translate(63.846 40.274) rotate(16.713)" fill="#e53935"/>
      <rect id="Rectangle_49" data-name="Rectangle 49" width="0.638" height="1.761" rx="0.319" transform="translate(57.847 65.366) rotate(16.713)" fill="#e53935"/>
      <rect id="Rectangle_50" data-name="Rectangle 50" width="0.638" height="1.761" rx="0.319" transform="translate(72.52 65.366) rotate(16.713)" fill="#e53935"/>
      <rect id="Rectangle_51" data-name="Rectangle 51" width="0.638" height="1.761" rx="0.319" transform="translate(106.588 66.048) rotate(16.713)" fill="#e53935"/>
      <rect id="Rectangle_52" data-name="Rectangle 52" width="0.638" height="1.761" rx="0.319" transform="translate(110.153 66.048) rotate(16.713)" fill="#e53935"/>
      <rect id="Rectangle_53" data-name="Rectangle 53" width="0.638" height="1.761" rx="0.319" transform="translate(67.767 42.674) rotate(16.713)" fill="#e53935"/>
      <path id="Path_191" data-name="Path 191" d="M564.968,455.674l-2.589,5.506a4.707,4.707,0,0,1-.628,1.225,28.819,28.819,0,0,0-1.334,3.461l-2.779,4.283v0l-.19.292-1.09-.3-.763-2.855.046-.828.007-.1a17.119,17.119,0,0,1,2.1-1.933s.3.035.872-1.358,1.09-1.694,1.09-1.694l.3-1.009,3.217-5.122s2.7-3.867,3.431-2.151S564.968,455.674,564.968,455.674Z" transform="translate(-501.465 -376.796)" fill="#ffd2c6"/>
      <path id="Path_192" data-name="Path 192" d="M423.14,492.555a3.765,3.765,0,0,0-.3.92c-.017.081-.035.166-.055.253-.179.917-.3,2.073-.362,2.742-.031.338-.046.554-.046.554s-6.5-.436-5.377-1.526a2.408,2.408,0,0,0,.6-1.081q.049-.173.085-.353a6.016,6.016,0,0,0,.1-.824c0-.07.007-.139.009-.209a8.646,8.646,0,0,0-.065-1.347s2.116-.013,3.71.17C422.508,491.977,423.345,492.188,423.14,492.555Z" transform="translate(-390.96 -407.889)" fill="#d38884"/>
      <path id="Path_193" data-name="Path 193" d="M519.9,653.533a.6.6,0,0,1-.087.264c-.3.436-1.988,9.344-1.988,9.344a5.041,5.041,0,0,1-.49,2.345,34.212,34.212,0,0,0-.791,3.379s-.135,6.1-.488,7.055a7.327,7.327,0,0,0,.113,3,4.58,4.58,0,0,0,.865,2.439c.024.033.046.066.065.094.109.157.181.246.181.246a1.456,1.456,0,0,0,.382.471c.024.02.05.039.076.059a4.369,4.369,0,0,0,1.528.645l.052.011c.218.048.36.068.36.068l.135.737-1.443.3-2.751.19s-3.243.247-2.507-1.2a2.522,2.522,0,0,0,.133-.3h0c.026-.07.052-.142.074-.216a7.485,7.485,0,0,0,.144-3.075l-.628-4.93c-1.033-4.577.815-9.673.815-9.673a2.366,2.366,0,0,1,.194-1.443,9.7,9.7,0,0,0,0-3.3s-.19-2.916-.436-4.359a8.773,8.773,0,0,1-.1-1.835,9.258,9.258,0,0,1,.1-1.075l6.212-.824A4.753,4.753,0,0,1,519.9,653.533Z" transform="translate(-467.157 -535.548)" fill="#ffd2c6"/>
      <path id="Path_194" data-name="Path 194" d="M521.692,798.361l-1.443.3-2.751.19s-3.243.246-2.507-1.2a2.546,2.546,0,0,0,.133-.305h0c.026-.07.052-.142.074-.216a5.031,5.031,0,0,1,1.643.331,1.511,1.511,0,0,0,1.619-.573l.449-.856.065-.124c.109.157.181.246.181.246a1.47,1.47,0,0,0,.458.53l-.076.159-.436.918s.558.057,1.321.179a.592.592,0,0,0,.719-.392l.052.011c.218.048.36.067.36.067Z" transform="translate(-469.035 -650.224)" opacity="0.1"/>
      <path id="Path_195" data-name="Path 195" d="M522.109,799.9c-.109.49-3.147.641-3.147.641s-1.689-.164-2.164.231-1.868.3-1.922.3-.789-.028-1.077-1.347c-.279-1.286.375-1.51.408-1.521h0a4.933,4.933,0,0,1,1.718.333,1.512,1.512,0,0,0,1.62-.573l.514-.981c.109.157.181.246.181.246a1.47,1.47,0,0,0,.458.53l-.512,1.077s.558.057,1.321.179a.632.632,0,0,0,.772-.6.675.675,0,0,0,.007-.083s.475.137,1.062.3A1.1,1.1,0,0,1,522.109,799.9Z" transform="translate(-468.115 -651.077)" fill="#626696"/>
      <path id="Path_196" data-name="Path 196" d="M556.431,657.291c-.072.436-.146,1.563-.146,1.563a8.945,8.945,0,0,1-.4,3.186l-.327,1.282a25.867,25.867,0,0,1-.9,5.63s-.7,3.705-1.064,5.305a4.4,4.4,0,0,0,.19,2.672c.018.044.028.065.028.065.007.031.013.059.022.089a1.254,1.254,0,0,0,.039.129,1.934,1.934,0,0,0,.357.608,1.721,1.721,0,0,0,.2.2s.006.009.011.011a3.922,3.922,0,0,0,1.157.713h0l0,0q.095.039.183.072a5.171,5.171,0,0,0,.578.181h0c.041.011.065.015.065.015l-.146.857-1.925-.493-2.578-.837-1.269-.726s.013-.07.039-.2c0-.006,0-.015,0-.022.011-.057.022-.124.037-.2a27.353,27.353,0,0,0,.445-6.587c-.307-2.868.887-6.829,1.179-7.773a4.706,4.706,0,0,0,.218-1.672c-.473-.691-.582-3.45-.582-3.45s-.872-1.781-1.593-3.671a9.622,9.622,0,0,1-.519-1.909,6.655,6.655,0,0,1-.1-1.4s5.85-5.34,6.493-.17c.022.174.042.342.061.506C556.758,656,556.5,656.87,556.431,657.291Z" transform="translate(-496.717 -532.813)" fill="#ffd2c6"/>
      <path id="Path_197" data-name="Path 197" d="M559.874,790.546l-.146.856-1.925-.492-2.578-.837-1.268-.726s.013-.07.039-.2c0-.007,0-.015,0-.022.011-.057.022-.124.037-.2l.181-.017.015,0a2.394,2.394,0,0,1,1.079.146c.421.157.97.338,1.083.261a1.365,1.365,0,0,1,.617-.109l.268-.586.039-.089a1.943,1.943,0,0,0,.357.608,1.9,1.9,0,0,0,.207.211l-.011.207-.015.294a3.8,3.8,0,0,0,.926.427.538.538,0,0,0,.257,0h0l0,0q.095.039.183.072a5.18,5.18,0,0,0,.577.181h0C559.85,790.541,559.874,790.546,559.874,790.546Z" transform="translate(-500.159 -644.344)" opacity="0.1"/>
      <path id="Path_198" data-name="Path 198" d="M558.1,793.225c-.536-.155-1.833-.4-2.042-.209a6.991,6.991,0,0,1-2.007,0,1.092,1.092,0,0,1-.926-.545,5.565,5.565,0,0,1-.072-2.461l.133-.013.222-.022.015,0a2.4,2.4,0,0,1,1.079.146c.421.157.97.338,1.083.262a1.365,1.365,0,0,1,.617-.109l.308-.676a1.935,1.935,0,0,0,.357.608,1.888,1.888,0,0,0,.207.212l-.026.5a3.793,3.793,0,0,0,.926.427.374.374,0,0,0,.445-.142.347.347,0,0,0,.033-.074l0,0a3.167,3.167,0,0,0,.761.253h0a1.39,1.39,0,0,1,1.482,1.068C560.966,793.289,558.631,793.378,558.1,793.225Z" transform="translate(-499.344 -645.197)" fill="#626696"/>
      <path id="Path_199" data-name="Path 199" d="M522.991,653.532c-.12.035-.229.067-.331.1a4.857,4.857,0,0,1-.8.17,33.5,33.5,0,0,1-5.453.039,9.3,9.3,0,0,1,.1-1.074l6.212-.824A4.752,4.752,0,0,1,522.991,653.532Z" transform="translate(-470.246 -535.547)" opacity="0.1"/>
      <path id="Path_200" data-name="Path 200" d="M526.278,618.851s-2.28.353-4.135.759c-.619.135-1.192.277-1.615.414a4.825,4.825,0,0,1-.8.17,36.132,36.132,0,0,1-5.737.022c-1.007-3.269,1.225-7.384,1.225-7.384a4.164,4.164,0,0,1,.464-1.334l.009-.033.318-1.166h8.472l.1.5.216,1.02,1.329,6.316Z" transform="translate(-468.115 -502.374)" fill="#626696"/>
      <path id="Path_201" data-name="Path 201" d="M556.192,651.271l-.05.022-.992.44c-1.073.495-4.285.589-5.408.6a6.647,6.647,0,0,1-.1-1.4s5.85-5.34,6.493-.17C556.153,650.94,556.172,651.108,556.192,651.271Z" transform="translate(-496.717 -532.813)" opacity="0.1"/>
      <path id="Path_202" data-name="Path 202" d="M535.665,620.326l-.207.092-.992.44c-1.092.5-4.407.593-5.469.6-.129,0-.224,0-.279,0a1.275,1.275,0,0,1-.981-.6c0-.065-.05-.388-.094-.665-.037-.222-.07-.414-.07-.414a25.916,25.916,0,0,1-3.3-1.707c-.833-.567-.624-4.592-.462-6.617.057-.7.107-1.157.107-1.157l8.577.5,1.2.07.689.153.183.039a28.311,28.311,0,0,0,.737,3.895c.244.3.083,1.308.054,1.881a3.539,3.539,0,0,1-.081.734,4.522,4.522,0,0,1,.27,1.574A3.137,3.137,0,0,0,535.665,620.326Z" transform="translate(-476.033 -502.374)" fill="#626696"/>
      <path id="Path_203" data-name="Path 203" d="M385.509,568.31c-2.217-.074-.582-4.686-.327-5.31s-.379-2.138-.379-2.138-.748-4.4-.748-4.686a11.673,11.673,0,0,0-.253-1.781,2.969,2.969,0,0,1,.29-1.744,6.275,6.275,0,0,0,.218-2v-2.071l.493-.654,1.264,1.194.351.331.617,2.315-.218,3.315-.109,3.232.763,4.468S387.726,568.382,385.509,568.31Z" transform="translate(-364.591 -452.695)" fill="#d38884"/>
      <path id="Path_204" data-name="Path 204" d="M327.268,508.745l-1.89-.783v-.307l.493-.654,1.264,1.195Z" transform="translate(-305.659 -411.764)" opacity="0.1"/>
      <path id="Path_205" data-name="Path 205" d="M387.46,533.286a8.783,8.783,0,0,0-.524,1.853,8.285,8.285,0,0,1-.493,1.78l2.107.872Z" transform="translate(-366.724 -441.029)" fill="#4c4981"/>
      <path id="Path_206" data-name="Path 206" d="M387.46,533.286a8.783,8.783,0,0,0-.524,1.853,8.285,8.285,0,0,1-.493,1.78l2.107.872Z" transform="translate(-366.724 -441.029)" opacity="0.05"/>
      <path id="Path_207" data-name="Path 207" d="M445.436,699.922l-.174.371s-.19,1.234-.19,1.262-.545.852-.545.852l-1.371.292-.582-.07a7.748,7.748,0,0,0-.155-1.007c-.022-.094-.044-.19-.07-.288a7.6,7.6,0,0,0-.957-2.169,17.806,17.806,0,0,0-1.38-2.833c-.364-.327-1.744-3.633-1.6-4.431a23.2,23.2,0,0,0-.057-3.132c-.059-1-.124-1.837-.124-1.837l3.45-2.042.4.634a.008.008,0,0,0,0,.007l.24.377s0,.072-.013.192c0,.013,0,.028,0,.044a6.255,6.255,0,0,1-.307,1.508s-.259,1.853,0,2.18a39.355,39.355,0,0,1,1.262,6.718c.007.063.011.124.015.183a4.064,4.064,0,0,0,1.225,2.363l.007.006c.037.039.076.079.115.118A8.156,8.156,0,0,0,445.436,699.922Z" transform="translate(-407.98 -561.79)" fill="#d38884"/>
      <path id="Path_208" data-name="Path 208" d="M458.687,757.88l.582.07,1.371-.292s.545-.826.545-.852.19-1.262.19-1.262l.174-.37.022-.046a7.605,7.605,0,0,1-.944-.776l-.007-.007c-.033-.03-.063-.061-.1-.094a1.7,1.7,0,0,1-.848,1.737c-.506.259-.922.46-1.214.6Z" transform="translate(-424.092 -617.042)" opacity="0.1"/>
      <path id="Path_209" data-name="Path 209" d="M462.062,756.2l-.2.416s-.19,1.234-.19,1.262-.545.852-.545.852l-1.371.292-.787-.094c-.009-.159-.026-.384-.068-.656-.024-.166-.057-.349-.1-.545.292-.135.763-.36,1.362-.667a1.7,1.7,0,0,0,.848-1.737,8.068,8.068,0,0,0,.717.636C461.877,756.07,461.992,756.151,462.062,756.2Z" transform="translate(-424.365 -617.896)" fill="#ceddf9"/>
      <path id="Path_210" data-name="Path 210" d="M462.454,758.691l-.2.416s-.19,1.233-.19,1.262-.545.852-.545.852l-1.371.292-.787-.094c-.009-.159-.026-.384-.068-.656a2.636,2.636,0,0,1,.5.068s1.872.4,1.962-1.081c.052-.841.227-1.171.366-1.3C462.269,758.562,462.384,758.643,462.454,758.691Z" transform="translate(-424.758 -620.388)" opacity="0.1"/>
      <path id="Path_211" data-name="Path 211" d="M460.646,755.069s-.467-.1-.557,1.376-1.962,1.081-1.962,1.081-.917-.227-.926.154a3.563,3.563,0,0,0,.245,1.026,3.212,3.212,0,0,0,.227,1.09c.172.209.064.99.064.99s.073.581,1.517,0a4.2,4.2,0,0,0,2.361-1.871c.036-.055-.127-.218.808-.554s3.615-2.488,3.406-3.542a.891.891,0,0,0-.634-.755,1.092,1.092,0,0,0-.838.112,7.021,7.021,0,0,1-.781.361,3.807,3.807,0,0,1-1.116.266,4.182,4.182,0,0,0-.866.167A1.832,1.832,0,0,1,460.646,755.069Z" transform="translate(-423.086 -616.864)" fill="#cc8294"/>
      <path id="Path_212" data-name="Path 212" d="M384.14,703.372a2.556,2.556,0,0,0-.525.606c-.53.806-.846,1.933-1.205,2.419a4.661,4.661,0,0,0-.586,1.853,39.558,39.558,0,0,1-2.289,5.859,19.107,19.107,0,0,0-1.1,2.833,2.238,2.238,0,0,0-.329,1.572c.009.061.015.109.02.142s.011.057.011.057l-.011.02-.63,1.07-2-.277-1.035-.7a3.368,3.368,0,0,0,.224-.427,19.087,19.087,0,0,0,.948-3.442,23.7,23.7,0,0,0,.517-3.106,23.582,23.582,0,0,1,.163-2.4s1.567-4.821,2.06-5.612a2.248,2.248,0,0,0,.379-1.035.823.823,0,0,0-.011-.224l.678-.674S385.012,702.678,384.14,703.372Z" transform="translate(-357.174 -575.343)" fill="#d38884"/>
      <path id="Path_213" data-name="Path 213" d="M378.133,782.944s-.007.061-.011.161v.076l-.63,1.07-2-.277-1.035-.7a3.352,3.352,0,0,0,.224-.427,4.093,4.093,0,0,1,1.656.264s1.245.238,1.768-.144A.119.119,0,0,0,378.133,782.944Z" transform="translate(-357.173 -639.793)" opacity="0.1"/>
      <path id="Path_214" data-name="Path 214" d="M374.87,786.656l-2.031.493-1.866-1.377.1-.776a1.42,1.42,0,0,0,.342-.312,1.241,1.241,0,0,0,.27-.56c.109-.571,1.881.055,1.881.055s1.295.246,1.8-.163a3.175,3.175,0,0,0,.1,1.12.841.841,0,0,0,.3.447C376.273,785.934,374.87,786.656,374.87,786.656Z" transform="translate(-354.4 -640.645)" fill="#ceddf9"/>
      <path id="Path_215" data-name="Path 215" d="M374.87,789.787l-2.031.493-1.866-1.378.1-.776a1.427,1.427,0,0,0,.342-.312c.135,0,.283,0,.408.011.314.028,1.048,1.364,1.048,1.364,1.844.122,2.393-.48,2.589-.924a.843.843,0,0,0,.3.447C376.273,789.066,374.87,789.787,374.87,789.787Z" transform="translate(-354.4 -643.777)" opacity="0.1"/>
      <path id="Path_216" data-name="Path 216" d="M365.828,790.264s-.736-1.335-1.049-1.362a7.019,7.019,0,0,0-.79,0,10.388,10.388,0,0,1-1.117,2.111,3.767,3.767,0,0,0-.736,1.09s2.158,2.084,4.246,1.689a4.313,4.313,0,0,1,1.911.477c.967.5,5,.123,5.49-.763.368-.664.513-1.147.19-1.5a.869.869,0,0,0-.758-.257,2.862,2.862,0,0,1-2.646-1.17,23.651,23.651,0,0,0-1.989-1.687C368.43,788.888,368.7,790.454,365.828,790.264Z" transform="translate(-347.362 -644.634)" fill="#cc8294"/>
      <path id="Path_217" data-name="Path 217" d="M442.328,686.125a.131.131,0,0,1-.015.018,6.9,6.9,0,0,1-1.282,1.181,12.652,12.652,0,0,0-1.308.58s-.545.728-.981.763a1.7,1.7,0,0,0-.384.1c-.059-1-.124-1.837-.124-1.837l3.45-2.042.4.634a.009.009,0,0,0,0,.007c.092.257.194.493.227.569Z" transform="translate(-407.98 -561.791)" opacity="0.1"/>
      <path id="Path_218" data-name="Path 218" d="M394.283,619.325a3.719,3.719,0,0,0,0,4.075,13.653,13.653,0,0,0,2.761,3.487l4.577,9.481a7.5,7.5,0,0,1,1.635-.69c.436-.036.981-.763.981-.763a12.9,12.9,0,0,1,1.308-.581,7.172,7.172,0,0,0,1.3-1.2s-.5-1.09-.389-1.38-.327-1.017-.327-1.017a6.02,6.02,0,0,1-.291-1.126,3.054,3.054,0,0,0-.472-.981,3.084,3.084,0,0,1-.472-1.126,10.7,10.7,0,0,0-.69-1.962l-.182-6.9Z" transform="translate(-372.493 -509.019)" fill="#ceddf9"/>
      <path id="Path_219" data-name="Path 219" d="M406.858,633.138a7.242,7.242,0,0,1-1.3,1.2,12.706,12.706,0,0,0-1.308.58s-.545.728-.981.763a3.506,3.506,0,0,0-.894.32c-.39.179-.741.37-.741.37l-4.577-9.481a9.969,9.969,0,0,1-1.112-1.14,15.639,15.639,0,0,1-1.65-2.347,3.93,3.93,0,0,1-.521-2.827,3.269,3.269,0,0,1,.521-1.246l3.256-.229,6.48-.456.055,2.04.126,4.86s.107.244.238.565a6.183,6.183,0,0,1,.453,1.4,3.083,3.083,0,0,0,.471,1.127,3.061,3.061,0,0,1,.473.981,6.059,6.059,0,0,0,.29,1.127s.436.726.327,1.016S406.858,633.138,406.858,633.138Z" transform="translate(-372.509 -509.022)" opacity="0.05"/>
      <path id="Path_220" data-name="Path 220" d="M400.9,703.372a2.56,2.56,0,0,0-.525.606,11.061,11.061,0,0,1-4.869-1.177.822.822,0,0,0-.011-.225l.678-.674S401.774,702.679,400.9,703.372Z" transform="translate(-373.935 -575.343)" opacity="0.1"/>
      <path id="Path_221" data-name="Path 221" d="M406.2,618.773s-.29,1.016-.4,1.452-.327,2.581-.327,2.581l-.126.6-2.075,9.891-.451,2.151c-.8.436-2.8-.728-2.8-.728a11.125,11.125,0,0,1-5.2-1.234,7.472,7.472,0,0,0,.364-2.289,1.748,1.748,0,0,1,.654-1.382,17.209,17.209,0,0,1,.471-3.705s.146-1.125.691-1.417-.072-.726-.218-.981a1.119,1.119,0,0,1,.052-.667,5.184,5.184,0,0,1,.166-.495,6.879,6.879,0,0,1-1.6-4.752,7.876,7.876,0,0,1,.039-.878l3-.525L405,615.248l.667,2.057v0l.168.516Z" transform="translate(-373.406 -506.317)" fill="#ceddf9"/>
      <path id="Path_222" data-name="Path 222" d="M426.5,492.555a3.763,3.763,0,0,0-.3.92c-.018.081-.035.166-.055.253a2.76,2.76,0,0,1-1.832.413c-.279,0-.434-.533-.7-.588,0,0-.4-1.426-.509-.224-.761-.157-1.417.438-1.956-.081l-.009-.009c0-.07.007-.139.009-.209a8.646,8.646,0,0,0-.065-1.347s2.116-.013,3.71.17C425.864,491.977,426.7,492.188,426.5,492.555Z" transform="translate(-394.316 -407.889)" opacity="0.1"/>
      <path id="Path_223" data-name="Path 223" d="M423.371,468.105a4.048,4.048,0,0,1-4.863,3.965s0,0,0,0a4.047,4.047,0,1,1,4.865-3.965Z" transform="translate(-389.692 -385.885)" fill="#d38884"/>
      <path id="Path_224" data-name="Path 224" d="M422.423,507.172c-.031.338-.046.554-.046.554s-6.5-.436-5.377-1.526a2.407,2.407,0,0,0,.595-1.081l2.82.462s.8.619,1.417,1.2A2.493,2.493,0,0,0,422.423,507.172Z" transform="translate(-390.96 -418.592)" opacity="0.1"/>
      <path id="Path_225" data-name="Path 225" d="M405.225,618.044a2.107,2.107,0,0,1-.852-.065,1.562,1.562,0,0,1-.346-.153c-.545-.327-2.361.074-2.361.074s-4.941.327-5.159,0c-.124-.187-.994-.159-1.709-.1-.29.024-.556.052-.737.072a3.273,3.273,0,0,1,.521-1.247l3.256-.229,6.552-1.146.667,2.058v0C405.133,617.73,405.225,618.044,405.225,618.044Z" transform="translate(-372.792 -506.317)" opacity="0.1"/>
      <path id="Path_226" data-name="Path 226" d="M398.109,506.189l-3.546-.581a1.052,1.052,0,0,1-.668.581,8.694,8.694,0,0,0-3.524,2.507L389.427,510s-.763.944-.509,1.707a28.911,28.911,0,0,1,.545,3.342l.363,2.87a8.166,8.166,0,0,1,.472,2.979,30.548,30.548,0,0,0,.109,4.723l-.727,4.722s2.47-.327,2.688,0,5.158,0,5.158,0,1.816-.4,2.361-.073a1.966,1.966,0,0,0,1.2.218,5.368,5.368,0,0,1-.182-2.325,9.19,9.19,0,0,0,.182-2.361,10.878,10.878,0,0,0,.182-2.616c-.182-.4.4-1.853.4-1.853l1.925-10.135s-.233-1.816-1.261-2.434-2.19-.8-2.808-1.38S398.109,506.189,398.109,506.189Z" transform="translate(-368.654 -418.982)" fill="#4c4981"/>
      <path id="Path_227" data-name="Path 227" d="M442.335,554.3v1.2l1.121,3.015.4,2.8a13.929,13.929,0,0,1,.726,2.688c0,.69,1.78,4.032,1.78,4.032s.485,1.126.243,1.344-2.35,5.013.3,4.868,1.816-5.158,1.816-5.158l-.363-2.18s-.509-5.449-.509-5.849c0,0-.654-2.325-.727-2.833s-.545-3.088-.545-3.088l-.4-1.671Z" transform="translate(-411.245 -457.102)" fill="#d38884"/>
      <path id="Path_228" data-name="Path 228" d="M354.8,535.211l-3.951,2.261-1.226,1.853,1.635-1.662Z" transform="translate(-324.968 -434.236)" opacity="0.1"/>
      <path id="Path_229" data-name="Path 229" d="M408.9,597.436a7.882,7.882,0,0,1-2.643,1.172c-.845,0-2.806,2.016-2.806,2.016a25.808,25.808,0,0,1,3-1.742A17.3,17.3,0,0,0,408.9,597.436Z" transform="translate(-380.273 -492.129)" opacity="0.1"/>
      <path id="Path_230" data-name="Path 230" d="M402.414,600.516s-1.689,1.526-1.253,1.689,2.7-1.689,2.7-1.689Z" transform="translate(-378.39 -494.582)" opacity="0.1"/>
      <path id="Path_231" data-name="Path 231" d="M440.327,573.731s-1.308,1.771-.954,1.744,1.362-1.035,1.362-1.035Z" transform="translate(-408.838 -473.246)" opacity="0.1"/>
      <path id="Path_232" data-name="Path 232" d="M439.9,582.3s-1.417,1.607-1.362,2.016S439.9,582.3,439.9,582.3Z" transform="translate(-408.216 -480.075)" opacity="0.1"/>
      <path id="Path_233" data-name="Path 233" d="M444.445,586.253s-.954,1.7-.545,2.057S444.445,586.253,444.445,586.253Z" transform="translate(-412.411 -483.221)" opacity="0.1"/>
      <path id="Path_234" data-name="Path 234" d="M439.463,564.758s-.708,1.2-.191,1.281.569,0,.569,0Z" transform="translate(-408.655 -466.098)" opacity="0.1"/>
      <path id="Path_235" data-name="Path 235" d="M437.937,543.2a12.555,12.555,0,0,1-.726,2.138,9.816,9.816,0,0,1-.283-1.072A7.453,7.453,0,0,1,437.937,543.2Z" transform="translate(-406.938 -448.923)" opacity="0.1"/>
      <path id="Path_236" data-name="Path 236" d="M422.852,466.118a1.768,1.768,0,0,1-.275.423,3.179,3.179,0,0,0-.493.564,3.069,3.069,0,0,0-.177.963c-.052.323-.257.682-.584.693a1.284,1.284,0,0,1-.48-.144.482.482,0,0,0-.477.015.528.528,0,0,0-.153.36,4.827,4.827,0,0,0-.048.85c0,.113.009.224.02.338a1.909,1.909,0,0,1-.065,1.081,1.3,1.3,0,0,1-.671.538,3.968,3.968,0,0,1-.942.264s0,0,0,0a10.342,10.342,0,0,1-1.857.061.472.472,0,0,1-.166-.026.249.249,0,0,1-.072-.046,6.12,6.12,0,0,0,.111-1.033,4.047,4.047,0,1,1,6.33-4.9Z" transform="translate(-389.691 -385.879)" opacity="0.1"/>
      <path id="Path_237" data-name="Path 237" d="M414.343,457.3a3.544,3.544,0,0,0-1.086.241,10.963,10.963,0,0,1-2.3-.174,4.241,4.241,0,0,0-1.888.563,4.54,4.54,0,0,0-1.261.882,2.051,2.051,0,0,0-.6,1.385,2.261,2.261,0,0,1-.027.891,2.87,2.87,0,0,1-.275.42,1.233,1.233,0,0,0-.129,1.039,3.355,3.355,0,0,0,.62.928c.5.641.809,1.4,1.255,2.081a6.213,6.213,0,0,0,.655.83.433.433,0,0,0,.14.112.452.452,0,0,0,.165.026,6.614,6.614,0,0,0,2.8-.325,1.3,1.3,0,0,0,.672-.538,1.923,1.923,0,0,0,.066-1.082,5.052,5.052,0,0,1,.027-1.188.541.541,0,0,1,.153-.359.489.489,0,0,1,.479-.015,1.244,1.244,0,0,0,.478.143c.328-.011.533-.369.586-.693a3.033,3.033,0,0,1,.177-.963,3.1,3.1,0,0,1,.492-.564,2.312,2.312,0,0,0,.409-2.048A2.264,2.264,0,0,0,414.343,457.3Z" transform="translate(-382.875 -380.496)" fill="#1e1637"/>
      <circle id="Ellipse_14" data-name="Ellipse 14" cx="3.515" cy="3.515" r="3.515" transform="translate(46.937 81.059)" fill="#ffd2c6"/>
      <path id="Path_238" data-name="Path 238" d="M517.765,502.68s.245,3.328-.436,4.091a30.879,30.879,0,0,1-2.452,2.207l.545,2.261,3.079.354,3.6-3.842-.817-1.008s-.627-2.125-.109-3.188S517.765,502.68,517.765,502.68Z" transform="translate(-469.03 -416.639)" fill="#ffd2c6"/>
      <path id="Path_239" data-name="Path 239" d="M557.638,522.963v0l-.19.292-1.09-.3L555.6,520.1l.046-.828.225-.322s1.2.028,1.146,1.118A9.547,9.547,0,0,0,557.638,522.963Z" transform="translate(-501.465 -429.61)" opacity="0.1"/>
      <path id="Path_240" data-name="Path 240" d="M534.327,611.5s-.867.194-1.859.323a5.348,5.348,0,0,1-2.609-.079c-.789-.466-5.063-.333-6.29-.285-.087,0-.157.007-.211.009l.318-1.166h8.472l.1.5,1.2.07.689.153C534.258,611.305,534.327,611.5,534.327,611.5Z" transform="translate(-475.785 -502.374)" opacity="0.1"/>
      <path id="Path_241" data-name="Path 241" d="M513.259,520.027s1.2.027,1.144,1.117a10.054,10.054,0,0,0,.654,2.97l-.272.627s-.381,1.526-.082,1.907,1.39.381.763,3.515a11.212,11.212,0,0,0,.191,3.106c.327.763.327,2.588.817,3.351a18.284,18.284,0,0,1,1.144,2.534s-3.542.79-4.468.245-6.62-.272-6.62-.272.027-.954,0-1.063a.9.9,0,0,1,.136-.695c.191-.259.49-.695.327-1.076s.409-.942.109-1.534-.665-.708-.591-1.031a1.391,1.391,0,0,0-.335-1.031c-.218-.273-1.689-3.152-1.689-3.152l-.245-1.344s-1.9-1.389-1.861-2.043a3.841,3.841,0,0,1,.716-1.56l1.825-1.791s1.008,1.09,1.989.708A17.777,17.777,0,0,0,510,521.307s.754-.409.808-.708.518-.027.518-.027.681-.374.817-.241a2.35,2.35,0,0,0,.735.241Z" transform="translate(-459.075 -430.467)" fill="#ffcde5"/>
      <path id="Path_242" data-name="Path 242" d="M470.948,547.928l-.58.454a7.716,7.716,0,0,0-.727,2.97,39.384,39.384,0,0,1-.736,4.6L467.761,558a52,52,0,0,0-2.125,5,13.043,13.043,0,0,1-1.362,2.821s-3.787,3.4-1.144,4.017,2.725-2.709,2.725-2.709a3.589,3.589,0,0,0,.717-1.144c.1-.463,3.452-6.389,3.452-6.389s1.172-1.594.926-2.438a25.437,25.437,0,0,0,1.526-4.486,15.842,15.842,0,0,0-.245-2.243l.245-1.88Z" transform="translate(-427.063 -452.692)" fill="#ffd2c6"/>
      <path id="Path_243" data-name="Path 243" d="M531.072,584.847a27.111,27.111,0,0,1-3.188,1.471c-.517.074,2.261-.3,2.261-.3Z" transform="translate(-479.34 -482.101)" opacity="0.1"/>
      <path id="Path_244" data-name="Path 244" d="M534.57,590.2s-3.542,1.2-5.095.981C529.475,591.185,533.344,591.921,534.57,590.2Z" transform="translate(-480.658 -486.368)" opacity="0.1"/>
      <path id="Path_245" data-name="Path 245" d="M535.747,592.126s-3.188,2.007-5.068,1.68c0,0,4.387.872,5.068.409l-1.962-.545S535.965,592.517,535.747,592.126Z" transform="translate(-481.617 -487.899)" opacity="0.1"/>
      <path id="Path_246" data-name="Path 246" d="M498.864,464.8a3.3,3.3,0,0,0-2.682.508c-.546.429-.909,1.086-1.525,1.407a8.94,8.94,0,0,1-1,.35,2.875,2.875,0,0,0-1.755,3.093c.1.539.349,1.039.474,1.572a6.145,6.145,0,0,1-.215,2.892,30.47,30.47,0,0,1-3.028,7.511.784.784,0,0,0-.15.5.707.707,0,0,0,.185.322,7.115,7.115,0,0,0,5.232,2.021,4.046,4.046,0,0,0,2.074-.344,3.14,3.14,0,0,0,1.011-.929,4.925,4.925,0,0,0,.938-3.165,8.852,8.852,0,0,1-.128-2.723.729.729,0,0,1,.163-.334c.207-.212.552-.156.846-.19a1.865,1.865,0,0,0,1.411-1.736,19.54,19.54,0,0,0-.109-2.408,5.045,5.045,0,0,1,.95-2.965,3.213,3.213,0,0,0,.7-1.187,1.969,1.969,0,0,0-.508-1.451,7.129,7.129,0,0,0-1.346-2.07A3.631,3.631,0,0,0,498.864,464.8Z" transform="translate(-448.408 -386.409)" opacity="0.1"/>
      <path id="Path_247" data-name="Path 247" d="M497.793,463.729a3.3,3.3,0,0,0-2.682.508c-.546.429-.909,1.086-1.525,1.407a8.919,8.919,0,0,1-1,.35,2.875,2.875,0,0,0-1.755,3.093c.1.539.349,1.039.474,1.572a6.145,6.145,0,0,1-.214,2.892,30.477,30.477,0,0,1-3.028,7.51.784.784,0,0,0-.15.5.709.709,0,0,0,.185.322,7.117,7.117,0,0,0,5.232,2.02,4.046,4.046,0,0,0,2.074-.344,3.143,3.143,0,0,0,1.011-.929,4.925,4.925,0,0,0,.938-3.165,8.853,8.853,0,0,1-.128-2.723.727.727,0,0,1,.163-.334c.207-.212.552-.156.846-.19a1.865,1.865,0,0,0,1.411-1.736,19.525,19.525,0,0,0-.109-2.408,5.046,5.046,0,0,1,.95-2.965,3.21,3.21,0,0,0,.7-1.186,1.967,1.967,0,0,0-.508-1.451,7.123,7.123,0,0,0-1.346-2.07A3.631,3.631,0,0,0,497.793,463.729Z" transform="translate(-447.555 -385.556)" fill="#985c7e"/>
      <path id="Path_248" data-name="Path 248" d="M440.932,526.109a4.658,4.658,0,0,0,0,1.489c-.037.4,0,2.616,0,2.616-1.2-.364-4.25.364-4.25.364l-.364-1.09a2.689,2.689,0,0,1-.453-.9,9.831,9.831,0,0,1-.283-1.072,22.29,22.29,0,0,1-.357-2.282c-.15-1.155,1.567-2.4,2.866-3.088s2.441,2.252,2.441,2.252A3.622,3.622,0,0,1,440.932,526.109Z" transform="translate(-405.574 -432.074)" opacity="0.1"/>
      <path id="Path_249" data-name="Path 249" d="M440.932,525.038a4.659,4.659,0,0,0,0,1.489c-.037.4,0,2.616,0,2.616-1.2-.364-4.25.364-4.25.364l-.364-1.09a2.688,2.688,0,0,1-.453-.9,9.836,9.836,0,0,1-.283-1.072,22.308,22.308,0,0,1-.357-2.282c-.15-1.155,1.567-2.4,2.866-3.088s2.441,2.251,2.441,2.251A3.624,3.624,0,0,1,440.932,525.038Z" transform="translate(-405.574 -431.22)" fill="#4c4981"/>
      <path id="Path_250" data-name="Path 250" d="M530.679,631.5s.7,3.269,1.862,4.159Z" transform="translate(-481.617 -519.26)" opacity="0.1"/>
      <path id="Path_251" data-name="Path 251" d="M416.028,462.866a2.507,2.507,0,0,0-.269-.583c.019.05.037.1.051.147a2.313,2.313,0,0,1-.409,2.048,3.11,3.11,0,0,0-.493.564,3.035,3.035,0,0,0-.177.963c-.052.324-.258.682-.586.693a1.245,1.245,0,0,1-.478-.143.489.489,0,0,0-.479.015.542.542,0,0,0-.153.359,5.053,5.053,0,0,0-.027,1.188,1.923,1.923,0,0,1-.066,1.082,1.3,1.3,0,0,1-.672.538,6.616,6.616,0,0,1-2.8.325.448.448,0,0,1-.165-.025.437.437,0,0,1-.14-.112,6.23,6.23,0,0,1-.654-.83c-.446-.677-.758-1.44-1.255-2.081-.136-.175-.287-.345-.412-.527,0,.012.006.024.01.036a3.35,3.35,0,0,0,.62.928c.5.641.809,1.4,1.255,2.081a6.232,6.232,0,0,0,.655.83.437.437,0,0,0,.14.112.448.448,0,0,0,.165.026,6.614,6.614,0,0,0,2.8-.325,1.3,1.3,0,0,0,.672-.538,1.921,1.921,0,0,0,.066-1.082,5.058,5.058,0,0,1,.027-1.188.542.542,0,0,1,.153-.359.489.489,0,0,1,.479-.015,1.247,1.247,0,0,0,.478.143c.328-.011.533-.369.586-.693a3.041,3.041,0,0,1,.177-.963,3.113,3.113,0,0,1,.493-.564A2.313,2.313,0,0,0,416.028,462.866Z" transform="translate(-382.975 -384.47)" opacity="0.2"/>
      <g id="Group_2" data-name="Group 2" transform="translate(40.358 81.409)" opacity="0.1">
        <path id="Path_252" data-name="Path 252" d="M502.8,492.5c-.037-.128-.079-.255-.123-.381C502.717,492.242,502.759,492.369,502.8,492.5Z" transform="translate(-499.673 -489.642)"/>
        <path id="Path_253" data-name="Path 253" d="M500.966,479.962a1.148,1.148,0,0,1-.015.309,3.21,3.21,0,0,1-.7,1.186,5.046,5.046,0,0,0-.95,2.965,19.468,19.468,0,0,1,.109,2.409A1.864,1.864,0,0,1,498,488.566c-.294.034-.639-.022-.846.19a.727.727,0,0,0-.163.333,8.853,8.853,0,0,0,.128,2.723,4.924,4.924,0,0,1-.938,3.165,3.139,3.139,0,0,1-1.011.929,4.048,4.048,0,0,1-2.074.344,7.186,7.186,0,0,1-5.167-1.952.5.5,0,0,0-.031.263.708.708,0,0,0,.185.322,7.116,7.116,0,0,0,5.232,2.021,4.044,4.044,0,0,0,2.074-.344,3.141,3.141,0,0,0,1.011-.928,4.925,4.925,0,0,0,.938-3.165,8.856,8.856,0,0,1-.128-2.723.727.727,0,0,1,.163-.334c.207-.212.552-.156.846-.19a1.865,1.865,0,0,0,1.411-1.736,19.486,19.486,0,0,0-.109-2.408,5.044,5.044,0,0,1,.95-2.965,3.212,3.212,0,0,0,.7-1.186A1.356,1.356,0,0,0,500.966,479.962Z" transform="translate(-487.896 -479.962)"/>
      </g>
      <path id="Path_257" data-name="Path 257" d="M709.067,461.347l-.416-.506c.818-.672.857-4.825.448-7.077a12.02,12.02,0,0,1-.132-4.1,5.644,5.644,0,0,1,2.707-4.183c3.081-1.815,4.929-6.794,4.947-6.844l.615.225c-.078.213-1.945,5.249-5.23,7.183-2.184,1.286-2.945,3.842-2.263,7.6C710.066,455.416,710.336,460.305,709.067,461.347Z" transform="translate(-623.384 -365.638)" fill="#d4d5e0"/>
      <path id="Path_258" data-name="Path 258" d="M732.845,377.7c2.008-4.929.283-10.291-3.853-11.977s-9.117.944-11.126,5.873c-1.95,4.786-.38,9.979,3.5,11.82a2.824,2.824,0,0,1-1.132,1.129c-.84.392,1.89.77,1.89.77a4.777,4.777,0,0,1,.258-1.512C726.373,384.974,730.942,382.369,732.845,377.7Z" transform="translate(-630.056 -307.148)" fill="#e53935"/>
      <path id="Path_259" data-name="Path 259" d="M723.469,403.762c.092-2.128,1.377-3.817,2.914-3.892-.066-.009-.133-.015-.2-.018-1.625-.07-3.02,1.672-3.116,3.893-.094,2.156,1.072,3.969,2.627,4.137A5.725,5.725,0,0,1,723.469,403.762Z" transform="translate(-634.861 -334.738)" fill="#fff" opacity="0.2"/>
      <path id="Path_260" data-name="Path 260" d="M832.067,625.347l-.416-.506c.818-.672.857-4.825.448-7.077a12.017,12.017,0,0,1-.132-4.1,5.644,5.644,0,0,1,2.707-4.183c3.081-1.815,4.929-6.794,4.947-6.844l.615.225c-.078.213-1.945,5.248-5.23,7.183-2.184,1.286-2.945,3.842-2.263,7.6C833.065,619.416,833.336,624.305,832.067,625.347Z" transform="translate(-721.362 -496.275)" fill="#d4d5e0"/>
      <path id="Path_261" data-name="Path 261" d="M855.845,541.7c2.009-4.929.284-10.291-3.853-11.976s-9.118.944-11.126,5.873c-1.95,4.786-.38,9.979,3.5,11.82a2.824,2.824,0,0,1-1.132,1.129c-.84.392,1.89.77,1.89.77a4.776,4.776,0,0,1,.258-1.512C849.373,548.974,853.942,546.369,855.845,541.7Z" transform="translate(-728.034 -437.785)" fill="#e53935"/>
      <path id="Path_262" data-name="Path 262" d="M846.469,567.762c.092-2.128,1.377-3.817,2.914-3.892-.066-.009-.133-.015-.2-.018-1.625-.07-3.02,1.672-3.116,3.893-.093,2.156,1.072,3.969,2.627,4.138A5.727,5.727,0,0,1,846.469,567.762Z" transform="translate(-732.839 -465.375)" fill="#fff" opacity="0.2"/>
      <path id="Path_263" data-name="Path 263" d="M644.067,308.347l-.416-.506c.818-.672.857-4.825.448-7.077a12.015,12.015,0,0,1-.132-4.1,5.644,5.644,0,0,1,2.707-4.183c3.081-1.815,4.929-6.794,4.947-6.844l.616.225c-.078.213-1.945,5.249-5.231,7.183-2.184,1.286-2.945,3.842-2.262,7.6C645.065,302.416,645.336,307.305,644.067,308.347Z" transform="translate(-571.607 -243.763)" fill="#d4d5e0"/>
      <path id="Path_264" data-name="Path 264" d="M667.845,224.7c2.008-4.929.283-10.291-3.853-11.977s-9.118.944-11.126,5.873c-1.95,4.786-.38,9.979,3.5,11.82a2.826,2.826,0,0,1-1.132,1.129c-.84.392,1.89.77,1.89.77a4.775,4.775,0,0,1,.258-1.512C661.373,231.974,665.942,229.369,667.845,224.7Z" transform="translate(-578.28 -185.274)" fill="#e53935"/>
      <path id="Path_265" data-name="Path 265" d="M658.468,250.762c.092-2.128,1.377-3.817,2.914-3.892-.066-.009-.133-.015-.2-.018-1.625-.07-3.02,1.672-3.116,3.893-.093,2.156,1.072,3.969,2.627,4.137A5.726,5.726,0,0,1,658.468,250.762Z" transform="translate(-583.084 -212.863)" fill="#fff" opacity="0.2"/>
    </g>
  </g>
</svg>
