<svg xmlns="http://www.w3.org/2000/svg" xmlns:xlink="http://www.w3.org/1999/xlink" width="149.887" height="150" viewBox="0 0 149.887 150">
  <defs>
    <linearGradient id="linear-gradient" x1="0.5" y1="1" x2="0.5" gradientUnits="objectBoundingBox">
      <stop offset="0" stop-color="gray" stop-opacity="0.251"/>
      <stop offset="0.54" stop-color="gray" stop-opacity="0.122"/>
      <stop offset="1" stop-color="gray" stop-opacity="0.102"/>
    </linearGradient>
  </defs>
  <g id="Group_1607" data-name="Group 1607" transform="translate(-716 -1142.909)">
    <g id="background" transform="translate(716 1143)">
      <circle id="Ellipse_532" data-name="Ellipse 532" cx="56.207" cy="56.207" r="56.207" transform="translate(18.736 18.739)" fill="rgba(79,19,76,0.05)"/>
      <circle id="Ellipse_533" data-name="Ellipse 533" cx="74.943" cy="74.943" r="74.943" fill="rgba(79,19,76,0.05)"/>
    </g>
    <g id="undraw_baby_ja7a_3_" data-name="undraw_baby_ja7a (3)" transform="translate(736.112 1142.909)">
      <path id="Path_267" data-name="Path 267" d="M733.95,359.414l.92,48.9,1.956.23-.737-49.322Z" transform="translate(-640 -295.853)" fill="#f5c5cc"/>
      <path id="Path_268" data-name="Path 268" d="M739.87,355.45l1.05,50.891.7-.851-.737-49.322Z" transform="translate(-644.792 -292.801)" fill="none"/>
      <path id="Path_269" data-name="Path 269" d="M709.12,354.584l.92,48.9,1.956.23-.737-49.322Z" transform="translate(-619.899 -291.943)" fill="#f5c5cc"/>
      <path id="Path_270" data-name="Path 270" d="M715.04,350.62l1.048,50.891.7-.851-.737-49.322Z" transform="translate(-624.691 -288.891)" fill="none"/>
      <path id="Path_271" data-name="Path 271" d="M715.19,337.538l.1,53.331,2-.19-.762-54.188Z" transform="translate(-624.813 -277.453)" fill="#cc929b"/>
      <path id="Path_272" data-name="Path 272" d="M425.56,294.479,426.4,338.8l1.956.206L427.7,294.3Z" transform="translate(-390.348 -243.298)" fill="#f5c5cc"/>
      <path id="Path_273" data-name="Path 273" d="M431.49,290.89l.968,46.131.7-.773L432.5,291.54Z" transform="translate(-395.149 -240.538)" fill="#cc929b"/>
      <path id="Path_274" data-name="Path 274" d="M447.41,300.369l.844,44.322,1.956.206-.659-44.707Z" transform="translate(-408.036 -248.066)" fill="#f5c5cc"/>
      <path id="Path_275" data-name="Path 275" d="M453.34,296.77l.969,46.131.7-.773-.659-44.707Z" transform="translate(-412.837 -245.298)" fill="#cc929b"/>
      <path id="Path_276" data-name="Path 276" d="M468.77,306.757l.844,44.324,1.956.206-.659-44.707Z" transform="translate(-425.328 -253.239)" fill="#f5c5cc"/>
      <path id="Path_277" data-name="Path 277" d="M474.7,303.17l.969,46.129.7-.773-.659-44.707Z" transform="translate(-430.129 -250.479)" fill="#cc929b"/>
      <path id="Path_278" data-name="Path 278" d="M489.55,308.033l.869,45.88,1.956.213-.686-46.276Z" transform="translate(-442.15 -254.268)" fill="#f5c5cc"/>
      <path id="Path_279" data-name="Path 279" d="M495.47,304.31l1,47.75.7-.8-.686-46.276Z" transform="translate(-446.943 -251.402)" fill="#cc929b"/>
      <path id="Path_280" data-name="Path 280" d="M512.08,309.9l.87,45.878,1.956.213-.686-46.276Z" transform="translate(-460.389 -255.781)" fill="#f5c5cc"/>
      <path id="Path_281" data-name="Path 281" d="M518.01,306.19l1,47.748.7-.8-.686-46.276Z" transform="translate(-465.189 -252.924)" fill="#cc929b"/>
      <path id="Path_282" data-name="Path 282" d="M534.22,317.783l.868,45.88,1.956.213-.684-46.276Z" transform="translate(-478.312 -262.161)" fill="#f5c5cc"/>
      <path id="Path_283" data-name="Path 283" d="M540.14,314.06l1,47.75.7-.8-.684-46.276Z" transform="translate(-483.104 -259.295)" fill="#cc929b"/>
      <path id="Path_284" data-name="Path 284" d="M559.56,322.958l.891,47.16,1.956.219L561.7,322.77Z" transform="translate(-498.826 -266.346)" fill="#f5c5cc"/>
      <path id="Path_285" data-name="Path 285" d="M565.48,319.14l1.019,49.082.7-.823-.707-47.568Z" transform="translate(-503.618 -263.407)" fill="#cc929b"/>
      <path id="Path_286" data-name="Path 286" d="M581.61,325.589l.889,47.16,1.958.219-.709-47.567Z" transform="translate(-516.676 -268.475)" fill="#f5c5cc"/>
      <path id="Path_287" data-name="Path 287" d="M587.53,321.76l1.019,49.084.7-.823-.709-47.568Z" transform="translate(-521.468 -265.528)" fill="#cc929b"/>
      <path id="Path_288" data-name="Path 288" d="M604.97,332.2l.891,47.16,1.956.221-.706-47.567Z" transform="translate(-535.586 -273.826)" fill="#f5c5cc"/>
      <path id="Path_289" data-name="Path 289" d="M610.9,328.37l1.017,49.084.7-.823-.707-47.567Z" transform="translate(-540.387 -270.879)" fill="#cc929b"/>
      <path id="Path_290" data-name="Path 290" d="M405.145,280.6l-.1-2.807.99-.541,71.033,14.569.131,3.564Z" transform="translate(-373.745 -229.496)" fill="#f5c5cc"/>
      <path id="Path_291" data-name="Path 291" d="M406.664,277.25l71.294,14.557-.072,1.335L405.82,277.709" transform="translate(-374.368 -229.496)" fill="#cc929b"/>
      <path id="Path_292" data-name="Path 292" d="M408.69,337.1l-2,.728h-1.9l-.1-75.147,1.048-1.455,1.011-.3,1.274-.192Z" transform="translate(-373.453 -216.131)" fill="#f5c5cc"/>
      <path id="Path_293" data-name="Path 293" d="M416.664,337.1l-2,.728-.124-75,.183-1.9L416,260.74Z" transform="translate(-381.427 -216.131)" fill="#cc929b"/>
      <path id="Path_294" data-name="Path 294" d="M630.35,339.519l.892,47.158,1.956.221-.707-47.567Z" transform="translate(-556.132 -279.752)" fill="#f5c5cc"/>
      <path id="Path_295" data-name="Path 295" d="M636.27,335.69l1.019,49.084.7-.823-.707-47.567Z" transform="translate(-560.925 -276.805)" fill="#cc929b"/>
      <path id="Path_296" data-name="Path 296" d="M655.92,343.42l.908,48.168,1.956.225-.726-48.583Z" transform="translate(-576.832 -282.909)" fill="#f5c5cc"/>
      <path id="Path_297" data-name="Path 297" d="M661.84,339.51l1.036,50.131.7-.84-.726-48.583Z" transform="translate(-581.624 -279.897)" fill="none"/>
      <path id="Path_298" data-name="Path 298" d="M682.25,348.034l.92,48.9,1.956.23-.735-49.322Z" transform="translate(-598.147 -286.641)" fill="#f5c5cc"/>
      <path id="Path_299" data-name="Path 299" d="M688.17,344.07l1.049,50.893.7-.853-.735-49.322Z" transform="translate(-602.939 -283.589)" fill="#cc929b"/>
      <path id="Path_300" data-name="Path 300" d="M271.285,355.678l-2,.191-.093-52.605,0-.726,1.333-1.048.021,1.459Z" transform="translate(-263.762 -249.119)" fill="#f5c5cc"/>
      <path id="Path_301" data-name="Path 301" d="M308.285,340.178l-2,.19-.093-51.746,0-1.585,1.333-1.048.031,2.126Z" transform="translate(-293.714 -236.571)" fill="#f5c5cc"/>
      <path id="Path_302" data-name="Path 302" d="M369.285,315.178l-2,.19-.091-51.093,0-2.238,1.333-1.048.042,2.967Z" transform="translate(-343.096 -216.333)" fill="#f5c5cc"/>
      <path id="Path_303" data-name="Path 303" d="M395.785,305.178l-2,.19-.09-49.845-.006-3.486,1.333-1.048.069,4.842Z" transform="translate(-364.548 -208.238)" fill="#f5c5cc"/>
      <path id="Path_304" data-name="Path 304" d="M289.785,352.678l-2,.19-.1-52.95v-.381l1.333-1.048.013,1Z" transform="translate(-278.738 -246.69)" fill="#f5c5cc"/>
      <path id="Path_305" data-name="Path 305" d="M343.785,327.678l-2,.19-.093-51.952,0-1.379,1.333-1.048.027,1.954Z" transform="translate(-322.453 -226.452)" fill="#f5c5cc"/>
      <path id="Path_306" data-name="Path 306" d="M326.285,332.678l-2,.19-.091-51.638,0-1.693,1.333-1.048.031,2.206Z" transform="translate(-308.286 -230.5)" fill="#f5c5cc"/>
      <path id="Path_307" data-name="Path 307" d="M316.566,569.48l-.476,1a8.342,8.342,0,0,0-1.1,4.714c.143,2.857-1.994,10.428-1.994,10.428a8.806,8.806,0,0,0,3.428.809c1.476-.1,4.667,1.476,4.667,1.476l6.613,2.052,13.38,3.143s7.857,4.381,10,4.381,10.666,2.9,10.666,2.9,11.523,2.524,12.428,3.476,4.72,2.234,5.1,2.286,6.19.619,6.19.619,6.762,1.571,7.714-.1a8.588,8.588,0,0,0,1.1-3.047s3,.666,3.809-.333.857-3.143,1.81-3.047,4.857,1.286,5.285.857,2.714-5.476,4.333-4.714,4.428,1.952,4.428,1.952l-1.619-16.475-.714-4.523s-25.951,10.571-26.856,10.571S316.566,569.48,316.566,569.48Z" transform="translate(-311.175 -471.709)" fill="#e53935"/>
      <path id="Path_308" data-name="Path 308" d="M414.248,425.543l-.143,23.237-26.957,10.337-68.283-18.142s-4.619-6.523-.333-12.619c0,0-5.523-7.619,1.333-12.571l.169-.04L345.96,409.5l11.529,2.107,50.941,9.318S413.433,422.781,414.248,425.543Z" transform="translate(-313.951 -342.2)" fill="#e53935"/>
      <path id="Path_309" data-name="Path 309" d="M371.9,413.829c-1.286.667-10.619,3.1-12.476,4.571s-14.714,2.623-14.714,2.623l-1.428.286s.1-.952-5.571-3.714a7.223,7.223,0,0,1-2.354-1.849l25.925-6.245,11.529,2.107A2.257,2.257,0,0,1,371.9,413.829Z" transform="translate(-329.276 -342.2)" opacity="0.1"/>
      <path id="Path_310" data-name="Path 310" d="M321.428,384s-.476,9.238,5.19,12,5.577,3.71,5.577,3.71l1.428-.286s-4.952-5.524-4.619-6.476-4.428-5.762-5.1-5.952S321.428,384,321.428,384Z" transform="translate(-317.99 -321.557)" fill="#e53935"/>
      <path id="Path_311" data-name="Path 311" d="M321.958,384.73s-.476,9.238,5.19,12,5.571,3.714,5.571,3.714l1.428-.286s-4.952-5.524-4.619-6.476-4.434-5.762-5.1-5.952S321.958,384.73,321.958,384.73Z" transform="translate(-318.419 -322.148)" opacity="0.1"/>
      <path id="Path_312" data-name="Path 312" d="M329,405.23s4.571,6.9,5.381,7.143S330.09,405.325,329,405.23Z" transform="translate(-324.128 -338.743)" opacity="0.1"/>
      <path id="Path_313" data-name="Path 313" d="M318,334.4s2.952-2.381,3.333-2.857,4.571-.667,4.714-.667a25.925,25.925,0,0,1,6.9-2.571c3.571-.619,5-.9,5-.9s5.238-2.19,5.524-2.667,2.714-1,5.714,1.333,9.619,12.809,9.666,13.952.476,3.238-.81,3.9-10.619,3.1-12.476,4.571-14.719,2.623-14.719,2.623L326,345.832l-2.571-4.143-4.286-4.524Z" transform="translate(-315.223 -273.25)" fill="#e53935"/>
      <path id="Path_314" data-name="Path 314" d="M355.23,593.15s-1.777.381-.762,1.4S355.23,593.15,355.23,593.15Z" transform="translate(-344.492 -490.871)" opacity="0.1"/>
      <path id="Path_315" data-name="Path 315" d="M385.78,603.82s-1.9,2.286-1.524,2.92S385.78,603.82,385.78,603.82Z" transform="translate(-368.819 -499.508)" opacity="0.1"/>
      <path id="Path_316" data-name="Path 316" d="M444.45,619.15s-1.9,2.286-1.524,2.92S444.45,619.15,444.45,619.15Z" transform="translate(-416.314 -511.918)" opacity="0.1"/>
      <path id="Path_317" data-name="Path 317" d="M515.78,639.15s-1.9,2.286-1.524,2.92S515.78,639.15,515.78,639.15Z" transform="translate(-474.058 -528.109)" opacity="0.1"/>
      <path id="Path_318" data-name="Path 318" d="M611.78,663.15s-1.9,2.286-1.524,2.92S611.78,663.15,611.78,663.15Z" transform="translate(-551.773 -547.538)" opacity="0.1"/>
      <path id="Path_319" data-name="Path 319" d="M414.45,607.15s-1.9,2.286-1.524,2.92S414.45,607.15,414.45,607.15Z" transform="translate(-392.028 -502.204)" opacity="0.1"/>
      <path id="Path_320" data-name="Path 320" d="M553.78,649.15s-1.9,2.285-1.524,2.92S553.78,649.15,553.78,649.15Z" transform="translate(-504.82 -536.205)" opacity="0.1"/>
      <path id="Path_321" data-name="Path 321" d="M583.11,658.48s-1.9,2.286-1.524,2.922S583.11,658.48,583.11,658.48Z" transform="translate(-528.564 -543.757)" opacity="0.1"/>
      <path id="Path_322" data-name="Path 322" d="M470.45,627.15s-1.9,2.286-1.524,2.92S470.45,627.15,470.45,627.15Z" transform="translate(-437.362 -518.395)" opacity="0.1"/>
      <path id="Path_323" data-name="Path 323" d="M729.14,699.82l2.015,9.316S731.17,702.612,729.14,699.82Z" transform="translate(-648.054 -577.223)" opacity="0.1"/>
      <path id="Path_324" data-name="Path 324" d="M761.8,707.15l1.413,4.543A15.271,15.271,0,0,0,761.8,707.15Z" transform="translate(-674.493 -583.157)" opacity="0.1"/>
      <path id="Path_325" data-name="Path 325" d="M781.047,685.414s-3.015-10.982-3.651-11.744S779.232,684.717,781.047,685.414Z" transform="translate(-687.036 -556.026)" opacity="0.1"/>
      <path id="Path_326" data-name="Path 326" d="M805.247,676.735s-3.554-6.221-2.158-7.364S805.247,676.735,805.247,676.735Z" transform="translate(-707.655 -552.489)" opacity="0.1"/>
      <path id="Path_327" data-name="Path 327" d="M327.47,508.4l69.012,15.493,26.54-7.746-26.793,6.985S329.565,507.765,327.47,508.4Z" transform="translate(-322.889 -422.246)" opacity="0.1"/>
      <path id="Path_328" data-name="Path 328" d="M275.69,389.883l.1,44.331,1.952.238.1-44.712Z" transform="translate(-269.024 -320.56)" fill="#f5c5cc"/>
      <path id="Path_329" data-name="Path 329" d="M281.69,386.24l.19,46.141.714-.762.1-44.712Z" transform="translate(-273.881 -317.727)" fill="#cc929b"/>
      <path id="Path_330" data-name="Path 330" d="M297.44,396.133l.1,44.331,1.952.238.1-44.712Z" transform="translate(-286.631 -325.62)" fill="#f5c5cc"/>
      <path id="Path_331" data-name="Path 331" d="M303.44,392.49l.191,46.141.714-.762.1-44.712Z" transform="translate(-291.488 -322.786)" fill="#cc929b"/>
      <path id="Path_332" data-name="Path 332" d="M318.69,402.883l.1,44.331,1.952.238.1-44.712Z" transform="translate(-303.833 -331.084)" fill="#f5c5cc"/>
      <path id="Path_333" data-name="Path 333" d="M324.69,399.24l.19,46.141.714-.762.1-44.712Z" transform="translate(-308.691 -328.251)" fill="#cc929b"/>
      <path id="Path_334" data-name="Path 334" d="M339.44,404.508l.1,45.888,1.952.246.1-46.282Z" transform="translate(-320.631 -332.396)" fill="#f5c5cc"/>
      <path id="Path_335" data-name="Path 335" d="M345.44,400.74l.191,47.76.714-.789.1-46.282Z" transform="translate(-325.488 -329.465)" fill="#cc929b"/>
      <path id="Path_336" data-name="Path 336" d="M361.94,406.759l.1,45.888,1.952.246.1-46.282Z" transform="translate(-338.846 -334.217)" fill="#f5c5cc"/>
      <path id="Path_337" data-name="Path 337" d="M367.94,402.99l.19,47.76.714-.789.1-46.282Z" transform="translate(-343.703 -331.286)" fill="#cc929b"/>
      <path id="Path_338" data-name="Path 338" d="M383.94,415.009l.1,45.887,1.952.246.1-46.282Z" transform="translate(-356.656 -340.896)" fill="#f5c5cc"/>
      <path id="Path_339" data-name="Path 339" d="M389.94,411.24,390.13,459l.714-.788.1-46.282Z" transform="translate(-361.513 -337.965)" fill="#cc929b"/>
      <path id="Path_340" data-name="Path 340" d="M409.19,420.612l.1,47.167,1.952.253.1-47.573Z" transform="translate(-377.096 -345.429)" fill="none"/>
      <path id="Path_341" data-name="Path 341" d="M415.19,416.74l.191,49.093.714-.811.1-47.573Z" transform="translate(-381.953 -342.418)" fill="#cc929b"/>
      <path id="Path_342" data-name="Path 342" d="M431.19,423.612l.1,47.168,1.952.253.1-47.573Z" transform="translate(-394.906 -347.858)" fill="#f5c5cc"/>
      <path id="Path_343" data-name="Path 343" d="M437.19,419.74l.19,49.093.714-.811.1-47.573Z" transform="translate(-399.763 -344.846)" fill="#cc929b"/>
      <path id="Path_344" data-name="Path 344" d="M454.44,430.612l.1,47.167,1.952.253.1-47.573Z" transform="translate(-413.728 -353.524)" fill="#f5c5cc"/>
      <path id="Path_345" data-name="Path 345" d="M460.44,426.74l.191,49.093.714-.811.1-47.573Z" transform="translate(-418.585 -350.513)" fill="#cc929b"/>
      <path id="Path_346" data-name="Path 346" d="M479.69,438.362l.1,47.168,1.952.253.1-47.573Z" transform="translate(-434.168 -359.798)" fill="#f5c5cc"/>
      <path id="Path_347" data-name="Path 347" d="M485.69,434.49l.19,49.093.714-.811.1-47.573Z" transform="translate(-439.025 -356.787)" fill="#cc929b"/>
      <path id="Path_348" data-name="Path 348" d="M505.19,442.7l.1,48.173,1.952.259.1-48.588Z" transform="translate(-454.811 -363.303)" fill="#f5c5cc"/>
      <path id="Path_349" data-name="Path 349" d="M511.19,438.74l.19,50.141.714-.828.1-48.588Z" transform="translate(-459.668 -360.227)" fill="#cc929b"/>
      <path id="Path_350" data-name="Path 350" d="M531.44,447.758l.1,48.906,1.952.263.1-49.327Z" transform="translate(-476.061 -367.4)" fill="#cc929b"/>
      <path id="Path_351" data-name="Path 351" d="M537.44,443.74l.19,50.9.714-.84.1-49.327Z" transform="translate(-480.919 -364.275)" fill="none"/>
      <path id="Path_352" data-name="Path 352" d="M558.19,454.758l.1,48.906,1.952.263.1-49.327Z" transform="translate(-497.716 -373.066)" fill="#f5c5cc"/>
      <path id="Path_353" data-name="Path 353" d="M564.19,450.74l.19,50.9.714-.84.1-49.327Z" transform="translate(-502.574 -369.942)" fill="#cc929b"/>
      <path id="Path_354" data-name="Path 354" d="M582.94,460.008l.1,48.906,1.952.263.1-49.327Z" transform="translate(-517.752 -377.316)" fill="#cc929b"/>
      <path id="Path_355" data-name="Path 355" d="M588.94,455.99l.191,50.9.714-.84.1-49.328Z" transform="translate(-522.609 -374.192)" fill="none"/>
      <path id="Path_356" data-name="Path 356" d="M245.19,364.915l-2,.762h-1.9l-.1-69.9,1.048-1.524,1.011-.31,1.465-.451Z" transform="translate(-241.095 -242.643)" fill="#f5c5cc"/>
      <path id="Path_357" data-name="Path 357" d="M253.164,364.915l-2,.762-.124-69.747.183-1.989,1.465-.451Z" transform="translate(-249.069 -242.643)" fill="#cc929b"/>
      <circle id="Ellipse_16" data-name="Ellipse 16" cx="2.286" cy="2.286" r="2.286" transform="translate(0 120.654)" fill="#40414d"/>
      <path id="Path_358" data-name="Path 358" d="M782.19,399.092l-2,.728h-1.9l-.1-76.861,1.048.259,1.011-.3,1.465-.43Z" transform="translate(-675.813 -266.119)" fill="#f5c5cc"/>
      <path id="Path_359" data-name="Path 359" d="M790.164,399.092l-2,.728-.124-75,.183-1.9,1.465-.43Z" transform="translate(-683.787 -266.119)" fill="#cc929b"/>
      <path id="Path_360" data-name="Path 360" d="M644.785,418.678l-2,.19-.091-51.348,0-1.983,1.333-1.048.038,2.737Z" transform="translate(-566.122 -300.12)" fill="#f5c5cc"/>
      <path id="Path_361" data-name="Path 361" d="M681.785,403.178l-2,.19-.09-50.4-.006-2.931,1.333-1.048.049,3.478Z" transform="translate(-596.075 -287.572)" fill="#f5c5cc"/>
      <path id="Path_362" data-name="Path 362" d="M742.785,378.178l-2,.19-.09-50.282-.006-3.049,1.333-1.048.05,3.526Z" transform="translate(-645.456 -267.333)" fill="#f5c5cc"/>
      <path id="Path_363" data-name="Path 363" d="M767.19,315.038l.1,53.331,2-.19-.762-54.188Z" transform="translate(-666.909 -259.238)" fill="#f5c5cc"/>
      <path id="Path_364" data-name="Path 364" d="M663.285,415.678l-2,.191-.091-51.64,0-1.691,1.333-1.048.032,2.326Z" transform="translate(-581.098 -297.691)" fill="#f5c5cc"/>
      <path id="Path_365" data-name="Path 365" d="M699.785,395.678l-2,.19L697.7,345.6l-.006-3.065,1.333-1.048.049,3.558Z" transform="translate(-610.646 -281.5)" fill="#f5c5cc"/>
      <path id="Path_366" data-name="Path 366" d="M720.115,389.008l-2,.191-.09-50.266v-.3l-.006-2.766,1.333-1.047.046,3.249,0,.309Z" transform="translate(-627.104 -276.101)" fill="#f5c5cc"/>
      <path id="Path_367" data-name="Path 367" d="M632.69,597.236l27.618-11.746,1.9.444.063,4.381L633.2,601.552Z" transform="translate(-558.027 -479.026)" fill="#f5c5cc"/>
      <path id="Path_368" data-name="Path 368" d="M660.308,585.49,632.69,597.236l29.42-11.327" transform="translate(-558.027 -479.026)" fill="#cc929b"/>
      <path id="Path_369" data-name="Path 369" d="M255.943,614.49l69.648,21.142-.128,3.428L255.69,617.538Z" transform="translate(-252.833 -502.503)" fill="#f5c5cc"/>
      <path id="Path_370" data-name="Path 370" d="M684.42,477.307l-2,.762h-1.9l-.1-78.282h0v-.381l.149-.217.9-1.307,1.011-.311,1.465-.451.015,2.667Z" transform="translate(-608.614 -332.178)" fill="#f5c5cc"/>
      <path id="Path_371" data-name="Path 371" d="M629.664,447.677l-2,.762-.124-78.509.183-1.988,1.465-.451Z" transform="translate(-553.857 -302.548)" fill="#cc929b"/>
      <path id="Path_372" data-name="Path 372" d="M683.944,397.12l.015,2.667a16.268,16.268,0,0,1-1.663.156,5.09,5.09,0,0,1-1.876-.154h0c0-.027.053-.24.149-.6l.9-1.307,1.011-.31Z" transform="translate(-608.614 -332.178)" opacity="0.1"/>
      <path id="Path_373" data-name="Path 373" d="M706.769,394.12l.038,2.737q-.737.171-1.368.293v-1.983Z" transform="translate(-628.868 -329.75)" opacity="0.1"/>
      <path id="Path_374" data-name="Path 374" d="M725.269,391.12l.032,2.326c-.474.15-.929.288-1.362.413v-1.691Z" transform="translate(-643.844 -327.321)" opacity="0.1"/>
      <path id="Path_375" data-name="Path 375" d="M743.778,378.62l.049,3.478q-.715.265-1.377.5v-2.931Z" transform="translate(-658.829 -317.202)" opacity="0.1"/>
      <path id="Path_376" data-name="Path 376" d="M761.778,371.12l.05,3.558-1.1.442-.28.112v-3.065Z" transform="translate(-673.4 -311.13)" opacity="0.1"/>
      <path id="Path_377" data-name="Path 377" d="M804.827,357.154l-1.377.571v-3.047l1.333-1.048Z" transform="translate(-708.21 -296.972)" opacity="0.1"/>
      <path id="Path_378" data-name="Path 378" d="M782.163,367.732l-1.373.571v-2.766l1.333-1.048Z" transform="translate(-689.866 -305.763)" opacity="0.1"/>
      <path id="Path_379" data-name="Path 379" d="M715.657,327.776a29.14,29.14,0,0,1-4.476-.286c-.952-.286-2.952.857-15.237,5.809-7.428,3-11.552,3.691-13.647,3.773a5.089,5.089,0,0,1-1.876-.154s2.508-11.508,10.5-13.658a23.632,23.632,0,0,0,2.623-.882l.154-.059a15.593,15.593,0,0,1,2.059-.638c2.564-.589,4.394-1.714,9.028-1.749a12.676,12.676,0,0,1,7.958,2.64A6.606,6.606,0,0,1,715.657,327.776Z" transform="translate(-608.614 -269.691)" fill="#cc929b"/>
      <path id="Path_380" data-name="Path 380" d="M694.039,332.12c-9.885,4.263-11.394,12.23-11.742,14.82a5.09,5.09,0,0,1-1.876-.154s2.508-11.508,10.5-13.659a23.643,23.643,0,0,0,2.623-.882l.154-.059C693.808,332.17,693.922,332.147,694.039,332.12Z" transform="translate(-608.614 -279.559)" fill="#f5c5cc"/>
      <path id="Path_381" data-name="Path 381" d="M333.261,331.12l.021,1.459c-.482.12-.931.225-1.352.314v-.726Z" transform="translate(-326.5 -278.749)" opacity="0.1"/>
      <path id="Path_382" data-name="Path 382" d="M351.753,328.12l.013,1q-.7.232-1.347.425v-.381Z" transform="translate(-341.468 -276.32)" opacity="0.1"/>
      <path id="Path_383" data-name="Path 383" d="M370.261,315.62l.031,2.126q-.7.269-1.362.507v-1.585Z" transform="translate(-356.453 -266.201)" opacity="0.1"/>
      <path id="Path_384" data-name="Path 384" d="M388.27,308.12l.03,2.206q-.657.254-1.36.535v-1.693Z" transform="translate(-371.032 -260.13)" opacity="0.1"/>
      <path id="Path_385" data-name="Path 385" d="M405.761,303.12l.027,1.954q-.648.217-1.358.472v-1.379Z" transform="translate(-385.191 -256.082)" opacity="0.1"/>
      <path id="Path_386" data-name="Path 386" d="M431.269,290.62l.042,2.968c-.421.088-.876.19-1.371.318v-2.238Z" transform="translate(-405.842 -245.963)" opacity="0.1"/>
      <path id="Path_387" data-name="Path 387" d="M457.846,285.422a5.021,5.021,0,0,0-1.4-.309v-3.486l1.333-1.048Z" transform="translate(-427.303 -237.835)" opacity="0.1"/>
      <path id="Path_388" data-name="Path 388" d="M339.157,274.912a29.127,29.127,0,0,1-4.476-.286c-.952-.286-2.952-1.809-15.237,3.143-7.428,3-11.552,3.691-13.647,3.773a5.088,5.088,0,0,1-1.876-.154s1.891-10,10.232-11.687a12.269,12.269,0,0,0,1.377-.352c.512-.168,1.32-.408,2.406-.657a50.341,50.341,0,0,1,13.611-1.051,8.441,8.441,0,0,1,5.674,2.487A6.535,6.535,0,0,1,339.157,274.912Z" transform="translate(-303.825 -227.302)" fill="#cc929b"/>
      <path id="Path_389" data-name="Path 389" d="M317.935,273.46c-9.885,4.263-11.79,10.26-12.138,12.851a5.09,5.09,0,0,1-1.876-.154s1.891-10,10.232-11.687a12.257,12.257,0,0,0,1.377-.352C316.041,273.944,316.849,273.709,317.935,273.46Z" transform="translate(-303.825 -232.071)" fill="#f5c5cc"/>
      <path id="Path_390" data-name="Path 390" d="M255.488,375.573l-.048-2.809,1-.524,68.378,15.333-.19,3.571Z" transform="translate(-252.631 -306.393)" fill="#f5c5cc"/>
      <path id="Path_391" data-name="Path 391" d="M257.071,372.24l68.378,15.333-.1,1.333-69.134-16.22" transform="translate(-253.262 -306.393)" fill="#cc929b"/>
      <circle id="Ellipse_17" data-name="Ellipse 17" cx="2.286" cy="2.286" r="2.286" transform="translate(102.091 131.415)" fill="#40414d"/>
      <circle id="Ellipse_18" data-name="Ellipse 18" cx="2.286" cy="2.286" r="2.286" transform="translate(71.806 144.367)" fill="#40414d"/>
      <path id="Path_392" data-name="Path 392" d="M320.054,579.45a14.862,14.862,0,0,0-2.667,4.318c-.634,2.032.762,9.651.762,9.651a14.03,14.03,0,0,0,1.524-4.065C320.18,586.943,320.054,579.45,320.054,579.45Z" transform="translate(-314.594 -479.78)" fill="#e53935"/>
      <path id="Path_393" data-name="Path 393" d="M830.729,679.12s1.238,6.286,1.333,7.238-3.143-.476-3.143-.476Z" transform="translate(-728.829 -560.466)" fill="#e53935"/>
      <path id="Path_394" data-name="Path 394" d="M434.6,97.044h-.032a.383.383,0,0,0-.07-.179.935.935,0,0,0-.316-.24l-.893-.5.771.28a1.7,1.7,0,0,0-.12-.179l.09.05-.061-.086-.082-.029a2.259,2.259,0,0,0-1.762-.672h.011c.086-.011.173-.019.259-.025a3.09,3.09,0,0,0-.571.017h0a.267.267,0,0,0,.067.019,1.787,1.787,0,0,0-.19.019.571.571,0,0,1-.3,0,.432.432,0,0,1-.231-.314,3.481,3.481,0,0,1,.1-1.189,1.274,1.274,0,0,0-.059-.554v-.114a.571.571,0,0,0-.381-.35.374.374,0,0,0,0,.044l-.032-.013v1.025a4.083,4.083,0,0,1-.779-.811.357.357,0,0,1-.078-.162c-.019-.173.2-.293.215-.469a.261.261,0,0,0-.19-.248l.057-.021a.429.429,0,0,0-.217-.038,3.645,3.645,0,0,0-.48.145l.05.01a1.087,1.087,0,0,1-.112.03c-.478.1-.9-.282-1.249-.627l-.074-.074c-.164-1.434-.428-3.078-.428-3.078a20.493,20.493,0,0,0-.571-2.887c-.333-1.009-.813-2.792-.813-2.792a14.8,14.8,0,0,0-1.333-2.261,2.9,2.9,0,0,1-.268-.152,4.26,4.26,0,0,1-.191-1c-.059-1.893,1.964-3.238,2.268-5.114.249-1.524-.711-3.047-.571-4.592a16.7,16.7,0,0,1,.484-1.975,5.317,5.317,0,0,0,.055-1.956,3.223,3.223,0,0,0-.312-1,5.415,5.415,0,0,0,.687-1.164,3.252,3.252,0,0,0-.506-2.667,10.621,10.621,0,0,0-7.619-4.832c-1.183-.109-2.369-.13-3.554-.149a9.9,9.9,0,0,0-4.023.486c-2.5,1.046-3.682,3.84-5.2,6.095a17.279,17.279,0,0,1-4.727,4.718c-.878.587-1.9,1.211-2.11,2.253a2.07,2.07,0,0,0-.036.3,2.83,2.83,0,0,1-.063-.278c-.208,1.088.56,2.1.952,3.133a5.522,5.522,0,0,1,.351,1.693,7.4,7.4,0,0,0,0-.823c.381,1.977-.318,4.1-.75,6.12-.033.149-.057.3-.088.446a3.644,3.644,0,0,0-1,.451,5.635,5.635,0,0,1-2.251.876,4.206,4.206,0,0,0-2.708,1.627c-.122.164-.24.276-.343.288-.429.05-2.817,7.508-2.817,7.508s-.5,3.072-.5,3.792-.859,5.92-.859,5.92a3.928,3.928,0,0,0-.19,1.347,6.023,6.023,0,0,1-.2,1.543.344.344,0,0,1-.133-.1c-.143-.288-2.771,0-1.958,1.926a3.775,3.775,0,0,0,.92,1.368,9.228,9.228,0,0,0-.634,1.857s0,.688.061,1.537c-.558.381-1.015.724-1.015.724-.04,1.051.661,1.219,1.32,1.181.169.609.417,1.093.781,1.225,1.194.434,1.958.242,2.341.571a13.649,13.649,0,0,0,2.425.969,24.148,24.148,0,0,0,2.617.25l.35.175-.042-.19c.112-.021.061-.154-.08-.381-.063-.291-.143-.672-.232-1.107l.524-.19.143.211c-.191,1-.312,1.663-.312,1.663s-.952,3.417-.526,3.947a1.107,1.107,0,0,1,0,1.2s-.1.865.145.865.524,1.107.286,1.156-1.333.962-.952,1.154,0,.625,0,1.059c0,.316.583.785.9,1.015-.057.206-.116.425-.171.64a5.411,5.411,0,0,0-.251,1.472c.1.529-.238,2.021-.143,2.5s.43,1.539.19,1.973a4.591,4.591,0,0,0,.048,1.876l.43,4.089s-.286,1.156,0,1.444.526,3.659.811,4.044a5.022,5.022,0,0,1,.381,3.08c-.337.674.43,2.068.43,2.068s-.048,1.636-.048,2.068a2.845,2.845,0,0,0,.429,1.107,22.233,22.233,0,0,1,.381,2.888,3.808,3.808,0,0,0,.286,1.4,15.483,15.483,0,0,1,.24,2.068,1.634,1.634,0,0,0,.381.914,4.255,4.255,0,0,1,.381,1.781,1.316,1.316,0,0,0,.333,1.059s-.048,1.154-.048,1.3a10.136,10.136,0,0,0,1,1.3s-.43.867-.19,1.2.19,1.539.571,1.926.286,1.971.762,2.261.907.53,1,1.154.478,1.541.909,1.686a.827.827,0,0,1,.209.208l-.19.809-.589,2.448s-.571,3.56-.526,4.089-.571,1.059-.571,1.059-.526,3.08-.621,3.465a3.445,3.445,0,0,0,.048,1.107s-.333,1.829-.1,1.926a10.633,10.633,0,0,1,1.242,1.107h.078l-.1.362-1.648,5.847s-1.524,2.55,2.008,3.849c.118.229.227.234.1.19.116.1,2.476,2.1,2.667,3.03s1.815,1.924,2.388,2.021,4.394,3.175,5.779.145-2.436-5.005-2.436-5.005l-2.908-1.872s-1.48-2.166-1.714-2.55-.669-2.263-.381-2.55a18.849,18.849,0,0,0,1.021-2.72c.038-.12.078-.238.116-.356a3.278,3.278,0,0,0,1.729-.19l2.127-3.356.381-.589.068.137s1.768.145,2.627.29a2.476,2.476,0,0,0,.808-.1c.032.07.065.143.1.215a10.518,10.518,0,0,1,.529,1.377c.143.625.288,2.838.288,2.838s-.952,3.177-1.194,3.754.238,5.39,4.967,3.465c0,0,.571-.914,1.1-.914a2.206,2.206,0,0,0,1.333-2.7c-.482-1.4-2.476-5.678-1.1-7.939,1.112-1.821,1.023-4.263-.472-5.4-.063-.048-.13-.09-.191-.131a5.482,5.482,0,0,0,0-.728c-.335-4.619-2.476-4.861-2.476-4.861s-1.242-.288-1.385-.762a27.508,27.508,0,0,0-2.051-2.882c.031-.05.059-.1.088-.149,0-.017.019-.034.027-.051.042-.078.082-.158.12-.242a9.794,9.794,0,0,0,.478-4.23c-.048-.53,0-1.2,0-1.973s.762-1.926.669-2.358.908-2.213.908-2.648.7-3.034.7-3.034,1.385-2.985,1.672-3.851c.274-.83,5.165-15.969,5.562-17.2a.8.8,0,0,1,.027-.08s1.562-5.11.516-8.466a5.381,5.381,0,0,0-.246-.65c.32-.154.541-.267.541-.267a5.578,5.578,0,0,1-.335-2.5,4.85,4.85,0,0,0,.1-1.973s-1.143-.674-1.192-.962-.526-.674-.381-1.059.952-.19.859-1.059-1.1-1.781-1-2.31.476-1.491,0-2.068a4.073,4.073,0,0,1-.716-2.213c-.013-.19.029-.752.1-1.493a16.767,16.767,0,0,0,1.575.867s2.053.289,2.151.1a4.521,4.521,0,0,1,.621-.674c2.579-.625,1.432-5.333,1.432-5.333s-.038-.345-.1-.912a.5.5,0,0,0,.179-.086c.219-.16.272-.465.406-.7a3.5,3.5,0,0,1,.529-.621,6.07,6.07,0,0,0,1.023-1.817c.171-.411.347-.823.52-1.236a2.195,2.195,0,0,1,2.352-1.678,1.99,1.99,0,0,0-.455-1.166,1.169,1.169,0,0,1,1,.152.409.409,0,0,0,.021-.04h.012A.257.257,0,0,0,434.6,97.044Zm-40.785,13.178c.011-.1.029-.19.049-.286.093-.088.206-.19.326-.286l.667.065c-.164.133-.307.255-.423.354A.577.577,0,0,0,393.817,110.223Zm1.333-1.32a1.025,1.025,0,0,0,.276-.059h.583c-.318.223-.64.47-.926.7l.067-.627Zm1.1-9.714s-.044,1.368.053,2.743c-.149.1-.3.219-.455.339l.337-3.171Z" transform="translate(-370.224 -56.16)" fill="url(#linear-gradient)"/>
      <path id="Path_395" data-name="Path 395" d="M543.753,722.413c-.524,0-1.1.9-1.1.9-4.714,1.9-5.19-2.857-4.952-3.429s1.191-3.714,1.191-3.714-.143-2.19-.286-2.809a10.586,10.586,0,0,0-.527-1.362c-.32-.729-.663-1.448-.663-1.448s2.047-5.047,4.762-4.571a3.061,3.061,0,0,1,1.333.571c1.491,1.124,1.581,3.541.471,5.333-1.381,2.238.619,6.476,1.1,7.857A2.184,2.184,0,0,1,543.753,722.413Z" transform="translate(-492.851 -582.189)" fill="#fdc2cc"/>
      <path id="Path_396" data-name="Path 396" d="M476.665,762.985c-1.381,3-5.19-.048-5.762-.143s-2.19-1.048-2.381-2-2.547-2.9-2.667-3c.128.04.019.034-.1-.19-3.524-1.286-2-3.809-2-3.809l1.642-5.787.453-1.594,5.143-.333s-.352,1.126-.745,2.308a18.458,18.458,0,0,1-1.017,2.691c-.286.286.143,2.143.381,2.524s1.714,2.524,1.714,2.524l2.9,1.857S478.046,759.985,476.665,762.985Z" transform="translate(-432.953 -614.713)" fill="#fdc2cc"/>
      <path id="Path_397" data-name="Path 397" d="M479.386,746.12s-.352,1.126-.745,2.308a1.368,1.368,0,0,1-.684-.451l-4.143.1-.025-.025.453-1.594Z" transform="translate(-441.34 -614.705)" opacity="0.1"/>
      <path id="Path_398" data-name="Path 398" d="M490.626,462.875a.205.205,0,0,1-.025.078c-.4,1.213-5.272,16.19-5.546,17.016-.286.857-1.667,3.809-1.667,3.809s-.714,2.571-.714,3-1,2.19-.9,2.619-.667,1.571-.667,2.333-.048,1.428,0,1.952a9.645,9.645,0,0,1-.478,4.19,2.816,2.816,0,0,1-.657.952,2.028,2.028,0,0,1-.246.191c-1.714,1.143-1.857,12.857-1.857,12.857l-.08.126-.7,1.089L474.96,516.4s-1.714.714-2.524-.286l-4.143.1a10.422,10.422,0,0,0-1.238-1.1c-.238-.1.1-1.9.1-1.9a3.376,3.376,0,0,1-.048-1.1c.1-.381.619-3.428.619-3.428s.619-.524.571-1.048.524-4.047.524-4.047l.587-2.421.289-1.194.6-2.476,4.047-35.76,5.143-1.571,9.9.476,1.086,1.962Z" transform="translate(-435.819 -383.219)" fill="#5f5d7e"/>
      <path id="Path_399" data-name="Path 399" d="M488.251,480.389a23.425,23.425,0,0,0-.19,3.1,29.519,29.519,0,0,1,.286,4.428c-.143.572.524,1.238.762,1.524s.1,1.143.143,1.809a2.436,2.436,0,0,0,.667,1.286s-.714,1.524-.19,1.762,1.619,2.429,1.619,2.429.368.463.855,1.091a2.611,2.611,0,0,1-.9,1.143c-1.714,1.143-1.857,12.857-1.857,12.857l-.08.126-1.063-2.126s-6.333-9.571-6.761-9.714a.671.671,0,0,1-.267-.191l.6-2.476,4.047-35.761,5.143-1.571,9.9.476-5.215.524s-2.318,1.663-2.333,1.714l-4.166,1.762L488.489,476S488.3,479.484,488.251,480.389Z" transform="translate(-447.395 -383.162)" opacity="0.1"/>
      <path id="Path_400" data-name="Path 400" d="M500.82,462.6c-.131.529-13.847-1.057-13.847-1.057l.1,3.666-.762,11.428s-.19,3.476-.238,4.381a23.459,23.459,0,0,0-.19,3.1,29.52,29.52,0,0,1,.286,4.428c-.143.571.524,1.238.762,1.524s.1,1.143.143,1.81a2.434,2.434,0,0,0,.667,1.286s-.714,1.524-.19,1.762,1.619,2.429,1.619,2.429.524.661,1.143,1.472a2.015,2.015,0,0,1-.246.19c-1.714,1.143-1.857,12.857-1.857,12.857l-.08.126-.688,1.093-1.32-2.638s-4.885-7.384-6.366-9.278l.29-1.194.6-2.476,4.047-35.76,5.143-1.571,9.9.476Z" transform="translate(-446.165 -383.219)" opacity="0.1"/>
      <path id="Path_401" data-name="Path 401" d="M543.521,706.549c-.19,3.409-3.783,5.078-5.438,5.455-.32-.729-.663-1.448-.663-1.448s2.047-5.047,4.762-4.571A3.063,3.063,0,0,1,543.521,706.549Z" transform="translate(-492.851 -582.189)" opacity="0.1"/>
      <path id="Path_402" data-name="Path 402" d="M449.477,442.407a23.449,23.449,0,0,0-.191,3.1,29.511,29.511,0,0,1,.286,4.428c-.143.571.524,1.238.762,1.524s.1,1.143.143,1.809a2.436,2.436,0,0,0,.667,1.286s-.714,1.524-.19,1.762,1.619,2.429,1.619,2.429,3.1,3.9,3.238,4.381,1.381.762,1.381.762,2.143.238,2.476,4.809-5.285,6.333-6.143,6.19-2.619-.286-2.619-.286l-1.381-2.762s-6.333-9.571-6.762-9.714-.809-1.047-.9-1.667-.524-.857-1-1.143-.381-1.857-.762-2.238-.333-1.571-.571-1.9.19-1.19.19-1.19a10.074,10.074,0,0,1-1-1.286c0-.143.048-1.286.048-1.286a1.3,1.3,0,0,1-.333-1.048,4.2,4.2,0,0,0-.381-1.762,1.608,1.608,0,0,1-.381-.9,15.256,15.256,0,0,0-.238-2.048,3.768,3.768,0,0,1-.286-1.381,22.11,22.11,0,0,0-.381-2.857,2.8,2.8,0,0,1-.429-1.1c0-.429.048-2.048.048-2.048s-.762-1.381-.429-2.047a4.95,4.95,0,0,0-.381-3.048c-.286-.381-.524-3.714-.809-4s0-1.428,0-1.428l-.429-4.048a4.536,4.536,0,0,1-.048-1.857c.238-.429-.1-1.476-.19-1.952s.238-1.952.143-2.476a5.365,5.365,0,0,1,.25-1.457c.225-.869.512-1.781.512-1.781s24.475-2.286,28,.1a3.994,3.994,0,0,1,1.524,2.192c1.042,3.322-.516,8.381-.516,8.381L450.484,426.6l-.762,11.428S449.524,441.5,449.477,442.407Z" transform="translate(-409.193 -345.181)" fill="#5f5d7e"/>
      <path id="Path_403" data-name="Path 403" d="M494.42,652.546s4.238-1.286,5.238-.428S494.42,652.546,494.42,652.546Z" transform="translate(-458.041 -538.368)" opacity="0.1"/>
      <path id="Path_404" data-name="Path 404" d="M502.42,678.656a3.536,3.536,0,0,1,3.19-.952,5.191,5.191,0,0,0,3.333-.333Z" transform="translate(-464.517 -559.049)" opacity="0.1"/>
      <path id="Path_405" data-name="Path 405" d="M525.92,691.407s3.476-.476,3.619-.048S525.92,691.407,525.92,691.407Z" transform="translate(-483.541 -570.23)" opacity="0.1"/>
      <path id="Path_406" data-name="Path 406" d="M519.86,703.793s3.857-1.143,4.047-.667-4.238.619-4.238.619Z" transform="translate(-478.481 -579.806)" opacity="0.1"/>
      <path id="Path_407" data-name="Path 407" d="M530.045,572.37s-3.619,3.19-3.1,3.524S530.045,572.37,530.045,572.37Z" transform="translate(-484.333 -474.049)" opacity="0.1"/>
      <path id="Path_408" data-name="Path 408" d="M527.92,613.87s2.524,0,2.048.572S527.92,613.87,527.92,613.87Z" transform="translate(-485.16 -507.644)" opacity="0.1"/>
      <path id="Path_409" data-name="Path 409" d="M532.526,625.62s-1,.857-.762,1.047S532.526,625.62,532.526,625.62Z" transform="translate(-488.242 -517.156)" opacity="0.1"/>
      <path id="Path_410" data-name="Path 410" d="M478.17,732.87s3.143,1.048,3.19,1.714S478.17,732.87,478.17,732.87Z" transform="translate(-444.886 -603.978)" opacity="0.1"/>
      <path id="Path_411" data-name="Path 411" d="M478.158,171.7l-1,5.952s-8.666,4.571-8.809,4.571-6.333-1.048-6.571-1.048-4.286-12.238-1.429-13a18.663,18.663,0,0,0,3.12-1.316c3.3-1.651,7.356-4.16,7.356-4.16s6.047-.667,4.571,3.524a3.933,3.933,0,0,0,.3,3.688A5.148,5.148,0,0,0,478.158,171.7Z" transform="translate(-429.636 -142.38)" fill="#fdc2cc"/>
      <path id="Path_412" data-name="Path 412" d="M478.158,189.55l-1,5.952s-8.666,4.571-8.809,4.571-6.333-1.048-6.571-1.048-4.286-12.238-1.429-13a18.669,18.669,0,0,0,3.12-1.316c.779.051,1.308.126,1.308.126a92.926,92.926,0,0,1,2.048,9.523c.143,2.238,5.1,2.476,5.428,2.381s1.714-5.571,1.714-5.571-.143-1.9.286-1.9c.358,0,1.185-1.143,1.442-1.5A5.148,5.148,0,0,0,478.158,189.55Z" transform="translate(-429.636 -160.225)" opacity="0.1"/>
      <path id="Path_413" data-name="Path 413" d="M466.225,416.466a8.151,8.151,0,0,1-2.667.952,10.358,10.358,0,0,0-1.809-.143s-.762.857-1.571.666a28.854,28.854,0,0,0-4-.048s-5.714.238-6.809-.143a37.21,37.21,0,0,0-5-.714,56.431,56.431,0,0,1-6.238-1,1.56,1.56,0,0,0-1.571.19s-.166-.109-.37-.267c.225-.869.512-1.781.512-1.781s24.475-2.286,28,.1A3.944,3.944,0,0,1,466.225,416.466Z" transform="translate(-410.902 -345.189)" opacity="0.1"/>
      <path id="Path_414" data-name="Path 414" d="M424.979,183.426s-4.809-.667-6.714.619a5.634,5.634,0,0,1-2.244.867,4.2,4.2,0,0,0-2.7,1.609c-.122.164-.24.274-.341.286-.429.048-2.809,7.428-2.809,7.428l5.762,8.047s-.143,4.476.667,5.333-1.143,10.666-1.143,10.666-.952,3.381-.524,3.9a1.08,1.08,0,0,1,0,1.19s-.1.857.143.857.524,1.1.286,1.143-1.333.952-.952,1.143,0,.619,0,1.048,1.1,1.143,1.1,1.143a1.56,1.56,0,0,1,1.571-.19,56.421,56.421,0,0,0,6.238,1,37.209,37.209,0,0,1,5,.714c1.1.381,6.809.143,6.809.143a28.849,28.849,0,0,1,4,.048c.81.191,1.571-.667,1.571-.667a10.344,10.344,0,0,1,1.809.143c.524.143,2.952-1.1,2.952-1.1s-.619-1.809-.333-2.476a4.747,4.747,0,0,0,.1-1.952s-1.143-.667-1.19-.952-.524-.667-.381-1.048.952-.19.857-1.048-1.1-1.762-1-2.286.476-1.476,0-2.048a4,4,0,0,1-.714-2.19c-.047-.714.714-7.19.714-7.19l-1.762-13.047,5.381-2.667a20.108,20.108,0,0,0-.571-2.857c-.333-1-.81-2.762-.81-2.762a14.493,14.493,0,0,0-1.333-2.238c-.238-.1-2.762-1.762-3.333-1.524s-5.1,3.714-5.1,3.714-1.1,1.619-1.524,1.619-.286,1.9-.286,1.9-1.381,5.476-1.714,5.571-5.286-.143-5.428-2.381A92.908,92.908,0,0,0,424.979,183.426Z" transform="translate(-389.838 -158.435)" fill="#d39999"/>
      <path id="Path_415" data-name="Path 415" d="M429.048,322.584a10.8,10.8,0,0,1-2.009.248c-.977.027-1.836-.1-2.048-.45a6.751,6.751,0,0,1-.571-2.762s2.583.6,4.365,1.247l.3.111h0a2.861,2.861,0,0,1,1.333.783C430.58,322.083,429.942,322.384,429.048,322.584Z" transform="translate(-401.373 -269.439)" fill="#fdc2cc"/>
      <circle id="Ellipse_19" data-name="Ellipse 19" cx="8.714" cy="8.714" r="8.714" transform="translate(37.665 9.23)" opacity="0.1"/>
      <circle id="Ellipse_20" data-name="Ellipse 20" cx="8.714" cy="8.714" r="8.714" transform="translate(37.665 8.849)" fill="#fdc2cc"/>
      <path id="Path_416" data-name="Path 416" d="M445.67,395.37a21.972,21.972,0,0,1,3.428.238,18.989,18.989,0,0,0,2.952.286A51.625,51.625,0,0,1,445.67,395.37Z" transform="translate(-418.576 -330.761)" opacity="0.1"/>
      <path id="Path_417" data-name="Path 417" d="M446.17,403.37s3.19.238,3.238.714S446.17,403.37,446.17,403.37Z" transform="translate(-418.981 -337.238)" opacity="0.1"/>
      <path id="Path_418" data-name="Path 418" d="M573.67,372.62s1.952.714,1.9.952S573.86,373.191,573.67,372.62Z" transform="translate(-522.196 -312.345)" opacity="0.1"/>
      <path id="Path_419" data-name="Path 419" d="M396.213,239.62l-1.238.857s-.524,3.047-.524,3.762-.857,5.857-.857,5.857a3.946,3.946,0,0,0-.191,1.333,11.857,11.857,0,0,1-.381,2.333,38.517,38.517,0,0,0-1.619,4.19c.1.238,8.142,1,8.142,1l1.143-10.666Z" transform="translate(-374.643 -204.677)" fill="#d39999"/>
      <path id="Path_420" data-name="Path 420" d="M392.609,329.12l-1.19,1.286s-.048,4.19,1.143,4.619,1.952.238,2.333.571a13.029,13.029,0,0,0,2.428.952,18.445,18.445,0,0,0,2.9.238c.667-.1-3.9-3.762-.9-6.857Z" transform="translate(-374.658 -277.13)" fill="#d39999"/>
      <path id="Path_421" data-name="Path 421" d="M577.813,222.12l1.667,1.857a33.67,33.67,0,0,1,.524,5.047c-.191.619,1,11.38,1,11.38s1.143,4.667-1.428,5.286a4.5,4.5,0,0,0-.619.667c-.1.19-2.143-.1-2.143-.1l-3.143-20.618Z" transform="translate(-522.196 -190.51)" fill="#d39999"/>
      <path id="Path_422" data-name="Path 422" d="M441.205,279.846s6.238-3.714,7.381-3.9,8.238-3.571,8.238-3.571,3.524,1.809,3.857,3.19-1.476,6.9-1.476,6.9-5.809,4.047-6.143,4.9-5.333,3.381-5.333,3.809-7.9,5.095-11.38,1-3.428-5.285-3.428-5.285l8.809-2.047.857-3.809Z" transform="translate(-408.254 -231.189)" opacity="0.1"/>
      <path id="Path_423" data-name="Path 423" d="M441.205,277.846s6.238-3.714,7.381-3.9,8.238-3.571,8.238-3.571,3.524,1.809,3.857,3.19-1.476,6.9-1.476,6.9-5.809,4.047-6.143,4.9-5.333,3.381-5.333,3.809-7.9,5.1-11.38,1-3.428-5.285-3.428-5.285l8.809-2.048.857-3.809Z" transform="translate(-408.254 -229.57)" fill="#c4c8e2"/>
      <path id="Path_424" data-name="Path 424" d="M396.118,310.5l-.286,2.381-2.265-.166-2.211-.164s-1.286,0-2.1-1.9,1.81-2.19,1.952-1.9a28.305,28.305,0,0,0,4.19,1.537Z" transform="translate(-372.786 -260.553)" fill="#fdc2cc"/>
      <path id="Path_425" data-name="Path 425" d="M415.08,317.431l-.286,2.381-2.265-.166c.37-.549,1.143-1.552,1.838-2.436Z" transform="translate(-391.748 -267.488)" opacity="0.1"/>
      <path id="Path_426" data-name="Path 426" d="M424.42,319.62s2.583.6,4.365,1.247a7.207,7.207,0,0,1-1.747,1.964c-.977.027-1.836-.1-2.048-.45A6.751,6.751,0,0,1,424.42,319.62Z" transform="translate(-401.373 -269.439)" opacity="0.1"/>
      <path id="Path_427" data-name="Path 427" d="M448.28,328.364l-.042-.329s-.019-.071-.036-.177a1.179,1.179,0,0,1,.1-.806c.093-.131.072-.225.011-.291a2.861,2.861,0,0,1,1.333.783C449.812,327.863,449.174,328.164,448.28,328.364Z" transform="translate(-420.605 -275.219)" opacity="0.1"/>
      <path id="Path_428" data-name="Path 428" d="M406.365,301.758a23.613,23.613,0,0,0-2.747,3.143c-.16.554-5.047.571-5.047.571l-.333-2.667s-.019-.071-.036-.177a1.179,1.179,0,0,1,.1-.806c.238-.333-.271-.429-.271-.429s-1.318,2.173-2.428,2.238c0,0-1.539,1.11-1.524,1.333a2.444,2.444,0,0,0-.762,1.507c-.015.825-.968,1.16-1.667.922a11.189,11.189,0,0,0-2.985-.667c-.556.08-2.316.6-2.253-1.032,0,0,2.286-1.714,2.857-1.667a2.9,2.9,0,0,0,2.1-1.143c.19-.524,3.428-4.524,3.428-4.524s2.048-1.937,2.872-2.128c0,0,1.651-1.286,4.143.667a35.221,35.221,0,0,1,3.556,2.411c.088.225,1.087,1.185,1.171,1.9A.589.589,0,0,1,406.365,301.758Z" transform="translate(-370.604 -250.172)" fill="#fdc2cc"/>
      <path id="Path_429" data-name="Path 429" d="M447.673,307.12a8.011,8.011,0,0,1,.128,1.985c-.126.524-.381,1.428-.381,1.428S448.959,308.12,447.673,307.12Z" transform="translate(-419.993 -259.32)" opacity="0.1"/>
      <path id="Path_430" data-name="Path 430" d="M449.33,322.867s.794-.874.97-.651S449.33,322.867,449.33,322.867Z" transform="translate(-421.539 -271.511)" opacity="0.1"/>
      <path id="Path_431" data-name="Path 431" d="M572.692,255.354a5.573,5.573,0,0,1-4.046,5.36,5.486,5.486,0,0,1-1.5.213h-.029a5.571,5.571,0,0,1-5.569-5.573,5.317,5.317,0,0,1,.088-.975,5.562,5.562,0,0,1,5.078-4.571c.133-.011.268-.017.4-.017A5.571,5.571,0,0,1,572.692,255.354Z" transform="translate(-512.384 -212.91)" fill="#f8bdc5"/>
      <path id="Path_432" data-name="Path 432" d="M597.177,250.876a1.958,1.958,0,0,1,.453,1.154,2.189,2.189,0,0,0-2.347,1.661q-.261.611-.518,1.223a6.029,6.029,0,0,1-1.019,1.8,3.512,3.512,0,0,0-.529.613c-.131.238-.19.539-.4.7a.762.762,0,0,1-.72.04c-.234-.088-.444-.234-.678-.328a2.154,2.154,0,0,0-.467-.122h0a5.117,5.117,0,0,1-2.057-.328,1.221,1.221,0,0,1-.191-.156,1.842,1.842,0,0,1-.486-.823.928.928,0,0,1-.046-.394.852.852,0,0,1,.442-.571c.032-.019.065-.038.1-.055.571-.3,1.366-.37,1.665-.952a1.541,1.541,0,0,0-.5-1.67c-.206-.21-.449-.448-.421-.741.026-.259.257-.44.449-.613a3.337,3.337,0,0,0,1.044-1.872,1.422,1.422,0,0,0-.011-.676,1.782,1.782,0,0,0-.242-.444l-.617-.914a2.507,2.507,0,0,0-.762-.808c-.257-.154-.552-.208-.811-.36a.645.645,0,0,1-.24-.229.246.246,0,0,1-.031-.179c.032-.152.19-.227.349-.27a3.393,3.393,0,0,1,1.261-.12.982.982,0,0,0,.408,0,.288.288,0,0,0,.211-.31c.469-.122.912.244,1.255.587s.762.718,1.246.621c.173-.034.333-.133.509-.152s.392.1.381.272-.232.291-.213.463a.342.342,0,0,0,.078.16,4.022,4.022,0,0,0,.775.8v-1.013c.381.1.52.583.476.977a3.5,3.5,0,0,0-.1,1.177.432.432,0,0,0,.229.31.572.572,0,0,0,.3,0,2.271,2.271,0,0,1,2.329.876l-.762-.276.886.484a.931.931,0,0,1,.316.238.316.316,0,0,1,.023.37A1.183,1.183,0,0,0,597.177,250.876Z" transform="translate(-533.931 -209.116)" fill="#585268"/>
      <g id="Group_3" data-name="Group 3" transform="translate(54.275 35.946)" opacity="0.1">
        <path id="Path_433" data-name="Path 433" d="M626.613,266.949a.575.575,0,0,0,.3,0c.086-.012.172-.019.259-.025a3.061,3.061,0,0,0-.571.017Z" transform="translate(-619.319 -262.721)"/>
        <path id="Path_434" data-name="Path 434" d="M636.43,270.26l.328.181-.061-.086Z" transform="translate(-627.277 -265.427)"/>
        <path id="Path_435" data-name="Path 435" d="M621.911,255.153v-.667a.587.587,0,0,0-.381-.347v.67A4.091,4.091,0,0,0,621.911,255.153Z" transform="translate(-615.215 -252.377)"/>
        <path id="Path_436" data-name="Path 436" d="M638.43,275.006a1.184,1.184,0,0,1,.469.19.235.235,0,0,0,.048-.154A1.211,1.211,0,0,0,638.43,275.006Z" transform="translate(-628.896 -269.258)"/>
        <path id="Path_437" data-name="Path 437" d="M592.685,259.287c-.234-.088-.444-.234-.678-.328a2.165,2.165,0,0,0-.467-.122h0a5.114,5.114,0,0,1-2.057-.328,1.23,1.23,0,0,1-.191-.156,1.845,1.845,0,0,1-.486-.823.924.924,0,0,1-.046-.394.851.851,0,0,1,.442-.571c.032-.019.065-.038.1-.055.581-.3,1.366-.37,1.665-.952a1.541,1.541,0,0,0-.5-1.67c-.206-.21-.449-.448-.421-.741.027-.259.257-.44.449-.613a3.336,3.336,0,0,0,1.044-1.872,1.423,1.423,0,0,0-.012-.676,1.789,1.789,0,0,0-.242-.444l-.617-.914a2.508,2.508,0,0,0-.762-.808c-.257-.154-.552-.208-.812-.36a.645.645,0,0,1-.24-.229.245.245,0,0,1-.031-.179c.032-.152.2-.227.349-.271a3.527,3.527,0,0,1,.762-.126,3.429,3.429,0,0,0-1.143.126c-.148.044-.316.118-.349.271a.246.246,0,0,0,.03.179.645.645,0,0,0,.24.229c.259.152.554.206.811.36a2.506,2.506,0,0,1,.762.808l.617.914a1.8,1.8,0,0,1,.242.444,1.417,1.417,0,0,1,.011.676,3.336,3.336,0,0,1-1.044,1.872c-.19.173-.423.354-.45.613-.029.293.215.531.421.741a1.541,1.541,0,0,1,.5,1.67c-.3.581-1.084.651-1.665.952-.034.017-.066.036-.1.055a.85.85,0,0,0-.442.571.926.926,0,0,0,.046.394,1.845,1.845,0,0,0,.486.823,1.229,1.229,0,0,0,.191.156c.592.381,1.36.225,2.057.328h0a2.172,2.172,0,0,1,.467.122c.234.093.444.24.678.328a.9.9,0,0,0,.537.046A1.145,1.145,0,0,1,592.685,259.287Z" transform="translate(-588.375 -246.312)"/>
        <path id="Path_438" data-name="Path 438" d="M614.019,250.685a2.8,2.8,0,0,0,.345-.112.411.411,0,0,0-.217-.04,4,4,0,0,0-.476.145A.794.794,0,0,0,614.019,250.685Z" transform="translate(-608.852 -249.455)"/>
        <path id="Path_439" data-name="Path 439" d="M599.064,245.225a.978.978,0,0,0,.407-.01.288.288,0,0,0,.212-.309.76.76,0,0,0-.381,0,.288.288,0,0,1-.211.31l-.04.01Z" transform="translate(-597.017 -244.883)"/>
      </g>
      <path id="Path_440" data-name="Path 440" d="M533.957,252.7a5.77,5.77,0,0,1-2.886.838,15.5,15.5,0,0,1-2.447,0l-1.834-.689s.149-.3.4-.686c.5-.777,1.411-1.933,2.362-1.886,1.429.07,2.929.141,3.072.141S535.552,251.506,533.957,252.7Z" transform="translate(-484.245 -213.3)" fill="#fdc2cc"/>
      <path id="Path_441" data-name="Path 441" d="M471.841,62.79a9.831,9.831,0,0,0-4,.482c-2.5,1.034-3.68,3.8-5.192,6.026a17.236,17.236,0,0,1-4.714,4.668c-.876.571-1.893,1.2-2.1,2.228-.225,1.088.552,2.1.952,3.126.848,2.192,0,4.621-.5,6.918a22.45,22.45,0,0,0-.451,3.348,4.648,4.648,0,0,0,.1,1.558c.381,1.345,1.821,2.316,1.832,3.714,0,.952-.67,1.851-.474,2.777.253,1.183,1.689,1.609,2.88,1.813a1.473,1.473,0,0,0,.867-.027c.19-.091.347-.267.541-.364.661-.328,1.394.364,2.133.35.928-.017,1.449-1.112,1.472-2.04a8.19,8.19,0,0,1,.109-2.762c.444-1.143,1.714-1.686,2.786-2.286a5.171,5.171,0,0,0,2.667-2.937,6.872,6.872,0,0,0,.032-2.5c-.133-1.28-.238-2.566-.311-3.849a5.426,5.426,0,0,1,5.8-5.75h.061c.952.078,2.076.17,2.749-.524.267-.276.436-.657.762-.848.636-.362,1.51.154,2.15-.2a1.468,1.468,0,0,0,.529-1.524,5.378,5.378,0,0,1-.171-1.7c.152-.794.874-1.362,1.143-2.126a3.179,3.179,0,0,0-.5-2.632,10.6,10.6,0,0,0-7.6-4.786C474.206,62.822,473.023,62.809,471.841,62.79Z" transform="translate(-426.768 -61.519)" fill="#865a61"/>
      <path id="Path_442" data-name="Path 442" d="M527.19,260.15a19.208,19.208,0,0,1,3.882,1.379,15.5,15.5,0,0,1-2.447,0l-1.834-.69A7.949,7.949,0,0,1,527.19,260.15Z" transform="translate(-484.245 -221.296)" opacity="0.1"/>
      <path id="Path_443" data-name="Path 443" d="M569.4,280.91a5.121,5.121,0,0,1-2.057-.328,1.23,1.23,0,0,1-.19-.156h-.029a5.571,5.571,0,0,1-5.579-5.571,5.316,5.316,0,0,1,.088-.975,13.434,13.434,0,0,1,3.84,2.762,11.337,11.337,0,0,0,1.581,1.994c.531.571,1.1,1.12,1.589,1.579C568.936,280.484,569.2,280.722,569.4,280.91Z" transform="translate(-512.384 -232.411)" opacity="0.1"/>
      <path id="Path_444" data-name="Path 444" d="M531.323,270.662s-3.476-3-4.429-4.714-14.333-9-12.618-3.476,7.619,6.047,7.619,6.047,1.9,2.143,2.1,3.19a14.913,14.913,0,0,0,.857,2.571l3.19,1.429,1.476-.333S532.99,273.471,531.323,270.662Z" transform="translate(-473.992 -221.529)" fill="#fdc2cc"/>
      <path id="Path_445" data-name="Path 445" d="M569.42,313.906s5.619,3.19,6.19-4.286l1.429.476-1.429,5.047-2.428,1.762S569.8,315.334,569.42,313.906Z" transform="translate(-518.756 -261.344)" opacity="0.1"/>
      <path id="Path_446" data-name="Path 446" d="M570.42,314.906s5.619,3.19,6.19-4.286l1.428.476-1.428,5.047-2.429,1.762S570.8,316.334,570.42,314.906Z" transform="translate(-519.565 -262.154)" fill="#d39999"/>
      <path id="Path_447" data-name="Path 447" d="M549.449,109.72a17.284,17.284,0,0,1,.48-1.956,5.168,5.168,0,0,0,.057-1.935,2.81,2.81,0,0,0-.5-1.288c-.191-.238-.762-.762-1.1-.526-.191.135-.242.918-.318,1.143A9.878,9.878,0,0,1,547,107.3a8.712,8.712,0,0,1-7.047,13.824c-.208,0-.413-.01-.617-.025-.19.331-.364.667-.539,1a3.105,3.105,0,0,0-.411,1.11,2.893,2.893,0,0,0,.169,1.1,15.585,15.585,0,0,0,1.459,3.331,5.042,5.042,0,0,1,.524,1.042c.109.352.128.729.269,1.069a3.2,3.2,0,0,0,1.9,1.461,3.111,3.111,0,0,0,1.423.341.331.331,0,0,0,.356-.337,1.289,1.289,0,0,0-.381-1.1,5.465,5.465,0,0,0,2,.238.322.322,0,0,0,.347-.472,8.571,8.571,0,0,0-.8-2.061c-.347-.64-.789-1.385-.472-2.038a2.258,2.258,0,0,1,.908-.821,4.063,4.063,0,0,0,2.118-3.4c-.049-.762-.434-1.488-.457-2.255-.059-1.872,1.956-3.211,2.261-5.061C550.263,112.747,549.3,111.25,549.449,109.72Z" transform="translate(-493.633 -94.853)" fill="#865a61"/>
      <g id="Group_4" data-name="Group 4" transform="translate(28.931 7.718)" opacity="0.1">
        <path id="Path_448" data-name="Path 448" d="M457.288,208.654c-.011-1.4-1.45-2.369-1.832-3.714a3.127,3.127,0,0,1-.109-.649,4.276,4.276,0,0,0,.109,1.411c.351,1.229,1.577,2.147,1.8,3.364A2.3,2.3,0,0,0,457.288,208.654Z" transform="translate(-455.328 -183.794)"/>
        <path id="Path_449" data-name="Path 449" d="M469.4,243.229c-.739.013-1.472-.678-2.133-.35-.19.1-.343.272-.541.364a1.472,1.472,0,0,1-.867.027c-1.187-.2-2.619-.629-2.876-1.8a1.95,1.95,0,0,0,0,.75c.253,1.183,1.689,1.609,2.88,1.813a1.472,1.472,0,0,0,.867-.027c.191-.091.347-.267.541-.364.661-.328,1.394.364,2.133.351.928-.017,1.449-1.112,1.472-2.04,0-.19,0-.381-.013-.571C470.768,242.26,470.265,243.212,469.4,243.229Z" transform="translate(-461.495 -213.819)"/>
        <path id="Path_450" data-name="Path 450" d="M509.819,195.212a5.2,5.2,0,0,1-2.667,2.937c-1.072.6-2.343,1.143-2.787,2.286a3.644,3.644,0,0,0-.164,1.533,2.7,2.7,0,0,1,.164-.771c.444-1.143,1.714-1.686,2.787-2.286a5.172,5.172,0,0,0,2.667-2.937,4.825,4.825,0,0,0,.12-1.524A3.922,3.922,0,0,1,509.819,195.212Z" transform="translate(-494.874 -175.828)"/>
        <path id="Path_451" data-name="Path 451" d="M542.988,127.062a2.348,2.348,0,0,0-1.333.08c-.333.19-.5.571-.762.848-.672.693-1.786.6-2.748.524h-.061a5.428,5.428,0,0,0-5.8,5.75v.076a5.422,5.422,0,0,1,5.8-5.065h.061c.952.078,2.076.169,2.748-.524.267-.276.436-.657.762-.848a2.334,2.334,0,0,1,1.333-.08,8.681,8.681,0,0,1,.619,2.857c0-.124.01-.248.01-.381a8.7,8.7,0,0,0-.625-3.238Z" transform="translate(-517.615 -121.23)"/>
        <path id="Path_452" data-name="Path 452" d="M456.652,138.145a5.886,5.886,0,0,0-.349-2.438,13.372,13.372,0,0,1-.952-2.337c-.208,1.076.56,2.072.952,3.1A5.464,5.464,0,0,1,456.652,138.145Z" transform="translate(-455.316 -126.382)"/>
        <path id="Path_453" data-name="Path 453" d="M596.484,116.12a4.953,4.953,0,0,1-.107.73,17.218,17.218,0,0,0-.48,1.956,3.733,3.733,0,0,0,0,.716,18.323,18.323,0,0,1,.474-1.9A5.164,5.164,0,0,0,596.484,116.12Z" transform="translate(-569.107 -112.417)"/>
        <path id="Path_454" data-name="Path 454" d="M589.316,153.366c-.3,1.849-2.32,3.188-2.261,5.061a2.69,2.69,0,0,0,.026.3c.24-1.64,1.956-2.907,2.234-4.6a3.523,3.523,0,0,0,.019-.928A1.217,1.217,0,0,1,589.316,153.366Z" transform="translate(-561.962 -142.435)"/>
        <path id="Path_455" data-name="Path 455" d="M597.836,97.032a5.335,5.335,0,0,1-.686,1.143,2.658,2.658,0,0,1,.19.48,3.789,3.789,0,0,0,.489-.87,2.285,2.285,0,0,0,.088-1.1A2.016,2.016,0,0,1,597.836,97.032Z" transform="translate(-570.135 -96.68)"/>
        <path id="Path_456" data-name="Path 456" d="M576.109,195.39a4.444,4.444,0,0,1-2.1,2.846,2.314,2.314,0,0,0-.909.821,1.262,1.262,0,0,0-.051.891.843.843,0,0,1,.051-.13,2.259,2.259,0,0,1,.909-.821,4.062,4.062,0,0,0,2.118-3.4C576.128,195.527,576.119,195.459,576.109,195.39Z" transform="translate(-550.582 -176.589)"/>
        <path id="Path_457" data-name="Path 457" d="M543.853,211.765a.407.407,0,0,1-.246.084,3.088,3.088,0,0,1-1.423-.341,3.185,3.185,0,0,1-1.9-1.461c-.141-.339-.16-.716-.268-1.069a5.035,5.035,0,0,0-.524-1.042,15.559,15.559,0,0,1-1.459-3.331,5.144,5.144,0,0,1-.137-.535c-.013.063-.025.128-.032.19a2.892,2.892,0,0,0,.17,1.1,15.564,15.564,0,0,0,1.459,3.331,5.036,5.036,0,0,1,.524,1.042c.109.352.128.729.268,1.069a3.2,3.2,0,0,0,1.9,1.461,3.112,3.112,0,0,0,1.423.341.331.331,0,0,0,.356-.337,1.259,1.259,0,0,0-.057-.571A.234.234,0,0,1,543.853,211.765Z" transform="translate(-522.135 -183.616)"/>
        <path id="Path_458" data-name="Path 458" d="M570.159,237.569a.608.608,0,0,1-.249.059,5.466,5.466,0,0,1-2-.238,1.287,1.287,0,0,1,.391.867,5.446,5.446,0,0,0,1.609.133.322.322,0,0,0,.346-.472C570.228,237.8,570.194,237.683,570.159,237.569Z" transform="translate(-546.465 -210.589)"/>
      </g>
      <path id="Path_459" data-name="Path 459" d="M440.04,260.37s-.19,3.9.381,4.19S440.04,260.37,440.04,260.37Z" transform="translate(-413.994 -221.475)" opacity="0.1"/>
      <path id="Path_460" data-name="Path 460" d="M496.92,314.37c.19,0,.952.381,1.048.809S496.92,314.37,496.92,314.37Z" transform="translate(-460.064 -265.189)" opacity="0.1"/>
      <path id="Path_461" data-name="Path 461" d="M494.42,317.62c.191,0,.952.381,1.048.81S494.42,317.62,494.42,317.62Z" transform="translate(-458.041 -267.82)" opacity="0.1"/>
      <path id="Path_462" data-name="Path 462" d="M503.67,326.62c.19,0,.952.381,1.048.81S503.67,326.62,503.67,326.62Z" transform="translate(-465.529 -275.106)" opacity="0.1"/>
      <path id="Path_463" data-name="Path 463" d="M456.473,324.272a23.611,23.611,0,0,0-2.747,3.143c-.16.554-5.047.571-5.047.571l-.333-2.667s-.019-.07-.036-.177c1.35-.347,5.729-1.964,8.335-1.39A.588.588,0,0,1,456.473,324.272Z" transform="translate(-420.713 -272.686)" opacity="0.1"/>
      <path id="Path_464" data-name="Path 464" d="M426.8,328.321s2.493-2.206,3.255-2.158,10.047-3.9,10.666.524-11.857,4.666-11.857,4.666l-1.9.714S425.369,328.606,426.8,328.321Z" transform="translate(-402.815 -273.458)" fill="#fdc2cc"/>
      <path id="Path_465" data-name="Path 465" d="M424.691,343.268s1.143-1.587,1.491.349.874,4.318.874,4.318l-2.556-1.27Z" transform="translate(-401.438 -288.088)" fill="#d39999"/>
    </g>
  </g>
</svg>
