<svg xmlns="http://www.w3.org/2000/svg" width="42.424" height="50" viewBox="0 0 42.424 50">
  <g id="Group_1624" data-name="Group 1624" transform="translate(-4085 -940)">
    <g id="Rectangle_186" data-name="Rectangle 186" transform="translate(4085 940)" fill="none" stroke="#090909" stroke-width="1">
      <rect width="42.424" height="50" stroke="none"/>
      <rect x="0.5" y="0.5" width="41.424" height="49" fill="none"/>
    </g>
    <path id="image" d="M6.819,10.292l1.736,2.083L10.986,9.25l3.125,4.167H4.389m11.111.694V4.389A1.389,1.389,0,0,0,14.111,3H4.389A1.389,1.389,0,0,0,3,4.389v9.722A1.389,1.389,0,0,0,4.389,15.5h9.722A1.389,1.389,0,0,0,15.5,14.111Z" transform="translate(4088.288 945.561)" fill="#000000"/>
    <path id="text" d="M14.25,6V7.25H3V6H14.25M3,13.5H8.625V12.25H3V13.5m0-3.125H14.25V9.125H3Z" transform="translate(4104.727 943)" fill="#000000"/>
    <path id="image-2" data-name="image" d="M6.819,10.292l1.736,2.083L10.986,9.25l3.125,4.167H4.389m11.111.694V4.389A1.389,1.389,0,0,0,14.111,3H4.389A1.389,1.389,0,0,0,3,4.389v9.722A1.389,1.389,0,0,0,4.389,15.5h9.722A1.389,1.389,0,0,0,15.5,14.111Z" transform="translate(4104.727 964.803)" fill="#000000"/>
    <path id="text-2" data-name="text" d="M14.25,6V7.25H3V6H14.25M6.876,13.5H14.25V12.25H6.876V13.5M3,10.375H14.25V9.125H3Z" transform="translate(4090.561 964.076)" fill="#000000"/>
  </g>
</svg>
