<svg xmlns="http://www.w3.org/2000/svg" width="963.527" height="700.216" viewBox="0 0 963.527 700.216">
  <g id="Group_1595" data-name="Group 1595" transform="translate(-355.955 -155.658)">
    <path id="Path_1" data-name="Path 1" d="M421.005,1114.407s-118.381-123.06-20.02-256.291c87.272-118.211,189.023-110.13,263.675-62.159,31.8,20.431,123.466,2.518,201.489-117.766,106.4-164.035,475.229-64.547,407.979,187.825-32.543,122.13,99.043,126.569,31.995,248.65Z" transform="translate(-5.962 -259.772)" fill="#ebf3fa"/>
    <path id="Path_2" data-name="Path 2" d="M908.906,1722.573s29.578-50.9,96.8-47.06,85.37-47.311,156.855-39.639,84.692,51.434,133.557,51.93,135.682-5.6,118.686,37.088Z" transform="translate(-319.85 -869.019)" fill="#a8d29f"/>
    <g id="Group_2" data-name="Group 2" transform="translate(405.801 302.592)">
      <g id="Group_1" data-name="Group 1" transform="translate(0)">
        <path id="Path_3" data-name="Path 3" d="M764.95,579.244l-38.19-67.468s-56.976,16.305-130,55.054c-7.439,3.946-14.772,8.029-21.916,12.167a928,928,0,0,0-95.959,64.3l38.19,67.468c59.261,104.7,178.271,155.115,220.563,130.512l11.123-5.9A48.7,48.7,0,0,0,758.937,828C797.836,791.88,819.6,675.8,764.95,579.244ZM665.123,649.47A93.53,93.53,0,0,1,711.9,615.729c14.306-4.637,25.13-4.487,25.583-4.479a4.691,4.691,0,1,1-.18,9.376h-.11a78.167,78.167,0,0,0-22.589,4.113,82.719,82.719,0,0,0-41.588,30.169,4.775,4.775,0,0,1-1.616,1.39,4.964,4.964,0,0,1-5.137-.29A4.594,4.594,0,0,1,665.123,649.47Zm-63.231,35.074A82.711,82.711,0,0,0,560.3,714.713a4.837,4.837,0,0,1-1.616,1.394,4.975,4.975,0,0,1-5.137-.294,4.594,4.594,0,0,1-1.14-6.538,93.557,93.557,0,0,1,46.778-33.74,97.863,97.863,0,0,1,10.471-2.761,75.267,75.267,0,0,1,15.112-1.718,4.691,4.691,0,1,1-.18,9.376h-.071a63.845,63.845,0,0,0-9.886.972A85.925,85.925,0,0,0,601.891,684.544Zm67.214,115.864a4.45,4.45,0,0,1-6.888-4.39c2.667-14.217,7.707-25.86,15.173-34.622a50.676,50.676,0,0,1,14.939-12.01c22.058-11.7,45.576-4.8,57.8.46a4.268,4.268,0,0,1,0,7.893c-10.2,4.437-27.727,12.27-41.935,19.677-3.029,1.576-5.982,3.17-8.839,4.747C686.77,789.123,676.035,795.874,669.106,800.408Z" transform="translate(-478.884 -511.776)" fill="#6bb7bf"/>
        <path id="Path_4" data-name="Path 4" d="M758.937,923.7a48.7,48.7,0,0,1-10.177,7.373l-11.123,5.9c-42.292,24.6-161.3-25.813-220.563-130.512L478.884,739a927.964,927.964,0,0,1,95.959-64.3,318.608,318.608,0,0,0,34.813,93.772v0a97.778,97.778,0,0,0-10.471,2.762,93.556,93.556,0,0,0-46.778,33.74,4.594,4.594,0,0,0,1.14,6.538,4.976,4.976,0,0,0,5.137.294,4.835,4.835,0,0,0,1.616-1.394,82.712,82.712,0,0,1,41.592-30.169A85.947,85.947,0,0,1,614.63,777.1c18.32,30.817,40.395,57.5,62.76,79.994-7.465,8.762-12.505,20.405-15.173,34.622a4.45,4.45,0,0,0,6.888,4.39c6.929-4.535,17.664-11.285,30.253-18.245l0,0A535.55,535.55,0,0,0,758.937,923.7Z" transform="translate(-478.884 -607.475)" fill="#599dad" opacity="0.3"/>
      </g>
    </g>
    <g id="Group_4" data-name="Group 4" transform="translate(955.561 393.006)">
      <g id="Group_3" data-name="Group 3" transform="translate(0)">
        <path id="Path_5" data-name="Path 5" d="M1978.461,789.532c-7.315-4.151-14.706-8.144-22.039-11.954a942.935,942.935,0,0,0-106.281-46.671l-40.162,66.381c-62.333,103.016-45.866,227.774-2.337,250.264l10.947,6.209a49.511,49.511,0,0,0,11.761,4.662c51.993,13.757,166.034-27.8,223.517-122.8l40.166-66.381S2050.314,830.283,1978.461,789.532Zm-154.219,40.644a4.8,4.8,0,0,1,5.207-4.3,95.2,95.2,0,0,1,53.934,21.522,93.8,93.8,0,0,1,7.826,7.284,70.981,70.981,0,0,1,9.284,11.668,4.608,4.608,0,0,1-1.8,6.4,4.933,4.933,0,0,1-6.6-1.73,51.213,51.213,0,0,0-3.808-5.225c-.638-.789-1.36-1.645-2.166-2.548a82.822,82.822,0,0,0-9.336-8.967,84.362,84.362,0,0,0-48.1-19.05,4.988,4.988,0,0,1-2.064-.626A4.66,4.66,0,0,1,1824.241,830.176ZM1905.4,993.7c-21.842,7.952-41.073,7.858-56.792-1.057a52.883,52.883,0,0,1-8.517-6c-14.83-12.815-19.385-31.264-20.767-42.247a4.456,4.456,0,0,1,6.99-4.062c5.458,3.687,13.311,8.911,21.7,14.221,5.709,3.614,11.665,7.266,17.281,10.51,15.957,9.2,31.16,16.454,40.457,20.657A4.276,4.276,0,0,1,1905.4,993.7ZM2009.6,935.646a4.933,4.933,0,0,1-6.6-1.73,49.227,49.227,0,0,0-3.807-5.229,81.861,81.861,0,0,0-11.5-11.515,84.44,84.44,0,0,0-48.1-19.05,4.868,4.868,0,0,1-2.064-.627,4.65,4.65,0,0,1-2.381-4.415,4.8,4.8,0,0,1,5.212-4.3,95.2,95.2,0,0,1,53.93,21.522c11.457,9.5,16.885,18.568,17.11,18.952A4.608,4.608,0,0,1,2009.6,935.646Z" transform="translate(-1768.937 -730.907)" fill="#f99746"/>
        <path id="Path_6" data-name="Path 6" d="M1956.422,777.578a327.607,327.607,0,0,0-65.208,77.1,0,0,0,0,1,0,0,93.8,93.8,0,0,0-7.826-7.284,95.2,95.2,0,0,0-53.934-21.522,4.8,4.8,0,0,0-5.207,4.3,4.66,4.66,0,0,0,2.381,4.419,4.988,4.988,0,0,0,2.064.626,84.362,84.362,0,0,1,48.1,19.05,82.822,82.822,0,0,1,9.336,8.967,404.582,404.582,0,0,0-38.1,91.316c-8.39-5.31-16.242-10.535-21.7-14.221a4.456,4.456,0,0,0-6.99,4.062c1.382,10.983,5.938,29.432,20.767,42.247a504.479,504.479,0,0,0-9.746,71.781,49.511,49.511,0,0,1-11.761-4.662l-10.947-6.209c-43.53-22.49-60-147.248,2.337-250.264l40.162-66.381A942.935,942.935,0,0,1,1956.422,777.578Z" transform="translate(-1768.937 -730.907)" fill="#f48d3b"/>
      </g>
    </g>
    <g id="Group_6" data-name="Group 6" transform="translate(944.38 206.815)">
      <g id="Group_5" data-name="Group 5" transform="translate(0)">
        <path id="Path_7" data-name="Path 7" d="M1810.586,298.639c-2.371-1.345-4.765-2.639-7.141-3.873a305.474,305.474,0,0,0-34.434-15.121L1756,301.152c-20.2,33.377-14.86,73.8-.757,81.084l3.547,2.012a16.028,16.028,0,0,0,3.811,1.511c16.845,4.457,53.794-9.007,72.418-39.788l13.013-21.507S1833.866,311.843,1810.586,298.639Zm-49.967,13.169a1.556,1.556,0,0,1,1.687-1.395,30.845,30.845,0,0,1,17.475,6.973,30.426,30.426,0,0,1,2.536,2.36,23.02,23.02,0,0,1,3.008,3.781,1.494,1.494,0,0,1-.582,2.073,1.6,1.6,0,0,1-2.139-.561,16.612,16.612,0,0,0-1.234-1.693c-.207-.255-.441-.533-.7-.826a26.878,26.878,0,0,0-3.025-2.905,27.328,27.328,0,0,0-15.583-6.172,1.617,1.617,0,0,1-.669-.2A1.51,1.51,0,0,1,1760.619,311.808Zm26.3,52.981c-4.428,5.932-15.669,3.274-20.566.083-8.263-5.385-10.453-13.494-7.322-16.057C1770.4,339.505,1791.612,358.5,1786.916,364.789Zm33.759-18.809a1.6,1.6,0,0,1-2.14-.56,15.88,15.88,0,0,0-1.233-1.695,26.536,26.536,0,0,0-3.725-3.731,27.359,27.359,0,0,0-15.585-6.172,1.58,1.58,0,0,1-.669-.2,1.5,1.5,0,0,1-.771-1.43,1.554,1.554,0,0,1,1.688-1.395,30.842,30.842,0,0,1,17.474,6.973,26.2,26.2,0,0,1,5.543,6.14A1.493,1.493,0,0,1,1820.675,345.98Z" transform="translate(-1742.701 -279.645)" fill="#ebf3fa"/>
      </g>
    </g>
    <g id="Group_9" data-name="Group 9" transform="translate(735.479 155.658)">
      <path id="Path_8" data-name="Path 8" d="M1400.9,869.077c-4.233,62.9-8.789,142.3-4.982,153.036,4.982,14.053-2.286,173.8-2.286,173.8l-21.468-1.264s-28.92-139.218-25.766-159.841a130.3,130.3,0,0,0,1.182-26.724,101.208,101.208,0,0,0-1.182-11.143c-19.576-63.844-25.692-112.741-26.915-145.684-1.223-32.963,2.46-49.954,2.46-49.954l84.679-10.964S1403.817,825.815,1400.9,869.077Z" transform="translate(-1290.797 -528.469)" fill="#ffb27d"/>
      <path id="Path_9" data-name="Path 9" d="M1498.494,784.124s23.473,77.473-1.923,208.417c-1.8,9.3-2.326,17.369,1.812,37.829s-18.092,160.826-18.092,160.826l-20.752.017s-4.884-144.064-11.231-171.3c-9.188-39.434-21.777-231.048-21.777-231.048Z" transform="translate(-1352.366 -524.819)" fill="#ffb27d"/>
      <path id="Path_10" data-name="Path 10" d="M1401.239,955.8c-4.233,62.9-8.671,142.259-4.981,153.036,6.239,18.195-2.286,173.8-2.286,173.8l-1.6-1.264c1.883-73.763,1.014-176.386-14.658-214.392-.4-6.859-25.194-39.472-25.194-39.472-19.576-63.845-31.47-56.585-32.693-89.528h81.416Z" transform="translate(-1291.132 -615.194)" fill="#ed985f"/>
      <path id="Path_11" data-name="Path 11" d="M1362.007,156.829s-7.013-3.7-20.755,2.061-52.938,45.408-52.48,56.939,14.658,21.288,10.536,31.489-16.818,15.9-10.541,27.551c11.955,22.183-12.087,14.62,3.888,44.39,4.333,8.075,140.923-5.72,145.789-11.518,13.788-16.429-10.418-29.533-9.273-40.986s-17.549-23.907-14.342-33.22,19.266-19.992-17.265-61.612C1397.565,171.923,1380.758,151.746,1362.007,156.829Z" transform="translate(-1272.28 -155.658)" fill="#2c3a64"/>
      <path id="Path_12" data-name="Path 12" d="M1399.271,344.405s.627,25.314-6.275,28.351a43.912,43.912,0,0,1-13.387,3.443s39.532,21.466,71.116,0c0,0-12.55-2.632-14.851-6.683s-2.092-25.111-2.092-25.111Z" transform="translate(-1325.44 -266.528)" fill="#ffb27d"/>
      <path id="Path_13" data-name="Path 13" d="M1425.389,363.591s6.974,15.3,18.24,15.845,16.56-14,16.56-14Z" transform="translate(-1351.711 -277.798)" fill="#ed985f"/>
      <path id="Path_14" data-name="Path 14" d="M1426.715,278.069h0c-9.567,0-28.916-14.861-28.916-30.259V229.02c0-15.4,13.012-28,28.916-28h0c15.9,0,28.916,12.6,28.916,28v18.79C1455.631,263.207,1437.315,278.069,1426.715,278.069Z" transform="translate(-1335.878 -182.306)" fill="#ffb27d"/>
      <path id="Path_15" data-name="Path 15" d="M1338.428,419.162s55.094-6.621,99.068.774c0,0,3.251,52.576-4.123,107.849-1.154,8.648,17.865,53.885,17.865,53.885-3.9,6.775-95.508,24.614-125.741,0,0,0-2.29,2.176,18.781-50.338C1350.178,516.63,1314.551,422.577,1338.428,419.162Z" transform="translate(-1294.347 -308.839)" fill="#ffb27d"/>
      <path id="Path_16" data-name="Path 16" d="M1484.546,747.518a188.831,188.831,0,0,1-37.6,16.039c-62.726,19.272-124.559,5.914-124.559,5.914s-7.957-13.305-11.681-82.292c-3.724-68.954,30.92-215.742,30.92-215.742l87.833-8.229s10.767,40.634,6.988,62.115-7.222,35.93-3.092,47C1463.933,654.382,1484.546,747.518,1484.546,747.518Z" transform="translate(-1285.741 -336.313)" fill="#f99746"/>
      <path id="Path_17" data-name="Path 17" d="M1459.739,1799.245h-37.107c-2.4-7.607.691-14.013,3.438-17.814s5.146-14.12,5.146-14.12c7.162-5.383,16.256-3.3,19.861-2.148,1,.324,1.576.571,1.576.571l0,0v0c.119.269,4.01,8.949,5.366,15.688a129.22,129.22,0,0,1,1.677,16.74C1459.726,1798.852,1459.739,1799.245,1459.739,1799.245Z" transform="translate(-1349.634 -1100.274)" fill="#2c3a64"/>
      <path id="Path_18" data-name="Path 18" d="M1440.311,505.924a85.123,85.123,0,0,1-23.251,17.336c-7.545,3.691-16.352,6.194-25.536,5.093-25.881-3.1-100.545-3.1-100.545-3.1s-4.419-1.057-10.27-3.09c-10.686-3.711-26.142-10.671-28.211-20.416l0-.005c.3-.815,28.111-76.921,38.762-81.684,10.706-4.792,19.2-1.615,19.2-1.615s29.509,11.4,62.754-.543c0,0,24.579-1.4,31.708,8.954,7.089,10.293,35.055,78.274,35.38,79.07Z" transform="translate(-1252.498 -309.409)" fill="#f99746"/>
      <path id="Path_19" data-name="Path 19" d="M1643.258,902.861a188.841,188.841,0,0,1-37.6,16.039c-31.49-59.108-13.59-191.234-13.59-191.234C1622.644,809.725,1643.258,902.861,1643.258,902.861Z" transform="translate(-1444.452 -491.656)" fill="#ed7d2b"/>
      <path id="Path_20" data-name="Path 20" d="M1440.5,1518.207l-3.913,99.478v0l-.15,3.755-1.58-.162-19.712-2.024-21.379-101.05a48.817,48.817,0,0,1,29.268-6.158A43.068,43.068,0,0,1,1440.5,1518.207Z" transform="translate(-1333.565 -952.221)" fill="#2c3a64"/>
      <path id="Path_21" data-name="Path 21" d="M1539.257,1518.2s-22.993-14.552-46.733,0l4.065,103.237,21.292-2.183Z" transform="translate(-1390.236 -952.219)" fill="#2c3a64"/>
      <g id="Group_8" data-name="Group 8" transform="translate(59.408 101.653)">
        <g id="Group_7" data-name="Group 7">
          <path id="Path_22" data-name="Path 22" d="M1426.188,402.088c-2.019-.055-4.034-.069-6.016-.05a227.9,227.9,0,0,0-27.714,2.048l-.528,18.315c-.821,28.424,17.384,52.645,29.134,52.511l3.021.082a11.947,11.947,0,0,0,3.007-.331c12.484-2.9,31.375-24.226,32.132-50.439l.529-18.316A180.222,180.222,0,0,0,1426.188,402.088Zm-27.388,25.6a1.1,1.1,0,0,1,.577-1.476,22.982,22.982,0,0,1,13.808-1.491,23.214,23.214,0,0,1,2.5.652,17.687,17.687,0,0,1,3.319,1.406,1.1,1.1,0,0,1,.382,1.535,1.176,1.176,0,0,1-1.583.371,12.947,12.947,0,0,0-1.414-.668c-.226-.094-.479-.192-.754-.292a20.592,20.592,0,0,0-15.307.523,1.193,1.193,0,0,1-.505.1A1.155,1.155,0,0,1,1398.8,427.684Zm36.3,25.136c-3.619,4.084-7.645,6.2-11.983,6.081a12.983,12.983,0,0,1-2.488-.308c-4.613-1.03-7.748-4.376-9.336-6.516a1.032,1.032,0,0,1,.978-1.624c1.576.164,3.834.384,6.214.562,1.62.121,3.3.223,4.852.277,4.421.151,8.454-.022,10.892-.176A1.03,1.03,0,0,1,1435.1,452.82Zm14.883-23.681a1.175,1.175,0,0,1-1.583.371,12.485,12.485,0,0,0-1.414-.669,20.556,20.556,0,0,0-16.061.231,1.173,1.173,0,0,1-1.525-.56,1.1,1.1,0,0,1,.579-1.477,22.977,22.977,0,0,1,13.807-1.49,20.135,20.135,0,0,1,5.816,2.058A1.1,1.1,0,0,1,1449.983,429.139Z" transform="translate(-1391.903 -402.03)" fill="#ebf3fa"/>
          <path id="Path_23" data-name="Path 23" d="M1420.172,402.048a75.275,75.275,0,0,0-4.49,23.331h0a23.228,23.228,0,0,0-2.5-.652,22.983,22.983,0,0,0-13.808,1.491,1.1,1.1,0,0,0-.577,1.476,1.155,1.155,0,0,0,1.02.659,1.193,1.193,0,0,0,.505-.1,20.592,20.592,0,0,1,15.307-.523,95.164,95.164,0,0,0,2.853,23.293c-2.38-.178-4.638-.4-6.214-.562a1.032,1.032,0,0,0-.978,1.624c1.588,2.14,4.723,5.486,9.336,6.516a121.578,121.578,0,0,0,6.461,16.068,11.939,11.939,0,0,1-3.007.331l-3.021-.082c-11.75.134-29.955-24.086-29.134-52.511l.528-18.315A227.9,227.9,0,0,1,1420.172,402.048Z" transform="translate(-1391.903 -402.04)" fill="#d0dfea"/>
        </g>
      </g>
      <path id="Path_24" data-name="Path 24" d="M1555.828,465.358s-3.549-10.131-2.046-16.113-6.722-22.148-7.619-21.826-.92,19.069-1.782,23.685c-.727,3.893-3.124,7.68,0,16.268Z" transform="translate(-1419.096 -315.287)" fill="#ffb27d"/>
      <path id="Path_25" data-name="Path 25" d="M1367.268,465.358s3.549-10.131,2.045-16.113,6.722-22.148,7.619-21.826.92,19.069,1.782,23.685c.727,3.893,3.124,7.68,0,16.268Z" transform="translate(-1318.359 -315.287)" fill="#ffb27d"/>
      <path id="Path_26" data-name="Path 26" d="M1280.709,601.324c-10.686-3.711-26.142-10.671-28.211-20.416l0-.005c.612-.441,39.7-28.643,48.907-28.725C1308.038,552.115,1290.964,583.469,1280.709,601.324Z" transform="translate(-1252.498 -388.574)" fill="#ed7d2b"/>
      <path id="Path_27" data-name="Path 27" d="M1320.513,521.391s-14.427,81.059-26.346,87.549-19.654,7.277-19.654,7.277-16.862-22.319-3.554-40.23,38.106-56.61,38.106-56.61Z" transform="translate(-1260.156 -369.307)" fill="#ffb27d"/>
      <path id="Path_28" data-name="Path 28" d="M1632.4,591.219a85.124,85.124,0,0,1-23.251,17.336c-11.523-15.556-26.588-46.178-20.526-45.94,8.287.32,43.226,28.163,43.772,28.6Z" transform="translate(-1444.583 -394.704)" fill="#ed7d2b"/>
      <path id="Path_29" data-name="Path 29" d="M1546.488,521.391s14.427,81.059,26.346,87.549,19.654,7.277,19.654,7.277,16.861-22.319,3.554-40.23-38.107-56.61-38.107-56.61Z" transform="translate(-1421.203 -369.307)" fill="#ffb27d"/>
      <path id="Path_30" data-name="Path 30" d="M1434.208,201.464s6.346,17.3,20.374,26.355,19.378,8.569,19.378,8.569-5.639-8.408-5.912-14.067c0,0,5.572,18.442,17.262,14.071s-14.07-48.106-35.676-45.438S1434.208,201.464,1434.208,201.464Z" transform="translate(-1356.302 -176.322)" fill="#2c3a64"/>
      <path id="Path_31" data-name="Path 31" d="M1412.171,206.659s-23.213,10.51-25,25.3c0,0-14.241-9.458-4.471-29.346,6.022-12.259,26.152-14.309,29.609-8.974S1412.171,206.659,1412.171,206.659Z" transform="translate(-1325.247 -176.343)" fill="#2c3a64"/>
      <path id="Path_32" data-name="Path 32" d="M1482.281,1650.559h-20.622c-3.218-7.407,8.94-14.328,11.154-22.992a32.931,32.931,0,0,0,.7-5.843c.07-1.257.119-2.655.15-4.172.321-15.64-1.2-43.994-.858-67.408.427-29.424-10.511-37.244-11.115-37.653a43.067,43.067,0,0,1,17.466,6.158l-3.913,99.478v0c.119.269,4.01,8.95,5.366,15.688A129.144,129.144,0,0,1,1482.281,1650.559Z" transform="translate(-1372.215 -952.662)" fill="#202d4c"/>
      <path id="Path_33" data-name="Path 33" d="M1488.871,1765.842s-2.663,11.24-5.412,15.041-5.841,10.206-3.436,17.813h37.1s-.344-10.97-1.718-17.813a84.117,84.117,0,0,0-4.919-14.781S1498.014,1758.969,1488.871,1765.842Z" transform="translate(-1382.567 -1099.725)" fill="#2c3a64"/>
    </g>
    <path id="Path_34" data-name="Path 34" d="M2356.539,1770.07h-49.9c-2.674-2.2,1.85-7.183,6.577-7.518a30.037,30.037,0,0,1,7.616.872c.687-8.83,4.607-48.524,19.385-46.93,16.617,1.786,0,17.481-4.7,26.773a217.011,217.011,0,0,0-8.828,21.41c1.349.283,2.747.561,4.173.815,2.2-6.547,10.4-28.57,20.818-27.287,12.236,1.5,7.317,10.332-1.355,15.573-6.362,3.855-14.175,9.333-17.887,11.979a54.7,54.7,0,0,0,9.758.757C2350.749,1766.319,2354.921,1768.758,2356.539,1770.07Z" transform="translate(-1121.479 -916.809)" fill="#a8d29f"/>
    <path id="Path_35" data-name="Path 35" d="M618.061,1775.522c-2.571-3.91-10.307-14.056-20.611-12.713-11.226,1.462,12.4,8.629,19.632,12.743a12.38,12.38,0,0,1-4-.453c-4.836-1.669-13.117,1.531-15.765,2.654h46.036a7.086,7.086,0,0,0-3.292-4.076c-.755-.447-2.275-.51-4.236-.365,2.737-3.125,4.638-13.1-2.982-10.537-5.566,1.876-5.552,7.975-5.005,11.583-1.184.18-2.385.361-3.572.526-2.292-11.309-10.4-44.455-26.83-45.339-16.658-.9,14.125,34.376,24.375,45.656C620.5,1775.354,619.231,1775.469,618.061,1775.522Z" transform="translate(-138.33 -924.492)" fill="#a8d29f"/>
    <path id="Path_36" data-name="Path 36" d="M1233.209,1576.691s-25.493-109.954-51.9-102.282S1233.209,1576.691,1233.209,1576.691Z" transform="translate(-473.044 -774.41)" fill="#a8d29f"/>
    <path id="Path_37" data-name="Path 37" d="M1207.518,1663.894s-36.973-48.77-50.838-40.46S1207.518,1663.894,1207.518,1663.894Z" transform="translate(-460.917 -861.613)" fill="#a8d29f"/>
    <path id="Path_38" data-name="Path 38" d="M1796.057,1698.29c.66.224,1.981-63.9,15.846-54.852S1796.057,1698.29,1796.057,1698.29Z" transform="translate(-828.939 -873.408)" fill="#a8d29f"/>
    <path id="Path_39" data-name="Path 39" d="M1766.6,1721.323s-3.081-36.643-11.444-34.651S1766.6,1721.323,1766.6,1721.323Z" transform="translate(-804.284 -899.272)" fill="#a8d29f"/>
    <path id="Path_40" data-name="Path 40" d="M1817.523,1739.14s17.67-27.457,22.072-21.768S1817.523,1739.14,1817.523,1739.14Z" transform="translate(-841.257 -916.896)" fill="#a8d29f"/>
  </g>
</svg>
