<svg xmlns="http://www.w3.org/2000/svg" xmlns:xlink="http://www.w3.org/1999/xlink" width="499.897" height="500" viewBox="0 0 499.897 500">
  <defs>
    <linearGradient id="linear-gradient" x1="0.5" y1="-0.382" x2="0.5" y2="1.004" gradientUnits="objectBoundingBox">
      <stop offset="0" stop-color="#f0948a" stop-opacity="0.102"/>
      <stop offset="0.981" stop-color="#ff4a54" stop-opacity="0.702"/>
    </linearGradient>
    <linearGradient id="linear-gradient-2" x1="0.513" y1="-0.603" x2="0.494" y2="1.5" xlink:href="#linear-gradient"/>
    <linearGradient id="linear-gradient-3" x1="-0.732" y1="2.465" x2="-0.694" y2="5.211" xlink:href="#linear-gradient"/>
    <linearGradient id="linear-gradient-4" x1="0.514" y1="-1.779" x2="0.492" y2="1.361" gradientUnits="objectBoundingBox">
      <stop offset="0" stop-color="#f0948a" stop-opacity="0.102"/>
      <stop offset="0.104" stop-color="#f09087" stop-opacity="0.125"/>
      <stop offset="0.254" stop-color="#f28780" stop-opacity="0.2"/>
      <stop offset="0.431" stop-color="#f57875" stop-opacity="0.322"/>
      <stop offset="0.631" stop-color="#f96366" stop-opacity="0.494"/>
      <stop offset="0.838" stop-color="#ff4a54" stop-opacity="0.702"/>
    </linearGradient>
    <linearGradient id="linear-gradient-5" x1="0" y1="0.5" x2="1" y2="0.5" xlink:href="#linear-gradient"/>
    <linearGradient id="linear-gradient-6" x1="1.598" y1="0.656" x2="-0.319" y2="0.384" xlink:href="#linear-gradient"/>
    <linearGradient id="linear-gradient-7" x1="-53.47" y1="-0.712" x2="-53.44" y2="-3.276" xlink:href="#linear-gradient-4"/>
    <linearGradient id="linear-gradient-8" x1="-0.297" y1="-22.56" x2="-0.249" y2="-20.11" xlink:href="#linear-gradient"/>
    <linearGradient id="linear-gradient-9" x1="1.599" y1="0.651" x2="-0.32" y2="0.388" xlink:href="#linear-gradient"/>
    <linearGradient id="linear-gradient-10" x1="1.653" y1="0.619" x2="-0.44" y2="0.437" xlink:href="#linear-gradient"/>
    <linearGradient id="linear-gradient-11" x1="0.521" y1="-0.975" x2="0.493" y2="1.132" gradientUnits="objectBoundingBox">
      <stop offset="0" stop-color="#f0948a" stop-opacity="0.102"/>
      <stop offset="0.564" stop-color="#f9696b" stop-opacity="0.439"/>
      <stop offset="0.981" stop-color="#ff4a54" stop-opacity="0.702"/>
    </linearGradient>
    <linearGradient id="linear-gradient-12" x1="0.143" y1="-1.231" x2="0.124" y2="0.848" xlink:href="#linear-gradient"/>
    <linearGradient id="linear-gradient-13" x1="-71.648" y1="0.633" x2="-71.618" y2="-1.931" xlink:href="#linear-gradient-4"/>
  </defs>
  <g id="Group_1617" data-name="Group 1617" transform="translate(-738 -4361.118)">
    <g id="Group_1590" data-name="Group 1590" transform="translate(738 4361.22)">
      <g id="background">
        <circle id="Ellipse_532" data-name="Ellipse 532" cx="187.462" cy="187.462" r="187.462" transform="translate(62.487 62.487)" fill="rgba(79,19,76,0.05)"/>
        <circle id="Ellipse_533" data-name="Ellipse 533" cx="249.949" cy="249.949" r="249.949" fill="rgba(79,19,76,0.05)"/>
      </g>
    </g>
    <g id="Group_1602" data-name="Group 1602" transform="translate(811.029 4361.118)">
      <g id="Group_46" data-name="Group 46" transform="translate(118.105 15.599)">
        <g id="Group_42" data-name="Group 42">
          <g id="Group_31" data-name="Group 31" transform="translate(1.749)">
            <path id="Path_47" data-name="Path 47" d="M238.928,98.348a32.089,32.089,0,0,0-19.987,24.958c-.838,5.882-.085,11.918-.978,17.792-.742,4.881-2.6,9.508-3.61,14.337-1.749,8.386-.891,17.087-.024,25.619.108,1.058.326,2.293,1.25,2.769a3.04,3.04,0,0,0,1.505.207l79.887-2.658c1.473-.049,3.141-.192,4.067-1.374a5.5,5.5,0,0,0,.794-3.321l.445-19.628c.091-3.994.16-8.116-1.287-11.821-1.46-3.737-1.409-9.234-2.847-12.979-1.73-4.5-2.153-9.545-3.609-13.636-2.775-7.8-6.982-14.061-13.75-18.564a28.655,28.655,0,0,0-23.195-3.717c-6.128,1.677-6.629,1.911-12.9.921-.819-.129-7.1,3.167-7.9,3.392a1.632,1.632,0,0,0-1.238,1.895" transform="translate(-213.336 -90.915)" fill="#241f21"/>
            <g id="Group_12" data-name="Group 12" transform="translate(34.064 76.751)">
              <path id="Path_48" data-name="Path 48" d="M261.712,170.55s-3.059,24.461-11.506,25.6-11.09-24.49-11.09-24.49l2.83-14.709.876-4.584.309-3.181,13.919-.751.916,6.306.565,2.4Z" transform="translate(-239.116 -148.436)" fill="#f0948a"/>
            </g>
            <g id="Group_30" data-name="Group 30" transform="translate(1.02)">
              <path id="Path_50" data-name="Path 50" d="M291.617,133.49c0,.962-.025,1.936-.078,2.884-.012.387-.025.774-.052,1.148a38.563,38.563,0,0,1-4.066,15.246,34.715,34.715,0,0,1-3.963,6.142,31.354,31.354,0,0,1-2.733,3.043,41.767,41.767,0,0,1-4,3.459,48.311,48.311,0,0,1-11.576,6.368,52.684,52.684,0,0,1-6,1.949c-3.536.907-6.9.159-10.374-.922a38.536,38.536,0,0,1-13.494-7.369,32.566,32.566,0,0,1-2.784-2.6,36.513,36.513,0,0,1-3.938-4.939,37.876,37.876,0,0,1-4.429-9.079,44.114,44.114,0,0,1-2.24-13.016c0-.2-.013-.4-.013-.6a47.382,47.382,0,0,1,3.445-19.252A33.351,33.351,0,0,1,247.263,97.1a33.837,33.837,0,0,1,4.881-1.015,37.177,37.177,0,0,1,7.007-.293,39.047,39.047,0,0,1,4.117.44,34.842,34.842,0,0,1,18.972,9.452,27.176,27.176,0,0,1,4.119,5.381,37.446,37.446,0,0,1,4.028,10.453A53.879,53.879,0,0,1,291.617,133.49Z" transform="translate(-211.612 -90.772)" fill="#f0948a"/>
              <g id="Group_15" data-name="Group 15" transform="translate(74.317 45.11)">
                <g id="Group_13" data-name="Group 13">
                  <path id="Path_51" data-name="Path 51" d="M274.209,127.042c.291.087,4.411-3.652,9.062-.691s5.7,19.842-12.919,17.67C270.352,144.021,273.291,126.764,274.209,127.042Z" transform="translate(-270.352 -125.208)" fill="#f0948a"/>
                </g>
                <g id="Group_14" data-name="Group 14" transform="translate(3.701 2.765)">
                  <path id="Path_52" data-name="Path 52" d="M274.959,131.592a6.491,6.491,0,0,1,1.891-3.467,3.14,3.14,0,0,1,4.016-.286,4.809,4.809,0,0,1,1.4,1.994,7.9,7.9,0,0,1-1.09,7.718,6.971,6.971,0,0,1-8.027,2.205" transform="translate(-273.153 -127.238)" fill="none" stroke="#241f21" stroke-linecap="round" stroke-miterlimit="10" stroke-width="0.255"/>
                  <path id="Path_53" data-name="Path 53" d="M280.85,128.252s-6.59,4.517-5.156,11.136" transform="translate(-272.402 -126.87)" fill="none" stroke="#241f21" stroke-linecap="round" stroke-miterlimit="10" stroke-width="0.255"/>
                </g>
              </g>
              <g id="Group_18" data-name="Group 18" transform="translate(0 44.9)">
                <g id="Group_16" data-name="Group 16">
                  <path id="Path_54" data-name="Path 54" d="M226.707,127.245c-.3.076-4.361-4-9.288-1.181s-6.826,20.184,12.437,18.907C229.856,144.971,227.665,127.007,226.707,127.245Z" transform="translate(-214.108 -125.048)" fill="#ffe1d9"/>
                  <path id="Path_55" data-name="Path 55" d="M229.831,144.981c-4.952.327-10.851-.478-13.924-5-4.366-6.421-.064-18.386,8.7-13.972.361.181,1.681,1.334,2.071,1.244C227.639,127.014,229.831,144.981,229.831,144.981Z" transform="translate(-214.084 -125.054)" fill="#f0948a"/>
                </g>
                <g id="Group_17" data-name="Group 17" transform="translate(3.039 2.974)">
                  <path id="Path_56" data-name="Path 56" d="M224.271,131.592a6.483,6.483,0,0,0-1.891-3.467,3.14,3.14,0,0,0-4.016-.286,4.809,4.809,0,0,0-1.4,1.994,7.9,7.9,0,0,0,1.09,7.718,6.971,6.971,0,0,0,8.027,2.205" transform="translate(-216.408 -127.238)" fill="none" stroke="#241f21" stroke-linecap="round" stroke-miterlimit="10" stroke-width="0.255"/>
                  <path id="Path_57" data-name="Path 57" d="M217.332,128.252s6.59,4.517,5.156,11.136" transform="translate(-216.111 -126.87)" fill="none" stroke="#241f21" stroke-linecap="round" stroke-miterlimit="10" stroke-width="0.255"/>
                </g>
              </g>
              <g id="Group_19" data-name="Group 19" transform="translate(8.371)">
                <path id="Path_58" data-name="Path 58" d="M222.8,136.262s21.091-13.653,18.581-39.517c0,0-9.746.249-17.225,11.44S222.8,136.262,222.8,136.262Z" transform="translate(-220.443 -90.407)" fill="#241f21"/>
                <path id="Path_59" data-name="Path 59" d="M233.963,100.676c1.09,2.162,4.248,4.072,6.065,5.63q5.669,4.859,11.5,9.509c9.154,7.286,18.655,14.5,29.006,19.887,2.286,1.192,4.678,1.538,7.106,2.387,0-.843.188-4.86.219-5.734a46.54,46.54,0,0,0-.506-9.529c-2.334-13.847-11.333-25.18-24.452-29.333a25.315,25.315,0,0,0-12.744-.971,31.191,31.191,0,0,0-7.68,2.934C239.661,96.892,236.259,98.441,233.963,100.676Z" transform="translate(-216.099 -92.092)" fill="#241f21"/>
                <path id="Path_60" data-name="Path 60" d="M225.367,142.338c.6-2.306-.24-4.715-.538-7.082-.525-4.178.661-8.367.854-12.574a1.157,1.157,0,0,0-.244-.944c-.945-.828-3.089.817-3.49,1.746-.686,1.591-.181,4.464-.032,6.149A37.21,37.21,0,0,0,225.367,142.338Z" transform="translate(-220.072 -81.437)" fill="#241f21"/>
                <path id="Path_61" data-name="Path 61" d="M272.878,142.736c-.834-2.374-.062-4.956.106-7.457.293-4.412-1.328-8.718-1.839-13.112a1.159,1.159,0,0,1,.209-1.007c1-.934,4.1-.663,4.613.282.879,1.62-.067,5.968-.116,7.744A36.974,36.974,0,0,1,272.878,142.736Z" transform="translate(-204.158 -81.774)" fill="#241f21"/>
              </g>
              <g id="Group_29" data-name="Group 29" transform="translate(15.747 35.643)">
                <g id="Group_22" data-name="Group 22" transform="translate(0.748)">
                  <g id="Group_20" data-name="Group 20" transform="translate(34.287 6.754)">
                    <path id="Path_62" data-name="Path 62" d="M253.435,133.141s.321-9.36,7.086-9.892c8.574-.673,10.041,9.485,10.041,9.485l-10.223,2.372Z" transform="translate(-252.253 -123.216)" fill="url(#linear-gradient)"/>
                    <path id="Path_63" data-name="Path 63" d="M273.08,129.955a19.806,19.806,0,0,1-3.557,2.618,8.808,8.808,0,0,0,1.942.919,1.534,1.534,0,0,1,.152.052c.345.113.117.381-1.027.391h-.075a13.252,13.252,0,0,1-2.657-.469c-.042-.01-.067-.018-.067-.018a15.455,15.455,0,0,1-2.2.755c.227.771,1.691,2.229,1,1.977a22.513,22.513,0,0,1-2.7-1.629.167.167,0,0,1-.026-.018c-.3.034-.605.06-.916.069a12.709,12.709,0,0,1-2.381-.139.2.2,0,0,0-.075,0,11.109,11.109,0,0,0,.572,1.526c-.017-.018-.555-.165-.605-.191a3.666,3.666,0,0,1-.649-.415,7.292,7.292,0,0,1-.715-.711c-.126-.139-.428-.633-.6-.685a17.523,17.523,0,0,1-5.913-3.355.144.144,0,0,1,.126-.252c.262.078.607.173,1.017.278a31.2,31.2,0,0,0,9.412.979,39.15,39.15,0,0,0,7.67-1.414c.842-.242,1.547-.467,2.052-.642A.219.219,0,0,1,273.08,129.955Z" transform="translate(-252.541 -120.916)" fill="#241f21"/>
                  </g>
                  <g id="Group_21" data-name="Group 21" transform="translate(1.33 6.754)">
                    <path id="Path_64" data-name="Path 64" d="M246.469,133.141s-.32-9.36-7.086-9.892c-8.573-.673-10.04,9.485-10.04,9.485l10.223,2.372Z" transform="translate(-227.038 -123.216)" fill="url(#linear-gradient-2)"/>
                    <path id="Path_65" data-name="Path 65" d="M227.673,129.955a19.815,19.815,0,0,0,3.557,2.618,8.817,8.817,0,0,1-1.942.919,1.546,1.546,0,0,0-.152.052c-.345.113-.118.381,1.027.391h.075a13.252,13.252,0,0,0,2.657-.469c.042-.01.067-.018.067-.018a15.5,15.5,0,0,0,2.195.755c-.226.771-1.69,2.229-1,1.977a22.633,22.633,0,0,0,2.7-1.629.117.117,0,0,0,.025-.018c.3.034.607.06.917.069a12.688,12.688,0,0,0,2.38-.139.207.207,0,0,1,.077,0,11.105,11.105,0,0,1-.572,1.526c.017-.018.555-.165.605-.191a3.656,3.656,0,0,0,.647-.415,7.154,7.154,0,0,0,.715-.711c.127-.139.429-.633.6-.685a17.521,17.521,0,0,0,5.913-3.355.144.144,0,0,0-.125-.252c-.262.078-.607.173-1.019.278a31.192,31.192,0,0,1-9.411.979,39.151,39.151,0,0,1-7.67-1.414c-.842-.242-1.547-.467-2.052-.642A.219.219,0,0,0,227.673,129.955Z" transform="translate(-227.599 -120.916)" fill="#241f21"/>
                  </g>
                  <path id="Path_66" data-name="Path 66" d="M226.592,123.267a12.343,12.343,0,0,1,10.953-4.942c5.7.6,7.67,2.9,7.67,2.9" transform="translate(-226.592 -118.258)" fill="none" stroke="#241f21" stroke-miterlimit="10" stroke-width="2.94"/>
                  <path id="Path_67" data-name="Path 67" d="M272.378,123.267a12.343,12.343,0,0,0-10.953-4.942c-5.7.6-7.67,2.9-7.67,2.9" transform="translate(-217.863 -118.258)" fill="none" stroke="#241f21" stroke-miterlimit="10" stroke-width="2.94"/>
                </g>
                <g id="Group_28" data-name="Group 28" transform="translate(0 22.327)">
                  <path id="Path_68" data-name="Path 68" d="M245.616,148.214s.909-.847,3.482-.751,3.521.993,3.521.993Z" transform="translate(-219.731 -130.011)" fill="url(#linear-gradient-3)"/>
                  <g id="Group_23" data-name="Group 23" transform="translate(22.716 2.122)">
                    <path id="Path_69" data-name="Path 69" d="M243.5,137.267a19.828,19.828,0,0,1,11.485-.445.6.6,0,0,1,.379,1.005l-4.264,4a2.021,2.021,0,0,1-2.529.059l-5.159-3.87A.418.418,0,0,1,243.5,137.267Z" transform="translate(-243.218 -136.207)" fill="url(#linear-gradient-4)"/>
                    <path id="Path_70" data-name="Path 70" d="M246.869,139.883s-.482-1.665-1.6-1.588S246.151,139.414,246.869,139.883Z" transform="translate(-242.664 -135.451)" fill="#241f21"/>
                    <path id="Path_71" data-name="Path 71" d="M249.7,139.883s.484-1.665,1.6-1.588S250.42,139.414,249.7,139.883Z" transform="translate(-241.134 -135.451)" fill="#241f21"/>
                  </g>
                  <path id="Path_72" data-name="Path 72" d="M236.979,140.294a5.479,5.479,0,1,1-5.477-5.645A5.564,5.564,0,0,1,236.979,140.294Z" transform="translate(-226.026 -134.649)" fill="url(#linear-gradient-5)"/>
                  <path id="Path_73" data-name="Path 73" d="M271.755,140.294a5.479,5.479,0,1,1-5.477-5.645A5.564,5.564,0,0,1,271.755,140.294Z" transform="translate(-214.851 -134.649)" fill="url(#linear-gradient-6)"/>
                  <g id="Group_27" data-name="Group 27" transform="translate(17.188 8.533)">
                    <path id="Path_74" data-name="Path 74" d="M242.545,142.792a65.42,65.42,0,0,1,7.607-.505c3.836,0,7.632.323,7.632.323a22.911,22.911,0,0,1-7.557,1.47,38.025,38.025,0,0,1-7.682-1.287" transform="translate(-237.905 -140.416)" fill="#ff4a54"/>
                    <path id="Path_75" data-name="Path 75" d="M242.4,142.821s1.218,4.45,7.212,4.663a7.229,7.229,0,0,0,7.446-4.918s-3.92,1.838-7.089,1.418S242.4,142.821,242.4,142.821Z" transform="translate(-237.952 -140.315)" fill="#ff4a54"/>
                    <g id="Group_26" data-name="Group 26">
                      <g id="Group_25" data-name="Group 25">
                        <g id="Group_24" data-name="Group 24">
                          <path id="Path_76" data-name="Path 76" d="M240.118,141.975a32.834,32.834,0,0,0,5.359,1.75,25.254,25.254,0,0,0,5.567.715,19.94,19.94,0,0,0,5.515-.986,32.063,32.063,0,0,0,5.215-2.151l0,0a.107.107,0,0,1,.143.049.111.111,0,0,1-.048.147h0a32.224,32.224,0,0,1-5.254,2.163,20.114,20.114,0,0,1-5.574.992,25.033,25.033,0,0,1-5.61-.741,33.036,33.036,0,0,1-5.383-1.784.084.084,0,0,1-.042-.109A.081.081,0,0,1,240.118,141.975Z" transform="translate(-238.722 -140.777)" fill="#241f21"/>
                          <path id="Path_77" data-name="Path 77" d="M257.094,141.02a.537.537,0,0,1,.328-.1c.116.015.222.144.173.253a.276.276,0,0,1-.074.089c-.308.274-1.09.774-1.488.569A4.1,4.1,0,0,1,257.094,141.02Z" transform="translate(-233.571 -140.913)" fill="#241f21"/>
                          <path id="Path_78" data-name="Path 78" d="M239.549,141.324a.523.523,0,0,0-.325-.114c-.116.012-.226.138-.18.248a.265.265,0,0,0,.071.091c.3.282,1.069.8,1.472.612A4.07,4.07,0,0,0,239.549,141.324Z" transform="translate(-239.034 -140.807)" fill="#241f21"/>
                        </g>
                      </g>
                    </g>
                  </g>
                </g>
              </g>
            </g>
          </g>
          <g id="Group_35" data-name="Group 35" transform="translate(6.956 200.344)">
            <g id="Group_32" data-name="Group 32" transform="translate(5.239)">
              <path id="Path_79" data-name="Path 79" d="M288.1,239.167H227.273s-9.6,94.182-4.573,132.842,9.232,111.734,9.232,111.734h10.889s5.946-58.931,5.946-69.3,5.62-52.331,7.382-78.733,2.678-48.56,2.678-48.56l5.019.471s-.469,70.718,0,89.577,6.872,103.72,6.872,103.72l13.634-.944s7.859-96.648,9.232-108.433,5.44-50.235,3.658-77.791S288.1,239.167,288.1,239.167Z" transform="translate(-221.242 -239.167)" fill="#241f21"/>
              <path id="Path_80" data-name="Path 80" d="M253.792,274.39c-2.5,31-6.013,62.247-8.513,93.244q-.759,9.422-1.52,18.845-3.425,42.459-6.848,84.919" transform="translate(-216.207 -226.409)" fill="none" stroke="#fff" stroke-miterlimit="10" stroke-width="0.267"/>
              <path id="Path_81" data-name="Path 81" d="M250.988,243.893c.488,15.712.7,26.042.613,41.761" transform="translate(-211.683 -237.455)" fill="none" stroke="#fff" stroke-miterlimit="10" stroke-width="0.267"/>
              <path id="Path_82" data-name="Path 82" d="M253.485,274.736s3.043,101.872,3.253,112.017,4.711,81.2,4.711,81.2" transform="translate(-210.881 -226.284)" fill="none" stroke="#fff" stroke-miterlimit="10" stroke-width="0.267"/>
              <line id="Line_1" data-name="Line 1" x2="12.822" transform="translate(32.747 6.438)" fill="none" stroke="#fff" stroke-miterlimit="10" stroke-width="0.267"/>
              <path id="Path_83" data-name="Path 83" d="M252.839,241.893a1.336,1.336,0,1,1-1.336-1.376A1.357,1.357,0,0,1,252.839,241.893Z" transform="translate(-211.946 -238.678)" fill="#fff"/>
            </g>
            <g id="Group_33" data-name="Group 33" transform="translate(0 244.577)">
              <rect id="Rectangle_2" data-name="Rectangle 2" width="6.721" height="6.705" transform="translate(17.943)" fill="#f0948a"/>
              <path id="Path_84" data-name="Path 84" d="M235.219,422.183s.026,1.979,2.46,1.979a6.527,6.527,0,0,0,4.261-1.979s2.747,6.015,2.26,10.868-20.124,24.594-25.967,23.758S235.219,422.183,235.219,422.183Z" transform="translate(-217.277 -417.457)" fill="#241f21"/>
            </g>
            <g id="Group_34" data-name="Group 34" transform="translate(55.807 241.046)">
              <path id="Path_85" data-name="Path 85" d="M261.283,416.586V423H268v-6.884Z" transform="translate(-258.943 -416.121)" fill="#f0948a"/>
              <path id="Path_86" data-name="Path 86" d="M268.55,419.867s-.025,1.979-2.46,1.979a6.526,6.526,0,0,1-4.26-1.979s-2.747,6.016-2.259,10.868,20.124,24.594,25.966,23.758S268.55,419.867,268.55,419.867Z" transform="translate(-259.512 -414.764)" fill="#241f21"/>
            </g>
          </g>
          <path id="Path_87" data-name="Path 87" d="M239.592,163.995s3.281,9.593,10.391,9.593,10.932-10.581,10.932-10.581l-2.142,103.746H241.764Z" transform="translate(-203.15 -66.408)" fill="#f8ff38"/>
          <path id="Path_88" data-name="Path 88" d="M253.784,228.421l12.789-30.435-4.565-8.352,6.005.79L264.66,173.8,256,161.232s-1.068,23.2-1.555,37.678-.663,29.51-.663,29.51" transform="translate(-198.59 -67.051)" fill="#f0f9ff"/>
          <path id="Path_89" data-name="Path 89" d="M245.563,231.085s22.329,13.223,30.974,12.03,12.841-11.136,11.4-13.734-14.762-8.168-14.762-8.168l-6.286-3.705Z" transform="translate(-201.231 -46.668)" fill="#fff"/>
          <g id="Group_37" data-name="Group 37" transform="translate(0 95.026)">
            <path id="Path_90" data-name="Path 90" d="M254.92,376.165l-41.529-1.236s-2.877-28.7,1.678-48,13.679-62.1,13.679-62.1a20.407,20.407,0,0,1-5.429,1.527c-4.766.625-6.571-1.527-6.571-1.527-3.046-4.506-4.371-11.019-4.668-18.157-.732-17.576,4.781-38.961,6.247-43.716,2.059-6.672,30.375-41.1,30.375-41.1s2.369,10.177,3.808,19.583c.8,5.2,1.889,27.17,2.9,49.412.324,6.935.634,13.9.93,20.4.466,10.22.889,19.278,1.213,25.209C258.756,298.229,254.92,376.165,254.92,376.165Z" transform="translate(-212.013 -161.852)" fill="#fff"/>
            <path id="Path_91" data-name="Path 91" d="M294.489,376.165H263.55s-6.6-72.252-9.236-102.678c-2.652-30.442,1.9-111.635,1.9-111.635s25.214,34.047,26.892,39.615c1.34,4.477,5.825,25.425,7.023,39.483a56.243,56.243,0,0,1,.184,8.781c-.9,10.031-7.517,12.445-9.181,12.9-.239.057-.381.086-.381.086s-.41,12.256,6.854,42.683S294.489,376.165,294.489,376.165Z" transform="translate(-198.686 -161.852)" fill="#fff"/>
            <path id="Path_92" data-name="Path 92" d="M221.242,225.055l.856,23.013s14.456-3.4,25.563-10.421,28.29-18.282,28.29-18.282l-4.594-9.9s-31.427,6.109-40.771,10.85Z" transform="translate(-209.047 -144.606)" fill="#fff"/>
            <path id="Path_93" data-name="Path 93" d="M249.546,230.794s-1.007-20.155-1.309-32.546a185.838,185.838,0,0,0-5.094-36.391l-12.508,15.6-1.3,14.739,8.735-1.994-4.861,9.789,16.34,30.807" transform="translate(-206.447 -161.85)" fill="#f0f9ff"/>
            <path id="Path_94" data-name="Path 94" d="M230.636,173.306l-1.3,14.739,8.736-1.993-4.861,9.788,15.938,30.051" transform="translate(-206.447 -157.704)" fill="none" stroke="#58acf5" stroke-linecap="round" stroke-linejoin="round" stroke-width="0.534"/>
            <g id="Group_36" data-name="Group 36" transform="translate(0.067 52.404)">
              <path id="Path_95" data-name="Path 95" d="M232.661,209.292c-.543,2.038-1.62,3.931-1.838,6.033-.2,1.913.336,3.837.227,5.758a1.416,1.416,0,0,1-.315.954,1.489,1.489,0,0,1-.818.317,18.081,18.081,0,0,0-5.542,1.975l3.1-14.575c.361-1.692,1.155-9.244,3.289-9.426C233.543,200.09,233.09,207.675,232.661,209.292Z" transform="translate(-208.106 -200.322)" fill="#f0f9ff"/>
              <path id="Path_96" data-name="Path 96" d="M225.179,239.833a5.476,5.476,0,0,1-.2,1.063A6.951,6.951,0,0,1,223.3,243.9c-4.766.625-6.571-1.527-6.571-1.527-3.046-4.506-4.371-11.019-4.668-18.157,2.6-1.324,5.176.857,6.446,3.023a19.256,19.256,0,0,1,1.537,3.228,13.473,13.473,0,0,0,1.283,2.965c1,1.511,2.792,2.456,3.525,4.084a2.373,2.373,0,0,1,.141.335A4.717,4.717,0,0,1,225.179,239.833Z" transform="translate(-212.063 -191.812)" fill="#f0f9ff"/>
              <path id="Path_97" data-name="Path 97" d="M266.465,203.792c-.184,1.556.058,3.149-.231,4.687-.342,1.819-1.4,3.4-1.989,5.155a10.584,10.584,0,0,0,.274,7.409,12.769,12.769,0,0,0,4.378.3,2.355,2.355,0,0,0,.7-.153c1.13-.49,1.069-2.137.838-3.378q-.833-4.475-1.265-9.015c-.2-2.088.388-6.712-.768-8.326C267.181,200.969,266.616,202.523,266.465,203.792Z" transform="translate(-195.468 -200.268)" fill="#f0f9ff"/>
              <path id="Path_98" data-name="Path 98" d="M283.823,228.7c-.9,10.031-7.517,12.445-9.181,12.9a5.81,5.81,0,0,1-.831-1.716c-.593-2.195,1.043-3.619,2.156-5.277,1.665-2.471,1.847-5.669,2.61-8.576.719-2.719,2.439-5.612,5.062-6.107A56.236,56.236,0,0,1,283.823,228.7Z" transform="translate(-192.261 -193.224)" fill="#f0f9ff"/>
            </g>
          </g>
          <g id="Group_40" data-name="Group 40" transform="translate(7.067 106.751)">
            <path id="Path_99" data-name="Path 99" d="M264.545,170.459l3.354,16.623-6.005-.79,4.565,8.351-12.316,29.309" transform="translate(-205.541 -170.459)" fill="none" stroke="#58acf5" stroke-linecap="round" stroke-linejoin="round" stroke-width="0.534"/>
            <path id="Path_100" data-name="Path 100" d="M217.361,190.777a17.7,17.7,0,0,1,10.752,6.281" transform="translate(-217.361 -163.1)" fill="none" stroke="#58acf5" stroke-linecap="round" stroke-linejoin="round" stroke-width="0.267"/>
            <g id="Group_38" data-name="Group 38" transform="translate(2.353 35.071)">
              <line id="Line_2" data-name="Line 2" x1="6.588" y2="30.236" transform="translate(6.876)" fill="none" stroke="#58acf5" stroke-linecap="round" stroke-linejoin="round" stroke-width="0.534"/>
              <line id="Line_3" data-name="Line 3" x1="0.642" y2="15.837" transform="translate(9.528 2.227)" fill="none" stroke="#58acf5" stroke-linecap="round" stroke-linejoin="round" stroke-width="0.534"/>
              <path id="Path_101" data-name="Path 101" d="M225.967,218.214a5.5,5.5,0,0,0-3.231-.768,10.971,10.971,0,0,0-3.33,1" transform="translate(-219.057 -188.518)" fill="none" stroke="#58acf5" stroke-linecap="round" stroke-linejoin="round" stroke-width="0.534"/>
              <path id="Path_102" data-name="Path 102" d="M221.917,248.976c12.258.414,54.709-29.611,54.709-29.611a28.662,28.662,0,0,0-4.594-9.9,200.88,200.88,0,0,0-52.889,15.095" transform="translate(-219.142 -191.403)" fill="none" stroke="#58acf5" stroke-linecap="round" stroke-linejoin="round" stroke-width="0.534"/>
            </g>
            <path id="Path_103" data-name="Path 103" d="M245.563,227.475s24.055,13.4,37.738,11.472" transform="translate(-208.298 -149.809)" fill="none" stroke="#58acf5" stroke-linecap="round" stroke-linejoin="round" stroke-width="0.534"/>
            <g id="Group_39" data-name="Group 39" transform="translate(59.837 22.86)">
              <path id="Path_104" data-name="Path 104" d="M262.646,224.744l8.4-2.475c-.42-1.3-2.1-27.653-2.1-27.653" transform="translate(-262.646 -184.57)" fill="none" stroke="#58acf5" stroke-linecap="round" stroke-linejoin="round" stroke-width="0.534"/>
              <path id="Path_105" data-name="Path 105" d="M272.692,222.2a5.2,5.2,0,0,0-.609-2.58c-.761-1.768-1.6-3.632-3.158-4.7a7.09,7.09,0,0,1,7.065,2.549" transform="translate(-260.628 -177.263)" fill="none" stroke="#58acf5" stroke-linecap="round" stroke-linejoin="round" stroke-width="0.534"/>
              <path id="Path_106" data-name="Path 106" d="M268.074,204.77l1.974-10.023" transform="translate(-260.902 -184.522)" fill="none" stroke="#58acf5" stroke-linecap="round" stroke-linejoin="round" stroke-width="0.534"/>
              <path id="Path_107" data-name="Path 107" d="M267.516,192.78a15.357,15.357,0,0,1,8.405-5.539" transform="translate(-261.081 -187.241)" fill="none" stroke="#58acf5" stroke-linecap="round" stroke-linejoin="round" stroke-width="0.267"/>
            </g>
            <line id="Line_4" data-name="Line 4" y1="5.196" x2="15.833" transform="translate(58.356 110.667)" fill="none" stroke="#58acf5" stroke-linecap="round" stroke-linejoin="round" stroke-width="0.534"/>
            <line id="Line_5" data-name="Line 5" x2="18.624" y2="6.464" transform="translate(8.564 110.033)" fill="none" stroke="#58acf5" stroke-linecap="round" stroke-linejoin="round" stroke-width="0.534"/>
          </g>
          <g id="Group_41" data-name="Group 41" transform="translate(16.679 161.494)">
            <path id="Path_108" data-name="Path 108" d="M260.631,211.3c.487-.6,7.135-1.507,10.284,1.106l.379,3.809-7.67,2.26Z" transform="translate(-213.068 -210.647)" fill="#f0948a"/>
            <path id="Path_109" data-name="Path 109" d="M225.629,216.4a13.671,13.671,0,0,1,9.148-3.885c5.765-.17,7.561,1.6,7.561,1.6l-17.7,5.8Z" transform="translate(-224.635 -209.973)" fill="#f0948a"/>
          </g>
        </g>
        <g id="Group_43" data-name="Group 43" transform="translate(22.766 91.95)">
          <path id="Path_110" data-name="Path 110" d="M243.857,159.594l-.674,3.528a27.869,27.869,0,0,0-2.951,5.445c-4.068,10.015-3.314,22.988-2.048,34.364l.092.816-.914.087c-.242-.014-5.955-.07-6.412,10.4-.391,9.2.081,13.39,1.576,14.029,1.131.5,3.759.125,4.594-.041l.3,1.6a18.323,18.323,0,0,1-3.14.319,5.987,5.987,0,0,1-2.357-.375c-2.048-.876-3.059-3.626-2.546-15.6.2-4.626,1.4-8,3.57-10.043a6.927,6.927,0,0,1,3.583-1.834c-1.239-11.376-1.859-24.239,2.25-34.35A30.636,30.636,0,0,1,243.857,159.594Z" transform="translate(-229.242 -159.594)" fill="#241f21"/>
          <path id="Path_111" data-name="Path 111" d="M240.465,218.873l-.176-1.617c1.5-.173,3.015-.428,3.723-1.464a4.059,4.059,0,0,0,.5-2.058,47.385,47.385,0,0,0-1.035-10.063l-.145-.838c-.091-.53-.174-1.068-.256-1.609a17.165,17.165,0,0,0-1.908-6.583c-1.176-1.88-2.85-2.508-5.605-2.109l-.222-1.61c3.356-.492,5.632.41,7.152,2.835a18.429,18.429,0,0,1,2.142,7.214c.081.53.161,1.057.25,1.576l.145.835a48.7,48.7,0,0,1,1.058,10.425,5.518,5.518,0,0,1-.782,2.923C244.125,218.451,241.834,218.715,240.465,218.873Z" transform="translate(-227.284 -148.294)" fill="#241f21"/>
          <path id="Path_112" data-name="Path 112" d="M235.873,212.8h0a1.1,1.1,0,0,1-1.074-1.107V210.2a1.1,1.1,0,0,1,1.074-1.108h0a1.1,1.1,0,0,1,1.074,1.108v1.493A1.1,1.1,0,0,1,235.873,212.8Z" transform="translate(-227.457 -141.668)" fill="#241f21"/>
          <path id="Path_113" data-name="Path 113" d="M239.417,212.8h0a1.1,1.1,0,0,1-1.074-1.107V210.2a1.1,1.1,0,0,1,1.074-1.108h0a1.1,1.1,0,0,1,1.074,1.108v1.493A1.1,1.1,0,0,1,239.417,212.8Z" transform="translate(-226.318 -141.668)" fill="#241f21"/>
        </g>
        <g id="Group_45" data-name="Group 45" transform="translate(56.717 91.435)">
          <path id="Path_114" data-name="Path 114" d="M263.533,209.5l-.176,3.167-1.348-.069.176-3.181c.458-8.39.943-17.057.593-25.488-.284-6.834-2.709-16.127-7.479-22.948l-.363-1.764h.754c5.4,7.126,8.125,17.294,8.434,24.656C264.475,192.358,263.99,201.068,263.533,209.5Z" transform="translate(-254.936 -159.216)" fill="#241f21"/>
          <g id="Group_44" data-name="Group 44" transform="translate(1.452 52.162)">
            <path id="Path_115" data-name="Path 115" d="M268.181,203.77a6.076,6.076,0,1,1-6.073-6.261A6.168,6.168,0,0,1,268.181,203.77Z" transform="translate(-256.035 -197.509)" fill="#241f21"/>
            <ellipse id="Ellipse_1" data-name="Ellipse 1" cx="2.513" cy="2.591" rx="2.513" ry="2.591" transform="translate(3.709 3.832)" fill="none" stroke="#fff" stroke-miterlimit="10" stroke-width="0.255"/>
          </g>
        </g>
      </g>
      <g id="Group_72" data-name="Group 72" transform="translate(216.44 0)">
        <g id="Group_48" data-name="Group 48" transform="translate(3.71 264.671)">
          <g id="Group_47" data-name="Group 47" transform="translate(20.382)">
            <path id="Path_116" data-name="Path 116" d="M336.755,354.738c.162,2.72.231,5.845.231,9.279,0,.49,0,1-.015,1.5-.135,38.491-8.171,113.174-8.171,113.174H304.666l1.837-105.2,1.712-98.553,29.668,7.177.72.181L336.8,353.155Z" transform="translate(-304.666 -274.939)" fill="#7abbf4"/>
            <path id="Path_117" data-name="Path 117" d="M327.334,283.808s-.136,57.682,3.992,99.2S344.907,476.1,344.907,476.1l25.361.65c1.32-20.246-4.885-40.551-4.5-60.845.5-26.834,2.976-53.189,4.5-80.007,1.089-19.1-.7-38.729,2.006-57.629l-43.566,2.772Z" transform="translate(-297.382 -273.735)" fill="#7abbf4"/>
            <path id="Path_118" data-name="Path 118" d="M345.345,469.625a.34.34,0,0,1-.322-.24c-4.128-12.727-13.5-92.358-13.6-93.159l-5.458-78.753a.345.345,0,0,1,.314-.373.329.329,0,0,1,.362.324l5.457,78.733c.092.785,9.458,80.345,13.565,93.005a.354.354,0,0,1-.216.444A.327.327,0,0,1,345.345,469.625Z" transform="translate(-297.821 -266.914)" fill="#3c90f2"/>
            <path id="Path_119" data-name="Path 119" d="M360.69,476.754c.476-13.078-1.876-26.184-4.146-38.883-1.822-10.177-3.712-20.7-4.148-31.146-.245-6.083-.013-12.194.272-18.433,1.306-28.888,3.521-58.085,6.554-86.807l.082-.756c.774-7.247,1.563-14.761.856-22.133,0-.057-.013-.1-.013-.155a.334.334,0,0,0-.367-.322.347.347,0,0,0-.3.392c0,.042.014.084.014.125.693,7.3-.1,14.788-.871,22.021l-.082.744c-3.031,28.734-5.248,57.96-6.552,86.863-.285,6.251-.517,12.377-.272,18.488.435,10.5,2.324,21.04,4.146,31.245,2.271,12.671,4.61,25.75,4.161,38.743Z" transform="translate(-289.579 -273.787)" fill="#3c90f2"/>
            <path id="Path_120" data-name="Path 120" d="M330.887,336.128l-1.279,30.361c-.2,4.864-.422,9.9-.843,14.817-.381,4.486-.951,9.027-1.509,13.4-.163,1.261-.313,2.524-.476,3.771-2.352,19.246-3.794,38.786-4.228,58.185h-.68c.436-19.428,1.876-39.009,4.243-58.268.149-1.261.312-2.509.462-3.772.556-4.373,1.129-8.9,1.509-13.371.435-4.92.638-9.939.843-14.788l1.278-30.376a.348.348,0,0,1,.354-.321A.343.343,0,0,1,330.887,336.128Z" transform="translate(-299.137 -252.909)" fill="#3c90f2"/>
          </g>
          <path id="Path_121" data-name="Path 121" d="M347.461,424.374s-6.632,14.386-10.8,21.9,10.761,10.02,18.4,0a76.426,76.426,0,0,0,11.089-21.422Z" transform="translate(-274.233 -220.815)" fill="#403f3f"/>
          <path id="Path_122" data-name="Path 122" d="M315.22,425.3s-24.07,6.44-25.921,9.78,40.964,2.387,41.658,1.67,1.823-11.451,1.823-11.451Z" transform="translate(-289.241 -220.478)" fill="#403f3f"/>
        </g>
        <path id="Path_123" data-name="Path 123" d="M318.564,170.44s-9.1,11.359-19.191,33.766l14.79,24.924Z" transform="translate(-282.275 -48.117)" fill="#7abbf4"/>
        <path id="Path_124" data-name="Path 124" d="M379.37,318.828l.2,2.677-73.64-3.476s.136-1.275.368-3.5a3.123,3.123,0,0,1,.028-.351c1.495-14.788,6.7-67.632,5.724-78.943-.041-.435-.082-.8-.136-1.108-.149-.842-.285-1.878-.381-3.07-.136-1.527-.246-3.321-.3-5.3,0-.365-.026-.729-.041-1.08-.34-12.923.585-33.037,1.958-42.653a.392.392,0,0,0,.028-.169c.176-1.177.353-2.186.53-3a9.44,9.44,0,0,1,.761-2.117,12.675,12.675,0,0,1,1.7-2.592.049.049,0,0,1,.013-.029c5.765-7.036,18.9-11.858,18.9-11.858l21.51-1.079,25.52,13.764c-5.846,6.953-9.952,49.817-9.952,49.817l7.179,93.69Z" transform="translate(-280.167 -51.471)" fill="#7abbf4"/>
        <g id="Group_63" data-name="Group 63" transform="translate(31.348)">
          <g id="Group_49" data-name="Group 49" transform="translate(23.12 84.7)">
            <path id="Path_125" data-name="Path 125" d="M330.912,178.539c6.053,1.839,18.228-9.74,18.228-9.74l-.083-7.859c-.091-7.857.559-18.121.559-18.121l-.6.129-20,4.4s-.025,2.588-.033,5.8c-.017,2.983-.017,6.491.033,8.984C329.11,167.32,324.866,176.709,330.912,178.539Z" transform="translate(-327.655 -142.82)" fill="#f0948a"/>
          </g>
          <g id="Group_62" data-name="Group 62">
            <g id="Group_50" data-name="Group 50">
              <path id="Path_127" data-name="Path 127" d="M346.228,155.33a3.411,3.411,0,0,0,4.882.38,6.95,6.95,0,0,0,2.118-5.159c3.4,1.1,7.353,1.14,10.223-1.09s3.889-7.22,1.368-9.887c1.529,1.519,4.013.956,5.872-.059a12.846,12.846,0,0,0,4.877-4.45c2.767-4.516,1.481-11.3-2.714-14.308-4.865-3.494-11.859-3.224-16.74.242-3.347,2.377-5.729,6.041-7.451,9.917C345.33,138.421,341.574,148.672,346.228,155.33Z" transform="translate(-299.267 -67.014)" fill="#241f21"/>
              <path id="Path_128" data-name="Path 128" d="M312.051,102.223a19.506,19.506,0,0,0-.2,16.341,3.82,3.82,0,0,0,1.169,1.622,1.362,1.362,0,0,0,1.784-.113,2.358,2.358,0,0,0,.394-.9q1.956-6.986,3.914-13.972c.572-2.043,1.062-4.522-.291-6.094C316.261,96.13,313.306,99.663,312.051,102.223Z" transform="translate(-310.158 -74.364)" fill="#241f21"/>
              <path id="Path_129" data-name="Path 129" d="M355.82,81.338c5.92,1.65,11.176,6.833,12,13.3.51,3.986-.625,7.978-1.747,11.818,5.276.248,10.234,3.8,12.709,8.774a19.987,19.987,0,0,1,.332,16.315c-.831,1.972-2.118,3.927-4.054,4.569-2.049.678-4.248-.29-6.09-1.464a28.573,28.573,0,0,1-7.259-6.671c-2.921-3.8-4.91-8.29-7.137-12.589-4.271-8.248-9.5-15.9-13.525-24.295-.638-1.325-2.952-4.931-2.735-6.449.243-1.705,2.874-2.185,4.247-2.64A22.825,22.825,0,0,1,355.82,81.338Z" transform="translate(-301.114 -80.641)" fill="#241f21"/>
            </g>
            <g id="Group_53" data-name="Group 53" transform="translate(59.755 52.74)">
              <g id="Group_51" data-name="Group 51">
                <path id="Path_130" data-name="Path 130" d="M358.919,121.1c.266.083,4.045-3.464,8.31-.655s5.23,18.823-11.849,16.763C355.381,137.205,358.076,120.835,358.919,121.1Z" transform="translate(-355.381 -119.358)" fill="#f0948a"/>
              </g>
              <g id="Group_52" data-name="Group 52" transform="translate(3.395 2.623)">
                <path id="Path_131" data-name="Path 131" d="M359.607,125.414a6.213,6.213,0,0,1,1.734-3.288,2.809,2.809,0,0,1,3.683-.272,4.576,4.576,0,0,1,1.288,1.893,7.7,7.7,0,0,1-1,7.32,6.263,6.263,0,0,1-7.362,2.092" transform="translate(-357.95 -121.284)" fill="none" stroke="#241f21" stroke-linecap="round" stroke-miterlimit="10" stroke-width="0.238"/>
                <path id="Path_132" data-name="Path 132" d="M365.009,122.247s-6.043,4.284-4.729,10.564" transform="translate(-357.261 -120.935)" fill="none" stroke="#241f21" stroke-linecap="round" stroke-miterlimit="10" stroke-width="0.238"/>
              </g>
            </g>
            <path id="Path_133" data-name="Path 133" d="M374.546,132.045a50.106,50.106,0,0,1-3.4,13.467,38.664,38.664,0,0,1-8.91,13.3,31.963,31.963,0,0,1-3.51,2.938v.014a23.169,23.169,0,0,1-11.169,5.322c-.309.08-.607.172-.914.251a19.891,19.891,0,0,1-6.278.7c-1.335.079-2.57.118-3.683.158-6.054.172-17.052-10.054-21.042-15.167-.173-.225-.334-.448-.482-.685-3.422-5.232-2.4-13.824-2.4-13.824h.012V138.4c-.062-1.541.494-2.3.432-4.559a2.806,2.806,0,0,0-.061-.488c-.136-.751-.47-1.91-.754-2.978a9.747,9.747,0,0,1-.444-2.332c.049-1.054.123-2.122.21-3.189q.036-.435.074-.869c.136-1.358.309-2.728.518-4.085a55.827,55.827,0,0,1,1.8-7.827,39.825,39.825,0,0,1,4.658-10.121,27.389,27.389,0,0,1,4.227-5.033,30.31,30.31,0,0,1,17.953-7.748,27.124,27.124,0,0,1,3.731-.065,29.171,29.171,0,0,1,6.241.922,28.88,28.88,0,0,1,4.276,1.463A31.356,31.356,0,0,1,373.4,112.411,53.177,53.177,0,0,1,374.546,132.045Z" transform="translate(-309.583 -77.59)" fill="#f0948a"/>
            <path id="Path_134" data-name="Path 134" d="M315.236,92.3c-2.653,2.842-4.952,7.093-3.287,10.689a7.519,7.519,0,0,0,3.172,3.243,14.687,14.687,0,0,0,10.017,1.325,43.91,43.91,0,0,0,9.733-3.465c-3.192,4.81-2.94,12.14,1.107,16.152,3.224,3.2,8.151,3.856,12.4,2.626s7.912-4.1,11.161-7.261c-.223,3.137-1.288,6.236-.916,9.358a11.132,11.132,0,0,0,4.987,7.845,13.315,13.315,0,0,0,8.854,1.877,8.521,8.521,0,0,0,3.726-1.231c2.721-1.81,3.626-5.528,4.132-8.9.636-4.243.907-8.959-1.423-12.465-1.27-1.913-3.184-3.238-4.548-5.077-2.09-2.821-2.7-6.581-4.478-9.636-2.842-4.89-8.187-7.314-13.2-9.445C349.785,85,344.089,81.367,336.47,82A32.968,32.968,0,0,0,315.236,92.3Z" transform="translate(-309.764 -80.175)" fill="#241f21"/>
            <path id="Path_135" data-name="Path 135" d="M354.977,133.927c.174.576.717,1.268,1.172.906a1.037,1.037,0,0,0,.284-.655,40.415,40.415,0,0,1,3.827-11.3,7.16,7.16,0,0,0,.732-1.759,3.471,3.471,0,0,0-2.714-4.017C352.054,116.227,353.938,130.5,354.977,133.927Z" transform="translate(-296.109 -67.451)" fill="#241f21"/>
            <g id="Group_61" data-name="Group 61" transform="translate(2.575 41.738)">
              <g id="Group_56" data-name="Group 56">
                <g id="Group_54" data-name="Group 54" transform="translate(28.385 14.685)">
                  <path id="Path_136" data-name="Path 136" d="M334.173,122.187a8.723,8.723,0,0,0,2.917,1.776,9.457,9.457,0,0,0,3.181.522,17.478,17.478,0,0,0,6.63-1.572l.036-.015a.332.332,0,0,1,.433.21.382.382,0,0,1-.033.323,7.685,7.685,0,0,1-3.07,2.768,8.219,8.219,0,0,1-4.037.921,7.714,7.714,0,0,1-4.025-1.218,6.089,6.089,0,0,1-2.6-3.39.354.354,0,0,1,.219-.435.311.311,0,0,1,.305.068Z" transform="translate(-333.589 -122.062)" fill="#241f21"/>
                </g>
                <g id="Group_55" data-name="Group 55" transform="translate(0.461 11.728)">
                  <path id="Path_137" data-name="Path 137" d="M322.858,121.688a4.864,4.864,0,0,1-2.668,2.286,6.373,6.373,0,0,1-3.469.249,7.073,7.073,0,0,1-3.135-1.5c-.185-.155-.361-.323-.536-.488-.107-.593-.37-1.507-.593-2.348a14.242,14.242,0,0,0,4.655,2.182,7.743,7.743,0,0,0,2.669.155,6.969,6.969,0,0,0,2.669-.9l.038-.031a.289.289,0,0,1,.263,0A.312.312,0,0,1,322.858,121.688Z" transform="translate(-312.456 -119.891)" fill="#241f21"/>
                </g>
                <path id="Path_138" data-name="Path 138" d="M332.874,116.289a8.632,8.632,0,0,1,5.155-2.813,12.28,12.28,0,0,1,5.771.418,13.918,13.918,0,0,1,5.008,2.817,11.331,11.331,0,0,1,3.335,4.811.576.576,0,0,1-.32.722.5.5,0,0,1-.359,0l-.013-.005-4.679-1.821c-1.468-.552-2.9-1.039-4.32-1.451a34.811,34.811,0,0,0-4.281-.966,29.558,29.558,0,0,0-4.684-.345h-.038a.8.8,0,0,1-.768-.823A.855.855,0,0,1,332.874,116.289Z" transform="translate(-305.496 -110.549)" fill="#241f21"/>
                <path id="Path_139" data-name="Path 139" d="M326.229,117.725a.484.484,0,0,1-.358.027h-.012a28.379,28.379,0,0,0-4.708-.975,32.607,32.607,0,0,0-4.4-.225c-1.471.014-2.966.106-4.5.237l-.148.014q.036-.435.074-.869c.136-1.358.309-2.728.518-4.085a13.623,13.623,0,0,1,4.066-.567,12.322,12.322,0,0,1,5.622,1.41,8.974,8.974,0,0,1,4.115,4.295A.576.576,0,0,1,326.229,117.725Z" transform="translate(-312.107 -111.281)" fill="#241f21"/>
              </g>
              <g id="Group_58" data-name="Group 58" transform="translate(11.976 8.758)">
                <g id="Group_57" data-name="Group 57" transform="translate(0 14.626)">
                  <path id="Path_140" data-name="Path 140" d="M333.672,132.017l-2.036,1a.376.376,0,0,0-.049.02l-4.347,2.128c-.817.4-.942.583-1.786-.086l-2.648-3.549c-.054-.068-.089-.114-.111-.146l-.024-.027-1.389-1.864a.577.577,0,0,1,.4-.914,22.236,22.236,0,0,1,5.7.109,18.961,18.961,0,0,1,6.32,2.382A.535.535,0,0,1,333.672,132.017Z" transform="translate(-321.171 -128.448)" opacity="0.44" fill="url(#linear-gradient-7)"/>
                </g>
                <path id="Path_141" data-name="Path 141" d="M326.923,133.081s1.6-2.359,2.832-2S327.833,132.715,326.923,133.081Z" transform="translate(-319.322 -112.881)" fill="#241f21"/>
                <path id="Path_142" data-name="Path 142" d="M324.885,117.711s2.121,2.011.909,6a43.454,43.454,0,0,1-4.567,9.05,77.777,77.777,0,0,0,4.941,6.93" transform="translate(-321.152 -117.711)" fill="none" stroke="#241f21" stroke-linecap="round" stroke-linejoin="round" stroke-width="0.457"/>
              </g>
              <g id="Group_60" data-name="Group 60" transform="translate(14.168 30.843)">
                <g id="Group_59" data-name="Group 59">
                  <path id="Path_143" data-name="Path 143" d="M328.464,138.317c-.275,0-.551-.005-.831-.014a9.411,9.411,0,0,1-4.646-1.24.348.348,0,0,1-.116-.458.3.3,0,0,1,.429-.124,8.812,8.812,0,0,0,4.352,1.148,17.918,17.918,0,0,0,11.254-3.075.306.306,0,0,1,.437.094.351.351,0,0,1-.09.466A18.3,18.3,0,0,1,328.464,138.317Z" transform="translate(-322.83 -133.715)" fill="#241f21"/>
                  <path id="Path_144" data-name="Path 144" d="M336.057,134.16a1.021,1.021,0,0,1,.643-.233.411.411,0,0,1,.356.509.579.579,0,0,1-.141.185c-.6.576-2.12,1.644-2.918,1.249A8.158,8.158,0,0,1,336.057,134.16Z" transform="translate(-319.241 -133.924)" fill="#241f21"/>
                </g>
                <path id="Path_145" data-name="Path 145" d="M335.75,140.7s-1.411-1.468-4.985-1.173-4.75,1.937-4.75,1.937Z" transform="translate(-321.806 -131.907)" fill="url(#linear-gradient-8)"/>
              </g>
              <path id="Path_146" data-name="Path 146" d="M353.391,134.209a6.681,6.681,0,1,1-6.668-7.109A6.9,6.9,0,0,1,353.391,134.209Z" transform="translate(-303.125 -105.552)" fill="url(#linear-gradient-9)"/>
              <path id="Path_147" data-name="Path 147" d="M320.855,132.24A6.942,6.942,0,0,1,315,139.277c-3.422-5.232-2.4-13.824-2.4-13.824h.012v-.118a5.677,5.677,0,0,1,1.57-.21A6.909,6.909,0,0,1,320.855,132.24Z" transform="translate(-311.995 -106.267)" fill="url(#linear-gradient-10)"/>
            </g>
          </g>
        </g>
        <path id="Path_148" data-name="Path 148" d="M328.916,162.251s-.806,7.98,4.168,8.228,17.348-9.3,17.348-9.3l-25.314,30.769Z" transform="translate(-274.002 -51.469)" fill="#fff"/>
        <path id="Path_149" data-name="Path 149" d="M366.021,171.279s22.4,37.647,25.174,41.05l-28.6,21.337L356.066,221.1S354.733,184.564,366.021,171.279Z" transform="translate(-264.073 -47.813)" fill="#7abbf4"/>
        <path id="Path_150" data-name="Path 150" d="M287.5,237.086l24.932,26.487,4.195-14.75-13.06-24.595Z" transform="translate(-286.089 -28.635)" fill="#f0948a"/>
        <g id="Group_67" data-name="Group 67" transform="translate(18.092 111.635)">
          <g id="Group_66" data-name="Group 66">
            <path id="Path_151" data-name="Path 151" d="M327.351,162.593l-3.948,34.9,30.708-34.9" transform="translate(-292.645 -162.593)" fill="none" stroke="#3c90f2" stroke-linecap="round" stroke-linejoin="round" stroke-width="0.257"/>
            <g id="Group_64" data-name="Group 64" transform="translate(72.142 11.246)">
              <path id="Path_152" data-name="Path 152" d="M365.346,170.849s-12.193,24.553-10.439,50.405" transform="translate(-354.719 -170.849)" fill="none" stroke="#3c90f2" stroke-linecap="round" stroke-linejoin="round" stroke-width="0.515"/>
              <path id="Path_153" data-name="Path 153" d="M356.482,208.454l-1.744-2.264s-.41,10.865,3.015,18.853Z" transform="translate(-354.722 -158.049)" fill="#3c90f2"/>
              <path id="Path_154" data-name="Path 154" d="M355.769,213.839c.239-6.683,2.192-13.157,4.128-19.539" transform="translate(-354.386 -162.355)" fill="none" stroke="#3c90f2" stroke-linecap="round" stroke-linejoin="round" stroke-width="0.515"/>
              <line id="Line_6" data-name="Line 6" y1="21.299" x2="28.26" transform="translate(7.206 39.594)" fill="none" stroke="#3c90f2" stroke-linecap="round" stroke-linejoin="round" stroke-width="0.515"/>
            </g>
            <g id="Group_65" data-name="Group 65" transform="translate(0 11.039)">
              <path id="Path_155" data-name="Path 155" d="M311.256,231.433a.339.339,0,0,1-.312.364h-.028c-.026,0-.054,0-.067-.014a.338.338,0,0,1-.272-.309q-.143-1.976-.245-3.869c-.123-1.821-.2-3.588-.3-5.3,0-.365-.026-.729-.041-1.08-.951-21.824.436-35.027,1.958-42.653a.394.394,0,0,0,.028-.169c.448-2.131.884-3.813,1.291-5.116a12.679,12.679,0,0,1,1.7-2.592C313.323,174.551,308.4,189.971,311.256,231.433Z" transform="translate(-297.055 -170.697)" fill="#3c90f2"/>
              <path id="Path_156" data-name="Path 156" d="M311.53,181.012s-4.792,32.746-3.532,38.561l3.461,5.728Z" transform="translate(-297.663 -166.961)" fill="#3c90f2"/>
              <path id="Path_157" data-name="Path 157" d="M300.125,193.65l13.043,21.438q-1.972-10.758-3.945-21.516" transform="translate(-300.125 -162.412)" fill="none" stroke="#3c90f2" stroke-linecap="round" stroke-linejoin="round" stroke-width="0.515"/>
            </g>
          </g>
          <path id="Path_158" data-name="Path 158" d="M337.138,191.974l18.746,1.247v3.261l-18.746-.716Z" transform="translate(-288.231 -151.952)" fill="#3c90f2"/>
        </g>
        <path id="Path_159" data-name="Path 159" d="M305.934,276.324l73.64,3.476s-30.606,3.1-43.566,2.626S305.934,276.324,305.934,276.324Z" transform="translate(-280.167 -9.766)" fill="#3c90f2"/>
        <path id="Path_160" data-name="Path 160" d="M318.387,225.439c0,4.023-.136,7.621-.136,7.621a47.126,47.126,0,0,1-5.207,6.634,37.036,37.036,0,0,1-4.066,3.771c-10.958,8.691-21.4,5.93-22.475.617-1.4-6.841,18.776-46.621,18.776-46.621l12.781,21.558A52.711,52.711,0,0,1,318.387,225.439Z" transform="translate(-286.433 -38.33)" fill="#f0948a"/>
        <g id="Group_68" data-name="Group 68" transform="translate(39.975 159.156)">
          <path id="Path_161" data-name="Path 161" d="M316.686,225.586V199.617l39.817,1.37,2.62,75.29h-42.07Z" transform="translate(-316.686 -196.705)" fill="#3c90f2"/>
          <path id="Path_5342" data-name="Path 5342" d="M1.7,0,14.673.015a1.735,1.735,0,0,1,1.706,1.758V3.04a.311.311,0,0,1-.307.316L.309,3.338A.313.313,0,0,1,0,3.021V1.754A1.725,1.725,0,0,1,1.7,0Z" transform="translate(11.913 0) rotate(2.155)" fill="#ebe5e3"/>
        </g>
        <path id="Path_162" data-name="Path 162" d="M310.256,230.031a37.056,37.056,0,0,1-4.066,3.771c-6.118-8.774-11.407-9.489-11.068-9.545C300.983,223.373,307.36,227.718,310.256,230.031Z" transform="translate(-283.646 -28.667)" fill="#ff4a54"/>
        <g id="Group_69" data-name="Group 69" transform="translate(26.346 214.052)">
          <path id="Path_163" data-name="Path 163" d="M306.372,257.034s12.957,4.55,19.259,2.779,1.746-14.374,1.746-14.374l-16.809-3.156-3.861,13.552" transform="translate(-306.372 -236.147)" fill="#f0948a"/>
          <path id="Path_164" data-name="Path 164" d="M337.508,250.073a3.613,3.613,0,0,1-.056.543c-.185.981-.382,2.068-.609,3.155a7.77,7.77,0,0,1-.172.77,37.838,37.838,0,0,1-1.013,3.909c-.087.273-.188.53-.288.771-.418,1.043-.882,1.74-1.378,1.819-10.461,1.453-17.661.385-19.183.048s-5.414-7.818-5.414-7.818l2.647-8.777s10.633-7.544,12.861-6.639-4.649,7.507-4.649,7.507l3.091.824,10.469-.068a3.7,3.7,0,0,1,3.66,3.2A3.356,3.356,0,0,1,337.508,250.073Z" transform="translate(-305.401 -237.779)" fill="#f0948a"/>
          <path id="Path_165" data-name="Path 165" d="M334.784,247l-12.894.656-3.7-.564a.373.373,0,0,1,.1-.74l3.63.549,12.834-.655A3.357,3.357,0,0,1,334.784,247Z" transform="translate(-302.677 -234.71)" fill="#241f21"/>
          <path id="Path_166" data-name="Path 166" d="M334.276,249.519a7.706,7.706,0,0,1-.172.77l-12.029.71-4.375-.65a.377.377,0,0,1-.31-.435.372.372,0,0,1,.423-.32l4.288.651Z" transform="translate(-302.833 -233.527)" fill="#241f21"/>
          <path id="Path_167" data-name="Path 167" d="M333.141,253.022c-.087.272-.188.53-.288.771l-10.716.356-4.594-.634a.382.382,0,0,1-.311-.42.354.354,0,0,1,.408-.32l4.536.62Z" transform="translate(-302.883 -232.35)" fill="#241f21"/>
        </g>
        <path id="Path_168" data-name="Path 168" d="M379.281,278.213c-8.389-2.13-17.132-3.015-27.411-3.63-15.133-.926-30.457-1.15-45.658-.673a3.055,3.055,0,0,1,.028-.351c15.186-.476,30.524-.252,45.656.673,10.239.617,18.968,1.5,27.357,3.6Z" transform="translate(-280.077 -10.855)" fill="#3c90f2"/>
        <g id="Group_71" data-name="Group 71" transform="translate(36.984 167.555)">
          <path id="Path_169" data-name="Path 169" d="M396.119,272.035c-6.949,1.527-16.914-15.755-24.149-30.726-.422-.869-.829-1.725-1.224-2.58-4.7-9.993-7.981-18.361-7.981-18.361l22.285-16.724S408.22,269.386,396.119,272.035Z" transform="translate(-298.888 -203.645)" fill="#f0948a"/>
          <path id="Path_170" data-name="Path 170" d="M405.914,263.624c-6.908,2.79-73.627-20.633-73.627-20.633l2.2-16.2,2.869.364h.041l2.583.323,63.469,7.962Z" transform="translate(-308.682 -195.263)" fill="#f0948a"/>
          <path id="Path_171" data-name="Path 171" d="M340.23,230.8s-.544,16.863-2.216,16.2-18.071-8.368-21.389-11.283a5.7,5.7,0,0,1-1.481-2.747v-.014c-.11-.365-.19-.73-.272-1.136-.067-.323-.123-.673-.177-1.023v-.014c-.054-.336-.1-.673-.122-1.038v-.014a26.881,26.881,0,0,1-.151-3.014c0-.294,0-.588.015-.883q0-.715.041-1.429c.013-.267.026-.548.04-.813.082-1.15.2-2.271.354-3.309v-.014l.123-.757c.013-.083.027-.154.04-.238l.123-.729a14.888,14.888,0,0,1,.707-2.494c.571-1.374,3.195,1.919,7.574,3.813C332.126,223.591,340.23,230.8,340.23,230.8Z" transform="translate(-314.423 -199.27)" fill="#f0948a"/>
          <path id="Path_172" data-name="Path 172" d="M383.192,242.058a50.719,50.719,0,0,0-13.162-10.077c-.421-.869-.828-1.724-1.224-2.58q.327.149.694.3C377.9,233.34,382.893,241.555,383.192,242.058Z" transform="translate(-296.947 -194.316)" fill="#ff4a54"/>
          <path id="Path_173" data-name="Path 173" d="M328.829,225.922s-6.727-11.027-4.3-12.37,10.5,10.977,11.021,10.862,4.947,5.186,4.467,7.564c-.44,2.179-5.075,4.566-5.075,4.566l-4.37-2.907-1.747-3Z" transform="translate(-311.345 -200.094)" fill="#f0948a"/>
          <g id="Group_70" data-name="Group 70" transform="translate(0 20.241)">
            <path id="Path_174" data-name="Path 174" d="M314.763,219.261v.014l3.059,3.378c.015.029.054.042.082.056l3.169,1.682a.228.228,0,0,0,.135.056.311.311,0,0,0,.272-.181.343.343,0,0,0-.122-.434l-3.141-1.655-3.331-3.672Z" transform="translate(-314.314 -218.504)" fill="#241f21"/>
            <path id="Path_175" data-name="Path 175" d="M320.529,227.477a.3.3,0,0,1-.286.2c-.041-.014-.069-.014-.11-.029l-4.105-1.934a.588.588,0,0,1-.1-.056l-1.51-1.626c0-.294,0-.588.015-.883l1.889,2.019,4.066,1.906A.3.3,0,0,1,320.529,227.477Z" transform="translate(-314.423 -216.823)" fill="#241f21"/>
            <path id="Path_176" data-name="Path 176" d="M319.888,230.973a.3.3,0,0,1-.285.169.314.314,0,0,1-.122-.029l-4.446-2.425v-.014c-.11-.365-.19-.73-.272-1.136l.421.5,4.568,2.509A.311.311,0,0,1,319.888,230.973Z" transform="translate(-314.314 -215.232)" fill="#241f21"/>
            <path id="Path_177" data-name="Path 177" d="M339.189,227.378c-.951,1.052-3.971,4.4-4.432,4.892.625-.715,1.808-5.215,1.808-5.215h.041Z" transform="translate(-307.889 -215.407)" fill="#ff4a54"/>
            <path id="Path_178" data-name="Path 178" d="M327.478,222.362l.27.146,3.463,1.864-4.666-3.646" transform="translate(-310.527 -217.699)" fill="#ff4a54"/>
          </g>
        </g>
      </g>
      <g id="Group_105" data-name="Group 105" transform="translate(0 10.248)">
        <g id="Group_76" data-name="Group 76" transform="translate(14.248 270.15)">
          <g id="Group_73" data-name="Group 73" transform="translate(2.226 173.535)">
            <rect id="Rectangle_4" data-name="Rectangle 4" width="7.077" height="10.337" transform="translate(4.51)" fill="#f0948a"/>
            <path id="Path_179" data-name="Path 179" d="M139.131,421.466s-4.792,13.569-3.928,16.834,19.5,19,25.013,17.516-6.295-13.063-9.175-20.189a94.687,94.687,0,0,1-4.355-14.161Z" transform="translate(-135.098 -411.13)" fill="#403f3f"/>
          </g>
          <g id="Group_74" data-name="Group 74" transform="translate(45.764 171.168)">
            <rect id="Rectangle_5" data-name="Rectangle 5" width="7.077" height="10.337" transform="translate(0.648)" fill="#f0948a"/>
            <path id="Path_180" data-name="Path 180" d="M168.886,419.728s-1.886,12.141,0,14.586,29.166,10.394,32.131,7.643-15.972-9.6-18.938-13.25a108.528,108.528,0,0,1-6.307-8.98Z" transform="translate(-168.048 -409.392)" fill="#403f3f"/>
          </g>
          <g id="Group_75" data-name="Group 75">
            <path id="Path_181" data-name="Path 181" d="M135.9,286.484l5.851,58.826s-10.145,43.147-8.06,80.526c2.064,37,2.179,35.756,2.179,35.756l15.083.03s14.28-75.35,18.176-99.67S180.469,291,180.469,291,142.348,289.6,135.9,286.484Z" transform="translate(-133.413 -286.484)" fill="#58acf5"/>
            <path id="Path_182" data-name="Path 182" d="M164.228,334.691v16.566s-2.586,45.124-2.019,65.749c.617,22.424,2.853,42.776,2.853,42.776H182.95s7.947-117.635,7.682-120.407,6.3-52.232,6.3-52.232l-25.688,3.615Z" transform="translate(-124.186 -286.246)" fill="#58acf5"/>
            <path id="Path_183" data-name="Path 183" d="M176.2,293.149l-8.416,46.36-21.095,119.7" transform="translate(-129.146 -284.07)" fill="none" stroke="#fff" stroke-linecap="round" stroke-miterlimit="10" stroke-width="0.51"/>
          </g>
        </g>
        <g id="Group_92" data-name="Group 92" transform="translate(4.331)">
          <path id="Path_184" data-name="Path 184" d="M134.752,224.861s-11.157-3.376-8.408-27.049a176.088,176.088,0,0,1,4.022-22.11c.821-3.309,1.822-6.529,1.956-9.97.2-5.234-.936-10.409-1.67-15.556a61.555,61.555,0,0,1-.1-19.317c1.887-10.715,9.49-23.52,20.967-25.013,0,0,9.1-19.394,33.684-17.56s37.517,30,36.385,41.007-6.792,28.97-4.851,38.908,12.936,36.693,7.277,46.738a82.154,82.154,0,0,1-13.422,17.365Z" transform="translate(-125.908 -88.164)" fill="#241f21"/>
          <g id="Group_77" data-name="Group 77" transform="translate(36.086 76.209)">
            <path id="Path_185" data-name="Path 185" d="M171.442,196.712c-5.345,2.015-17.8-24.156-17.8-24.156l.074-8.6c.081-8.6-.494-19.843-.494-19.843l.531.14,17.664,4.819s.022,2.835.029,6.355c.016,3.267.016,7.107-.029,9.836C171.324,170.937,176.782,194.707,171.442,196.712Z" transform="translate(-153.218 -144.11)" fill="#f0948a"/>
          </g>
          <g id="Group_90" data-name="Group 90" transform="translate(7.928 5.433)">
            <g id="Group_81" data-name="Group 81" transform="translate(4.653 4.029)">
              <g id="Group_80" data-name="Group 80" transform="translate(0 36.784)">
                <g id="Group_78" data-name="Group 78">
                  <path id="Path_187" data-name="Path 187" d="M145.9,123.975c-.251.065-3.606-3.419-7.7-1.011s-5.721,17.262,10.263,16.169C148.461,139.133,146.7,123.77,145.9,123.975Z" transform="translate(-135.43 -122.114)" fill="#f0948a"/>
                </g>
                <g id="Group_79" data-name="Group 79" transform="translate(2.069 2.422)">
                  <path id="Path_188" data-name="Path 188" d="M143.761,127.923a5.81,5.81,0,0,0-1.463-3.143,2.619,2.619,0,0,0-3.414-.432,4.223,4.223,0,0,0-1.284,1.7,7.181,7.181,0,0,0,.6,6.861,5.847,5.847,0,0,0,6.753,2.3" transform="translate(-136.996 -123.892)" fill="none" stroke="#241f21" stroke-linecap="round" stroke-miterlimit="10" stroke-width="0.222"/>
                  <path id="Path_189" data-name="Path 189" d="M137.924,124.71s5.428,4.279,3.919,10.057" transform="translate(-136.697 -123.596)" fill="none" stroke="#241f21" stroke-linecap="round" stroke-miterlimit="10" stroke-width="0.222"/>
                </g>
              </g>
              <path id="Path_190" data-name="Path 190" d="M200.722,131.117a16.17,16.17,0,0,1-.4,2.959c-.163.708-.391,1.389-.593,2.069a1.216,1.216,0,0,0-.054.208,11.479,11.479,0,0,0-.35,1.5,8.082,8.082,0,0,0-.081,1.152c-.026.82.04,1.639.081,2.459.026.639.054,1.278.054,1.944,0,.515,0,1.029-.028,1.556-.107,3.487-.74,7.085-2.614,9.947-.337.514-.687,1.013-1.051,1.513-6.414,8.57-17.489,13.863-27.945,11.918-8.717-1.625-15.777-8-20.17-15.807v-.029a38.342,38.342,0,0,1-1.779-3.569c-.377-.847-.727-1.723-1.037-2.6a46.724,46.724,0,0,1-2.546-12.7c-.013-.292-.041-.583-.041-.875v-.015a48.6,48.6,0,0,1,2.008-17.32,29.072,29.072,0,0,1,17.475-18.613,26.943,26.943,0,0,1,4.042-1.154,27.381,27.381,0,0,1,5.848-.554,26.573,26.573,0,0,1,3.463.236,28.349,28.349,0,0,1,16.357,8.085,25.028,25.028,0,0,1,3.7,4.889,36.926,36.926,0,0,1,3.866,9.639C199.927,121.852,200.977,126.768,200.722,131.117Z" transform="translate(-133.289 -95.111)" fill="#f0948a"/>
            </g>
            <path id="Path_191" data-name="Path 191" d="M153.3,107.735s23.36-13.114,39.063,0S206.128,134.3,206.128,134.3l-2.155-27.008L184.352,92.658,160.2,92.153l-9.7,6.691-3.317,6.525Z" transform="translate(-126.999 -92.153)" fill="#241f21"/>
            <g id="Group_88" data-name="Group 88" transform="translate(18.928 31.406)">
              <g id="Group_82" data-name="Group 82" transform="translate(39.967 4.29)">
                <path id="Path_192" data-name="Path 192" d="M189.435,122.7a16.157,16.157,0,0,1-.4,2.959c-.163.708-.391,1.389-.593,2.069a1.21,1.21,0,0,0-.054.208l-5.551,2.389-5.618-1.208v-.18c-.013-1.306.148-9.252,5.066-10.4C185.972,117.669,188.181,120.2,189.435,122.7Z" transform="translate(-176.244 -118.358)" fill="url(#linear-gradient-11)"/>
                <path id="Path_193" data-name="Path 193" d="M188.673,125.234a1.206,1.206,0,0,0-.054.208,11.479,11.479,0,0,0-.35,1.5,8.1,8.1,0,0,0-.081,1.152,10.041,10.041,0,0,1-1.078.6c.229.737,1.483,2.028.917,1.849a16.741,16.741,0,0,1-2.25-1.32.045.045,0,0,0-.028-.014c-.229.054-.472.125-.727.166a8.08,8.08,0,0,1-1.9.112.118.118,0,0,0-.067.014,13.582,13.582,0,0,0,.552,1.458,4.479,4.479,0,0,0-.5-.124,3.264,3.264,0,0,1-.539-.347,6.688,6.688,0,0,1-.606-.625c-.108-.125-.378-.583-.526-.625a12.188,12.188,0,0,1-4.9-2.694c-.108-.083-.041-.292.081-.264.215.056.5.112.835.168a19.889,19.889,0,0,0,7.558-.042A23.188,23.188,0,0,0,188.673,125.234Z" transform="translate(-176.48 -115.867)" fill="#241f21"/>
              </g>
              <g id="Group_84" data-name="Group 84" transform="translate(4.244)">
                <g id="Group_83" data-name="Group 83" transform="translate(0 3.702)">
                  <path id="Path_194" data-name="Path 194" d="M168.532,129.534s1.193-9.6-5.616-11.3c-8.627-2.166-11.771,7.933-11.771,7.933l10.033,4.181Z" transform="translate(-148.898 -117.926)" fill="url(#linear-gradient-12)"/>
                  <path id="Path_195" data-name="Path 195" d="M149.5,123.433a20.863,20.863,0,0,0,3.2,3.282,8.926,8.926,0,0,1-2.129.6,1.586,1.586,0,0,0-.163.026c-.37.056-.182.369.982.575l.017,0,.061.011a13.609,13.609,0,0,0,2.784-.019.681.681,0,0,0,.071-.005,15.887,15.887,0,0,0,2.114,1.147c-.357.748-2.084,1.979-1.341,1.842a22.988,22.988,0,0,0,3.017-1.195.121.121,0,0,0,.028-.014c.3.087.608.166.924.229a12.954,12.954,0,0,0,2.447.268.218.218,0,0,1,.078.014,11.235,11.235,0,0,1-.831,1.456c.02-.015.593-.072.649-.09a3.654,3.654,0,0,0,.727-.312,7,7,0,0,0,.844-.6c.151-.119.54-.571.72-.594a17.873,17.873,0,0,0,6.57-2.4.15.15,0,0,0-.089-.278c-.277.034-.645.072-1.082.108a32.13,32.13,0,0,1-9.749-.625,40.721,40.721,0,0,1-7.587-2.764c-.818-.392-1.5-.744-1.987-1.008A.225.225,0,0,0,149.5,123.433Z" transform="translate(-149.445 -116.067)" fill="#241f21"/>
                </g>
                <path id="Path_196" data-name="Path 196" d="M150.237,118.687a14.527,14.527,0,0,1,11.083-3.348,12.124,12.124,0,0,1,8.917,5.509" transform="translate(-149.19 -115.208)" fill="none" stroke="#241f21" stroke-miterlimit="10" stroke-width="2.039"/>
                <path id="Path_197" data-name="Path 197" d="M177.207,119.914s3.282-4.667,8.788-4.37a10.647,10.647,0,0,1,8.142,4.606" transform="translate(-140.523 -115.092)" fill="none" stroke="#241f21" stroke-miterlimit="10" stroke-width="1.865"/>
              </g>
              <g id="Group_87" data-name="Group 87" transform="translate(0 12.943)">
                <g id="Group_86" data-name="Group 86" transform="translate(31.225)">
                  <g id="Group_85" data-name="Group 85" transform="translate(0 10.714)">
                    <path id="Path_198" data-name="Path 198" d="M170.083,135.189l1.492.733.036.016L174.8,137.5c.6.3.69.428,1.308-.063l1.94-2.6c.04-.05.065-.084.082-.108l.017-.02,1.017-1.365a.424.424,0,0,0-.292-.67,16.3,16.3,0,0,0-4.177.082,13.855,13.855,0,0,0-4.63,1.744A.392.392,0,0,0,170.083,135.189Z" transform="translate(-169.864 -132.575)" opacity="0.44" fill="url(#linear-gradient-13)"/>
                  </g>
                  <path id="Path_199" data-name="Path 199" d="M173.3,135.969s-1.173-1.729-2.074-1.463S172.634,135.7,173.3,135.969Z" transform="translate(-169.493 -121.172)" fill="#241f21"/>
                  <path id="Path_200" data-name="Path 200" d="M175.324,124.71s-1.553,1.473-.666,4.4a29.222,29.222,0,0,0,2.958,6.021,1.137,1.137,0,0,1-.014,1.225,47.288,47.288,0,0,1-3.217,4.46" transform="translate(-168.411 -124.71)" fill="none" stroke="#241f21" stroke-linecap="round" stroke-linejoin="round" stroke-width="0.334"/>
                </g>
                <path id="Path_201" data-name="Path 201" d="M161.524,136.462a7.649,7.649,0,1,1-7.645-7.882A7.766,7.766,0,0,1,161.524,136.462Z" transform="translate(-146.233 -123.308)" fill="url(#linear-gradient-5)"/>
                <path id="Path_202" data-name="Path 202" d="M187.89,130.8c.026,3.96-.485,8.21-2.641,11.5-.337.514-.687,1.014-1.051,1.513a6.81,6.81,0,0,1-6.266-5.736,6.93,6.93,0,0,1,5.484-8.057A6.613,6.613,0,0,1,187.89,130.8Z" transform="translate(-136.08 -122.824)" fill="url(#linear-gradient-5)"/>
              </g>
            </g>
            <g id="Group_89" data-name="Group 89" transform="translate(0 12.249)">
              <path id="Path_203" data-name="Path 203" d="M147.524,132.727a34.646,34.646,0,0,0,9.61-16.913c2.156-10.225,1.078-11.336,1.078-11.336l-8.619-3.333s-14.45,3.745-17.685,17.1Z" transform="translate(-131.908 -101.145)" fill="#241f21"/>
              <path id="Path_204" data-name="Path 204" d="M148.3,120.9s-.012,12.265-1.257,15.691l-3.313-10.575,2.285-6.346Z" transform="translate(-128.11 -94.435)" fill="#241f21"/>
            </g>
          </g>
          <g id="Group_91" data-name="Group 91" transform="translate(19.099 46.927)">
            <path id="Path_205" data-name="Path 205" d="M198.3,133.256c-.108,3.487-.741,7.085-2.614,9.947-.337.514-.687,1.013-1.052,1.513-6.412,8.57-17.488,13.863-27.944,11.918-8.718-1.625-15.778-8-20.17-15.807V140.8l.93-13.362s19.375,8.529,35.112,7.182C196.833,133.382,198.179,133.271,198.3,133.256Z" transform="translate(-138.383 -120.867)" fill="#92beef"/>
            <path id="Path_206" data-name="Path 206" d="M149.08,130.226a.472.472,0,0,1-.189.041.507.507,0,0,1-.472-.332,10.133,10.133,0,0,0-4.379-5.293,11.739,11.739,0,0,0-2.17-2.027,10.846,10.846,0,0,1,7.492,6.945A.526.526,0,0,1,149.08,130.226Z" transform="translate(-139.877 -122.614)" fill="#92beef"/>
            <path id="Path_207" data-name="Path 207" d="M148.622,138.459a.492.492,0,0,1-.5.444h-.067c-3.287-.43-6.6-3.6-7.693-4.736a11.536,11.536,0,0,0,2.035.514c1.455,1.293,3.664,2.918,5.793,3.2A.508.508,0,0,1,148.622,138.459Z" transform="translate(-140.362 -118.43)" fill="#92beef"/>
          </g>
        </g>
        <g id="Group_104" data-name="Group 104" transform="translate(0 99.942)">
          <path id="Path_208" data-name="Path 208" d="M133.627,286.727s5,7.093,38.249,6.432a255.716,255.716,0,0,0,38.466-4Z" transform="translate(-119.096 -116.189)" fill="#3c90f2"/>
          <g id="Group_93" data-name="Group 93" transform="translate(14.313 4.713)">
            <path id="Path_209" data-name="Path 209" d="M159.986,164.993,133.68,189.149s21.329,15.325,19.265,35.586-9.633,47.568-12.385,59.626-8.256,37.947-6.88,46.458,76.715,2.436,76.715,2.436-11.008-72.2-10.321-84.129,3.459-70.626,3.459-70.626l-24.574-13.506-1.168,24.156Z" transform="translate(-133.463 -164.993)" fill="#58acf5"/>
          </g>
          <path id="Path_210" data-name="Path 210" d="M163.054,282.194l-13.487,17.141s-13.461-23.114-21.342-38.046c-2.965-5.612-5.133-10.056-5.511-11.7-.309-1.361.27-5.57,1.348-11.25,3.651-19.281,13.1-55.617,13.1-55.617,1.726.542,14.458,10.459,18.42,24.225S150.51,253.3,150.51,253.3Z" transform="translate(-122.63 -153.857)" fill="#58acf5"/>
          <path id="Path_211" data-name="Path 211" d="M187.438,174.908s14.774,69.371,14.086,75.2S187.438,286.8,187.438,286.8s-4.572-36.618-3.8-42.936S187.438,174.908,187.438,174.908Z" transform="translate(-103.055 -156.689)" fill="#58acf5"/>
          <g id="Group_99" data-name="Group 99" transform="translate(0 5.892)">
            <path id="Path_212" data-name="Path 212" d="M152.019,166.52l22.154,28.988.967-29.649" transform="translate(-113.186 -165.859)" fill="none" stroke="#fff" stroke-linecap="round" stroke-miterlimit="10" stroke-width="0.51"/>
            <g id="Group_97" data-name="Group 97" transform="translate(0 2.853)">
              <g id="Group_96" data-name="Group 96" transform="translate(1.551)">
                <g id="Group_94" data-name="Group 94" transform="translate(12.864 47.56)">
                  <path id="Path_213" data-name="Path 213" d="M139.209,226.049c3.095,3.121,6.189,6.672,6.871,11.08q.184-2.552.369-5.1a9.848,9.848,0,0,0,.007-2.012,7.291,7.291,0,0,0-.674-2.1,14.28,14.28,0,0,0-8.513-7.533c-1.469-.462-4.531-.819-3.532,1.35C134.255,222.854,138.161,224.992,139.209,226.049Z" transform="translate(-133.539 -196.651)" fill="#3e9de5"/>
                  <path id="Path_214" data-name="Path 214" d="M146.292,243.109c-.375,1.3-1.118,2.858-2.431,2.8-.745-3.286-.108-6.717.568-10.018,1.15-5.611,2.413-11.2,3.421-16.838.5-2.813.949-5.637,1.28-8.476.263-2.249-.136-5.806.965-7.715C152.308,215.752,149.871,230.718,146.292,243.109Z" transform="translate(-130.33 -202.867)" fill="#3e9de5"/>
                </g>
                <g id="Group_95" data-name="Group 95">
                  <line id="Line_7" data-name="Line 7" x2="7.405" y2="12.874" transform="translate(17.982 123.858)" fill="none" stroke="#fff" stroke-linecap="round" stroke-miterlimit="10" stroke-width="0.51"/>
                  <line id="Line_8" data-name="Line 8" y1="29.061" x2="17.876" transform="translate(22.51 112.636)" fill="none" stroke="#fff" stroke-linecap="round" stroke-miterlimit="10" stroke-width="0.51"/>
                  <path id="Path_215" data-name="Path 215" d="M147.711,193.115c1.321,4.159.835,8.668.334,13.013" transform="translate(-116.121 -158.839)" fill="none" stroke="#fff" stroke-linecap="round" stroke-miterlimit="10" stroke-width="0.51"/>
                  <path id="Path_216" data-name="Path 216" d="M133.627,182.726s17.6,9.553,19.06,27.38l-6.79,41.029" transform="translate(-120.647 -162.602)" fill="none" stroke="#fff" stroke-linecap="round" stroke-miterlimit="10" stroke-width="0.51"/>
                  <line id="Line_9" data-name="Line 9" x2="14.772" y2="35.166" transform="translate(22.51 82.189)" fill="none" stroke="#fff" stroke-linecap="round" stroke-miterlimit="10" stroke-width="0.51"/>
                  <path id="Path_217" data-name="Path 217" d="M162.072,167.953a222.49,222.49,0,0,0-20.086,16.837,22.528,22.528,0,0,0-4.059,4.649,24.427,24.427,0,0,0-2.467,7.248L125.018,242.72a32.306,32.306,0,0,0-1.175,9.292c.279,4.057,2.065,7.823,3.922,11.411A207.6,207.6,0,0,0,152.05,300.21" transform="translate(-123.804 -167.953)" fill="none" stroke="#fff" stroke-linecap="round" stroke-miterlimit="10" stroke-width="0.255"/>
                </g>
              </g>
              <path id="Path_218" data-name="Path 218" d="M132.334,243.625a7.791,7.791,0,0,1-4.109,2.876c-2.965-5.612-5.133-10.056-5.511-11.7-.309-1.361.27-5.57,1.348-11.25,4.312.68,8.475,6.583,9.526,10.112C134.584,236.985,134.354,240.847,132.334,243.625Z" transform="translate(-122.63 -147.815)" fill="#3e9de5"/>
            </g>
            <g id="Group_98" data-name="Group 98" transform="translate(80.493 12.33)">
              <path id="Path_219" data-name="Path 219" d="M183.548,189.259s6.624,16.967,5.018,23.682-4.215,20.583-4.286,21.806,4.224,49.347,4.224,49.347" transform="translate(-183.548 -169.713)" fill="none" stroke="#fff" stroke-linecap="round" stroke-miterlimit="10" stroke-width="0.51"/>
              <path id="Path_220" data-name="Path 220" d="M186.451,191.445a31.3,31.3,0,0,1,.254,9.685" transform="translate(-182.615 -168.921)" fill="none" stroke="#fff" stroke-linecap="round" stroke-miterlimit="10" stroke-width="0.51"/>
              <path id="Path_221" data-name="Path 221" d="M195.076,222.965a12.294,12.294,0,0,0-10.634,1.956,12.591,12.591,0,0,1,8.338-7.489" transform="translate(-183.261 -159.509)" fill="none" stroke="#fff" stroke-linecap="round" stroke-miterlimit="10" stroke-width="0.51"/>
              <path id="Path_222" data-name="Path 222" d="M187.525,174.91a60.293,60.293,0,0,0-3.108,22.882" transform="translate(-183.301 -174.91)" fill="none" stroke="#fff" stroke-linecap="round" stroke-miterlimit="10" stroke-width="0.51"/>
            </g>
            <path id="Path_5343" data-name="Path 5343" d="M.01.046,13.115,0,13.1,2.85,0,2.9Z" transform="translate(67.263 40.436) rotate(-6.597)" fill="#fff"/>
          </g>
          <g id="Group_103" data-name="Group 103" transform="translate(27.653)">
            <g id="Group_100" data-name="Group 100" transform="translate(0 0.53)">
              <path id="Path_223" data-name="Path 223" d="M156.791,161.922l-.556,4.052a31.764,31.764,0,0,0-3.031,6.374c-4.033,11.64-2.406,26.338-.293,39.189l.152.921-1.033.157c-.276,0-6.773.3-6.674,12.228.1,10.477.885,15.216,2.623,15.848,1.316.5,4.28-.1,5.219-.336l.432,1.8a20.721,20.721,0,0,1-3.549.56,6.775,6.775,0,0,1-2.7-.278c-2.38-.865-3.692-3.927-3.819-17.57-.044-5.269,1.119-9.181,3.465-11.639a7.928,7.928,0,0,1,3.965-2.31c-2.082-12.852-3.549-27.433.523-39.185A35.01,35.01,0,0,1,156.791,161.922Z" transform="translate(-143.558 -161.922)" fill="#241f21"/>
              <path id="Path_224" data-name="Path 224" d="M157.322,229.312l-.295-1.827c1.689-.29,3.4-.676,4.145-1.9a4.645,4.645,0,0,0,.441-2.372,53.933,53.933,0,0,0-1.771-11.373l-.215-.943c-.136-.6-.262-1.2-.387-1.813-.534-2.591-1.087-5.27-2.558-7.363-1.45-2.062-3.388-2.671-6.5-2.043l-.346-1.816c3.784-.77,6.424.112,8.3,2.772,1.7,2.411,2.287,5.285,2.862,8.066.123.6.246,1.19.378,1.775l.214.94a55.344,55.344,0,0,1,1.82,11.783,6.288,6.288,0,0,1-.716,3.37C161.458,228.6,158.869,229.047,157.322,229.312Z" transform="translate(-141.54 -149)" fill="#241f21"/>
              <path id="Path_225" data-name="Path 225" d="M151.763,222.679h0a1.239,1.239,0,0,1-1.286-1.191l-.089-1.7a1.25,1.25,0,0,1,1.155-1.327h0a1.241,1.241,0,0,1,1.287,1.191l.089,1.7A1.25,1.25,0,0,1,151.763,222.679Z" transform="translate(-141.364 -141.443)" fill="#241f21"/>
              <path id="Path_226" data-name="Path 226" d="M155.792,222.463h0a1.241,1.241,0,0,1-1.287-1.191l-.089-1.7a1.25,1.25,0,0,1,1.156-1.325h0a1.239,1.239,0,0,1,1.286,1.191l.089,1.7A1.25,1.25,0,0,1,155.792,222.463Z" transform="translate(-140.069 -141.521)" fill="#241f21"/>
            </g>
            <g id="Group_102" data-name="Group 102" transform="translate(32.42)">
              <path id="Path_227" data-name="Path 227" d="M179.233,222.73l-.172,3.865-1.644-.067.172-3.88c.449-10.236.926-20.81.388-31.085-.433-8.328-3.512-19.624-9.417-27.873l-.466-2.145.92-.011c6.681,8.613,10.132,20.972,10.606,29.944C180.159,201.819,179.681,212.444,179.233,222.73Z" transform="translate(-168.094 -161.533)" fill="#241f21"/>
              <g id="Group_101" data-name="Group 101" transform="translate(2.535 63.502)">
                <path id="Path_228" data-name="Path 228" d="M184.823,215.7a7.409,7.409,0,1,1-7.487-7.549A7.529,7.529,0,0,1,184.823,215.7Z" transform="translate(-170.013 -208.151)" fill="#241f21"/>
                <path id="Path_229" data-name="Path 229" d="M179.565,214.7a3.066,3.066,0,1,1-3.1-3.125A3.116,3.116,0,0,1,179.565,214.7Z" transform="translate(-168.912 -206.909)" fill="none" stroke="#fff" stroke-miterlimit="10" stroke-width="0.311"/>
              </g>
            </g>
          </g>
        </g>
      </g>
    </g>
  </g>
</svg>
