<svg xmlns="http://www.w3.org/2000/svg" width="500" height="500" viewBox="0 0 500 500">
  <g id="Group_1600" data-name="Group 1600" transform="translate(-238 -1000)">
    <g id="background" transform="translate(238 1000)">
      <circle id="Ellipse_532" data-name="Ellipse 532" cx="187.5" cy="187.5" r="187.5" transform="translate(62.5 62.5)" fill="rgba(79,19,76,0.05)"/>
      <circle id="Ellipse_533" data-name="Ellipse 533" cx="250" cy="250" r="250" fill="rgba(79,19,76,0.05)"/>
    </g>
    <g id="Super_thank_you-amico" data-name="Super thank you-amico" transform="translate(290.857 1000)">
      <g id="freepik--Balloons--inject-2" transform="translate(0 174.579)">
        <g id="freepik--balloons--inject-2-2" data-name="freepik--balloons--inject-2" transform="translate(0 7.127)">
          <path id="Path_1441" data-name="Path 1441" d="M170.307,286.689c4.058,8.4,3.434,19.065,4.274,28.214a179.133,179.133,0,0,0,5.259,28.238c5.043,19.7,11.586,39.512,13.459,59.862,1,10.805-.324,21.2-1.5,31.96,0,.24.432.672.54.3,5.7-19.294,1.657-40.244-2.773-59.309-4.6-19.726-11.526-39.1-13.591-59.346-.564-5.643-.924-11.31-1.561-16.953-.528-4.6-1.057-9.256-3.6-13.207-.216-.348-.7-.12-.5.264Z" transform="translate(-70.34 -166.481)" fill="#e0e0e0"/>
          <path id="Path_1442" data-name="Path 1442" d="M168.36,290.1c1.789.78,4.334,3.422,2.461,5.5a4.057,4.057,0,0,1-2.4.924c-.636,0-.636.084,0,.372l.18,1.429c-2.509.924-3.6,2.617-3.3,5.091a7.207,7.207,0,0,1-2.017,1.729c-.228.18,0,.709.276.564,2.089-1.032,4.9-3.734,2.617-6.075-.708-.72-2.617-1.369-3.061,0-.684,2,3.109,2.4,4.226,2.113,2.4-.6,2.845-3.338,2.053-5.427-.672-1.765-3.146-3.6-4.947-1.873-1.2,1.1-.24,2.4,1.093,2.906,2.317.948,6.231.228,6.963-2.473s-1.681-4.8-4.106-5.355c-.372-.084-.2.516,0,.612Z" transform="translate(-71.791 -165.832)" fill="#e0e0e0"/>
          <path id="Path_1443" data-name="Path 1443" d="M141.421,256.63c2.233,6.315,3.866,12.834,6,19.209,1.921,5.607,4.634,10.9,6.735,16.448,4.67,12.414,6.855,25.393,9.449,38.347a138.084,138.084,0,0,0,4.8,19.041,154.211,154.211,0,0,0,7.119,16.208c5.463,11.166,11.034,22.415,15.188,34.145,2.329,6.567,3.962,13.35,5.691,20.1a107.819,107.819,0,0,1,3.83,23.1c0,.336.576.684.6.216.408-6.844-.852-13.519-2.4-20.146-1.477-6.123-2.953-12.306-4.8-18.333-3.686-11.922-9.149-23.28-14.551-34.493-2.725-5.655-5.595-11.237-7.948-17.06a106.3,106.3,0,0,1-5.247-17.9c-2.773-12.811-4.55-25.873-8.728-38.347-2.281-6.808-5.535-13.207-8.008-19.882s-4.19-14.011-7.2-20.7c-.156-.348-.66-.348-.5.084Z" transform="translate(-76.127 -172.488)" fill="#e0e0e0"/>
          <path id="Path_1444" data-name="Path 1444" d="M148.762,339.09c2.4,3.938,3.758,8.4,6.159,12.366a52.625,52.625,0,0,0,6,7.72c6.387,7.132,13.627,13.651,18.945,21.611,5.523,8.332,8.4,18.009,10.805,27.614,1.2,4.8,2.221,9.6,3.446,14.287a28.476,28.476,0,0,0,1.993,5.931c.984,1.933,2.245,3.674,3.11,5.667.276.636,1.513.36,1.2-.372-.852-1.993-2.125-3.722-3.1-5.655a32.973,32.973,0,0,1-2.2-6.759c-1.2-4.718-2.233-9.485-3.422-14.2-2.149-8.536-4.718-17.085-9.257-24.7s-10.805-13.687-16.808-20.05c-3.854-4.094-8-8.152-10.661-13.206-1.909-3.6-3.314-7.3-5.667-10.638-.228-.324-.744-.1-.5.288Z" transform="translate(-74.656 -155.995)" fill="#e0e0e0"/>
          <path id="Path_1445" data-name="Path 1445" d="M149.5,342.313a6.009,6.009,0,0,1,.9,1.969c.168.792,0,4.454-1.621,4.658l-2.4-1.2q5.4,1.3,3.746,5.331l-1.309,1.321a3.085,3.085,0,0,1-1.957,4c-.42.2,0,.817.432.708,6.771-2.077-.756-9.509-2.713-6.351-1.2,1.921,1.957,3.086,3.3,2.941a4.094,4.094,0,0,0,3.6-4.694,4.8,4.8,0,0,0-4.418-4.2c-1.645,0-4.046,1.3-2.509,3.074s4.418.432,5.583-.852c1.921-2.125,1.333-4.995-.3-7.023-.228-.276-.552,0-.372.3Z" transform="translate(-75.596 -155.328)" fill="#e0e0e0"/>
          <path id="Path_1446" data-name="Path 1446" d="M145.7,258.679h0c-.636-2.125-6.8-6.639-7.636-6.387s-3.1,7.2-2.4,9.413h0a2.606,2.606,0,0,0,2.077,1.621,8.152,8.152,0,0,0,7.119-2.137,2.6,2.6,0,0,0,.852-2.509Z" transform="translate(-77.307 -173.3)" fill="#e53935"/>
          <path id="Path_1447" data-name="Path 1447" d="M145.7,258.679h0c-.636-2.125-6.8-6.639-7.636-6.387s-3.1,7.2-2.4,9.413h0a2.606,2.606,0,0,0,2.077,1.621,8.152,8.152,0,0,0,7.119-2.137,2.6,2.6,0,0,0,.852-2.509Z" transform="translate(-77.307 -173.3)" opacity="0.1"/>
          <path id="Path_1448" data-name="Path 1448" d="M175.463,201.676a21.07,21.07,0,0,0-9.6-12.1h-.1a22.967,22.967,0,0,0-18.189-2.077c-7.684,2.305-12.738,10-14.491,18.009a3.77,3.77,0,0,1-6.291,1.885c-5.907-5.739-14.407-9.377-22.043-7.059A22.967,22.967,0,0,0,90.725,212.1v.1h0a21.106,21.106,0,0,0-1.309,15.368c4.922,16.376,25.609,27.866,42.081,34.625l17.349,7.071,10.577-15.452C169.46,239.039,180.338,218.052,175.463,201.676Z" transform="translate(-86.734 -186.497)" fill="#e53935"/>
          <path id="Path_1449" data-name="Path 1449" d="M175.463,201.676a21.07,21.07,0,0,0-9.6-12.1h-.1a22.967,22.967,0,0,0-18.189-2.077c-7.684,2.305-12.738,10-14.491,18.009a3.77,3.77,0,0,1-6.291,1.885c-5.907-5.739-14.407-9.377-22.043-7.059A22.967,22.967,0,0,0,90.725,212.1v.1h0a21.106,21.106,0,0,0-1.309,15.368c4.922,16.376,25.609,27.866,42.081,34.625l17.349,7.071,10.577-15.452C169.46,239.039,180.338,218.052,175.463,201.676Z" transform="translate(-86.734 -186.497)" opacity="0.2"/>
          <path id="Path_1450" data-name="Path 1450" d="M176.169,212.384c-1.693,4-15.608,31.216-35.826,32.5-24.1,1.465-51.157-19.33-49.609-37.014a21.107,21.107,0,0,0-1.309,15.368c4.922,16.376,25.609,27.866,42.081,34.625l17.349,7.071,10.577-15.452C166.577,238.989,174.176,225.315,176.169,212.384Z" transform="translate(-86.731 -182.209)" opacity="0.1"/>
          <path id="Path_1451" data-name="Path 1451" d="M153.63,339.182h0c-1.2-1.885-8.284-4.67-9.029-4.214s-1.2,7.708.072,9.725h0a2.655,2.655,0,0,0,2.4,1.033,8.189,8.189,0,0,0,6.327-3.89,2.642,2.642,0,0,0,.192-2.654Z" transform="translate(-75.634 -156.723)" fill="#e53935"/>
          <path id="Path_1452" data-name="Path 1452" d="M153.63,339.182h0c-1.2-1.885-8.284-4.67-9.029-4.214s-1.2,7.708.072,9.725h0a2.655,2.655,0,0,0,2.4,1.033,8.189,8.189,0,0,0,6.327-3.89,2.642,2.642,0,0,0,.192-2.654Z" transform="translate(-75.634 -156.723)" fill="#fff" opacity="0.3"/>
          <path id="Path_1453" data-name="Path 1453" d="M166.665,279.3a21.1,21.1,0,0,0-12.354-9.257h-.1a22.943,22.943,0,0,0-18.117,2.665c-6.843,4.19-9.749,12.919-9.377,21.155a3.77,3.77,0,0,1-5.607,3.434c-7.2-4.034-16.28-5.379-23.1-1.2a22.98,22.98,0,0,0-10.553,14.96v.108h0a20.986,20.986,0,0,0,2.677,15.187c8.956,14.564,31.9,20.41,49.561,22.667l18.573,2.4,6.267-17.637C170.446,316.975,175.621,293.851,166.665,279.3Z" transform="translate(-87.035 -169.897)" fill="#e53935"/>
          <path id="Path_1454" data-name="Path 1454" d="M166.665,279.3a21.1,21.1,0,0,0-12.354-9.257h-.1a22.943,22.943,0,0,0-18.117,2.665c-6.843,4.19-9.749,12.919-9.377,21.155a3.77,3.77,0,0,1-5.607,3.434c-7.2-4.034-16.28-5.379-23.1-1.2a22.98,22.98,0,0,0-10.553,14.96v.108h0a20.986,20.986,0,0,0,2.677,15.187c8.956,14.564,31.9,20.41,49.561,22.667l18.573,2.4,6.267-17.637C170.446,316.975,175.621,293.851,166.665,279.3Z" transform="translate(-87.035 -169.897)" fill="#fff" opacity="0.5"/>
          <path id="Path_1455" data-name="Path 1455" d="M171.189,289.54c-.6,4.286-7.024,34.2-26.281,40.592-22.907,7.612-54.4-5.547-57.437-23.039a20.987,20.987,0,0,0,2.677,15.188c8.956,14.563,31.9,20.41,49.561,22.667l18.573,2.4,6.255-17.637C168.752,317.706,172.581,302.542,171.189,289.54Z" transform="translate(-87.033 -165.826)" opacity="0.05"/>
          <path id="Path_1456" data-name="Path 1456" d="M176.294,288.125h0c-.756-2.089-7.2-6.291-7.96-6s-2.737,7.3-1.933,9.521h0a2.641,2.641,0,0,0,2.161,1.525,8.188,8.188,0,0,0,7-2.509,2.618,2.618,0,0,0,.732-2.545Z" transform="translate(-71.153 -167.317)" fill="#e53935"/>
          <path id="Path_1457" data-name="Path 1457" d="M176.294,288.125h0c-.756-2.089-7.2-6.291-7.96-6s-2.737,7.3-1.933,9.521h0a2.641,2.641,0,0,0,2.161,1.525,8.188,8.188,0,0,0,7-2.509,2.618,2.618,0,0,0,.732-2.545Z" transform="translate(-71.153 -167.317)" opacity="0.1"/>
          <path id="Path_1458" data-name="Path 1458" d="M202.821,230.217a21.094,21.094,0,0,0-10.169-11.6h0l-.1-.06a22.919,22.919,0,0,0-18.261-1.129c-7.564,2.689-12.21,10.625-13.555,18.753a3.77,3.77,0,0,1-6.183,2.221c-6.2-5.439-14.815-8.632-22.379-5.919a22.968,22.968,0,0,0-13.4,12.462v.108h0a21.118,21.118,0,0,0-.516,15.416c5.763,16.1,27.013,26.509,43.81,32.416l17.7,6.171,9.761-15.98C198.751,267.844,208.583,246.317,202.821,230.217Z" transform="translate(-81.014 -180.568)" fill="#e53935"/>
          <path id="Path_1459" data-name="Path 1459" d="M204.313,240.318c-1.489,4.07-13.951,32.008-34.1,34.289-24.012,2.713-52.094-16.664-51.458-34.4a21.118,21.118,0,0,0-.516,15.416c5.763,16.1,27.014,26.509,43.81,32.416l17.7,6.171,9.761-15.98C196.1,267.367,202.981,253.32,204.313,240.318Z" transform="translate(-81.018 -175.722)" opacity="0.1"/>
        </g>
        <g id="freepik--balloons--inject-2-3" data-name="freepik--balloons--inject-2" transform="translate(256.064)">
          <path id="Path_1460" data-name="Path 1460" d="M333.277,294.851c-2.617,3.854-3.926,8.4-5.078,12.918-1.3,5.007-2.4,10.073-3.4,15.151-2.077,11.142-3.122,22.439-4.694,33.617a169,169,0,0,1-7.588,32.74c-3.6,10.049-7.84,19.87-10.217,30.291a89.362,89.362,0,0,0-.144,36.786c.072.336.564.54.552.072-.42-11.07-1.957-21.8,0-32.848,1.765-9.8,5.487-19.09,8.944-28.394a166.327,166.327,0,0,0,8.26-29.307c1.813-10.277,2.833-20.674,4.262-31.011.8-5.8,1.717-11.6,2.965-17.325,1.621-7.5,3.146-15.32,6.723-22.151.156-.312-.348-.84-.588-.492Z" transform="translate(-300.316 -157.647)" fill="#e0e0e0"/>
          <path id="Path_1461" data-name="Path 1461" d="M331.6,298c-2.641.492-5.1,2.929-3.842,5.775.985,2.209,4.274,2.81,6.411,2.257,1.428-.384,2.761-1.789,1.4-3-1.8-1.609-4.214-.192-4.97,1.669-.841,2.1-.408,4.8,1.993,5.523,1.117.324,4.43.144,4.262-1.621-.144-1.573-2.209-1.345-3.1-.54-2.485,2.269.66,5.175,2.605,6.243.312.18.348-.348.144-.492-2.4-1.7-.072-.816-2.4-4.514q-3.26-.847-2.617-3.11a1.2,1.2,0,0,1,.42-1.1l-.924-.1q-3.265-1.021-2.209-3.878a5.535,5.535,0,0,1,3.109-2.509c.288-.12,0-.66-.276-.6Z" transform="translate(-294.879 -157.003)" fill="#e0e0e0"/>
          <path id="Path_1462" data-name="Path 1462" d="M377.257,251.344c-2.461,7.012-6.387,13.387-8.236,20.626-1.969,7.732-3.169,15.608-4.982,23.412a231.867,231.867,0,0,1-13.206,40.82c-5.715,13-14.119,24.444-19.294,37.711-5.355,13.723-9.125,28.034-16.461,40.916-3.854,6.771-8.08,13.314-10.289,20.866a65.711,65.711,0,0,0-2.737,26.173c0,.288.613.54.6.12a81.719,81.719,0,0,1,2.665-23.82c1.981-7.443,5.643-13.9,9.5-20.506,7.119-12.2,11.285-25.429,16.088-38.635a122.453,122.453,0,0,1,9.1-20.242c3.422-5.823,6.951-11.465,9.869-17.577a216.834,216.834,0,0,0,14.287-41.145c2.089-8.4,3.47-16.989,5.415-25.441,1.849-8.008,6.171-15,8.212-22.907.073-.276-.384-.757-.516-.372Z" transform="translate(-300.03 -166.39)" fill="#e0e0e0"/>
          <path id="Path_1463" data-name="Path 1463" d="M359.8,346.527c-4.478,8.2-12.534,13.206-18.561,20.122-6.3,7.2-10.7,15.86-15.092,24.324-2.329,4.49-4.658,8.98-7.311,13.291s-5.7,8.284-8.308,12.594c-5.691,9.425-8.128,19.774-9.365,30.627-.084.708,1.2.912,1.285.192,1.2-10.709,3.6-21,9.256-30.327,4.646-7.684,9.833-14.84,14.023-22.812,4.058-7.744,7.888-15.68,13.026-22.811,4.13-5.715,9.425-10.205,14.407-15.08a32.59,32.59,0,0,0,7.2-9.6c.144-.336-.4-.864-.6-.492Z" transform="translate(-300.147 -147.288)" fill="#e0e0e0"/>
          <path id="Path_1464" data-name="Path 1464" d="M348.816,350.873a5.223,5.223,0,0,0-.276,7.06c1.093,1.2,4.226,2.665,5.571.984s-1.2-3.121-2.749-3.146a4.659,4.659,0,0,0-4.334,5.295,4.322,4.322,0,0,0,4.406,3.6c1.417-.072,3.506-1.357,2.341-2.953-1.273-1.777-4.214-.144-4.959,1.3a3.6,3.6,0,0,0,2.4,5.031c.528.168.48-.492.108-.684-1.717-.877-3.6-5.439-3.314-7.372.156-.48.312-.948.48-1.417q.636-1.969,1.657-.612c1.081.828.961.732-.348-.276a2.857,2.857,0,0,1-1.6-2.8,6,6,0,0,1,1.069-3.518c.144-.24-.18-.769-.409-.492Z" transform="translate(-290.954 -146.411)" fill="#e0e0e0"/>
          <path id="Path_1465" data-name="Path 1465" d="M360.643,252.845h0c.576-2.149,6.615-6.832,7.455-6.6s3.3,7.071,2.677,9.352h0a2.652,2.652,0,0,1-2.041,1.681,8.2,8.2,0,0,1-7.2-1.945,2.629,2.629,0,0,1-.924-2.485Z" transform="translate(-288.229 -167.386)" fill="#e53935"/>
          <path id="Path_1466" data-name="Path 1466" d="M360.643,252.845h0c.576-2.149,6.615-6.832,7.455-6.6s3.3,7.071,2.677,9.352h0a2.652,2.652,0,0,1-2.041,1.681,8.2,8.2,0,0,1-7.2-1.945,2.629,2.629,0,0,1-.924-2.485Z" transform="translate(-288.229 -167.386)" opacity="0.1"/>
          <path id="Path_1467" data-name="Path 1467" d="M342.3,196.384a21.06,21.06,0,0,1,9.233-12.354h0l.1-.06a23.016,23.016,0,0,1,18.129-2.593c7.756,2.089,13.014,9.6,14.983,17.649a3.77,3.77,0,0,0,6.339,1.717c5.751-5.907,14.1-9.761,21.839-7.648a22.907,22.907,0,0,1,14.347,11.37v.1h0a21.094,21.094,0,0,1,1.729,15.332c-4.478,16.5-24.841,28.55-41.132,35.754l-17.145,7.528-11-15.163C349.343,233.578,337.818,212.88,342.3,196.384Z" transform="translate(-292.094 -180.56)" fill="#e53935"/>
          <path id="Path_1468" data-name="Path 1468" d="M342.3,196.384a21.06,21.06,0,0,1,9.233-12.354h0l.1-.06a23.016,23.016,0,0,1,18.129-2.593c7.756,2.089,13.014,9.6,14.983,17.649a3.77,3.77,0,0,0,6.339,1.717c5.751-5.907,14.1-9.761,21.839-7.648a22.907,22.907,0,0,1,14.347,11.37v.1h0a21.094,21.094,0,0,1,1.729,15.332c-4.478,16.5-24.841,28.55-41.132,35.754l-17.145,7.528-11-15.163C349.343,233.578,337.818,212.88,342.3,196.384Z" transform="translate(-292.094 -180.56)" opacity="0.2"/>
          <path id="Path_1469" data-name="Path 1469" d="M341.88,207.391c1.789,3.938,16.412,30.819,36.678,31.5,24.132.828,50.617-20.7,48.588-38.335a21.094,21.094,0,0,1,1.729,15.332c-4.478,16.5-24.84,28.55-41.132,35.754L370.6,259.173l-11-15.164C352.181,233.72,344.221,220.3,341.88,207.391Z" transform="translate(-291.978 -176.548)" opacity="0.1"/>
          <path id="Path_1470" data-name="Path 1470" d="M345.551,348.015h0c1.2-1.873,8.4-4.514,9.113-4.046s1.008,7.732-.276,9.725h0a2.642,2.642,0,0,1-2.4.985,8.213,8.213,0,0,1-6.255-4.022,2.617,2.617,0,0,1-.132-2.641Z" transform="translate(-291.291 -147.792)" fill="#e53935"/>
          <path id="Path_1471" data-name="Path 1471" d="M345.551,348.015h0c1.2-1.873,8.4-4.514,9.113-4.046s1.008,7.732-.276,9.725h0a2.642,2.642,0,0,1-2.4.985,8.213,8.213,0,0,1-6.255-4.022,2.617,2.617,0,0,1-.132-2.641Z" transform="translate(-291.291 -147.792)" opacity="0.1"/>
          <path id="Path_1472" data-name="Path 1472" d="M346.235,288.058a21.034,21.034,0,0,1,12.534-8.944h.108a22.909,22.909,0,0,1,18.009,3.013c6.759,4.322,9.5,13.11,8.956,21.335a3.782,3.782,0,0,0,5.535,3.6c7.2-3.9,16.388-5.066,23.135-.72a23.014,23.014,0,0,1,10.241,15.176v.108h0a21.082,21.082,0,0,1-2.99,15.139c-9.233,14.407-32.3,19.726-49.993,21.683l-18.621,2.017L347.243,342.7C341.708,325.637,336.99,302.441,346.235,288.058Z" transform="translate(-292.155 -160.927)" fill="#e53935"/>
          <path id="Path_1473" data-name="Path 1473" d="M341.418,298.3c.528,4.3,6.351,34.337,25.477,41.109,22.811,8.056,54.5-4.478,57.893-21.911a21.084,21.084,0,0,1-2.99,15.14c-9.233,14.407-32.3,19.726-49.993,21.683l-18.621,2.017-5.907-17.769C343.3,326.514,339.8,311.266,341.418,298.3Z" transform="translate(-292.152 -156.942)" opacity="0.1"/>
          <path id="Path_1474" data-name="Path 1474" d="M321.644,297.683h0c.636-2.137,6.8-6.663,7.636-6.411s3.11,7.2,2.4,9.413h0a2.629,2.629,0,0,1-2.089,1.621,8.127,8.127,0,0,1-7.119-2.125,2.629,2.629,0,0,1-.864-2.5Z" transform="translate(-296.054 -158.354)" fill="#e53935"/>
          <path id="Path_1475" data-name="Path 1475" d="M321.644,297.683h0c.636-2.137,6.8-6.663,7.636-6.411s3.11,7.2,2.4,9.413h0a2.629,2.629,0,0,1-2.089,1.621,8.127,8.127,0,0,1-7.119-2.125,2.629,2.629,0,0,1-.864-2.5Z" transform="translate(-296.054 -158.354)" fill="#fff" opacity="0.3"/>
          <path id="Path_1476" data-name="Path 1476" d="M304.811,240.711a21.01,21.01,0,0,1,9.545-12.114h0l.1-.06a22.932,22.932,0,0,1,18.177-2.1c7.7,2.281,12.762,9.965,14.527,18.009a3.782,3.782,0,0,0,6.3,1.885c5.883-5.763,14.335-9.413,22.019-7.108a22.944,22.944,0,0,1,14.047,11.742v.1h0a21.107,21.107,0,0,1,1.333,15.368c-4.9,16.376-25.561,27.914-42.021,34.7L331.5,308.233l-10.613-15.464C310.874,278.074,299.913,257.1,304.811,240.711Z" transform="translate(-299.656 -171.557)" fill="#e53935"/>
          <path id="Path_1477" data-name="Path 1477" d="M304.811,240.711a21.01,21.01,0,0,1,9.545-12.114h0l.1-.06a22.932,22.932,0,0,1,18.177-2.1c7.7,2.281,12.762,9.965,14.527,18.009a3.782,3.782,0,0,0,6.3,1.885c5.883-5.763,14.335-9.413,22.019-7.108a22.944,22.944,0,0,1,14.047,11.742v.1h0a21.107,21.107,0,0,1,1.333,15.368c-4.9,16.376-25.561,27.914-42.021,34.7L331.5,308.233l-10.613-15.464C310.874,278.074,299.913,257.1,304.811,240.711Z" transform="translate(-299.656 -171.557)" fill="#fff" opacity="0.5"/>
          <path id="Path_1478" data-name="Path 1478" d="M304,251.442c1.693,3.986,15.608,31.216,35.874,32.416,24.1,1.429,51.121-19.414,49.549-37.1a21.106,21.106,0,0,1,1.332,15.368c-4.9,16.376-25.561,27.914-42.021,34.7L331.4,303.932l-10.589-15.44C313.689,278.023,306.065,264.361,304,251.442Z" transform="translate(-299.577 -167.281)" opacity="0.05"/>
        </g>
      </g>
      <g id="freepik--speech-bubble--inject-2" transform="translate(250.691 0)">
        <g id="freepik--speech-bubble--inject-2-2" data-name="freepik--speech-bubble--inject-2" transform="translate(0)">
          <path id="Path_1479" data-name="Path 1479" d="M323.545,76.135a4.947,4.947,0,0,1-1.813,2.125,6.871,6.871,0,0,1-3,.972,5.739,5.739,0,0,1-3.938-.66,4.911,4.911,0,0,1-1.753-3.71c-.06-.5-.1-1.2-.108-2.005L313,68.812l-2.233.3-.721-4.358,3.014-.42V62.112l5.019-.852v2.4l2.821-.4,1.068,4.466-3.938.42v3.506a4.373,4.373,0,0,0,0,.468,2.053,2.053,0,0,0,.624,1.333,1.537,1.537,0,0,0,1.2.408,2.245,2.245,0,0,0,1.753-1.549Z" transform="translate(-292.991 -29.912)" fill="#455a64"/>
          <path id="Path_1480" data-name="Path 1480" d="M339.744,76.936l-5.655.684-1.273-7.3a3.505,3.505,0,0,0-.78-1.777,1.777,1.777,0,0,0-1.657-.564c-1.273.156-1.837,1.345-1.705,3.6l.852,6.615-5.727.6L320.87,56.97h5.919l1,7.648a5.74,5.74,0,0,1,3.818-1.789,6,6,0,0,1,2.929.4,6.159,6.159,0,0,1,3.938,4.994Z" transform="translate(-290.82 -30.773)" fill="#455a64"/>
          <path id="Path_1481" data-name="Path 1481" d="M348.584,74.9l-.12-1.033a5.524,5.524,0,0,1-3.938,1.945,5.6,5.6,0,0,1-3.422-.66,7.286,7.286,0,0,1-2.713-2.533,8.622,8.622,0,0,1-1.381-3.71,7.915,7.915,0,0,1,.492-3.878,7.694,7.694,0,0,1,2.125-3.1,5.57,5.57,0,0,1,3.061-1.441,4.8,4.8,0,0,1,4.07.973l-.12-1.009,4.682-.564,2.4,14.407Zm-1.44-5.283a2.558,2.558,0,0,0,.456-1.969,2.4,2.4,0,0,0-.948-1.765,2.581,2.581,0,0,0-1.945-.456A2.475,2.475,0,0,0,342.5,68.2a2.845,2.845,0,0,0,1.513,2.1,2.316,2.316,0,0,0,1.368.24,2.5,2.5,0,0,0,1.765-.912Z" transform="translate(-287.595 -30.187)" fill="#455a64"/>
          <path id="Path_1482" data-name="Path 1482" d="M360.939,66.7a3.6,3.6,0,0,0-.672-1.957,1.585,1.585,0,0,0-1.453-.552,1.5,1.5,0,0,0-1.3.816,4.017,4.017,0,0,0-.144,2.077h0l.792,6.723-5.667.684L350.65,59.857l5.763-1,.132,1.081a5.919,5.919,0,0,1,3.433-1.789,4.8,4.8,0,0,1,4.454,1.561,10.132,10.132,0,0,1,2.089,5.547l.912,7.36-5.8.7Z" transform="translate(-284.846 -30.551)" fill="#455a64"/>
          <path id="Path_1483" data-name="Path 1483" d="M382.323,71.976,376.644,73l-4.634-5.175.636,5.307-5.715.744L364.29,51.9l5.739-.973,1.417,12.006,2.317-4.874,5.763-.276-3.338,6.951Z" transform="translate(-282.11 -31.985)" fill="#455a64"/>
          <path id="Path_1484" data-name="Path 1484" d="M359.568,75.25l-2.4,14.8a11.908,11.908,0,0,1-2.4,5.847,6.507,6.507,0,0,1-4.286,2.329,9,9,0,0,1-2.317,0,17.617,17.617,0,0,1-2.533-.564l1.453-5.595a2.919,2.919,0,0,0,1.261.684,3.674,3.674,0,0,0,1.477.288,2.173,2.173,0,0,0,1.381-.648,3.606,3.606,0,0,0,.744-1.441l-8.4-13.207,5.847-.768,3.6,6.915.973-7.516Z" transform="translate(-286.273 -27.106)" fill="#455a64"/>
          <path id="Path_1485" data-name="Path 1485" d="M362.5,89.156a8.633,8.633,0,0,1-3.3-2.605,7.78,7.78,0,0,1-1.573-3.878,6.72,6.72,0,0,1,.612-3.806,7.732,7.732,0,0,1,2.581-3.062,8.526,8.526,0,0,1,4.022-1.513,7.973,7.973,0,0,1,4.082.5,7.2,7.2,0,0,1,3.061,2.4,7.468,7.468,0,0,1,1.441,3.6,8.248,8.248,0,0,1-3.062,7.42,7.5,7.5,0,0,1-3.77,1.561A7.755,7.755,0,0,1,362.5,89.156Zm5.066-5.595a2.6,2.6,0,0,0-.408-3.542,2.4,2.4,0,0,0-1.885-.54,2.51,2.51,0,0,0-1.753.937,2.569,2.569,0,0,0,2.4,4.082A2.4,2.4,0,0,0,367.571,83.561Z" transform="translate(-283.458 -27.313)" fill="#455a64"/>
          <path id="Path_1486" data-name="Path 1486" d="M382.561,87.884l-.132-1.093a5.834,5.834,0,0,1-3.433,1.8,4.8,4.8,0,0,1-4.454-1.561,10.135,10.135,0,0,1-2.089-5.559l-.912-7.348,5.8-.7.66,6.6A3.6,3.6,0,0,0,378.671,82a1.549,1.549,0,0,0,1.453.54,1.5,1.5,0,0,0,1.3-.8,3.9,3.9,0,0,0,.144-2.077h0l-.781-6.735,5.667-.684,1.837,14.647Z" transform="translate(-280.656 -27.71)" fill="#455a64"/>
          <path id="Path_1487" data-name="Path 1487" d="M387.193,80.217,385.02,67.01l6-.72L392.5,79.148Zm1.285,5.931a3.073,3.073,0,0,1-1.129-2.029,2.751,2.751,0,0,1,.276-1.573,3.263,3.263,0,0,1,1.056-1.2,3.384,3.384,0,0,1,1.5-.576,2.845,2.845,0,0,1,2.125.552,2.811,2.811,0,0,1,1.081,2.017,3.123,3.123,0,0,1-.589,2.329,2.809,2.809,0,0,1-2.029,1.2A2.918,2.918,0,0,1,388.478,86.148Z" transform="translate(-277.952 -28.903)" fill="#455a64"/>
          <path id="Path_1488" data-name="Path 1488" d="M394.363,79.327,392.19,66.12l6-.72,1.513,12.786Zm1.321,6a2.954,2.954,0,0,1-1.128-2.029,2.7,2.7,0,0,1,.264-1.561,3.089,3.089,0,0,1,1.057-1.2,3.315,3.315,0,0,1,1.5-.588,2.894,2.894,0,0,1,2.125.552,2.809,2.809,0,0,1,1.08,2.029,3.1,3.1,0,0,1-.588,2.317,2.87,2.87,0,0,1-2.029,1.2A2.93,2.93,0,0,1,395.684,85.33Z" transform="translate(-276.514 -29.082)" fill="#455a64"/>
          <path id="Path_1489" data-name="Path 1489" d="M401.573,78.477,399.4,65.27l6-.72,1.513,12.774Zm1.3,5.943a3,3,0,0,1-1.128-2.041,2.726,2.726,0,0,1,.264-1.561,3.289,3.289,0,0,1,2.557-1.813,2.8,2.8,0,0,1,3.218,2.569,3.132,3.132,0,0,1-.6,2.317,2.821,2.821,0,0,1-2.029,1.2,2.87,2.87,0,0,1-2.281-.672Z" transform="translate(-275.067 -29.252)" fill="#455a64"/>
          <path id="Path_1490" data-name="Path 1490" d="M295.924,100.381c.745,1.045,2.4,1.369,3.6,1.669.852.216,1.717.4,2.581.552a35.028,35.028,0,0,0,4.875.552,37.034,37.034,0,0,0,9.413-.937,31.215,31.215,0,0,0,8.068-2.917,30.7,30.7,0,0,0,6.712-4.995,21.529,21.529,0,0,0,5.619-7.672.985.985,0,0,0-.42-1.2c-.336-.24-1.045-.444-1.369,0-1.933,2.293-3.6,4.8-5.739,6.915a28.659,28.659,0,0,1-6.171,4.622,32.128,32.128,0,0,1-15.607,3.77,38.673,38.673,0,0,1-5.007-.336c-.828-.12-1.657-.264-2.473-.432a14.3,14.3,0,0,0-3.674-.636c-.5,0-.612.66-.36,1.021Z" transform="translate(-295.841 -25.116)" fill="#e53935"/>
          <path id="Path_1491" data-name="Path 1491" d="M375.438,50.3a1.2,1.2,0,0,1-1.009-1.2l.685-12.846a1.153,1.153,0,1,1,2.3.1l-.72,12.834a1.2,1.2,0,0,1-1.2,1.1Z" transform="translate(-280.076 -35.15)" fill="#e53935"/>
          <path id="Path_1492" data-name="Path 1492" d="M381.266,51.876a1.169,1.169,0,0,1-.816-1.8l7.084-10.721a1.2,1.2,0,1,1,1.945,1.285l-7.072,10.721A1.2,1.2,0,0,1,381.266,51.876Z" transform="translate(-278.905 -34.467)" fill="#e53935"/>
          <path id="Path_1493" data-name="Path 1493" d="M385.067,54.906a1.164,1.164,0,0,1-.216-2.257l12.174-4.118a1.2,1.2,0,0,1,.744,2.209L385.6,54.858A1.2,1.2,0,0,1,385.067,54.906Z" transform="translate(-278.143 -32.467)" fill="#e53935"/>
          <path id="Path_1494" data-name="Path 1494" d="M356.686,112.69a1.2,1.2,0,0,1-1.1-.792l-4.13-12.174a1.2,1.2,0,0,1,2.221-.756l4.118,12.162a1.2,1.2,0,0,1-.732,1.477A1.344,1.344,0,0,1,356.686,112.69Z" transform="translate(-284.687 -22.465)" fill="#e53935"/>
          <path id="Path_1495" data-name="Path 1495" d="M344.313,113.624a.744.744,0,0,1-.228,0,1.2,1.2,0,0,1-.912-1.369l2.569-12.594a1.2,1.2,0,1,1,2.281.456l-2.569,12.594A1.2,1.2,0,0,1,344.313,113.624Z" transform="translate(-286.35 -22.463)" fill="#e53935"/>
          <path id="Path_1496" data-name="Path 1496" d="M333.243,106.85a1.129,1.129,0,0,1-.888-.408,1.2,1.2,0,0,1,.12-1.645l9.761-8.4a1.2,1.2,0,0,1,1.525,1.777l-9.761,8.4A1.2,1.2,0,0,1,333.243,106.85Z" transform="translate(-288.571 -22.893)" fill="#e53935"/>
        </g>
      </g>
      <g id="freepik--Character--inject-2" transform="translate(91.081 7.176)">
        <g id="freepik--character--inject-2-2" data-name="freepik--character--inject-2" transform="translate(0 0)">
          <path id="Path_1497" data-name="Path 1497" d="M232.959,59.3a14.216,14.216,0,0,0-7.048-3.974A23.052,23.052,0,0,0,202.4,63.969c-4.682,6.459-5.607,14.947-4.946,22.9s2.713,15.728,3.362,23.676c.588,7.048-6.819,12.834-11.754,16.808-.912.72-1.921,1.789-1.477,2.857a2.57,2.57,0,0,0,1.789,1.2,22.487,22.487,0,0,0,23.135-7.023l.168,6a10.805,10.805,0,0,0,7.648-5.487,22.536,22.536,0,0,0,2.641-9.3c1.056-10.805-2.209-21.059-2.485-31.7-.3-12.006,3.794-20.926,11.382-19.558,3.085.552,4.574-.492,2.581-3.218a16.474,16.474,0,0,0-1.489-1.825Z" transform="translate(-157.968 -38.393)" fill="#263238"/>
          <path id="Path_1498" data-name="Path 1498" d="M223.488,64.182c-.4-.54-2.869-13.014,2.7-19.822s8.4-1.657,7.864,4.358A19.942,19.942,0,0,1,223.488,64.182Z" transform="translate(-150.923 -41.127)" fill="#e53935"/>
          <path id="Path_1499" data-name="Path 1499" d="M228.445,62.287c-.588.312-13.291.985-19.21-5.5s-.432-8.536,5.451-7.2A19.882,19.882,0,0,1,228.445,62.287Z" transform="translate(-154.114 -39.508)" fill="#e53935"/>
          <path id="Path_1500" data-name="Path 1500" d="M326.275,160.763c-4.526-4.526-15.26-17.325-17.5-20.41-2.821-3.83-10.565-13.062-15.248-16.532s-14.479-5.2-22.367-4.622c-.624,9.6,8.08,24.648,8.08,24.648l19.726,19.75c11.55,10.325,25.693,16.244,41.8,18.8C339.265,177.992,330.813,165.289,326.275,160.763Z" transform="translate(-141.189 -25.488)" fill="#ffa8a7"/>
          <path id="Path_1501" data-name="Path 1501" d="M294.31,156.19c2.305.432,9.905-.06,15.08.912s14.587,4.947,19.546,11.766Z" transform="translate(-136.538 -18.046)" fill="#f28f8f"/>
          <path id="Path_1502" data-name="Path 1502" d="M271.15,119.269c2.7-.108,14.407-1.837,21.611,3.458,6.543,4.8,11.454,11.682,16.712,18.141,2.617,3.217,6.627,8.476,6.627,8.476s-5.331,8.836-18.465,15.3l-22.751-21.875Z" transform="translate(-141.184 -25.523)" fill="#37474f"/>
          <path id="Path_1503" data-name="Path 1503" d="M265.75,403.889a1.332,1.332,0,0,0-.984.961c-.6,2.053-.576,4.382-1,6.495-.66,3.29-1.357,8.032-.816,10.674s4.118,5.223,10.805,7.119c4.046,1.2,11.262,4.646,14.563,7.636,4.034,3.674,12.678,6.747,18.525,6.927,6.855.2,14-1.621,15.608-6.555.7-2.077,1.2-5.63-8.548-9.485a57.142,57.142,0,0,1-9.6-4.49c-4.55-2.677-11.382-6.219-15.152-9.749a19.294,19.294,0,0,1-5.583-13.051,8.236,8.236,0,0,0-10.806,8.717c-.468.264-1.044-.18-1.2-.684a9.838,9.838,0,0,1-.168-1.585,3.362,3.362,0,0,0-2.257-2.4A6.485,6.485,0,0,0,265.75,403.889Z" transform="translate(-142.867 30.851)" fill="#37474f"/>
          <path id="Path_1504" data-name="Path 1504" d="M189.021,403.425a13.992,13.992,0,0,1,.84,4.706,29.33,29.33,0,0,1,.564,4.01c0,1.2.276,2.617,1.381,3.037a2.4,2.4,0,0,0,2.5-.816,25.251,25.251,0,0,0,1.585-2.305,6.759,6.759,0,0,1,5.007-2.725c1.957-.108,2.1.072,3.422,1.525l-1.129,2.7c-3.782,9.6-4.01,18.2-1.657,28.2.48,2.041,3.434,5.367,5.055,6.988a30.829,30.829,0,0,0,3.037,2.689c.948.744,1.885,1.62,2.005,2.4a5.318,5.318,0,0,1-.588,3.325,6.183,6.183,0,0,1-3.71,2.714,24.01,24.01,0,0,1-17.7-.576,16.168,16.168,0,0,1-6-5.055c-3.29-5.726-2.917-11.177-2.966-16.112-.084-10.89-1.885-16.508-2.761-21.959C176.835,409.62,186.968,402.44,189.021,403.425Z" transform="translate(-159.905 31.531)" fill="#37474f"/>
          <path id="Path_1505" data-name="Path 1505" d="M303.819,449.685c-4.034-4.358-4.8-8.56-4.25-16.652s4.6-79.624,6.243-97.248c2.773-29.655,4.178-112.988,1.717-133.554l-79.059,6.219c-5.739,14.407-9.965,32.02-9.064,59.754.672,21.155.18,78.531.18,78.531s-9.6,8.4-16.544,25.08c-6.087,14.683-13.1,65.457-13.1,65.457h0a44.593,44.593,0,0,1-2.317,6.447,12.535,12.535,0,0,0-2.846,7.42,124.118,124.118,0,0,0,2.783,26.124c.963,4.456,3.737,7.325,8.167,9.09a7.045,7.045,0,0,0,3.1.5,2.3,2.3,0,0,0,1.5-.552c.756-.756.072-2.533-.072-3.422a35.252,35.252,0,0,1-.4-4.346c-.084-2.858,0-6.339.192-9.185a93.745,93.745,0,0,1,3.073-18.873l1.537-3.662h0s34.313-69.191,44.062-86.047c7.744-13.207,12.894-64.616,18.393-92.7l9.269,67.149s-4.07,12.126-5.139,21.407c-1.441,12.45,7.36,61.231,9.989,78.615a35.646,35.646,0,0,1,.108,9.725h0c.924,7.516,6.579,9.833,12.414,14.1,2.893,2.113,15.608,9.869,23.364,11.43,6.267,1.273,11.082-2.485,7.2-4.9C317.038,460.6,307.853,454.079,303.819,449.685Z" transform="translate(-158.509 -8.811)" fill="#ffa8a7"/>
          <path id="Path_1506" data-name="Path 1506" d="M261.777,293.02c.8-7.54,2.978-17.865,2.978-17.865l3.53,29.09,2.833,33.413a132.5,132.5,0,0,0-2.473,13.567c-1.2,8.981-.66,23.412.984,33.053s5.054,26.941,5.054,26.941c14.335,7.492,25.212-.18,25.212-.18s1.393-19.294,4.07-47.568,3.6-56.56,3.794-80.056c0,0,3.4-58.589-6.5-98.125-11.634,8.188-46.187,9.833-60.126-1.2,0,0-5.595,9.245-17.793,29.859-9.6,16.2-6.771,42.2-6.94,63.944-.252,33.545-.072,71.423-.072,71.423a107.07,107.07,0,0,0-11.79,15.956C198.433,375.117,195.3,397,195.3,397s6.171,13.122,27.242,13.687c0,0,20.482-37.278,25.621-45.743S260.973,300.572,261.777,293.02Z" transform="translate(-156.399 -12.449)" fill="#e53935"/>
          <path id="Path_1507" data-name="Path 1507" d="M253.15,266.548l7.7-29.607S275.589,235.4,287.055,227c0,0-2.4,10.805-22.656,14.011l-8.74,29.066,1.02,25.621Z" transform="translate(-144.794 -3.842)" opacity="0.15"/>
          <path id="Path_1508" data-name="Path 1508" d="M301.483,142.876c-9.6-12.606-12.822-16.964-19.21-23.424l-35-1.453c-2.725.24-18.393,2.761-18.393,2.761-3.914,1.729-8.212,11.034-7.2,18.405,1.081,7.7,1.969,15.32,3.89,24.744s4.922,16.748,5.607,19.774c1.345,6.063,1.993,12.366-1.2,18.441-6.627,12.666-12.006,20.842-14.275,31.48a22.944,22.944,0,0,0,10.025-5.787c4.274-4.094,6.843-6,10.265-10.805,0,0,.348,7.2,7.5,16.64a39.841,39.841,0,0,0,6.243,6.591c12.846,10.805,51.482,15.428,52.742-18.273,0,0-3.782-15.38-4.526-24.528s-.9-14.659-.817-17.012C312.876,169.133,307.738,151.053,301.483,142.876Z" transform="translate(-152.307 -25.707)" fill="#455a64"/>
          <path id="Path_1509" data-name="Path 1509" d="M166.47,171.709c4.238-7.36,9.725-9.233,16.712-14.479s21.359-16.7,30.207-22.715c10.049-6.832,17.949-12.954,25.441-12.894,0,0,1.2-.228,3.326,5.727s1.909,20.542-2.929,24.42-44.026,25.6-44.026,25.6l-28.73-5.655" transform="translate(-162.182 -24.981)" fill="#ffa8a7"/>
          <path id="Path_1510" data-name="Path 1510" d="M213.584,160.2l-2.833-5.607c-2.665,1.813-7.024,3.47-14.107,3.878s-19.762.12-26.785,4.334a2.75,2.75,0,0,0-1.2,2.8l26.137,5.15S203.715,165.792,213.584,160.2Z" transform="translate(-161.752 -18.367)" fill="#f28f8f"/>
          <path id="Path_1511" data-name="Path 1511" d="M233.1,120.25c-4.286,0-10.253,2.641-15.4,6.435-6.363,4.694-23.1,17.565-23.1,17.565s3.386,18.009,14.983,22.6c0,0,21.719-12.006,23.448-13.315s4.742-4.19,5.295-14.407S235.42,124.236,233.1,120.25Z" transform="translate(-156.539 -25.256)" fill="#37474f"/>
          <path id="Path_1512" data-name="Path 1512" d="M271.584,165.892s-9.521,8.4-21.2,5.091a20.41,20.41,0,0,1-11.166-7.552.828.828,0,0,0-1.417.816c1.645,3.854,5.211,8.344,12.918,10.205C264.9,177.85,271.584,165.892,271.584,165.892Z" transform="translate(-147.884 -16.655)" fill="#37474f"/>
          <path id="Path_1513" data-name="Path 1513" d="M238.469,51.589c12.006-4.742,20.758-3.842,26.713-2.521,24.816-11.2,45.166,21.983,22.955,38.419,0,0-1.032,25.837-20.686,32.032l-21.611,4.5c-3.266-8.968-22.139-11.886-27.206-31.888C212.729,73.224,225.683,56.644,238.469,51.589Z" transform="translate(-152.013 -39.988)" fill="#263238"/>
          <path id="Path_1514" data-name="Path 1514" d="M274.558,58.57C279,60.335,285.64,69.808,288.485,91.382c2.4,18.285-2.8,23.712-5.559,25.465s-8.608,1.861-14.311,1.8l1.717,12.618s5.847,3.542,7.047,9.7c.973,5.006-12.57,8.176-21.815,2.605a27.156,27.156,0,0,1-10.289-10.493L241.818,106.8s-2.965,3.83-8.4,1.032c-5.883-3-7.144-9.821-4.13-14s10.1-3.35,12.306,1.441c0,0,7.816-1.729,18.105-10.673C270.788,74.91,272.577,66.71,274.558,58.57Z" transform="translate(-149.899 -37.628)" fill="#ffa8a7"/>
          <path id="Path_1515" data-name="Path 1515" d="M258.77,85.113a2.317,2.317,0,1,1-2.762-1.9A2.4,2.4,0,0,1,258.77,85.113Z" transform="translate(-144.591 -32.692)" fill="#263238"/>
          <path id="Path_1516" data-name="Path 1516" d="M259.663,95.21l9.077,1.753a4.526,4.526,0,0,1-5.319,3.806A4.8,4.8,0,0,1,259.663,95.21Z" transform="translate(-143.503 -30.279)" fill="#b16668"/>
          <path id="Path_1517" data-name="Path 1517" d="M263.366,100.441a4.324,4.324,0,0,0,2.221-.156,3.83,3.83,0,0,0-5.727-2.929A4.7,4.7,0,0,0,263.366,100.441Z" transform="translate(-143.448 -29.951)" fill="#f28f8f"/>
          <path id="Path_1518" data-name="Path 1518" d="M274.689,77.4l-5.139-2.5a2.737,2.737,0,0,1,3.734-1.381A3,3,0,0,1,274.689,77.4Z" transform="translate(-141.505 -34.687)" fill="#263238"/>
          <path id="Path_1519" data-name="Path 1519" d="M274.413,81.643a2.329,2.329,0,1,1-2.762-1.9A2.4,2.4,0,0,1,274.413,81.643Z" transform="translate(-141.457 -33.388)" fill="#263238"/>
          <path id="Path_1520" data-name="Path 1520" d="M264.33,81.03l2.509,13.735,6.915-3.374Z" transform="translate(-142.552 -33.123)" fill="#f28f8f"/>
          <path id="Path_1521" data-name="Path 1521" d="M265.32,109.6c-6,.144-18.573-1.453-21.19-5.919a12.521,12.521,0,0,0,5.174,5.427c4.082,2.521,16.508,4.142,16.508,4.142Z" transform="translate(-146.604 -28.579)" fill="#f28f8f"/>
          <path id="Path_1522" data-name="Path 1522" d="M347.741,178.273c-10.133-8.584-13.278-13.519-41.8-18.8,0,0-15.692-4.8-17.637-6.183s-5.907-1.513-8.777-2.569-13.279-4.8-16-6.639-3.914-3.025-8.6-3.326-11.01-1.056-12.522-.9-2.869,3.47-4.382,6-2.269,2.917-1.093,8.008c.768,3.362,1.849,3.758,1.849,3.758.816.348,1.957-1.2,1.957-1.2,1.645.444,1.873-1.4,1.873-1.4,1.285,0,3.722-4.178,3.722-4.178l2.461-.612c2.149.612,6.687,4.346,5.174,7.8s-6.951,4.8-10.181,7.2-3.6,7.648-2.137,8.4c.864.432,1.933-1.309,4.8-3.266a34.319,34.319,0,0,1,8.308-3.842c6.387-1.957,11.838-.588,17.277-.888s7.1-2.4,25.477,9.065c7.576,4.718,14.035,8.908,20.254,11.178a70.275,70.275,0,0,0,21.875,3.746C348.354,190.111,349.254,182.715,347.741,178.273Z" transform="translate(-148.164 -21.327)" fill="#ffa8a7"/>
          <path id="Path_1523" data-name="Path 1523" d="M274.207,160.405a18.007,18.007,0,0,1-6.927-3.362c-2.233-1.609-4.659-4.658-6.423-6.267s-4.238,0-5.667,0a2.737,2.737,0,0,1-2.245-1.2c2.281-.456,2.245-1.8,2.245-1.8a6.256,6.256,0,0,1-4.334.3c-.96-.516-1.008-2.065-1.008-2.065-.108,1.3-1.4,1.969-3.05,2.173s-2.137-.564-2.137-.564a4.583,4.583,0,0,1,0,1.993l2.461-.612a4.8,4.8,0,0,1,.888.372c2.293,1.2,5.607,4.406,4.286,7.432a7.2,7.2,0,0,1-2.749,2.93h0c5.907-1.7,7.012-5.547,8.512-6.123,1.057-.408,2.5-.108,5.655,2.521A17.553,17.553,0,0,0,274.207,160.405Z" transform="translate(-146.497 -20.088)" fill="#f28f8f"/>
          <path id="Path_1524" data-name="Path 1524" d="M254.809,143.928a52.084,52.084,0,0,0-6.951.288c-1,.192-4.61,2.737-5.247,3.133s-.936,2.894-1.465,4.5-.3,1.909.372,2.4c0,0-1.513-.2-.829-2.545s.888-4.538,1.645-5.151a32.849,32.849,0,0,1,5.4-3C248.494,143.376,254.809,143.928,254.809,143.928Z" transform="translate(-147.329 -20.588)" fill="#f28f8f"/>
          <path id="Path_1525" data-name="Path 1525" d="M245.932,140.346c-1.321-.2-1.717.432-2.725,1.585a61.131,61.131,0,0,0-4.226,6,8.931,8.931,0,0,0,0,3.013c0,1.117.144,3.758,1.357,5.439,0,0-.576-.084-1.2-1.681a23.922,23.922,0,0,1-.78-5.427c-.12-1.008,0-1.309.936-2.725a53.11,53.11,0,0,1,4-5.283C244.251,140.286,244.6,139.962,245.932,140.346Z" transform="translate(-147.77 -21.256)" fill="#f28f8f"/>
          <path id="Path_1526" data-name="Path 1526" d="M274.725,162.857a6.941,6.941,0,0,1-1.2-4.514c0-2.185-.18-2.665-.577-.972s-2.5,4.634-4.238,4.682A14.409,14.409,0,0,1,274.725,162.857Z" transform="translate(-141.673 -18.014)" fill="#f28f8f"/>
          <path id="Path_1527" data-name="Path 1527" d="M167.186,167.545c-4.238,7.36-5.607,13.087-2.869,16.208,2.113,2.4,6,2.089,11.478,2.4,5.271.264,15.019-.912,21.827-4.742,9.929-5.595,15.152-8.608,23.28-9.341,7.72-.684,11.118-2.545,15.38-2.929,5.019-.444,10.313-.588,13.783,1.2a34.5,34.5,0,0,1,4.574,2.893c.36.168.877-.2.984-1.333a6.917,6.917,0,0,0-.864-3.758c-1.357-2.461-5.331-4.022-9.6-4.8s-7.348-2.893-7.984-5.439a8.751,8.751,0,0,1,.636-5.907,22.926,22.926,0,0,0,2.521.588,30.807,30.807,0,0,0,3.53.252,17.51,17.51,0,0,0,2.87,3.014c1.008.7,1.957,1,2.4.564a3.926,3.926,0,0,0,2.4,1.789c1.357.156,1.621-.516,1.621-.516s-.444-2.605-.576-3.7-.12-2.785-.276-3.6-.876-1.393-2.917-3.6-2.978-4.166-3.962-4.37a8.719,8.719,0,0,0-2.821.2,5.75,5.75,0,0,0-2.041,0c-1.621.156-3.89.42-6.5.6s-5.631.084-6.363.816-1.885,2.509-3.506,4.382a89.387,89.387,0,0,1-7.312,7.108,44.856,44.856,0,0,1-4.082,3.062,20.036,20.036,0,0,1-4.8,2.4c-2.905.853-7.2,1.021-12.762,1.489C185.832,163.2,171.088,163.042,167.186,167.545Z" transform="translate(-162.899 -20.816)" fill="#ffa8a7"/>
          <path id="Path_1528" data-name="Path 1528" d="M233.325,161.089c-3.026-1.021-5.163-2.785-5.667-4.8a8.752,8.752,0,0,1,.636-5.907,3.674,3.674,0,0,1-2.629,1.141,9.449,9.449,0,0,1-4.43-1.141,4.214,4.214,0,0,0,3.074,1.945,28.329,28.329,0,0,1-4.886,1.993c-2.821.853-3.362,3.6-4.37,6.459s-1.273,5.727-4.562,7.468c0,0,3.229-.492,6.243-4.574s5.03-5.223,8.116-5.283,5.066,2.317,8.4,2.7Z" transform="translate(-153.352 -19.212)" fill="#f28f8f"/>
          <path id="Path_1529" data-name="Path 1529" d="M236.339,155.469c.7-.612,1-.816.132-1.921s-2.1-2.761-2.725-3.458a9.1,9.1,0,0,0-2.965-1.909c-1.525-.756-2.149-1.381-3.71-1.489a5.7,5.7,0,0,1,2.581.42c1.056.552,3.6,1.885,4.178,2.269a18.409,18.409,0,0,1,2.509,3.134c.42.624,1.285,1.717,1.2,2.1S236.339,155.469,236.339,155.469Z" transform="translate(-150.026 -19.954)" fill="#f28f8f"/>
          <path id="Path_1530" data-name="Path 1530" d="M235.891,156.3a2.557,2.557,0,0,0,2.557.48c.828-.48.756-.852.264-1.969a32.517,32.517,0,0,1-1.2-3.77,4.394,4.394,0,0,0-1.465-2.81c-1.861-1.453-6.207-5.1-6.747-5.715,0,0,4.322,3.242,5.09,3.758,1.321.888,3.038,2.041,3.254,2.893s1.1,4.262,1.273,4.706a4.8,4.8,0,0,1,.6,2.4C239.217,156.951,238.268,158.284,235.891,156.3Z" transform="translate(-149.579 -20.788)" fill="#f28f8f"/>
          <path id="Path_1531" data-name="Path 1531" d="M211.851,167.6h0c-2.5-.2-3.77-2.089-4.862-2.7s.132,1.093,0,2.161a2.581,2.581,0,0,1-1.009,1.645h0a33.625,33.625,0,0,1,5.859-1.1Z" transform="translate(-154.257 -16.324)" fill="#f28f8f"/>
        </g>
      </g>
    </g>
  </g>
</svg>
