<svg xmlns="http://www.w3.org/2000/svg" xmlns:xlink="http://www.w3.org/1999/xlink" width="552.598" height="500" viewBox="0 0 552.598 500">
  <defs>
    <linearGradient id="linear-gradient" x1="0.5" y1="1" x2="0.5" gradientUnits="objectBoundingBox">
      <stop offset="0" stop-color="gray" stop-opacity="0.251"/>
      <stop offset="0.54" stop-color="gray" stop-opacity="0.122"/>
      <stop offset="1" stop-color="gray" stop-opacity="0.102"/>
    </linearGradient>
  </defs>
  <g id="Group_1593" data-name="Group 1593" transform="translate(5150 -2159)">
    <g id="background" transform="translate(-5150 2159)">
      <circle id="Ellipse_532" data-name="Ellipse 532" cx="187.5" cy="187.5" r="187.5" transform="translate(62.5 62.5)" fill="rgba(79,19,76,0.05)"/>
      <circle id="Ellipse_533" data-name="Ellipse 533" cx="250" cy="250" r="250" fill="rgba(79,19,76,0.05)"/>
    </g>
    <g id="weddingInvites" transform="translate(-5074.996 2159)">
      <g id="undraw_wedding_t1yl_6_" data-name="undraw_wedding_t1yl (6)" transform="translate(0)">
        <ellipse id="Ellipse_179" data-name="Ellipse 179" cx="31.805" cy="5.377" rx="31.805" ry="5.377" transform="translate(369.386 479.283)" fill="#f44336"/>
        <path id="Path_2121" data-name="Path 2121" d="M802.041,767.23a9.216,9.216,0,0,0,3.03-4.58,4.058,4.058,0,0,0-2.12-4.658,5.941,5.941,0,0,0-5.6,1.97,7.477,7.477,0,0,1-5.443,2.625,8.3,8.3,0,0,0,2.563-7.75,3.228,3.228,0,0,0-.712-1.582c-1.083-1.155-3.038-.665-4.335.25-4.113,2.895-5.25,8.48-5.285,13.5a25.384,25.384,0,0,1-.07-5.538,5.707,5.707,0,0,0-2.095-4.927,6.262,6.262,0,0,0-3.166-.75,6.566,6.566,0,0,0-5.165,1.462,5.1,5.1,0,0,0,.2,6.328,20.466,20.466,0,0,0,5.355,4.287,11.862,11.862,0,0,1,3.82,3.645,3.326,3.326,0,0,1,.285.657H794.9a32.518,32.518,0,0,0,7.145-4.94Z" transform="translate(-385.323 -287.409)" fill="#f44336"/>
        <ellipse id="Ellipse_180" data-name="Ellipse 180" cx="31.805" cy="5.377" rx="31.805" ry="5.377" transform="translate(0 473.351)" fill="#f44336"/>
        <path id="Path_2122" data-name="Path 2122" d="M217.041,759.732a9.206,9.206,0,0,0,3.03-4.58,4.063,4.063,0,0,0-2.12-4.66c-1.945-.75-4.025.61-5.6,1.97a7.475,7.475,0,0,1-5.442,2.625,8.3,8.3,0,0,0,2.562-7.75,3.249,3.249,0,0,0-.713-1.582c-1.082-1.155-3.038-.665-4.335.25-4.113,2.9-5.25,8.5-5.285,13.5a25.4,25.4,0,0,1-.07-5.538,5.705,5.705,0,0,0-2.095-4.927,6.248,6.248,0,0,0-3.165-.75,6.566,6.566,0,0,0-5.165,1.472,5.1,5.1,0,0,0,.2,6.327,20.141,20.141,0,0,0,5.355,4.287,11.875,11.875,0,0,1,3.82,3.648,3.288,3.288,0,0,1,.285.657h11.6a32.231,32.231,0,0,0,7.145-4.95Z" transform="translate(-172.082 -289.798)" fill="#f44336"/>
        <path id="Path_2123" data-name="Path 2123" d="M523.784,656.516a1.987,1.987,0,0,0,0-.212,6.33,6.33,0,0,0-.562-2.935c-1.282-2.6-4.367-3.023-6.985-3.473a34.444,34.444,0,0,1-12.172-4.58,9.8,9.8,0,0,1-5.322-6.858c0-.64.047-1.283,0-1.867v-1.25c0-1.67-.1-3.2-1.338-3.5a24.058,24.058,0,0,1-16.39-16.168c-.545-1.707-.925-3.5-1.63-5.125-2.25-5.187-7.222-8-10.987-11.928a46.609,46.609,0,0,1-9.9-19.552c-2.08-7.2-3.52-14.665-6.25-21.6-4.547-11.573-8.652-23.895-16.365-33.142-1.163-1.4-2.445-2.833-3.8-4.28-6.857-10.013-11.517-21.855-17.457-32.66a32.707,32.707,0,0,0-4.12-6.192,52.128,52.128,0,0,0-6.977-5.765c-11.43-8.923-18.75-22.937-28.587-33.957a44.758,44.758,0,0,1-5.655-6.945,22.153,22.153,0,0,1,.347-4.035c.633-3.282,2.333-6.4,2.04-9.75a13.762,13.762,0,0,1-.165-1.97,7.12,7.12,0,0,1,.6-2.2,21.739,21.739,0,0,1,2-4.318,18.377,18.377,0,0,0,2.767-7.285c1.97-1.867,2.825-5.285,5.283-6.145,1.367-.475,3.165-.15,3.955-1.5a3.628,3.628,0,0,0,.372-1.487,22.654,22.654,0,0,0-.672-7.958,19.582,19.582,0,0,0,.158-4.137,24.888,24.888,0,0,0-2.888-9.833,7.5,7.5,0,0,0-4.328-4.27c-.427-.095-.862-.117-1.272-.25-2.515-.735-3.385-4.62-5.655-5.823,2.92,1.583,5.9,3.37,8.645,2.04,3.447-1.685,3.732-6.937,3.472-11.13l-.917-15.527c-.5-7.91-1.108-16.3-5.18-22.82a29.863,29.863,0,0,0-15.82-11.627,18.813,18.813,0,0,0-12.805-.925c.25-.175.483-.348.72-.5a11.567,11.567,0,0,0-1.48.553,27.575,27.575,0,0,0-5.947,4.082,21.468,21.468,0,0,0,1.5-7.91,21.022,21.022,0,0,0-3.308-11.437l4.635-3.9-1.082-1.765,2.04-1.945a1.432,1.432,0,0,0-1.217-.68,1.737,1.737,0,0,0-.285,0,4.221,4.221,0,0,0-.142-1.732l-.143.135a5.208,5.208,0,0,0-.57-1.378h.165a5.131,5.131,0,0,0-.325-.515v.25a11.438,11.438,0,0,0-2.42-2.588,22.185,22.185,0,0,0-12-5.648c-2.135-.157-4.28.183-6.415,0-2.88-.2-5.672-1.29-8.558-1.407a7.342,7.342,0,0,0-7.332,3.955c-.515,1.265-.585,2.69-.973,4a19.381,19.381,0,0,1-5.118,7.08,10,10,0,0,0-3.227,8.045,11.566,11.566,0,0,0,1,2.75l10.022,21.64a42.488,42.488,0,0,1-.142,4.75q-.1,1.02-.25,2.065c-.048.293-.1.593-.175.893a5,5,0,0,0-3.023,1.75,2.484,2.484,0,0,0-.523,1.25,11.314,11.314,0,0,0,.38,2.143,5.536,5.536,0,0,1-.64,2.682,20.813,20.813,0,0,1-3.78,6.455c-.7.72-1.488,1.32-2.19,2.032a21.779,21.779,0,0,0-2.19,2.75,18.59,18.59,0,0,0-3.5,6.77c-.885,4.192-2.673,8.18-3.955,12.267a4.181,4.181,0,0,1-.673.9c-.79.75-1.8,1.06-2.578,1.788-1.75,1.645-1.582,4.65-1.155,7.157,1.535,9.318,4.225,18.39,5.292,27.788a102.414,102.414,0,0,0,1.423,11.035,13.453,13.453,0,0,0,1.7,4.4,31.442,31.442,0,0,1-1,10.378c-.585,1.472-1.4,2.815-2.113,4.225a61.991,61.991,0,0,0-2.617,6.232l-4.295,11.31c-.79,2.142-1.63,4.3-2.25,6.533a67.252,67.252,0,0,0-1.535,20.21.869.869,0,0,1-.127.6c-.127.157-.428.11-.435-.1-.055.395-.277,1.068-.325,1.455a11.174,11.174,0,0,0,6.2.4v.625a.987.987,0,0,0,0,.15,13.293,13.293,0,0,0,.2,1.923v.047c.055.325.128.64.2.958a.38.38,0,0,0,.062.25c.07.285.15.577.238.855.048.15.087.285.135.427s.117.348.182.515.07.213.11.318c.522,1.36,1.147,2.672,1.75,4a21.357,21.357,0,0,1,2.017,6.533c.048.522.062,1.045.087,1.582v.545a15.106,15.106,0,0,0,.143,1.685c.142.9.412,1.765.625,2.65.128.522.222,1.06.318,1.582s.183,1.21.25,1.812q.895,6.708,1.32,13.448c.072,1.082.135,2.175.19,3.25.372,7.91.277,15.82.182,23.777a47.672,47.672,0,0,1-.79,7.735c-1.32,7.5-4.05,14.768-5.852,22.2-.19.79-.365,1.583-.53,2.372a31.844,31.844,0,0,0-.79,5.1,36.043,36.043,0,0,0,.617,6.835q.585,4.1.9,8.25a23.116,23.116,0,0,0-2.8,8.337c-.957,8.8-8.415,15.407-9.427,24.212a10.9,10.9,0,0,0-.072,1.685,8.42,8.42,0,0,0,0,1.093,7.121,7.121,0,0,0,.238,2.785,5.538,5.538,0,0,0,4.612,3.472,20.1,20.1,0,0,0,5.8-.57c.87-.15,1.75-.25,2.61-.333a5.736,5.736,0,0,1,0,.9,15.532,15.532,0,0,0-1.045,2.292,8.111,8.111,0,0,0-.892,2.983,6.631,6.631,0,0,0,.9,3.5,11.7,11.7,0,0,0,9.547,5.538,80.83,80.83,0,0,0,11.13-.7h.632a6.9,6.9,0,0,0,.468,1,11.688,11.688,0,0,0,9.54,5.538,81.02,81.02,0,0,0,11.137-.688c1.108-.055,2.223-.055,3.33-.135a32.457,32.457,0,0,0,6.708-1.225,38.873,38.873,0,0,0,5.388,6.163c6.517,5.537,15.527,5.22,23.675,4.137s17.33-3.092,24.75.79c5.7-.625,9.088,8.415,14.808,8.645a9.66,9.66,0,0,0,6.882-3.765,6.971,6.971,0,0,1,2.453-2,4.826,4.826,0,0,1,2.445-.08,18.335,18.335,0,0,1,11.185,6.75c1.44,1.8,2.91,4.072,5.07,4.12,1.938,0,3.655-1.827,5.577-1.582a10.21,10.21,0,0,1,3.5,1.977c3.542,2.1,7.91.158,11.31-2.153s7.04-5.1,11.027-4.682a26.236,26.236,0,0,1,7.3,2.935,18.87,18.87,0,0,0,21.888-5.822c.847-1.06,1.717-2.285,2.965-2.563a4.651,4.651,0,0,1,2.452.365,26.172,26.172,0,0,0,13.75,1.843,11.4,11.4,0,0,0,9.017-10.353,7.553,7.553,0,0,0-.04-.95c0-.2.04-.4.04-.61A4.4,4.4,0,0,0,523.784,656.516ZM344.239,359.33a4.671,4.671,0,0,1-1.582,2.088c-.062-.34-.127-.68-.2-1.028-.285-1.47-.61-2.935-.958-4.39a16.821,16.821,0,0,0,3.362,1.66c-.23.552-.42,1.148-.648,1.67Zm-11.595-35.7v.165a5.732,5.732,0,0,0,2.372,5.282,21.357,21.357,0,0,0-2.372,9.855,16.776,16.776,0,0,1-1.583-1.25,10.68,10.68,0,0,1-2.08-3.06,1.061,1.061,0,0,0,.665-.1c.4-.278.387-.925.332-1.448a31.08,31.08,0,0,1,1.955-14.64A15.921,15.921,0,0,0,334.6,317.2a13.127,13.127,0,0,0-1.937,6.328.271.271,0,0,0-.04.1Zm38.71,39.7a20.013,20.013,0,0,0-.673,4.7,12,12,0,0,0-6.02-4.75,8.551,8.551,0,0,0-.885-.213,5.191,5.191,0,0,1,.592-.5c2.27-1.582,4.825-.475,7.435.91a3.8,3.8,0,0,0-.475-.142Z" transform="translate(-190.03 -189.928)" fill="url(#linear-gradient)"/>
        <path id="Path_2124" data-name="Path 2124" d="M278.4,749.624a6.228,6.228,0,0,0,1.02,3.575,13.645,13.645,0,0,0,10.852,5.623,104.429,104.429,0,0,0,12.655-.7c1.265-.055,2.53-.062,3.79-.135a66.92,66.92,0,0,0,18.983-5c1-.373,2.19-.973,2.25-2.04a2.5,2.5,0,0,0-1.045-1.868,10.725,10.725,0,0,0-2.7-1.725c-3.432-1.5-7.545-1.115-10.8-2.975a23.708,23.708,0,0,0-2.128-1.25,9.064,9.064,0,0,0-2.75-.633,42.068,42.068,0,0,0-12.25.4,85.543,85.543,0,0,1-9.23,1.692,11.762,11.762,0,0,1-3.535-.229c-.79-.183-1.8-.895-2.548-.42s-1.17,1.985-1.527,2.657a7.727,7.727,0,0,0-1.035,3.027Z" transform="translate(-191.056 -289.201)" fill="#3f3d56"/>
        <path id="Path_2125" data-name="Path 2125" d="M278.4,749.624a6.228,6.228,0,0,0,1.02,3.575,13.645,13.645,0,0,0,10.852,5.623,104.429,104.429,0,0,0,12.655-.7c1.265-.055,2.53-.062,3.79-.135a66.92,66.92,0,0,0,18.983-5c1-.373,2.19-.973,2.25-2.04a2.5,2.5,0,0,0-1.045-1.868,10.725,10.725,0,0,0-2.7-1.725c-3.432-1.5-7.545-1.115-10.8-2.975a23.708,23.708,0,0,0-2.128-1.25,9.064,9.064,0,0,0-2.75-.633,42.068,42.068,0,0,0-12.25.4,85.543,85.543,0,0,1-9.23,1.692,11.762,11.762,0,0,1-3.535-.229c-.79-.183-1.8-.895-2.548-.42s-1.17,1.985-1.527,2.657a7.727,7.727,0,0,0-1.035,3.027Z" transform="translate(-191.056 -289.201)" opacity="0.05"/>
        <path id="Path_2126" data-name="Path 2126" d="M309.719,757.127a6.17,6.17,0,0,0,1.02,3.575,13.634,13.634,0,0,0,10.853,5.625,104.33,104.33,0,0,0,12.655-.7c1.265-.055,2.523-.063,3.79-.135a66.91,66.91,0,0,0,18.982-5c1-.38,2.19-.972,2.25-2.048a2.5,2.5,0,0,0-1.045-1.86,10.513,10.513,0,0,0-2.7-1.725c-3.432-1.5-7.545-1.123-10.8-2.983-.72-.4-1.375-.917-2.128-1.25a9.308,9.308,0,0,0-2.75-.64,42.082,42.082,0,0,0-12.25.411,83.587,83.587,0,0,1-9.23,1.685,11.519,11.519,0,0,1-3.535-.223c-.79-.182-1.795-.895-2.548-.42s-1.177,1.985-1.527,2.657A7.6,7.6,0,0,0,309.719,757.127Z" transform="translate(-197.605 -290.771)" fill="#3f3d56"/>
        <path id="Path_2127" data-name="Path 2127" d="M289.986,384.16a4.154,4.154,0,0,0-1.5-1.978c-1.653-.918-3.608.79-4.328,2.5s-.957,3.82-2.372,5.063c-.863.79-2.048,1.075-2.935,1.82-1.977,1.67-1.78,4.75-1.313,7.278,1.75,9.5,4.81,18.715,6.028,28.278a100.176,100.176,0,0,0,1.582,11.233,10.6,10.6,0,0,0,3.165,5.775,4.818,4.818,0,0,0,6.13.212,70.29,70.29,0,0,1-4.343-24.955c.048-5.537.79-11.075.943-16.675.165-4.887-.08-9.785-.325-14.672a9.123,9.123,0,0,0-.7-3.663,3.165,3.165,0,0,0-2.982-1.875" transform="translate(-190.814 -213.898)" fill="#fbbebe"/>
        <circle id="Ellipse_181" data-name="Ellipse 181" cx="19.91" cy="19.91" r="19.91" transform="translate(114.78 93.215)" fill="#cb8c8e"/>
        <circle id="Ellipse_182" data-name="Ellipse 182" cx="19.972" cy="19.972" r="19.972" transform="translate(141.544 133.032)" fill="#fbbebe"/>
        <path id="Path_2128" data-name="Path 2128" d="M375.831,385.717c.175,1.583.79,3.425,2.3,3.828a16.908,16.908,0,0,0,2.112.117,3.6,3.6,0,0,1,2.6,2,6.447,6.447,0,0,1,.545,3.345,10.538,10.538,0,0,1-1.63,4.887,14.04,14.04,0,0,1-7.325,5.363,39.484,39.484,0,0,1-9.065,1.67,10.838,10.838,0,0,1-4.1-.128,8.7,8.7,0,0,1-2.373-1.2,23.419,23.419,0,0,1-5.83-5.585,14,14,0,0,1-2.5-5.132,7.721,7.721,0,0,1,.735-5.538,2.727,2.727,0,0,1,1.33-1.25c1.693-.61,3.227,1.487,5.022,1.535a3.88,3.88,0,0,0,3.165-2.5,16.867,16.867,0,0,1,1.857-3.813,8.207,8.207,0,0,1,4.35-2.25,27.232,27.232,0,0,1,8.86-1.455c1.5.15.523,1.053.175,2.143a9.62,9.62,0,0,0-.23,3.965Z" transform="translate(-206.094 -213.375)" fill="#fbbebe"/>
        <path id="Path_2129" data-name="Path 2129" d="M358.267,409.572c2.427-1.093,3.772-3.725,5.94-5.282a27.83,27.83,0,0,1,6.17-2.6,18,18,0,0,0,5.7-3.638,15.5,15.5,0,0,1,4.75-3.86,7.384,7.384,0,0,1,4.477,0,15.158,15.158,0,0,1,9.095,8.392,45.126,45.126,0,0,1,3.228,12.308l1.027,6.327a58.154,58.154,0,0,1,1.1,11.75,19.537,19.537,0,0,1-3.59,11.075,21.609,21.609,0,0,0-2.285,4.39,6.7,6.7,0,0,0-.672,2.25,12.3,12.3,0,0,0,.182,2c.332,3.4-1.582,6.573-2.325,9.91a28.526,28.526,0,0,0-.347,6.777,1.66,1.66,0,0,0,.175.855,1.58,1.58,0,0,0,.672.537c.523.278,1.06.537,1.583.79a59.251,59.251,0,0,1-13.3,1.407c-7.837-.182-15.5-2.372-23.277-3.282a73.686,73.686,0,0,1,.91-10.6,42.971,42.971,0,0,0-.435-6.978,84.614,84.614,0,0,1,.182-18.985c.27-2.215.632-4.422.735-6.652.118-2.643-.117-5.293.073-7.91.183-2.5.79-5,.855-7.5a1.3,1.3,0,0,0-.62-1.48Z" transform="translate(-207.355 -216.385)" fill="#f4f6fb"/>
        <path id="Path_2130" data-name="Path 2130" d="M347.382,483.906c8.195.048,15.417.285,23.587.848,1.44,2.372-2,8.772-.055,10.732,11.2,11.225,13.693,26.308,26.7,35.4,2.7,1.883,10.282,3.41,12.655,5.735,1.86,1.842-.98.53.395,2.768,7.91,12.91,25.75,25.652,36.085,36.75,8.765,9.4,13.447,21.95,18.62,33.727a228.2,228.2,0,0,1,7.12,21.983,45.831,45.831,0,0,0,11.272,19.885c4.287,4,9.958,6.865,12.5,12.143a50.442,50.442,0,0,1,1.86,5.22,26.1,26.1,0,0,0,18.652,16.445c2.3.5,1.25,4.343,1.487,6.693.325,3.21,3.228,5.5,6.06,7.032a42.442,42.442,0,0,0,13.835,4.66c2.975.45,6.485.892,7.91,3.528a5.908,5.908,0,0,1,.64,3c-.1,5.3-5.062,9.5-10.282,10.535a32.816,32.816,0,0,1-15.63-1.875,5.877,5.877,0,0,0-2.793-.372,6.949,6.949,0,0,0-3.377,2.61,23.057,23.057,0,0,1-24.892,5.925,31.982,31.982,0,0,0-8.305-3c-4.54-.428-8.645,2.42-12.552,4.75s-8.842,4.317-12.87,2.183a12.8,12.8,0,0,0-3.955-2c-2.19-.25-4.145,1.645-6.327,1.582-2.452-.047-4.137-2.372-5.775-4.193a21.406,21.406,0,0,0-12.735-6.795,5.974,5.974,0,0,0-2.778.08,7.812,7.812,0,0,0-2.793,2.04,11.286,11.286,0,0,1-7.823,3.828c-6.5-.23-10.377-9.427-16.855-8.8-8.447-3.955-18.905-1.915-28.167-.79s-19.523,1.448-26.94-4.207c-3.908-3-6.558-7.332-10.2-10.648-5.75-5.235-13.525-7.522-21.017-9.657-11.865-3.385-24.187-6.8-36.385-4.96a27.125,27.125,0,0,1-6.612.578,6.126,6.126,0,0,1-5.25-3.528,6.9,6.9,0,0,1-.222-3.29c1.148-8.955,9.635-15.678,10.717-24.64a27.581,27.581,0,0,1,5.483-12.015,103.591,103.591,0,0,0,5.925-10.212,213.186,213.186,0,0,0,11.628-24.173,209.512,209.512,0,0,0,7.625-27.137c2.057-8.835,3.038-17.885,4.518-26.837,1.075-6.5,2.75-12.9,4.445-19.285,4.982-18.857,10-37.825,18.193-55.5a65.785,65.785,0,0,0,16.688,3.255Z" transform="translate(-187.645 -234.514)" fill="#e3e8f4"/>
        <path id="Path_2131" data-name="Path 2131" d="M347.382,486.909c8.195.048,15.417-.5,23.587.055a46.056,46.056,0,0,0,6.443,7.062c11.2,11.25,19.522,25.478,32.517,34.557a56.922,56.922,0,0,1,7.91,5.87,32.911,32.911,0,0,1,4.69,6.328c7.91,12.917,13.85,27.29,24.187,38.385,8.765,9.4,13.447,21.95,18.62,33.727a228.248,228.248,0,0,1,7.117,21.98,45.829,45.829,0,0,0,11.272,19.885c4.288,4,9.958,6.865,12.5,12.142a50.46,50.46,0,0,1,1.858,5.22,26.1,26.1,0,0,0,18.653,16.445c2.3.5,1.25,4.342,1.488,6.693.325,3.212,3.227,5.5,6.06,7.032a42.463,42.463,0,0,0,13.835,4.66c2.975.45,6.485.895,7.91,3.527a5.9,5.9,0,0,1,.64,3c-.1,5.3-5.062,9.5-10.282,10.535a32.824,32.824,0,0,1-15.63-1.875,5.877,5.877,0,0,0-2.792-.372,6.953,6.953,0,0,0-3.378,2.61,23.057,23.057,0,0,1-24.892,5.925,31.975,31.975,0,0,0-8.305-3c-4.54-.428-8.645,2.42-12.552,4.75s-8.843,4.32-12.87,2.182a12.827,12.827,0,0,0-3.955-2c-2.19-.25-4.145,1.645-6.327,1.583-2.453-.047-4.138-2.372-5.775-4.193a21.4,21.4,0,0,0-12.7-6.825,5.979,5.979,0,0,0-2.778.08,7.808,7.808,0,0,0-2.792,2.04,11.289,11.289,0,0,1-7.823,3.828c-6.5-.23-10.377-9.428-16.855-8.8-8.448-3.955-18.9-1.915-28.167-.79s-19.522,1.448-26.94-4.207c-3.907-3-6.557-7.333-10.2-10.647-5.75-5.235-13.525-7.523-21.017-9.658-11.865-3.385-24.187-6.8-36.385-4.96a27.113,27.113,0,0,1-6.612.577,6.124,6.124,0,0,1-5.25-3.527,6.907,6.907,0,0,1-.222-3.29c1.147-8.955,9.635-15.677,10.717-24.64a27.582,27.582,0,0,1,5.482-12.015,103.585,103.585,0,0,0,5.925-10.212,213.2,213.2,0,0,0,11.628-24.173,209.5,209.5,0,0,0,7.625-27.137c2.058-8.835,3.038-17.885,4.518-26.837,1.075-6.5,2.75-12.9,4.445-19.285,4.983-18.857,10-37.825,18.192-55.5A65.771,65.771,0,0,0,347.382,486.909Z" transform="translate(-187.645 -235.145)" fill="#e3e8f4"/>
        <path id="Path_2132" data-name="Path 2132" d="M347.382,484.909c8.2.047,15.417-.5,23.587.055a46.1,46.1,0,0,0,6.443,7.062c11.2,11.25,19.522,25.478,32.517,34.557a56.908,56.908,0,0,1,7.91,5.87,32.925,32.925,0,0,1,4.69,6.328c7.91,12.917,13.85,27.29,24.187,38.385,8.765,9.4,13.447,21.95,18.62,33.727a228.241,228.241,0,0,1,7.117,21.98,45.827,45.827,0,0,0,11.273,19.885c4.287,4,9.957,6.865,12.5,12.142a50.548,50.548,0,0,1,1.857,5.22,26.1,26.1,0,0,0,18.652,16.445c2.3.5,1.25,4.342,1.488,6.692.325,3.213,3.227,5.5,6.06,7.033a42.46,42.46,0,0,0,13.835,4.659c2.975.45,6.485.9,7.91,3.528a5.9,5.9,0,0,1,.64,3c-.1,5.3-5.062,9.5-10.282,10.535a32.823,32.823,0,0,1-15.63-1.875,5.879,5.879,0,0,0-2.792-.372,6.95,6.95,0,0,0-3.378,2.61,23.057,23.057,0,0,1-24.892,5.925,31.979,31.979,0,0,0-8.305-3c-4.54-.427-8.645,2.42-12.552,4.75s-8.843,4.32-12.87,2.182a12.836,12.836,0,0,0-3.955-2c-2.19-.25-4.145,1.645-6.327,1.583-2.453-.047-4.138-2.372-5.775-4.192a21.4,21.4,0,0,0-12.7-6.825,5.982,5.982,0,0,0-2.778.08,7.808,7.808,0,0,0-2.792,2.04,11.287,11.287,0,0,1-7.823,3.828c-6.5-.23-10.377-9.428-16.855-8.795-8.447-3.955-18.9-1.915-28.167-.79s-19.522,1.447-26.94-4.207c-3.908-3-6.558-7.333-10.2-10.647-5.75-5.235-13.525-7.523-21.017-9.658-11.865-3.385-24.187-6.8-36.385-4.96a27.094,27.094,0,0,1-6.612.577,6.124,6.124,0,0,1-5.25-3.528,6.909,6.909,0,0,1-.222-3.29c1.147-8.955,9.635-15.677,10.717-24.64a27.581,27.581,0,0,1,5.482-12.015,103.568,103.568,0,0,0,5.925-10.213,213.2,213.2,0,0,0,11.627-24.172,209.506,209.506,0,0,0,7.625-27.137c2.058-8.835,3.038-17.885,4.518-26.838,1.075-6.5,2.75-12.9,4.445-19.285,4.983-18.857,10-37.825,18.192-55.5a65.762,65.762,0,0,0,16.687,3.26Z" transform="translate(-187.645 -234.725)" fill="#f4f6fb"/>
        <path id="Path_2133" data-name="Path 2133" d="M279.115,531.68c-2.61,2.855-2.018,7.4-.5,10.948s3.845,6.882,4.273,10.725c.142,1.28.062,2.578.285,3.852.165.918.475,1.8.712,2.7a30.355,30.355,0,0,1,.665,3.465c.837,5.633,1.407,11.31,1.707,17,.435,8.053.325,16.128.213,24.2-.157,11.287-5.537,21.855-8.155,32.832a28.412,28.412,0,0,0-.9,5.19,33.772,33.772,0,0,0,.687,6.953,114.124,114.124,0,0,1-1.385,43.33,8.589,8.589,0,0,1,3.457,7.957c5.1.895,10.44,1.772,15.352.15a71.769,71.769,0,0,1,8.7-3.4c2.373-.435,5.118-.213,6.8-1.938a7.22,7.22,0,0,0,1.455-2.767c5.79-16.848,4.167-35.19,3.845-53-.175-9.57,0-19.15-.363-28.712a222.313,222.313,0,0,0-7.973-50.4,86.457,86.457,0,0,0-8.7-22.835,11.927,11.927,0,0,0-3.623-4.082,13.468,13.468,0,0,0-5.585-1.48C286.052,531.933,283.15,532.14,279.115,531.68Z" transform="translate(-190.715 -245.198)" fill="#3f3d56"/>
        <path id="Path_2134" data-name="Path 2134" d="M312.48,692.882a7.253,7.253,0,0,1-1.455,2.75c-1.677,1.732-4.43,1.5-6.795,1.945-.3.055-.6.128-.893.2-2.7.72-5.133,2.31-7.8,3.165a32.246,32.246,0,0,1-15.36-.15,8.6,8.6,0,0,0-3.458-7.965,114.08,114.08,0,0,0,1.393-43.322,33.237,33.237,0,0,1-.7-6.953,28.992,28.992,0,0,1,.9-5.19c2.6-10.987,8-21.555,8.155-32.842.11-8.068.222-16.145-.205-24.195q-.468-8.543-1.718-17a32.177,32.177,0,0,0-.657-3.465,27.791,27.791,0,0,1-.712-2.7c-.23-1.265-.15-2.57-.292-3.853-.427-3.845-2.738-7.165-4.273-10.717a15.878,15.878,0,0,1-1.235-4.6,7.911,7.911,0,0,1,1.725-6.328c2.712.3,4.9.293,7.277.4,1.162.047,2.372.127,3.692.278a13.212,13.212,0,0,1,5.592,1.48,11.872,11.872,0,0,1,3.615,4.083c.427.688.83,1.385,1.217,2.088a95.526,95.526,0,0,1,7.483,20.75,222.394,222.394,0,0,1,7.972,50.4c.4,9.562.19,19.142.365,28.72C316.657,657.7,318.27,676.027,312.48,692.882Z" transform="translate(-190.708 -245.199)" opacity="0.05"/>
        <path id="Path_2135" data-name="Path 2135" d="M344.026,537.6v4.16q-.055,20.045-.1,40.08a159,159,0,0,1-.57,16.475c-1.4,14.25-6.6,28.025-6.05,42.277a129.609,129.609,0,0,1-1.29,30.982c-.79,3.893-1.945,7.72-2.515,11.65a22,22,0,0,0,1.052,11.75c1.123,2.617,3.013,5.1,2.91,7.91a7.75,7.75,0,0,1-3.75,5.917,17.778,17.778,0,0,1-6.85,2.285,52.587,52.587,0,0,1-9.12.7c-4.375-.047-9.358-1-11.62-4.75a11.282,11.282,0,0,1-.673-8.568c.088-.333.175-.658.27-.98.75-2.5,1.8-4.887,2.373-7.42a20.653,20.653,0,0,0-.848-12c-.27-.713-1.115-2.058-1.875-1.97a32.258,32.258,0,0,1-1.582-9.895l-1.115-22.7a58.527,58.527,0,0,1,.538-14.792c.79-3.955,2.475-7.72,2.95-11.73a38.813,38.813,0,0,0-.04-7.25,321.373,321.373,0,0,0-4.81-36.963,4.433,4.433,0,0,0-.61-1.75c-.522-.728-1.432-1.068-2.072-1.7-1.345-1.313-1.218-3.458-1.535-5.315a28.291,28.291,0,0,0-4.5-9.065,33.225,33.225,0,0,1-4.447-15.467,32.468,32.468,0,0,1,.625-7.68c.062-.34.143-.68.222-1.02a206.859,206.859,0,0,1,51.525,3.165,4.207,4.207,0,0,1,3.212,1.707,4.28,4.28,0,0,1,.3,1.953Z" transform="translate(-193.092 -244.916)" fill="#3f3d56"/>
        <path id="Path_2136" data-name="Path 2136" d="M478.488,612.75a458.431,458.431,0,0,1,23.825,45.837c5.5,12.852,10,26.545,19.23,37.05,8.638,9.832,20.565,15.97,32.28,21.877l-10.5-9.25c-10.527-9.295-21.277-18.85-27.96-31.2a178.376,178.376,0,0,1-8.7-21.23A194.687,194.687,0,0,0,477.69,604.71,144.167,144.167,0,0,0,466.78,592C469.463,599.118,474.705,606.1,478.488,612.75Z" transform="translate(-230.436 -257.806)" fill="#e3e8f4"/>
        <path id="Path_2137" data-name="Path 2137" d="M425.2,743.139a63.552,63.552,0,0,0,9.08,14.982c.333-2.61-1.455-4.95-2.872-7.165a61.306,61.306,0,0,1-5.68-13.043c-1.44-4.152-2.777-9.88-5.838-13.162C418.33,730.374,422.83,738.3,425.2,743.139Z" transform="translate(-220.568 -285.552)" fill="#e3e8f4"/>
        <path id="Path_2138" data-name="Path 2138" d="M384.082,612.147c.75,3.955,1.177,7.91,2.175,11.778a84.009,84.009,0,0,0,3.6,10.205l16.672,41.557c-.142-5.647-3.165-10.75-5.085-16.057-2.373-6.5-3.228-13.447-5.165-20.137-1.583-5.425-3.875-10.607-5.537-16-2.31-7.617-3.282-15.575-5.1-23.325a170.534,170.534,0,0,0-6.115-19.775,19.279,19.279,0,0,0-4.817-8.338,6.785,6.785,0,0,0-8.85-.428c-3.25,3.22,1.677,5.237,3.3,7.332a78.639,78.639,0,0,1,14.9,33.223Z" transform="translate(-209.112 -253.228)" fill="#e3e8f4"/>
        <path id="Path_2139" data-name="Path 2139" d="M414.27,512.048a15.166,15.166,0,0,1,2.295,2.975,40.8,40.8,0,0,0,2.373,5.095,49.757,49.757,0,0,0-6.75-7.657c-1.518-1.305-3.165-2.427-4.69-3.732-1.162-1-6.25-5.315-5.25-6.788A47.193,47.193,0,0,1,414.27,512.048Z" transform="translate(-216.928 -238.982)" fill="#e3e8f4"/>
        <path id="Path_2140" data-name="Path 2140" d="M341.815,324.037a11.387,11.387,0,0,1-2.05,4.46,28.546,28.546,0,0,0-4.072,13.8,27.706,27.706,0,0,0,.19,4.28c.063.53.08,1.195-.38,1.472a1.328,1.328,0,0,1-.79.1c-.537-.048-1.06-.11-1.582-.2-8.455-1.352-15.86-7.12-24.37-8.575a4.067,4.067,0,0,0,2.175-2.57,11.539,11.539,0,0,0,.515-1.962c.127-.705.223-1.407.293-2.1a91.191,91.191,0,0,0-.523-14.95c-.325-6.028,7.12-4.042,11.485-4.12a36.2,36.2,0,0,1,10.458.83,12.265,12.265,0,0,1,8.06,6.25,6.325,6.325,0,0,1,.592,3.273Z" transform="translate(-197.405 -199.58)" fill="#cb8c8e"/>
        <path id="Path_2141" data-name="Path 2141" d="M336.078,353.06a1.325,1.325,0,0,1-.79.1c-.537-.048-1.06-.11-1.582-.2-.728-.68-1.433-1.393-2.105-2.135a46.212,46.212,0,0,0-4.84-5.18,16.8,16.8,0,0,0-9.887-3.527,32.541,32.541,0,0,1-5.363-.3,11.565,11.565,0,0,0,.515-1.963c.128-.7.223-1.407.293-2.095a26.442,26.442,0,0,1,3-.213,14.386,14.386,0,0,1,3.542-.072,18.086,18.086,0,0,1,5.435,2.295,64.652,64.652,0,0,1,7.285,3.765c.7.5,1.36,1.027,2.025,1.582.9.735,1.8,1.48,2.7,2.207a27.688,27.688,0,0,0,.19,4.28C336.52,352.112,336.537,352.785,336.078,353.06Z" transform="translate(-197.98 -204.59)" fill="#e3e8f4"/>
        <path id="Path_2142" data-name="Path 2142" d="M341.789,537.594v4.16c-3.29.1-6.653.578-9.928.793-3.077.222-6.162.23-9.25.19a26.846,26.846,0,0,1-7.168-.79c-1.685-.5-3.267-1.3-4.942-1.8a23.819,23.819,0,0,0-9.847-.46c-2.72.318-5.465.793-8.18,1.038a10.988,10.988,0,0,1-5.22-.538,9.707,9.707,0,0,1-1.345-.75,18.283,18.283,0,0,0-2.075-1.2,12.364,12.364,0,0,0-6.287-.522,7.909,7.909,0,0,1,1.725-6.328c2.712.3,4.9.293,7.277.4.063-.34.143-.68.223-1.02a206.881,206.881,0,0,1,51.525,3.165,4.208,4.208,0,0,1,3.212,1.707A4.283,4.283,0,0,1,341.789,537.594Z" transform="translate(-190.854 -244.913)" opacity="0.1"/>
        <path id="Path_2143" data-name="Path 2143" d="M304.073,341.4a6.972,6.972,0,0,0-4.66,1.963,2.371,2.371,0,0,0-.593,1.272,10.64,10.64,0,0,0,.427,2.182,5.1,5.1,0,0,1-.727,2.72,21.175,21.175,0,0,1-4.3,6.572c-.79.735-1.693,1.345-2.5,2.065a22.031,22.031,0,0,0-2.5,2.8,18.186,18.186,0,0,0-4,6.882c-1.068,4.518-3.29,8.78-4.75,13.193a28.538,28.538,0,0,0-1.583,13.685c.373,2.167,1.123,4.25,1.645,6.382.837,3.425,1.075,6.968,1.963,10.378.563,2.128,1.367,4.185,1.977,6.328a34.468,34.468,0,0,1,1.053,14.15c-.593,4.328.4,8.93-1.345,12.925a48.767,48.767,0,0,1-2.372,4.3,60.169,60.169,0,0,0-2.982,6.328l-4.88,11.517a67,67,0,0,0-2.555,6.645,61.278,61.278,0,0,0-1.75,20.565.869.869,0,0,1-.135.618c-.15.157-.5.11-.5-.1-.062.395-.317,1.083-.372,1.48,4.153,1.8,9.262-.925,13.4.918,1.2.537,2.223,1.432,3.432,1.955a10.885,10.885,0,0,0,5.22.545c6.035-.5,12.227-2.372,18.017-.585,1.685.515,3.25,1.32,4.942,1.812a26.937,26.937,0,0,0,7.175.79c3.085.047,6.17.04,9.25-.19,6.62-.482,13.572-1.93,19.672.7a7.08,7.08,0,0,0,2.2-6.13q.222-6.88.443-13.75l1.638-50.582a50.593,50.593,0,0,0-.388-10.44,49.953,49.953,0,0,0-7.91-17.235l-15.732-25.312c-1.045-1.677,0-3.552.72-5.395a34.933,34.933,0,0,0,2.025-8.21,7.365,7.365,0,0,0-1.163-5.925,25.366,25.366,0,0,0-2.807-2.087,13.065,13.065,0,0,1-2.9-4.042,26.1,26.1,0,0,0-9.25-9.635A19.554,19.554,0,0,0,304.073,341.4Z" transform="translate(-189.034 -205.404)" fill="#3f3d56"/>
        <path id="Path_2144" data-name="Path 2144" d="M330.765,369.986c-5.593,1.542-9.057,7.223-10.593,12.815a48.426,48.426,0,0,0,.27,24.062,134.95,134.95,0,0,0,8.425,22.78,54.7,54.7,0,0,0,2.6,5.3,25.382,25.382,0,0,0,11.612,10.543,21.449,21.449,0,0,0,15.557.687,9.14,9.14,0,0,0,2.61-1.33c2.8-2.152,3.235-6.137,3.44-9.665l.705-12.362a6.221,6.221,0,0,0-.095-1.953,7.114,7.114,0,0,0-1.433-2.372,29.567,29.567,0,0,1-5.062-10.063,51.159,51.159,0,0,0-2.207-7.632c-.665-1.455-1.583-2.785-2.3-4.215a40.311,40.311,0,0,1-2.887-9.91q-.973-4.415-2.325-8.75a14.73,14.73,0,0,0-2.018-4.485,15.25,15.25,0,0,0-9.61-4.75,11.073,11.073,0,0,0-5.2-.25,11.5,11.5,0,0,0-4.865,3.473" transform="translate(-199.493 -211.041)" opacity="0.1"/>
        <path id="Path_2145" data-name="Path 2145" d="M331.766,368.987c-5.593,1.543-9.058,7.223-10.593,12.815a48.424,48.424,0,0,0,.27,24.062,134.921,134.921,0,0,0,8.425,22.78,54.724,54.724,0,0,0,2.6,5.3,25.382,25.382,0,0,0,11.612,10.542,21.451,21.451,0,0,0,15.557.687,9.136,9.136,0,0,0,2.61-1.33c2.8-2.153,3.235-6.137,3.44-9.665l.7-12.362a6.223,6.223,0,0,0-.095-1.955,7.116,7.116,0,0,0-1.433-2.373,29.567,29.567,0,0,1-5.063-10.062,51.159,51.159,0,0,0-2.207-7.633c-.665-1.455-1.583-2.785-2.3-4.215a40.321,40.321,0,0,1-2.888-9.91q-.972-4.415-2.325-8.75a14.718,14.718,0,0,0-2.018-4.485,15.25,15.25,0,0,0-9.61-4.75,11.075,11.075,0,0,0-5.205-.25,11.5,11.5,0,0,0-4.865,3.472" transform="translate(-199.703 -210.833)" fill="#3f3d56"/>
        <path id="Path_2146" data-name="Path 2146" d="M403.438,407.645a18.627,18.627,0,0,1-1.045-13.375c3.1.79,3.955,5.363,7.12,6.177.468.117.965.143,1.44.25a8.123,8.123,0,0,1,4.928,4.35,23.405,23.405,0,0,1,3.29,10,16.75,16.75,0,0,1-2.372,10.165c.08-.118-5.538-5.878-6-6.47q-1.48-1.732-2.895-3.535a25.377,25.377,0,0,1-2.665-3.582c-.27-.5-.325-1.093-.563-1.63C404.293,409.188,403.831,408.427,403.438,407.645Z" transform="translate(-216.814 -216.478)" fill="#cb8c8e"/>
        <path id="Path_2147" data-name="Path 2147" d="M368.271,456.725a34.558,34.558,0,0,1-9.833,20.067A5.93,5.93,0,0,1,354.023,479c-1.827-.19-3.085-1.85-4.39-3.165a85.09,85.09,0,0,0-8.17-5.86,41.614,41.614,0,0,1-3.86-3.615,89.878,89.878,0,0,1-10.867-12.52,71.4,71.4,0,0,0-5.3-7.718c-1.637-1.86-3.608-3.392-5.333-5.165a12.391,12.391,0,0,1-3.655-6.328c-.435-2.577-3.165-4.25-4.88-6.232a21.958,21.958,0,0,1-4.785-18.335,4.207,4.207,0,0,1,2.182-3.393,3.533,3.533,0,0,1,1.63-.1c3.338.468,5.815,3.235,7.973,5.83a48.793,48.793,0,0,1,4.073,5.378,47.763,47.763,0,0,1,5.015,14.15c.687,2.855,3.535,4.968,5.585,7.07l5.143,5.275c1.225,1.25,2.452,2.523,3.8,3.655a49.355,49.355,0,0,0,12.5,7.118,15.857,15.857,0,0,1,1.75-4.05,5.25,5.25,0,0,1,3.542-2.372,7.948,7.948,0,0,1,5.538,2.373l6.05,4.75C367.876,456.018,368.318,456.318,368.271,456.725Z" transform="translate(-196.066 -219.036)" fill="#fbbebe"/>
        <path id="Path_2148" data-name="Path 2148" d="M391.348,409.819a8.752,8.752,0,0,1,1.732,2.738,17.968,17.968,0,0,1,1.765,8.93,26.653,26.653,0,0,1-1.092,4.88l-1.882,6.477a301.89,301.89,0,0,1-9.815,29.8c-3.25-4.215-8.937-5.5-13.557-8.122a3.82,3.82,0,0,1-1.2-.925,3.4,3.4,0,0,1-.592-2.025,15.127,15.127,0,0,1,1.25-5.648c2.88-7.727,6.872-15.272,7.34-23.5a44.221,44.221,0,0,1,.293-4.58,13,13,0,0,1,6.09-8.78,8.5,8.5,0,0,1,9.665.75Z" transform="translate(-209.518 -219.33)" opacity="0.1"/>
        <path id="Path_2149" data-name="Path 2149" d="M390.348,407.5a8.838,8.838,0,0,1,1.732,2.737,17.964,17.964,0,0,1,1.765,8.93,26.5,26.5,0,0,1-1.092,4.942l-1.883,6.478a301.885,301.885,0,0,1-9.815,29.805c-3.25-4.208-8.938-5.5-13.558-8.123a3.8,3.8,0,0,1-1.195-.918,3.442,3.442,0,0,1-.592-2.025,15.143,15.143,0,0,1,1.25-5.655c2.88-7.728,6.873-15.265,7.34-23.5a43.935,43.935,0,0,1,.292-4.573,12.979,12.979,0,0,1,6.092-8.788,8.471,8.471,0,0,1,9.663.688Z" transform="translate(-209.309 -218.853)" fill="#f4f6fb"/>
        <path id="Path_2150" data-name="Path 2150" d="M368.1,346.8a10.945,10.945,0,0,1,2.285,6.423A42.107,42.107,0,0,1,369.225,371a21.406,21.406,0,0,1-11.273,13.273c7.657,1.25,16.75,2.018,21.943-3.75a16.692,16.692,0,0,1,3.125-3.29c5.5-3.465,12.475,5.67,18.437,3.078,3.955-1.708,4.25-7.055,3.955-11.327l-1.083-15.82c-.552-8.075-1.25-16.61-5.885-23.222a34.286,34.286,0,0,0-17.97-11.865c-5-1.583-10.567-2.617-15.432-.617-6.21,2.547-18.192,12.72-18.122,20.25C347.055,348.873,362.87,341.278,368.1,346.8Z" transform="translate(-205.383 -200.186)" fill="#3f3d56"/>
        <path id="Path_2151" data-name="Path 2151" d="M375.384,428.049a7.917,7.917,0,0,0,2.625-.34c1.345-.5,2.372-1.75,3.82-1.953.727-.1,1.66,0,1.978-.687a2.755,2.755,0,0,0,.1-1c.11-1.922,2.522-2.587,4.152-3.615a12.159,12.159,0,0,0,2.7-2.6l5.615-6.637a4.209,4.209,0,0,1,2.135-1.622,3.813,3.813,0,0,1,2.778.79,21.7,21.7,0,0,1,9.587,20.122,3.409,3.409,0,0,1-.412,1.542c-.878,1.378-2.943,1.045-4.5,1.535-2.982.932-3.893,4.8-6.447,6.6-1.148.79-2.562,1.13-3.678,1.953a25.036,25.036,0,0,0-2.982,3.377,18.832,18.832,0,0,1-6,3.955l-6.62,3.228a26.015,26.015,0,0,1-4.058,1.693,25.56,25.56,0,0,1-7.372.625l-4.847-.063a2.854,2.854,0,0,1-1.583-.317,2.64,2.64,0,0,1-.7-.79,17.4,17.4,0,0,1-2.113-12.98,25.834,25.834,0,0,1,5.07-11.477C366.889,427.011,372.251,428.112,375.384,428.049Z" transform="translate(-207.957 -219.685)" fill="#3f3d56"/>
        <path id="Path_2152" data-name="Path 2152" d="M342.959,296.514a3.6,3.6,0,0,1,1.828-3.845l6-4.518-1.235-1.8,2.317-1.985a1.685,1.685,0,0,0-1.708-.665c.365-2.445-1.725-4.5-3.71-5.965a26.893,26.893,0,0,0-13.652-5.75c-2.428-.157-4.865.19-7.292,0-3.275-.205-6.455-1.313-9.737-1.44a8.677,8.677,0,0,0-8.342,4.115,39.015,39.015,0,0,0-1.107,4.065,20.076,20.076,0,0,1-5.823,7.2c-2.223,2.19-4.288,5.125-3.67,8.177a10.783,10.783,0,0,0,1.13,2.808l12.25,23.675a5.452,5.452,0,0,1,4.12-2.84,25.59,25.59,0,0,1,6,.918,9.5,9.5,0,0,0,8.155-3.165c2.7-3.118,3.362-11.075,8.06-11.865,1.66-.285,4.32,1.81,5.767.98C344.026,303.687,342.991,298.27,342.959,296.514Z" transform="translate(-194.897 -190.637)" fill="#3f3d56"/>
        <g id="Group_26" data-name="Group 26" transform="translate(141.502 116.485)" opacity="0.1">
          <path id="Path_2153" data-name="Path 2153" d="M362.692,381.945a21.485,21.485,0,0,0,11.272-13.28,42,42,0,0,0,1.155-17.782,10.892,10.892,0,0,0-2.285-6.423c-5.22-5.537-21.04,2.073-21.183-9.047-.088-6.415,8.637-14.75,15.027-18.652a14.477,14.477,0,0,0-1.685.563c-6.21,2.547-18.192,12.727-18.122,20.25.143,11.122,15.962,3.535,21.183,9.057a10.925,10.925,0,0,1,2.285,6.423,42.072,42.072,0,0,1-1.155,17.773,21.44,21.44,0,0,1-11.273,13.28c6.75,1.093,14.625,1.82,19.948-1.985A38.322,38.322,0,0,1,362.692,381.945Z" transform="translate(-346.872 -316.76)"/>
          <path id="Path_2154" data-name="Path 2154" d="M398.158,390.04a7.017,7.017,0,0,0-1.528,1.375c4.848.318,10.362,5.965,15.218,3.853A5.455,5.455,0,0,0,414,393.575C408.685,393.37,402.88,387.065,398.158,390.04Z" transform="translate(-357.275 -331.91)"/>
        </g>
        <g id="Group_27" data-name="Group 27" transform="translate(102.132 89.495)" opacity="0.1">
          <path id="Path_2155" data-name="Path 2155" d="M363.462,283.155c-.117-.175-.25-.348-.372-.515a4.484,4.484,0,0,1-.04.545A1.769,1.769,0,0,1,363.462,283.155Z" transform="translate(-310.888 -282.64)"/>
          <path id="Path_2156" data-name="Path 2156" d="M352.144,287.355a1.685,1.685,0,0,0-1.708-.665,3.834,3.834,0,0,0-.157-1.78l-1.637,1.4,1.235,1.788-6,4.525a3.6,3.6,0,0,0-1.828,3.845c0,1.75,1.068,7.175-.64,8.147-1.44.83-4.105-1.265-5.75-.98-4.7.79-5.355,8.7-8.06,11.865a9.5,9.5,0,0,1-8.155,3.165,25.6,25.6,0,0,0-6-.91,5.483,5.483,0,0,0-4.13,2.84l-12.227-23.627v.175a11.083,11.083,0,0,0,1.14,2.807l12.25,23.627a5.48,5.48,0,0,1,4.13-2.84,25.559,25.559,0,0,1,6,.917,9.5,9.5,0,0,0,8.155-3.165c2.705-3.118,3.363-11.075,8.06-11.865,1.653-.285,4.32,1.813,5.75.98,1.707-.973.672-6.39.64-8.147a4.818,4.818,0,0,1,.348-2.372,4.748,4.748,0,0,1,1.48-1.5l6-4.517-1.235-1.795Z" transform="translate(-297.087 -283.115)"/>
        </g>
        <path id="Path_2157" data-name="Path 2157" d="M277.41,499.939c-.79,3.378-1.29,6.825-2.372,10.125-.475,1.487-1.06,2.935-1.528,4.422-.42,1.353-.735,2.72-1.06,4.1l-1.29,5.537a2.526,2.526,0,0,0,1.963-1.107,7.5,7.5,0,0,0,.972-2.12l2.16-6.423,1.583-4.75c2.25-6.685,4.5-13.383,6.21-20.233.427-1.693.79-3.385,1.162-5.1.143-.657,1.178-4.317.117-4-.75.212-2.025,3.552-2.372,4.28-.79,1.455-1.44,2.943-2.08,4.452a65.9,65.9,0,0,0-3.465,10.82Z" transform="translate(-189.548 -234.462)" opacity="0.1"/>
        <path id="Path_2158" data-name="Path 2158" d="M330.042,392.839s-3.575-1.29-4.453.25c0,0,6.5,2.372,7.815,5.79,0,0,1.678-1.725-.617-3.915l-.427-3.212Z" transform="translate(-200.923 -215.947)" fill="#00a66c"/>
        <path id="Path_2159" data-name="Path 2159" d="M337.126,386.52s.2-1.63-.625-1.8a5.043,5.043,0,0,0-5.5,6.328c.895,6.177,7.332,3.86,7.332,3.86l2.825-3.29a4.875,4.875,0,0,0-3.353-5.41Z" transform="translate(-202.074 -214.475)" fill="#f44336"/>
        <path id="Path_2160" data-name="Path 2160" d="M332.272,382.76a6.5,6.5,0,0,0-2.5,8.615l1.827-1.06S333.884,384.967,332.272,382.76Z" transform="translate(-201.705 -214.071)" opacity="0.1"/>
        <path id="Path_2161" data-name="Path 2161" d="M332.058,382.6a6.5,6.5,0,0,0-2.5,8.615l1.415.83S333.68,384.808,332.058,382.6Z" transform="translate(-201.666 -214.038)" fill="#f44336"/>
        <path id="Path_2162" data-name="Path 2162" d="M341.128,390.575a4.2,4.2,0,0,0,1.487,2.153c1.14.79-1.13,2.617-1.13,2.617s-3.07,3.5-5.972,1.787c-1.733-2.917-.428-3.322-.428-3.322S338.708,389.833,341.128,390.575Z" transform="translate(-202.809 -215.686)" opacity="0.1"/>
        <path id="Path_2163" data-name="Path 2163" d="M341.141,390.785a4.211,4.211,0,0,0,1.487,2.153c1.13.79-1.14,2.617-1.14,2.617s-3.06,3.5-5.972,1.788-.428-3.315-.428-3.315S338.681,390.043,341.141,390.785Z" transform="translate(-202.704 -215.728)" fill="#f44336"/>
        <path id="Path_2164" data-name="Path 2164" d="M328.2,382.084s-3.59,1.25-3.3,3c0,0,6.55-2.25,9.72-.42,0,0,.213-2.372-2.943-2.657l-2.372-2.23Z" transform="translate(-200.775 -213.453)" fill="#5f3839"/>
        <path id="Path_2165" data-name="Path 2165" d="M329.921,372.893s-.87-1.393-1.582-1a5.052,5.052,0,0,0-.3,8.36c4.565,4.225,8.132-1.582,8.132-1.582l.08-4.335a4.87,4.87,0,0,0-6-2.088Z" transform="translate(-200.976 -211.773)" fill="#f44336"/>
        <path id="Path_2166" data-name="Path 2166" d="M323.885,373.49a6.485,6.485,0,0,0,3.5,8.265l.75-1.97S326.51,374.2,323.885,373.49Z" transform="translate(-200.476 -212.133)" opacity="0.1"/>
        <path id="Path_2167" data-name="Path 2167" d="M323.585,373.5a6.5,6.5,0,0,0,3.5,8.265l1.623-.25S326.235,374.2,323.585,373.5Z" transform="translate(-200.413 -212.136)" fill="#f44336"/>
        <path id="Path_2168" data-name="Path 2168" d="M335.8,373.41a4.25,4.25,0,0,0,2.515.75c1.393-.087.79,2.75.79,2.75s-.19,4.643-3.52,5.15c-3.165-1.177-2.42-2.31-2.42-2.31S333.455,374.36,335.8,373.41Z" transform="translate(-202.493 -212.118)" opacity="0.1"/>
        <path id="Path_2169" data-name="Path 2169" d="M336.007,373.51a4.213,4.213,0,0,0,2.515.75c1.393-.087.79,2.75.79,2.75s-.182,4.642-3.5,5.15-2.42-2.31-2.42-2.31S333.66,374.46,336.007,373.51Z" transform="translate(-202.523 -212.138)" fill="#f44336"/>
        <path id="Path_2170" data-name="Path 2170" d="M312.56,384.475s1.14-1,1.765.317l-.53,2.943-3.268,29.14-2.087,3.82Z" transform="translate(-197.338 -214.356)" fill="#00a66c"/>
        <path id="Path_2171" data-name="Path 2171" d="M294.275,277.62,280.59,322.07l1.25.687,13.573-44.847Z" transform="translate(-169.37 -114.278)" fill="#00a66c"/>
        <path id="Path_2172" data-name="Path 2172" d="M318.7,401.48s-3.07,11.6-6.455,16.23a12.128,12.128,0,0,0-2.75,8.463l1.107.34,9.1-24.227Z" transform="translate(-197.543 -217.983)" fill="#00a66c"/>
        <path id="Path_2173" data-name="Path 2173" d="M302.142,290.19l-19.522,34,.932.5,20.13-34.25Z" transform="translate(-169.795 -116.906)" fill="#00a66c"/>
        <path id="Path_2174" data-name="Path 2174" d="M306.325,301.54,282.01,326.882l.727.94,24.622-25.715Z" transform="translate(-169.668 -119.278)" fill="#00a66c"/>
        <path id="Path_2175" data-name="Path 2175" d="M336.378,401.986s-.325-1.423-1.415-1.155-22.582,24.132-22.582,24.132l.91.713Z" transform="translate(-198.163 -217.842)" fill="#00a66c"/>
        <path id="Path_2176" data-name="Path 2176" d="M311.4,382.053s-3.67,1-3.5,2.75c0,0,6.685-1.787,9.72.25,0,0,.38-2.372-2.75-2.855l-2.2-2.372Z" transform="translate(-197.227 -213.466)" fill="#00a66c"/>
        <path id="Path_2177" data-name="Path 2177" d="M313.772,372.962s-.79-1.448-1.543-1.115a5.042,5.042,0,0,0-.885,8.312c4.25,4.525,8.227-1.045,8.227-1.045l.42-4.32a4.875,4.875,0,0,0-5.852-2.5Z" transform="translate(-197.544 -211.78)" fill="#f44336"/>
        <path id="Path_2178" data-name="Path 2178" d="M307.711,373.09a6.483,6.483,0,0,0,2.9,8.488l.885-1.915S310.3,373.967,307.711,373.09Z" transform="translate(-197.062 -212.05)" opacity="0.1"/>
        <path id="Path_2179" data-name="Path 2179" d="M307.441,373.08a6.483,6.483,0,0,0,2.9,8.487l1.637-.128S310.036,373.957,307.441,373.08Z" transform="translate(-197.004 -212.048)" fill="#f44336"/>
        <path id="Path_2180" data-name="Path 2180" d="M319.545,373.88a4.232,4.232,0,0,0,2.46.885c1.393,0,.57,2.793.57,2.793s-.5,4.62-3.86,4.9c-3.092-1.393-2.25-2.475-2.25-2.475S317.142,374.663,319.545,373.88Z" transform="translate(-198.993 -212.215)" opacity="0.1"/>
        <path id="Path_2181" data-name="Path 2181" d="M319.738,374a4.272,4.272,0,0,0,2.46.918c1.393,0,.57,2.792.57,2.792s-.5,4.612-3.86,4.888-2.25-2.467-2.25-2.467S317.333,374.79,319.738,374Z" transform="translate(-199.019 -212.24)" fill="#f44336"/>
        <path id="Path_2182" data-name="Path 2182" d="M323.221,373.418s-3.67,1-3.5,2.75c0,0,6.682-1.788,9.72.25,0,0,.387-2.373-2.75-2.848l-2.2-2.372Z" transform="translate(-199.693 -211.658)" fill="#00a66c"/>
        <path id="Path_2183" data-name="Path 2183" d="M325.591,364.352s-.79-1.448-1.542-1.115a5.043,5.043,0,0,0-.885,8.313c4.25,4.525,8.227-1.045,8.227-1.045l.42-4.32a4.875,4.875,0,0,0-5.853-2.5Z" transform="translate(-200.017 -209.98)" fill="#f44336"/>
        <path id="Path_2184" data-name="Path 2184" d="M319.531,364.48a6.483,6.483,0,0,0,2.9,8.488l.885-1.915S322.149,365.358,319.531,364.48Z" transform="translate(-199.532 -210.25)" opacity="0.1"/>
        <path id="Path_2185" data-name="Path 2185" d="M319.259,364.47a6.5,6.5,0,0,0,2.9,8.487l1.637-.135S321.856,365.348,319.259,364.47Z" transform="translate(-199.477 -210.248)" fill="#f44336"/>
        <path id="Path_2186" data-name="Path 2186" d="M331.373,365.27a4.2,4.2,0,0,0,2.453.91c1.393,0,.57,2.792.57,2.792s-.5,4.62-3.86,4.9c-3.085-1.4-2.25-2.475-2.25-2.475S328.961,366.053,331.373,365.27Z" transform="translate(-201.464 -210.416)" opacity="0.1"/>
        <path id="Path_2187" data-name="Path 2187" d="M331.566,365.38a4.2,4.2,0,0,0,2.453.91c1.392,0,.57,2.792.57,2.792s-.5,4.62-3.86,4.9-2.25-2.475-2.25-2.475S329.153,366.163,331.566,365.38Z" transform="translate(-201.489 -210.438)" fill="#f44336"/>
        <path id="Path_2188" data-name="Path 2188" d="M332.963,385.71s-3.575-1.29-4.453.25c0,0,6.5,2.373,7.823,5.79,0,0,1.677-1.725-.618-3.915l-.427-3.212Z" transform="translate(-201.533 -214.458)" fill="#00a66c"/>
        <path id="Path_2189" data-name="Path 2189" d="M340.036,379.359s.2-1.63-.625-1.8a5.077,5.077,0,0,0-5.538,6.327c.847,6.177,7.34,3.86,7.34,3.86l2.825-3.29a4.885,4.885,0,0,0-3.363-5.41Z" transform="translate(-202.674 -212.979)" fill="#f44336"/>
        <path id="Path_2190" data-name="Path 2190" d="M335.229,375.64a6.48,6.48,0,0,0-2.5,8.613l1.82-1.06S336.809,377.847,335.229,375.64Z" transform="translate(-202.327 -212.583)" opacity="0.1"/>
        <path id="Path_2191" data-name="Path 2191" d="M334.984,375.48a6.485,6.485,0,0,0-2.5,8.612l1.415.83S336.6,377.688,334.984,375.48Z" transform="translate(-202.275 -212.55)" fill="#f44336"/>
        <path id="Path_2192" data-name="Path 2192" d="M344.049,383.456a4.27,4.27,0,0,0,1.487,2.152c1.14.79-1.13,2.617-1.13,2.617s-3.07,3.5-5.973,1.788c-1.725-2.91-.427-3.323-.427-3.323S341.627,382.706,344.049,383.456Z" transform="translate(-203.42 -214.197)" opacity="0.1"/>
        <path id="Path_2193" data-name="Path 2193" d="M344.024,383.665a4.253,4.253,0,0,0,1.487,2.16c1.14.79-1.133,2.61-1.133,2.61s-3.07,3.5-5.972,1.8-.427-3.323-.427-3.323S341.6,382.923,344.024,383.665Z" transform="translate(-203.31 -214.241)" fill="#f44336"/>
        <path id="Path_2194" data-name="Path 2194" d="M340.215,397.964s-3.575-1.29-4.445.25c0,0,6.5,2.372,7.815,5.79,0,0,1.678-1.732-.617-3.915l-.427-3.22Z" transform="translate(-203.051 -217.022)" fill="#00a66c"/>
        <path id="Path_2195" data-name="Path 2195" d="M347.3,391.6s.2-1.63-.625-1.8a5.038,5.038,0,0,0-5.5,6.328c.895,6.185,7.332,3.867,7.332,3.867l2.825-3.3a4.877,4.877,0,0,0-3.362-5.4Z" transform="translate(-204.207 -215.545)" fill="#f44336"/>
        <path id="Path_2196" data-name="Path 2196" d="M342.45,387.88a6.485,6.485,0,0,0-2.5,8.623l1.82-1.06S344.072,390.087,342.45,387.88Z" transform="translate(-203.84 -215.141)" opacity="0.1"/>
        <path id="Path_2197" data-name="Path 2197" d="M342.225,387.72a6.485,6.485,0,0,0-2.5,8.615l1.415.83S343.845,389.92,342.225,387.72Z" transform="translate(-203.788 -215.108)" fill="#f44336"/>
        <path id="Path_2198" data-name="Path 2198" d="M351.277,395.7a4.262,4.262,0,0,0,1.48,2.16c1.14.79-1.13,2.61-1.13,2.61s-3.07,3.5-5.973,1.8c-1.725-2.917-.427-3.323-.427-3.323S348.9,394.953,351.277,395.7Z" transform="translate(-204.93 -216.756)" opacity="0.1"/>
        <path id="Path_2199" data-name="Path 2199" d="M351.273,395.915a4.209,4.209,0,0,0,1.487,2.152c1.14.79-1.13,2.617-1.13,2.617s-3.07,3.5-5.972,1.788-.428-3.323-.428-3.323S348.853,395.173,351.273,395.915Z" transform="translate(-204.823 -216.801)" fill="#f44336"/>
        <path id="Path_2200" data-name="Path 2200" d="M341.132,402.074s-3.575-1.29-4.453.25c0,0,6.5,2.372,7.815,5.79,0,0,1.685-1.732-.61-3.915l-.435-3.22Z" transform="translate(-203.243 -217.882)" fill="#00a66c"/>
        <path id="Path_2201" data-name="Path 2201" d="M348.219,395.711s.2-1.622-.625-1.795a5.04,5.04,0,0,0-5.5,6.327c.885,6.185,7.332,3.867,7.332,3.867l2.825-3.29a4.875,4.875,0,0,0-3.355-5.41Z" transform="translate(-204.394 -216.399)" fill="#f44336"/>
        <path id="Path_2202" data-name="Path 2202" d="M343.367,392a6.468,6.468,0,0,0-2.483,8.613l1.828-1.06S344.979,394.2,343.367,392Z" transform="translate(-204.027 -216.003)" opacity="0.1"/>
        <path id="Path_2203" data-name="Path 2203" d="M343.148,391.83a6.5,6.5,0,0,0-2.5,8.615l1.415.838S344.793,394.038,343.148,391.83Z" transform="translate(-203.983 -215.968)" fill="#f44336"/>
        <path id="Path_2204" data-name="Path 2204" d="M352.22,399.805a4.249,4.249,0,0,0,1.488,2.16c1.14.79-1.133,2.61-1.133,2.61s-3.07,3.5-5.972,1.795c-1.733-2.917-.427-3.323-.427-3.323S349.8,399.063,352.22,399.805Z" transform="translate(-205.128 -217.616)" opacity="0.1"/>
        <path id="Path_2205" data-name="Path 2205" d="M352.194,400.026a4.207,4.207,0,0,0,1.487,2.152c1.14.79-1.14,2.617-1.14,2.617s-3.06,3.5-5.965,1.788-.435-3.323-.435-3.323S349.782,399.281,352.194,400.026Z" transform="translate(-205.017 -217.661)" fill="#f44336"/>
        <path id="Path_2206" data-name="Path 2206" d="M319.113,399.387s-3.575-1.3-4.453.25c0,0,6.5,2.373,7.815,5.79,0,0,1.677-1.725-.618-3.915l-.427-3.22Z" transform="translate(-198.64 -217.315)" fill="#00a66c"/>
        <path id="Path_2207" data-name="Path 2207" d="M326.2,393.021s.2-1.622-.625-1.8a5.043,5.043,0,0,0-5.5,6.328c.9,6.177,7.332,3.867,7.332,3.867l2.825-3.29a4.875,4.875,0,0,0-3.352-5.41Z" transform="translate(-199.792 -215.839)" fill="#f44336"/>
        <path id="Path_2208" data-name="Path 2208" d="M321.351,389.31a6.472,6.472,0,0,0-2.468,8.615l1.828-1.06S322.966,391.518,321.351,389.31Z" transform="translate(-199.432 -215.441)" opacity="0.1"/>
        <path id="Path_2209" data-name="Path 2209" d="M321.131,389.15a6.482,6.482,0,0,0-2.5,8.612l1.415.79S322.791,391.357,321.131,389.15Z" transform="translate(-199.384 -215.408)" fill="#f44336"/>
        <path id="Path_2210" data-name="Path 2210" d="M330.2,397.115a4.214,4.214,0,0,0,1.487,2.16c1.14.79-1.13,2.617-1.13,2.617s-3.07,3.5-5.973,1.787c-1.732-2.92-.427-3.323-.427-3.323S327.778,396.373,330.2,397.115Z" transform="translate(-200.524 -217.053)" opacity="0.1"/>
        <path id="Path_2211" data-name="Path 2211" d="M330.141,397.335a4.209,4.209,0,0,0,1.487,2.153c1.13.79-1.14,2.618-1.14,2.618s-3.06,3.5-5.972,1.787-.428-3.322-.428-3.322S327.769,396.593,330.141,397.335Z" transform="translate(-200.404 -217.098)" fill="#f44336"/>
        <path id="Path_2212" data-name="Path 2212" d="M321.583,385.917s-3.582-1.3-4.453.25c0,0,6.5,2.372,7.815,5.79,0,0,1.677-1.725-.618-3.915l-.427-3.22Z" transform="translate(-199.155 -214.5)" fill="#00a66c"/>
        <path id="Path_2213" data-name="Path 2213" d="M328.659,379.513s.2-1.582-.625-1.795a5.057,5.057,0,0,0-5.538,6.328c.855,6.177,7.332,3.867,7.332,3.867l2.825-3.29a4.885,4.885,0,0,0-3.363-5.41Z" transform="translate(-200.3 -213.009)" fill="#f44336"/>
        <path id="Path_2214" data-name="Path 2214" d="M323.811,375.84a6.483,6.483,0,0,0-2.5,8.615l1.827-1.06S325.434,378.048,323.811,375.84Z" transform="translate(-199.944 -212.625)" opacity="0.1"/>
        <path id="Path_2215" data-name="Path 2215" d="M323.6,375.68a6.475,6.475,0,0,0-2.5,8.615l1.407.83S325.212,377.887,323.6,375.68Z" transform="translate(-199.9 -212.59)" fill="#f44336"/>
        <path id="Path_2216" data-name="Path 2216" d="M332.668,383.645a4.251,4.251,0,0,0,1.487,2.16c1.14.79-1.13,2.618-1.13,2.618s-3.07,3.5-5.973,1.787c-1.732-2.917-.427-3.322-.427-3.322S330.238,382.9,332.668,383.645Z" transform="translate(-201.041 -214.236)" opacity="0.1"/>
        <path id="Path_2217" data-name="Path 2217" d="M332.633,383.867a4.208,4.208,0,0,0,1.487,2.153c1.14.79-1.13,2.617-1.13,2.617s-3.07,3.5-5.972,1.787-.428-3.322-.428-3.322S330.213,383.165,332.633,383.867Z" transform="translate(-200.926 -214.286)" fill="#f44336"/>
        <path id="Path_2218" data-name="Path 2218" d="M307.329,406.58s9.8,1.085,15.122,18.13S311.029,429,311.029,429s-4.412.885-5.1-8.012A36.289,36.289,0,0,1,307.329,406.58Z" transform="translate(-196.812 -219.051)" fill="#fbbebe"/>
        <rect id="Rectangle_148" data-name="Rectangle 148" width="3.655" height="1.082" rx="0.217" transform="translate(108.76 201.302) rotate(-23.92)" fill="#e3e8f4"/>
        <path id="Path_2219" data-name="Path 2219" d="M253.78,337.137,252.2,335.7c-5.68-5.22-9.438-8.6-9.438-12.83a6,6,0,0,1,6.075-6.107,6.525,6.525,0,0,1,4.968,2.333,6.5,6.5,0,0,1,4.967-2.333,6,6,0,0,1,6.067,6.107c0,4.225-3.75,7.61-9.437,12.83Z" transform="translate(-183.61 -200.277)" fill="#f44336" opacity="0.1"/>
        <path id="Path_2220" data-name="Path 2220" d="M225.867,223.677l-1.582-1.448c-5.687-5.212-9.445-8.6-9.445-12.822a6,6,0,0,1,6.075-6.107,6.525,6.525,0,0,1,4.967,2.333,6.518,6.518,0,0,1,4.968-2.333,6,6,0,0,1,6.067,6.107c0,4.215-3.75,7.61-9.437,12.822Z" transform="translate(-177.775 -176.562)" fill="#f44336" opacity="0.1"/>
        <path id="Path_2221" data-name="Path 2221" d="M435.312,278.067l-1.582-1.448c-5.687-5.212-9.437-8.6-9.437-12.822a6,6,0,0,1,6.067-6.107,6.455,6.455,0,0,0,9.935,0,6,6,0,0,1,6.075,6.107c0,4.215-3.75,7.61-9.437,12.822Z" transform="translate(-221.551 -187.929)" fill="#f44336" opacity="0.1"/>
        <path id="Path_2222" data-name="Path 2222" d="M849.931,269.352a4.148,4.148,0,0,0-6.75,4.817c.792,1.162,1.622,2.295,2.42,3.37,9.75,13.155,14.792,29.125,19.143,44.9a21.213,21.213,0,0,1,.878,11.865A74.006,74.006,0,0,0,863.6,303.4a191.226,191.226,0,0,0-10.937-29.187,26.19,26.19,0,0,0-2.737-4.858Z" transform="translate(-529.625 -234.284)" fill="#f44336" opacity="0.5"/>
        <path id="Path_2223" data-name="Path 2223" d="M770.58,304.8c-6.573-.2-7.4,9.768-.862,10.283,1.717.135,3.447.175,5.092.222,20.123.545,39.152,7.848,57.432,15.693,4.5,1.923,9.2,4.082,11.865,8.2A86.387,86.387,0,0,0,813.465,317.5a226.558,226.558,0,0,0-36.132-11.675A31.285,31.285,0,0,0,770.58,304.8Z" transform="translate(-513.499 -242.067)" fill="#f44336"/>
        <path id="Path_2224" data-name="Path 2224" d="M773.612,335.773c-4.145.157-3.21,6.05.965,6.09,1.093,0,2.182-.04,3.228-.087,12.655-.515,25.69,3,38.3,6.842a19.547,19.547,0,0,1,8.615,4.335,69.143,69.143,0,0,0-22.385-11.5,170.043,170.043,0,0,0-24.362-5.355,22.329,22.329,0,0,0-4.358-.333Z" transform="translate(-514.693 -248.548)" fill="#f44336" opacity="0.2"/>
        <path id="Path_2225" data-name="Path 2225" d="M881.187,460.172c1.178,3.955,6.652,1.583,5.655-2.445-.249-1.06-.585-2.105-.885-3.1-3.645-12.172-3.473-25.627-2.87-38.8a19.554,19.554,0,0,1,2.057-9.42,69.11,69.11,0,0,0-5.575,24.52,171.009,171.009,0,0,0,.855,24.922,22.139,22.139,0,0,0,.762,4.32Z" transform="translate(-537.341 -263.311)" fill="#f44336" opacity="0.5"/>
        <path id="Path_2226" data-name="Path 2226" d="M783.359,262.831c-2.5-.435-2.69,3.2-.2,3.75.658.142,1.313.25,1.938.365a71.931,71.931,0,0,1,22,8.945,11.972,11.972,0,0,1,4.6,3.685,42.041,42.041,0,0,0-11.913-9.7,103.334,103.334,0,0,0-13.86-6.313A13.045,13.045,0,0,0,783.359,262.831Z" transform="translate(-516.878 -233.291)" fill="#f44336" opacity="0.2"/>
        <path id="Path_2227" data-name="Path 2227" d="M734.372,381.494c-6.328,3.268-.98,12.22,5.538,9.25,1.7-.79,3.37-1.645,4.952-2.475,19.373-10.045,41.875-13.75,64-16.61,5.435-.7,11.225-1.305,16.25.847a109.814,109.814,0,0,0-42.365-2.547,278,278,0,0,0-41.378,8.9A37.1,37.1,0,0,0,734.372,381.494Z" transform="translate(-506.458 -255.517)" fill="#f44336"/>
        <path id="Path_2228" data-name="Path 2228" d="M757.614,420.1c-4.555,4.25,2.555,9.27,7.332,5.19,1.25-1.067,2.445-2.2,3.582-3.267,13.882-13.027,32.225-22.3,50.5-30.847,4.485-2.1,22.937-4.25,27.857-4.12-12.863,1.148-39.145,5.165-50.827,10.48A282.087,282.087,0,0,0,762.9,416.135a35.5,35.5,0,0,0-5.287,3.96Z" transform="translate(-511.602 -259.261)" fill="#f44336" opacity="0.5"/>
        <path id="Path_2229" data-name="Path 2229" d="M799.053,478.6c-1.328,6.075,7.372,6.163,8.985.088.42-1.582.79-3.165,1.082-4.75,4.018-18.58,13.835-36.615,24-54.017,2.5-4.27,16.46-16.522,20.565-19.23-9.925,8.28-29.257,26.53-35.855,37.53a280.745,280.745,0,0,0-16.69,34.107A36.276,36.276,0,0,0,799.053,478.6Z" transform="translate(-520.542 -262.116)" fill="#f44336"/>
        <path id="Path_2230" data-name="Path 2230" d="M879.218,228.361c-3.1-6.327-11.967-1.122-9.152,5.363.735,1.7,1.583,3.362,2.372,4.943,9.555,19.322,12.838,41.677,15.29,63.642.61,5.4,1.115,11.138-1.068,16.1a110.374,110.374,0,0,0,3.165-41.922,275.838,275.838,0,0,0-8.1-41.13A36.9,36.9,0,0,0,879.218,228.361Z" transform="translate(-535.299 -225.494)" fill="#f44336"/>
        <path id="Path_2231" data-name="Path 2231" d="M817.325,241.2a1.177,1.177,0,0,0,.538.157c.34,0,.585-.347.728-.665.79-1.678.332-3.86,1.518-5.282A18.181,18.181,0,0,1,823,240.267l4.558-1.407a6.749,6.749,0,0,1-.862,5.212,7.051,7.051,0,0,1,2.142,1.455,2.373,2.373,0,0,1,.562,2.413,11.6,11.6,0,0,1-3.22.318,21.054,21.054,0,0,1-.34,5.98,1.117,1.117,0,0,1-.388.79,1.09,1.09,0,0,1-1.115-.19,10.553,10.553,0,0,1-3.75-3.955L818.9,254.86a1.75,1.75,0,0,1-.792,1,1.2,1.2,0,0,1-1.415-.482,3.709,3.709,0,0,1-.5-1.535l-.633-3.852a.945.945,0,0,0-.2-.545,1,1,0,0,0-.641-.135q-2.372-.07-4.817-.047c-.278-.855.577-1.652,1.392-2s1.8-.633,2.215-1.433c.838-1.623-1.337-3.882-.412-5.292C814.17,238.885,815.925,240.5,817.325,241.2Z" transform="translate(-522.829 -227.568)" fill="#f44336"/>
        <path id="Path_2232" data-name="Path 2232" d="M925.983,269.316a4.15,4.15,0,0,1,6.75,4.818c-.79,1.162-1.583,2.295-2.42,3.37-9.751,13.155-14.793,29.125-19.14,44.9a21.2,21.2,0,0,0-.877,11.865,74,74,0,0,1,2.017-30.912,191.179,191.179,0,0,1,10.94-29.187A26.566,26.566,0,0,1,925.983,269.316Z" transform="translate(-543.632 -234.248)" fill="#f44336" opacity="0.5"/>
        <path id="Path_2233" data-name="Path 2233" d="M990.86,304.8c6.573-.2,7.4,9.768.862,10.283-1.718.135-3.45.175-5.095.222-20.122.545-39.153,7.848-57.432,15.693-4.5,1.923-9.2,4.082-11.865,8.2a86.4,86.4,0,0,1,30.642-21.7A226.313,226.313,0,0,1,984.1,305.822a31.289,31.289,0,0,1,6.755-1.02Z" transform="translate(-545.294 -242.067)" fill="#f44336"/>
        <path id="Path_2234" data-name="Path 2234" d="M994.495,335.769c4.145.157,3.212,6.05-.965,6.09-1.093,0-2.183-.04-3.228-.088-12.7-.515-25.69,3-38.3,6.843a19.759,19.759,0,0,0-8.612,4.335,69.066,69.066,0,0,1,22.385-11.5,170.331,170.331,0,0,1,24.362-5.355,22.268,22.268,0,0,1,4.358-.325Z" transform="translate(-550.742 -248.544)" fill="#f44336" opacity="0.5"/>
        <path id="Path_2235" data-name="Path 2235" d="M990.947,262.831c2.5-.435,2.69,3.2.2,3.75-.658.142-1.313.25-1.938.365a71.917,71.917,0,0,0-22,8.945,11.98,11.98,0,0,0-4.6,3.685,42.042,42.042,0,0,1,11.912-9.7,103.322,103.322,0,0,1,13.865-6.328,13.051,13.051,0,0,1,2.562-.72Z" transform="translate(-554.754 -233.291)" fill="#f44336" opacity="0.2"/>
        <path id="Path_2236" data-name="Path 2236" d="M915.019,475.317c-.562,2.467-4,1.25-3.542-1.272.117-.657.267-1.305.41-1.923a71.634,71.634,0,0,0,.23-23.73,12,12,0,0,0-1.63-5.662,42.154,42.154,0,0,1,4.357,14.713,104.258,104.258,0,0,1,.46,15.217A13.636,13.636,0,0,1,915.019,475.317Z" transform="translate(-543.868 -270.901)" fill="#f44336" opacity="0.2"/>
        <path id="Path_2237" data-name="Path 2237" d="M986.357,452.834c1.953,3.307-2.84,3.085-4.945-.23-.552-.862-1.06-1.732-1.542-2.562-5.948-10.11-15.028-20.107-24.093-29.765a33.246,33.246,0,0,0-7.467-6.447,117.438,117.438,0,0,1,19.578,16.75c5.845,6.115,11,12.482,16.065,18.84A30.762,30.762,0,0,1,986.357,452.834Z" transform="translate(-551.769 -264.862)" fill="#f44336" opacity="0.5"/>
        <path id="Path_2238" data-name="Path 2238" d="M776.875,452.834c-1.953,3.307,2.84,3.085,4.952-.23.545-.863,1.052-1.732,1.542-2.562,5.94-10.11,14.98-20.108,24.092-29.765a33.234,33.234,0,0,1,7.468-6.448,117.4,117.4,0,0,0-19.6,16.75c-5.845,6.115-11,12.483-16.065,18.84a30.972,30.972,0,0,0-2.39,3.415Z" transform="translate(-515.846 -264.862)" fill="#f44336" opacity="0.2"/>
        <path id="Path_2239" data-name="Path 2239" d="M857.118,475.317c.563,2.467,3.955,1.25,3.542-1.272-.117-.658-.268-1.305-.413-1.923a71.641,71.641,0,0,1-.23-23.73,12.006,12.006,0,0,1,1.63-5.662,42.114,42.114,0,0,0-4.365,14.735,104.154,104.154,0,0,0-.46,15.217,13.759,13.759,0,0,0,.292,2.635Z" transform="translate(-532.627 -270.901)" fill="#f44336" opacity="0.2"/>
        <path id="Path_2240" data-name="Path 2240" d="M965.67,294.222c2.5-.435,2.682,3.212.19,3.75-.65.15-1.3.25-1.93.363a72.041,72.041,0,0,0-22.012,8.945,12.028,12.028,0,0,0-4.588,3.685,42.251,42.251,0,0,1,11.865-9.7,105.452,105.452,0,0,1,13.875-6.328,14.261,14.261,0,0,1,2.6-.71Z" transform="translate(-549.474 -239.849)" fill="#f44336" opacity="0.2"/>
        <path id="Path_2241" data-name="Path 2241" d="M938.37,232.518c2.159-1.337,3.695,1.97,1.582,3.41-.555.38-1.122.727-1.663,1.06a72.162,72.162,0,0,0-17.07,16.522,11.828,11.828,0,0,0-2.88,5.132,42.061,42.061,0,0,1,7.4-13.452,105.1,105.1,0,0,1,10.513-11.027A14.018,14.018,0,0,1,938.37,232.518Z" transform="translate(-545.506 -226.896)" fill="#f44336" opacity="0.2"/>
        <path id="Path_2242" data-name="Path 2242" d="M1023.232,381.494c6.328,3.268.98,12.22-5.538,9.25-1.708-.79-3.37-1.645-4.96-2.475-19.362-10.045-41.867-13.75-64-16.61-5.425-.7-11.215-1.305-16.25.847a109.822,109.822,0,0,1,42.365-2.547,277.942,277.942,0,0,1,41.375,8.9A37.125,37.125,0,0,1,1023.232,381.494Z" transform="translate(-548.47 -255.517)" fill="#f44336"/>
        <path id="Path_2243" data-name="Path 2243" d="M1000.725,420.1c4.555,4.25-2.555,9.27-7.332,5.19-1.25-1.067-2.445-2.2-3.583-3.267-13.88-13.027-32.225-22.3-50.5-30.847-4.485-2.1-22.938-4.25-27.865-4.12,12.869,1.148,39.155,5.165,50.837,10.48a281.316,281.316,0,0,1,33.15,18.605,35.218,35.218,0,0,1,5.286,3.962Z" transform="translate(-544.07 -259.261)" fill="#f44336" opacity="0.5"/>
        <path id="Path_2244" data-name="Path 2244" d="M944.7,485.757c.562,6.2-8.093,5.2-8.93-1.027-.212-1.63-.347-3.25-.483-4.818-1.652-18.982-9.135-38.117-17.045-56.665-1.938-4.547-14.25-18.453-18-21.657,8.82,9.445,25.722,29.97,30.847,41.717a287.705,287.705,0,0,1,12.3,35.975,35.911,35.911,0,0,1,1.31,6.475Z" transform="translate(-541.714 -262.303)" fill="#f44336"/>
        <path id="Path_2245" data-name="Path 2245" d="M959.776,241.2a1.181,1.181,0,0,1-.538.158c-.34,0-.585-.348-.728-.665-.79-1.678-.332-3.86-1.517-5.282a18.164,18.164,0,0,0-2.9,4.857l-4.557-1.407a6.748,6.748,0,0,0,.862,5.212,7.037,7.037,0,0,0-2.142,1.455,2.371,2.371,0,0,0-.563,2.413,11.606,11.606,0,0,0,3.22.318,21.063,21.063,0,0,0,.34,5.98,1.12,1.12,0,0,0,.387.79,1.091,1.091,0,0,0,1.116-.19,10.551,10.551,0,0,0,3.749-3.955l1.693,3.978a1.751,1.751,0,0,0,.79,1,1.2,1.2,0,0,0,1.415-.482,3.58,3.58,0,0,0,.5-1.535l.633-3.852a.721.721,0,0,1,.885-.735q2.372-.073,4.817-.047c.278-.855-.577-1.653-1.393-2s-1.8-.632-2.214-1.432c-.838-1.623,1.33-3.882.412-5.292C962.941,238.885,961.191,240.5,959.776,241.2Z" transform="translate(-551.615 -227.568)" fill="#f44336"/>
        <path id="Path_2246" data-name="Path 2246" d="M977.157,478.2a1.012,1.012,0,0,1-.538.157c-.34,0-.585-.34-.727-.657-.79-1.685-.333-3.868-1.518-5.285a18.031,18.031,0,0,0-2.895,4.85l-4.555-1.408a6.778,6.778,0,0,0,.862,5.22,6.9,6.9,0,0,0-2.142,1.455,2.376,2.376,0,0,0-.563,2.373,11.59,11.59,0,0,0,3.22.325,21.122,21.122,0,0,0,.34,5.98.848.848,0,0,0,1.5.578,10.556,10.556,0,0,0,3.749-3.955l1.693,4.042a1.776,1.776,0,0,0,.79,1.012,1.21,1.21,0,0,0,1.415-.5,3.546,3.546,0,0,0,.5-1.535l.632-3.852a.976.976,0,0,1,.213-.537.957.957,0,0,1,.672-.2q2.372-.055,4.818-.048c.277-.855-.578-1.645-1.393-2s-1.8-.625-2.215-1.422c-.837-1.63,1.33-3.893.413-5.293C980.314,475.886,978.559,477.509,977.157,478.2Z" transform="translate(-555.25 -277.107)" fill="#f44336" opacity="0.2"/>
        <path id="Path_2247" data-name="Path 2247" d="M1025.929,319.34a1.208,1.208,0,0,1-.538.158c-.347,0-.585-.347-.728-.665-.79-1.685-.332-3.868-1.527-5.283a18.2,18.2,0,0,0-2.9,4.858l-4.547-1.415a6.772,6.772,0,0,0,.863,5.22,6.946,6.946,0,0,0-2.142,1.455,2.371,2.371,0,0,0-.562,2.412,11.607,11.607,0,0,0,3.22.318,21.081,21.081,0,0,0,.34,5.98,1.075,1.075,0,0,0,.387.79c.333.212.793,0,1.115-.182a10.547,10.547,0,0,0,3.75-3.955l1.693,4.043a1.794,1.794,0,0,0,.75,1.013,1.219,1.219,0,0,0,1.425-.5,3.527,3.527,0,0,0,.5-1.535l.632-3.845a.947.947,0,0,1,.212-.545.983.983,0,0,1,.673-.2q2.373-.055,4.818-.048c.277-.855-.578-1.645-1.4-2s-1.8-.633-2.208-1.433c-.837-1.63,1.328-3.892.413-5.292C1029.079,317.015,1027.329,318.653,1025.929,319.34Z" transform="translate(-565.438 -243.9)" fill="#f44336"/>
        <path id="Path_2248" data-name="Path 2248" d="M829.691,501.37a1.5,1.5,0,0,1-.75.223c-.483,0-.79-.483-1.02-.918-1.075-2.372-.46-5.388-2.12-7.365a25.389,25.389,0,0,0-4.035,6.762l-6.327-1.962a9.391,9.391,0,0,0,1.2,7.25,9.66,9.66,0,0,0-3,2.032,3.3,3.3,0,0,0-.792,3.362,16.1,16.1,0,0,0,4.478.443,29.789,29.789,0,0,0,.475,8.337,1.586,1.586,0,0,0,.545,1.06c.468.292,1.075,0,1.583-.25a14.785,14.785,0,0,0,5.219-5.537l2.373,5.632a2.459,2.459,0,0,0,1.052,1.407,1.7,1.7,0,0,0,1.978-.68,4.9,4.9,0,0,0,.7-2.135l.885-5.362a1.267,1.267,0,0,1,.293-.79,1.317,1.317,0,0,1,.932-.27q3.363-.1,6.715-.07c.388-1.188-.79-2.295-1.945-2.792s-2.5-.885-3.077-2c-1.17-2.27,1.85-5.418.57-7.373C834.089,498.142,831.646,500.4,829.691,501.37Z" transform="translate(-523.432 -281.473)" fill="#f44336"/>
        <path id="Path_2249" data-name="Path 2249" d="M748.55,323.478a1.533,1.533,0,0,1-.75.223c-.475,0-.79-.483-1.012-.925-1.083-2.372-.458-5.388-2.12-7.365a25.378,25.378,0,0,0-4.065,6.8l-6.328-1.962a9.435,9.435,0,0,0,1.195,7.27,9.729,9.729,0,0,0-2.982,2.032,3.3,3.3,0,0,0-.79,3.352,16.464,16.464,0,0,0,4.485.45,29.431,29.431,0,0,0,.475,8.33,1.525,1.525,0,0,0,.545,1.06c.468.3,1.075,0,1.542-.25a14.69,14.69,0,0,0,5.22-5.538l2.372,5.633A2.522,2.522,0,0,0,747.383,344a1.7,1.7,0,0,0,1.978-.688,4.957,4.957,0,0,0,.7-2.135l.877-5.362a1.424,1.424,0,0,1,.293-.79,1.346,1.346,0,0,1,.94-.27q3.363-.095,6.715-.063c.38-1.195-.79-2.3-1.952-2.8s-2.5-.878-3.078-2c-1.162-2.25,1.86-5.417.57-7.372C752.95,320.243,750.5,322.505,748.55,323.478Z" transform="translate(-506.456 -244.288)" fill="#f44336"/>
        <path id="Path_2250" data-name="Path 2250" d="M996.823,434.646a.791.791,0,0,1-.4.117c-.25,0-.427-.25-.537-.5-.571-1.25-.251-2.855-1.123-3.907a13.576,13.576,0,0,0-2.143,3.593l-3.37-1.045a5.018,5.018,0,0,0,.632,3.86,5.225,5.225,0,0,0-1.582,1.083,1.75,1.75,0,0,0-.413,1.78,8.565,8.565,0,0,0,2.372.237,16,16,0,0,0,.251,4.43.84.84,0,0,0,.292.562c.25.158.57,0,.79-.135a7.782,7.782,0,0,0,2.767-2.942l1.25,3a1.29,1.29,0,0,0,.555.75.9.9,0,0,0,1.052-.365,2.548,2.548,0,0,0,.372-1.13l.468-2.855a.7.7,0,0,1,.157-.4.691.691,0,0,1,.5-.142c1.185-.04,2.373-.048,3.568-.04.2-.633-.427-1.217-1.035-1.488s-1.328-.467-1.637-1.052c-.617-1.21,1-2.88.309-3.955C999.155,432.929,997.86,434.131,996.823,434.646Z" transform="translate(-560.021 -268.322)" fill="#f44336" opacity="0.2"/>
        <path id="Path_2251" data-name="Path 2251" d="M886.607,498.273a.79.79,0,0,1-.395.118c-.25,0-.435-.25-.548-.5-.57-1.25-.238-2.863-1.122-3.915a13.545,13.545,0,0,0-2.143,3.592l-3.36-1.032a5,5,0,0,0,.641,3.868,5.131,5.131,0,0,0-1.583,1.075,1.75,1.75,0,0,0-.412,1.78,8.6,8.6,0,0,0,2.372.237,15.726,15.726,0,0,0,.25,4.43.8.8,0,0,0,.285.563c.25.157.57,0,.79-.135a7.81,7.81,0,0,0,2.777-2.942l1.25,3a1.309,1.309,0,0,0,.562.75.885.885,0,0,0,1.042-.355,2.6,2.6,0,0,0,.373-1.14l.475-2.848a.723.723,0,0,1,.15-.4.692.692,0,0,1,.5-.142c1.188,0,2.373-.047,3.568-.04.208-.632-.427-1.218-1.035-1.487s-1.328-.468-1.63-1.053c-.625-1.21.98-2.88.3-3.915C888.99,496.556,887.662,497.751,886.607,498.273Z" transform="translate(-536.988 -281.619)" fill="#f44336" opacity="0.2"/>
        <path id="Path_2252" data-name="Path 2252" d="M779.977,275.578a.791.791,0,0,1-.4.117c-.25,0-.435-.25-.537-.5-.577-1.25-.25-2.863-1.132-3.915a13.61,13.61,0,0,0-2.142,3.6l-3.37-1.045a5,5,0,0,0,.64,3.86,5.138,5.138,0,0,0-1.583,1.075,1.78,1.78,0,0,0-.41,1.788,8.61,8.61,0,0,0,2.372.237,15.625,15.625,0,0,0,.25,4.423.6.6,0,0,0,1.075.427,7.841,7.841,0,0,0,2.775-2.935l1.25,3a1.329,1.329,0,0,0,.563.79.91.91,0,0,0,1.052-.363,2.771,2.771,0,0,0,.373-1.14l.515-2.862a.73.73,0,0,1,.158-.4.752.752,0,0,1,.5-.142h3.56c.205-.633-.427-1.217-1.027-1.487s-1.337-.468-1.637-1.06c-.625-1.2.98-2.88.3-3.915C782.312,273.874,781.022,275.078,779.977,275.578Z" transform="translate(-514.701 -235.081)" fill="#f44336" opacity="0.5"/>
        <path id="Path_2253" data-name="Path 2253" d="M836.737,401.063a.8.8,0,0,1-.4.117c-.25,0-.435-.25-.538-.5-.577-1.25-.249-2.862-1.13-3.955a13.251,13.251,0,0,0-2.135,3.6l-3.377-1.012a5.027,5.027,0,0,0,.64,3.86,5.227,5.227,0,0,0-1.582,1.075,1.779,1.779,0,0,0-.412,1.788,8.614,8.614,0,0,0,2.372.237,15.706,15.706,0,0,0,.25,4.422.625.625,0,0,0,1.108.428,7.838,7.838,0,0,0,2.775-2.935l1.25,3a1.39,1.39,0,0,0,.563.75.909.909,0,0,0,1.052-.365,2.553,2.553,0,0,0,.372-1.14l.468-2.847a.535.535,0,0,1,.655-.545c1.187,0,2.373-.048,3.567,0,.2-.633-.427-1.218-1.037-1.488s-1.328-.468-1.638-1.06c-.617-1.2.98-2.88.3-3.915C839.079,399.324,837.781,400.549,836.737,401.063Z" transform="translate(-526.563 -261.292)" fill="#f44336" opacity="0.5"/>
        <path id="Path_2254" data-name="Path 2254" d="M795.544,352.154a.786.786,0,0,1-.4.117c-.25,0-.435-.25-.545-.5-.57-1.25-.237-2.863-1.122-3.915a13.463,13.463,0,0,0-2.143,3.6l-3.37-1.045a5.02,5.02,0,0,0,.632,3.86,5.2,5.2,0,0,0-1.583,1.075,1.75,1.75,0,0,0-.412,1.788,8.6,8.6,0,0,0,2.372.238,15.66,15.66,0,0,0,.25,4.422.618.618,0,0,0,1.108.428,7.762,7.762,0,0,0,2.767-2.935l1.25,3a1.358,1.358,0,0,0,.563.79.9.9,0,0,0,1.045-.365,2.554,2.554,0,0,0,.373-1.14l.475-2.848a.527.527,0,0,1,.65-.545c1.187,0,2.372-.048,3.567,0,.205-.632-.428-1.217-1.035-1.488s-1.33-.467-1.63-1.06c-.625-1.2.98-2.88.3-3.915C797.877,350.436,796.579,351.639,795.544,352.154Z" transform="translate(-517.95 -251.076)" fill="#f44336" opacity="0.5"/>
        <path id="Path_2255" data-name="Path 2255" d="M972.477,363.674a.8.8,0,0,1-.4.117c-.25,0-.428-.25-.538-.5-.577-1.25-.249-2.862-1.122-3.915a13.282,13.282,0,0,0-2.142,3.6l-3.37-1.045a5.02,5.02,0,0,0,.633,3.86,5.256,5.256,0,0,0-1.582,1.075,1.79,1.79,0,0,0-.412,1.787,8.956,8.956,0,0,0,2.372.237,15.7,15.7,0,0,0,.249,4.423.626.626,0,0,0,1.116.427,7.823,7.823,0,0,0,2.767-2.935l1.25,3a1.348,1.348,0,0,0,.555.75.909.909,0,0,0,1.052-.365,2.578,2.578,0,0,0,.373-1.14l.468-2.848a.727.727,0,0,1,.158-.4.72.72,0,0,1,.5-.143c1.187,0,2.372-.048,3.567-.04.2-.625-.428-1.217-1.038-1.48s-1.33-.468-1.637-1.06c-.618-1.2,1-2.88.3-3.915C974.809,361.956,973.521,363.159,972.477,363.674Z" transform="translate(-554.935 -253.486)" fill="#f44336" opacity="0.5"/>
        <path id="Path_2256" data-name="Path 2256" d="M886.617,354.046a.793.793,0,0,1-.4.118c-.251,0-.435-.25-.545-.5-.571-1.25-.238-2.855-1.123-3.908a13.578,13.578,0,0,0-2.144,3.59l-3.361-1.028a4.987,4.987,0,0,0,.641,3.86,5.155,5.155,0,0,0-1.582,1.085,1.75,1.75,0,0,0-.411,1.78,8.605,8.605,0,0,0,2.372.238,15.713,15.713,0,0,0,.25,4.43.8.8,0,0,0,.285.563c.25.157.57,0,.789-.135a7.9,7.9,0,0,0,2.848-2.957l1.25,3a1.332,1.332,0,0,0,.563.75.892.892,0,0,0,1.045-.362,2.548,2.548,0,0,0,.307-1.163l.475-2.855a.691.691,0,0,1,.15-.395.751.751,0,0,1,.5-.15c1.187,0,2.373-.04,3.568,0,.205-.632-.427-1.217-1.035-1.488s-1.33-.468-1.63-1.052c-.625-1.21.98-2.88.3-3.955C888.989,352.329,887.661,353.531,886.617,354.046Z" transform="translate(-536.987 -251.474)" fill="#f44336" opacity="0.2"/>
        <path id="Path_2257" data-name="Path 2257" d="M859.683,365.766a.785.785,0,0,1-.4.117c-.25,0-.428-.25-.538-.5-.57-1.25-.25-2.855-1.122-3.907a13.571,13.571,0,0,0-2.143,3.59l-3.37-1.045a5.014,5.014,0,0,0,.632,3.86,5.2,5.2,0,0,0-1.582,1.082,1.765,1.765,0,0,0-.42,1.78,8.642,8.642,0,0,0,2.373.238,16,16,0,0,0,.25,4.43.84.84,0,0,0,.292.562c.25.158.57,0,.79-.135a7.781,7.781,0,0,0,2.767-2.942l1.25,3a1.29,1.29,0,0,0,.555.75.892.892,0,0,0,1.052-.365,2.551,2.551,0,0,0,.373-1.133l.468-2.847a.7.7,0,0,1,.157-.4.687.687,0,0,1,.5-.143c1.188-.04,2.373-.047,3.568-.04.205-.633-.428-1.217-1.035-1.487s-1.33-.468-1.637-1.053c-.618-1.21,1-2.88.308-3.955C862,364.048,860.718,365.251,859.683,365.766Z" transform="translate(-531.354 -253.924)" fill="#f44336" opacity="0.3"/>
        <path id="Path_2258" data-name="Path 2258" d="M834.614,294.874a.787.787,0,0,1-.4.118c-.25,0-.428-.25-.538-.5-.577-1.25-.249-2.863-1.122-3.907a13.368,13.368,0,0,0-2.142,3.59l-3.37-1.045a5.022,5.022,0,0,0,.632,3.86,5.093,5.093,0,0,0-1.582,1.075,1.78,1.78,0,0,0-.42,1.788,8.633,8.633,0,0,0,2.372.237,15.629,15.629,0,0,0,.25,4.422.87.87,0,0,0,.292.57c.25.157.57,0,.79-.143A7.767,7.767,0,0,0,832.149,302l1.25,3a1.323,1.323,0,0,0,.555.79.9.9,0,0,0,1.053-.365,2.551,2.551,0,0,0,.372-1.13l.467-2.855a.729.729,0,0,1,.157-.4.791.791,0,0,1,.5-.143h3.567c.2-.633-.427-1.217-1.038-1.487s-1.33-.468-1.637-1.06c-.618-1.2,1-2.88.3-3.915C836.919,293.124,835.614,294.332,834.614,294.874Z" transform="translate(-526.12 -239.109)" fill="#f44336" opacity="0.2"/>
        <path id="Path_2259" data-name="Path 2259" d="M884.036,387.4a.793.793,0,0,1-.395.118.709.709,0,0,1-.537-.5c-.578-1.25-.251-2.862-1.13-3.908a13.532,13.532,0,0,0-2.143,3.59l-3.37-1.045a5.022,5.022,0,0,0,.64,3.86,5.285,5.285,0,0,0-1.583,1.075,1.781,1.781,0,0,0-.41,1.788,8.61,8.61,0,0,0,2.373.238,15.642,15.642,0,0,0,.25,4.422.607.607,0,0,0,1.075.435,7.912,7.912,0,0,0,2.775-2.943l1.25,3a1.334,1.334,0,0,0,.563.75.9.9,0,0,0,1.052-.365,2.753,2.753,0,0,0,.372-1.13l.468-2.855a.537.537,0,0,1,.655-.545h3.56c.2-.633-.428-1.218-1.027-1.487s-1.338-.468-1.638-1.06c-.618-1.2.98-2.88.3-3.915C886.371,385.678,885.081,386.881,884.036,387.4Z" transform="translate(-536.449 -258.446)" fill="#f44336" opacity="0.3"/>
      </g>
    </g>
  </g>
</svg>
