<svg xmlns="http://www.w3.org/2000/svg" width="499.28" height="500" viewBox="0 0 499.28 500">
  <g id="Group_1616" data-name="Group 1616" transform="translate(-137.688 -2846)">
    <g id="Group_1581" data-name="Group 1581" transform="translate(137.688 2846)">
      <g id="background" transform="translate(0)">
        <circle id="Ellipse_532" data-name="Ellipse 532" cx="187.23" cy="187.23" r="187.23" transform="translate(62.41 62.41)" fill="rgba(79,19,76,0.05)"/>
        <circle id="Ellipse_533" data-name="Ellipse 533" cx="249.64" cy="249.64" r="249.64" fill="rgba(79,19,76,0.05)"/>
      </g>
    </g>
    <g id="_02" data-name="02" transform="translate(169.562 2846)">
      <path id="Path_13173" data-name="Path 13173" d="M269.8,183.24s-34.378,43.006-39.616,81.988S244.935,336.905,246.727,339s.551-11.027.551-11.027a99.245,99.245,0,0,1-8.27-73.883c-4.163,25.8-.992,52.545,12.378,73.883,10.366.331,50.891-37.906,45.984-39.037S269.8,183.24,269.8,183.24Z" transform="translate(-51.565 -32.499)" fill="#5b2817"/>
      <path id="Path_13174" data-name="Path 13174" d="M263.571,193.592l-9.373,24.15s-19.766,11.634-16.541,41.711c2.757,25.115,37.107,47.693,60.4,42.069-6.616,14.5-5.789,32.586-5.789,32.586s3.611,16.817,41.1-3c-3.584-15.052,16.734-44.109,16.734-44.109s27.32,3.942,32.034-20.621-14.2-35.839-30.739-26.8c20.456-31.124,16.072-35.7,9.18-40.525s-57.2-24.067-56.156-23.13S263.571,193.592,263.571,193.592Z" transform="translate(-37.532 -45.415)" fill="#ffc2a4"/>
      <path id="Path_13175" data-name="Path 13175" d="M304.268,214.718c-1.213-11.165-18.2-20.731-27.568,1.654,3.859,0,15,4.769,7.774,11.965C289.878,233.685,306.06,231.37,304.268,214.718Z" transform="translate(31.685 1.856)" fill="#e89f89"/>
      <path id="Path_13176" data-name="Path 13176" d="M314.238,216.2a254.842,254.842,0,0,1-56.156,15.19,56.51,56.51,0,0,0,0,12.516s30.325-1.323,45.6-11.689C311.343,220.528,314.238,216.2,314.238,216.2Z" transform="translate(-1.635 25.406)" fill="#e89f89"/>
      <path id="Path_13177" data-name="Path 13177" d="M260.925,190.62s-4.328,17.974-14.749,20.042c-2.4.91.248,6.837,10.283,2.757S260.925,190.62,260.925,190.62Z" transform="translate(-23.391 -19.533)" fill="#e89f89"/>
      <path id="Path_13178" data-name="Path 13178" d="M242.619,205.457l.165.414c0,.331.331.717.551,1.185a9.932,9.932,0,0,0,.91,1.6,21.883,21.883,0,0,0,1.323,1.9,17.175,17.175,0,0,0,1.847,1.93,19.111,19.111,0,0,0,2.316,1.792,18.393,18.393,0,0,0,2.757,1.378l1.489.579,1.544.358a27.847,27.847,0,0,0,6.148.689c1.985,0,3.8-.138,5.514-.165.8,0,1.489-.165,2.15-.221l1.682-.165H272.5a2.15,2.15,0,1,0-.3-4.273,2.1,2.1,0,0,0-.717.165h-.138l-1.241.551c-.827.331-1.985.855-3.418,1.3l-2.343.606a16.534,16.534,0,0,1-2.757.441,14.2,14.2,0,0,1-2.757.138,11.769,11.769,0,0,1-2.95-.276l-1.461-.3-1.378-.469a12.1,12.1,0,0,1-2.509-1.351,9.017,9.017,0,0,1-1.847-1.847,8.27,8.27,0,0,1-1.213-1.957,8.823,8.823,0,0,1-.717-3.308,3.143,3.143,0,0,1,0-.855v-.3a2.187,2.187,0,0,0-4.3-.8,2.234,2.234,0,0,0,0,1.213Z" transform="translate(-28.628 1.165)" fill="#330e05"/>
      <path id="Path_13179" data-name="Path 13179" d="M267.634,211.979c-5.21-.441-9.153-4-8.822-7.94s4.824-6.782,10.007-6.341,9.153,3.97,8.822,7.912S272.9,212.393,267.634,211.979Z" transform="translate(0.225 -7.177)" fill="#e89f89"/>
      <path id="Path_13180" data-name="Path 13180" d="M244.913,203.765a9.042,9.042,0,0,0,10.724-2.564,5.514,5.514,0,0,0-2.536-8.684,9.015,9.015,0,0,0-10.724,2.564,5.514,5.514,0,0,0,2.536,8.684Z" transform="translate(-30.757 -17.599)" fill="#e89f89"/>
      <path id="Path_13181" data-name="Path 13181" d="M261.035,193.75a2.1,2.1,0,0,1,1.985,2.205,6.258,6.258,0,0,0,2.178,4.714c2.757,2.454,8.27,3.033,15.466,1.682a2.1,2.1,0,1,1,.772,4.108,43.252,43.252,0,0,1-7.774.8,17.4,17.4,0,0,1-10.393-2.757h0a25.584,25.584,0,0,1-8.408-10.338C259.574,193.915,261.035,193.75,261.035,193.75Z" transform="translate(-6.684 -14.035)" fill="#330e05"/>
      <path id="Path_13182" data-name="Path 13182" d="M243.42,189.16a20.587,20.587,0,0,0,4.852,0c1.13,0,1.709.193,1.764,1.351a5.348,5.348,0,0,0,2.1,4.273c.827.744,2.619.248,4.659-.855a2.1,2.1,0,0,1,1.985,3.694,12.02,12.02,0,0,1-5.514,1.627,6.369,6.369,0,0,1-3.2-.827,6.12,6.12,0,0,1-2.012-1.819h0a20.1,20.1,0,0,1-4.631-7.443Z" transform="translate(-26.782 -22.098)" fill="#330e05"/>
      <path id="Path_13183" data-name="Path 13183" d="M328.658,232.866s-21.31-9.98-36.307,12.516-40.8,48-82.153,42.483c-1.351,15,5.9,38.6,5.9,38.6s33.247,12.737,75.234-8.629c-.992,15.107,4.383,23.13,10.2,38.127s.8,54.971-6.7,62.47c8.491,8.519,78.459,50.505,135.967-12.985-6.479-10.5-20.566-24.618-17.975-52.38a313.679,313.679,0,0,1,9.4-51.939L393.8,239.4l-44.109,8.491Z" transform="translate(-85.444 50.81)" fill="#ed474b"/>
      <path id="Path_13184" data-name="Path 13184" d="M315.177,235.446l-35.839,39.009-4.053-4.88-3.639-23.323-2.564-3.777-11.027,20.263-3.225-11.027,11.027-16.293s27.871-.138,24.563,1.158,17.7-3.667,17.7-3.667Z" transform="translate(-6.737 54.763)" fill="#c12b36"/>
      <path id="Path_13185" data-name="Path 13185" d="M216.1,324.813s-7.25-23.516-5.9-38.6c41.352,5.514,67.156-19.987,82.153-42.483A33.331,33.331,0,0,1,305.8,231.55c5.155,2.178,15.714,4.218,21.255,7.857,0,0-6.644,25.638-20.208,43.337-3.859,5.514-15.769,23.874-15.521,33.358C249.344,337.55,216.1,324.813,216.1,324.813Z" transform="translate(-85.444 52.373)" fill="#c12b36"/>
      <path id="Path_13186" data-name="Path 13186" d="M356.754,280.2S343.8,354.133,243.2,345.725l2.757-12.433L360.42,262Z" transform="translate(-27.169 105.869)" fill="#c12b36"/>
      <path id="Path_13187" data-name="Path 13187" d="M241.31,318.191s37.8-9.263,56.68-37.879,11.386-31.731,11.386-31.731l4.935,4.88,6.616-8.6s-6.038,32.751-28.092,53.593a96.1,96.1,0,0,1-48.741,24.2Z" transform="translate(-30.489 75.757)" fill="#c12b36"/>
      <path id="Path_13188" data-name="Path 13188" d="M371.624,233.83s49.43,9.235,30.683,61.725S355.855,417.793,222.7,379.528c.386-27.734,7.14-41.986,7.14-41.986s75.013,21.751,108.371-44.991C346.068,275.32,371.624,233.83,371.624,233.83Z" transform="translate(-63.183 56.379)" fill="#ed474b"/>
      <path id="Path_13189" data-name="Path 13189" d="M141.812,100.73l12.654,12.516L114.547,147.4l-9.428-29-10.889,17.34L87.64,114.928l13.15-12.185,7.554,10.007Z" transform="translate(153.975 176.963)" fill="#fff"/>
      <path id="Path_13190" data-name="Path 13190" d="M216.89,211.792c26.824,10.228,52.132,81.712,52.132,81.712l-9.29,8.27a109.559,109.559,0,0,1,2.04,12.847v.138c-26.824,0-69.472-88.963-77.191-105.2C191,206.554,201.038,205.727,216.89,211.792Z" transform="translate(-130.154 9.689)" fill="#602437"/>
      <path id="Path_13191" data-name="Path 13191" d="M327.006,236.3l-5.017,10.559s8.27,23.185-15,45.763c-19.491,18.857-63.407,13.784-78.735-6.754a97.343,97.343,0,0,0-2.757,31.952,54.888,54.888,0,0,1-38.6-19.959c4.494-21.751,8.27-59.713,8.27-59.713s-25.253-15.521-12.24-39.009,36.252-19.766,43.751-1.02c4.494-39.726,11.248-40.47,20.235-39.726s63.738,19.3,62.249,19.463S327.006,236.3,327.006,236.3Z" transform="translate(-139.59 -76.404)" fill="#ffae98"/>
      <path id="Path_13192" data-name="Path 13192" d="M181.881,225.055c26.989-29.994,46.866,12.985,49.981,12.985s16.017-11.992,13.012-39.974c3,11.992,22.992,40.966,35.977,37.989,9.18-2.123,6.892-12.213,4.769-17.975,5.376,11.744,23.047,45.129,50.229,45.956,22.882.689,42.841-22.661,38.292-50.036a45.3,45.3,0,0,0,.662-7.636c-5.679-71.677-79.507-61.2-107.957-54.53a77.612,77.612,0,0,0-11.027,2.233C198.615,116.078,171.984,190.043,181.881,225.055Zm135.084-68.507c16.541,2.509,31.566,8.849,39.974,18.746a48.741,48.741,0,0,1,9.649,18.939,76.224,76.224,0,0,0-14.666-17.175,102.3,102.3,0,0,0-35.039-20.511Z" transform="translate(-138.454 -102.323)" fill="#431508"/>
      <path id="Path_13193" data-name="Path 13193" d="M187.954,176.457c8.629-8.27,29.222-4.631,21.558,20.235-3.253-2.536-15.659-6.368-14.639,4.549C186.823,201.93,175.024,188.945,187.954,176.457Z" transform="translate(-134.327 -51.409)" fill="#eb937f"/>
      <path id="Path_13194" data-name="Path 13194" d="M186.405,187.23s9.759,21.476,33.082,47.721c-1.02,4.438-1.93,12.02-1.93,12.02s-27.9-20.29-33.358-39.257C185.909,192.771,186.405,187.23,186.405,187.23Z" transform="translate(-130.821 -25.489)" fill="#eb937f"/>
      <path id="Path_13195" data-name="Path 13195" d="M234.365,184.82s-9.621,19.491-1.764,29.25c1.516,2.619-5.514,5.982-11.358-5.266S234.365,184.82,234.365,184.82Z" transform="translate(-67.708 -29.723)" fill="#eb937f"/>
      <path id="Path_13196" data-name="Path 13196" d="M241.049,207.752l-.193.3a3.116,3.116,0,0,1-.524.772,9.263,9.263,0,0,1-2.757,2.233,12.265,12.265,0,0,1-2.343.8,13.228,13.228,0,0,1-2.757.221,12.71,12.71,0,0,1-2.977-.607l-1.461-.551-1.434-.744a14.2,14.2,0,0,1-2.619-1.792,14.862,14.862,0,0,1-2.261-2.1,17.566,17.566,0,0,1-1.9-2.206l-1.544-2.1c-.441-.662-.772-1.351-1.1-1.9s-.579-1.1-.8-1.516l-.634-1.323v-.138a2.288,2.288,0,0,0-3.06-1.075,2.316,2.316,0,0,0-1.075,3.088,2.977,2.977,0,0,0,.5.662l1.158,1.1,1.268,1.268a23.351,23.351,0,0,0,1.654,1.654c1.3,1.13,2.757,2.591,4.356,3.86a28.011,28.011,0,0,0,5.514,3.667l1.516.772,1.626.551a18.839,18.839,0,0,0,3.225.744,17.089,17.089,0,0,0,3.115,0,18.2,18.2,0,0,0,2.757-.331,25.358,25.358,0,0,0,4.245-1.351,11.174,11.174,0,0,0,1.268-.606l.414-.221h0a2.355,2.355,0,1,0-2.205-4.163,2.205,2.205,0,0,0-.965,1.02Z" transform="translate(-83.077 -10.42)" fill="#330e05"/>
      <path id="Path_13197" data-name="Path 13197" d="M210.745,196.818c4.6,3.2,10.283,2.977,12.709-.5s.689-8.9-3.887-12.1-10.283-3-12.709.469S206.169,193.592,210.745,196.818Z" transform="translate(-92.94 -34.773)" fill="#eb937f"/>
      <path id="Path_13198" data-name="Path 13198" d="M232.8,204.938a9.731,9.731,0,0,1-7.058-9.483,6.037,6.037,0,0,1,8.05-5.514,9.732,9.732,0,0,1,7.085,9.483,6.037,6.037,0,0,1-8.077,5.514Z" transform="translate(-57.843 -21.335)" fill="#eb937f"/>
      <path id="Path_13199" data-name="Path 13199" d="M225.9,195.034h.413a11.275,11.275,0,0,0,8.436-4.218,2.283,2.283,0,0,0-3.639-2.757,6.616,6.616,0,0,1-5.045,2.4c-4,.138-8.794-3.088-13.784-9.235a2.261,2.261,0,0,0-3.474,2.757C214.709,191.368,220.471,195.034,225.9,195.034Z" transform="translate(-88.026 -36.987)" fill="#330e05"/>
      <path id="Path_13200" data-name="Path 13200" d="M233.526,196.271a10.255,10.255,0,0,0,6.809-3.336,2.244,2.244,0,0,0-3.308-3.033h0c-.524.551-2.371,2.1-3.887,1.819s-2.316-1.6-3.253-3.887a2.245,2.245,0,1,0-4.163,1.682c1.6,3.915,3.832,6.148,6.616,6.644A5.928,5.928,0,0,0,233.526,196.271Z" transform="translate(-58.158 -26.894)" fill="#330e05"/>
      <path id="Path_13201" data-name="Path 13201" d="M198.643,207.85s-36.611,20.125-33.633,80.858,29.719,159.73,16.734,177.7c4.273,9.759,71.677,40.5,139.247,9.015-2.261-11.992-29.553-130.48-24.536-161.963-3.2-27.017-4.714-10.5-4.714-10.5l11.965-10.5s-37.355,44.55-73.442-29.994c-17.175-35.48-21.007-42.731-21.007-42.731Z" transform="translate(-164.838 10.737)" fill="#8e4155"/>
      <path id="Path_13202" data-name="Path 13202" d="M201.626,304.211c0-3.5,2.012-4.494,18.5-4.632-2.509.331-26.493-6.368-22.992-11.606s24.481,0,24.481,0-19.491-8.27-13.977-12.378,36.941,7.14,36.941,7.14-15.163-9.869-10.476-14c1.627-1.434,5.9-.772,11.468,2.757,2.757,16.32,5.872,33.358,8.932,48.6C218.911,318.464,201.626,307.409,201.626,304.211Z" transform="translate(-108.714 116.451)" fill="#602437"/>
      <path id="Path_13203" data-name="Path 13203" d="M282.412,336.558s-25.032-10.035-35.7-22.275c-3.143,6.258-5.155,7.361-5.155,7.361s-64.4-27.375-66.936-98.474c20.456,30.325,77.439,68.4,77.439,68.4l28.368,30.077Z" transform="translate(-147.651 37.651)" fill="#602437"/>
      <path id="Path_13204" data-name="Path 13204" d="M224.05,282.411s14,19.132,37.107,4.494a306.664,306.664,0,0,0,55.964-46.48c3-10.5,18.746-29,26.245-26.135s-5.293,18.636-5.293,18.636,21.035-3.749,33.082-12.737,15.769-2.261,12.764,2.233c6.727-8.27,12.737-5.238,8.987,6.01s-6.01,35.977-54.778,42.731c-11.992,17.258-54.75,77.99-87.694,74.986S200.81,323.9,200.81,323.9Z" transform="translate(-101.64 21.527)" fill="#ffae98"/>
      <path id="Path_13205" data-name="Path 13205" d="M179.992,212.753c6.037-9.373,35.4-13.536,62.69,31.483s33.275,50.229,33.275,50.229l-31.483,48.741s-30.6-21.007-47.555-46.48S164.994,235.993,179.992,212.753Z" transform="translate(-149.053 8.728)" fill="#8e4155"/>
      <path id="Path_13206" data-name="Path 13206" d="M61.624,111.19l-18.333,45.4-7.361-6.23Z" transform="translate(63.129 195.339)" fill="#eb937f"/>
      <path id="Path_13207" data-name="Path 13207" d="M276.08,227.576l1.682-.606c-1.378,2.757-3.143,6.286-4.135,8.629,29.195-8.27,35.646-24.811,35.646-24.811S327.55,306.2,354.7,265.234c12.433-3.032,29.277-2.068,31.345,17.837s-11.744,30.325-32.7,29.581c-11.744,0-41.077,49.485-14.032,64.923A230.011,230.011,0,0,0,361.376,388.6s8.077,16.541,0,45.791-11.193,59.354,3.584,79.259a51.967,51.967,0,0,1,4.19-29.057c1.3,12.489,5.514,23.268,14.832,29.057,2.481-7.471,6.258-21.035,13.784-32.641a155.356,155.356,0,0,1,0,20.649,72.256,72.256,0,0,0,42.345-23.13h0c36.307-13.371,43.144-36.859,34.9-63.1-6.065-19.3-25.694-42.979-35.839-54.227l-.221-.248a8.027,8.027,0,0,1-.661-.744c-15.659-17.092-21.228-38.871-22.744-56.928,24.15-36.969,7.636-69.637-2.536-84.028a30.826,30.826,0,0,0-5.872-7.388l-.414-.441h0c-6.01-5.348-14.666-8.987-27.044-9.98-22.5-56.019-83.67-44.109-117.137-20.759a59.656,59.656,0,0,0-9.649,8.27h0a48.3,48.3,0,0,0-5.651,7.057c-.248.331-.469.634-.689.992l-.248.358c-.551.882-1.1,1.737-1.6,2.591h0l-1.378,2.509a68.673,68.673,0,0,0-7.113,40.884C242.226,240.726,263.288,237.831,276.08,227.576ZM448.988,466.344a90.972,90.972,0,0,0,10.283-27.568c4.3-20.731-.662-38.844-8.767-55.136,10.283,14.087,20.07,34.35,18.526,52.187a36.142,36.142,0,0,1-20.042,30.518Zm-32.806-191.6c.3-2.012.607-4.025.882-6.065h0a181.927,181.927,0,0,0,1.875-19.491c5.707,22.5,1.3,36.831-3.722,45.129a145.022,145.022,0,0,1,1.048-19.573ZM355.256,381.682c-32.779-13.784-17.23-49.623-17.23-49.623C333.918,362.633,347.4,373.412,355.256,381.682ZM326.172,249.989c6.093,8.27,14.032,14.859,24.039,15.356-3.363,3.446-7.388,6.23-10.31,3.942a55.135,55.135,0,0,1-13.839-19.3Z" transform="translate(-40.53 -71.211)" fill="#672f18"/>
      <path id="Path_13208" data-name="Path 13208" d="M270.585,283.337a35.59,35.59,0,0,1-18.03-8.739c-8.546-7.692-15.6-9.594-17.782-7.692-4.494,3.97,10.062,13.453,10.062,13.453s-30.187-10.807-35.453-6.837,13.426,11.854,13.426,11.854-20.152-5.017-23.516,0,19.684,11.468,22.055,11.027c-15.852.138-17.754,1.1-17.754,4.466s19.877,15.824,61.036,15.355a227.253,227.253,0,0,1,5.955-32.889Z" transform="translate(-104.893 113.285)" fill="#ffc2a4"/>
      <path id="Path_13209" data-name="Path 13209" d="M319.3,151.358c-9.952-16.734-27.734-2.757-33.413,2.343-.717-7.609-4.494-29.884-23.1-24.232-26.383,7.995,11.579,53.923,11.579,53.923h0S333.387,175.039,319.3,151.358Z" transform="translate(-9.15 -128.561)" fill="#ef5252"/>
    </g>
  </g>
</svg>
