<svg xmlns="http://www.w3.org/2000/svg" width="509.465" height="500" viewBox="0 0 509.465 500">
  <g id="Group_1597" data-name="Group 1597" transform="translate(-1047.771 -335)">
    <g id="background" transform="translate(1048.726 335)">
      <circle id="Ellipse_532" data-name="Ellipse 532" cx="187.5" cy="187.5" r="187.5" transform="translate(62.5 62.5)" fill="rgba(79,19,76,0.05)"/>
      <circle id="Ellipse_533" data-name="Ellipse 533" cx="250" cy="250" r="250" fill="rgba(79,19,76,0.05)"/>
    </g>
    <g id="Group_1596" data-name="Group 1596" transform="translate(1047.771 377.316)">
      <g id="Group_886" data-name="Group 886" transform="translate(0 0)">
        <path id="Path_12" data-name="Path 12" d="M1583.47,805.627l2.434,4.189-.459,4.189a15.082,15.082,0,0,1-1.564,2.115c-.288.131-3.373.678-3.373.678l-3.026-.678-2.249-1.007s-4.107-4.811-2.749-5.783,4.648-5.4,7.355-5.039S1583.47,805.627,1583.47,805.627Z" transform="translate(-1316.338 -648.751)" fill="#ffc0bb"/>
        <path id="Path_13" data-name="Path 13" d="M1963.707,1250.273l-19.109-9.484a112.7,112.7,0,0,1-15.144-9.058l-72.693-51.6v30.922l4.815,17.485,36.493,20.388s23.3,7.138,40.826,8.57c3.13.66,6.363,1.335,6.737,1.4.739.122,14.933,3.642,15.675.729s7.4-1.953,7.035-3.161S1963.707,1250.273,1963.707,1250.273Z" transform="translate(-1465.787 -848.972)" fill="#f9b3af"/>
        <path id="Path_14" data-name="Path 14" d="M2018.63,1333.716l-9.23-5.02c1.277,17.06-65.637-1.351-65.637-1.351h0l.115,11.22a4.138,4.138,0,0,0,4.373,3.848l67.825-.564C2020.984,1341.808,2022.793,1336.047,2018.63,1333.716Z" transform="translate(-1511.481 -927.395)" fill="#e03268"/>
        <path id="Path_15" data-name="Path 15" d="M1928,1269.1l-27.045-13.425h0l-63.608-40.206-16.291,14.41,4.813,17.482,36.493,20.389s23.3,7.137,40.827,8.57c3.13.66,6.363,1.337,6.735,1.4.739.12,14.935,3.642,15.675.727s7.406-1.955,7.037-3.162S1928,1269.1,1928,1269.1Z" transform="translate(-1447.037 -867.797)" fill="#ffc0bb"/>
        <path id="Path_16" data-name="Path 16" d="M1436.361,639.839s-31.1,5.828-43.2,14.084-33.575,13.358-35.055,13.6l-3.951,22.263s69.369,46.218,78.584,49.376,23.616-7.771,23.616-7.771l20.353-13.234,10.751-12.507,19.914-36.184Z" transform="translate(-1201.814 -561.158)" fill="#ffc0bb"/>
        <path id="Path_17" data-name="Path 17" d="M1595.819,788.293a28.747,28.747,0,0,0-5.529,5.856,21.762,21.762,0,0,0-2.089,3.547,10.211,10.211,0,0,0-1.046,4.294l.065.627.068.547a3.948,3.948,0,0,1,.082.741,2.994,2.994,0,0,1-.253,1.354,3.634,3.634,0,0,1-2.256,1.857c-2.172.739-4.832.24-7.346-.692a9.288,9.288,0,0,0,7.847,2.613,5.537,5.537,0,0,0,3.938-2.693,4.148,4.148,0,0,0,.457-1.193,4.816,4.816,0,0,0,.163-1.244,6.354,6.354,0,0,0-.108-1.211,3.578,3.578,0,0,1-.042-.429l-.034-.35a9.713,9.713,0,0,1,.721-3.31,33.2,33.2,0,0,1,1.554-3.438C1593.2,792.891,1594.519,790.632,1595.819,788.293Z" transform="translate(-1319.125 -640.24)" fill="#f99893"/>
        <path id="Path_18" data-name="Path 18" d="M1463.258,696.933s-10.614,14.165,1.4,44.44c13.745,34.634-51.783-56.618-17.032-62.573C1460.377,676.615,1463.258,696.933,1463.258,696.933Z" transform="translate(-1245.5 -581.825)" fill="#f99893"/>
        <g id="Group_4" data-name="Group 4" transform="translate(183.174)">
          <path id="Path_19" data-name="Path 19" d="M1583.525,566.918c-2.948-9.882-11.952-32.957-12.044-33.188l-.041.016a35.234,35.234,0,0,0-1.324-3.271c-3.6-7.666-11.85-19.589-27.319-21.208-.964-.1-1.963-.179-2.962-.258a40.5,40.5,0,0,0,4.135-1.474,28.05,28.05,0,0,0,10.279-7.037,21.48,21.48,0,0,0,3.331-5.2,20.239,20.239,0,0,0,1.47-5.83,26.275,26.275,0,0,1-2.607,5.232,21.8,21.8,0,0,1-3.8,4.232,23.19,23.19,0,0,1-4.7,3.126,30.129,30.129,0,0,1-5.241,2.194,55.148,55.148,0,0,1-5.549,1.452c-1.887.377-3.8.63-5.72.839-.658.069-1.323.12-1.987.173.353-.232.714-.452,1.057-.7a37.036,37.036,0,0,0,8.228-7.618,23.6,23.6,0,0,0,4.8-10.092,19.458,19.458,0,0,0-1.059-10.781,26.345,26.345,0,0,1,.125,5.266,20.251,20.251,0,0,1-1.074,5,22.945,22.945,0,0,1-2.222,4.526,30.087,30.087,0,0,1-3.13,3.963,41.028,41.028,0,0,1-7.954,6.393c-.37.227-.748.439-1.124.657.084-4.613-1.332-8.773-1.816-10.858-.989-4.25-9.628-25.62-35.3-18.335a32.614,32.614,0,0,0-4.109,1.471l-.216.006a41.323,41.323,0,0,1-5.495-.183,22.565,22.565,0,0,1-5.143-1.253,29.1,29.1,0,0,1-5.031-2.713,10.181,10.181,0,0,0,3.744,4.958,13.393,13.393,0,0,0,6.042,2.264c.222.025.444.024.666.038-10.15,7.528-11.364,20.06-11.156,27.024-3.232,1.562-16.392,7.814-34.942,15.256-7.713,3.094-13.08,10.133-14.726,19.312a30.772,30.772,0,0,0,3.621,21.124c-.783,9.321,5.942,18.969,30.458,25.131,0,0-4.967-16.7,11.754-21.287a15.277,15.277,0,0,1,15.2,3.87c2.818,2.987,4.933,7.77,3.9,15.394,0,0,16.048,26.955,35.3,26.307l4.361,10.766s14.154.485,15.141,0,14.977-10.685,14.977-10.685,10.7.647,11.191.485a14.158,14.158,0,0,0,3.434-1.5l.036.107C1582.838,605.6,1588.271,582.824,1583.525,566.918Zm-143.75-30.291c-3.9,3.135-10.695,9.546-14.266,16.963-.767-8.311,5.431-17.646,9.495-22.1,4.6-5.044,14.111-10.217,21.466-13.745C1450.324,524.641,1447.686,530.271,1439.775,536.627Zm18.733-21.073c-7.61,3.5-19,9.354-24.331,15.2-4.032,4.422-10.083,13.526-9.822,21.957a27.779,27.779,0,0,1-.377-11.64c1.374-7.668,5.759-13.508,12.029-16.023,8.9-3.573,16.575-6.874,22.528-9.524C1458.526,515.536,1458.515,515.546,1458.508,515.555Zm116.82,87.555c1.793-3.387,3.018-8.1,2.689-14.677-.619-12.375-1.255-27.084-3.089-39.422,2.464,6.624,5.114,13.986,6.466,18.521C1584.867,579.179,1582.46,594.912,1575.328,603.109Z" transform="translate(-1419.094 -471.464)" fill="#f46c0f"/>
        </g>
        <path id="Path_20" data-name="Path 20" d="M1591.174,774.519a20.536,20.536,0,0,0,1.565,2.93,10.823,10.823,0,0,0,2.035,2.342,10.207,10.207,0,0,0,2.621,1.661l.361.179c.124.059.255.09.381.143l.774.3c.528.194,1.078.315,1.643.55a9.948,9.948,0,0,1-1.772.228,8.2,8.2,0,0,1-1.8-.2,7.335,7.335,0,0,1-3.289-1.654,7.48,7.48,0,0,1-2.1-2.983A6.817,6.817,0,0,1,1591.174,774.519Z" transform="translate(-1326.259 -632.903)" fill="#07085b"/>
        <path id="Path_21" data-name="Path 21" d="M1681.807,1021.8s56.515,59.186,80.642,79c0,0-2.715,13.562-13.578,19.1s-98.99-85.805-97.673-85.805S1681.807,1021.8,1681.807,1021.8Z" transform="translate(-1357.816 -764.631)" fill="#96c9d6"/>
        <path id="Path_22" data-name="Path 22" d="M1070.612,1079.909l-2.511,11.442s21.272,75.01,104.712,61.411,132.809-92.28,132.809-92.28,52.829,48.083,127.381,60.225c0,0,12.672-6.638,16.293-31.569,0,0-88.542-84.51-113.885-113.651S1070.612,1079.909,1070.612,1079.909Z" transform="translate(-1051.575 -737.743)" fill="#ccd9dd"/>
        <path id="Path_23" data-name="Path 23" d="M1602.49,767.338s-2.716-26.591,5.8-40.312,14.439-18.456,15.551-16.756-6.171,20.885-2.963,23.313,16.293.485,24.688-35.334c0,0,.862-9.957,6.17-6.922,0,0,.544-2.737,2.438-3.463a2.478,2.478,0,0,1,3.241,2.387V706.02a2.562,2.562,0,0,1,3.455,1.214c1.108,2.307.74,14.814.74,14.814s2.838,4.007,1.6,11.536-34.189,30.355-34.189,30.355l-18.145,8.256Z" transform="translate(-1332.026 -586.663)" fill="#ffc0bb"/>
        <path id="Path_24" data-name="Path 24" d="M1628.491,788.851l-8.994,4.3-9.015,4.25-.148.071-.152-.085-8.443-4.773-.186-.106-.02-.211a107.926,107.926,0,0,1,.206-22.271,56.607,56.607,0,0,1,2.287-10.955,23.045,23.045,0,0,1,.952-2.649l.545-1.3a8.39,8.39,0,0,1,.609-1.276c.46-.823.888-1.678,1.376-2.475l1.513-2.355a91.49,91.49,0,0,1,6.654-9.033,32.869,32.869,0,0,1,4.011-4,6.823,6.823,0,0,1,2.6-1.453,1.427,1.427,0,0,1,.937.1,1.178,1.178,0,0,1,.39.359,1.284,1.284,0,0,1,.15.477,5.693,5.693,0,0,1-.094,1.483c-.7,3.693-1.811,7.212-2.694,10.81-.446,1.794-.862,3.6-1.141,5.421a19.7,19.7,0,0,0-.241,2.749,3.458,3.458,0,0,0,.753,2.576,3.518,3.518,0,0,1-.879-2.572,17.809,17.809,0,0,1,.136-2.783c.22-1.846.577-3.669.963-5.484.741-3.628,1.806-7.215,2.408-10.818a5.17,5.17,0,0,0,.065-1.278c-.008-.3-.232-.386-.607-.309a6.281,6.281,0,0,0-2.222,1.336,32.127,32.127,0,0,0-3.817,3.974,91.426,91.426,0,0,0-6.519,8.983c-4.327,6.058-6.139,13.321-7.085,20.6a114.405,114.405,0,0,0-.415,22.063l-.205-.317,8.343,4.94-.3-.014,9.129-4.007Z" transform="translate(-1331.488 -611.575)" fill="#f99893"/>
        <path id="Path_25" data-name="Path 25" d="M1192.055,689.208s-.741,10.928,11.355,17.728c0,0,28.389,8.014,50.606,36.912s51.593,56.34,51.593,56.34-3.456-25.256-3.209-34c0,0,11.6-5.585,27.9-1.457,0,0,14.071,36.183,20.983,45.654s24.933,60.225-1.974,74.067-105.9-33.674-131.247-65.406c0,0,8.229,29.465,2.3,35.94s-47.068,34.322-74.717,42.094-86.565,50.835-99.4,43.064c0,0-29.887-74.6,1.151-137.287C1081.626,733.729,1128.859,701.512,1192.055,689.208Z" transform="translate(-1033.295 -587.457)" fill="#ff5b7e"/>
        <path id="Path_26" data-name="Path 26" d="M1390.662,934.509c-1.875-2.162-3.788-4.288-5.706-6.411-1.9-2.137-3.87-4.214-5.81-6.318-3.933-4.163-7.9-8.289-12.095-12.229,3.407,4.613,7.033,9.039,10.7,13.431,1.859,2.172,3.686,4.371,5.585,6.512,1.319,1.511,2.655,3.005,3.992,4.5-1.334-.109-2.677-.263-4-.457a56.913,56.913,0,0,1-6.451-1.387,41.636,41.636,0,0,1-6.176-2.313,31.4,31.4,0,0,1-5.625-3.53,23.946,23.946,0,0,0,5.145,4.367,34.106,34.106,0,0,0,6.152,2.973,44.176,44.176,0,0,0,6.609,1.814,42.336,42.336,0,0,0,6.851.818l2.432.078Z" transform="translate(-1207.549 -704.834)" fill="#07085b"/>
        <path id="Path_27" data-name="Path 27" d="M1545.236,1126.56a54.135,54.135,0,0,1-2.565-6.881,60.4,60.4,0,0,1-1.707-7.188,55.859,55.859,0,0,1-.875-7.354,67.618,67.618,0,0,1,.008-7.464,39.635,39.635,0,0,0-.968,7.474c-.075,1.26-.024,2.522,0,3.787.1,1.258.157,2.527.338,3.779a49.216,49.216,0,0,0,1.528,7.441,44.719,44.719,0,0,0,2.046,5.772,27.892,27.892,0,0,1-3.895-.833,28.417,28.417,0,0,1-5.115-2.034c-.831-.4-1.6-.895-2.4-1.366-.748-.534-1.534-1.03-2.233-1.636a29.591,29.591,0,0,1-3.984-3.912,22.944,22.944,0,0,0,7.992,8,25.538,25.538,0,0,0,5.261,2.425,24.3,24.3,0,0,0,5.748,1.222l1.44.114Z" transform="translate(-1291.765 -805.047)" fill="#07085b"/>
        <path id="Path_28" data-name="Path 28" d="M1609.89,927.265c3.874,3.1,7.705,6.235,11.379,9.531a124.675,124.675,0,0,1,10.506,10.355c3.193,3.7,6.233,7.606,8.05,12.234a24.1,24.1,0,0,0-2.575-7.012,46.693,46.693,0,0,0-4.13-6.3,83.082,83.082,0,0,0-10.358-10.9,127.925,127.925,0,0,0-11.828-9.265c-1.507-1.047-3.042-2.057-4.591-3.044l.239,1.791Z" transform="translate(-1334.265 -711.927)" fill="#07085b"/>
        <path id="Path_29" data-name="Path 29" d="M1693.733,725.9a45.793,45.793,0,0,1-3.3,10.126A45.923,45.923,0,0,0,1694,725.969c.877-3.46,1.532-6.974,2.065-10.5s.974-7.072,1.312-10.625c.313-3.309.564-6.619.728-9.947a4.549,4.549,0,0,0-1.078-.446c-.07,3.436-.243,6.885-.481,10.323q-.363,5.322-1.031,10.617C1695.078,718.918,1694.517,722.435,1693.733,725.9Z" transform="translate(-1378.433 -590.249)" fill="#f99893"/>
        <path id="Path_30" data-name="Path 30" d="M1713.261,726.409v-.417c-.262,4.521-1.156,9.245-1.726,13.724-.292,2.356-.658,4.7-1.138,7.028a34.948,34.948,0,0,1-1.992,6.824,35.28,35.28,0,0,0,2.265-6.761c.571-2.313,1.029-4.655,1.416-7.008.74-4.444,1.8-9.12,2.248-13.641A3.266,3.266,0,0,0,1713.261,726.409Z" transform="translate(-1387.87 -607.052)" fill="#f99893"/>
        <path id="Path_31" data-name="Path 31" d="M1723.476,761.216a57.645,57.645,0,0,1-1.272,6.416,26.42,26.42,0,0,1-2.36,6.237,26.763,26.763,0,0,0,2.891-6.079c.585-1.669,1.066-3.367,1.493-5.086A8.571,8.571,0,0,0,1723.476,761.216Z" transform="translate(-1393.877 -625.816)" fill="#f99893"/>
        <g id="Group_5" data-name="Group 5" transform="translate(242.874 166.671)" opacity="0.3" style="mix-blend-mode: multiply;isolation: isolate">
          <path id="Path_32" data-name="Path 32" d="M1545.394,828.135s-2.117,2.914,1.893,9.044a54.432,54.432,0,0,0,5.518-3C1552.327,829.464,1545.394,828.135,1545.394,828.135Z" transform="translate(-1544.835 -828.135)" fill="#f99893"/>
        </g>
        <path id="Path_33" data-name="Path 33" d="M1545.945,832.874l.69-.392c-.188-.432-.386-.861-.611-1.276a16.8,16.8,0,0,0-4.26-4.912,18.672,18.672,0,0,0-5.674-3.109,25.762,25.762,0,0,1,5.269,3.576,19.019,19.019,0,0,1,3.951,4.831C1545.545,832.009,1545.752,832.439,1545.945,832.874Z" transform="translate(-1297.369 -658.828)" fill="#f99893"/>
        <path id="Path_34" data-name="Path 34" d="M1982.929,1333.716l-9.231-5.02c1.278,17.06-65.638-1.351-65.638-1.351h0l.116,11.22a4.137,4.137,0,0,0,4.372,3.848l67.825-.564C1985.282,1341.808,1987.092,1336.047,1982.929,1333.716Z" transform="translate(-1492.731 -927.395)" fill="#ff5b7e"/>
      </g>
    </g>
  </g>
</svg>
