<svg xmlns="http://www.w3.org/2000/svg" width="498.877" height="500" viewBox="0 0 498.877 500">
  <g id="Group_1599" data-name="Group 1599" transform="translate(-1047 -335.73)">
    <g id="background" transform="translate(1047 336.853)">
      <circle id="Ellipse_532" data-name="Ellipse 532" cx="187.079" cy="187.079" r="187.079" transform="translate(62.36 62.36)" fill="rgba(79,19,76,0.05)"/>
      <circle id="Ellipse_533" data-name="Ellipse 533" cx="249.439" cy="249.439" r="249.439" fill="rgba(79,19,76,0.05)"/>
    </g>
    <g id="Group_37" data-name="Group 37" transform="translate(1115.903 335.73)">
      <g id="Group_36" data-name="Group 36" transform="translate(0 0)">
        <path id="Path_44" data-name="Path 44" d="M477.535,237.706l-42.3,24.9s40.827-1.463,79.578,7.323l12.592-8.786,55.222,41.832s-37.092,5.953-55.222,0S350.12,315.331,344.582,277.25,429.7,179.855,429.7,179.855Z" transform="translate(-245.637 183.738)" fill="#f8cab5"/>
        <path id="Path_45" data-name="Path 45" d="M484.268,240.593l-42.3,24.9s40.827-1.466,79.578,7.323l12.592-8.789,55.225,41.835s-37.1,5.949-55.225,0-177.286,12.358-182.824-25.723,85.116-97.4,85.116-97.4Z" transform="translate(-231.366 190.374)" fill="#f8d4c4"/>
        <path id="Path_46" data-name="Path 46" d="M371.112,227.412s29.935,54.12,70.671,60.014c0,0,43.507-19,49.044-56.352s-18.464-64.564-18.464-64.564l-79.378,1.34Z" transform="translate(-188.882 153.023)" fill="#520050"/>
        <g id="Group_35" data-name="Group 35" transform="translate(116.824)">
          <g id="Group_34" data-name="Group 34">
            <g id="Group_23" data-name="Group 23" transform="translate(46.936)">
              <path id="Path_47" data-name="Path 47" d="M450.389,189.53a69.165,69.165,0,0,1-26.787,2.2L365.192,89.15s3.544-25.079,30.886-18.238,34.73,27.371,41.011,64.514S450.389,189.53,450.389,189.53Z" transform="translate(-365.192 -69.73)" fill="#1d0404"/>
              <path id="Path_48" data-name="Path 48" d="M365.192,76.649s12.127-4.728,17.8,2.671c0,0,16.011-3.549,21.639,6,14.476,24.558,26.179,94.367,26.179,94.367l-4.362-.175Z" transform="translate(-365.192 -57.229)" fill="#39414c"/>
              <path id="Path_49" data-name="Path 49" d="M394.438,88.385l1.111-6.257s-2.4-5.867-14.411-7.234-11.637,0-11.637,0l-2.4,6.441Z" transform="translate(-361.152 -59.244)" fill="#f8b500"/>
            </g>
            <g id="Group_33" data-name="Group 33" transform="translate(0 19.384)">
              <g id="Group_31" data-name="Group 31" transform="translate(7.493 4.49)">
                <g id="Group_30" data-name="Group 30">
                  <g id="Group_29" data-name="Group 29">
                    <g id="Group_24" data-name="Group 24" transform="translate(63.388 44.761)">
                      <path id="Path_50" data-name="Path 50" d="M372.867,152.859a3.286,3.286,0,0,1,.555.327c.983.779,3.266,3.176,5.385,10.07a68.393,68.393,0,0,1,1.716,6.857l3.107,15.465s3.026,9.436,14.72,6.8S423.084,174.693,417.2,155L393.149,90.518Z" transform="translate(-372.867 -90.518)" fill="#f8d4c4"/>
                      <path id="Path_51" data-name="Path 51" d="M373.045,125.887c.982.779,3.266,3.176,5.385,10.07,3.865-3.424,16.46-15.99,15.736-33.578Z" transform="translate(-372.49 -63.218)" fill="#f2b098"/>
                    </g>
                    <g id="Group_28" data-name="Group 28">
                      <path id="Path_52" data-name="Path 52" d="M356.916,148.95a84.577,84.577,0,0,0,6.159,14.844,69.468,69.468,0,0,0,6.673,10.393,56.079,56.079,0,0,0,16.192,14.59c11.487,6.692,23.134,4.3,32.646-1.885a53.115,53.115,0,0,0,18.959-22.243c.212-.469.4-.9.558-1.324,2.346-5.959,3.644-16.984,2.749-29.2-1.629-22.233-10.523-48.392-33.819-55.174-36.1-10.43-53.2,23.356-53.428,24.96a114.86,114.86,0,0,0-1.048,13.781A102.474,102.474,0,0,0,356.916,148.95Z" transform="translate(-352.549 -76.961)" fill="#f8d4c4"/>
                      <g id="Group_27" data-name="Group 27" transform="translate(5.086 46.612)">
                        <g id="Group_25" data-name="Group 25" transform="translate(25.535)">
                          <path id="Path_53" data-name="Path 53" d="M368.557,105.524a7.859,7.859,0,0,0,9.3,6.392,8.309,8.309,0,0,0,6.04-9.846,7.859,7.859,0,0,0-9.3-6.4A8.312,8.312,0,0,0,368.557,105.524Z" transform="translate(-349.604 -80.922)" fill="#f8cab5"/>
                          <path id="Path_54" data-name="Path 54" d="M366.62,101.012c1.3,2.351,3.944,3.279,5.9,2.067s2.474-4.1,1.167-6.455-1.831,1.856-3.781,3.067S365.316,98.658,366.62,101.012Z" transform="translate(-354.082 -79.933)" fill="#411f20"/>
                          <path id="Path_55" data-name="Path 55" d="M381.769,92.173a25.914,25.914,0,0,0-4.349-.9,27.346,27.346,0,0,0-4.359-.175,22.366,22.366,0,0,0-8.789,2.12,3.49,3.49,0,0,0-1.628,4.5,3.151,3.151,0,0,0,4.252,1.723,2.6,2.6,0,0,0,.25-.132l.025-.013a16.652,16.652,0,0,1,6.34-2.153,22.121,22.121,0,0,1,3.51-.195,21.836,21.836,0,0,1,3.432.36l.184.036a2.527,2.527,0,0,0,2.92-2.139A2.683,2.683,0,0,0,381.769,92.173Z" transform="translate(-362.364 -91.079)" fill="#39414c"/>
                        </g>
                        <g id="Group_26" data-name="Group 26" transform="translate(0 11.149)">
                          <path id="Path_56" data-name="Path 56" d="M355.923,107.526a69.492,69.492,0,0,0,6.673,10.394,7.163,7.163,0,0,0,2.543-.119,8.306,8.306,0,0,0,6.056-9.836,7.853,7.853,0,0,0-9.313-6.372A8.1,8.1,0,0,0,355.923,107.526Z" transform="translate(-350.484 -78.453)" fill="#f8cab5"/>
                          <path id="Path_57" data-name="Path 57" d="M357.658,105.058c1.307,2.354,3.947,3.279,5.9,2.07s2.474-4.1,1.167-6.455-1.828,1.852-3.778,3.064S356.354,102.7,357.658,105.058Z" transform="translate(-347.545 -81.763)" fill="#411f20"/>
                          <path id="Path_58" data-name="Path 58" d="M362.583,95.127c-.933.769-1.669,1.476-2.458,2.262-.767.783-1.513,1.588-2.222,2.456a19.651,19.651,0,0,0-3.588,6.177,2.535,2.535,0,0,0,1.435,3.183,2.306,2.306,0,0,0,2.9-1.255l.075-.158a14.448,14.448,0,0,1,3.042-4.038c.642-.637,1.338-1.245,2.053-1.829.7-.565,1.495-1.165,2.162-1.6a3.273,3.273,0,0,0,.989-4.355,2.9,2.9,0,0,0-4.115-1.047A3.412,3.412,0,0,0,362.583,95.127Z" transform="translate(-354.18 -94.455)" fill="#39414c"/>
                        </g>
                        <path id="Path_59" data-name="Path 59" d="M377.036,109.667a30.638,30.638,0,0,0-4.873,2.179c-1.71.961-3.682,2.093-4.384,2.519-1.31.8-3,1.235-3.772-.492s1.067-5.131,5.541-7.184c2.655-1.222,10.442-3.364,11.506-.733C381.74,107.647,379.045,108.951,377.036,109.667Z" transform="translate(-333.706 -59.719)" fill="#f2b098"/>
                      </g>
                    </g>
                  </g>
                </g>
              </g>
              <g id="Group_32" data-name="Group 32">
                <path id="Path_60" data-name="Path 60" d="M414.48,80.517s11.89-4.573,19.995,4.949,11.494,27.876,13.085,34.806,5.529,36.156,5.529,36.156a41.391,41.391,0,0,1-18.831-16.119s10.08-7.567,4.177-18.225-18.46-5.345-14.66,4.952c0,0-13.275-3.411-23.006-28.008,0,0-4.864,6.032-.318,22.653,0,0-29.754,12.051-44.957,24.855,0,0-15.939-44.123,7.232-49.9C362.725,96.636,387.646,63.355,414.48,80.517Z" transform="translate(-350.148 -75.601)" fill="#1d0404"/>
                <path id="Path_61" data-name="Path 61" d="M354.4,91.319" transform="translate(-341.129 -39.424)" fill="#4c5765"/>
              </g>
            </g>
          </g>
          <path id="Path_62" data-name="Path 62" d="M438.856,110.6s-33.242-5.005-65.979,20.658c0,0-1.925,24.455,5.494,31.1s21.175,8.455,26.563,6.947S436.859,123.152,438.856,110.6Z" transform="translate(-302.442 23.421)" fill="#f8d4c4"/>
          <path id="Path_63" data-name="Path 63" d="M382,130.432s1.422,32.435,23.5,29.718S436.7,111.018,436.7,111.018s13.693-2.635,26.247,0,28.531,17.126,26.818,45.506-9.983,82.732-11.412,99.64-2.28,40.762-2.28,40.762-45.247,17.235-79.379,1.341c0,0-12.832-55.19-18.566-73.1S368.1,181.241,369.7,168.236s4.6-33.809,4.6-33.809Z" transform="translate(-309.415 22.606)" fill="#a5a5a5"/>
        </g>
        <path id="Path_64" data-name="Path 64" d="M483.894,366.286c-76.5-12.424-133.87-66.4-156.755-95.586s-21.365-109.928,24.987-126.07c37.863-13.19,73.913,13.817,85.843,24.145-1.576,3.186,4.006,1.07,4.274-.281,3.925-19.6,42.623-91.769,107.5-20.16C608.81,213.549,483.894,366.286,483.894,366.286Z" transform="translate(-312.702 39.815)" fill="#d91111"/>
        <path id="Path_65" data-name="Path 65" d="M354.448,132.823l-.312,3.239A12.64,12.64,0,0,1,354.448,132.823Z" transform="translate(-224.906 75.487)" fill="#fd5759"/>
        <path id="Path_66" data-name="Path 66" d="M392.255,238.686s-14.891-23.319-17.568-21.431,8.782,21.431,8.782,21.431S337.458,225.2,335.9,229.4s25.371,10.777,25.371,10.777-29.168-2.374-29.685,0,27.614,9.132,27.614,9.132-26.578-2.922-26.924,0,27.442,7.851,27.442,7.851-18.466.733-18.813,2.559,20.02,7.122,32.1,5.114,29-5.481,40.9-4.751,72.659,2.192,84.4-1.1c0,0,54.189-82.551,60.575-94.605s18.124-32.627,1.036-46.814-28.993-1.4-40.212,22.52S479.321,226.3,479.321,226.3Z" transform="translate(-272.679 26.739)" fill="#f8d4c4"/>
      </g>
    </g>
  </g>
</svg>
