<svg xmlns="http://www.w3.org/2000/svg" width="568.996" height="500" viewBox="0 0 568.996 500">
  <g id="Group_1598" data-name="Group 1598" transform="translate(-1037.613 -565)">
    <g id="background" transform="translate(1075.953 565)">
      <circle id="Ellipse_532" data-name="Ellipse 532" cx="183.796" cy="183.796" r="183.796" transform="translate(61.265 61.265)" fill="rgba(79,19,76,0.05)"/>
      <circle id="Ellipse_533" data-name="Ellipse 533" cx="245.061" cy="245.061" r="245.061" fill="rgba(79,19,76,0.05)"/>
    </g>
    <g id="Group_28" data-name="Group 28" transform="translate(1037.613 574.878)">
      <path id="Path_2" data-name="Path 2" d="M941.5,410.692a17.133,17.133,0,0,1,16.757-13.078,17.53,17.53,0,0,1,4.341.543,25.338,25.338,0,0,1,22.927-14.315,25.751,25.751,0,0,1,7.533,1.118,31.465,31.465,0,0,1,56.052,5.348,21.626,21.626,0,0,1,10.406-2.649,21.2,21.2,0,0,1,21.406,21c0,.687-.036,1.367-.1,2.037Z" transform="translate(-694.464 -370.157)" fill="#fff"/>
      <path id="Path_3" data-name="Path 3" d="M1468.917,887.693a17.131,17.131,0,0,0-16.756-13.078,17.525,17.525,0,0,0-4.341.543,25.336,25.336,0,0,0-22.928-14.316,25.737,25.737,0,0,0-7.532,1.118,31.465,31.465,0,0,0-56.051,5.348,21.627,21.627,0,0,0-10.407-2.649,21.2,21.2,0,0,0-21.407,21c0,.687.037,1.366.1,2.037Z" transform="translate(-899.92 -627.045)" fill="#fff"/>
      <path id="Path_6" data-name="Path 6" d="M550.569,493.679a11.343,11.343,0,0,1,11.094-8.658,11.62,11.62,0,0,1,2.874.359,16.773,16.773,0,0,1,15.179-9.478,17.048,17.048,0,0,1,4.987.741,20.831,20.831,0,0,1,37.109,3.539,14.321,14.321,0,0,1,6.889-1.753,14.038,14.038,0,0,1,14.173,13.9c0,.456-.024.9-.068,1.349Z" transform="translate(-487.459 -422.227)" fill="#fff"/>
      <path id="Path_5312" data-name="Path 5312" d="M.053.163,22.1,0l-.053,7.045L0,7.208Z" transform="translate(382.768 20.918) rotate(25.059)" fill="#feb546"/>
      <path id="Path_5314" data-name="Path 5314" d="M0,0,21.915.207l.069,6.929L.069,6.929Z" transform="matrix(0.707, -0.707, 0.707, 0.707, 186.111, 427.092)" fill="#feb546"/>
      <path id="Path_5315" data-name="Path 5315" d="M0,0,21.916.212,21.984,7.3.069,7.089Z" transform="matrix(0.707, -0.707, 0.707, 0.707, 88.738, 101.511)" fill="#02ccc0"/>
      <path id="Path_5316" data-name="Path 5316" d="M.041.125,22.127,0l-.041,7.033L0,7.159Z" transform="translate(100.044 169.743) rotate(18.12)" fill="#ff5b7e"/>
      <rect id="Rectangle_8" data-name="Rectangle 8" width="22.128" height="7.02" transform="translate(103.812 25.354)" fill="#ff5b7e"/>
      <path id="Path_5318" data-name="Path 5318" d="M0,0,22.085.128l.041,7.034L.041,7.034Z" transform="translate(31.592 81.793) rotate(-18.518)" fill="#07085b"/>
      <path id="Path_5319" data-name="Path 5319" d="M0,0,22.094.114l.037,7.031L.037,7.031Z" transform="translate(37.991 185.335) rotate(-16.311)" fill="#feb546"/>
      <path id="Path_5320" data-name="Path 5320" d="M.068.211,21.964,0,21.9,7.1,0,7.306Z" transform="matrix(0.673, 0.74, -0.74, 0.673, 212.601, 293.532)" fill="#ff5b7e"/>
      <path id="Path_5337" data-name="Path 5337" d="M0,0,22.111.083l.027,7.026L.027,7.026Z" transform="matrix(0.98, -0.2, 0.2, 0.98, 544.379, 204.526)" fill="#02ccc0"/>
      <path id="Path_5338" data-name="Path 5338" d="M0,0,22.111.083l.027,7.026L.027,7.026Z" transform="matrix(0.98, -0.2, 0.2, 0.98, 482.277, 128.847)" fill="#ff5b7e"/>
      <path id="Path_5325" data-name="Path 5325" d="M.053.163,22.1,0l-.053,7.045L0,7.208Z" transform="translate(410.296 217.444) rotate(25.059)" fill="#ff5b7e"/>
      <path id="Path_5326" data-name="Path 5326" d="M0,0,21.952.209l.068,7.077L.068,7.077Z" transform="translate(398.115 125.289) rotate(-40.018)" fill="#feb546"/>
      <path id="Path_5327" data-name="Path 5327" d="M0,0,21.952.209l.068,7.077L.068,7.077Z" transform="matrix(0.766, -0.643, 0.643, 0.766, 479.122, 344.495)" fill="#feb546"/>
      <path id="Path_5328" data-name="Path 5328" d="M0,0,21.952.209l.068,7.077L.068,7.077Z" transform="translate(444.042 62.304) rotate(-40.018)" fill="#07085b"/>
      <path id="Path_5329" data-name="Path 5329" d="M.046.141,21.8,0l-.046,7.14L0,7.281Z" transform="translate(396.394 325.316) rotate(-110.901)" fill="#07085b"/>
      <path id="Path_5339" data-name="Path 5339" d="M.116.3,21.955,0l-.116,7.5L0,7.795Z" transform="matrix(0.11, -0.994, 0.994, 0.11, 484.744, 206.462)" fill="#ff5b7e"/>
      <path id="Path_5331" data-name="Path 5331" d="M0,0,21.952.209l.068,7.077L.068,7.077Z" transform="translate(509.452 291.43) rotate(-40.018)" fill="#07085b"/>
      <path id="Path_5332" data-name="Path 5332" d="M0,0,21.952.209l.068,7.077L.068,7.077Z" transform="translate(0 281.491) rotate(-40.018)" fill="#ff5b7e"/>
      <path id="Path_5340" data-name="Path 5340" d="M0,0,21.629.182,21.7,7.128.067,6.946Z" transform="matrix(-0.068, -0.998, 0.998, -0.068, 151.307, 354.201)" fill="#ff5b7e"/>
      <path id="Path_5341" data-name="Path 5341" d="M0,0,21.629.182,21.7,7.128.067,6.946Z" transform="matrix(-0.068, -0.998, 0.998, -0.068, 425.359, 438.195)" fill="#ff5b7e"/>
      <path id="Path_5333" data-name="Path 5333" d="M0,0,22.057.158,22.108,7.2.051,7.043Z" transform="matrix(-0.913, 0.408, -0.408, -0.913, 115.374, 269.483)" fill="#07085b"/>
      <path id="Path_5334" data-name="Path 5334" d="M.062.191,21.884,0l-.062,7.119L0,7.309Z" transform="matrix(-0.53, -0.848, 0.848, -0.53, 63.366, 354.351)" fill="#feb546"/>
      <g id="Group_1" data-name="Group 1" transform="translate(252.587 50.178)">
        <path id="Path_9" data-name="Path 9" d="M1004.567,672.452l-.332,23.793L978.6,700.8l.853-33.578Z" transform="translate(-934.513 -580.317)" fill="#ffc0bb"/>
        <path id="Path_10" data-name="Path 10" d="M979.575,682.678l.393-15.458,25.117,7.9-.137,7.164A42.444,42.444,0,0,1,979.575,682.678Z" transform="translate(-935.031 -580.317)" fill="#fc8d84" opacity="0.6"/>
        <path id="Path_11" data-name="Path 11" d="M975.775,488.046s-19.712-11.018-41.353-8.874c-33.311,3.3-37.415,35.481-49.526,36,0,0,2.768,3.015,12.052,1.812,0,0-5.5,8.78-4.541,14.356,0,0,6.8-8.237,9.822-9.586,0,0-7.047,29.294,14.319,38.949,12.693,5.736,39.128-38.447,39.128-38.447Z" transform="translate(-884.896 -478.895)" fill="#07085b"/>
        <path id="Path_12" data-name="Path 12" d="M1048.116,628.411s1.47,18.051,12.793,20.65a18.593,18.593,0,0,1-2.622-12.023s8.516,11.648,17.936,4.373c0,0-16.024-8.355-11.224-20.063s-18.033,2.639-18.033,2.639Z" transform="translate(-970.716 -553.137)" fill="#07085b"/>
        <path id="Path_13" data-name="Path 13" d="M928.09,590.031c1.447,4.459-.332,8.995-3.975,10.13s-7.77-1.559-9.218-6.018.332-8.994,3.975-10.13S926.642,585.572,928.09,590.031Z" transform="translate(-900.516 -535.367)" fill="#f99893"/>
        <path id="Path_14" data-name="Path 14" d="M936.2,575.345a34.768,34.768,0,0,1-2.291-6.123,65.669,65.669,0,0,1-2.342-16.889c-.021-1.112-.106-2.222-.213-3.329a35.523,35.523,0,0,1,1.412-13.881,37,37,0,0,1,35.471-25.746c21.852.1,38.448,18.285,36.765,39.05a8.134,8.134,0,0,1,7.218.008c4.218,2.251,5.305,8.262,2.43,13.427s-8.626,7.526-12.843,5.274a7.047,7.047,0,0,1-1.567-1.15c-3.271,17.527-19.158,30.02-36.864,28.361a33.385,33.385,0,0,1-21.689-10.883,16.138,16.138,0,0,1-1.153-1.241A31.242,31.242,0,0,1,936.2,575.345Z" transform="translate(-909.409 -495.311)" fill="#ffc0bb"/>
        <path id="Path_15" data-name="Path 15" d="M1017.2,591.9a3.177,3.177,0,0,0,2.9,3.446,3.21,3.21,0,0,0,3.52-2.845,3.176,3.176,0,0,0-2.9-3.445A3.211,3.211,0,0,0,1017.2,591.9Z" transform="translate(-954.947 -538.215)" fill="#333"/>
        <path id="Path_16" data-name="Path 16" d="M958.206,590.139a3.177,3.177,0,0,0,2.9,3.446,3.21,3.21,0,0,0,3.52-2.844,3.176,3.176,0,0,0-2.9-3.447A3.21,3.21,0,0,0,958.206,590.139Z" transform="translate(-923.708 -537.265)" fill="#333"/>
        <path id="Path_17" data-name="Path 17" d="M1010.279,576.917a30.873,30.873,0,0,1,4.728-1.061,16.278,16.278,0,0,1,4.517,0,14.967,14.967,0,0,1,4.3,1.263l.539.222c.179.077.338.189.515.274l1.056.556c.709.385,1.362.863,2.148,1.248a13.926,13.926,0,0,0-1.406-2.108,11.6,11.6,0,0,0-1.912-1.741,10.62,10.62,0,0,0-4.92-1.983,11.2,11.2,0,0,0-5.286.529A10.2,10.2,0,0,0,1010.279,576.917Z" transform="translate(-951.29 -529.831)" fill="#07085b"/>
        <path id="Path_18" data-name="Path 18" d="M962.455,574.843a10.137,10.137,0,0,0-4.01-3.163,11.175,11.175,0,0,0-5.217-.987,10.655,10.655,0,0,0-5.081,1.547,11.69,11.69,0,0,0-2.063,1.568,14.014,14.014,0,0,0-1.593,1.977c.819-.315,1.513-.735,2.253-1.057l1.1-.461c.185-.07.353-.167.539-.229l.556-.174a15.045,15.045,0,0,1,4.4-.883,16.251,16.251,0,0,1,4.5.4A30.685,30.685,0,0,1,962.455,574.843Z" transform="translate(-916.453 -528.324)" fill="#07085b"/>
        <path id="Path_19" data-name="Path 19" d="M979.53,638.8a11.261,11.261,0,0,0,21.68-2.077Z" transform="translate(-935.007 -563.893)" fill="#fff"/>
        <path id="Path_20" data-name="Path 20" d="M990.018,587.28a47.149,47.149,0,0,0-2.935,5.817,43.729,43.729,0,0,0-2.147,6.143,16.235,16.235,0,0,0-.516,3.292,5.9,5.9,0,0,0,.066.9c.023.155.076.323.118.481a2.144,2.144,0,0,0,.271.513c.07.087.144.17.221.249l.183.14c.122.089.24.186.366.267.255.152.505.314.767.442a16.875,16.875,0,0,0,3.21,1.246,23.1,23.1,0,0,0,3.337.7,37.891,37.891,0,0,1-5.974-2.819c-.228-.138-.428-.3-.636-.451l-.288-.24-.14-.119a.2.2,0,0,0-.039-.065,2.341,2.341,0,0,1-.144-1.207,16.421,16.421,0,0,1,.551-3.024c.508-2.041,1.177-4.069,1.815-6.109C988.758,591.4,989.422,589.357,990.018,587.28Z" transform="translate(-937.597 -537.266)" fill="#f99893"/>
        <path id="Path_21" data-name="Path 21" d="M1028.392,534.892c5.25-2.833,9.608,2.087,9.608,2.087,1.886-4.419,8.77-23.54-6.77-36.745l10.452-4.4s-5.848-2.929-11.945-1.587a25.367,25.367,0,0,0,1.493-10.008s-4.48,5.98-7.092,7.018l-48.778.55s3.359,20.5,16.8,28.07c0,0-5.476-12.443-3.982-19.647,0,0,2.612,19.037,22.149,23.919l10.826,21.235,2.546-1.158C1024.315,540.589,1025.623,536.385,1028.392,534.892Z" transform="translate(-932.799 -481.776)" fill="#07085b"/>
      </g>
      <path id="Path_22" data-name="Path 22" d="M758.385,676.006s3.774,49.479,27.606,60.971,67.923-17.25,67.923-17.25l-43.3-8.268s-20.655,4.48-23.038,4.091-16.087-29.8-16.087-29.8Z" transform="translate(-565.318 -534.872)" fill="#ffc0bb"/>
      <path id="Path_23" data-name="Path 23" d="M914.822,721.832l-45.414,5.151,6.753,38.57,22.244-7.208Z" transform="translate(-624.108 -559.551)" fill="#e03268"/>
      <path id="Path_24" data-name="Path 24" d="M887.337,925.9s-14.7,128.567-12.313,173.37l25.959,3.035,27.035-148.743,3.421.13,17.415,149.6h23.568s3.891-149.345-8.82-191.421S887.337,925.9,887.337,925.9Z" transform="translate(-626.943 -653.469)" fill="#c4c4c4"/>
      <path id="Path_25" data-name="Path 25" d="M983.194,737.491a18.9,18.9,0,0,0-13.72-13.774,40.081,40.081,0,0,0-8.453-1.205l-1.434-.051h0c-16.923,5.306-25.086-1.482-25.088-1.484-6.292-1.038-24.314.023-31.471,43.417-8.739,52.985-9.135,70.516-9.135,70.516s50.445,23.766,85.4,5.065C979.293,839.975,990.874,768.75,983.194,737.491Z" transform="translate(-637.073 -558.976)" fill="#ff5b7e"/>
      <path id="Path_26" data-name="Path 26" d="M806.786,825.492c-2.424-4.946-4.309-8.994-4.309-8.994l-11.768-8.744s.288,3.761,1.221,9.344Z" transform="translate(-614.619 -605.824)" fill="#fc8d84" opacity="0.6"/>
      <path id="Path_27" data-name="Path 27" d="M899.55,1351.288l-.537,18.622-12.6,8.961s-5.956-7.871-5.838-8.961,1.169-23.516,1.169-23.516Z" transform="translate(-630.018 -895.907)" fill="#ffc0bb"/>
      <path id="Path_28" data-name="Path 28" d="M1041.564,1351.288l.537,18.622,12.6,8.961s5.956-7.871,5.838-8.961-1.168-23.516-1.168-23.516Z" transform="translate(-715.268 -895.907)" fill="#ffc0bb"/>
      <path id="Path_29" data-name="Path 29" d="M871.958,1332.6l27.312,3.192a1.288,1.288,0,0,1,1.13,1.516l-1.849,9.445a1.306,1.306,0,0,1-1.463,1.029l-25.58-3.467a1.291,1.291,0,0,1-1.129-1.286l.116-9.17A1.3,1.3,0,0,1,871.958,1332.6Z" transform="translate(-624.622 -888.475)" fill="#929292"/>
      <path id="Path_30" data-name="Path 30" d="M1055.177,1334.15l-27.312,3.193a1.287,1.287,0,0,0-1.13,1.516l1.848,9.444a1.305,1.305,0,0,0,1.464,1.029l25.58-3.467a1.29,1.29,0,0,0,1.128-1.286l-.116-9.171A1.3,1.3,0,0,0,1055.177,1334.15Z" transform="translate(-707.404 -889.308)" fill="#929292"/>
      <g id="Group_17" data-name="Group 17" transform="translate(148.476 32.888)">
        <path id="Path_81" data-name="Path 81" d="M788.6,479.064a6.963,6.963,0,0,0-4.3-3.818l-15.245-4.771a90.128,90.128,0,0,0,2.28-8.947l-35.276-9.817-35.277-9.817a90.4,90.4,0,0,0-2.85,8.789l-15.507-3.788a7.126,7.126,0,0,0-5.707,1.033,6.851,6.851,0,0,0-2.957,4.9c-.6,5.41-1.013,16.026,2.975,26.333a39.175,39.175,0,0,0,9.878,14.742,44.121,44.121,0,0,0,17.478,9.691,34.588,34.588,0,0,0,14.406,8.826,35.15,35.15,0,0,0,16.985-.09,44.734,44.734,0,0,0,20.084.762,40.348,40.348,0,0,0,16.3-7.456c8.912-6.718,14.246-15.964,16.632-20.878A6.758,6.758,0,0,0,788.6,479.064ZM680.392,453.532a.312.312,0,0,1,.144-.238.329.329,0,0,1,.279-.05l15.568,3.8c-2.256,10.637-3.6,25.011,1.392,36.818C679.414,483.594,679.353,462.89,680.392,453.532Zm102.086,28.41c-4.129,8.5-15.275,26.1-36.417,25.366,10.573-7.476,17.13-20.4,20.907-30.62l15.3,4.79a.323.323,0,0,1,.211.186A.311.311,0,0,1,782.478,481.942Z" transform="translate(-673.38 -437.081)" fill="#ffd103"/>
        <path id="Path_82" data-name="Path 82" d="M734.885,643.63l11.064-61.776-4.239,5.247.04-.138-.8-6.648-23.662,58.27Z" transform="translate(-696.631 -511.627)" fill="#ffd103"/>
        <path id="Path_83" data-name="Path 83" d="M768.248,589.192a6.319,6.319,0,0,1-7.784,4.259,6.166,6.166,0,0,1-4.343-7.634,6.321,6.321,0,0,1,7.784-4.26A6.166,6.166,0,0,1,768.248,589.192Z" transform="translate(-717.066 -512.169)" fill="#ffd103"/>
        <path id="Path_84" data-name="Path 84" d="M750.645,644.795l-13.211-3.676a2.25,2.25,0,0,1-1.584-2.786l.143-.494a2.307,2.307,0,0,1,2.841-1.554l13.21,3.677a2.251,2.251,0,0,1,1.585,2.786l-.143.494A2.306,2.306,0,0,1,750.645,644.795Z" transform="translate(-706.413 -541.724)" fill="#ffd103"/>
        <path id="Path_85" data-name="Path 85" d="M729.916,714.021l-20.581-5.728a2.62,2.62,0,0,1-1.845-3.243l.167-.576a2.685,2.685,0,0,1,3.307-1.809l20.581,5.727a2.621,2.621,0,0,1,1.845,3.244l-.167.576A2.685,2.685,0,0,1,729.916,714.021Z" transform="translate(-691.388 -577.465)" fill="#ffd103"/>
        <path id="Path_86" data-name="Path 86" d="M751.182,650.568l-11.707-3.258-1.266,3.117,12.372,3.5Z" transform="translate(-707.709 -547.708)" fill="#feb546" opacity="0.5" style="mix-blend-mode: multiply;isolation: isolate"/>
        <path id="Path_87" data-name="Path 87" d="M707.975,704.517a2.229,2.229,0,0,0-.316.658l-.369,1.278a2.255,2.255,0,0,0,1.589,2.792l21.3,5.927a2.311,2.311,0,0,0,2.847-1.558l.37-1.278a2.2,2.2,0,0,0,.084-.723Z" transform="translate(-691.29 -578.517)" fill="#feb546" opacity="0.5" style="mix-blend-mode: multiply;isolation: isolate"/>
        <path id="Path_5335" data-name="Path 5335" d="M3.664.152,33.835,0a3.568,3.568,0,0,1,3.623,3.564l0,.816a3.657,3.657,0,0,1-3.66,3.6L3.623,8.132A3.568,3.568,0,0,1,0,4.569l0-.817A3.656,3.656,0,0,1,3.664.152Z" transform="translate(10.98 125.877) rotate(15.84)" fill="#ffd103"/>
        <path id="Path_88" data-name="Path 88" d="M796.718,463.513l-12.827-3.569c-.1.3-.21.607-.319.914-19.8-5.134-57.73-15.278-57.73-15.278l54.668,22.96c-7.29,16.289-21.249,35.052-45.935,29.5a35.226,35.226,0,0,1-13.264-7.69c2.666,10.346,9.147,19.572,22.568,24.047C785.671,523.793,796.718,463.513,796.718,463.513Z" transform="translate(-698.761 -439.066)" fill="#feb546" opacity="0.3" style="mix-blend-mode: multiply;isolation: isolate"/>
        <path id="Path_89" data-name="Path 89" d="M794.694,461.735l-71.832-19.99a4.7,4.7,0,0,1-3.311-5.82l.3-1.033a4.817,4.817,0,0,1,5.934-3.247l71.832,19.99a4.7,4.7,0,0,1,3.311,5.82l-.3,1.033A4.818,4.818,0,0,1,794.694,461.735Z" transform="translate(-697.731 -431.464)" fill="#ffe55a"/>
        <path id="Path_90" data-name="Path 90" d="M734.6,469.542S718.01,511.919,753.037,522.2C753.037,522.2,730.486,505.857,734.6,469.542Z" transform="translate(-703.719 -451.971)" fill="#f4c676" opacity="0.3" style="mix-blend-mode: screen;isolation: isolate"/>
        <path id="Path_91" data-name="Path 91" d="M776.228,493.094l2.241,11.947,11.3,4.961-10.892,5.783-1.317,12.078-8.973-8.373-12.119,2.5,5.346-10.957L755.647,500.5l12.276,1.6Z" transform="translate(-716.943 -464.655)" fill="#feb546" opacity="0.3" style="mix-blend-mode: multiply;isolation: isolate"/>
        <path id="Path_92" data-name="Path 92" d="M774.93,488.843l2.242,11.946,11.3,4.962-10.891,5.783-1.318,12.078-8.973-8.373-12.119,2.5,5.346-10.957-6.172-10.531,12.277,1.6Z" transform="translate(-716.255 -462.365)" fill="#ffe55a"/>
      </g>
      <path id="Path_93" data-name="Path 93" d="M852.012,703.387C796.4,702.867,738.376,643,734.554,639.445s-4.568-7.7-3.674-8.327,3.425.73,3.425.73-1.571-5.34-.4-6.444c1.655-1.559,5.412.454,5.412.454s-.7-5.26,1.539-5.99,4.518,3.458,4.518,3.458c1.886-2.192,3.277-2.289,3.277-2.289,4.022.292,3.426,8.036,3.426,8.036l2.582-.633c3.922-.779,1.225,8.2,1.225,8.2s6.356,9.61,40.78,25.973,57.994,12.467,57.994,12.467Z" transform="translate(-550.573 -504.592)" fill="#ffc0bb"/>
      <path id="Path_94" data-name="Path 94" d="M981.979,730.979s29.992-1.653,37.949-.951c10.776.951,13.955,14.456,4.686,23.028-8.724,8.067-42.635,14.545-42.635,14.545Z" transform="translate(-683.717 -563.872)" fill="#e03268"/>
      <path id="Path_95" data-name="Path 95" d="M1015.079,759.056q-2.658,1.193-5.4,2.185t-5.53,1.863c-3.71,1.176-7.473,2.19-11.265,3.083q-2.845.669-5.711,1.24c-1.746.348-3.5.695-5.248.988l-.035-8.657c0-3.052-.038-6.1-.077-9.156l-.119-9.156c-.063-3.052-.107-6.1-.195-9.156-.089,3.052-.132,6.1-.2,9.156l-.119,9.156c-.039,3.051-.075,6.1-.078,9.156l-.036,9.155,0,.492.5-.077c3.885-.6,7.712-1.417,11.519-2.34s7.581-1.967,11.3-3.191q2.786-.927,5.517-2t5.384-2.323a54.009,54.009,0,0,0,5.152-2.779,37.469,37.469,0,0,0,4.751-3.38A50.455,50.455,0,0,1,1015.079,759.056Z" transform="translate(-683.233 -565.184)" fill="#eaf5f9"/>
      <g id="Group_22" data-name="Group 22" transform="translate(223.216 466.907)">
        <path id="Path_99" data-name="Path 99" d="M823.969,1426.186l48.292.088a1.491,1.491,0,0,0,1.508-1.473l0-2.113a1.49,1.49,0,0,0-1.5-1.479l-48.291-.089a1.49,1.49,0,0,0-1.507,1.474l0,2.113A1.491,1.491,0,0,0,823.969,1426.186Z" transform="translate(-822.467 -1403.058)" fill="#294a5c"/>
        <path id="Path_100" data-name="Path 100" d="M871.468,1384.744l1.673,14.087c.207,1.738-.787,3.313-2.088,3.309l-45.207-.083a3.294,3.294,0,0,1-2.948-2.076c-.63-1.387-.752-3.474,1.277-6.276,4.016-5.546,17.086-6.92,23.669-11.581a.788.788,0,0,1,.459-.147l20.8.038C870.28,1382.018,871.281,1383.174,871.468,1384.744Z" transform="translate(-822.479 -1381.978)" fill="#ff5b7e"/>
        <g id="Group_18" data-name="Group 18" transform="translate(19.21 1.231)">
          <path id="Path_101" data-name="Path 101" d="M872.837,1391.6h0a.94.94,0,0,0,.259-1.147c-.884-1.931-3.65-6.634-9.3-5.68a.791.791,0,0,0-.493.919v.014c.053.424.347.7.663.65,5.061-.838,7.411,3.307,8.126,4.927A.516.516,0,0,0,872.837,1391.6Z" transform="translate(-863.298 -1384.645)" fill="#294a5c"/>
        </g>
        <g id="Group_20" data-name="Group 20" transform="translate(14.511 3.035)">
          <g id="Group_19" data-name="Group 19">
            <path id="Path_102" data-name="Path 102" d="M862.85,1395.508h0a.937.937,0,0,0,.259-1.147c-.883-1.932-3.65-6.635-9.3-5.679a.79.79,0,0,0-.493.917v.016c.053.424.346.7.662.649,5.061-.837,7.412,3.308,8.127,4.927A.514.514,0,0,0,862.85,1395.508Z" transform="translate(-853.311 -1388.555)" fill="#294a5c"/>
          </g>
        </g>
        <g id="Group_21" data-name="Group 21" transform="translate(10.141 4.718)">
          <path id="Path_103" data-name="Path 103" d="M853.562,1399.155h0a.939.939,0,0,0,.259-1.147c-.884-1.931-3.649-6.633-9.3-5.678a.788.788,0,0,0-.494.916l0,.014c.053.424.346.7.662.651,5.061-.837,7.412,3.307,8.127,4.927A.515.515,0,0,0,853.562,1399.155Z" transform="translate(-844.022 -1392.203)" fill="#294a5c"/>
        </g>
      </g>
      <g id="Group_27" data-name="Group 27" transform="translate(298.492 466.907)">
        <path id="Path_104" data-name="Path 104" d="M983.969,1426.186l48.291.088a1.491,1.491,0,0,0,1.508-1.473l0-2.113a1.49,1.49,0,0,0-1.5-1.479l-48.291-.089a1.491,1.491,0,0,0-1.508,1.474l0,2.113A1.491,1.491,0,0,0,983.969,1426.186Z" transform="translate(-982.467 -1403.058)" fill="#294a5c"/>
        <path id="Path_105" data-name="Path 105" d="M1031.467,1384.744l1.673,14.087c.206,1.738-.787,3.313-2.088,3.309l-45.206-.083a3.293,3.293,0,0,1-2.948-2.076c-.63-1.387-.752-3.474,1.277-6.276,4.016-5.546,17.085-6.92,23.669-11.581a.788.788,0,0,1,.459-.147l20.8.038C1030.28,1382.018,1031.281,1383.174,1031.467,1384.744Z" transform="translate(-982.479 -1381.978)" fill="#ff5b7e"/>
        <g id="Group_23" data-name="Group 23" transform="translate(19.21 1.231)">
          <path id="Path_106" data-name="Path 106" d="M1032.837,1391.6h0a.938.938,0,0,0,.259-1.147c-.884-1.931-3.649-6.634-9.3-5.68a.792.792,0,0,0-.494.919l0,.014c.053.424.346.7.663.65,5.06-.838,7.411,3.307,8.126,4.927A.516.516,0,0,0,1032.837,1391.6Z" transform="translate(-1023.298 -1384.645)" fill="#294a5c"/>
        </g>
        <g id="Group_25" data-name="Group 25" transform="translate(14.512 3.035)">
          <g id="Group_24" data-name="Group 24">
            <path id="Path_107" data-name="Path 107" d="M1022.85,1395.508h0a.939.939,0,0,0,.26-1.147c-.884-1.932-3.65-6.635-9.3-5.679a.79.79,0,0,0-.494.917l0,.016c.052.424.346.7.662.649,5.06-.837,7.412,3.308,8.127,4.927A.513.513,0,0,0,1022.85,1395.508Z" transform="translate(-1013.312 -1388.555)" fill="#294a5c"/>
          </g>
        </g>
        <g id="Group_26" data-name="Group 26" transform="translate(10.141 4.718)">
          <path id="Path_108" data-name="Path 108" d="M1013.561,1399.155h0a.939.939,0,0,0,.259-1.147c-.884-1.931-3.65-6.633-9.3-5.678a.789.789,0,0,0-.494.916l0,.014c.053.424.346.7.662.651,5.061-.837,7.412,3.307,8.127,4.927A.515.515,0,0,0,1013.561,1399.155Z" transform="translate(-1004.023 -1392.203)" fill="#294a5c"/>
        </g>
      </g>
      <path id="Path_109" data-name="Path 109" d="M903.665,1392.451c-7.925,1.962-16.214,6.256-20.834,15.293l20.173.036c1.3,0,2.295-1.571,2.088-3.309Z" transform="translate(-631.216 -920.712)" fill="#ff5b7e" opacity="0.3" style="mix-blend-mode: multiply;isolation: isolate"/>
    </g>
  </g>
</svg>
