<svg xmlns="http://www.w3.org/2000/svg" width="14.92" height="26.251" viewBox="0 0 14.92 26.251">
  <g id="front" transform="translate(-3445.6 -775.673)">
    <path id="Path_2268" data-name="Path 2268" d="M3446.1,790.019h13.92v20.2H3446.1Z" transform="translate(0 -8.796)" fill="none" stroke="#e53935" stroke-width="1"/>
    <path id="Path_2269" data-name="Path 2269" d="M3456.668,780.172v-4.748l-11.36,4.748Z" transform="translate(0.865 1)" fill="none" stroke="#e53935" stroke-width="1"/>
    <path id="star-outline" d="M5.53,6.727l-1.327.8.349-1.511L3.38,5,4.926,4.87l.6-1.426.6,1.426L7.68,5,6.508,6.017l.349,1.511m2.2-2.972L6.522,4.34,5.53,2,4.538,4.34,2,4.556l1.924,1.67L3.348,8.707,5.53,7.39,7.711,8.707,7.132,6.225Z" transform="translate(3447.595 783.099)" fill="#e53935"/>
    <line id="Line_13" data-name="Line 13" x2="10.237" transform="translate(3448.006 795.159)" fill="none" stroke="#e53935" stroke-width="1"/>
    <line id="Line_14" data-name="Line 14" x2="9.178" transform="translate(3448.359 796.924)" fill="none" stroke="#e53935" stroke-width="1"/>
    <line id="Line_15" data-name="Line 15" x2="7.766" transform="translate(3449.065 798.689)" fill="none" stroke="#e53935" stroke-width="1"/>
  </g>
</svg>
