<svg xmlns="http://www.w3.org/2000/svg" width="34.676" height="21.724" viewBox="0 0 34.676 21.724">
  <g id="inside" transform="translate(-3493.833 -1060.825)">
    <path id="star-outline" d="M5.53,6.727l-1.327.8.349-1.511L3.38,5,4.926,4.87l.6-1.426.6,1.426L7.68,5,6.508,6.017l.349,1.511m2.2-2.972L6.522,4.34,5.53,2,4.538,4.34,2,4.556l1.924,1.67L3.348,8.707,5.53,7.39,7.711,8.707,7.132,6.225Z" transform="translate(3497.595 1063.099)" fill="#e53935"/>
    <line id="Line_19" data-name="Line 19" x2="10.237" transform="translate(3498.006 1075.159)" fill="none" stroke="#e53935" stroke-width="1"/>
    <line id="Line_20" data-name="Line 20" x2="9.178" transform="translate(3498.359 1076.924)" fill="none" stroke="#e53935" stroke-width="1"/>
    <line id="Line_21" data-name="Line 21" x2="7.766" transform="translate(3499.065 1078.689)" fill="none" stroke="#e53935" stroke-width="1"/>
    <path id="Path_2272" data-name="Path 2272" d="M3494.333,1062.221h33.676v20.724h-33.676Z" transform="translate(0 -0.897)" fill="none" stroke="#e53935" stroke-width="1"/>
    <path id="Path_2273" data-name="Path 2273" d="M3511.172,1061.661c.038,5.837,0,20.1,0,20.1Z" fill="none" stroke="#e53935" stroke-width="1"/>
    <line id="Line_22" data-name="Line 22" x2="10.237" transform="translate(3515.006 1069.159)" fill="none" stroke="#e53935" stroke-width="1"/>
    <path id="Path_2274" data-name="Path 2274" d="M9.178,0" transform="translate(3515.359 1070.924)" fill="none" stroke="#e53935" stroke-width="1"/>
    <line id="Line_23" data-name="Line 23" x2="10.237" transform="translate(3515.006 1067.159)" fill="none" stroke="#e53935" stroke-width="1"/>
    <line id="Line_24" data-name="Line 24" x2="10.237" transform="translate(3515.006 1071.159)" fill="none" stroke="#e53935" stroke-width="1"/>
    <line id="Line_25" data-name="Line 25" x2="10.237" transform="translate(3515.006 1073.159)" fill="none" stroke="#e53935" stroke-width="1"/>
    <line id="Line_26" data-name="Line 26" x2="10.237" transform="translate(3515.006 1075.159)" fill="none" stroke="#e53935" stroke-width="1"/>
    <line id="Line_27" data-name="Line 27" x2="10.237" transform="translate(3515.006 1077.159)" fill="none" stroke="#e53935" stroke-width="1"/>
  </g>
</svg>
