<svg xmlns="http://www.w3.org/2000/svg" width="79.867" height="59.9" viewBox="0 0 79.867 59.9">
  <g id="layputp5" transform="translate(-156 -597)">
    <g id="Rectangle_191" data-name="Rectangle 191" transform="translate(156 597)" fill="none" stroke="#707070" stroke-width="1">
      <rect width="79.867" height="59.9" stroke="none"/>
      <rect x="0.5" y="0.5" width="78.867" height="58.9" fill="none"/>
    </g>
    <line id="Line_51" data-name="Line 51" y2="59.9" transform="translate(196.033 597)" fill="none" stroke="#707070" stroke-width="1"/>
    <path id="image-outline_1_" data-name="image-outline (1)" d="M16.333,16.333H4.667V4.667H16.333m0-1.667H4.667A1.667,1.667,0,0,0,3,4.667V16.333A1.667,1.667,0,0,0,4.667,18H16.333A1.667,1.667,0,0,0,18,16.333V4.667A1.667,1.667,0,0,0,16.333,3m-4.2,7.742-2.292,2.95L8.208,11.725,5.917,14.667h9.167Z" transform="translate(156 602)" fill="#707070"/>
    <path id="image-outline_1_2" data-name="image-outline (1)" d="M16.333,16.333H4.667V4.667H16.333m0-1.667H4.667A1.667,1.667,0,0,0,3,4.667V16.333A1.667,1.667,0,0,0,4.667,18H16.333A1.667,1.667,0,0,0,18,16.333V4.667A1.667,1.667,0,0,0,16.333,3m-4.2,7.742-2.292,2.95L8.208,11.725,5.917,14.667h9.167Z" transform="translate(156 628)" fill="#707070"/>
    <g id="text" transform="translate(177.956 607.766)">
      <line id="Line_30" data-name="Line 30" x2="16.211" transform="translate(0 0)" fill="none" stroke="#707070" stroke-width="1"/>
      <line id="Line_31" data-name="Line 31" x2="14.534" transform="translate(0.559 4.992)" fill="none" stroke="#707070" stroke-width="1"/>
      <line id="Line_32" data-name="Line 32" x2="12.298" transform="translate(1.677 9.983)" fill="none" stroke="#707070" stroke-width="1"/>
    </g>
    <g id="text-2" data-name="text" transform="translate(177.956 633.766)">
      <line id="Line_30-2" data-name="Line 30" x2="16.211" transform="translate(0 0)" fill="none" stroke="#707070" stroke-width="1"/>
      <line id="Line_31-2" data-name="Line 31" x2="14.534" transform="translate(0.559 4.992)" fill="none" stroke="#707070" stroke-width="1"/>
      <line id="Line_32-2" data-name="Line 32" x2="12.298" transform="translate(1.677 9.983)" fill="none" stroke="#707070" stroke-width="1"/>
    </g>
    <line id="Line_52" data-name="Line 52" x2="30" transform="translate(201.5 635.5)" fill="none" stroke="#707070" stroke-width="1.5"/>
    <line id="Line_53" data-name="Line 53" x2="30" transform="translate(201.5 629.5)" fill="none" stroke="#707070" stroke-width="1.5"/>
    <line id="Line_54" data-name="Line 54" x2="30" transform="translate(201.5 623.5)" fill="none" stroke="#707070" stroke-width="1.5"/>
    <line id="Line_55" data-name="Line 55" x2="30" transform="translate(201.5 617.5)" fill="none" stroke="#707070" stroke-width="1.5"/>
    <line id="Line_56" data-name="Line 56" x2="30" transform="translate(201.5 611.5)" fill="none" stroke="#707070" stroke-width="1.5"/>
    <line id="Line_57" data-name="Line 57" x2="30" transform="translate(201.5 647.5)" fill="none" stroke="#707070" stroke-width="1.5"/>
    <line id="Line_58" data-name="Line 58" x2="30" transform="translate(201.5 641.5)" fill="none" stroke="#707070" stroke-width="1.5"/>
    <line id="Line_59" data-name="Line 59" x2="30" transform="translate(201.5 605.5)" fill="none" stroke="#707070" stroke-width="1.5"/>
  </g>
</svg>
