<svg xmlns="http://www.w3.org/2000/svg" width="79.867" height="60" viewBox="0 0 79.867 60">
  <g id="layoutp4" transform="translate(-296 -517)">
    <g id="Path_2278" data-name="Path 2278" transform="translate(296 517)" fill="none">
      <path d="M0,0H79.867V59.9H0Z" stroke="none"/>
      <path d="M 1 0.9999961853027344 L 1 58.90016174316406 L 78.86688995361328 58.90016174316406 L 78.86688995361328 0.9999961853027344 L 1 0.9999961853027344 M 0 -3.814697265625e-06 L 79.86688995361328 -3.814697265625e-06 L 79.86688995361328 59.90016174316406 L 0 59.90016174316406 L 0 -3.814697265625e-06 Z" stroke="none" fill="#707070"/>
    </g>
    <line id="Line_34" data-name="Line 34" y2="59.9" transform="translate(336.033 517.1)" fill="none" stroke="#707070" stroke-width="1"/>
    <line id="Line_35" data-name="Line 35" x2="30" transform="translate(341.5 556.5)" fill="none" stroke="#707070" stroke-width="1.5"/>
    <line id="Line_36" data-name="Line 36" x2="30" transform="translate(341.5 550.5)" fill="none" stroke="#707070" stroke-width="1.5"/>
    <line id="Line_37" data-name="Line 37" x2="30" transform="translate(341.5 544.5)" fill="none" stroke="#707070" stroke-width="1.5"/>
    <line id="Line_38" data-name="Line 38" x2="30" transform="translate(341.5 538.5)" fill="none" stroke="#707070" stroke-width="1.5"/>
    <line id="Line_39" data-name="Line 39" x2="30" transform="translate(341.5 532.5)" fill="none" stroke="#707070" stroke-width="1.5"/>
    <line id="Line_40" data-name="Line 40" x2="30" transform="translate(341.5 568.5)" fill="none" stroke="#707070" stroke-width="1.5"/>
    <line id="Line_41" data-name="Line 41" x2="30" transform="translate(341.5 562.5)" fill="none" stroke="#707070" stroke-width="1.5"/>
    <line id="Line_42" data-name="Line 42" x2="30" transform="translate(341.5 526.5)" fill="none" stroke="#707070" stroke-width="1.5"/>
    <line id="Line_43" data-name="Line 43" x2="30" transform="translate(300.5 556.5)" fill="none" stroke="#707070" stroke-width="1.5"/>
    <line id="Line_44" data-name="Line 44" x2="30" transform="translate(300.5 550.5)" fill="none" stroke="#707070" stroke-width="1.5"/>
    <line id="Line_45" data-name="Line 45" x2="30" transform="translate(300.5 544.5)" fill="none" stroke="#707070" stroke-width="1.5"/>
    <line id="Line_46" data-name="Line 46" x2="30" transform="translate(300.5 538.5)" fill="none" stroke="#707070" stroke-width="1.5"/>
    <line id="Line_47" data-name="Line 47" x2="30" transform="translate(300.5 532.5)" fill="none" stroke="#707070" stroke-width="1.5"/>
    <line id="Line_48" data-name="Line 48" x2="30" transform="translate(300.5 568.5)" fill="none" stroke="#707070" stroke-width="1.5"/>
    <line id="Line_49" data-name="Line 49" x2="30" transform="translate(300.5 562.5)" fill="none" stroke="#707070" stroke-width="1.5"/>
    <line id="Line_50" data-name="Line 50" x2="30" transform="translate(300.5 526.5)" fill="none" stroke="#707070" stroke-width="1.5"/>
  </g>
</svg>
