<svg xmlns="http://www.w3.org/2000/svg" width="79.867" height="59.9" viewBox="0 0 79.867 59.9">
  <g id="layoutp2" transform="translate(-4014 -869)">
    <g id="Rectangle_189" data-name="Rectangle 189" transform="translate(4014 869)" fill="none" stroke="#707070" stroke-width="1">
      <rect width="79.867" height="59.9" stroke="none"/>
      <rect x="0.5" y="0.5" width="78.867" height="58.9" fill="none"/>
    </g>
    <line id="Line_33" data-name="Line 33" y2="59.9" transform="translate(4054.033 869)" fill="none" stroke="#707070" stroke-width="1"/>
    <path id="image-outline_1_" data-name="image-outline (1)" d="M16.333,16.333H4.667V4.667H16.333m0-1.667H4.667A1.667,1.667,0,0,0,3,4.667V16.333A1.667,1.667,0,0,0,4.667,18H16.333A1.667,1.667,0,0,0,18,16.333V4.667A1.667,1.667,0,0,0,16.333,3m-4.2,7.742-2.292,2.95L8.208,11.725,5.917,14.667h9.167Z" transform="translate(4025 870)" fill="#707070"/>
    <g id="text" transform="translate(353.11 944)">
      <line id="Line_30" data-name="Line 30" x2="22.778" transform="translate(3671.006 -52.841)" fill="none" stroke="#707070" stroke-width="1"/>
      <line id="Line_31" data-name="Line 31" x2="14.924" transform="translate(3674.322 -49.431)" fill="none" stroke="#707070" stroke-width="1"/>
    </g>
    <path id="image-outline_1_2" data-name="image-outline (1)" d="M16.333,16.333H4.667V4.667H16.333m0-1.667H4.667A1.667,1.667,0,0,0,3,4.667V16.333A1.667,1.667,0,0,0,4.667,18H16.333A1.667,1.667,0,0,0,18,16.333V4.667A1.667,1.667,0,0,0,16.333,3m-4.2,7.742-2.292,2.95L8.208,11.725,5.917,14.667h9.167Z" transform="translate(4025 901)" fill="#707070"/>
    <g id="text-2" data-name="text" transform="translate(353.11 975)">
      <line id="Line_30-2" data-name="Line 30" x2="22.778" transform="translate(3671.006 -52.841)" fill="none" stroke="#707070" stroke-width="1"/>
      <line id="Line_31-2" data-name="Line 31" x2="14.924" transform="translate(3674.322 -49.431)" fill="none" stroke="#707070" stroke-width="1"/>
    </g>
    <path id="image-outline_1_3" data-name="image-outline (1)" d="M16.333,16.333H4.667V4.667H16.333m0-1.667H4.667A1.667,1.667,0,0,0,3,4.667V16.333A1.667,1.667,0,0,0,4.667,18H16.333A1.667,1.667,0,0,0,18,16.333V4.667A1.667,1.667,0,0,0,16.333,3m-4.2,7.742-2.292,2.95L8.208,11.725,5.917,14.667h9.167Z" transform="translate(4064 901)" fill="#707070"/>
    <g id="text-3" data-name="text" transform="translate(392.11 974)">
      <line id="Line_30-3" data-name="Line 30" x2="22.778" transform="translate(3671.006 -52.841)" fill="none" stroke="#707070" stroke-width="1"/>
      <line id="Line_31-3" data-name="Line 31" x2="14.924" transform="translate(3674.322 -49.431)" fill="none" stroke="#707070" stroke-width="1"/>
    </g>
    <path id="image-outline_1_4" data-name="image-outline (1)" d="M16.333,16.333H4.667V4.667H16.333m0-1.667H4.667A1.667,1.667,0,0,0,3,4.667V16.333A1.667,1.667,0,0,0,4.667,18H16.333A1.667,1.667,0,0,0,18,16.333V4.667A1.667,1.667,0,0,0,16.333,3m-4.2,7.742-2.292,2.95L8.208,11.725,5.917,14.667h9.167Z" transform="translate(4064 870)" fill="#707070"/>
    <g id="text-4" data-name="text" transform="translate(392.11 944)">
      <line id="Line_30-4" data-name="Line 30" x2="22.778" transform="translate(3671.006 -52.841)" fill="none" stroke="#707070" stroke-width="1"/>
      <line id="Line_31-4" data-name="Line 31" x2="14.924" transform="translate(3674.322 -49.431)" fill="none" stroke="#707070" stroke-width="1"/>
    </g>
  </g>
</svg>
