<svg xmlns="http://www.w3.org/2000/svg" width="79.867" height="60" viewBox="0 0 79.867 60">
  <g id="layoutp3" transform="translate(-296 -517)">
    <g id="Path_2277" data-name="Path 2277" transform="translate(296 517)" fill="none">
      <path d="M0,0H79.867V59.9H0Z" stroke="none"/>
      <path d="M 1 0.9999961853027344 L 1 58.90016174316406 L 78.86688995361328 58.90016174316406 L 78.86688995361328 0.9999961853027344 L 1 0.9999961853027344 M 0 -3.814697265625e-06 L 79.86688995361328 -3.814697265625e-06 L 79.86688995361328 59.90016174316406 L 0 59.90016174316406 L 0 -3.814697265625e-06 Z" stroke="none" fill="#707070"/>
    </g>
    <line id="Line_34" data-name="Line 34" y2="59.9" transform="translate(336.033 517.1)" fill="none" stroke="#707070" stroke-width="1"/>
    <path id="image-outline_1_" data-name="image-outline (1)" d="M20.748,20.748H5.219V5.219h15.53m0-2.219H5.219A2.219,2.219,0,0,0,3,5.219v15.53a2.219,2.219,0,0,0,2.219,2.219h15.53a2.219,2.219,0,0,0,2.219-2.219V5.219A2.219,2.219,0,0,0,20.748,3M15.158,13.305l-3.05,3.927L9.933,14.614,6.882,18.53h12.2Z" transform="translate(304.78 526.978)" fill="#707070"/>
    <g id="text" transform="translate(303.189 556.766)">
      <line id="Line_30" data-name="Line 30" x2="28.951" transform="translate(0 0)" fill="none" stroke="#707070" stroke-width="1.5"/>
      <line id="Line_31" data-name="Line 31" x2="25.956" transform="translate(0.998 4.992)" fill="none" stroke="#707070" stroke-width="1.5"/>
      <line id="Line_32" data-name="Line 32" x2="21.962" transform="translate(2.995 9.983)" fill="none" stroke="#707070" stroke-width="1.5"/>
    </g>
    <line id="Line_35" data-name="Line 35" x2="30" transform="translate(341.5 556.5)" fill="none" stroke="#707070" stroke-width="1.5"/>
    <line id="Line_36" data-name="Line 36" x2="30" transform="translate(341.5 550.5)" fill="none" stroke="#707070" stroke-width="1.5"/>
    <line id="Line_37" data-name="Line 37" x2="30" transform="translate(341.5 544.5)" fill="none" stroke="#707070" stroke-width="1.5"/>
    <line id="Line_38" data-name="Line 38" x2="30" transform="translate(341.5 538.5)" fill="none" stroke="#707070" stroke-width="1.5"/>
    <line id="Line_39" data-name="Line 39" x2="30" transform="translate(341.5 532.5)" fill="none" stroke="#707070" stroke-width="1.5"/>
    <line id="Line_40" data-name="Line 40" x2="30" transform="translate(341.5 568.5)" fill="none" stroke="#707070" stroke-width="1.5"/>
    <line id="Line_41" data-name="Line 41" x2="30" transform="translate(341.5 562.5)" fill="none" stroke="#707070" stroke-width="1.5"/>
    <line id="Line_42" data-name="Line 42" x2="30" transform="translate(341.5 526.5)" fill="none" stroke="#707070" stroke-width="1.5"/>
  </g>
</svg>
