<svg xmlns="http://www.w3.org/2000/svg" width="79.867" height="60" viewBox="0 0 79.867 60">
  <g id="layoutp6" transform="translate(-296 -517)">
    <g id="Rectangle_190" data-name="Rectangle 190" transform="translate(296 517)" fill="none" stroke="#707070" stroke-width="1">
      <rect width="79.867" height="59.9" stroke="none"/>
      <rect x="0.5" y="0.5" width="78.867" height="58.9" fill="none"/>
    </g>
    <line id="Line_34" data-name="Line 34" y2="59.9" transform="translate(336.033 517.1)" fill="none" stroke="#707070" stroke-width="1"/>
    <path id="image-outline_1_" data-name="image-outline (1)" d="M32.859,32.859H6.732V6.732H32.859m0-3.732H6.732A3.732,3.732,0,0,0,3,6.732V32.859a3.732,3.732,0,0,0,3.732,3.732H32.859a3.732,3.732,0,0,0,3.732-3.732V6.732A3.732,3.732,0,0,0,32.859,3M23.454,20.337l-5.132,6.606-3.658-4.4L9.532,29.127H30.06Z" transform="translate(296.78 526.978)" fill="#707070" opacity="0.79"/>
    <line id="Line_35" data-name="Line 35" x2="30" transform="translate(341.5 556.5)" fill="none" stroke="#707070" stroke-width="1.5"/>
    <line id="Line_36" data-name="Line 36" x2="30" transform="translate(341.5 550.5)" fill="none" stroke="#707070" stroke-width="1.5"/>
    <line id="Line_37" data-name="Line 37" x2="30" transform="translate(341.5 544.5)" fill="none" stroke="#707070" stroke-width="1.5"/>
    <line id="Line_38" data-name="Line 38" x2="30" transform="translate(341.5 538.5)" fill="none" stroke="#707070" stroke-width="1.5"/>
    <line id="Line_39" data-name="Line 39" x2="30" transform="translate(341.5 532.5)" fill="none" stroke="#707070" stroke-width="1.5"/>
    <line id="Line_40" data-name="Line 40" x2="30" transform="translate(341.5 568.5)" fill="none" stroke="#707070" stroke-width="1.5"/>
    <line id="Line_41" data-name="Line 41" x2="30" transform="translate(341.5 562.5)" fill="none" stroke="#707070" stroke-width="1.5"/>
    <line id="Line_42" data-name="Line 42" x2="30" transform="translate(341.5 526.5)" fill="none" stroke="#707070" stroke-width="1.5"/>
  </g>
</svg>
