<svg xmlns="http://www.w3.org/2000/svg" width="20" height="20" viewBox="0 0 20 20">
  <path id="palette" d="M19.111,13a1.667,1.667,0,1,1,1.667-1.667A1.667,1.667,0,0,1,19.111,13M15.778,8.556a1.667,1.667,0,1,1,1.667-1.667,1.667,1.667,0,0,1-1.667,1.667m-5.556,0a1.667,1.667,0,1,1,1.667-1.667,1.667,1.667,0,0,1-1.667,1.667M6.889,13a1.667,1.667,0,1,1,1.667-1.667A1.667,1.667,0,0,1,6.889,13M13,3a10,10,0,0,0,0,20,1.667,1.667,0,0,0,1.667-1.667,1.631,1.631,0,0,0-.433-1.111,1.721,1.721,0,0,1-.422-1.111,1.667,1.667,0,0,1,1.667-1.667h1.967A5.556,5.556,0,0,0,23,11.889C23,6.978,18.522,3,13,3Z" transform="translate(-3 -3)"/>
</svg>
